%TF.GenerationSoftware,KiCad,Pcbnew,8.0.6*%
%TF.CreationDate,2024-11-11T12:49:28-08:00*%
%TF.ProjectId,pi-zero-serial-hat,70692d7a-6572-46f2-9d73-657269616c2d,1.0*%
%TF.SameCoordinates,Original*%
%TF.FileFunction,Drillmap*%
%TF.FilePolarity,Positive*%
%FSLAX45Y45*%
G04 Gerber Fmt 4.5, Leading zero omitted, Abs format (unit mm)*
G04 Created by KiCad (PCBNEW 8.0.6) date 2024-11-11 12:49:28*
%MOMM*%
%LPD*%
G01*
G04 APERTURE LIST*
%ADD10C,0.150000*%
%ADD11C,0.200000*%
%ADD12C,0.100000*%
G04 APERTURE END LIST*
D10*
X12103200Y-12106800D02*
X17903200Y-12106800D01*
X17953200Y-9106800D02*
G75*
G02*
X18253200Y-9406800I0J-300000D01*
G01*
X18253200Y-11806800D02*
G75*
G02*
X17953200Y-12106800I-300000J0D01*
G01*
X12053200Y-12106800D02*
G75*
G02*
X11753200Y-11806800I0J300000D01*
G01*
X11753200Y-9406800D02*
G75*
G02*
X12053200Y-9106800I300000J0D01*
G01*
X11753200Y-11806800D02*
X11753200Y-9406800D01*
X12053200Y-9106800D02*
X17953200Y-9106800D01*
X18253200Y-9406800D02*
X18253200Y-11806800D01*
X17903200Y-12106800D02*
X17953200Y-12106800D01*
X12103200Y-12106800D02*
X12053200Y-12106800D01*
D11*
D12*
X14483200Y-10716800D02*
X14523200Y-10756800D01*
X14523200Y-10716800D02*
X14483200Y-10756800D01*
X14833200Y-10836800D02*
X14873200Y-10876800D01*
X14873200Y-10836800D02*
X14833200Y-10876800D01*
X15135200Y-9876800D02*
X15175200Y-9916800D01*
X15175200Y-9876800D02*
X15135200Y-9916800D01*
X15245200Y-10456800D02*
X15285200Y-10496800D01*
X15285200Y-10456800D02*
X15245200Y-10496800D01*
X15313200Y-11196800D02*
X15353200Y-11236800D01*
X15353200Y-11196800D02*
X15313200Y-11236800D01*
X15723200Y-11066800D02*
X15763200Y-11106800D01*
X15763200Y-11066800D02*
X15723200Y-11106800D01*
X15913200Y-9926800D02*
X15953200Y-9966800D01*
X15953200Y-9926800D02*
X15913200Y-9966800D01*
X12223200Y-10082800D02*
G75*
G02*
X12123200Y-10082800I-50000J0D01*
G01*
X12123200Y-10082800D02*
G75*
G02*
X12223200Y-10082800I50000J0D01*
G01*
X12223200Y-10336800D02*
G75*
G02*
X12123200Y-10336800I-50000J0D01*
G01*
X12123200Y-10336800D02*
G75*
G02*
X12223200Y-10336800I50000J0D01*
G01*
X12643200Y-9331800D02*
G75*
G02*
X12543200Y-9331800I-50000J0D01*
G01*
X12543200Y-9331800D02*
G75*
G02*
X12643200Y-9331800I50000J0D01*
G01*
X12643200Y-9585800D02*
G75*
G02*
X12543200Y-9585800I-50000J0D01*
G01*
X12543200Y-9585800D02*
G75*
G02*
X12643200Y-9585800I50000J0D01*
G01*
X12897200Y-9331800D02*
G75*
G02*
X12797200Y-9331800I-50000J0D01*
G01*
X12797200Y-9331800D02*
G75*
G02*
X12897200Y-9331800I50000J0D01*
G01*
X12897200Y-9585800D02*
G75*
G02*
X12797200Y-9585800I-50000J0D01*
G01*
X12797200Y-9585800D02*
G75*
G02*
X12897200Y-9585800I50000J0D01*
G01*
X13151200Y-9331800D02*
G75*
G02*
X13051200Y-9331800I-50000J0D01*
G01*
X13051200Y-9331800D02*
G75*
G02*
X13151200Y-9331800I50000J0D01*
G01*
X13151200Y-9585800D02*
G75*
G02*
X13051200Y-9585800I-50000J0D01*
G01*
X13051200Y-9585800D02*
G75*
G02*
X13151200Y-9585800I50000J0D01*
G01*
X13405200Y-9331800D02*
G75*
G02*
X13305200Y-9331800I-50000J0D01*
G01*
X13305200Y-9331800D02*
G75*
G02*
X13405200Y-9331800I50000J0D01*
G01*
X13405200Y-9585800D02*
G75*
G02*
X13305200Y-9585800I-50000J0D01*
G01*
X13305200Y-9585800D02*
G75*
G02*
X13405200Y-9585800I50000J0D01*
G01*
X13659200Y-9331800D02*
G75*
G02*
X13559200Y-9331800I-50000J0D01*
G01*
X13559200Y-9331800D02*
G75*
G02*
X13659200Y-9331800I50000J0D01*
G01*
X13659200Y-9585800D02*
G75*
G02*
X13559200Y-9585800I-50000J0D01*
G01*
X13559200Y-9585800D02*
G75*
G02*
X13659200Y-9585800I50000J0D01*
G01*
X13913200Y-9331800D02*
G75*
G02*
X13813200Y-9331800I-50000J0D01*
G01*
X13813200Y-9331800D02*
G75*
G02*
X13913200Y-9331800I50000J0D01*
G01*
X13913200Y-9585800D02*
G75*
G02*
X13813200Y-9585800I-50000J0D01*
G01*
X13813200Y-9585800D02*
G75*
G02*
X13913200Y-9585800I50000J0D01*
G01*
X14167200Y-9331800D02*
G75*
G02*
X14067200Y-9331800I-50000J0D01*
G01*
X14067200Y-9331800D02*
G75*
G02*
X14167200Y-9331800I50000J0D01*
G01*
X14167200Y-9585800D02*
G75*
G02*
X14067200Y-9585800I-50000J0D01*
G01*
X14067200Y-9585800D02*
G75*
G02*
X14167200Y-9585800I50000J0D01*
G01*
X14410700Y-10306800D02*
G75*
G02*
X14310700Y-10306800I-50000J0D01*
G01*
X14310700Y-10306800D02*
G75*
G02*
X14410700Y-10306800I50000J0D01*
G01*
X14421200Y-9331800D02*
G75*
G02*
X14321200Y-9331800I-50000J0D01*
G01*
X14321200Y-9331800D02*
G75*
G02*
X14421200Y-9331800I50000J0D01*
G01*
X14421200Y-9585800D02*
G75*
G02*
X14321200Y-9585800I-50000J0D01*
G01*
X14321200Y-9585800D02*
G75*
G02*
X14421200Y-9585800I50000J0D01*
G01*
X14664700Y-10306800D02*
G75*
G02*
X14564700Y-10306800I-50000J0D01*
G01*
X14564700Y-10306800D02*
G75*
G02*
X14664700Y-10306800I50000J0D01*
G01*
X14675200Y-9331800D02*
G75*
G02*
X14575200Y-9331800I-50000J0D01*
G01*
X14575200Y-9331800D02*
G75*
G02*
X14675200Y-9331800I50000J0D01*
G01*
X14675200Y-9585800D02*
G75*
G02*
X14575200Y-9585800I-50000J0D01*
G01*
X14575200Y-9585800D02*
G75*
G02*
X14675200Y-9585800I50000J0D01*
G01*
X14929200Y-9331800D02*
G75*
G02*
X14829200Y-9331800I-50000J0D01*
G01*
X14829200Y-9331800D02*
G75*
G02*
X14929200Y-9331800I50000J0D01*
G01*
X14929200Y-9585800D02*
G75*
G02*
X14829200Y-9585800I-50000J0D01*
G01*
X14829200Y-9585800D02*
G75*
G02*
X14929200Y-9585800I50000J0D01*
G01*
X15183200Y-9331800D02*
G75*
G02*
X15083200Y-9331800I-50000J0D01*
G01*
X15083200Y-9331800D02*
G75*
G02*
X15183200Y-9331800I50000J0D01*
G01*
X15183200Y-9585800D02*
G75*
G02*
X15083200Y-9585800I-50000J0D01*
G01*
X15083200Y-9585800D02*
G75*
G02*
X15183200Y-9585800I50000J0D01*
G01*
X15437200Y-9331800D02*
G75*
G02*
X15337200Y-9331800I-50000J0D01*
G01*
X15337200Y-9331800D02*
G75*
G02*
X15437200Y-9331800I50000J0D01*
G01*
X15437200Y-9585800D02*
G75*
G02*
X15337200Y-9585800I-50000J0D01*
G01*
X15337200Y-9585800D02*
G75*
G02*
X15437200Y-9585800I50000J0D01*
G01*
X15691200Y-9331800D02*
G75*
G02*
X15591200Y-9331800I-50000J0D01*
G01*
X15591200Y-9331800D02*
G75*
G02*
X15691200Y-9331800I50000J0D01*
G01*
X15691200Y-9585800D02*
G75*
G02*
X15591200Y-9585800I-50000J0D01*
G01*
X15591200Y-9585800D02*
G75*
G02*
X15691200Y-9585800I50000J0D01*
G01*
X15945200Y-9331800D02*
G75*
G02*
X15845200Y-9331800I-50000J0D01*
G01*
X15845200Y-9331800D02*
G75*
G02*
X15945200Y-9331800I50000J0D01*
G01*
X15945200Y-9585800D02*
G75*
G02*
X15845200Y-9585800I-50000J0D01*
G01*
X15845200Y-9585800D02*
G75*
G02*
X15945200Y-9585800I50000J0D01*
G01*
X16199200Y-9331800D02*
G75*
G02*
X16099200Y-9331800I-50000J0D01*
G01*
X16099200Y-9331800D02*
G75*
G02*
X16199200Y-9331800I50000J0D01*
G01*
X16199200Y-9585800D02*
G75*
G02*
X16099200Y-9585800I-50000J0D01*
G01*
X16099200Y-9585800D02*
G75*
G02*
X16199200Y-9585800I50000J0D01*
G01*
X16453200Y-9331800D02*
G75*
G02*
X16353200Y-9331800I-50000J0D01*
G01*
X16353200Y-9331800D02*
G75*
G02*
X16453200Y-9331800I50000J0D01*
G01*
X16453200Y-9585800D02*
G75*
G02*
X16353200Y-9585800I-50000J0D01*
G01*
X16353200Y-9585800D02*
G75*
G02*
X16453200Y-9585800I50000J0D01*
G01*
X16707200Y-9331800D02*
G75*
G02*
X16607200Y-9331800I-50000J0D01*
G01*
X16607200Y-9331800D02*
G75*
G02*
X16707200Y-9331800I50000J0D01*
G01*
X16707200Y-9585800D02*
G75*
G02*
X16607200Y-9585800I-50000J0D01*
G01*
X16607200Y-9585800D02*
G75*
G02*
X16707200Y-9585800I50000J0D01*
G01*
X16961200Y-9331800D02*
G75*
G02*
X16861200Y-9331800I-50000J0D01*
G01*
X16861200Y-9331800D02*
G75*
G02*
X16961200Y-9331800I50000J0D01*
G01*
X16961200Y-9585800D02*
G75*
G02*
X16861200Y-9585800I-50000J0D01*
G01*
X16861200Y-9585800D02*
G75*
G02*
X16961200Y-9585800I50000J0D01*
G01*
X17215200Y-9331800D02*
G75*
G02*
X17115200Y-9331800I-50000J0D01*
G01*
X17115200Y-9331800D02*
G75*
G02*
X17215200Y-9331800I50000J0D01*
G01*
X17215200Y-9585800D02*
G75*
G02*
X17115200Y-9585800I-50000J0D01*
G01*
X17115200Y-9585800D02*
G75*
G02*
X17215200Y-9585800I50000J0D01*
G01*
X17469200Y-9331800D02*
G75*
G02*
X17369200Y-9331800I-50000J0D01*
G01*
X17369200Y-9331800D02*
G75*
G02*
X17469200Y-9331800I50000J0D01*
G01*
X17469200Y-9585800D02*
G75*
G02*
X17369200Y-9585800I-50000J0D01*
G01*
X17369200Y-9585800D02*
G75*
G02*
X17469200Y-9585800I50000J0D01*
G01*
X17803200Y-10031800D02*
G75*
G02*
X17703200Y-10031800I-50000J0D01*
G01*
X17703200Y-10031800D02*
G75*
G02*
X17803200Y-10031800I50000J0D01*
G01*
X17803200Y-10381800D02*
G75*
G02*
X17703200Y-10381800I-50000J0D01*
G01*
X17703200Y-10381800D02*
G75*
G02*
X17803200Y-10381800I50000J0D01*
G01*
D11*
X12006477Y-12425784D02*
X12006477Y-12225784D01*
X12006477Y-12225784D02*
X12054096Y-12225784D01*
X12054096Y-12225784D02*
X12082667Y-12235308D01*
X12082667Y-12235308D02*
X12101715Y-12254355D01*
X12101715Y-12254355D02*
X12111239Y-12273403D01*
X12111239Y-12273403D02*
X12120762Y-12311498D01*
X12120762Y-12311498D02*
X12120762Y-12340069D01*
X12120762Y-12340069D02*
X12111239Y-12378165D01*
X12111239Y-12378165D02*
X12101715Y-12397212D01*
X12101715Y-12397212D02*
X12082667Y-12416260D01*
X12082667Y-12416260D02*
X12054096Y-12425784D01*
X12054096Y-12425784D02*
X12006477Y-12425784D01*
X12206477Y-12425784D02*
X12206477Y-12292450D01*
X12206477Y-12330546D02*
X12216001Y-12311498D01*
X12216001Y-12311498D02*
X12225524Y-12301974D01*
X12225524Y-12301974D02*
X12244572Y-12292450D01*
X12244572Y-12292450D02*
X12263620Y-12292450D01*
X12330286Y-12425784D02*
X12330286Y-12292450D01*
X12330286Y-12225784D02*
X12320762Y-12235308D01*
X12320762Y-12235308D02*
X12330286Y-12244831D01*
X12330286Y-12244831D02*
X12339810Y-12235308D01*
X12339810Y-12235308D02*
X12330286Y-12225784D01*
X12330286Y-12225784D02*
X12330286Y-12244831D01*
X12454096Y-12425784D02*
X12435048Y-12416260D01*
X12435048Y-12416260D02*
X12425524Y-12397212D01*
X12425524Y-12397212D02*
X12425524Y-12225784D01*
X12558858Y-12425784D02*
X12539810Y-12416260D01*
X12539810Y-12416260D02*
X12530286Y-12397212D01*
X12530286Y-12397212D02*
X12530286Y-12225784D01*
X12787429Y-12425784D02*
X12787429Y-12225784D01*
X12787429Y-12225784D02*
X12854096Y-12368641D01*
X12854096Y-12368641D02*
X12920762Y-12225784D01*
X12920762Y-12225784D02*
X12920762Y-12425784D01*
X13101715Y-12425784D02*
X13101715Y-12321022D01*
X13101715Y-12321022D02*
X13092191Y-12301974D01*
X13092191Y-12301974D02*
X13073143Y-12292450D01*
X13073143Y-12292450D02*
X13035048Y-12292450D01*
X13035048Y-12292450D02*
X13016001Y-12301974D01*
X13101715Y-12416260D02*
X13082667Y-12425784D01*
X13082667Y-12425784D02*
X13035048Y-12425784D01*
X13035048Y-12425784D02*
X13016001Y-12416260D01*
X13016001Y-12416260D02*
X13006477Y-12397212D01*
X13006477Y-12397212D02*
X13006477Y-12378165D01*
X13006477Y-12378165D02*
X13016001Y-12359117D01*
X13016001Y-12359117D02*
X13035048Y-12349593D01*
X13035048Y-12349593D02*
X13082667Y-12349593D01*
X13082667Y-12349593D02*
X13101715Y-12340069D01*
X13196953Y-12292450D02*
X13196953Y-12492450D01*
X13196953Y-12301974D02*
X13216001Y-12292450D01*
X13216001Y-12292450D02*
X13254096Y-12292450D01*
X13254096Y-12292450D02*
X13273143Y-12301974D01*
X13273143Y-12301974D02*
X13282667Y-12311498D01*
X13282667Y-12311498D02*
X13292191Y-12330546D01*
X13292191Y-12330546D02*
X13292191Y-12387688D01*
X13292191Y-12387688D02*
X13282667Y-12406736D01*
X13282667Y-12406736D02*
X13273143Y-12416260D01*
X13273143Y-12416260D02*
X13254096Y-12425784D01*
X13254096Y-12425784D02*
X13216001Y-12425784D01*
X13216001Y-12425784D02*
X13196953Y-12416260D01*
X13377905Y-12406736D02*
X13387429Y-12416260D01*
X13387429Y-12416260D02*
X13377905Y-12425784D01*
X13377905Y-12425784D02*
X13368382Y-12416260D01*
X13368382Y-12416260D02*
X13377905Y-12406736D01*
X13377905Y-12406736D02*
X13377905Y-12425784D01*
X13377905Y-12301974D02*
X13387429Y-12311498D01*
X13387429Y-12311498D02*
X13377905Y-12321022D01*
X13377905Y-12321022D02*
X13368382Y-12311498D01*
X13368382Y-12311498D02*
X13377905Y-12301974D01*
X13377905Y-12301974D02*
X13377905Y-12321022D01*
D12*
X11705700Y-12734300D02*
X11745700Y-12774300D01*
X11745700Y-12734300D02*
X11705700Y-12774300D01*
D11*
X12044572Y-12645784D02*
X12063620Y-12645784D01*
X12063620Y-12645784D02*
X12082667Y-12655308D01*
X12082667Y-12655308D02*
X12092191Y-12664831D01*
X12092191Y-12664831D02*
X12101715Y-12683879D01*
X12101715Y-12683879D02*
X12111239Y-12721974D01*
X12111239Y-12721974D02*
X12111239Y-12769593D01*
X12111239Y-12769593D02*
X12101715Y-12807688D01*
X12101715Y-12807688D02*
X12092191Y-12826736D01*
X12092191Y-12826736D02*
X12082667Y-12836260D01*
X12082667Y-12836260D02*
X12063620Y-12845784D01*
X12063620Y-12845784D02*
X12044572Y-12845784D01*
X12044572Y-12845784D02*
X12025524Y-12836260D01*
X12025524Y-12836260D02*
X12016001Y-12826736D01*
X12016001Y-12826736D02*
X12006477Y-12807688D01*
X12006477Y-12807688D02*
X11996953Y-12769593D01*
X11996953Y-12769593D02*
X11996953Y-12721974D01*
X11996953Y-12721974D02*
X12006477Y-12683879D01*
X12006477Y-12683879D02*
X12016001Y-12664831D01*
X12016001Y-12664831D02*
X12025524Y-12655308D01*
X12025524Y-12655308D02*
X12044572Y-12645784D01*
X12196953Y-12826736D02*
X12206477Y-12836260D01*
X12206477Y-12836260D02*
X12196953Y-12845784D01*
X12196953Y-12845784D02*
X12187429Y-12836260D01*
X12187429Y-12836260D02*
X12196953Y-12826736D01*
X12196953Y-12826736D02*
X12196953Y-12845784D01*
X12377905Y-12712450D02*
X12377905Y-12845784D01*
X12330286Y-12636260D02*
X12282667Y-12779117D01*
X12282667Y-12779117D02*
X12406477Y-12779117D01*
X12520762Y-12645784D02*
X12539810Y-12645784D01*
X12539810Y-12645784D02*
X12558858Y-12655308D01*
X12558858Y-12655308D02*
X12568382Y-12664831D01*
X12568382Y-12664831D02*
X12577905Y-12683879D01*
X12577905Y-12683879D02*
X12587429Y-12721974D01*
X12587429Y-12721974D02*
X12587429Y-12769593D01*
X12587429Y-12769593D02*
X12577905Y-12807688D01*
X12577905Y-12807688D02*
X12568382Y-12826736D01*
X12568382Y-12826736D02*
X12558858Y-12836260D01*
X12558858Y-12836260D02*
X12539810Y-12845784D01*
X12539810Y-12845784D02*
X12520762Y-12845784D01*
X12520762Y-12845784D02*
X12501715Y-12836260D01*
X12501715Y-12836260D02*
X12492191Y-12826736D01*
X12492191Y-12826736D02*
X12482667Y-12807688D01*
X12482667Y-12807688D02*
X12473143Y-12769593D01*
X12473143Y-12769593D02*
X12473143Y-12721974D01*
X12473143Y-12721974D02*
X12482667Y-12683879D01*
X12482667Y-12683879D02*
X12492191Y-12664831D01*
X12492191Y-12664831D02*
X12501715Y-12655308D01*
X12501715Y-12655308D02*
X12520762Y-12645784D01*
X12711239Y-12645784D02*
X12730286Y-12645784D01*
X12730286Y-12645784D02*
X12749334Y-12655308D01*
X12749334Y-12655308D02*
X12758858Y-12664831D01*
X12758858Y-12664831D02*
X12768382Y-12683879D01*
X12768382Y-12683879D02*
X12777905Y-12721974D01*
X12777905Y-12721974D02*
X12777905Y-12769593D01*
X12777905Y-12769593D02*
X12768382Y-12807688D01*
X12768382Y-12807688D02*
X12758858Y-12826736D01*
X12758858Y-12826736D02*
X12749334Y-12836260D01*
X12749334Y-12836260D02*
X12730286Y-12845784D01*
X12730286Y-12845784D02*
X12711239Y-12845784D01*
X12711239Y-12845784D02*
X12692191Y-12836260D01*
X12692191Y-12836260D02*
X12682667Y-12826736D01*
X12682667Y-12826736D02*
X12673143Y-12807688D01*
X12673143Y-12807688D02*
X12663620Y-12769593D01*
X12663620Y-12769593D02*
X12663620Y-12721974D01*
X12663620Y-12721974D02*
X12673143Y-12683879D01*
X12673143Y-12683879D02*
X12682667Y-12664831D01*
X12682667Y-12664831D02*
X12692191Y-12655308D01*
X12692191Y-12655308D02*
X12711239Y-12645784D01*
X12863620Y-12845784D02*
X12863620Y-12712450D01*
X12863620Y-12731498D02*
X12873143Y-12721974D01*
X12873143Y-12721974D02*
X12892191Y-12712450D01*
X12892191Y-12712450D02*
X12920763Y-12712450D01*
X12920763Y-12712450D02*
X12939810Y-12721974D01*
X12939810Y-12721974D02*
X12949334Y-12741022D01*
X12949334Y-12741022D02*
X12949334Y-12845784D01*
X12949334Y-12741022D02*
X12958858Y-12721974D01*
X12958858Y-12721974D02*
X12977905Y-12712450D01*
X12977905Y-12712450D02*
X13006477Y-12712450D01*
X13006477Y-12712450D02*
X13025524Y-12721974D01*
X13025524Y-12721974D02*
X13035048Y-12741022D01*
X13035048Y-12741022D02*
X13035048Y-12845784D01*
X13130286Y-12845784D02*
X13130286Y-12712450D01*
X13130286Y-12731498D02*
X13139810Y-12721974D01*
X13139810Y-12721974D02*
X13158858Y-12712450D01*
X13158858Y-12712450D02*
X13187429Y-12712450D01*
X13187429Y-12712450D02*
X13206477Y-12721974D01*
X13206477Y-12721974D02*
X13216001Y-12741022D01*
X13216001Y-12741022D02*
X13216001Y-12845784D01*
X13216001Y-12741022D02*
X13225524Y-12721974D01*
X13225524Y-12721974D02*
X13244572Y-12712450D01*
X13244572Y-12712450D02*
X13273143Y-12712450D01*
X13273143Y-12712450D02*
X13292191Y-12721974D01*
X13292191Y-12721974D02*
X13301715Y-12741022D01*
X13301715Y-12741022D02*
X13301715Y-12845784D01*
X13692191Y-12636260D02*
X13520763Y-12893403D01*
X13949334Y-12645784D02*
X13968382Y-12645784D01*
X13968382Y-12645784D02*
X13987429Y-12655308D01*
X13987429Y-12655308D02*
X13996953Y-12664831D01*
X13996953Y-12664831D02*
X14006477Y-12683879D01*
X14006477Y-12683879D02*
X14016001Y-12721974D01*
X14016001Y-12721974D02*
X14016001Y-12769593D01*
X14016001Y-12769593D02*
X14006477Y-12807688D01*
X14006477Y-12807688D02*
X13996953Y-12826736D01*
X13996953Y-12826736D02*
X13987429Y-12836260D01*
X13987429Y-12836260D02*
X13968382Y-12845784D01*
X13968382Y-12845784D02*
X13949334Y-12845784D01*
X13949334Y-12845784D02*
X13930286Y-12836260D01*
X13930286Y-12836260D02*
X13920763Y-12826736D01*
X13920763Y-12826736D02*
X13911239Y-12807688D01*
X13911239Y-12807688D02*
X13901715Y-12769593D01*
X13901715Y-12769593D02*
X13901715Y-12721974D01*
X13901715Y-12721974D02*
X13911239Y-12683879D01*
X13911239Y-12683879D02*
X13920763Y-12664831D01*
X13920763Y-12664831D02*
X13930286Y-12655308D01*
X13930286Y-12655308D02*
X13949334Y-12645784D01*
X14101715Y-12826736D02*
X14111239Y-12836260D01*
X14111239Y-12836260D02*
X14101715Y-12845784D01*
X14101715Y-12845784D02*
X14092191Y-12836260D01*
X14092191Y-12836260D02*
X14101715Y-12826736D01*
X14101715Y-12826736D02*
X14101715Y-12845784D01*
X14235048Y-12645784D02*
X14254096Y-12645784D01*
X14254096Y-12645784D02*
X14273144Y-12655308D01*
X14273144Y-12655308D02*
X14282667Y-12664831D01*
X14282667Y-12664831D02*
X14292191Y-12683879D01*
X14292191Y-12683879D02*
X14301715Y-12721974D01*
X14301715Y-12721974D02*
X14301715Y-12769593D01*
X14301715Y-12769593D02*
X14292191Y-12807688D01*
X14292191Y-12807688D02*
X14282667Y-12826736D01*
X14282667Y-12826736D02*
X14273144Y-12836260D01*
X14273144Y-12836260D02*
X14254096Y-12845784D01*
X14254096Y-12845784D02*
X14235048Y-12845784D01*
X14235048Y-12845784D02*
X14216001Y-12836260D01*
X14216001Y-12836260D02*
X14206477Y-12826736D01*
X14206477Y-12826736D02*
X14196953Y-12807688D01*
X14196953Y-12807688D02*
X14187429Y-12769593D01*
X14187429Y-12769593D02*
X14187429Y-12721974D01*
X14187429Y-12721974D02*
X14196953Y-12683879D01*
X14196953Y-12683879D02*
X14206477Y-12664831D01*
X14206477Y-12664831D02*
X14216001Y-12655308D01*
X14216001Y-12655308D02*
X14235048Y-12645784D01*
X14492191Y-12845784D02*
X14377906Y-12845784D01*
X14435048Y-12845784D02*
X14435048Y-12645784D01*
X14435048Y-12645784D02*
X14416001Y-12674355D01*
X14416001Y-12674355D02*
X14396953Y-12693403D01*
X14396953Y-12693403D02*
X14377906Y-12702927D01*
X14673144Y-12645784D02*
X14577906Y-12645784D01*
X14577906Y-12645784D02*
X14568382Y-12741022D01*
X14568382Y-12741022D02*
X14577906Y-12731498D01*
X14577906Y-12731498D02*
X14596953Y-12721974D01*
X14596953Y-12721974D02*
X14644572Y-12721974D01*
X14644572Y-12721974D02*
X14663620Y-12731498D01*
X14663620Y-12731498D02*
X14673144Y-12741022D01*
X14673144Y-12741022D02*
X14682667Y-12760069D01*
X14682667Y-12760069D02*
X14682667Y-12807688D01*
X14682667Y-12807688D02*
X14673144Y-12826736D01*
X14673144Y-12826736D02*
X14663620Y-12836260D01*
X14663620Y-12836260D02*
X14644572Y-12845784D01*
X14644572Y-12845784D02*
X14596953Y-12845784D01*
X14596953Y-12845784D02*
X14577906Y-12836260D01*
X14577906Y-12836260D02*
X14568382Y-12826736D01*
X14749334Y-12645784D02*
X14882667Y-12645784D01*
X14882667Y-12645784D02*
X14796953Y-12845784D01*
X14949334Y-12645784D02*
X14949334Y-12683879D01*
X15025525Y-12645784D02*
X15025525Y-12683879D01*
X15320763Y-12921974D02*
X15311239Y-12912450D01*
X15311239Y-12912450D02*
X15292191Y-12883879D01*
X15292191Y-12883879D02*
X15282668Y-12864831D01*
X15282668Y-12864831D02*
X15273144Y-12836260D01*
X15273144Y-12836260D02*
X15263620Y-12788641D01*
X15263620Y-12788641D02*
X15263620Y-12750546D01*
X15263620Y-12750546D02*
X15273144Y-12702927D01*
X15273144Y-12702927D02*
X15282668Y-12674355D01*
X15282668Y-12674355D02*
X15292191Y-12655308D01*
X15292191Y-12655308D02*
X15311239Y-12626736D01*
X15311239Y-12626736D02*
X15320763Y-12617212D01*
X15377906Y-12645784D02*
X15511239Y-12645784D01*
X15511239Y-12645784D02*
X15425525Y-12845784D01*
X15739810Y-12845784D02*
X15739810Y-12645784D01*
X15825525Y-12845784D02*
X15825525Y-12741022D01*
X15825525Y-12741022D02*
X15816001Y-12721974D01*
X15816001Y-12721974D02*
X15796953Y-12712450D01*
X15796953Y-12712450D02*
X15768382Y-12712450D01*
X15768382Y-12712450D02*
X15749334Y-12721974D01*
X15749334Y-12721974D02*
X15739810Y-12731498D01*
X15949334Y-12845784D02*
X15930287Y-12836260D01*
X15930287Y-12836260D02*
X15920763Y-12826736D01*
X15920763Y-12826736D02*
X15911239Y-12807688D01*
X15911239Y-12807688D02*
X15911239Y-12750546D01*
X15911239Y-12750546D02*
X15920763Y-12731498D01*
X15920763Y-12731498D02*
X15930287Y-12721974D01*
X15930287Y-12721974D02*
X15949334Y-12712450D01*
X15949334Y-12712450D02*
X15977906Y-12712450D01*
X15977906Y-12712450D02*
X15996953Y-12721974D01*
X15996953Y-12721974D02*
X16006477Y-12731498D01*
X16006477Y-12731498D02*
X16016001Y-12750546D01*
X16016001Y-12750546D02*
X16016001Y-12807688D01*
X16016001Y-12807688D02*
X16006477Y-12826736D01*
X16006477Y-12826736D02*
X15996953Y-12836260D01*
X15996953Y-12836260D02*
X15977906Y-12845784D01*
X15977906Y-12845784D02*
X15949334Y-12845784D01*
X16130287Y-12845784D02*
X16111239Y-12836260D01*
X16111239Y-12836260D02*
X16101715Y-12817212D01*
X16101715Y-12817212D02*
X16101715Y-12645784D01*
X16282668Y-12836260D02*
X16263620Y-12845784D01*
X16263620Y-12845784D02*
X16225525Y-12845784D01*
X16225525Y-12845784D02*
X16206477Y-12836260D01*
X16206477Y-12836260D02*
X16196953Y-12817212D01*
X16196953Y-12817212D02*
X16196953Y-12741022D01*
X16196953Y-12741022D02*
X16206477Y-12721974D01*
X16206477Y-12721974D02*
X16225525Y-12712450D01*
X16225525Y-12712450D02*
X16263620Y-12712450D01*
X16263620Y-12712450D02*
X16282668Y-12721974D01*
X16282668Y-12721974D02*
X16292191Y-12741022D01*
X16292191Y-12741022D02*
X16292191Y-12760069D01*
X16292191Y-12760069D02*
X16196953Y-12779117D01*
X16368382Y-12836260D02*
X16387430Y-12845784D01*
X16387430Y-12845784D02*
X16425525Y-12845784D01*
X16425525Y-12845784D02*
X16444572Y-12836260D01*
X16444572Y-12836260D02*
X16454096Y-12817212D01*
X16454096Y-12817212D02*
X16454096Y-12807688D01*
X16454096Y-12807688D02*
X16444572Y-12788641D01*
X16444572Y-12788641D02*
X16425525Y-12779117D01*
X16425525Y-12779117D02*
X16396953Y-12779117D01*
X16396953Y-12779117D02*
X16377906Y-12769593D01*
X16377906Y-12769593D02*
X16368382Y-12750546D01*
X16368382Y-12750546D02*
X16368382Y-12741022D01*
X16368382Y-12741022D02*
X16377906Y-12721974D01*
X16377906Y-12721974D02*
X16396953Y-12712450D01*
X16396953Y-12712450D02*
X16425525Y-12712450D01*
X16425525Y-12712450D02*
X16444572Y-12721974D01*
X16520763Y-12921974D02*
X16530287Y-12912450D01*
X16530287Y-12912450D02*
X16549334Y-12883879D01*
X16549334Y-12883879D02*
X16558858Y-12864831D01*
X16558858Y-12864831D02*
X16568382Y-12836260D01*
X16568382Y-12836260D02*
X16577906Y-12788641D01*
X16577906Y-12788641D02*
X16577906Y-12750546D01*
X16577906Y-12750546D02*
X16568382Y-12702927D01*
X16568382Y-12702927D02*
X16558858Y-12674355D01*
X16558858Y-12674355D02*
X16549334Y-12655308D01*
X16549334Y-12655308D02*
X16530287Y-12626736D01*
X16530287Y-12626736D02*
X16520763Y-12617212D01*
D12*
X11745700Y-13018300D02*
G75*
G02*
X11645700Y-13018300I-50000J0D01*
G01*
X11645700Y-13018300D02*
G75*
G02*
X11745700Y-13018300I50000J0D01*
G01*
D11*
X12111239Y-13109784D02*
X11996953Y-13109784D01*
X12054096Y-13109784D02*
X12054096Y-12909784D01*
X12054096Y-12909784D02*
X12035048Y-12938355D01*
X12035048Y-12938355D02*
X12016001Y-12957403D01*
X12016001Y-12957403D02*
X11996953Y-12966927D01*
X12196953Y-13090736D02*
X12206477Y-13100260D01*
X12206477Y-13100260D02*
X12196953Y-13109784D01*
X12196953Y-13109784D02*
X12187429Y-13100260D01*
X12187429Y-13100260D02*
X12196953Y-13090736D01*
X12196953Y-13090736D02*
X12196953Y-13109784D01*
X12330286Y-12909784D02*
X12349334Y-12909784D01*
X12349334Y-12909784D02*
X12368382Y-12919308D01*
X12368382Y-12919308D02*
X12377905Y-12928831D01*
X12377905Y-12928831D02*
X12387429Y-12947879D01*
X12387429Y-12947879D02*
X12396953Y-12985974D01*
X12396953Y-12985974D02*
X12396953Y-13033593D01*
X12396953Y-13033593D02*
X12387429Y-13071688D01*
X12387429Y-13071688D02*
X12377905Y-13090736D01*
X12377905Y-13090736D02*
X12368382Y-13100260D01*
X12368382Y-13100260D02*
X12349334Y-13109784D01*
X12349334Y-13109784D02*
X12330286Y-13109784D01*
X12330286Y-13109784D02*
X12311239Y-13100260D01*
X12311239Y-13100260D02*
X12301715Y-13090736D01*
X12301715Y-13090736D02*
X12292191Y-13071688D01*
X12292191Y-13071688D02*
X12282667Y-13033593D01*
X12282667Y-13033593D02*
X12282667Y-12985974D01*
X12282667Y-12985974D02*
X12292191Y-12947879D01*
X12292191Y-12947879D02*
X12301715Y-12928831D01*
X12301715Y-12928831D02*
X12311239Y-12919308D01*
X12311239Y-12919308D02*
X12330286Y-12909784D01*
X12520762Y-12909784D02*
X12539810Y-12909784D01*
X12539810Y-12909784D02*
X12558858Y-12919308D01*
X12558858Y-12919308D02*
X12568382Y-12928831D01*
X12568382Y-12928831D02*
X12577905Y-12947879D01*
X12577905Y-12947879D02*
X12587429Y-12985974D01*
X12587429Y-12985974D02*
X12587429Y-13033593D01*
X12587429Y-13033593D02*
X12577905Y-13071688D01*
X12577905Y-13071688D02*
X12568382Y-13090736D01*
X12568382Y-13090736D02*
X12558858Y-13100260D01*
X12558858Y-13100260D02*
X12539810Y-13109784D01*
X12539810Y-13109784D02*
X12520762Y-13109784D01*
X12520762Y-13109784D02*
X12501715Y-13100260D01*
X12501715Y-13100260D02*
X12492191Y-13090736D01*
X12492191Y-13090736D02*
X12482667Y-13071688D01*
X12482667Y-13071688D02*
X12473143Y-13033593D01*
X12473143Y-13033593D02*
X12473143Y-12985974D01*
X12473143Y-12985974D02*
X12482667Y-12947879D01*
X12482667Y-12947879D02*
X12492191Y-12928831D01*
X12492191Y-12928831D02*
X12501715Y-12919308D01*
X12501715Y-12919308D02*
X12520762Y-12909784D01*
X12711239Y-12909784D02*
X12730286Y-12909784D01*
X12730286Y-12909784D02*
X12749334Y-12919308D01*
X12749334Y-12919308D02*
X12758858Y-12928831D01*
X12758858Y-12928831D02*
X12768382Y-12947879D01*
X12768382Y-12947879D02*
X12777905Y-12985974D01*
X12777905Y-12985974D02*
X12777905Y-13033593D01*
X12777905Y-13033593D02*
X12768382Y-13071688D01*
X12768382Y-13071688D02*
X12758858Y-13090736D01*
X12758858Y-13090736D02*
X12749334Y-13100260D01*
X12749334Y-13100260D02*
X12730286Y-13109784D01*
X12730286Y-13109784D02*
X12711239Y-13109784D01*
X12711239Y-13109784D02*
X12692191Y-13100260D01*
X12692191Y-13100260D02*
X12682667Y-13090736D01*
X12682667Y-13090736D02*
X12673143Y-13071688D01*
X12673143Y-13071688D02*
X12663620Y-13033593D01*
X12663620Y-13033593D02*
X12663620Y-12985974D01*
X12663620Y-12985974D02*
X12673143Y-12947879D01*
X12673143Y-12947879D02*
X12682667Y-12928831D01*
X12682667Y-12928831D02*
X12692191Y-12919308D01*
X12692191Y-12919308D02*
X12711239Y-12909784D01*
X12863620Y-13109784D02*
X12863620Y-12976450D01*
X12863620Y-12995498D02*
X12873143Y-12985974D01*
X12873143Y-12985974D02*
X12892191Y-12976450D01*
X12892191Y-12976450D02*
X12920763Y-12976450D01*
X12920763Y-12976450D02*
X12939810Y-12985974D01*
X12939810Y-12985974D02*
X12949334Y-13005022D01*
X12949334Y-13005022D02*
X12949334Y-13109784D01*
X12949334Y-13005022D02*
X12958858Y-12985974D01*
X12958858Y-12985974D02*
X12977905Y-12976450D01*
X12977905Y-12976450D02*
X13006477Y-12976450D01*
X13006477Y-12976450D02*
X13025524Y-12985974D01*
X13025524Y-12985974D02*
X13035048Y-13005022D01*
X13035048Y-13005022D02*
X13035048Y-13109784D01*
X13130286Y-13109784D02*
X13130286Y-12976450D01*
X13130286Y-12995498D02*
X13139810Y-12985974D01*
X13139810Y-12985974D02*
X13158858Y-12976450D01*
X13158858Y-12976450D02*
X13187429Y-12976450D01*
X13187429Y-12976450D02*
X13206477Y-12985974D01*
X13206477Y-12985974D02*
X13216001Y-13005022D01*
X13216001Y-13005022D02*
X13216001Y-13109784D01*
X13216001Y-13005022D02*
X13225524Y-12985974D01*
X13225524Y-12985974D02*
X13244572Y-12976450D01*
X13244572Y-12976450D02*
X13273143Y-12976450D01*
X13273143Y-12976450D02*
X13292191Y-12985974D01*
X13292191Y-12985974D02*
X13301715Y-13005022D01*
X13301715Y-13005022D02*
X13301715Y-13109784D01*
X13692191Y-12900260D02*
X13520763Y-13157403D01*
X13949334Y-12909784D02*
X13968382Y-12909784D01*
X13968382Y-12909784D02*
X13987429Y-12919308D01*
X13987429Y-12919308D02*
X13996953Y-12928831D01*
X13996953Y-12928831D02*
X14006477Y-12947879D01*
X14006477Y-12947879D02*
X14016001Y-12985974D01*
X14016001Y-12985974D02*
X14016001Y-13033593D01*
X14016001Y-13033593D02*
X14006477Y-13071688D01*
X14006477Y-13071688D02*
X13996953Y-13090736D01*
X13996953Y-13090736D02*
X13987429Y-13100260D01*
X13987429Y-13100260D02*
X13968382Y-13109784D01*
X13968382Y-13109784D02*
X13949334Y-13109784D01*
X13949334Y-13109784D02*
X13930286Y-13100260D01*
X13930286Y-13100260D02*
X13920763Y-13090736D01*
X13920763Y-13090736D02*
X13911239Y-13071688D01*
X13911239Y-13071688D02*
X13901715Y-13033593D01*
X13901715Y-13033593D02*
X13901715Y-12985974D01*
X13901715Y-12985974D02*
X13911239Y-12947879D01*
X13911239Y-12947879D02*
X13920763Y-12928831D01*
X13920763Y-12928831D02*
X13930286Y-12919308D01*
X13930286Y-12919308D02*
X13949334Y-12909784D01*
X14101715Y-13090736D02*
X14111239Y-13100260D01*
X14111239Y-13100260D02*
X14101715Y-13109784D01*
X14101715Y-13109784D02*
X14092191Y-13100260D01*
X14092191Y-13100260D02*
X14101715Y-13090736D01*
X14101715Y-13090736D02*
X14101715Y-13109784D01*
X14235048Y-12909784D02*
X14254096Y-12909784D01*
X14254096Y-12909784D02*
X14273144Y-12919308D01*
X14273144Y-12919308D02*
X14282667Y-12928831D01*
X14282667Y-12928831D02*
X14292191Y-12947879D01*
X14292191Y-12947879D02*
X14301715Y-12985974D01*
X14301715Y-12985974D02*
X14301715Y-13033593D01*
X14301715Y-13033593D02*
X14292191Y-13071688D01*
X14292191Y-13071688D02*
X14282667Y-13090736D01*
X14282667Y-13090736D02*
X14273144Y-13100260D01*
X14273144Y-13100260D02*
X14254096Y-13109784D01*
X14254096Y-13109784D02*
X14235048Y-13109784D01*
X14235048Y-13109784D02*
X14216001Y-13100260D01*
X14216001Y-13100260D02*
X14206477Y-13090736D01*
X14206477Y-13090736D02*
X14196953Y-13071688D01*
X14196953Y-13071688D02*
X14187429Y-13033593D01*
X14187429Y-13033593D02*
X14187429Y-12985974D01*
X14187429Y-12985974D02*
X14196953Y-12947879D01*
X14196953Y-12947879D02*
X14206477Y-12928831D01*
X14206477Y-12928831D02*
X14216001Y-12919308D01*
X14216001Y-12919308D02*
X14235048Y-12909784D01*
X14368382Y-12909784D02*
X14492191Y-12909784D01*
X14492191Y-12909784D02*
X14425525Y-12985974D01*
X14425525Y-12985974D02*
X14454096Y-12985974D01*
X14454096Y-12985974D02*
X14473144Y-12995498D01*
X14473144Y-12995498D02*
X14482667Y-13005022D01*
X14482667Y-13005022D02*
X14492191Y-13024069D01*
X14492191Y-13024069D02*
X14492191Y-13071688D01*
X14492191Y-13071688D02*
X14482667Y-13090736D01*
X14482667Y-13090736D02*
X14473144Y-13100260D01*
X14473144Y-13100260D02*
X14454096Y-13109784D01*
X14454096Y-13109784D02*
X14396953Y-13109784D01*
X14396953Y-13109784D02*
X14377906Y-13100260D01*
X14377906Y-13100260D02*
X14368382Y-13090736D01*
X14587429Y-13109784D02*
X14625525Y-13109784D01*
X14625525Y-13109784D02*
X14644572Y-13100260D01*
X14644572Y-13100260D02*
X14654096Y-13090736D01*
X14654096Y-13090736D02*
X14673144Y-13062165D01*
X14673144Y-13062165D02*
X14682667Y-13024069D01*
X14682667Y-13024069D02*
X14682667Y-12947879D01*
X14682667Y-12947879D02*
X14673144Y-12928831D01*
X14673144Y-12928831D02*
X14663620Y-12919308D01*
X14663620Y-12919308D02*
X14644572Y-12909784D01*
X14644572Y-12909784D02*
X14606477Y-12909784D01*
X14606477Y-12909784D02*
X14587429Y-12919308D01*
X14587429Y-12919308D02*
X14577906Y-12928831D01*
X14577906Y-12928831D02*
X14568382Y-12947879D01*
X14568382Y-12947879D02*
X14568382Y-12995498D01*
X14568382Y-12995498D02*
X14577906Y-13014546D01*
X14577906Y-13014546D02*
X14587429Y-13024069D01*
X14587429Y-13024069D02*
X14606477Y-13033593D01*
X14606477Y-13033593D02*
X14644572Y-13033593D01*
X14644572Y-13033593D02*
X14663620Y-13024069D01*
X14663620Y-13024069D02*
X14673144Y-13014546D01*
X14673144Y-13014546D02*
X14682667Y-12995498D01*
X14854096Y-12976450D02*
X14854096Y-13109784D01*
X14806477Y-12900260D02*
X14758858Y-13043117D01*
X14758858Y-13043117D02*
X14882667Y-13043117D01*
X14949334Y-12909784D02*
X14949334Y-12947879D01*
X15025525Y-12909784D02*
X15025525Y-12947879D01*
X15320763Y-13185974D02*
X15311239Y-13176450D01*
X15311239Y-13176450D02*
X15292191Y-13147879D01*
X15292191Y-13147879D02*
X15282668Y-13128831D01*
X15282668Y-13128831D02*
X15273144Y-13100260D01*
X15273144Y-13100260D02*
X15263620Y-13052641D01*
X15263620Y-13052641D02*
X15263620Y-13014546D01*
X15263620Y-13014546D02*
X15273144Y-12966927D01*
X15273144Y-12966927D02*
X15282668Y-12938355D01*
X15282668Y-12938355D02*
X15292191Y-12919308D01*
X15292191Y-12919308D02*
X15311239Y-12890736D01*
X15311239Y-12890736D02*
X15320763Y-12881212D01*
X15482668Y-12976450D02*
X15482668Y-13109784D01*
X15435048Y-12900260D02*
X15387429Y-13043117D01*
X15387429Y-13043117D02*
X15511239Y-13043117D01*
X15673144Y-12909784D02*
X15635048Y-12909784D01*
X15635048Y-12909784D02*
X15616001Y-12919308D01*
X15616001Y-12919308D02*
X15606477Y-12928831D01*
X15606477Y-12928831D02*
X15587429Y-12957403D01*
X15587429Y-12957403D02*
X15577906Y-12995498D01*
X15577906Y-12995498D02*
X15577906Y-13071688D01*
X15577906Y-13071688D02*
X15587429Y-13090736D01*
X15587429Y-13090736D02*
X15596953Y-13100260D01*
X15596953Y-13100260D02*
X15616001Y-13109784D01*
X15616001Y-13109784D02*
X15654096Y-13109784D01*
X15654096Y-13109784D02*
X15673144Y-13100260D01*
X15673144Y-13100260D02*
X15682668Y-13090736D01*
X15682668Y-13090736D02*
X15692191Y-13071688D01*
X15692191Y-13071688D02*
X15692191Y-13024069D01*
X15692191Y-13024069D02*
X15682668Y-13005022D01*
X15682668Y-13005022D02*
X15673144Y-12995498D01*
X15673144Y-12995498D02*
X15654096Y-12985974D01*
X15654096Y-12985974D02*
X15616001Y-12985974D01*
X15616001Y-12985974D02*
X15596953Y-12995498D01*
X15596953Y-12995498D02*
X15587429Y-13005022D01*
X15587429Y-13005022D02*
X15577906Y-13024069D01*
X15930287Y-13109784D02*
X15930287Y-12909784D01*
X16016001Y-13109784D02*
X16016001Y-13005022D01*
X16016001Y-13005022D02*
X16006477Y-12985974D01*
X16006477Y-12985974D02*
X15987430Y-12976450D01*
X15987430Y-12976450D02*
X15958858Y-12976450D01*
X15958858Y-12976450D02*
X15939810Y-12985974D01*
X15939810Y-12985974D02*
X15930287Y-12995498D01*
X16139810Y-13109784D02*
X16120763Y-13100260D01*
X16120763Y-13100260D02*
X16111239Y-13090736D01*
X16111239Y-13090736D02*
X16101715Y-13071688D01*
X16101715Y-13071688D02*
X16101715Y-13014546D01*
X16101715Y-13014546D02*
X16111239Y-12995498D01*
X16111239Y-12995498D02*
X16120763Y-12985974D01*
X16120763Y-12985974D02*
X16139810Y-12976450D01*
X16139810Y-12976450D02*
X16168382Y-12976450D01*
X16168382Y-12976450D02*
X16187430Y-12985974D01*
X16187430Y-12985974D02*
X16196953Y-12995498D01*
X16196953Y-12995498D02*
X16206477Y-13014546D01*
X16206477Y-13014546D02*
X16206477Y-13071688D01*
X16206477Y-13071688D02*
X16196953Y-13090736D01*
X16196953Y-13090736D02*
X16187430Y-13100260D01*
X16187430Y-13100260D02*
X16168382Y-13109784D01*
X16168382Y-13109784D02*
X16139810Y-13109784D01*
X16320763Y-13109784D02*
X16301715Y-13100260D01*
X16301715Y-13100260D02*
X16292191Y-13081212D01*
X16292191Y-13081212D02*
X16292191Y-12909784D01*
X16473144Y-13100260D02*
X16454096Y-13109784D01*
X16454096Y-13109784D02*
X16416001Y-13109784D01*
X16416001Y-13109784D02*
X16396953Y-13100260D01*
X16396953Y-13100260D02*
X16387430Y-13081212D01*
X16387430Y-13081212D02*
X16387430Y-13005022D01*
X16387430Y-13005022D02*
X16396953Y-12985974D01*
X16396953Y-12985974D02*
X16416001Y-12976450D01*
X16416001Y-12976450D02*
X16454096Y-12976450D01*
X16454096Y-12976450D02*
X16473144Y-12985974D01*
X16473144Y-12985974D02*
X16482668Y-13005022D01*
X16482668Y-13005022D02*
X16482668Y-13024069D01*
X16482668Y-13024069D02*
X16387430Y-13043117D01*
X16558858Y-13100260D02*
X16577906Y-13109784D01*
X16577906Y-13109784D02*
X16616001Y-13109784D01*
X16616001Y-13109784D02*
X16635049Y-13100260D01*
X16635049Y-13100260D02*
X16644572Y-13081212D01*
X16644572Y-13081212D02*
X16644572Y-13071688D01*
X16644572Y-13071688D02*
X16635049Y-13052641D01*
X16635049Y-13052641D02*
X16616001Y-13043117D01*
X16616001Y-13043117D02*
X16587430Y-13043117D01*
X16587430Y-13043117D02*
X16568382Y-13033593D01*
X16568382Y-13033593D02*
X16558858Y-13014546D01*
X16558858Y-13014546D02*
X16558858Y-13005022D01*
X16558858Y-13005022D02*
X16568382Y-12985974D01*
X16568382Y-12985974D02*
X16587430Y-12976450D01*
X16587430Y-12976450D02*
X16616001Y-12976450D01*
X16616001Y-12976450D02*
X16635049Y-12985974D01*
X16711239Y-13185974D02*
X16720763Y-13176450D01*
X16720763Y-13176450D02*
X16739811Y-13147879D01*
X16739811Y-13147879D02*
X16749334Y-13128831D01*
X16749334Y-13128831D02*
X16758858Y-13100260D01*
X16758858Y-13100260D02*
X16768382Y-13052641D01*
X16768382Y-13052641D02*
X16768382Y-13014546D01*
X16768382Y-13014546D02*
X16758858Y-12966927D01*
X16758858Y-12966927D02*
X16749334Y-12938355D01*
X16749334Y-12938355D02*
X16739811Y-12919308D01*
X16739811Y-12919308D02*
X16720763Y-12890736D01*
X16720763Y-12890736D02*
X16711239Y-12881212D01*
M02*
