G04 #@! TF.GenerationSoftware,KiCad,Pcbnew,8.0.6*
G04 #@! TF.CreationDate,2024-11-11T12:49:33-08:00*
G04 #@! TF.ProjectId,pi-zero-serial-hat,70692d7a-6572-46f2-9d73-657269616c2d,1.0*
G04 #@! TF.SameCoordinates,Original*
G04 #@! TF.FileFunction,Soldermask,Top*
G04 #@! TF.FilePolarity,Negative*
%FSLAX46Y46*%
G04 Gerber Fmt 4.6, Leading zero omitted, Abs format (unit mm)*
G04 Created by KiCad (PCBNEW 8.0.6) date 2024-11-11 12:49:33*
%MOMM*%
%LPD*%
G01*
G04 APERTURE LIST*
G04 Aperture macros list*
%AMRoundRect*
0 Rectangle with rounded corners*
0 $1 Rounding radius*
0 $2 $3 $4 $5 $6 $7 $8 $9 X,Y pos of 4 corners*
0 Add a 4 corners polygon primitive as box body*
4,1,4,$2,$3,$4,$5,$6,$7,$8,$9,$2,$3,0*
0 Add four circle primitives for the rounded corners*
1,1,$1+$1,$2,$3*
1,1,$1+$1,$4,$5*
1,1,$1+$1,$6,$7*
1,1,$1+$1,$8,$9*
0 Add four rect primitives between the rounded corners*
20,1,$1+$1,$2,$3,$4,$5,0*
20,1,$1+$1,$4,$5,$6,$7,0*
20,1,$1+$1,$6,$7,$8,$9,0*
20,1,$1+$1,$8,$9,$2,$3,0*%
%AMFreePoly0*
4,1,6,1.000000,0.000000,0.500000,-0.750000,-0.500000,-0.750000,-0.500000,0.750000,0.500000,0.750000,1.000000,0.000000,1.000000,0.000000,$1*%
%AMFreePoly1*
4,1,6,0.500000,-0.750000,-0.650000,-0.750000,-0.150000,0.000000,-0.650000,0.750000,0.500000,0.750000,0.500000,-0.750000,0.500000,-0.750000,$1*%
G04 Aperture macros list end*
%ADD10R,1.700000X1.700000*%
%ADD11O,1.700000X1.700000*%
%ADD12C,2.700000*%
%ADD13RoundRect,0.200000X-0.200000X-0.275000X0.200000X-0.275000X0.200000X0.275000X-0.200000X0.275000X0*%
%ADD14FreePoly0,270.000000*%
%ADD15FreePoly1,270.000000*%
%ADD16RoundRect,0.250000X0.450000X0.425000X-0.450000X0.425000X-0.450000X-0.425000X0.450000X-0.425000X0*%
%ADD17RoundRect,0.250000X0.900000X-1.000000X0.900000X1.000000X-0.900000X1.000000X-0.900000X-1.000000X0*%
%ADD18RoundRect,0.218750X-0.218750X-0.256250X0.218750X-0.256250X0.218750X0.256250X-0.218750X0.256250X0*%
%ADD19RoundRect,0.250000X-1.425000X0.362500X-1.425000X-0.362500X1.425000X-0.362500X1.425000X0.362500X0*%
%ADD20RoundRect,0.250000X1.425000X-0.362500X1.425000X0.362500X-1.425000X0.362500X-1.425000X-0.362500X0*%
%ADD21RoundRect,0.200000X0.275000X-0.200000X0.275000X0.200000X-0.275000X0.200000X-0.275000X-0.200000X0*%
%ADD22RoundRect,0.250000X-0.900000X1.000000X-0.900000X-1.000000X0.900000X-1.000000X0.900000X1.000000X0*%
%ADD23RoundRect,0.218750X0.218750X0.256250X-0.218750X0.256250X-0.218750X-0.256250X0.218750X-0.256250X0*%
%ADD24RoundRect,0.099250X-0.987750X-0.297750X0.987750X-0.297750X0.987750X0.297750X-0.987750X0.297750X0*%
%ADD25C,1.700000*%
%ADD26RoundRect,0.225000X0.225000X0.250000X-0.225000X0.250000X-0.225000X-0.250000X0.225000X-0.250000X0*%
G04 APERTURE END LIST*
D10*
X121732000Y-100828000D03*
D11*
X121732000Y-103368000D03*
D12*
X121032000Y-94568000D03*
X179032000Y-94568000D03*
X179032000Y-117568000D03*
X121032000Y-117568000D03*
D13*
X158612000Y-109268000D03*
X160262000Y-109268000D03*
X153982000Y-103068000D03*
X155632000Y-103068000D03*
D14*
X143632000Y-98868000D03*
D15*
X143632000Y-100318000D03*
D16*
X151902000Y-100818000D03*
X149202000Y-100818000D03*
D14*
X146132000Y-98868000D03*
D15*
X146132000Y-100318000D03*
D17*
X163782000Y-113718000D03*
X163782000Y-109418000D03*
D18*
X147994500Y-116068000D03*
X149569500Y-116068000D03*
D10*
X143607000Y-103068000D03*
D11*
X146147000Y-103068000D03*
D18*
X148032000Y-113818000D03*
X149607000Y-113818000D03*
D13*
X158612000Y-112318000D03*
X160262000Y-112318000D03*
X155132000Y-116068000D03*
X156782000Y-116068000D03*
X151457000Y-116068000D03*
X153107000Y-116068000D03*
D19*
X168782000Y-100068000D03*
X168782000Y-105993000D03*
D20*
X168782000Y-114493000D03*
X168782000Y-108568000D03*
D13*
X158612000Y-106568000D03*
X160262000Y-106568000D03*
D21*
X147032000Y-107548000D03*
X147032000Y-105898000D03*
D22*
X163782000Y-100768000D03*
X163782000Y-105068000D03*
D23*
X157282000Y-101068000D03*
X155707000Y-101068000D03*
D13*
X155032000Y-113818000D03*
X156682000Y-113818000D03*
D24*
X150307000Y-106663000D03*
X150307000Y-107933000D03*
X150307000Y-109203000D03*
X150307000Y-110473000D03*
X155257000Y-110473000D03*
X155257000Y-109203000D03*
X155257000Y-107933000D03*
X155257000Y-106663000D03*
D25*
X177532000Y-103818000D03*
X177532000Y-100317998D03*
D13*
X158612000Y-103568000D03*
X160262000Y-103568000D03*
D21*
X147032000Y-111298000D03*
X147032000Y-109648000D03*
D13*
X151457000Y-113818000D03*
X153107000Y-113818000D03*
D26*
X151272000Y-103068000D03*
X149722000Y-103068000D03*
D10*
X125932000Y-95858000D03*
D11*
X125932000Y-93318000D03*
X128472000Y-95858000D03*
X128472000Y-93318000D03*
X131012000Y-95858000D03*
X131012000Y-93318000D03*
X133552000Y-95858000D03*
X133552000Y-93318000D03*
X136092000Y-95858000D03*
X136092000Y-93318000D03*
X138632000Y-95858000D03*
X138632000Y-93318000D03*
X141172000Y-95858000D03*
X141172000Y-93318000D03*
X143712000Y-95858000D03*
X143712000Y-93318000D03*
X146252000Y-95858000D03*
X146252000Y-93318000D03*
X148792000Y-95858000D03*
X148792000Y-93318000D03*
X151332000Y-95858000D03*
X151332000Y-93318000D03*
X153872000Y-95858000D03*
X153872000Y-93318000D03*
X156412000Y-95858000D03*
X156412000Y-93318000D03*
X158952000Y-95858000D03*
X158952000Y-93318000D03*
X161492000Y-95858000D03*
X161492000Y-93318000D03*
X164032000Y-95858000D03*
X164032000Y-93318000D03*
X166572000Y-95858000D03*
X166572000Y-93318000D03*
X169112000Y-95858000D03*
X169112000Y-93318000D03*
X171652000Y-95858000D03*
X171652000Y-93318000D03*
X174192000Y-95858000D03*
X174192000Y-93318000D03*
M02*
