G04 #@! TF.GenerationSoftware,KiCad,Pcbnew,8.0.6*
G04 #@! TF.CreationDate,2024-11-30T08:29:55-08:00*
G04 #@! TF.ProjectId,pi-zero-serial-hat,70692d7a-6572-46f2-9d73-657269616c2d,1.0*
G04 #@! TF.SameCoordinates,Original*
G04 #@! TF.FileFunction,Soldermask,Bot*
G04 #@! TF.FilePolarity,Negative*
%FSLAX46Y46*%
G04 Gerber Fmt 4.6, Leading zero omitted, Abs format (unit mm)*
G04 Created by KiCad (PCBNEW 8.0.6) date 2024-11-30 08:29:55*
%MOMM*%
%LPD*%
G01*
G04 APERTURE LIST*
%ADD10O,1.700000X1.700000*%
%ADD11R,1.700000X1.700000*%
%ADD12C,6.000000*%
%ADD13R,2.500000X2.500000*%
%ADD14C,2.500000*%
%ADD15C,1.700000*%
G04 APERTURE END LIST*
D10*
X120092000Y-110768000D03*
D11*
X122632000Y-110768000D03*
D12*
X121032000Y-94568000D03*
X179032000Y-94568000D03*
X179032000Y-117568000D03*
X121032000Y-117568000D03*
D13*
X176382000Y-129318000D03*
D14*
X176382000Y-124318000D03*
D11*
X138632000Y-104318000D03*
D10*
X141172000Y-104318000D03*
D11*
X151062000Y-100758000D03*
D10*
X153602000Y-100758000D03*
X156142000Y-100758000D03*
D13*
X176382000Y-108668000D03*
D14*
X176382000Y-103668000D03*
D15*
X125932000Y-95858000D03*
D11*
X125932000Y-93318000D03*
D10*
X128472000Y-95858000D03*
D11*
X128472000Y-93318000D03*
D10*
X131012000Y-95858000D03*
X131012000Y-93318000D03*
X133552000Y-95858000D03*
X133552000Y-93318000D03*
X136092000Y-95858000D03*
X136092000Y-93318000D03*
X138632000Y-95858000D03*
X138632000Y-93318000D03*
X141172000Y-95858000D03*
X141172000Y-93318000D03*
X143712000Y-95858000D03*
X143712000Y-93318000D03*
D11*
X146252000Y-95858000D03*
D10*
X146252000Y-93318000D03*
X148792000Y-95858000D03*
X148792000Y-93318000D03*
X151332000Y-95858000D03*
X151332000Y-93318000D03*
X153872000Y-95858000D03*
X153872000Y-93318000D03*
X156412000Y-95858000D03*
X156412000Y-93318000D03*
X158952000Y-95858000D03*
X158952000Y-93318000D03*
X161492000Y-95858000D03*
X161492000Y-93318000D03*
X164032000Y-95858000D03*
X164032000Y-93318000D03*
X166572000Y-95858000D03*
X166572000Y-93318000D03*
X169112000Y-95858000D03*
X169112000Y-93318000D03*
X171652000Y-95858000D03*
X171652000Y-93318000D03*
X174192000Y-95858000D03*
X174192000Y-93318000D03*
M02*
