G04 #@! TF.GenerationSoftware,KiCad,Pcbnew,8.0.7*
G04 #@! TF.CreationDate,2024-12-23T21:13:05-08:00*
G04 #@! TF.ProjectId,pi-zero-serial-hat,70692d7a-6572-46f2-9d73-657269616c2d,1.0*
G04 #@! TF.SameCoordinates,Original*
G04 #@! TF.FileFunction,Copper,L2,Bot*
G04 #@! TF.FilePolarity,Positive*
%FSLAX46Y46*%
G04 Gerber Fmt 4.6, Leading zero omitted, Abs format (unit mm)*
G04 Created by KiCad (PCBNEW 8.0.7) date 2024-12-23 21:13:05*
%MOMM*%
%LPD*%
G01*
G04 APERTURE LIST*
G04 Aperture macros list*
%AMFreePoly0*
4,1,6,1.000000,0.000000,0.500000,-0.750000,-0.500000,-0.750000,-0.500000,0.750000,0.500000,0.750000,1.000000,0.000000,1.000000,0.000000,$1*%
%AMFreePoly1*
4,1,6,0.500000,-0.750000,-0.650000,-0.750000,-0.150000,0.000000,-0.650000,0.750000,0.500000,0.750000,0.500000,-0.750000,0.500000,-0.750000,$1*%
G04 Aperture macros list end*
G04 #@! TA.AperFunction,ComponentPad*
%ADD10C,6.000000*%
G04 #@! TD*
G04 #@! TA.AperFunction,ComponentPad*
%ADD11R,2.500000X2.500000*%
G04 #@! TD*
G04 #@! TA.AperFunction,ComponentPad*
%ADD12C,2.500000*%
G04 #@! TD*
G04 #@! TA.AperFunction,ComponentPad*
%ADD13C,0.600000*%
G04 #@! TD*
G04 #@! TA.AperFunction,SMDPad,CuDef*
%ADD14R,2.950000X4.500000*%
G04 #@! TD*
G04 #@! TA.AperFunction,ComponentPad*
%ADD15R,1.700000X1.700000*%
G04 #@! TD*
G04 #@! TA.AperFunction,ComponentPad*
%ADD16O,1.700000X1.700000*%
G04 #@! TD*
G04 #@! TA.AperFunction,ComponentPad*
%ADD17C,1.700000*%
G04 #@! TD*
G04 #@! TA.AperFunction,SMDPad,CuDef*
%ADD18FreePoly0,270.000000*%
G04 #@! TD*
G04 #@! TA.AperFunction,SMDPad,CuDef*
%ADD19FreePoly1,270.000000*%
G04 #@! TD*
G04 #@! TA.AperFunction,SMDPad,CuDef*
%ADD20FreePoly0,180.000000*%
G04 #@! TD*
G04 #@! TA.AperFunction,SMDPad,CuDef*
%ADD21FreePoly1,180.000000*%
G04 #@! TD*
G04 #@! TA.AperFunction,ViaPad*
%ADD22C,0.800000*%
G04 #@! TD*
G04 #@! TA.AperFunction,Conductor*
%ADD23C,0.250000*%
G04 #@! TD*
G04 APERTURE END LIST*
D10*
X121032000Y-94568000D03*
X179032000Y-94568000D03*
X179032000Y-117568000D03*
X121032000Y-117568000D03*
D11*
X176282000Y-108643000D03*
D12*
X176282000Y-103643000D03*
D11*
X176282000Y-129418000D03*
D12*
X176282000Y-124418000D03*
D10*
X179032000Y-143568000D03*
D13*
X152132000Y-127393000D03*
X152132000Y-128593000D03*
X152132000Y-129893000D03*
X152132000Y-130993000D03*
D14*
X152732000Y-129193000D03*
D13*
X153332000Y-127393000D03*
X153332000Y-128593000D03*
X153332000Y-129893000D03*
X153332000Y-130993000D03*
D10*
X121032000Y-143568000D03*
D15*
X141232000Y-105018000D03*
D16*
X141232000Y-107558000D03*
D17*
X125932000Y-95858000D03*
D15*
X125932000Y-93318000D03*
D16*
X128472000Y-95858000D03*
D15*
X128472000Y-93318000D03*
D16*
X131012000Y-95858000D03*
X131012000Y-93318000D03*
X133552000Y-95858000D03*
X133552000Y-93318000D03*
X136092000Y-95858000D03*
X136092000Y-93318000D03*
X138632000Y-95858000D03*
X138632000Y-93318000D03*
X141172000Y-95858000D03*
X141172000Y-93318000D03*
X143712000Y-95858000D03*
X143712000Y-93318000D03*
D17*
X146252000Y-95858000D03*
D16*
X146252000Y-93318000D03*
X148792000Y-95858000D03*
X148792000Y-93318000D03*
X151332000Y-95858000D03*
X151332000Y-93318000D03*
X153872000Y-95858000D03*
X153872000Y-93318000D03*
X156412000Y-95858000D03*
X156412000Y-93318000D03*
X158952000Y-95858000D03*
X158952000Y-93318000D03*
X161492000Y-95858000D03*
X161492000Y-93318000D03*
X164032000Y-95858000D03*
X164032000Y-93318000D03*
X166572000Y-95858000D03*
X166572000Y-93318000D03*
X169112000Y-95858000D03*
X169112000Y-93318000D03*
X171652000Y-95858000D03*
X171652000Y-93318000D03*
X174192000Y-95858000D03*
X174192000Y-93318000D03*
D18*
X140532000Y-99268000D03*
D19*
X140532000Y-100718000D03*
D20*
X161457000Y-102218000D03*
D21*
X160007000Y-102218000D03*
D18*
X131182000Y-99268000D03*
D19*
X131182000Y-100718000D03*
D18*
X143032000Y-99268000D03*
D19*
X143032000Y-100718000D03*
D18*
X133682000Y-99268000D03*
D19*
X133682000Y-100718000D03*
D22*
X124832000Y-126968000D03*
X144407000Y-102443000D03*
X147332000Y-105568000D03*
X124832000Y-131268000D03*
X131882000Y-106743000D03*
X149532000Y-109568000D03*
X124832000Y-132268000D03*
X142007000Y-102018000D03*
X158582000Y-106318000D03*
X152782000Y-133418000D03*
X131832000Y-107918000D03*
X144257000Y-109693000D03*
X165332000Y-134368000D03*
X124832000Y-127968000D03*
X155932000Y-108218000D03*
X137932000Y-106243000D03*
X161132000Y-105218000D03*
X147332000Y-106918000D03*
X166232000Y-134368000D03*
X124932000Y-123768000D03*
X123107000Y-103393000D03*
X157832000Y-131268000D03*
X143832000Y-103793000D03*
X140532000Y-102193000D03*
X161282000Y-104168000D03*
X160032000Y-105018000D03*
D23*
X143832000Y-106118000D02*
X143832000Y-103793000D01*
X140532000Y-100718000D02*
X140532000Y-102193000D01*
X141232000Y-107558000D02*
X142392000Y-107558000D01*
X131182000Y-102043000D02*
X136697000Y-107558000D01*
X142392000Y-107558000D02*
X143832000Y-106118000D01*
X131182000Y-100718000D02*
X131182000Y-102043000D01*
X136697000Y-107558000D02*
X141232000Y-107558000D01*
X136557000Y-105018000D02*
X141232000Y-105018000D01*
X133682000Y-102143000D02*
X136557000Y-105018000D01*
X141232000Y-103893000D02*
X141232000Y-105018000D01*
X143032000Y-100718000D02*
X143032000Y-102093000D01*
X143032000Y-102093000D02*
X141232000Y-103893000D01*
X133682000Y-100718000D02*
X133682000Y-102143000D01*
X161282000Y-103568000D02*
X161282000Y-104168000D01*
X161482000Y-102218000D02*
X161482000Y-103368000D01*
X161482000Y-103368000D02*
X161282000Y-103568000D01*
X141172000Y-97033000D02*
X141172000Y-95858000D01*
X142732000Y-97743000D02*
X141882000Y-97743000D01*
X143057000Y-99268000D02*
X143057000Y-98993000D01*
X141882000Y-97743000D02*
X141172000Y-97033000D01*
X143032000Y-98043000D02*
X142732000Y-97743000D01*
X143032000Y-99268000D02*
X143032000Y-98043000D01*
X140532000Y-98243000D02*
X140032000Y-97743000D01*
X138632000Y-96943000D02*
X138632000Y-95858000D01*
X140032000Y-97743000D02*
X139432000Y-97743000D01*
X139432000Y-97743000D02*
X138632000Y-96943000D01*
X140532000Y-99268000D02*
X140532000Y-98243000D01*
X131182000Y-98018000D02*
X132377000Y-96823000D01*
X132377000Y-96823000D02*
X132377000Y-94493000D01*
X131182000Y-99268000D02*
X131182000Y-98018000D01*
X132377000Y-94493000D02*
X133552000Y-93318000D01*
X133682000Y-99268000D02*
X133682000Y-98068000D01*
X134917000Y-96833000D02*
X134917000Y-94493000D01*
X133682000Y-98068000D02*
X134917000Y-96833000D01*
X134917000Y-94493000D02*
X136092000Y-93318000D01*
X160032000Y-102218000D02*
X160032000Y-105018000D01*
G04 #@! TA.AperFunction,Conductor*
G36*
X132525880Y-101528570D02*
G01*
X132536653Y-101542959D01*
X132543923Y-101554271D01*
X132654381Y-101649984D01*
X132787330Y-101710700D01*
X132932000Y-101731500D01*
X132932003Y-101731500D01*
X132936454Y-101732140D01*
X132936293Y-101733258D01*
X132997998Y-101756265D01*
X133040551Y-101813096D01*
X133048500Y-101857142D01*
X133048500Y-102080606D01*
X133048500Y-102205394D01*
X133072845Y-102327785D01*
X133120600Y-102443075D01*
X133189929Y-102546833D01*
X136153167Y-105510071D01*
X136256925Y-105579400D01*
X136372215Y-105627155D01*
X136494606Y-105651500D01*
X136619394Y-105651500D01*
X139747500Y-105651500D01*
X139815621Y-105671502D01*
X139862114Y-105725158D01*
X139873500Y-105777500D01*
X139873500Y-105916649D01*
X139880009Y-105977196D01*
X139880011Y-105977204D01*
X139931110Y-106114202D01*
X139931112Y-106114207D01*
X140018738Y-106231261D01*
X140135791Y-106318886D01*
X140135792Y-106318886D01*
X140135796Y-106318889D01*
X140250810Y-106361787D01*
X140307642Y-106404332D01*
X140332453Y-106470852D01*
X140317362Y-106540226D01*
X140299475Y-106565179D01*
X140156280Y-106720729D01*
X140156275Y-106720734D01*
X140060445Y-106867415D01*
X140006442Y-106913504D01*
X139954962Y-106924500D01*
X137011595Y-106924500D01*
X136943474Y-106904498D01*
X136922500Y-106887595D01*
X131966700Y-101931795D01*
X131932674Y-101869483D01*
X131937739Y-101798668D01*
X131980286Y-101741832D01*
X132020293Y-101721805D01*
X132145316Y-101685096D01*
X132268271Y-101606077D01*
X132268273Y-101606075D01*
X132335432Y-101528570D01*
X132395158Y-101490186D01*
X132466154Y-101490186D01*
X132525880Y-101528570D01*
G37*
G04 #@! TD.AperFunction*
G04 #@! TA.AperFunction,Conductor*
G36*
X137445225Y-93993669D02*
G01*
X137467480Y-94019353D01*
X137496778Y-94064197D01*
X137556275Y-94155265D01*
X137556279Y-94155270D01*
X137708762Y-94320908D01*
X137763331Y-94363381D01*
X137886424Y-94459189D01*
X137919680Y-94477186D01*
X137970071Y-94527200D01*
X137985423Y-94596516D01*
X137960862Y-94663129D01*
X137919680Y-94698813D01*
X137886426Y-94716810D01*
X137886424Y-94716811D01*
X137708762Y-94855091D01*
X137556279Y-95020729D01*
X137556275Y-95020734D01*
X137433141Y-95209206D01*
X137342703Y-95415386D01*
X137342702Y-95415387D01*
X137287437Y-95633624D01*
X137268844Y-95858000D01*
X137287437Y-96082375D01*
X137342702Y-96300612D01*
X137342703Y-96300613D01*
X137433141Y-96506793D01*
X137556275Y-96695265D01*
X137556279Y-96695270D01*
X137708762Y-96860908D01*
X137720756Y-96870243D01*
X137886424Y-96999189D01*
X137957764Y-97037796D01*
X137958575Y-97038235D01*
X138008966Y-97088249D01*
X138022183Y-97124461D01*
X138022845Y-97127785D01*
X138070600Y-97243075D01*
X138139929Y-97346833D01*
X139028167Y-98235071D01*
X139131925Y-98304400D01*
X139247215Y-98352155D01*
X139247218Y-98352155D01*
X139247219Y-98352156D01*
X139253129Y-98353949D01*
X139252440Y-98356218D01*
X139306020Y-98384224D01*
X139341171Y-98445908D01*
X139337393Y-98516804D01*
X139333171Y-98527263D01*
X139289300Y-98623327D01*
X139268500Y-98768002D01*
X139268500Y-99768001D01*
X139272569Y-99832527D01*
X139285155Y-99878214D01*
X139288397Y-99929605D01*
X139268500Y-100068000D01*
X139268500Y-100068003D01*
X139268500Y-101217994D01*
X139273727Y-101291081D01*
X139314903Y-101431313D01*
X139314904Y-101431316D01*
X139393923Y-101554271D01*
X139504381Y-101649984D01*
X139618819Y-101702246D01*
X139672475Y-101748739D01*
X139692477Y-101816860D01*
X139686310Y-101855796D01*
X139638457Y-102003070D01*
X139618496Y-102193000D01*
X139638457Y-102382927D01*
X139659222Y-102446833D01*
X139697473Y-102564556D01*
X139697476Y-102564561D01*
X139792958Y-102729941D01*
X139792965Y-102729951D01*
X139920744Y-102871864D01*
X139920747Y-102871866D01*
X140075248Y-102984118D01*
X140249712Y-103061794D01*
X140436513Y-103101500D01*
X140627487Y-103101500D01*
X140814288Y-103061794D01*
X140829550Y-103054998D01*
X140899914Y-103045562D01*
X140964213Y-103075666D01*
X141002028Y-103135754D01*
X141001355Y-103206747D01*
X140969897Y-103259199D01*
X140828167Y-103400929D01*
X140739931Y-103489164D01*
X140739926Y-103489171D01*
X140667161Y-103598072D01*
X140666175Y-103597413D01*
X140620870Y-103643541D01*
X140559494Y-103659500D01*
X140333350Y-103659500D01*
X140272803Y-103666009D01*
X140272795Y-103666011D01*
X140135797Y-103717110D01*
X140135792Y-103717112D01*
X140018738Y-103804738D01*
X139931112Y-103921792D01*
X139931110Y-103921797D01*
X139880011Y-104058795D01*
X139880009Y-104058803D01*
X139873500Y-104119350D01*
X139873500Y-104258500D01*
X139853498Y-104326621D01*
X139799842Y-104373114D01*
X139747500Y-104384500D01*
X136871594Y-104384500D01*
X136803473Y-104364498D01*
X136782499Y-104347595D01*
X134379222Y-101944318D01*
X134345196Y-101882006D01*
X134350261Y-101811191D01*
X134392808Y-101754355D01*
X134459323Y-101729545D01*
X134505079Y-101726273D01*
X134645316Y-101685096D01*
X134768271Y-101606077D01*
X134863984Y-101495619D01*
X134924700Y-101362670D01*
X134945500Y-101218000D01*
X134945500Y-100068000D01*
X134938974Y-99986391D01*
X134930441Y-99959039D01*
X134926006Y-99903584D01*
X134929654Y-99878214D01*
X134945500Y-99768000D01*
X134945500Y-98768000D01*
X134940273Y-98694921D01*
X134899096Y-98554684D01*
X134820077Y-98431729D01*
X134709619Y-98336016D01*
X134709616Y-98336014D01*
X134600281Y-98286082D01*
X134546626Y-98239589D01*
X134526624Y-98171468D01*
X134546626Y-98103348D01*
X134563519Y-98082384D01*
X135409072Y-97236833D01*
X135478401Y-97133075D01*
X135526155Y-97017785D01*
X135550500Y-96895394D01*
X135550500Y-96770606D01*
X135550500Y-94807594D01*
X135570502Y-94739473D01*
X135587400Y-94718502D01*
X135634206Y-94671697D01*
X135696514Y-94637674D01*
X135752218Y-94638617D01*
X135752224Y-94638586D01*
X135752436Y-94638621D01*
X135754241Y-94638652D01*
X135757350Y-94639439D01*
X135757365Y-94639444D01*
X135979431Y-94676500D01*
X135979435Y-94676500D01*
X136204565Y-94676500D01*
X136204569Y-94676500D01*
X136426635Y-94639444D01*
X136639574Y-94566342D01*
X136837576Y-94459189D01*
X137015240Y-94320906D01*
X137167722Y-94155268D01*
X137256518Y-94019354D01*
X137310520Y-93973268D01*
X137380868Y-93963692D01*
X137445225Y-93993669D01*
G37*
G04 #@! TD.AperFunction*
G04 #@! TA.AperFunction,Conductor*
G36*
X141875880Y-101528570D02*
G01*
X141886653Y-101542959D01*
X141893923Y-101554271D01*
X142004381Y-101649984D01*
X142137330Y-101710700D01*
X142221341Y-101722778D01*
X142285921Y-101752271D01*
X142324305Y-101811997D01*
X142324305Y-101882994D01*
X142292504Y-101936591D01*
X141594200Y-102634895D01*
X141531888Y-102668921D01*
X141461073Y-102663856D01*
X141404237Y-102621309D01*
X141379426Y-102554789D01*
X141385271Y-102506866D01*
X141425542Y-102382928D01*
X141445504Y-102193000D01*
X141425542Y-102003072D01*
X141377363Y-101854796D01*
X141375336Y-101783831D01*
X141411998Y-101723033D01*
X141461696Y-101694967D01*
X141495316Y-101685096D01*
X141618271Y-101606077D01*
X141618273Y-101606075D01*
X141685432Y-101528570D01*
X141745158Y-101490186D01*
X141816154Y-101490186D01*
X141875880Y-101528570D01*
G37*
G04 #@! TD.AperFunction*
G04 #@! TA.AperFunction,Conductor*
G36*
X179535801Y-91568730D02*
G01*
X179565105Y-91570502D01*
X179825684Y-91586264D01*
X179840765Y-91588095D01*
X180122682Y-91639758D01*
X180137429Y-91643393D01*
X180411071Y-91728663D01*
X180425283Y-91734054D01*
X180686624Y-91851674D01*
X180700090Y-91858740D01*
X180945367Y-92007016D01*
X180957866Y-92015643D01*
X181183485Y-92192404D01*
X181194865Y-92202487D01*
X181397512Y-92405134D01*
X181407596Y-92416515D01*
X181584353Y-92642130D01*
X181592985Y-92654635D01*
X181733633Y-92887295D01*
X181741255Y-92899903D01*
X181748325Y-92913375D01*
X181865943Y-93174711D01*
X181871339Y-93188937D01*
X181956602Y-93462554D01*
X181960243Y-93477328D01*
X182011902Y-93759222D01*
X182013736Y-93774326D01*
X182031270Y-94064197D01*
X182031500Y-94071805D01*
X182031500Y-144064194D01*
X182031270Y-144071802D01*
X182013736Y-144361673D01*
X182011902Y-144376777D01*
X181960243Y-144658671D01*
X181956602Y-144673445D01*
X181871339Y-144947062D01*
X181865943Y-144961288D01*
X181748325Y-145222624D01*
X181741255Y-145236096D01*
X181592990Y-145481357D01*
X181584347Y-145493877D01*
X181464967Y-145646255D01*
X181407602Y-145719477D01*
X181397512Y-145730865D01*
X181194865Y-145933512D01*
X181183477Y-145943602D01*
X180957880Y-146120346D01*
X180945357Y-146128990D01*
X180700096Y-146277255D01*
X180686624Y-146284325D01*
X180425288Y-146401943D01*
X180411062Y-146407339D01*
X180137445Y-146492602D01*
X180122671Y-146496243D01*
X179840777Y-146547902D01*
X179825673Y-146549736D01*
X179535802Y-146567270D01*
X179528194Y-146567500D01*
X120535806Y-146567500D01*
X120528198Y-146567270D01*
X120238326Y-146549736D01*
X120223222Y-146547902D01*
X119941328Y-146496243D01*
X119926558Y-146492603D01*
X119652937Y-146407339D01*
X119638711Y-146401943D01*
X119377375Y-146284325D01*
X119363903Y-146277255D01*
X119118635Y-146128985D01*
X119106130Y-146120353D01*
X118880515Y-145943596D01*
X118869134Y-145933512D01*
X118666487Y-145730865D01*
X118656404Y-145719485D01*
X118479643Y-145493866D01*
X118471016Y-145481367D01*
X118322740Y-145236090D01*
X118315674Y-145222624D01*
X118198056Y-144961288D01*
X118192663Y-144947071D01*
X118107393Y-144673429D01*
X118103758Y-144658682D01*
X118052095Y-144376765D01*
X118050264Y-144361684D01*
X118032730Y-144071801D01*
X118032500Y-144064194D01*
X118032500Y-124418000D01*
X174518569Y-124418000D01*
X174538265Y-124680826D01*
X174538266Y-124680830D01*
X174596911Y-124937775D01*
X174693202Y-125183120D01*
X174693205Y-125183128D01*
X174824982Y-125411372D01*
X174824984Y-125411375D01*
X174824985Y-125411376D01*
X174989314Y-125617438D01*
X175182519Y-125796706D01*
X175182525Y-125796710D01*
X175400275Y-125945170D01*
X175400279Y-125945172D01*
X175400285Y-125945176D01*
X175637746Y-126059532D01*
X175637749Y-126059532D01*
X175637754Y-126059535D01*
X175889589Y-126137215D01*
X175889591Y-126137215D01*
X175889600Y-126137218D01*
X176150219Y-126176500D01*
X176150223Y-126176500D01*
X176413777Y-126176500D01*
X176413781Y-126176500D01*
X176674400Y-126137218D01*
X176674410Y-126137215D01*
X176926245Y-126059535D01*
X176926247Y-126059534D01*
X176926254Y-126059532D01*
X177163716Y-125945176D01*
X177381481Y-125796706D01*
X177574686Y-125617438D01*
X177739015Y-125411376D01*
X177870796Y-125183124D01*
X177967087Y-124937780D01*
X178025735Y-124680826D01*
X178045431Y-124418000D01*
X178025735Y-124155174D01*
X177967087Y-123898220D01*
X177870796Y-123652876D01*
X177870795Y-123652875D01*
X177870794Y-123652871D01*
X177739017Y-123424627D01*
X177739015Y-123424624D01*
X177574686Y-123218562D01*
X177381481Y-123039294D01*
X177381474Y-123039289D01*
X177163725Y-122890829D01*
X177163718Y-122890825D01*
X176926257Y-122776469D01*
X176926245Y-122776464D01*
X176674410Y-122698784D01*
X176674402Y-122698782D01*
X176674400Y-122698782D01*
X176413781Y-122659500D01*
X176150219Y-122659500D01*
X175889600Y-122698782D01*
X175889598Y-122698782D01*
X175889589Y-122698784D01*
X175637754Y-122776464D01*
X175637742Y-122776469D01*
X175400283Y-122890825D01*
X175400275Y-122890829D01*
X175182525Y-123039289D01*
X175182520Y-123039293D01*
X174989315Y-123218561D01*
X174824982Y-123424627D01*
X174693205Y-123652871D01*
X174693202Y-123652879D01*
X174596911Y-123898224D01*
X174538266Y-124155169D01*
X174538265Y-124155174D01*
X174518569Y-124418000D01*
X118032500Y-124418000D01*
X118032500Y-95858000D01*
X124568844Y-95858000D01*
X124587437Y-96082375D01*
X124642702Y-96300612D01*
X124642703Y-96300613D01*
X124733141Y-96506793D01*
X124856275Y-96695265D01*
X124856279Y-96695270D01*
X125008762Y-96860908D01*
X125020756Y-96870243D01*
X125186424Y-96999189D01*
X125384426Y-97106342D01*
X125384427Y-97106342D01*
X125384428Y-97106343D01*
X125496227Y-97144723D01*
X125597365Y-97179444D01*
X125819431Y-97216500D01*
X125819435Y-97216500D01*
X126044565Y-97216500D01*
X126044569Y-97216500D01*
X126266635Y-97179444D01*
X126479574Y-97106342D01*
X126677576Y-96999189D01*
X126855240Y-96860906D01*
X127007722Y-96695268D01*
X127096518Y-96559354D01*
X127150520Y-96513268D01*
X127220868Y-96503692D01*
X127285225Y-96533669D01*
X127307480Y-96559353D01*
X127340607Y-96610058D01*
X127396275Y-96695265D01*
X127396279Y-96695270D01*
X127548762Y-96860908D01*
X127560756Y-96870243D01*
X127726424Y-96999189D01*
X127924426Y-97106342D01*
X127924427Y-97106342D01*
X127924428Y-97106343D01*
X128036227Y-97144723D01*
X128137365Y-97179444D01*
X128359431Y-97216500D01*
X128359435Y-97216500D01*
X128584565Y-97216500D01*
X128584569Y-97216500D01*
X128806635Y-97179444D01*
X129019574Y-97106342D01*
X129217576Y-96999189D01*
X129395240Y-96860906D01*
X129547722Y-96695268D01*
X129636518Y-96559354D01*
X129690520Y-96513268D01*
X129760868Y-96503692D01*
X129825225Y-96533669D01*
X129847480Y-96559353D01*
X129880607Y-96610058D01*
X129936275Y-96695265D01*
X129936279Y-96695270D01*
X130088762Y-96860908D01*
X130100756Y-96870243D01*
X130266424Y-96999189D01*
X130464426Y-97106342D01*
X130464427Y-97106342D01*
X130464428Y-97106343D01*
X130576227Y-97144723D01*
X130677365Y-97179444D01*
X130819246Y-97203119D01*
X130883143Y-97234059D01*
X130920170Y-97294635D01*
X130918570Y-97365614D01*
X130887601Y-97416495D01*
X130778167Y-97525929D01*
X130689931Y-97614164D01*
X130689926Y-97614171D01*
X130673225Y-97639167D01*
X130620600Y-97717925D01*
X130610245Y-97742925D01*
X130572846Y-97833212D01*
X130548500Y-97955603D01*
X130548500Y-98128857D01*
X130528498Y-98196978D01*
X130474842Y-98243471D01*
X130431490Y-98254536D01*
X130358918Y-98259727D01*
X130218686Y-98300903D01*
X130218682Y-98300905D01*
X130095729Y-98379922D01*
X130000016Y-98490380D01*
X129939300Y-98623329D01*
X129918500Y-98768002D01*
X129918500Y-99768001D01*
X129922569Y-99832527D01*
X129935155Y-99878214D01*
X129938397Y-99929605D01*
X129918500Y-100068000D01*
X129918500Y-100068003D01*
X129918500Y-101217994D01*
X129923727Y-101291081D01*
X129964903Y-101431313D01*
X129964904Y-101431316D01*
X130043923Y-101554271D01*
X130154381Y-101649984D01*
X130287330Y-101710700D01*
X130432000Y-101731500D01*
X130432003Y-101731500D01*
X130436454Y-101732140D01*
X130436293Y-101733258D01*
X130497998Y-101756265D01*
X130540551Y-101813096D01*
X130548500Y-101857142D01*
X130548500Y-102105396D01*
X130558185Y-102154086D01*
X130572845Y-102227785D01*
X130620600Y-102343075D01*
X130689929Y-102446833D01*
X136293167Y-108050072D01*
X136396925Y-108119401D01*
X136512215Y-108167155D01*
X136634606Y-108191500D01*
X139954962Y-108191500D01*
X140023083Y-108211502D01*
X140060445Y-108248585D01*
X140156275Y-108395265D01*
X140156279Y-108395270D01*
X140308762Y-108560908D01*
X140363331Y-108603381D01*
X140486424Y-108699189D01*
X140684426Y-108806342D01*
X140684427Y-108806342D01*
X140684428Y-108806343D01*
X140796227Y-108844723D01*
X140897365Y-108879444D01*
X141119431Y-108916500D01*
X141119435Y-108916500D01*
X141344565Y-108916500D01*
X141344569Y-108916500D01*
X141566635Y-108879444D01*
X141779574Y-108806342D01*
X141977576Y-108699189D01*
X142155240Y-108560906D01*
X142307722Y-108395268D01*
X142409863Y-108238928D01*
X142463866Y-108192840D01*
X142490761Y-108184266D01*
X142576785Y-108167155D01*
X142692075Y-108119400D01*
X142795833Y-108050071D01*
X143501554Y-107344350D01*
X174523500Y-107344350D01*
X174523500Y-109941649D01*
X174530009Y-110002196D01*
X174530011Y-110002204D01*
X174581110Y-110139202D01*
X174581112Y-110139207D01*
X174668738Y-110256261D01*
X174785792Y-110343887D01*
X174785794Y-110343888D01*
X174785796Y-110343889D01*
X174844875Y-110365924D01*
X174922795Y-110394988D01*
X174922803Y-110394990D01*
X174983350Y-110401499D01*
X174983355Y-110401499D01*
X174983362Y-110401500D01*
X174983368Y-110401500D01*
X177580632Y-110401500D01*
X177580638Y-110401500D01*
X177580645Y-110401499D01*
X177580649Y-110401499D01*
X177641196Y-110394990D01*
X177641199Y-110394989D01*
X177641201Y-110394989D01*
X177778204Y-110343889D01*
X177895261Y-110256261D01*
X177982889Y-110139204D01*
X178033989Y-110002201D01*
X178040500Y-109941638D01*
X178040500Y-107344362D01*
X178040499Y-107344350D01*
X178033990Y-107283803D01*
X178033988Y-107283795D01*
X177982889Y-107146797D01*
X177982887Y-107146792D01*
X177895261Y-107029738D01*
X177778207Y-106942112D01*
X177778202Y-106942110D01*
X177641204Y-106891011D01*
X177641196Y-106891009D01*
X177580649Y-106884500D01*
X177580638Y-106884500D01*
X174983362Y-106884500D01*
X174983350Y-106884500D01*
X174922803Y-106891009D01*
X174922795Y-106891011D01*
X174785797Y-106942110D01*
X174785792Y-106942112D01*
X174668738Y-107029738D01*
X174581112Y-107146792D01*
X174581110Y-107146797D01*
X174530011Y-107283795D01*
X174530009Y-107283803D01*
X174523500Y-107344350D01*
X143501554Y-107344350D01*
X144324072Y-106521833D01*
X144393401Y-106418075D01*
X144441155Y-106302784D01*
X144461700Y-106199500D01*
X144465500Y-106180394D01*
X144465500Y-104495524D01*
X144485502Y-104427403D01*
X144497858Y-104411220D01*
X144571040Y-104329944D01*
X144666527Y-104164556D01*
X144725542Y-103982928D01*
X144745504Y-103793000D01*
X144725542Y-103603072D01*
X144666527Y-103421444D01*
X144571040Y-103256056D01*
X144571038Y-103256054D01*
X144571034Y-103256048D01*
X144443255Y-103114135D01*
X144288752Y-103001882D01*
X144114288Y-102924206D01*
X143927487Y-102884500D01*
X143736513Y-102884500D01*
X143549711Y-102924206D01*
X143375246Y-103001883D01*
X143375244Y-103001884D01*
X143367785Y-103007303D01*
X143300916Y-103031157D01*
X143231765Y-103015072D01*
X143182289Y-102964155D01*
X143168194Y-102894571D01*
X143193956Y-102828414D01*
X143204623Y-102816280D01*
X143524071Y-102496833D01*
X143593400Y-102393075D01*
X143641155Y-102277785D01*
X143665500Y-102155394D01*
X143665500Y-102030607D01*
X143665500Y-101857142D01*
X143685502Y-101789021D01*
X143739158Y-101742528D01*
X143782508Y-101731463D01*
X143855079Y-101726273D01*
X143995316Y-101685096D01*
X144118271Y-101606077D01*
X144213984Y-101495619D01*
X144226597Y-101468000D01*
X158993500Y-101468000D01*
X158993500Y-102968000D01*
X158995924Y-103001884D01*
X158998727Y-103041081D01*
X159026526Y-103135754D01*
X159039904Y-103181316D01*
X159118923Y-103304271D01*
X159229381Y-103399984D01*
X159324843Y-103443580D01*
X159378498Y-103490072D01*
X159398500Y-103558193D01*
X159398500Y-104315474D01*
X159378498Y-104383595D01*
X159366137Y-104399784D01*
X159292957Y-104481059D01*
X159197476Y-104646438D01*
X159197473Y-104646445D01*
X159138457Y-104828072D01*
X159118496Y-105018000D01*
X159138457Y-105207927D01*
X159163348Y-105284530D01*
X159197473Y-105389556D01*
X159197476Y-105389561D01*
X159292958Y-105554941D01*
X159292965Y-105554951D01*
X159420744Y-105696864D01*
X159420747Y-105696866D01*
X159575248Y-105809118D01*
X159749712Y-105886794D01*
X159936513Y-105926500D01*
X160127487Y-105926500D01*
X160314288Y-105886794D01*
X160488752Y-105809118D01*
X160643253Y-105696866D01*
X160771040Y-105554944D01*
X160866527Y-105389556D01*
X160925542Y-105207928D01*
X160930129Y-105164284D01*
X160957142Y-105098628D01*
X161015363Y-105057997D01*
X161081637Y-105054208D01*
X161186509Y-105076500D01*
X161186513Y-105076500D01*
X161377487Y-105076500D01*
X161564288Y-105036794D01*
X161738752Y-104959118D01*
X161893253Y-104846866D01*
X162021040Y-104704944D01*
X162116527Y-104539556D01*
X162175542Y-104357928D01*
X162195504Y-104168000D01*
X162175542Y-103978072D01*
X162116527Y-103796444D01*
X162074056Y-103722883D01*
X162057318Y-103653887D01*
X162059754Y-103643000D01*
X174518569Y-103643000D01*
X174538265Y-103905826D01*
X174538266Y-103905830D01*
X174596911Y-104162775D01*
X174693202Y-104408120D01*
X174693205Y-104408128D01*
X174824982Y-104636372D01*
X174824984Y-104636375D01*
X174824985Y-104636376D01*
X174989314Y-104842438D01*
X175182519Y-105021706D01*
X175182525Y-105021710D01*
X175400275Y-105170170D01*
X175400279Y-105170172D01*
X175400285Y-105170176D01*
X175637746Y-105284532D01*
X175637749Y-105284532D01*
X175637754Y-105284535D01*
X175889589Y-105362215D01*
X175889591Y-105362215D01*
X175889600Y-105362218D01*
X176150219Y-105401500D01*
X176150223Y-105401500D01*
X176413777Y-105401500D01*
X176413781Y-105401500D01*
X176674400Y-105362218D01*
X176674410Y-105362215D01*
X176926245Y-105284535D01*
X176926247Y-105284534D01*
X176926254Y-105284532D01*
X177163716Y-105170176D01*
X177172357Y-105164285D01*
X177301113Y-105076500D01*
X177381481Y-105021706D01*
X177574686Y-104842438D01*
X177739015Y-104636376D01*
X177848260Y-104447158D01*
X177870794Y-104408128D01*
X177870796Y-104408124D01*
X177967087Y-104162780D01*
X178025735Y-103905826D01*
X178045431Y-103643000D01*
X178025735Y-103380174D01*
X177967087Y-103123220D01*
X177870796Y-102877876D01*
X177870795Y-102877875D01*
X177870794Y-102877871D01*
X177739017Y-102649627D01*
X177727269Y-102634895D01*
X177574686Y-102443562D01*
X177381481Y-102264294D01*
X177381474Y-102264289D01*
X177163725Y-102115829D01*
X177163718Y-102115825D01*
X176926257Y-102001469D01*
X176926245Y-102001464D01*
X176674410Y-101923784D01*
X176674402Y-101923782D01*
X176674400Y-101923782D01*
X176413781Y-101884500D01*
X176150219Y-101884500D01*
X175889600Y-101923782D01*
X175889598Y-101923782D01*
X175889589Y-101923784D01*
X175637754Y-102001464D01*
X175637742Y-102001469D01*
X175400283Y-102115825D01*
X175400275Y-102115829D01*
X175182525Y-102264289D01*
X175182520Y-102264293D01*
X175182519Y-102264294D01*
X174989314Y-102443562D01*
X174986704Y-102446835D01*
X174824982Y-102649627D01*
X174693205Y-102877871D01*
X174693202Y-102877879D01*
X174596911Y-103123224D01*
X174555589Y-103304271D01*
X174538265Y-103380174D01*
X174518569Y-103643000D01*
X162059754Y-103643000D01*
X162066765Y-103611667D01*
X162091155Y-103552784D01*
X162096414Y-103526345D01*
X162129319Y-103463438D01*
X162167653Y-103436312D01*
X162170309Y-103435097D01*
X162170316Y-103435096D01*
X162293271Y-103356077D01*
X162388984Y-103245619D01*
X162449700Y-103112670D01*
X162470500Y-102968000D01*
X162470500Y-101468000D01*
X162465273Y-101394921D01*
X162424096Y-101254684D01*
X162345077Y-101131729D01*
X162234619Y-101036016D01*
X162101670Y-100975300D01*
X161957000Y-100954500D01*
X160957000Y-100954500D01*
X160956998Y-100954500D01*
X160892472Y-100958569D01*
X160892469Y-100958569D01*
X160846779Y-100971155D01*
X160795389Y-100974397D01*
X160657000Y-100954500D01*
X159507000Y-100954500D01*
X159458280Y-100957984D01*
X159433918Y-100959727D01*
X159293686Y-101000903D01*
X159293682Y-101000905D01*
X159170729Y-101079922D01*
X159075016Y-101190380D01*
X159029028Y-101291081D01*
X159014300Y-101323330D01*
X158993500Y-101468000D01*
X144226597Y-101468000D01*
X144274700Y-101362670D01*
X144295500Y-101218000D01*
X144295500Y-100068000D01*
X144288974Y-99986391D01*
X144280441Y-99959039D01*
X144276006Y-99903584D01*
X144279654Y-99878214D01*
X144295500Y-99768000D01*
X144295500Y-98768000D01*
X144290273Y-98694921D01*
X144249096Y-98554684D01*
X144170077Y-98431729D01*
X144059619Y-98336016D01*
X143926670Y-98275300D01*
X143782000Y-98254500D01*
X143781997Y-98254500D01*
X143777546Y-98253860D01*
X143777705Y-98252748D01*
X143715977Y-98229715D01*
X143673438Y-98172873D01*
X143665500Y-98128857D01*
X143665500Y-97980607D01*
X143665499Y-97980603D01*
X143660527Y-97955606D01*
X143641155Y-97858215D01*
X143593400Y-97742925D01*
X143524071Y-97639167D01*
X143435833Y-97550929D01*
X143279766Y-97394862D01*
X143245740Y-97332550D01*
X143250805Y-97261735D01*
X143293352Y-97204899D01*
X143359872Y-97180088D01*
X143389594Y-97181484D01*
X143599431Y-97216500D01*
X143599436Y-97216500D01*
X143824565Y-97216500D01*
X143824569Y-97216500D01*
X144046635Y-97179444D01*
X144259574Y-97106342D01*
X144457576Y-96999189D01*
X144635240Y-96860906D01*
X144787722Y-96695268D01*
X144876518Y-96559354D01*
X144930520Y-96513268D01*
X145000868Y-96503692D01*
X145065225Y-96533669D01*
X145087480Y-96559353D01*
X145120607Y-96610058D01*
X145176275Y-96695265D01*
X145176279Y-96695270D01*
X145328762Y-96860908D01*
X145340756Y-96870243D01*
X145506424Y-96999189D01*
X145704426Y-97106342D01*
X145704427Y-97106342D01*
X145704428Y-97106343D01*
X145816227Y-97144723D01*
X145917365Y-97179444D01*
X146139431Y-97216500D01*
X146139435Y-97216500D01*
X146364565Y-97216500D01*
X146364569Y-97216500D01*
X146586635Y-97179444D01*
X146799574Y-97106342D01*
X146997576Y-96999189D01*
X147175240Y-96860906D01*
X147327722Y-96695268D01*
X147416518Y-96559354D01*
X147470520Y-96513268D01*
X147540868Y-96503692D01*
X147605225Y-96533669D01*
X147627480Y-96559353D01*
X147660607Y-96610058D01*
X147716275Y-96695265D01*
X147716279Y-96695270D01*
X147868762Y-96860908D01*
X147880756Y-96870243D01*
X148046424Y-96999189D01*
X148244426Y-97106342D01*
X148244427Y-97106342D01*
X148244428Y-97106343D01*
X148356227Y-97144723D01*
X148457365Y-97179444D01*
X148679431Y-97216500D01*
X148679435Y-97216500D01*
X148904565Y-97216500D01*
X148904569Y-97216500D01*
X149126635Y-97179444D01*
X149339574Y-97106342D01*
X149537576Y-96999189D01*
X149715240Y-96860906D01*
X149867722Y-96695268D01*
X149956518Y-96559354D01*
X150010520Y-96513268D01*
X150080868Y-96503692D01*
X150145225Y-96533669D01*
X150167480Y-96559353D01*
X150200607Y-96610058D01*
X150256275Y-96695265D01*
X150256279Y-96695270D01*
X150408762Y-96860908D01*
X150420756Y-96870243D01*
X150586424Y-96999189D01*
X150784426Y-97106342D01*
X150784427Y-97106342D01*
X150784428Y-97106343D01*
X150896227Y-97144723D01*
X150997365Y-97179444D01*
X151219431Y-97216500D01*
X151219435Y-97216500D01*
X151444565Y-97216500D01*
X151444569Y-97216500D01*
X151666635Y-97179444D01*
X151879574Y-97106342D01*
X152077576Y-96999189D01*
X152255240Y-96860906D01*
X152407722Y-96695268D01*
X152496518Y-96559354D01*
X152550520Y-96513268D01*
X152620868Y-96503692D01*
X152685225Y-96533669D01*
X152707480Y-96559353D01*
X152740607Y-96610058D01*
X152796275Y-96695265D01*
X152796279Y-96695270D01*
X152948762Y-96860908D01*
X152960756Y-96870243D01*
X153126424Y-96999189D01*
X153324426Y-97106342D01*
X153324427Y-97106342D01*
X153324428Y-97106343D01*
X153436227Y-97144723D01*
X153537365Y-97179444D01*
X153759431Y-97216500D01*
X153759435Y-97216500D01*
X153984565Y-97216500D01*
X153984569Y-97216500D01*
X154206635Y-97179444D01*
X154419574Y-97106342D01*
X154617576Y-96999189D01*
X154795240Y-96860906D01*
X154947722Y-96695268D01*
X155070860Y-96506791D01*
X155161296Y-96300616D01*
X155216564Y-96082368D01*
X155235156Y-95858000D01*
X155216564Y-95633632D01*
X155161296Y-95415384D01*
X155070860Y-95209209D01*
X155064140Y-95198924D01*
X154947724Y-95020734D01*
X154947720Y-95020729D01*
X154795237Y-94855091D01*
X154687007Y-94770852D01*
X154617576Y-94716811D01*
X154584319Y-94698813D01*
X154533929Y-94648802D01*
X154518576Y-94579485D01*
X154543136Y-94512872D01*
X154584320Y-94477186D01*
X154617576Y-94459189D01*
X154795240Y-94320906D01*
X154947722Y-94155268D01*
X155036518Y-94019354D01*
X155090520Y-93973268D01*
X155160868Y-93963692D01*
X155225225Y-93993669D01*
X155247480Y-94019353D01*
X155276778Y-94064197D01*
X155336275Y-94155265D01*
X155336279Y-94155270D01*
X155488762Y-94320908D01*
X155543331Y-94363381D01*
X155666424Y-94459189D01*
X155864426Y-94566342D01*
X155864427Y-94566342D01*
X155864428Y-94566343D01*
X155952320Y-94596516D01*
X156077365Y-94639444D01*
X156299431Y-94676500D01*
X156299435Y-94676500D01*
X156524565Y-94676500D01*
X156524569Y-94676500D01*
X156746635Y-94639444D01*
X156959574Y-94566342D01*
X157157576Y-94459189D01*
X157335240Y-94320906D01*
X157487722Y-94155268D01*
X157576518Y-94019354D01*
X157630520Y-93973268D01*
X157700868Y-93963692D01*
X157765225Y-93993669D01*
X157787480Y-94019353D01*
X157816778Y-94064197D01*
X157876275Y-94155265D01*
X157876279Y-94155270D01*
X158028762Y-94320908D01*
X158083331Y-94363381D01*
X158206424Y-94459189D01*
X158239680Y-94477186D01*
X158290071Y-94527200D01*
X158305423Y-94596516D01*
X158280862Y-94663129D01*
X158239680Y-94698813D01*
X158206426Y-94716810D01*
X158206424Y-94716811D01*
X158028762Y-94855091D01*
X157876279Y-95020729D01*
X157876275Y-95020734D01*
X157753141Y-95209206D01*
X157662703Y-95415386D01*
X157662702Y-95415387D01*
X157607437Y-95633624D01*
X157588844Y-95858000D01*
X157607437Y-96082375D01*
X157662702Y-96300612D01*
X157662703Y-96300613D01*
X157753141Y-96506793D01*
X157876275Y-96695265D01*
X157876279Y-96695270D01*
X158028762Y-96860908D01*
X158040756Y-96870243D01*
X158206424Y-96999189D01*
X158404426Y-97106342D01*
X158404427Y-97106342D01*
X158404428Y-97106343D01*
X158516227Y-97144723D01*
X158617365Y-97179444D01*
X158839431Y-97216500D01*
X158839435Y-97216500D01*
X159064565Y-97216500D01*
X159064569Y-97216500D01*
X159286635Y-97179444D01*
X159499574Y-97106342D01*
X159697576Y-96999189D01*
X159875240Y-96860906D01*
X160027722Y-96695268D01*
X160116518Y-96559354D01*
X160170520Y-96513268D01*
X160240868Y-96503692D01*
X160305225Y-96533669D01*
X160327480Y-96559353D01*
X160360607Y-96610058D01*
X160416275Y-96695265D01*
X160416279Y-96695270D01*
X160568762Y-96860908D01*
X160580756Y-96870243D01*
X160746424Y-96999189D01*
X160944426Y-97106342D01*
X160944427Y-97106342D01*
X160944428Y-97106343D01*
X161056227Y-97144723D01*
X161157365Y-97179444D01*
X161379431Y-97216500D01*
X161379435Y-97216500D01*
X161604565Y-97216500D01*
X161604569Y-97216500D01*
X161826635Y-97179444D01*
X162039574Y-97106342D01*
X162237576Y-96999189D01*
X162415240Y-96860906D01*
X162567722Y-96695268D01*
X162656518Y-96559354D01*
X162710520Y-96513268D01*
X162780868Y-96503692D01*
X162845225Y-96533669D01*
X162867480Y-96559353D01*
X162900607Y-96610058D01*
X162956275Y-96695265D01*
X162956279Y-96695270D01*
X163108762Y-96860908D01*
X163120756Y-96870243D01*
X163286424Y-96999189D01*
X163484426Y-97106342D01*
X163484427Y-97106342D01*
X163484428Y-97106343D01*
X163596227Y-97144723D01*
X163697365Y-97179444D01*
X163919431Y-97216500D01*
X163919435Y-97216500D01*
X164144565Y-97216500D01*
X164144569Y-97216500D01*
X164366635Y-97179444D01*
X164579574Y-97106342D01*
X164777576Y-96999189D01*
X164955240Y-96860906D01*
X165107722Y-96695268D01*
X165196518Y-96559354D01*
X165250520Y-96513268D01*
X165320868Y-96503692D01*
X165385225Y-96533669D01*
X165407480Y-96559353D01*
X165440607Y-96610058D01*
X165496275Y-96695265D01*
X165496279Y-96695270D01*
X165648762Y-96860908D01*
X165660756Y-96870243D01*
X165826424Y-96999189D01*
X166024426Y-97106342D01*
X166024427Y-97106342D01*
X166024428Y-97106343D01*
X166136227Y-97144723D01*
X166237365Y-97179444D01*
X166459431Y-97216500D01*
X166459435Y-97216500D01*
X166684565Y-97216500D01*
X166684569Y-97216500D01*
X166906635Y-97179444D01*
X167119574Y-97106342D01*
X167317576Y-96999189D01*
X167495240Y-96860906D01*
X167647722Y-96695268D01*
X167736518Y-96559354D01*
X167790520Y-96513268D01*
X167860868Y-96503692D01*
X167925225Y-96533669D01*
X167947480Y-96559353D01*
X167980607Y-96610058D01*
X168036275Y-96695265D01*
X168036279Y-96695270D01*
X168188762Y-96860908D01*
X168200756Y-96870243D01*
X168366424Y-96999189D01*
X168564426Y-97106342D01*
X168564427Y-97106342D01*
X168564428Y-97106343D01*
X168676227Y-97144723D01*
X168777365Y-97179444D01*
X168999431Y-97216500D01*
X168999435Y-97216500D01*
X169224565Y-97216500D01*
X169224569Y-97216500D01*
X169446635Y-97179444D01*
X169659574Y-97106342D01*
X169857576Y-96999189D01*
X170035240Y-96860906D01*
X170187722Y-96695268D01*
X170276518Y-96559354D01*
X170330520Y-96513268D01*
X170400868Y-96503692D01*
X170465225Y-96533669D01*
X170487480Y-96559353D01*
X170520607Y-96610058D01*
X170576275Y-96695265D01*
X170576279Y-96695270D01*
X170728762Y-96860908D01*
X170740756Y-96870243D01*
X170906424Y-96999189D01*
X171104426Y-97106342D01*
X171104427Y-97106342D01*
X171104428Y-97106343D01*
X171216227Y-97144723D01*
X171317365Y-97179444D01*
X171539431Y-97216500D01*
X171539435Y-97216500D01*
X171764565Y-97216500D01*
X171764569Y-97216500D01*
X171986635Y-97179444D01*
X172199574Y-97106342D01*
X172397576Y-96999189D01*
X172575240Y-96860906D01*
X172727722Y-96695268D01*
X172850860Y-96506791D01*
X172941296Y-96300616D01*
X172996564Y-96082368D01*
X173015156Y-95858000D01*
X172996564Y-95633632D01*
X172941296Y-95415384D01*
X172850860Y-95209209D01*
X172844140Y-95198924D01*
X172727724Y-95020734D01*
X172727720Y-95020729D01*
X172575237Y-94855091D01*
X172467007Y-94770852D01*
X172397576Y-94716811D01*
X172364319Y-94698813D01*
X172313929Y-94648802D01*
X172298576Y-94579485D01*
X172323136Y-94512872D01*
X172364320Y-94477186D01*
X172397576Y-94459189D01*
X172575240Y-94320906D01*
X172727722Y-94155268D01*
X172816518Y-94019354D01*
X172870520Y-93973268D01*
X172940868Y-93963692D01*
X173005225Y-93993669D01*
X173027480Y-94019353D01*
X173056778Y-94064197D01*
X173116275Y-94155265D01*
X173116279Y-94155270D01*
X173268762Y-94320908D01*
X173323331Y-94363381D01*
X173446424Y-94459189D01*
X173644426Y-94566342D01*
X173644427Y-94566342D01*
X173644428Y-94566343D01*
X173732320Y-94596516D01*
X173857365Y-94639444D01*
X174079431Y-94676500D01*
X174079435Y-94676500D01*
X174304565Y-94676500D01*
X174304569Y-94676500D01*
X174526635Y-94639444D01*
X174739574Y-94566342D01*
X174937576Y-94459189D01*
X175115240Y-94320906D01*
X175267722Y-94155268D01*
X175390860Y-93966791D01*
X175481296Y-93760616D01*
X175536564Y-93542368D01*
X175555156Y-93318000D01*
X175536564Y-93093632D01*
X175490917Y-92913375D01*
X175481297Y-92875387D01*
X175481296Y-92875386D01*
X175481296Y-92875384D01*
X175390860Y-92669209D01*
X175377083Y-92648122D01*
X175267724Y-92480734D01*
X175267720Y-92480729D01*
X175115237Y-92315091D01*
X174995367Y-92221792D01*
X174937576Y-92176811D01*
X174739574Y-92069658D01*
X174739572Y-92069657D01*
X174739571Y-92069656D01*
X174526639Y-91996557D01*
X174526630Y-91996555D01*
X174482476Y-91989187D01*
X174304569Y-91959500D01*
X174079431Y-91959500D01*
X173931211Y-91984233D01*
X173857369Y-91996555D01*
X173857360Y-91996557D01*
X173644428Y-92069656D01*
X173644426Y-92069658D01*
X173446426Y-92176810D01*
X173446424Y-92176811D01*
X173268762Y-92315091D01*
X173116279Y-92480729D01*
X173027483Y-92616643D01*
X172973479Y-92662731D01*
X172903131Y-92672306D01*
X172838774Y-92642329D01*
X172816517Y-92616643D01*
X172727720Y-92480729D01*
X172575237Y-92315091D01*
X172455367Y-92221792D01*
X172397576Y-92176811D01*
X172199574Y-92069658D01*
X172199572Y-92069657D01*
X172199571Y-92069656D01*
X171986639Y-91996557D01*
X171986630Y-91996555D01*
X171942476Y-91989187D01*
X171764569Y-91959500D01*
X171539431Y-91959500D01*
X171391211Y-91984233D01*
X171317369Y-91996555D01*
X171317360Y-91996557D01*
X171104428Y-92069656D01*
X171104426Y-92069658D01*
X170906426Y-92176810D01*
X170906424Y-92176811D01*
X170728762Y-92315091D01*
X170576279Y-92480729D01*
X170487483Y-92616643D01*
X170433479Y-92662731D01*
X170363131Y-92672306D01*
X170298774Y-92642329D01*
X170276517Y-92616643D01*
X170187720Y-92480729D01*
X170035237Y-92315091D01*
X169915367Y-92221792D01*
X169857576Y-92176811D01*
X169659574Y-92069658D01*
X169659572Y-92069657D01*
X169659571Y-92069656D01*
X169446639Y-91996557D01*
X169446630Y-91996555D01*
X169402476Y-91989187D01*
X169224569Y-91959500D01*
X168999431Y-91959500D01*
X168851211Y-91984233D01*
X168777369Y-91996555D01*
X168777360Y-91996557D01*
X168564428Y-92069656D01*
X168564426Y-92069658D01*
X168366426Y-92176810D01*
X168366424Y-92176811D01*
X168188762Y-92315091D01*
X168036279Y-92480729D01*
X168036275Y-92480734D01*
X167913141Y-92669206D01*
X167822703Y-92875386D01*
X167822702Y-92875387D01*
X167767437Y-93093624D01*
X167767436Y-93093630D01*
X167767436Y-93093632D01*
X167748844Y-93318000D01*
X167767436Y-93542368D01*
X167767436Y-93542370D01*
X167767437Y-93542375D01*
X167822702Y-93760612D01*
X167822703Y-93760613D01*
X167822704Y-93760616D01*
X167828718Y-93774326D01*
X167913141Y-93966793D01*
X168036275Y-94155265D01*
X168036279Y-94155270D01*
X168188762Y-94320908D01*
X168243331Y-94363381D01*
X168366424Y-94459189D01*
X168399680Y-94477186D01*
X168450071Y-94527200D01*
X168465423Y-94596516D01*
X168440862Y-94663129D01*
X168399680Y-94698813D01*
X168366426Y-94716810D01*
X168366424Y-94716811D01*
X168188762Y-94855091D01*
X168036279Y-95020729D01*
X167947483Y-95156643D01*
X167893479Y-95202731D01*
X167823131Y-95212306D01*
X167758774Y-95182329D01*
X167736517Y-95156643D01*
X167647720Y-95020729D01*
X167495237Y-94855091D01*
X167387007Y-94770852D01*
X167317576Y-94716811D01*
X167119574Y-94609658D01*
X167119572Y-94609657D01*
X167119571Y-94609656D01*
X166906639Y-94536557D01*
X166906630Y-94536555D01*
X166850567Y-94527200D01*
X166684569Y-94499500D01*
X166459431Y-94499500D01*
X166311211Y-94524233D01*
X166237369Y-94536555D01*
X166237360Y-94536557D01*
X166024428Y-94609656D01*
X166024426Y-94609658D01*
X165826432Y-94716807D01*
X165826426Y-94716810D01*
X165826424Y-94716811D01*
X165648762Y-94855091D01*
X165496279Y-95020729D01*
X165407483Y-95156643D01*
X165353479Y-95202731D01*
X165283131Y-95212306D01*
X165218774Y-95182329D01*
X165196517Y-95156643D01*
X165107720Y-95020729D01*
X164955237Y-94855091D01*
X164847007Y-94770852D01*
X164777576Y-94716811D01*
X164744319Y-94698813D01*
X164693929Y-94648802D01*
X164678576Y-94579485D01*
X164703136Y-94512872D01*
X164744320Y-94477186D01*
X164777576Y-94459189D01*
X164955240Y-94320906D01*
X165107722Y-94155268D01*
X165230860Y-93966791D01*
X165321296Y-93760616D01*
X165376564Y-93542368D01*
X165395156Y-93318000D01*
X165376564Y-93093632D01*
X165330917Y-92913375D01*
X165321297Y-92875387D01*
X165321296Y-92875386D01*
X165321296Y-92875384D01*
X165230860Y-92669209D01*
X165217083Y-92648122D01*
X165107724Y-92480734D01*
X165107720Y-92480729D01*
X164955237Y-92315091D01*
X164835367Y-92221792D01*
X164777576Y-92176811D01*
X164579574Y-92069658D01*
X164579572Y-92069657D01*
X164579571Y-92069656D01*
X164366639Y-91996557D01*
X164366630Y-91996555D01*
X164322476Y-91989187D01*
X164144569Y-91959500D01*
X163919431Y-91959500D01*
X163771211Y-91984233D01*
X163697369Y-91996555D01*
X163697360Y-91996557D01*
X163484428Y-92069656D01*
X163484426Y-92069658D01*
X163286426Y-92176810D01*
X163286424Y-92176811D01*
X163108762Y-92315091D01*
X162956279Y-92480729D01*
X162956275Y-92480734D01*
X162833141Y-92669206D01*
X162742703Y-92875386D01*
X162742702Y-92875387D01*
X162687437Y-93093624D01*
X162687436Y-93093630D01*
X162687436Y-93093632D01*
X162668844Y-93318000D01*
X162687436Y-93542368D01*
X162687436Y-93542370D01*
X162687437Y-93542375D01*
X162742702Y-93760612D01*
X162742703Y-93760613D01*
X162742704Y-93760616D01*
X162748718Y-93774326D01*
X162833141Y-93966793D01*
X162956275Y-94155265D01*
X162956279Y-94155270D01*
X163108762Y-94320908D01*
X163163331Y-94363381D01*
X163286424Y-94459189D01*
X163319680Y-94477186D01*
X163370071Y-94527200D01*
X163385423Y-94596516D01*
X163360862Y-94663129D01*
X163319680Y-94698813D01*
X163286426Y-94716810D01*
X163286424Y-94716811D01*
X163108762Y-94855091D01*
X162956279Y-95020729D01*
X162867483Y-95156643D01*
X162813479Y-95202731D01*
X162743131Y-95212306D01*
X162678774Y-95182329D01*
X162656517Y-95156643D01*
X162567720Y-95020729D01*
X162415237Y-94855091D01*
X162307007Y-94770852D01*
X162237576Y-94716811D01*
X162039574Y-94609658D01*
X162039572Y-94609657D01*
X162039571Y-94609656D01*
X161826639Y-94536557D01*
X161826630Y-94536555D01*
X161770567Y-94527200D01*
X161604569Y-94499500D01*
X161379431Y-94499500D01*
X161231211Y-94524233D01*
X161157369Y-94536555D01*
X161157360Y-94536557D01*
X160944428Y-94609656D01*
X160944426Y-94609658D01*
X160746432Y-94716807D01*
X160746426Y-94716810D01*
X160746424Y-94716811D01*
X160568762Y-94855091D01*
X160416279Y-95020729D01*
X160327483Y-95156643D01*
X160273479Y-95202731D01*
X160203131Y-95212306D01*
X160138774Y-95182329D01*
X160116517Y-95156643D01*
X160027720Y-95020729D01*
X159875237Y-94855091D01*
X159767007Y-94770852D01*
X159697576Y-94716811D01*
X159664319Y-94698813D01*
X159613929Y-94648802D01*
X159598576Y-94579485D01*
X159623136Y-94512872D01*
X159664320Y-94477186D01*
X159697576Y-94459189D01*
X159875240Y-94320906D01*
X160027722Y-94155268D01*
X160150860Y-93966791D01*
X160241296Y-93760616D01*
X160296564Y-93542368D01*
X160315156Y-93318000D01*
X160296564Y-93093632D01*
X160250917Y-92913375D01*
X160241297Y-92875387D01*
X160241296Y-92875386D01*
X160241296Y-92875384D01*
X160150860Y-92669209D01*
X160137083Y-92648122D01*
X160027724Y-92480734D01*
X160027720Y-92480729D01*
X159875237Y-92315091D01*
X159755367Y-92221792D01*
X159697576Y-92176811D01*
X159499574Y-92069658D01*
X159499572Y-92069657D01*
X159499571Y-92069656D01*
X159286639Y-91996557D01*
X159286630Y-91996555D01*
X159242476Y-91989187D01*
X159064569Y-91959500D01*
X158839431Y-91959500D01*
X158691211Y-91984233D01*
X158617369Y-91996555D01*
X158617360Y-91996557D01*
X158404428Y-92069656D01*
X158404426Y-92069658D01*
X158206426Y-92176810D01*
X158206424Y-92176811D01*
X158028762Y-92315091D01*
X157876279Y-92480729D01*
X157787483Y-92616643D01*
X157733479Y-92662731D01*
X157663131Y-92672306D01*
X157598774Y-92642329D01*
X157576517Y-92616643D01*
X157487720Y-92480729D01*
X157335237Y-92315091D01*
X157215367Y-92221792D01*
X157157576Y-92176811D01*
X156959574Y-92069658D01*
X156959572Y-92069657D01*
X156959571Y-92069656D01*
X156746639Y-91996557D01*
X156746630Y-91996555D01*
X156702476Y-91989187D01*
X156524569Y-91959500D01*
X156299431Y-91959500D01*
X156151211Y-91984233D01*
X156077369Y-91996555D01*
X156077360Y-91996557D01*
X155864428Y-92069656D01*
X155864426Y-92069658D01*
X155666426Y-92176810D01*
X155666424Y-92176811D01*
X155488762Y-92315091D01*
X155336279Y-92480729D01*
X155247483Y-92616643D01*
X155193479Y-92662731D01*
X155123131Y-92672306D01*
X155058774Y-92642329D01*
X155036517Y-92616643D01*
X154947720Y-92480729D01*
X154795237Y-92315091D01*
X154675367Y-92221792D01*
X154617576Y-92176811D01*
X154419574Y-92069658D01*
X154419572Y-92069657D01*
X154419571Y-92069656D01*
X154206639Y-91996557D01*
X154206630Y-91996555D01*
X154162476Y-91989187D01*
X153984569Y-91959500D01*
X153759431Y-91959500D01*
X153611211Y-91984233D01*
X153537369Y-91996555D01*
X153537360Y-91996557D01*
X153324428Y-92069656D01*
X153324426Y-92069658D01*
X153126426Y-92176810D01*
X153126424Y-92176811D01*
X152948762Y-92315091D01*
X152796279Y-92480729D01*
X152707483Y-92616643D01*
X152653479Y-92662731D01*
X152583131Y-92672306D01*
X152518774Y-92642329D01*
X152496517Y-92616643D01*
X152407720Y-92480729D01*
X152255237Y-92315091D01*
X152135367Y-92221792D01*
X152077576Y-92176811D01*
X151879574Y-92069658D01*
X151879572Y-92069657D01*
X151879571Y-92069656D01*
X151666639Y-91996557D01*
X151666630Y-91996555D01*
X151622476Y-91989187D01*
X151444569Y-91959500D01*
X151219431Y-91959500D01*
X151071211Y-91984233D01*
X150997369Y-91996555D01*
X150997360Y-91996557D01*
X150784428Y-92069656D01*
X150784426Y-92069658D01*
X150586426Y-92176810D01*
X150586424Y-92176811D01*
X150408762Y-92315091D01*
X150256279Y-92480729D01*
X150256275Y-92480734D01*
X150133141Y-92669206D01*
X150042703Y-92875386D01*
X150042702Y-92875387D01*
X149987437Y-93093624D01*
X149987436Y-93093630D01*
X149987436Y-93093632D01*
X149968844Y-93318000D01*
X149987436Y-93542368D01*
X149987436Y-93542370D01*
X149987437Y-93542375D01*
X150042702Y-93760612D01*
X150042703Y-93760613D01*
X150042704Y-93760616D01*
X150048718Y-93774326D01*
X150133141Y-93966793D01*
X150256275Y-94155265D01*
X150256279Y-94155270D01*
X150408762Y-94320908D01*
X150463331Y-94363381D01*
X150586424Y-94459189D01*
X150619680Y-94477186D01*
X150670071Y-94527200D01*
X150685423Y-94596516D01*
X150660862Y-94663129D01*
X150619680Y-94698813D01*
X150586426Y-94716810D01*
X150586424Y-94716811D01*
X150408762Y-94855091D01*
X150256279Y-95020729D01*
X150167483Y-95156643D01*
X150113479Y-95202731D01*
X150043131Y-95212306D01*
X149978774Y-95182329D01*
X149956517Y-95156643D01*
X149867720Y-95020729D01*
X149715237Y-94855091D01*
X149607007Y-94770852D01*
X149537576Y-94716811D01*
X149339574Y-94609658D01*
X149339572Y-94609657D01*
X149339571Y-94609656D01*
X149126639Y-94536557D01*
X149126630Y-94536555D01*
X149070567Y-94527200D01*
X148904569Y-94499500D01*
X148679431Y-94499500D01*
X148531211Y-94524233D01*
X148457369Y-94536555D01*
X148457360Y-94536557D01*
X148244428Y-94609656D01*
X148244426Y-94609658D01*
X148046432Y-94716807D01*
X148046426Y-94716810D01*
X148046424Y-94716811D01*
X147868762Y-94855091D01*
X147716279Y-95020729D01*
X147627483Y-95156643D01*
X147573479Y-95202731D01*
X147503131Y-95212306D01*
X147438774Y-95182329D01*
X147416517Y-95156643D01*
X147327720Y-95020729D01*
X147175237Y-94855091D01*
X147067007Y-94770852D01*
X146997576Y-94716811D01*
X146964319Y-94698813D01*
X146913929Y-94648802D01*
X146898576Y-94579485D01*
X146923136Y-94512872D01*
X146964320Y-94477186D01*
X146997576Y-94459189D01*
X147175240Y-94320906D01*
X147327722Y-94155268D01*
X147450860Y-93966791D01*
X147541296Y-93760616D01*
X147596564Y-93542368D01*
X147615156Y-93318000D01*
X147596564Y-93093632D01*
X147550917Y-92913375D01*
X147541297Y-92875387D01*
X147541296Y-92875386D01*
X147541296Y-92875384D01*
X147450860Y-92669209D01*
X147437083Y-92648122D01*
X147327724Y-92480734D01*
X147327720Y-92480729D01*
X147175237Y-92315091D01*
X147055367Y-92221792D01*
X146997576Y-92176811D01*
X146799574Y-92069658D01*
X146799572Y-92069657D01*
X146799571Y-92069656D01*
X146586639Y-91996557D01*
X146586630Y-91996555D01*
X146542476Y-91989187D01*
X146364569Y-91959500D01*
X146139431Y-91959500D01*
X145991211Y-91984233D01*
X145917369Y-91996555D01*
X145917360Y-91996557D01*
X145704428Y-92069656D01*
X145704426Y-92069658D01*
X145506426Y-92176810D01*
X145506424Y-92176811D01*
X145328762Y-92315091D01*
X145176279Y-92480729D01*
X145087483Y-92616643D01*
X145033479Y-92662731D01*
X144963131Y-92672306D01*
X144898774Y-92642329D01*
X144876517Y-92616643D01*
X144787720Y-92480729D01*
X144635237Y-92315091D01*
X144515367Y-92221792D01*
X144457576Y-92176811D01*
X144259574Y-92069658D01*
X144259572Y-92069657D01*
X144259571Y-92069656D01*
X144046639Y-91996557D01*
X144046630Y-91996555D01*
X144002476Y-91989187D01*
X143824569Y-91959500D01*
X143599431Y-91959500D01*
X143451211Y-91984233D01*
X143377369Y-91996555D01*
X143377360Y-91996557D01*
X143164428Y-92069656D01*
X143164426Y-92069658D01*
X142966426Y-92176810D01*
X142966424Y-92176811D01*
X142788762Y-92315091D01*
X142636279Y-92480729D01*
X142636275Y-92480734D01*
X142513141Y-92669206D01*
X142422703Y-92875386D01*
X142422702Y-92875387D01*
X142367437Y-93093624D01*
X142367436Y-93093630D01*
X142367436Y-93093632D01*
X142348844Y-93318000D01*
X142367436Y-93542368D01*
X142367436Y-93542370D01*
X142367437Y-93542375D01*
X142422702Y-93760612D01*
X142422703Y-93760613D01*
X142422704Y-93760616D01*
X142428718Y-93774326D01*
X142513141Y-93966793D01*
X142636275Y-94155265D01*
X142636279Y-94155270D01*
X142788762Y-94320908D01*
X142843331Y-94363381D01*
X142966424Y-94459189D01*
X142999680Y-94477186D01*
X143050071Y-94527200D01*
X143065423Y-94596516D01*
X143040862Y-94663129D01*
X142999680Y-94698813D01*
X142966426Y-94716810D01*
X142966424Y-94716811D01*
X142788762Y-94855091D01*
X142636279Y-95020729D01*
X142547483Y-95156643D01*
X142493479Y-95202731D01*
X142423131Y-95212306D01*
X142358774Y-95182329D01*
X142336517Y-95156643D01*
X142247720Y-95020729D01*
X142095237Y-94855091D01*
X141987007Y-94770852D01*
X141917576Y-94716811D01*
X141719574Y-94609658D01*
X141719572Y-94609657D01*
X141719571Y-94609656D01*
X141506639Y-94536557D01*
X141506630Y-94536555D01*
X141450567Y-94527200D01*
X141284569Y-94499500D01*
X141059431Y-94499500D01*
X140911211Y-94524233D01*
X140837369Y-94536555D01*
X140837360Y-94536557D01*
X140624428Y-94609656D01*
X140624426Y-94609658D01*
X140426432Y-94716807D01*
X140426426Y-94716810D01*
X140426424Y-94716811D01*
X140248762Y-94855091D01*
X140096279Y-95020729D01*
X140007483Y-95156643D01*
X139953479Y-95202731D01*
X139883131Y-95212306D01*
X139818774Y-95182329D01*
X139796517Y-95156643D01*
X139707720Y-95020729D01*
X139555237Y-94855091D01*
X139447007Y-94770852D01*
X139377576Y-94716811D01*
X139344319Y-94698813D01*
X139293929Y-94648802D01*
X139278576Y-94579485D01*
X139303136Y-94512872D01*
X139344320Y-94477186D01*
X139377576Y-94459189D01*
X139555240Y-94320906D01*
X139707722Y-94155268D01*
X139830860Y-93966791D01*
X139921296Y-93760616D01*
X139976564Y-93542368D01*
X139995156Y-93318000D01*
X139976564Y-93093632D01*
X139930917Y-92913375D01*
X139921297Y-92875387D01*
X139921296Y-92875386D01*
X139921296Y-92875384D01*
X139830860Y-92669209D01*
X139817083Y-92648122D01*
X139707724Y-92480734D01*
X139707720Y-92480729D01*
X139555237Y-92315091D01*
X139435367Y-92221792D01*
X139377576Y-92176811D01*
X139179574Y-92069658D01*
X139179572Y-92069657D01*
X139179571Y-92069656D01*
X138966639Y-91996557D01*
X138966630Y-91996555D01*
X138922476Y-91989187D01*
X138744569Y-91959500D01*
X138519431Y-91959500D01*
X138371211Y-91984233D01*
X138297369Y-91996555D01*
X138297360Y-91996557D01*
X138084428Y-92069656D01*
X138084426Y-92069658D01*
X137886426Y-92176810D01*
X137886424Y-92176811D01*
X137708762Y-92315091D01*
X137556279Y-92480729D01*
X137467483Y-92616643D01*
X137413479Y-92662731D01*
X137343131Y-92672306D01*
X137278774Y-92642329D01*
X137256517Y-92616643D01*
X137167720Y-92480729D01*
X137015237Y-92315091D01*
X136895367Y-92221792D01*
X136837576Y-92176811D01*
X136639574Y-92069658D01*
X136639572Y-92069657D01*
X136639571Y-92069656D01*
X136426639Y-91996557D01*
X136426630Y-91996555D01*
X136382476Y-91989187D01*
X136204569Y-91959500D01*
X135979431Y-91959500D01*
X135831211Y-91984233D01*
X135757369Y-91996555D01*
X135757360Y-91996557D01*
X135544428Y-92069656D01*
X135544426Y-92069658D01*
X135346426Y-92176810D01*
X135346424Y-92176811D01*
X135168762Y-92315091D01*
X135016279Y-92480729D01*
X134927483Y-92616643D01*
X134873479Y-92662731D01*
X134803131Y-92672306D01*
X134738774Y-92642329D01*
X134716517Y-92616643D01*
X134627720Y-92480729D01*
X134475237Y-92315091D01*
X134355367Y-92221792D01*
X134297576Y-92176811D01*
X134099574Y-92069658D01*
X134099572Y-92069657D01*
X134099571Y-92069656D01*
X133886639Y-91996557D01*
X133886630Y-91996555D01*
X133842476Y-91989187D01*
X133664569Y-91959500D01*
X133439431Y-91959500D01*
X133291211Y-91984233D01*
X133217369Y-91996555D01*
X133217360Y-91996557D01*
X133004428Y-92069656D01*
X133004426Y-92069658D01*
X132806426Y-92176810D01*
X132806424Y-92176811D01*
X132628762Y-92315091D01*
X132476279Y-92480729D01*
X132476275Y-92480734D01*
X132353141Y-92669206D01*
X132262703Y-92875386D01*
X132262702Y-92875387D01*
X132207437Y-93093624D01*
X132207436Y-93093630D01*
X132207436Y-93093632D01*
X132200141Y-93181665D01*
X132188844Y-93318000D01*
X132207436Y-93542369D01*
X132235182Y-93651935D01*
X132232514Y-93722882D01*
X132202133Y-93771961D01*
X131973167Y-94000929D01*
X131884927Y-94089169D01*
X131884926Y-94089171D01*
X131815601Y-94192923D01*
X131780692Y-94277201D01*
X131767845Y-94308215D01*
X131758028Y-94357568D01*
X131743500Y-94430603D01*
X131743500Y-94497738D01*
X131723498Y-94565859D01*
X131669842Y-94612352D01*
X131599568Y-94622456D01*
X131564705Y-94610928D01*
X131564345Y-94611751D01*
X131559571Y-94609656D01*
X131346639Y-94536557D01*
X131346630Y-94536555D01*
X131290567Y-94527200D01*
X131124569Y-94499500D01*
X130899431Y-94499500D01*
X130751211Y-94524233D01*
X130677369Y-94536555D01*
X130677360Y-94536557D01*
X130464428Y-94609656D01*
X130464426Y-94609658D01*
X130266432Y-94716807D01*
X130266426Y-94716810D01*
X130266424Y-94716811D01*
X130088762Y-94855091D01*
X129936279Y-95020729D01*
X129847483Y-95156643D01*
X129793479Y-95202731D01*
X129723131Y-95212306D01*
X129658774Y-95182329D01*
X129636517Y-95156643D01*
X129547720Y-95020729D01*
X129404524Y-94865179D01*
X129373103Y-94801514D01*
X129381090Y-94730968D01*
X129425948Y-94675939D01*
X129453183Y-94661789D01*
X129568204Y-94618889D01*
X129571782Y-94616211D01*
X129685261Y-94531261D01*
X129772887Y-94414207D01*
X129772887Y-94414206D01*
X129772889Y-94414204D01*
X129823989Y-94277201D01*
X129830500Y-94216638D01*
X129830500Y-92419362D01*
X129829550Y-92410525D01*
X129823990Y-92358803D01*
X129823988Y-92358795D01*
X129772889Y-92221797D01*
X129772887Y-92221792D01*
X129685261Y-92104738D01*
X129568207Y-92017112D01*
X129568202Y-92017110D01*
X129431204Y-91966011D01*
X129431196Y-91966009D01*
X129370649Y-91959500D01*
X129370638Y-91959500D01*
X127573362Y-91959500D01*
X127573350Y-91959500D01*
X127512803Y-91966009D01*
X127512795Y-91966011D01*
X127375797Y-92017110D01*
X127375792Y-92017112D01*
X127277509Y-92090687D01*
X127210989Y-92115498D01*
X127141615Y-92100407D01*
X127126491Y-92090687D01*
X127028207Y-92017112D01*
X127028202Y-92017110D01*
X126891204Y-91966011D01*
X126891196Y-91966009D01*
X126830649Y-91959500D01*
X126830638Y-91959500D01*
X125033362Y-91959500D01*
X125033350Y-91959500D01*
X124972803Y-91966009D01*
X124972795Y-91966011D01*
X124835797Y-92017110D01*
X124835792Y-92017112D01*
X124718738Y-92104738D01*
X124631112Y-92221792D01*
X124631110Y-92221797D01*
X124580011Y-92358795D01*
X124580009Y-92358803D01*
X124573500Y-92419350D01*
X124573500Y-94216649D01*
X124580009Y-94277196D01*
X124580011Y-94277204D01*
X124631110Y-94414202D01*
X124631112Y-94414207D01*
X124718738Y-94531261D01*
X124835791Y-94618886D01*
X124835792Y-94618886D01*
X124835796Y-94618889D01*
X124950810Y-94661787D01*
X125007642Y-94704332D01*
X125032453Y-94770852D01*
X125017362Y-94840226D01*
X124999475Y-94865179D01*
X124856280Y-95020729D01*
X124856275Y-95020734D01*
X124733141Y-95209206D01*
X124642703Y-95415386D01*
X124642702Y-95415387D01*
X124587437Y-95633624D01*
X124568844Y-95858000D01*
X118032500Y-95858000D01*
X118032500Y-94071805D01*
X118032730Y-94064198D01*
X118048432Y-93804606D01*
X118050264Y-93774313D01*
X118052095Y-93759236D01*
X118103759Y-93477313D01*
X118107392Y-93462573D01*
X118192665Y-93188922D01*
X118198052Y-93174721D01*
X118315678Y-92913366D01*
X118322736Y-92899916D01*
X118471021Y-92654624D01*
X118479637Y-92642140D01*
X118656411Y-92416505D01*
X118666479Y-92405142D01*
X118869142Y-92202479D01*
X118880505Y-92192411D01*
X119106140Y-92015637D01*
X119118624Y-92007021D01*
X119363916Y-91858736D01*
X119377366Y-91851678D01*
X119638721Y-91734052D01*
X119652922Y-91728665D01*
X119926573Y-91643392D01*
X119941313Y-91639759D01*
X120223236Y-91588095D01*
X120238313Y-91586264D01*
X120500890Y-91570381D01*
X120528199Y-91568730D01*
X120535806Y-91568500D01*
X120597892Y-91568500D01*
X179466108Y-91568500D01*
X179528194Y-91568500D01*
X179535801Y-91568730D01*
G37*
G04 #@! TD.AperFunction*
M02*
