M48
; DRILL file {KiCad 8.0.6} date 2024-11-11T12:49:24-0800
; FORMAT={-:-/ absolute / inch / decimal}
; #@! TF.CreationDate,2024-11-11T12:49:24-08:00
; #@! TF.GenerationSoftware,Kicad,Pcbnew,8.0.6
; #@! TF.FileFunction,Plated,1,2,PTH
FMAT,2
INCH
; #@! TA.AperFunction,Plated,PTH,ViaDrill
T1C0.0157
; #@! TA.AperFunction,Plated,PTH,ComponentDrill
T2C0.0394
%
G90
G05
T1
X5.7099Y-4.2271
X5.8477Y-4.2743
X5.9666Y-3.8964
X6.0099Y-4.1247
X6.0367Y-4.4161
X6.1981Y-4.3649
X6.2729Y-3.9161
T2
X4.7926Y-3.9696
X4.7926Y-4.0696
X4.958Y-3.6739
X4.958Y-3.7739
X5.058Y-3.6739
X5.058Y-3.7739
X5.158Y-3.6739
X5.158Y-3.7739
X5.258Y-3.6739
X5.258Y-3.7739
X5.358Y-3.6739
X5.358Y-3.7739
X5.458Y-3.6739
X5.458Y-3.7739
X5.558Y-3.6739
X5.558Y-3.7739
X5.6538Y-4.0578
X5.658Y-3.6739
X5.658Y-3.7739
X5.7538Y-4.0578
X5.758Y-3.6739
X5.758Y-3.7739
X5.858Y-3.6739
X5.858Y-3.7739
X5.958Y-3.6739
X5.958Y-3.7739
X6.058Y-3.6739
X6.058Y-3.7739
X6.158Y-3.6739
X6.158Y-3.7739
X6.258Y-3.6739
X6.258Y-3.7739
X6.358Y-3.6739
X6.358Y-3.7739
X6.458Y-3.6739
X6.458Y-3.7739
X6.558Y-3.6739
X6.558Y-3.7739
X6.658Y-3.6739
X6.658Y-3.7739
X6.758Y-3.6739
X6.758Y-3.7739
X6.858Y-3.6739
X6.858Y-3.7739
X6.9894Y-3.9495
X6.9894Y-4.0873
M30
