G04 #@! TF.GenerationSoftware,KiCad,Pcbnew,8.0.7*
G04 #@! TF.CreationDate,2025-01-02T15:08:57-08:00*
G04 #@! TF.ProjectId,pi-zero-serial-hat,70692d7a-6572-46f2-9d73-657269616c2d,1.0*
G04 #@! TF.SameCoordinates,Original*
G04 #@! TF.FileFunction,Legend,Top*
G04 #@! TF.FilePolarity,Positive*
%FSLAX46Y46*%
G04 Gerber Fmt 4.6, Leading zero omitted, Abs format (unit mm)*
G04 Created by KiCad (PCBNEW 8.0.7) date 2025-01-02 15:08:57*
%MOMM*%
%LPD*%
G01*
G04 APERTURE LIST*
%ADD10C,0.150000*%
%ADD11C,0.120000*%
%ADD12C,0.127000*%
%ADD13C,0.200000*%
G04 APERTURE END LIST*
D10*
G36*
X181706850Y-113704633D02*
G01*
X180236215Y-113704633D01*
X180236215Y-113350268D01*
X180325104Y-113350268D01*
X180325104Y-113540744D01*
X180326545Y-113555376D01*
X180337744Y-113582412D01*
X180358436Y-113603104D01*
X180385472Y-113614303D01*
X180400104Y-113615744D01*
X181542961Y-113615744D01*
X181557593Y-113614303D01*
X181584629Y-113603104D01*
X181605321Y-113582412D01*
X181616520Y-113555376D01*
X181617961Y-113540744D01*
X181617961Y-113350268D01*
X181616520Y-113335636D01*
X181605321Y-113308600D01*
X181584629Y-113287908D01*
X181557593Y-113276709D01*
X181528329Y-113276709D01*
X181501293Y-113287908D01*
X181480601Y-113308600D01*
X181469402Y-113335636D01*
X181467961Y-113350268D01*
X181467961Y-113465744D01*
X180475104Y-113465744D01*
X180475104Y-113350268D01*
X180473663Y-113335636D01*
X180462464Y-113308600D01*
X180441772Y-113287908D01*
X180414736Y-113276709D01*
X180385472Y-113276709D01*
X180358436Y-113287908D01*
X180337744Y-113308600D01*
X180326545Y-113335636D01*
X180325104Y-113350268D01*
X180236215Y-113350268D01*
X180236215Y-112726112D01*
X180593212Y-112726112D01*
X180593212Y-112755376D01*
X180604411Y-112782412D01*
X180625103Y-112803104D01*
X180652139Y-112814303D01*
X180666771Y-112815744D01*
X180896533Y-112815744D01*
X180896533Y-113045506D01*
X180897974Y-113060138D01*
X180909173Y-113087174D01*
X180929865Y-113107866D01*
X180956901Y-113119065D01*
X180986165Y-113119065D01*
X181013201Y-113107866D01*
X181033893Y-113087174D01*
X181045092Y-113060138D01*
X181046533Y-113045506D01*
X181046533Y-112815744D01*
X181276295Y-112815744D01*
X181290927Y-112814303D01*
X181317963Y-112803104D01*
X181338655Y-112782412D01*
X181349854Y-112755376D01*
X181349854Y-112726112D01*
X181338655Y-112699076D01*
X181317963Y-112678384D01*
X181290927Y-112667185D01*
X181276295Y-112665744D01*
X181046533Y-112665744D01*
X181046533Y-112435983D01*
X181045092Y-112421351D01*
X181033893Y-112394315D01*
X181013201Y-112373623D01*
X180986165Y-112362424D01*
X180956901Y-112362424D01*
X180929865Y-112373623D01*
X180909173Y-112394315D01*
X180897974Y-112421351D01*
X180896533Y-112435983D01*
X180896533Y-112665744D01*
X180666771Y-112665744D01*
X180652139Y-112667185D01*
X180625103Y-112678384D01*
X180604411Y-112699076D01*
X180593212Y-112726112D01*
X180236215Y-112726112D01*
X180236215Y-111788364D01*
X180401295Y-111788364D01*
X180401295Y-111978840D01*
X180402736Y-111993472D01*
X180403767Y-111995961D01*
X180403958Y-111998649D01*
X180409213Y-112012381D01*
X180447308Y-112088571D01*
X180451271Y-112094867D01*
X180452029Y-112096697D01*
X180453718Y-112098755D01*
X180455140Y-112101014D01*
X180456638Y-112102313D01*
X180461356Y-112108062D01*
X180499451Y-112146158D01*
X180510816Y-112155486D01*
X180537852Y-112166685D01*
X180567115Y-112166685D01*
X180594152Y-112155487D01*
X180614845Y-112134794D01*
X180626044Y-112107758D01*
X180626044Y-112078495D01*
X180614846Y-112051459D01*
X180605519Y-112040094D01*
X180576029Y-112010603D01*
X180551295Y-111961135D01*
X180551295Y-111806068D01*
X180576029Y-111756599D01*
X180596911Y-111735717D01*
X180646381Y-111710983D01*
X180692696Y-111710983D01*
X180778638Y-111739630D01*
X181223262Y-112184254D01*
X181234627Y-112193582D01*
X181253744Y-112201500D01*
X181261663Y-112204780D01*
X181261664Y-112204780D01*
X181290927Y-112204780D01*
X181317963Y-112193582D01*
X181338656Y-112172889D01*
X181349854Y-112145853D01*
X181351295Y-112131221D01*
X181351295Y-111635983D01*
X181349854Y-111621351D01*
X181338655Y-111594315D01*
X181317963Y-111573623D01*
X181290927Y-111562424D01*
X181261663Y-111562424D01*
X181234627Y-111573623D01*
X181213935Y-111594315D01*
X181202736Y-111621351D01*
X181201295Y-111635983D01*
X181201295Y-111950155D01*
X180872185Y-111621045D01*
X180860820Y-111611718D01*
X180858329Y-111610686D01*
X180856294Y-111608921D01*
X180842869Y-111602927D01*
X180728583Y-111564832D01*
X180721329Y-111563182D01*
X180719498Y-111562424D01*
X180716843Y-111562162D01*
X180714246Y-111561572D01*
X180712271Y-111561712D01*
X180704866Y-111560983D01*
X180628676Y-111560983D01*
X180614044Y-111562424D01*
X180611554Y-111563455D01*
X180608867Y-111563646D01*
X180595135Y-111568901D01*
X180518944Y-111606996D01*
X180512644Y-111610960D01*
X180510817Y-111611718D01*
X180508760Y-111613406D01*
X180506501Y-111614828D01*
X180505201Y-111616326D01*
X180499452Y-111621045D01*
X180461357Y-111659140D01*
X180456638Y-111664889D01*
X180455140Y-111666189D01*
X180453718Y-111668448D01*
X180452030Y-111670505D01*
X180451272Y-111672332D01*
X180447308Y-111678632D01*
X180409213Y-111754823D01*
X180403958Y-111768555D01*
X180403767Y-111771242D01*
X180402736Y-111773732D01*
X180401295Y-111788364D01*
X180236215Y-111788364D01*
X180236215Y-111131364D01*
X180363789Y-111131364D01*
X180365863Y-111160554D01*
X180378950Y-111186727D01*
X180401057Y-111205901D01*
X180414483Y-111211895D01*
X180985911Y-111402372D01*
X180993165Y-111404021D01*
X180994996Y-111404780D01*
X180996500Y-111404780D01*
X181000247Y-111405632D01*
X181012232Y-111404780D01*
X181024260Y-111404780D01*
X181026751Y-111403747D01*
X181029437Y-111403557D01*
X181040184Y-111398183D01*
X181051296Y-111393581D01*
X181053201Y-111391675D01*
X181055611Y-111390471D01*
X181063488Y-111381388D01*
X181071988Y-111372889D01*
X181073018Y-111370400D01*
X181074785Y-111368364D01*
X181078586Y-111356960D01*
X181083187Y-111345853D01*
X181083563Y-111342026D01*
X181084039Y-111340601D01*
X181083898Y-111338626D01*
X181084628Y-111331221D01*
X181084628Y-111025268D01*
X181276295Y-111025268D01*
X181290927Y-111023827D01*
X181317963Y-111012628D01*
X181338655Y-110991936D01*
X181349854Y-110964900D01*
X181349854Y-110935636D01*
X181338655Y-110908600D01*
X181317963Y-110887908D01*
X181290927Y-110876709D01*
X181276295Y-110875268D01*
X181084628Y-110875268D01*
X181084628Y-110835982D01*
X181083187Y-110821350D01*
X181071988Y-110794314D01*
X181051296Y-110773622D01*
X181024260Y-110762423D01*
X180994996Y-110762423D01*
X180967960Y-110773622D01*
X180947268Y-110794314D01*
X180936069Y-110821350D01*
X180934628Y-110835982D01*
X180934628Y-110875268D01*
X180742961Y-110875268D01*
X180728329Y-110876709D01*
X180701293Y-110887908D01*
X180680601Y-110908600D01*
X180669402Y-110935636D01*
X180669402Y-110964900D01*
X180680601Y-110991936D01*
X180701293Y-111012628D01*
X180728329Y-111023827D01*
X180742961Y-111025268D01*
X180934628Y-111025268D01*
X180934628Y-111227164D01*
X180461917Y-111069593D01*
X180447580Y-111066333D01*
X180418390Y-111068407D01*
X180392217Y-111081494D01*
X180373043Y-111103601D01*
X180363789Y-111131364D01*
X180236215Y-111131364D01*
X180236215Y-110215497D01*
X180668766Y-110215497D01*
X180670219Y-110244724D01*
X180682747Y-110271171D01*
X180704441Y-110290810D01*
X180717736Y-110297089D01*
X181053302Y-110416934D01*
X180717736Y-110536780D01*
X180704441Y-110543059D01*
X180682747Y-110562698D01*
X180670220Y-110589144D01*
X180668766Y-110618372D01*
X180678609Y-110645931D01*
X180698248Y-110667625D01*
X180724694Y-110680152D01*
X180753922Y-110681606D01*
X180768186Y-110678042D01*
X181301520Y-110487566D01*
X181314815Y-110481287D01*
X181317606Y-110478759D01*
X181321007Y-110477149D01*
X181328369Y-110469016D01*
X181336509Y-110461648D01*
X181338120Y-110458245D01*
X181340647Y-110455455D01*
X181344338Y-110445117D01*
X181349036Y-110435202D01*
X181349222Y-110431443D01*
X181350490Y-110427896D01*
X181349944Y-110416935D01*
X181350490Y-110405974D01*
X181349222Y-110402426D01*
X181349036Y-110398668D01*
X181344338Y-110388752D01*
X181340647Y-110378415D01*
X181338120Y-110375624D01*
X181336509Y-110372222D01*
X181328373Y-110364856D01*
X181321008Y-110356721D01*
X181317605Y-110355109D01*
X181314815Y-110352583D01*
X181301520Y-110346304D01*
X180768186Y-110155827D01*
X180753922Y-110152263D01*
X180724695Y-110153716D01*
X180698248Y-110166244D01*
X180678609Y-110187938D01*
X180668766Y-110215497D01*
X180236215Y-110215497D01*
X180236215Y-109807411D01*
X180325104Y-109807411D01*
X180325104Y-109997887D01*
X180326545Y-110012519D01*
X180337744Y-110039555D01*
X180358436Y-110060247D01*
X180385472Y-110071446D01*
X180414736Y-110071446D01*
X180441772Y-110060247D01*
X180462464Y-110039555D01*
X180473663Y-110012519D01*
X180475104Y-109997887D01*
X180475104Y-109882411D01*
X181467961Y-109882411D01*
X181467961Y-109997887D01*
X181469402Y-110012519D01*
X181480601Y-110039555D01*
X181501293Y-110060247D01*
X181528329Y-110071446D01*
X181557593Y-110071446D01*
X181584629Y-110060247D01*
X181605321Y-110039555D01*
X181616520Y-110012519D01*
X181617961Y-109997887D01*
X181617961Y-109807411D01*
X181616520Y-109792779D01*
X181605321Y-109765743D01*
X181584629Y-109745051D01*
X181557593Y-109733852D01*
X181542961Y-109732411D01*
X180400104Y-109732411D01*
X180385472Y-109733852D01*
X180358436Y-109745051D01*
X180337744Y-109765743D01*
X180326545Y-109792779D01*
X180325104Y-109807411D01*
X180236215Y-109807411D01*
X180236215Y-109643522D01*
X181706850Y-109643522D01*
X181706850Y-113704633D01*
G37*
G36*
X160963763Y-108647077D02*
G01*
X160994170Y-108677484D01*
X161028428Y-108746000D01*
X161028428Y-108853447D01*
X160994170Y-108921963D01*
X160963763Y-108952370D01*
X160895247Y-108986628D01*
X160607000Y-108986628D01*
X160607000Y-108612819D01*
X160895247Y-108612819D01*
X160963763Y-108647077D01*
G37*
G36*
X163003825Y-110057263D02*
G01*
X158060174Y-110057263D01*
X158060174Y-108442580D01*
X158171285Y-108442580D01*
X158171285Y-109871152D01*
X158172726Y-109885784D01*
X158183925Y-109912820D01*
X158204617Y-109933512D01*
X158231653Y-109944711D01*
X158246285Y-109946152D01*
X158484380Y-109946152D01*
X158499012Y-109944711D01*
X158526048Y-109933512D01*
X158546740Y-109912820D01*
X158557939Y-109885784D01*
X158557939Y-109856520D01*
X158546740Y-109829484D01*
X158526048Y-109808792D01*
X158499012Y-109797593D01*
X158484380Y-109796152D01*
X158321285Y-109796152D01*
X158321285Y-108523187D01*
X158648917Y-108523187D01*
X158648917Y-108552451D01*
X158660116Y-108579487D01*
X158680808Y-108600179D01*
X158707844Y-108611378D01*
X158722476Y-108612819D01*
X158933190Y-108612819D01*
X158933190Y-109537819D01*
X158934631Y-109552451D01*
X158945830Y-109579487D01*
X158966522Y-109600179D01*
X158993558Y-109611378D01*
X159022822Y-109611378D01*
X159049858Y-109600179D01*
X159070550Y-109579487D01*
X159081749Y-109552451D01*
X159083190Y-109537819D01*
X159083190Y-108612819D01*
X159293904Y-108612819D01*
X159308536Y-108611378D01*
X159335572Y-108600179D01*
X159356264Y-108579487D01*
X159367463Y-108552451D01*
X159367463Y-108537819D01*
X159552238Y-108537819D01*
X159552238Y-109537819D01*
X159553679Y-109552451D01*
X159564878Y-109579487D01*
X159585570Y-109600179D01*
X159612606Y-109611378D01*
X159627238Y-109612819D01*
X160103428Y-109612819D01*
X160118060Y-109611378D01*
X160145096Y-109600179D01*
X160165788Y-109579487D01*
X160176987Y-109552451D01*
X160176987Y-109523187D01*
X160165788Y-109496151D01*
X160145096Y-109475459D01*
X160118060Y-109464260D01*
X160103428Y-109462819D01*
X159702238Y-109462819D01*
X159702238Y-109089009D01*
X159960571Y-109089009D01*
X159975203Y-109087568D01*
X160002239Y-109076369D01*
X160022931Y-109055677D01*
X160034130Y-109028641D01*
X160034130Y-108999377D01*
X160022931Y-108972341D01*
X160002239Y-108951649D01*
X159975203Y-108940450D01*
X159960571Y-108939009D01*
X159702238Y-108939009D01*
X159702238Y-108612819D01*
X160103428Y-108612819D01*
X160118060Y-108611378D01*
X160145096Y-108600179D01*
X160165788Y-108579487D01*
X160176987Y-108552451D01*
X160176987Y-108537819D01*
X160457000Y-108537819D01*
X160457000Y-109537819D01*
X160458441Y-109552451D01*
X160469640Y-109579487D01*
X160490332Y-109600179D01*
X160517368Y-109611378D01*
X160546632Y-109611378D01*
X160573668Y-109600179D01*
X160594360Y-109579487D01*
X160605559Y-109552451D01*
X160607000Y-109537819D01*
X160607000Y-109136628D01*
X160731046Y-109136628D01*
X161041986Y-109580829D01*
X161051557Y-109591989D01*
X161076236Y-109607716D01*
X161105053Y-109612802D01*
X161133624Y-109606472D01*
X161157598Y-109589690D01*
X161173325Y-109565012D01*
X161178410Y-109536194D01*
X161172081Y-109507623D01*
X161164871Y-109494810D01*
X160914067Y-109136518D01*
X160927584Y-109135187D01*
X160930073Y-109134155D01*
X160932761Y-109133965D01*
X160946493Y-109128710D01*
X161041731Y-109081091D01*
X161048030Y-109077126D01*
X161049858Y-109076369D01*
X161051914Y-109074680D01*
X161054174Y-109073259D01*
X161055473Y-109071760D01*
X161061223Y-109067042D01*
X161108842Y-109019423D01*
X161113560Y-109013673D01*
X161115059Y-109012374D01*
X161116480Y-109010114D01*
X161118169Y-109008058D01*
X161118926Y-109006230D01*
X161122891Y-108999931D01*
X161170510Y-108904693D01*
X161175765Y-108890962D01*
X161175956Y-108888272D01*
X161176987Y-108885784D01*
X161178428Y-108871152D01*
X161178428Y-108728295D01*
X161176987Y-108713663D01*
X161175956Y-108711174D01*
X161175765Y-108708485D01*
X161170510Y-108694754D01*
X161122891Y-108599516D01*
X161118926Y-108593216D01*
X161118169Y-108591389D01*
X161116480Y-108589332D01*
X161115059Y-108587073D01*
X161113560Y-108585773D01*
X161108842Y-108580024D01*
X161066637Y-108537819D01*
X161457000Y-108537819D01*
X161457000Y-109537819D01*
X161458441Y-109552451D01*
X161469640Y-109579487D01*
X161490332Y-109600179D01*
X161517368Y-109611378D01*
X161546632Y-109611378D01*
X161573668Y-109600179D01*
X161594360Y-109579487D01*
X161605559Y-109552451D01*
X161607000Y-109537819D01*
X161607000Y-108875886D01*
X161797369Y-109283821D01*
X161800543Y-109289180D01*
X161801203Y-109290993D01*
X161802377Y-109292275D01*
X161804863Y-109296471D01*
X161813272Y-109304171D01*
X161820967Y-109312574D01*
X161823985Y-109313982D01*
X161826444Y-109316234D01*
X161837156Y-109320129D01*
X161847485Y-109324950D01*
X161850813Y-109325096D01*
X161853945Y-109326235D01*
X161865339Y-109325734D01*
X161876721Y-109326234D01*
X161879849Y-109325096D01*
X161883181Y-109324950D01*
X161893516Y-109320126D01*
X161904222Y-109316234D01*
X161906677Y-109313984D01*
X161909699Y-109312575D01*
X161917400Y-109304164D01*
X161925803Y-109296470D01*
X161928286Y-109292277D01*
X161929463Y-109290993D01*
X161930123Y-109289177D01*
X161933297Y-109283820D01*
X162123666Y-108875886D01*
X162123666Y-109537819D01*
X162125107Y-109552451D01*
X162136306Y-109579487D01*
X162156998Y-109600179D01*
X162184034Y-109611378D01*
X162213298Y-109611378D01*
X162240334Y-109600179D01*
X162261026Y-109579487D01*
X162272225Y-109552451D01*
X162273666Y-109537819D01*
X162273666Y-108537819D01*
X162272718Y-108528197D01*
X162272796Y-108526431D01*
X162272451Y-108525482D01*
X162272225Y-108523187D01*
X162267243Y-108511160D01*
X162262796Y-108498930D01*
X162261666Y-108497696D01*
X162261026Y-108496151D01*
X162251826Y-108486951D01*
X162243032Y-108477348D01*
X162241515Y-108476640D01*
X162240334Y-108475459D01*
X162228321Y-108470482D01*
X162216514Y-108464973D01*
X162214841Y-108464899D01*
X162213298Y-108464260D01*
X162200292Y-108464260D01*
X162187278Y-108463688D01*
X162185705Y-108464260D01*
X162184034Y-108464260D01*
X162172015Y-108469238D01*
X162159777Y-108473689D01*
X162158543Y-108474819D01*
X162156998Y-108475459D01*
X162147799Y-108484657D01*
X162138196Y-108493452D01*
X162137020Y-108495436D01*
X162136306Y-108496151D01*
X162135629Y-108497784D01*
X162130702Y-108506102D01*
X161865332Y-109074750D01*
X161599964Y-108506103D01*
X161595038Y-108497787D01*
X161594360Y-108496151D01*
X161593644Y-108495435D01*
X161592470Y-108493453D01*
X161582873Y-108484664D01*
X161573668Y-108475459D01*
X161572122Y-108474818D01*
X161570889Y-108473689D01*
X161558658Y-108469241D01*
X161546632Y-108464260D01*
X161544958Y-108464260D01*
X161543388Y-108463689D01*
X161530387Y-108464260D01*
X161517368Y-108464260D01*
X161515823Y-108464899D01*
X161514152Y-108464973D01*
X161502353Y-108470479D01*
X161490332Y-108475459D01*
X161489149Y-108476641D01*
X161487634Y-108477349D01*
X161478845Y-108486945D01*
X161469640Y-108496151D01*
X161468999Y-108497696D01*
X161467870Y-108498930D01*
X161463422Y-108511160D01*
X161458441Y-108523187D01*
X161458214Y-108525482D01*
X161457870Y-108526431D01*
X161457947Y-108528197D01*
X161457000Y-108537819D01*
X161066637Y-108537819D01*
X161061223Y-108532405D01*
X161055473Y-108527686D01*
X161054174Y-108526188D01*
X161051914Y-108524766D01*
X161049858Y-108523078D01*
X161048030Y-108522320D01*
X161041731Y-108518356D01*
X160946493Y-108470737D01*
X160932761Y-108465482D01*
X160930073Y-108465291D01*
X160927584Y-108464260D01*
X160912952Y-108462819D01*
X160532000Y-108462819D01*
X160517368Y-108464260D01*
X160490332Y-108475459D01*
X160469640Y-108496151D01*
X160458441Y-108523187D01*
X160457000Y-108537819D01*
X160176987Y-108537819D01*
X160176987Y-108523187D01*
X160165788Y-108496151D01*
X160145096Y-108475459D01*
X160118060Y-108464260D01*
X160103428Y-108462819D01*
X159627238Y-108462819D01*
X159612606Y-108464260D01*
X159585570Y-108475459D01*
X159564878Y-108496151D01*
X159553679Y-108523187D01*
X159552238Y-108537819D01*
X159367463Y-108537819D01*
X159367463Y-108523187D01*
X159356264Y-108496151D01*
X159335572Y-108475459D01*
X159308536Y-108464260D01*
X159293904Y-108462819D01*
X158722476Y-108462819D01*
X158707844Y-108464260D01*
X158680808Y-108475459D01*
X158660116Y-108496151D01*
X158648917Y-108523187D01*
X158321285Y-108523187D01*
X158321285Y-108517580D01*
X158484380Y-108517580D01*
X158499012Y-108516139D01*
X158526048Y-108504940D01*
X158546740Y-108484248D01*
X158557939Y-108457212D01*
X158557939Y-108427948D01*
X162506060Y-108427948D01*
X162506060Y-108457212D01*
X162517259Y-108484248D01*
X162537951Y-108504940D01*
X162564987Y-108516139D01*
X162579619Y-108517580D01*
X162742714Y-108517580D01*
X162742714Y-109796152D01*
X162579619Y-109796152D01*
X162564987Y-109797593D01*
X162537951Y-109808792D01*
X162517259Y-109829484D01*
X162506060Y-109856520D01*
X162506060Y-109885784D01*
X162517259Y-109912820D01*
X162537951Y-109933512D01*
X162564987Y-109944711D01*
X162579619Y-109946152D01*
X162817714Y-109946152D01*
X162832346Y-109944711D01*
X162859382Y-109933512D01*
X162880074Y-109912820D01*
X162891273Y-109885784D01*
X162892714Y-109871152D01*
X162892714Y-108442580D01*
X162891273Y-108427948D01*
X162880074Y-108400912D01*
X162859382Y-108380220D01*
X162832346Y-108369021D01*
X162817714Y-108367580D01*
X162579619Y-108367580D01*
X162564987Y-108369021D01*
X162537951Y-108380220D01*
X162517259Y-108400912D01*
X162506060Y-108427948D01*
X158557939Y-108427948D01*
X158546740Y-108400912D01*
X158526048Y-108380220D01*
X158499012Y-108369021D01*
X158484380Y-108367580D01*
X158246285Y-108367580D01*
X158231653Y-108369021D01*
X158204617Y-108380220D01*
X158183925Y-108400912D01*
X158172726Y-108427948D01*
X158171285Y-108442580D01*
X158060174Y-108442580D01*
X158060174Y-108256469D01*
X163003825Y-108256469D01*
X163003825Y-110057263D01*
G37*
G36*
X181059642Y-106809128D02*
G01*
X181117582Y-106838098D01*
X181172648Y-106893163D01*
X181201295Y-106979104D01*
X181201295Y-107082411D01*
X180551295Y-107082411D01*
X180551295Y-106979104D01*
X180579942Y-106893162D01*
X180635006Y-106838098D01*
X180692945Y-106809128D01*
X180828387Y-106775268D01*
X180924203Y-106775268D01*
X181059642Y-106809128D01*
G37*
G36*
X181706850Y-109454633D02*
G01*
X180236215Y-109454633D01*
X180236215Y-109100268D01*
X180325104Y-109100268D01*
X180325104Y-109290744D01*
X180326545Y-109305376D01*
X180337744Y-109332412D01*
X180358436Y-109353104D01*
X180385472Y-109364303D01*
X180400104Y-109365744D01*
X181542961Y-109365744D01*
X181557593Y-109364303D01*
X181584629Y-109353104D01*
X181605321Y-109332412D01*
X181616520Y-109305376D01*
X181617961Y-109290744D01*
X181617961Y-109100268D01*
X181616520Y-109085636D01*
X181605321Y-109058600D01*
X181584629Y-109037908D01*
X181557593Y-109026709D01*
X181528329Y-109026709D01*
X181501293Y-109037908D01*
X181480601Y-109058600D01*
X181469402Y-109085636D01*
X181467961Y-109100268D01*
X181467961Y-109215744D01*
X180475104Y-109215744D01*
X180475104Y-109100268D01*
X180473663Y-109085636D01*
X180462464Y-109058600D01*
X180441772Y-109037908D01*
X180414736Y-109026709D01*
X180385472Y-109026709D01*
X180358436Y-109037908D01*
X180337744Y-109058600D01*
X180326545Y-109085636D01*
X180325104Y-109100268D01*
X180236215Y-109100268D01*
X180236215Y-108452649D01*
X180401295Y-108452649D01*
X180401295Y-108566935D01*
X180402024Y-108574340D01*
X180401884Y-108576315D01*
X180402474Y-108578912D01*
X180402736Y-108581567D01*
X180403494Y-108583398D01*
X180405144Y-108590652D01*
X180443239Y-108704938D01*
X180449233Y-108718363D01*
X180450998Y-108720398D01*
X180452030Y-108722889D01*
X180461357Y-108734254D01*
X180537547Y-108810444D01*
X180543297Y-108815164D01*
X180544596Y-108816661D01*
X180546850Y-108818080D01*
X180548912Y-108819772D01*
X180550744Y-108820530D01*
X180557039Y-108824493D01*
X180633230Y-108862588D01*
X180634299Y-108862997D01*
X180634735Y-108863320D01*
X180640886Y-108865518D01*
X180646962Y-108867843D01*
X180647500Y-108867881D01*
X180648580Y-108868267D01*
X180800962Y-108906363D01*
X180803498Y-108906738D01*
X180804520Y-108907161D01*
X180810032Y-108907703D01*
X180815506Y-108908513D01*
X180816598Y-108908350D01*
X180819152Y-108908602D01*
X180933438Y-108908602D01*
X180935991Y-108908350D01*
X180937084Y-108908513D01*
X180942558Y-108907703D01*
X180948070Y-108907161D01*
X180949090Y-108906738D01*
X180951629Y-108906363D01*
X181104010Y-108868267D01*
X181105089Y-108867881D01*
X181105628Y-108867843D01*
X181111703Y-108865518D01*
X181117855Y-108863320D01*
X181118290Y-108862997D01*
X181119360Y-108862588D01*
X181195550Y-108824493D01*
X181201846Y-108820529D01*
X181203676Y-108819772D01*
X181205734Y-108818082D01*
X181207993Y-108816661D01*
X181209292Y-108815162D01*
X181215042Y-108810444D01*
X181291233Y-108734254D01*
X181300560Y-108722889D01*
X181301591Y-108720398D01*
X181303357Y-108718363D01*
X181309351Y-108704938D01*
X181347446Y-108590652D01*
X181349095Y-108583398D01*
X181349854Y-108581567D01*
X181350115Y-108578912D01*
X181350706Y-108576315D01*
X181350565Y-108574340D01*
X181351295Y-108566935D01*
X181351295Y-108490744D01*
X181350565Y-108483338D01*
X181350706Y-108481364D01*
X181350115Y-108478766D01*
X181349854Y-108476112D01*
X181349095Y-108474280D01*
X181347446Y-108467027D01*
X181309351Y-108352742D01*
X181303357Y-108339316D01*
X181301592Y-108337281D01*
X181300561Y-108334791D01*
X181291233Y-108323426D01*
X181253137Y-108285330D01*
X181241772Y-108276003D01*
X181214736Y-108264804D01*
X181200104Y-108263363D01*
X180933438Y-108263363D01*
X180918806Y-108264804D01*
X180891770Y-108276003D01*
X180871078Y-108296695D01*
X180859879Y-108323731D01*
X180858438Y-108338363D01*
X180858438Y-108490744D01*
X180859879Y-108505376D01*
X180871078Y-108532412D01*
X180891770Y-108553104D01*
X180918806Y-108564303D01*
X180948070Y-108564303D01*
X180975106Y-108553104D01*
X180995798Y-108532412D01*
X181006997Y-108505376D01*
X181008438Y-108490744D01*
X181008438Y-108413363D01*
X181169038Y-108413363D01*
X181172648Y-108416973D01*
X181201295Y-108502914D01*
X181201295Y-108554765D01*
X181172648Y-108640706D01*
X181117582Y-108695771D01*
X181059642Y-108724741D01*
X180924203Y-108758602D01*
X180828387Y-108758602D01*
X180692945Y-108724741D01*
X180635006Y-108695771D01*
X180579942Y-108640707D01*
X180551295Y-108554765D01*
X180551295Y-108470354D01*
X180581472Y-108410000D01*
X180586727Y-108396268D01*
X180588801Y-108367078D01*
X180579547Y-108339317D01*
X180560374Y-108317209D01*
X180534199Y-108304122D01*
X180505009Y-108302048D01*
X180477248Y-108311302D01*
X180455140Y-108330475D01*
X180447308Y-108342918D01*
X180409213Y-108419108D01*
X180403958Y-108432840D01*
X180403767Y-108435527D01*
X180402736Y-108438017D01*
X180401295Y-108452649D01*
X180236215Y-108452649D01*
X180236215Y-107990267D01*
X180401478Y-107990267D01*
X180402736Y-108000163D01*
X180402736Y-108010138D01*
X180404565Y-108014553D01*
X180405168Y-108019297D01*
X180410118Y-108027961D01*
X180413935Y-108037174D01*
X180417313Y-108040552D01*
X180419687Y-108044706D01*
X180427576Y-108050815D01*
X180434627Y-108057866D01*
X180439043Y-108059695D01*
X180442824Y-108062623D01*
X180452447Y-108065247D01*
X180461663Y-108069065D01*
X180469145Y-108069801D01*
X180471056Y-108070323D01*
X180472531Y-108070135D01*
X180476295Y-108070506D01*
X181276295Y-108070506D01*
X181290927Y-108069065D01*
X181317963Y-108057866D01*
X181338655Y-108037174D01*
X181349854Y-108010138D01*
X181349854Y-107980874D01*
X181338655Y-107953838D01*
X181317963Y-107933146D01*
X181290927Y-107921947D01*
X181276295Y-107920506D01*
X180758711Y-107920506D01*
X181313505Y-107603481D01*
X181316588Y-107601292D01*
X181317963Y-107600723D01*
X181319362Y-107599323D01*
X181325495Y-107594971D01*
X181331603Y-107587082D01*
X181338655Y-107580031D01*
X181340485Y-107575612D01*
X181343412Y-107571833D01*
X181346036Y-107562211D01*
X181349854Y-107552995D01*
X181349854Y-107548214D01*
X181351112Y-107543602D01*
X181349854Y-107533705D01*
X181349854Y-107523731D01*
X181348024Y-107519315D01*
X181347422Y-107514572D01*
X181342471Y-107505907D01*
X181338655Y-107496695D01*
X181335276Y-107493316D01*
X181332903Y-107489163D01*
X181325013Y-107483053D01*
X181317963Y-107476003D01*
X181313546Y-107474173D01*
X181309766Y-107471246D01*
X181300142Y-107468621D01*
X181290927Y-107464804D01*
X181283444Y-107464067D01*
X181281534Y-107463546D01*
X181280058Y-107463733D01*
X181276295Y-107463363D01*
X180476295Y-107463363D01*
X180461663Y-107464804D01*
X180434627Y-107476003D01*
X180413935Y-107496695D01*
X180402736Y-107523731D01*
X180402736Y-107552995D01*
X180413935Y-107580031D01*
X180434627Y-107600723D01*
X180461663Y-107611922D01*
X180476295Y-107613363D01*
X180993879Y-107613363D01*
X180439085Y-107930388D01*
X180436001Y-107932576D01*
X180434627Y-107933146D01*
X180433227Y-107934545D01*
X180427095Y-107938898D01*
X180420985Y-107946787D01*
X180413935Y-107953838D01*
X180412105Y-107958254D01*
X180409178Y-107962035D01*
X180406553Y-107971658D01*
X180402736Y-107980874D01*
X180402736Y-107985654D01*
X180401478Y-107990267D01*
X180236215Y-107990267D01*
X180236215Y-106966935D01*
X180401295Y-106966935D01*
X180401295Y-107157411D01*
X180402736Y-107172043D01*
X180413935Y-107199079D01*
X180434627Y-107219771D01*
X180461663Y-107230970D01*
X180476295Y-107232411D01*
X181276295Y-107232411D01*
X181290927Y-107230970D01*
X181317963Y-107219771D01*
X181338655Y-107199079D01*
X181349854Y-107172043D01*
X181351295Y-107157411D01*
X181351295Y-106966935D01*
X181350565Y-106959529D01*
X181350706Y-106957555D01*
X181350115Y-106954957D01*
X181349854Y-106952303D01*
X181349095Y-106950471D01*
X181347446Y-106943218D01*
X181309351Y-106828932D01*
X181303357Y-106815507D01*
X181301591Y-106813471D01*
X181300560Y-106810981D01*
X181291233Y-106799616D01*
X181215042Y-106723426D01*
X181209292Y-106718707D01*
X181207993Y-106717209D01*
X181205734Y-106715787D01*
X181203676Y-106714098D01*
X181201846Y-106713340D01*
X181195550Y-106709377D01*
X181119360Y-106671282D01*
X181118290Y-106670872D01*
X181117855Y-106670550D01*
X181111703Y-106668351D01*
X181105628Y-106666027D01*
X181105089Y-106665988D01*
X181104010Y-106665603D01*
X180951629Y-106627507D01*
X180949090Y-106627131D01*
X180948070Y-106626709D01*
X180942558Y-106626166D01*
X180937084Y-106625357D01*
X180935991Y-106625519D01*
X180933438Y-106625268D01*
X180819152Y-106625268D01*
X180816598Y-106625519D01*
X180815506Y-106625357D01*
X180810032Y-106626166D01*
X180804520Y-106626709D01*
X180803498Y-106627131D01*
X180800962Y-106627507D01*
X180648580Y-106665603D01*
X180647500Y-106665988D01*
X180646962Y-106666027D01*
X180640886Y-106668351D01*
X180634735Y-106670550D01*
X180634299Y-106670872D01*
X180633230Y-106671282D01*
X180557039Y-106709377D01*
X180550744Y-106713339D01*
X180548912Y-106714098D01*
X180546850Y-106715789D01*
X180544596Y-106717209D01*
X180543297Y-106718705D01*
X180537547Y-106723426D01*
X180461357Y-106799616D01*
X180452030Y-106810981D01*
X180450998Y-106813471D01*
X180449233Y-106815507D01*
X180443239Y-106828932D01*
X180405144Y-106943218D01*
X180403494Y-106950471D01*
X180402736Y-106952303D01*
X180402474Y-106954957D01*
X180401884Y-106957555D01*
X180402024Y-106959529D01*
X180401295Y-106966935D01*
X180236215Y-106966935D01*
X180236215Y-106243126D01*
X180325104Y-106243126D01*
X180325104Y-106433602D01*
X180326545Y-106448234D01*
X180337744Y-106475270D01*
X180358436Y-106495962D01*
X180385472Y-106507161D01*
X180414736Y-106507161D01*
X180441772Y-106495962D01*
X180462464Y-106475270D01*
X180473663Y-106448234D01*
X180475104Y-106433602D01*
X180475104Y-106318126D01*
X181467961Y-106318126D01*
X181467961Y-106433602D01*
X181469402Y-106448234D01*
X181480601Y-106475270D01*
X181501293Y-106495962D01*
X181528329Y-106507161D01*
X181557593Y-106507161D01*
X181584629Y-106495962D01*
X181605321Y-106475270D01*
X181616520Y-106448234D01*
X181617961Y-106433602D01*
X181617961Y-106243126D01*
X181616520Y-106228494D01*
X181605321Y-106201458D01*
X181584629Y-106180766D01*
X181557593Y-106169567D01*
X181542961Y-106168126D01*
X180400104Y-106168126D01*
X180385472Y-106169567D01*
X180358436Y-106180766D01*
X180337744Y-106201458D01*
X180326545Y-106228494D01*
X180325104Y-106243126D01*
X180236215Y-106243126D01*
X180236215Y-106079237D01*
X181706850Y-106079237D01*
X181706850Y-109454633D01*
G37*
D11*
G36*
X145680167Y-97551262D02*
G01*
X145737720Y-97608814D01*
X145769994Y-97737905D01*
X145769994Y-97989803D01*
X145737720Y-98118894D01*
X145680168Y-98176447D01*
X145625353Y-98203855D01*
X145501302Y-98203855D01*
X145446487Y-98176447D01*
X145388934Y-98118894D01*
X145356660Y-97989803D01*
X145356660Y-97737905D01*
X145388934Y-97608813D01*
X145446484Y-97551263D01*
X145501302Y-97523855D01*
X145625353Y-97523855D01*
X145680167Y-97551262D01*
G37*
G36*
X148156359Y-97551262D02*
G01*
X148180683Y-97575587D01*
X148208090Y-97630400D01*
X148208090Y-97716356D01*
X148180683Y-97771169D01*
X148156359Y-97795494D01*
X148101544Y-97822902D01*
X147870947Y-97822902D01*
X147870947Y-97523855D01*
X148101544Y-97523855D01*
X148156359Y-97551262D01*
G37*
G36*
X144880168Y-97551262D02*
G01*
X144904492Y-97575587D01*
X144931899Y-97630400D01*
X144931899Y-97716356D01*
X144904492Y-97771169D01*
X144880168Y-97795494D01*
X144825353Y-97822902D01*
X144594756Y-97822902D01*
X144594756Y-97523855D01*
X144825353Y-97523855D01*
X144880168Y-97551262D01*
G37*
G36*
X148874121Y-98679410D02*
G01*
X143890629Y-98679410D01*
X143890629Y-97387664D01*
X143979518Y-97387664D01*
X143979518Y-98530521D01*
X143984085Y-98553482D01*
X144016557Y-98585954D01*
X144039518Y-98590521D01*
X144229994Y-98590521D01*
X144252955Y-98585954D01*
X144285427Y-98553482D01*
X144285427Y-98507560D01*
X144252955Y-98475088D01*
X144229994Y-98470521D01*
X144099518Y-98470521D01*
X144099518Y-97463855D01*
X144474756Y-97463855D01*
X144474756Y-98263855D01*
X144479323Y-98286816D01*
X144511795Y-98319288D01*
X144557717Y-98319288D01*
X144590189Y-98286816D01*
X144594756Y-98263855D01*
X144594756Y-97942902D01*
X144839518Y-97942902D01*
X144842465Y-97942315D01*
X144843771Y-97942751D01*
X144853046Y-97940211D01*
X144862479Y-97938335D01*
X144863452Y-97937361D01*
X144866351Y-97936568D01*
X144942541Y-97898473D01*
X144950142Y-97892572D01*
X144958134Y-97887233D01*
X144996229Y-97849139D01*
X145001575Y-97841138D01*
X145007468Y-97833545D01*
X145045564Y-97757354D01*
X145046357Y-97754456D01*
X145047332Y-97753482D01*
X145049208Y-97744045D01*
X145051748Y-97734775D01*
X145051312Y-97733468D01*
X145051899Y-97730521D01*
X145236660Y-97730521D01*
X145236660Y-97997188D01*
X145238094Y-98004399D01*
X145238452Y-98011740D01*
X145276548Y-98164121D01*
X145279323Y-98169995D01*
X145279323Y-98172530D01*
X145283407Y-98178643D01*
X145286547Y-98185289D01*
X145288718Y-98186592D01*
X145292329Y-98191995D01*
X145368520Y-98268186D01*
X145376507Y-98273523D01*
X145384113Y-98279426D01*
X145460305Y-98317521D01*
X145463202Y-98318314D01*
X145464176Y-98319288D01*
X145473610Y-98321164D01*
X145482884Y-98323704D01*
X145484189Y-98323268D01*
X145487137Y-98323855D01*
X145639518Y-98323855D01*
X145642465Y-98323268D01*
X145643771Y-98323704D01*
X145653046Y-98321164D01*
X145662479Y-98319288D01*
X145663452Y-98318314D01*
X145666351Y-98317521D01*
X145742541Y-98279426D01*
X145750142Y-98273525D01*
X145758134Y-98268186D01*
X145834325Y-98191996D01*
X145837935Y-98186592D01*
X145840108Y-98185289D01*
X145843248Y-98178641D01*
X145847332Y-98172530D01*
X145847332Y-98169997D01*
X145850108Y-98164121D01*
X145888203Y-98011740D01*
X145888560Y-98004395D01*
X145889994Y-97997188D01*
X145889994Y-97730521D01*
X145888560Y-97723313D01*
X145888203Y-97715969D01*
X145850108Y-97563588D01*
X145847332Y-97557711D01*
X145847332Y-97555179D01*
X145843248Y-97549068D01*
X145840108Y-97542420D01*
X145837934Y-97541116D01*
X145834325Y-97535714D01*
X145758134Y-97459523D01*
X145750405Y-97454358D01*
X146037416Y-97454358D01*
X146038292Y-97477752D01*
X146228768Y-98277752D01*
X146238529Y-98299031D01*
X146246170Y-98303733D01*
X146250667Y-98311500D01*
X146265002Y-98315322D01*
X146277639Y-98323099D01*
X146286369Y-98321020D01*
X146295039Y-98323332D01*
X146307878Y-98315898D01*
X146322312Y-98312462D01*
X146327014Y-98304820D01*
X146334781Y-98300324D01*
X146345110Y-98279315D01*
X146439516Y-97925288D01*
X146533924Y-98279315D01*
X146544253Y-98300324D01*
X146552019Y-98304820D01*
X146556722Y-98312462D01*
X146571153Y-98315898D01*
X146583995Y-98323333D01*
X146592666Y-98321020D01*
X146601395Y-98323099D01*
X146614028Y-98315324D01*
X146628367Y-98311501D01*
X146632864Y-98303733D01*
X146640505Y-98299031D01*
X146650266Y-98277752D01*
X146840743Y-97477753D01*
X146841263Y-97463855D01*
X147027137Y-97463855D01*
X147027137Y-98263855D01*
X147031704Y-98286816D01*
X147064176Y-98319288D01*
X147087137Y-98323855D01*
X147468089Y-98323855D01*
X147491050Y-98319288D01*
X147523522Y-98286816D01*
X147523522Y-98240894D01*
X147491050Y-98208422D01*
X147468089Y-98203855D01*
X147147137Y-98203855D01*
X147147137Y-97904807D01*
X147353803Y-97904807D01*
X147376764Y-97900240D01*
X147409236Y-97867768D01*
X147409236Y-97821846D01*
X147376764Y-97789374D01*
X147353803Y-97784807D01*
X147147137Y-97784807D01*
X147147137Y-97523855D01*
X147468089Y-97523855D01*
X147491050Y-97519288D01*
X147523522Y-97486816D01*
X147523522Y-97463855D01*
X147750947Y-97463855D01*
X147750947Y-98263855D01*
X147755514Y-98286816D01*
X147787986Y-98319288D01*
X147833908Y-98319288D01*
X147866380Y-98286816D01*
X147870947Y-98263855D01*
X147870947Y-97942902D01*
X147970183Y-97942902D01*
X148218936Y-98298262D01*
X148235845Y-98314454D01*
X148281068Y-98322434D01*
X148318689Y-98296100D01*
X148326670Y-98250876D01*
X148317244Y-98229447D01*
X148116546Y-97942735D01*
X148118656Y-97942315D01*
X148119962Y-97942751D01*
X148129237Y-97940211D01*
X148138670Y-97938335D01*
X148139643Y-97937361D01*
X148142542Y-97936568D01*
X148218732Y-97898473D01*
X148226333Y-97892572D01*
X148234325Y-97887233D01*
X148272420Y-97849139D01*
X148277766Y-97841138D01*
X148283659Y-97833545D01*
X148321755Y-97757354D01*
X148322548Y-97754456D01*
X148323523Y-97753482D01*
X148325399Y-97744045D01*
X148327939Y-97734775D01*
X148327503Y-97733468D01*
X148328090Y-97730521D01*
X148328090Y-97616236D01*
X148327503Y-97613288D01*
X148327939Y-97611982D01*
X148325399Y-97602711D01*
X148323523Y-97593275D01*
X148322548Y-97592300D01*
X148321755Y-97589403D01*
X148283659Y-97513212D01*
X148277766Y-97505618D01*
X148272420Y-97497618D01*
X148234325Y-97459524D01*
X148226333Y-97454184D01*
X148218732Y-97448284D01*
X148142542Y-97410189D01*
X148139643Y-97409395D01*
X148138670Y-97408422D01*
X148129237Y-97406545D01*
X148119962Y-97404006D01*
X148118656Y-97404441D01*
X148115709Y-97403855D01*
X147810947Y-97403855D01*
X147787986Y-97408422D01*
X147755514Y-97440894D01*
X147750947Y-97463855D01*
X147523522Y-97463855D01*
X147523522Y-97440894D01*
X147491050Y-97408422D01*
X147468089Y-97403855D01*
X147087137Y-97403855D01*
X147064176Y-97408422D01*
X147031704Y-97440894D01*
X147027137Y-97463855D01*
X146841263Y-97463855D01*
X146841619Y-97454358D01*
X146817551Y-97415248D01*
X146772878Y-97404612D01*
X146733768Y-97428679D01*
X146724007Y-97449958D01*
X146588604Y-98018644D01*
X146497491Y-97676966D01*
X146487162Y-97655957D01*
X146480084Y-97651859D01*
X146475986Y-97644780D01*
X146460913Y-97640760D01*
X146447420Y-97632949D01*
X146439518Y-97635055D01*
X146431614Y-97632948D01*
X146418115Y-97640763D01*
X146403048Y-97644781D01*
X146398950Y-97651858D01*
X146391872Y-97655957D01*
X146381543Y-97676966D01*
X146290429Y-98018643D01*
X146155028Y-97449958D01*
X146145267Y-97428679D01*
X146106157Y-97404611D01*
X146061484Y-97415248D01*
X146037416Y-97454358D01*
X145750405Y-97454358D01*
X145750137Y-97454179D01*
X145742541Y-97448284D01*
X145666351Y-97410189D01*
X145663452Y-97409395D01*
X145662479Y-97408422D01*
X145653046Y-97406545D01*
X145643771Y-97404006D01*
X145642465Y-97404441D01*
X145639518Y-97403855D01*
X145487137Y-97403855D01*
X145484189Y-97404441D01*
X145482884Y-97404006D01*
X145473610Y-97406545D01*
X145464176Y-97408422D01*
X145463202Y-97409395D01*
X145460305Y-97410189D01*
X145384113Y-97448284D01*
X145376507Y-97454186D01*
X145368520Y-97459524D01*
X145292330Y-97535714D01*
X145288720Y-97541116D01*
X145286547Y-97542420D01*
X145283407Y-97549066D01*
X145279323Y-97555179D01*
X145279323Y-97557713D01*
X145276548Y-97563588D01*
X145238452Y-97715969D01*
X145238094Y-97723309D01*
X145236660Y-97730521D01*
X145051899Y-97730521D01*
X145051899Y-97616236D01*
X145051312Y-97613288D01*
X145051748Y-97611982D01*
X145049208Y-97602711D01*
X145047332Y-97593275D01*
X145046357Y-97592300D01*
X145045564Y-97589403D01*
X145007468Y-97513212D01*
X145001575Y-97505618D01*
X144996229Y-97497618D01*
X144958134Y-97459524D01*
X144950142Y-97454184D01*
X144942541Y-97448284D01*
X144866351Y-97410189D01*
X144863452Y-97409395D01*
X144862479Y-97408422D01*
X144853046Y-97406545D01*
X144843771Y-97404006D01*
X144842465Y-97404441D01*
X144839518Y-97403855D01*
X144534756Y-97403855D01*
X144511795Y-97408422D01*
X144479323Y-97440894D01*
X144474756Y-97463855D01*
X144099518Y-97463855D01*
X144099518Y-97447664D01*
X144229994Y-97447664D01*
X144252955Y-97443097D01*
X144285427Y-97410625D01*
X144285427Y-97364703D01*
X148479323Y-97364703D01*
X148479323Y-97410625D01*
X148511795Y-97443097D01*
X148534756Y-97447664D01*
X148665232Y-97447664D01*
X148665232Y-98470521D01*
X148534756Y-98470521D01*
X148511795Y-98475088D01*
X148479323Y-98507560D01*
X148479323Y-98553482D01*
X148511795Y-98585954D01*
X148534756Y-98590521D01*
X148725232Y-98590521D01*
X148748193Y-98585954D01*
X148780665Y-98553482D01*
X148785232Y-98530521D01*
X148785232Y-97387664D01*
X148780665Y-97364703D01*
X148748193Y-97332231D01*
X148725232Y-97327664D01*
X148534756Y-97327664D01*
X148511795Y-97332231D01*
X148479323Y-97364703D01*
X144285427Y-97364703D01*
X144252955Y-97332231D01*
X144229994Y-97327664D01*
X144039518Y-97327664D01*
X144016557Y-97332231D01*
X143984085Y-97364703D01*
X143979518Y-97387664D01*
X143890629Y-97387664D01*
X143890629Y-97238775D01*
X148874121Y-97238775D01*
X148874121Y-98679410D01*
G37*
G36*
X140519013Y-99104392D02*
G01*
X140578299Y-99163678D01*
X140609098Y-99225276D01*
X140643804Y-99364096D01*
X140643804Y-99463613D01*
X140609098Y-99602432D01*
X140578300Y-99664030D01*
X140519011Y-99723318D01*
X140427400Y-99753855D01*
X140306661Y-99753855D01*
X140306661Y-99073855D01*
X140427400Y-99073855D01*
X140519013Y-99104392D01*
G37*
G36*
X139030168Y-99101262D02*
G01*
X139054492Y-99125587D01*
X139081899Y-99180400D01*
X139081899Y-99266356D01*
X139054492Y-99321169D01*
X139030168Y-99345494D01*
X138975353Y-99372902D01*
X138744756Y-99372902D01*
X138744756Y-99073855D01*
X138975353Y-99073855D01*
X139030168Y-99101262D01*
G37*
G36*
X141309835Y-100229410D02*
G01*
X138040629Y-100229410D01*
X138040629Y-98937664D01*
X138129518Y-98937664D01*
X138129518Y-100080521D01*
X138134085Y-100103482D01*
X138166557Y-100135954D01*
X138189518Y-100140521D01*
X138379994Y-100140521D01*
X138402955Y-100135954D01*
X138435427Y-100103482D01*
X138435427Y-100057560D01*
X138402955Y-100025088D01*
X138379994Y-100020521D01*
X138249518Y-100020521D01*
X138249518Y-99013855D01*
X138624756Y-99013855D01*
X138624756Y-99813855D01*
X138629323Y-99836816D01*
X138661795Y-99869288D01*
X138707717Y-99869288D01*
X138740189Y-99836816D01*
X138744756Y-99813855D01*
X138744756Y-99492902D01*
X138843992Y-99492902D01*
X139092745Y-99848262D01*
X139109654Y-99864454D01*
X139154877Y-99872434D01*
X139192498Y-99846100D01*
X139200479Y-99800876D01*
X139191053Y-99779447D01*
X138990355Y-99492735D01*
X138992465Y-99492315D01*
X138993771Y-99492751D01*
X139003046Y-99490211D01*
X139012479Y-99488335D01*
X139013452Y-99487361D01*
X139016351Y-99486568D01*
X139092541Y-99448473D01*
X139100142Y-99442572D01*
X139108134Y-99437233D01*
X139146229Y-99399139D01*
X139151575Y-99391138D01*
X139157468Y-99383545D01*
X139195564Y-99307354D01*
X139196357Y-99304456D01*
X139197332Y-99303482D01*
X139199208Y-99294045D01*
X139201748Y-99284775D01*
X139201312Y-99283468D01*
X139201899Y-99280521D01*
X139201899Y-99166236D01*
X139201312Y-99163288D01*
X139201748Y-99161982D01*
X139199208Y-99152711D01*
X139197332Y-99143275D01*
X139196357Y-99142300D01*
X139195564Y-99139403D01*
X139157468Y-99063212D01*
X139151575Y-99055618D01*
X139146229Y-99047618D01*
X139124109Y-99025499D01*
X139349705Y-99025499D01*
X139358642Y-99047137D01*
X139603120Y-99413855D01*
X139358642Y-99780573D01*
X139349705Y-99802211D01*
X139358712Y-99847242D01*
X139396921Y-99872715D01*
X139441952Y-99863708D01*
X139458488Y-99847137D01*
X139675232Y-99522021D01*
X139891976Y-99847137D01*
X139908513Y-99863709D01*
X139953543Y-99872715D01*
X139991753Y-99847242D01*
X140000759Y-99802211D01*
X139991822Y-99780573D01*
X139747343Y-99413855D01*
X139991822Y-99047137D01*
X140000759Y-99025499D01*
X139998430Y-99013855D01*
X140186661Y-99013855D01*
X140186661Y-99813855D01*
X140191228Y-99836816D01*
X140223700Y-99869288D01*
X140246661Y-99873855D01*
X140437137Y-99873855D01*
X140446570Y-99871978D01*
X140456111Y-99870776D01*
X140570397Y-99832681D01*
X140573007Y-99831193D01*
X140574385Y-99831193D01*
X140582380Y-99825850D01*
X140590735Y-99821088D01*
X140591351Y-99819855D01*
X140593850Y-99818186D01*
X140670040Y-99741995D01*
X140675383Y-99733998D01*
X140681279Y-99726402D01*
X140719374Y-99650212D01*
X140721110Y-99643870D01*
X140723916Y-99637931D01*
X140762013Y-99485550D01*
X140762370Y-99478205D01*
X140763804Y-99470998D01*
X140763804Y-99356712D01*
X140762370Y-99349504D01*
X140762013Y-99342160D01*
X140723916Y-99189779D01*
X140721110Y-99183838D01*
X140719374Y-99177499D01*
X140681279Y-99101307D01*
X140675376Y-99093701D01*
X140670039Y-99085714D01*
X140593849Y-99009524D01*
X140591351Y-99007855D01*
X140590735Y-99006622D01*
X140582373Y-99001855D01*
X140574384Y-98996517D01*
X140573007Y-98996517D01*
X140570397Y-98995029D01*
X140456111Y-98956934D01*
X140446570Y-98955731D01*
X140437137Y-98953855D01*
X140246661Y-98953855D01*
X140223700Y-98958422D01*
X140191228Y-98990894D01*
X140186661Y-99013855D01*
X139998430Y-99013855D01*
X139991753Y-98980468D01*
X139953543Y-98954995D01*
X139908513Y-98964001D01*
X139891976Y-98980573D01*
X139675232Y-99305688D01*
X139458488Y-98980573D01*
X139441952Y-98964002D01*
X139396921Y-98954995D01*
X139358712Y-98980468D01*
X139349705Y-99025499D01*
X139124109Y-99025499D01*
X139108134Y-99009524D01*
X139100142Y-99004184D01*
X139092541Y-98998284D01*
X139016351Y-98960189D01*
X139013452Y-98959395D01*
X139012479Y-98958422D01*
X139003046Y-98956545D01*
X138993771Y-98954006D01*
X138992465Y-98954441D01*
X138989518Y-98953855D01*
X138684756Y-98953855D01*
X138661795Y-98958422D01*
X138629323Y-98990894D01*
X138624756Y-99013855D01*
X138249518Y-99013855D01*
X138249518Y-98997664D01*
X138379994Y-98997664D01*
X138402955Y-98993097D01*
X138435427Y-98960625D01*
X138435427Y-98914703D01*
X140915037Y-98914703D01*
X140915037Y-98960625D01*
X140947509Y-98993097D01*
X140970470Y-98997664D01*
X141100946Y-98997664D01*
X141100946Y-100020521D01*
X140970470Y-100020521D01*
X140947509Y-100025088D01*
X140915037Y-100057560D01*
X140915037Y-100103482D01*
X140947509Y-100135954D01*
X140970470Y-100140521D01*
X141160946Y-100140521D01*
X141183907Y-100135954D01*
X141216379Y-100103482D01*
X141220946Y-100080521D01*
X141220946Y-98937664D01*
X141216379Y-98914703D01*
X141183907Y-98882231D01*
X141160946Y-98877664D01*
X140970470Y-98877664D01*
X140947509Y-98882231D01*
X140915037Y-98914703D01*
X138435427Y-98914703D01*
X138402955Y-98882231D01*
X138379994Y-98877664D01*
X138189518Y-98877664D01*
X138166557Y-98882231D01*
X138134085Y-98914703D01*
X138129518Y-98937664D01*
X138040629Y-98937664D01*
X138040629Y-98788775D01*
X141309835Y-98788775D01*
X141309835Y-100229410D01*
G37*
D10*
G36*
X180736630Y-100716669D02*
G01*
X180757512Y-100737551D01*
X180782247Y-100787020D01*
X180782247Y-100960982D01*
X180551295Y-100960982D01*
X180551295Y-100787020D01*
X180576029Y-100737551D01*
X180596911Y-100716669D01*
X180646381Y-100691935D01*
X180687161Y-100691935D01*
X180736630Y-100716669D01*
G37*
G36*
X181155676Y-100678573D02*
G01*
X181176561Y-100699457D01*
X181201295Y-100748925D01*
X181201295Y-100960982D01*
X180932247Y-100960982D01*
X180932247Y-100781485D01*
X180960893Y-100695544D01*
X180977863Y-100678574D01*
X181027334Y-100653839D01*
X181106208Y-100653839D01*
X181155676Y-100678573D01*
G37*
G36*
X181706850Y-102304633D02*
G01*
X180236215Y-102304633D01*
X180236215Y-101950268D01*
X180325104Y-101950268D01*
X180325104Y-102140744D01*
X180326545Y-102155376D01*
X180337744Y-102182412D01*
X180358436Y-102203104D01*
X180385472Y-102214303D01*
X180400104Y-102215744D01*
X181542961Y-102215744D01*
X181557593Y-102214303D01*
X181584629Y-102203104D01*
X181605321Y-102182412D01*
X181616520Y-102155376D01*
X181617961Y-102140744D01*
X181617961Y-101950268D01*
X181616520Y-101935636D01*
X181605321Y-101908600D01*
X181584629Y-101887908D01*
X181557593Y-101876709D01*
X181528329Y-101876709D01*
X181501293Y-101887908D01*
X181480601Y-101908600D01*
X181469402Y-101935636D01*
X181467961Y-101950268D01*
X181467961Y-102065744D01*
X180475104Y-102065744D01*
X180475104Y-101950268D01*
X180473663Y-101935636D01*
X180462464Y-101908600D01*
X180441772Y-101887908D01*
X180414736Y-101876709D01*
X180385472Y-101876709D01*
X180358436Y-101887908D01*
X180337744Y-101908600D01*
X180326545Y-101935636D01*
X180325104Y-101950268D01*
X180236215Y-101950268D01*
X180236215Y-100769316D01*
X180401295Y-100769316D01*
X180401295Y-101035982D01*
X180402736Y-101050614D01*
X180413935Y-101077650D01*
X180434627Y-101098342D01*
X180461663Y-101109541D01*
X180476295Y-101110982D01*
X181276295Y-101110982D01*
X181290927Y-101109541D01*
X181317963Y-101098342D01*
X181338655Y-101077650D01*
X181349854Y-101050614D01*
X181351295Y-101035982D01*
X181351295Y-100731220D01*
X181349854Y-100716588D01*
X181348822Y-100714098D01*
X181348632Y-100711411D01*
X181343377Y-100697679D01*
X181305282Y-100621489D01*
X181301318Y-100615191D01*
X181300560Y-100613361D01*
X181298869Y-100611301D01*
X181297450Y-100609046D01*
X181295952Y-100607747D01*
X181291232Y-100601996D01*
X181253136Y-100563901D01*
X181247384Y-100559180D01*
X181246088Y-100557686D01*
X181243834Y-100556267D01*
X181241771Y-100554574D01*
X181239939Y-100553815D01*
X181233645Y-100549853D01*
X181157456Y-100511757D01*
X181143724Y-100506502D01*
X181141034Y-100506310D01*
X181138546Y-100505280D01*
X181123914Y-100503839D01*
X181009628Y-100503839D01*
X180994996Y-100505280D01*
X180992504Y-100506312D01*
X180989818Y-100506503D01*
X180976086Y-100511758D01*
X180899896Y-100549853D01*
X180893601Y-100553815D01*
X180891771Y-100554574D01*
X180889708Y-100556266D01*
X180887454Y-100557686D01*
X180886157Y-100559180D01*
X180880406Y-100563901D01*
X180842310Y-100601996D01*
X180838604Y-100606511D01*
X180834090Y-100601997D01*
X180828340Y-100597278D01*
X180827041Y-100595780D01*
X180824781Y-100594358D01*
X180822725Y-100592670D01*
X180820897Y-100591912D01*
X180814598Y-100587948D01*
X180738407Y-100549853D01*
X180724675Y-100544598D01*
X180721987Y-100544407D01*
X180719498Y-100543376D01*
X180704866Y-100541935D01*
X180628676Y-100541935D01*
X180614044Y-100543376D01*
X180611554Y-100544407D01*
X180608867Y-100544598D01*
X180595135Y-100549853D01*
X180518944Y-100587948D01*
X180512644Y-100591912D01*
X180510817Y-100592670D01*
X180508760Y-100594358D01*
X180506501Y-100595780D01*
X180505201Y-100597278D01*
X180499452Y-100601997D01*
X180461357Y-100640092D01*
X180456638Y-100645841D01*
X180455140Y-100647141D01*
X180453718Y-100649400D01*
X180452030Y-100651457D01*
X180451272Y-100653284D01*
X180447308Y-100659584D01*
X180409213Y-100735775D01*
X180403958Y-100749507D01*
X180403767Y-100752194D01*
X180402736Y-100754684D01*
X180401295Y-100769316D01*
X180236215Y-100769316D01*
X180236215Y-99512173D01*
X180325104Y-99512173D01*
X180325104Y-99702649D01*
X180326545Y-99717281D01*
X180337744Y-99744317D01*
X180358436Y-99765009D01*
X180385472Y-99776208D01*
X180414736Y-99776208D01*
X180441772Y-99765009D01*
X180462464Y-99744317D01*
X180473663Y-99717281D01*
X180475104Y-99702649D01*
X180475104Y-99587173D01*
X181467961Y-99587173D01*
X181467961Y-99702649D01*
X181469402Y-99717281D01*
X181480601Y-99744317D01*
X181501293Y-99765009D01*
X181528329Y-99776208D01*
X181557593Y-99776208D01*
X181584629Y-99765009D01*
X181605321Y-99744317D01*
X181616520Y-99717281D01*
X181617961Y-99702649D01*
X181617961Y-99512173D01*
X181616520Y-99497541D01*
X181605321Y-99470505D01*
X181584629Y-99449813D01*
X181557593Y-99438614D01*
X181542961Y-99437173D01*
X180400104Y-99437173D01*
X180385472Y-99438614D01*
X180358436Y-99449813D01*
X180337744Y-99470505D01*
X180326545Y-99497541D01*
X180325104Y-99512173D01*
X180236215Y-99512173D01*
X180236215Y-99348284D01*
X181706850Y-99348284D01*
X181706850Y-102304633D01*
G37*
D11*
G36*
X180989283Y-104460568D02*
G01*
X180667592Y-104353338D01*
X180989283Y-104246108D01*
X180989283Y-104460568D01*
G37*
G36*
X181693410Y-105759370D02*
G01*
X180252775Y-105759370D01*
X180252775Y-105420005D01*
X180341664Y-105420005D01*
X180341664Y-105610481D01*
X180346231Y-105633442D01*
X180378703Y-105665914D01*
X180401664Y-105670481D01*
X181544521Y-105670481D01*
X181567482Y-105665914D01*
X181599954Y-105633442D01*
X181604521Y-105610481D01*
X181604521Y-105420005D01*
X181599954Y-105397044D01*
X181567482Y-105364572D01*
X181521560Y-105364572D01*
X181489088Y-105397044D01*
X181484521Y-105420005D01*
X181484521Y-105550481D01*
X180461664Y-105550481D01*
X180461664Y-105420005D01*
X180457097Y-105397044D01*
X180424625Y-105364572D01*
X180378703Y-105364572D01*
X180346231Y-105397044D01*
X180341664Y-105420005D01*
X180252775Y-105420005D01*
X180252775Y-104349085D01*
X180418006Y-104349085D01*
X180419423Y-104353338D01*
X180418006Y-104357591D01*
X180426512Y-104374604D01*
X180432528Y-104392650D01*
X180436538Y-104394655D01*
X180438543Y-104398665D01*
X180458881Y-104410259D01*
X181258881Y-104676926D01*
X181282108Y-104679854D01*
X181323182Y-104659317D01*
X181337704Y-104615752D01*
X181317167Y-104574678D01*
X181296829Y-104563084D01*
X181109283Y-104500568D01*
X181109283Y-104206108D01*
X181296829Y-104143593D01*
X181317167Y-104131999D01*
X181337704Y-104090925D01*
X181323183Y-104047360D01*
X181282108Y-104026823D01*
X181258882Y-104029751D01*
X180458881Y-104296417D01*
X180438543Y-104308011D01*
X180436538Y-104312021D01*
X180432528Y-104314026D01*
X180426512Y-104332071D01*
X180418006Y-104349085D01*
X180252775Y-104349085D01*
X180252775Y-103096196D01*
X180341664Y-103096196D01*
X180341664Y-103286672D01*
X180346231Y-103309633D01*
X180378703Y-103342105D01*
X180424625Y-103342105D01*
X180457097Y-103309633D01*
X180461664Y-103286672D01*
X180461664Y-103156196D01*
X181484521Y-103156196D01*
X181484521Y-103286672D01*
X181489088Y-103309633D01*
X181521560Y-103342105D01*
X181567482Y-103342105D01*
X181599954Y-103309633D01*
X181604521Y-103286672D01*
X181604521Y-103096196D01*
X181599954Y-103073235D01*
X181567482Y-103040763D01*
X181544521Y-103036196D01*
X180401664Y-103036196D01*
X180378703Y-103040763D01*
X180346231Y-103073235D01*
X180341664Y-103096196D01*
X180252775Y-103096196D01*
X180252775Y-102947307D01*
X181693410Y-102947307D01*
X181693410Y-105759370D01*
G37*
G36*
X140328537Y-104404392D02*
G01*
X140387823Y-104463678D01*
X140418622Y-104525276D01*
X140453328Y-104664096D01*
X140453328Y-104763613D01*
X140418622Y-104902432D01*
X140387824Y-104964030D01*
X140328535Y-105023318D01*
X140236924Y-105053855D01*
X140116185Y-105053855D01*
X140116185Y-104373855D01*
X140236924Y-104373855D01*
X140328537Y-104404392D01*
G37*
G36*
X141119359Y-105529410D02*
G01*
X138040629Y-105529410D01*
X138040629Y-104237664D01*
X138129518Y-104237664D01*
X138129518Y-105380521D01*
X138134085Y-105403482D01*
X138166557Y-105435954D01*
X138189518Y-105440521D01*
X138379994Y-105440521D01*
X138402955Y-105435954D01*
X138435427Y-105403482D01*
X138435427Y-105357560D01*
X138402955Y-105325088D01*
X138379994Y-105320521D01*
X138249518Y-105320521D01*
X138249518Y-104297664D01*
X138379994Y-104297664D01*
X138402955Y-104293097D01*
X138405158Y-104290894D01*
X138515037Y-104290894D01*
X138515037Y-104336816D01*
X138547509Y-104369288D01*
X138570470Y-104373855D01*
X138739041Y-104373855D01*
X138739041Y-105113855D01*
X138743608Y-105136816D01*
X138776080Y-105169288D01*
X138822002Y-105169288D01*
X138854474Y-105136816D01*
X138859041Y-105113855D01*
X138859041Y-104373855D01*
X139027613Y-104373855D01*
X139050574Y-104369288D01*
X139083046Y-104336816D01*
X139083046Y-104325499D01*
X139159229Y-104325499D01*
X139168166Y-104347137D01*
X139412644Y-104713855D01*
X139168166Y-105080573D01*
X139159229Y-105102211D01*
X139168236Y-105147242D01*
X139206445Y-105172715D01*
X139251476Y-105163708D01*
X139268012Y-105147137D01*
X139484756Y-104822021D01*
X139701500Y-105147137D01*
X139718037Y-105163709D01*
X139763067Y-105172715D01*
X139801277Y-105147242D01*
X139810283Y-105102211D01*
X139801346Y-105080573D01*
X139556867Y-104713855D01*
X139801346Y-104347137D01*
X139810283Y-104325499D01*
X139807954Y-104313855D01*
X139996185Y-104313855D01*
X139996185Y-105113855D01*
X140000752Y-105136816D01*
X140033224Y-105169288D01*
X140056185Y-105173855D01*
X140246661Y-105173855D01*
X140256094Y-105171978D01*
X140265635Y-105170776D01*
X140379921Y-105132681D01*
X140382531Y-105131193D01*
X140383909Y-105131193D01*
X140391904Y-105125850D01*
X140400259Y-105121088D01*
X140400875Y-105119855D01*
X140403374Y-105118186D01*
X140479564Y-105041995D01*
X140484907Y-105033998D01*
X140490803Y-105026402D01*
X140528898Y-104950212D01*
X140530634Y-104943870D01*
X140533440Y-104937931D01*
X140571537Y-104785550D01*
X140571894Y-104778205D01*
X140573328Y-104770998D01*
X140573328Y-104656712D01*
X140571894Y-104649504D01*
X140571537Y-104642160D01*
X140533440Y-104489779D01*
X140530634Y-104483838D01*
X140528898Y-104477499D01*
X140490803Y-104401307D01*
X140484900Y-104393701D01*
X140479563Y-104385714D01*
X140403373Y-104309524D01*
X140400875Y-104307855D01*
X140400259Y-104306622D01*
X140391897Y-104301855D01*
X140383908Y-104296517D01*
X140382531Y-104296517D01*
X140379921Y-104295029D01*
X140265635Y-104256934D01*
X140256094Y-104255731D01*
X140246661Y-104253855D01*
X140056185Y-104253855D01*
X140033224Y-104258422D01*
X140000752Y-104290894D01*
X139996185Y-104313855D01*
X139807954Y-104313855D01*
X139801277Y-104280468D01*
X139763067Y-104254995D01*
X139718037Y-104264001D01*
X139701500Y-104280573D01*
X139484756Y-104605688D01*
X139268012Y-104280573D01*
X139251476Y-104264002D01*
X139206445Y-104254995D01*
X139168236Y-104280468D01*
X139159229Y-104325499D01*
X139083046Y-104325499D01*
X139083046Y-104290894D01*
X139050574Y-104258422D01*
X139027613Y-104253855D01*
X138570470Y-104253855D01*
X138547509Y-104258422D01*
X138515037Y-104290894D01*
X138405158Y-104290894D01*
X138435427Y-104260625D01*
X138435427Y-104214703D01*
X140724561Y-104214703D01*
X140724561Y-104260625D01*
X140757033Y-104293097D01*
X140779994Y-104297664D01*
X140910470Y-104297664D01*
X140910470Y-105320521D01*
X140779994Y-105320521D01*
X140757033Y-105325088D01*
X140724561Y-105357560D01*
X140724561Y-105403482D01*
X140757033Y-105435954D01*
X140779994Y-105440521D01*
X140970470Y-105440521D01*
X140993431Y-105435954D01*
X141025903Y-105403482D01*
X141030470Y-105380521D01*
X141030470Y-104237664D01*
X141025903Y-104214703D01*
X140993431Y-104182231D01*
X140970470Y-104177664D01*
X140779994Y-104177664D01*
X140757033Y-104182231D01*
X140724561Y-104214703D01*
X138435427Y-104214703D01*
X138402955Y-104182231D01*
X138379994Y-104177664D01*
X138189518Y-104177664D01*
X138166557Y-104182231D01*
X138134085Y-104214703D01*
X138129518Y-104237664D01*
X138040629Y-104237664D01*
X138040629Y-104088775D01*
X141119359Y-104088775D01*
X141119359Y-105529410D01*
G37*
D10*
X171798666Y-98222819D02*
X171798666Y-98937104D01*
X171798666Y-98937104D02*
X171751047Y-99079961D01*
X171751047Y-99079961D02*
X171655809Y-99175200D01*
X171655809Y-99175200D02*
X171512952Y-99222819D01*
X171512952Y-99222819D02*
X171417714Y-99222819D01*
X172703428Y-98556152D02*
X172703428Y-99222819D01*
X172465333Y-98175200D02*
X172227238Y-98889485D01*
X172227238Y-98889485D02*
X172846285Y-98889485D01*
X139270095Y-115522819D02*
X139270095Y-116332342D01*
X139270095Y-116332342D02*
X139317714Y-116427580D01*
X139317714Y-116427580D02*
X139365333Y-116475200D01*
X139365333Y-116475200D02*
X139460571Y-116522819D01*
X139460571Y-116522819D02*
X139651047Y-116522819D01*
X139651047Y-116522819D02*
X139746285Y-116475200D01*
X139746285Y-116475200D02*
X139793904Y-116427580D01*
X139793904Y-116427580D02*
X139841523Y-116332342D01*
X139841523Y-116332342D02*
X139841523Y-115522819D01*
X140270095Y-115618057D02*
X140317714Y-115570438D01*
X140317714Y-115570438D02*
X140412952Y-115522819D01*
X140412952Y-115522819D02*
X140651047Y-115522819D01*
X140651047Y-115522819D02*
X140746285Y-115570438D01*
X140746285Y-115570438D02*
X140793904Y-115618057D01*
X140793904Y-115618057D02*
X140841523Y-115713295D01*
X140841523Y-115713295D02*
X140841523Y-115808533D01*
X140841523Y-115808533D02*
X140793904Y-115951390D01*
X140793904Y-115951390D02*
X140222476Y-116522819D01*
X140222476Y-116522819D02*
X140841523Y-116522819D01*
X150270095Y-106522819D02*
X150270095Y-107332342D01*
X150270095Y-107332342D02*
X150317714Y-107427580D01*
X150317714Y-107427580D02*
X150365333Y-107475200D01*
X150365333Y-107475200D02*
X150460571Y-107522819D01*
X150460571Y-107522819D02*
X150651047Y-107522819D01*
X150651047Y-107522819D02*
X150746285Y-107475200D01*
X150746285Y-107475200D02*
X150793904Y-107427580D01*
X150793904Y-107427580D02*
X150841523Y-107332342D01*
X150841523Y-107332342D02*
X150841523Y-106522819D01*
X151841523Y-107522819D02*
X151270095Y-107522819D01*
X151555809Y-107522819D02*
X151555809Y-106522819D01*
X151555809Y-106522819D02*
X151460571Y-106665676D01*
X151460571Y-106665676D02*
X151365333Y-106760914D01*
X151365333Y-106760914D02*
X151270095Y-106808533D01*
X126865333Y-105522819D02*
X126389143Y-105522819D01*
X126389143Y-105522819D02*
X126389143Y-104522819D01*
X127722476Y-105522819D02*
X127151048Y-105522819D01*
X127436762Y-105522819D02*
X127436762Y-104522819D01*
X127436762Y-104522819D02*
X127341524Y-104665676D01*
X127341524Y-104665676D02*
X127246286Y-104760914D01*
X127246286Y-104760914D02*
X127151048Y-104808533D01*
D11*
X143394742Y-118295500D02*
X143869258Y-118295500D01*
X143394742Y-119340500D02*
X143869258Y-119340500D01*
X163494500Y-106245500D02*
X163494500Y-112055500D01*
X167794500Y-106245500D02*
X163494500Y-106245500D01*
X167794500Y-106245500D02*
X167794500Y-112055500D01*
X121719500Y-98883000D02*
X121069500Y-98883000D01*
X121719500Y-98883000D02*
X122369500Y-98883000D01*
X121719500Y-102003000D02*
X121069500Y-102003000D01*
X121719500Y-102003000D02*
X122369500Y-102003000D01*
X123122000Y-102283000D02*
X122642000Y-102283000D01*
X122882000Y-101953000D01*
X123122000Y-102283000D01*
G36*
X123122000Y-102283000D02*
G01*
X122642000Y-102283000D01*
X122882000Y-101953000D01*
X123122000Y-102283000D01*
G37*
X176429500Y-98223000D02*
X176429500Y-99733000D01*
X176429500Y-103233000D02*
X176429500Y-101833000D01*
X176429500Y-106733000D02*
X176429500Y-105333000D01*
X176429500Y-110233000D02*
X176429500Y-108833000D01*
X176429500Y-113843000D02*
X176429500Y-112333000D01*
X176429500Y-113843000D02*
X185849500Y-113843000D01*
X185849500Y-98223000D02*
X176429500Y-98223000D01*
X185849500Y-113843000D02*
X185849500Y-98223000D01*
X161759500Y-102455742D02*
X161759500Y-102930258D01*
X162804500Y-102455742D02*
X162804500Y-102930258D01*
X168637000Y-105395064D02*
X168637000Y-104940936D01*
X170107000Y-105395064D02*
X170107000Y-104940936D01*
X120432000Y-105803000D02*
X124342000Y-105803000D01*
X124342000Y-103933000D02*
X120432000Y-103933000D01*
X124342000Y-105803000D02*
X124342000Y-103933000D01*
X142819742Y-98995500D02*
X143294258Y-98995500D01*
X142819742Y-100040500D02*
X143294258Y-100040500D01*
X142769742Y-102695500D02*
X143244258Y-102695500D01*
X142769742Y-103740500D02*
X143244258Y-103740500D01*
X159709500Y-101580742D02*
X159709500Y-102055258D01*
X160754500Y-101580742D02*
X160754500Y-102055258D01*
X138172000Y-102483000D02*
X138172000Y-103953000D01*
X138172000Y-103953000D02*
X140457000Y-103953000D01*
X140457000Y-102483000D02*
X138172000Y-102483000D01*
X130994258Y-98995500D02*
X130519742Y-98995500D01*
X130994258Y-100040500D02*
X130519742Y-100040500D01*
X173139500Y-98233000D02*
X173139500Y-99743000D01*
X173139500Y-103243000D02*
X173139500Y-101843000D01*
X173139500Y-106743000D02*
X173139500Y-105343000D01*
X173139500Y-110243000D02*
X173139500Y-108843000D01*
X173139500Y-113853000D02*
X173139500Y-112343000D01*
X173139500Y-113853000D02*
X182559500Y-113853000D01*
X182559500Y-98233000D02*
X173139500Y-98233000D01*
X182559500Y-113853000D02*
X182559500Y-98233000D01*
X159709500Y-105780258D02*
X159709500Y-105305742D01*
X160754500Y-105780258D02*
X160754500Y-105305742D01*
X133522000Y-100630500D02*
X133522000Y-99980500D01*
X133522000Y-100630500D02*
X133522000Y-101280500D01*
X136642000Y-100630500D02*
X136642000Y-99980500D01*
X136642000Y-100630500D02*
X136642000Y-101280500D01*
X136922000Y-99708000D02*
X136592000Y-99468000D01*
X136922000Y-99228000D01*
X136922000Y-99708000D01*
G36*
X136922000Y-99708000D02*
G01*
X136592000Y-99468000D01*
X136922000Y-99228000D01*
X136922000Y-99708000D01*
G37*
X152032000Y-100528000D02*
X155942000Y-100528000D01*
X155942000Y-98658000D02*
X152032000Y-98658000D01*
X155942000Y-100528000D02*
X155942000Y-98658000D01*
X139397000Y-112258580D02*
X139397000Y-111977420D01*
X140417000Y-112258580D02*
X140417000Y-111977420D01*
X149622000Y-114802420D02*
X149622000Y-115083580D01*
X150642000Y-114802420D02*
X150642000Y-115083580D01*
X130519742Y-101295500D02*
X130994258Y-101295500D01*
X130519742Y-102340500D02*
X130994258Y-102340500D01*
X148309500Y-102205258D02*
X148309500Y-101730742D01*
X149354500Y-102205258D02*
X149354500Y-101730742D01*
X144847000Y-98783000D02*
X144847000Y-100253000D01*
X144847000Y-100253000D02*
X147132000Y-100253000D01*
X147132000Y-98783000D02*
X144847000Y-98783000D01*
X146069742Y-100745500D02*
X146544258Y-100745500D01*
X146069742Y-101790500D02*
X146544258Y-101790500D01*
X126419500Y-98908000D02*
X125769500Y-98908000D01*
X126419500Y-98908000D02*
X127069500Y-98908000D01*
X126419500Y-102028000D02*
X125769500Y-102028000D01*
X126419500Y-102028000D02*
X127069500Y-102028000D01*
X127822000Y-102308000D02*
X127342000Y-102308000D01*
X127582000Y-101978000D01*
X127822000Y-102308000D01*
G36*
X127822000Y-102308000D02*
G01*
X127342000Y-102308000D01*
X127582000Y-101978000D01*
X127822000Y-102308000D01*
G37*
X120119500Y-113590500D02*
X124329500Y-113590500D01*
X124329500Y-110570500D02*
X120119500Y-110570500D01*
X124329500Y-113590500D02*
X124329500Y-110570500D01*
X165822000Y-114868000D02*
X165822000Y-118168000D01*
X165822000Y-114868000D02*
X171332000Y-114868000D01*
X165822000Y-118168000D02*
X171332000Y-118168000D01*
X163494500Y-105565500D02*
X163494500Y-99755500D01*
X163494500Y-105565500D02*
X167794500Y-105565500D01*
X167794500Y-105565500D02*
X167794500Y-99755500D01*
D10*
X142882000Y-112218000D02*
X147032000Y-112218000D01*
X142882000Y-117368000D02*
X147032000Y-117368000D01*
D11*
X142457000Y-112293000D02*
X142217000Y-111963000D01*
X142697000Y-111963000D01*
X142457000Y-112293000D01*
G36*
X142457000Y-112293000D02*
G01*
X142217000Y-111963000D01*
X142697000Y-111963000D01*
X142457000Y-112293000D01*
G37*
X146069742Y-102695500D02*
X146544258Y-102695500D01*
X146069742Y-103740500D02*
X146544258Y-103740500D01*
X148309500Y-105180742D02*
X148309500Y-105655258D01*
X149354500Y-105180742D02*
X149354500Y-105655258D01*
X168637000Y-101907564D02*
X168637000Y-101453436D01*
X170107000Y-101907564D02*
X170107000Y-101453436D01*
X153722000Y-111658000D02*
X153722000Y-114608000D01*
X153722000Y-120178000D02*
X153722000Y-117228000D01*
X161177563Y-111658000D02*
X153722000Y-111658000D01*
X161177563Y-120178000D02*
X153722000Y-120178000D01*
X162242000Y-112722437D02*
X161177563Y-111658000D01*
X162242000Y-112722437D02*
X162242000Y-114608000D01*
X162242000Y-119113563D02*
X161177563Y-120178000D01*
X162242000Y-119113563D02*
X162242000Y-117228000D01*
D12*
X152582000Y-101123000D02*
X156582000Y-101123000D01*
X152582000Y-106163000D02*
X156582000Y-106163000D01*
D13*
X150237000Y-101148000D02*
G75*
G02*
X150037000Y-101148000I-100000J0D01*
G01*
X150037000Y-101148000D02*
G75*
G02*
X150237000Y-101148000I100000J0D01*
G01*
D11*
X125522000Y-105883000D02*
X125522000Y-118903000D01*
X125522000Y-105883000D02*
X129072000Y-105883000D01*
X125522000Y-118903000D02*
X129072000Y-118903000D01*
X138542000Y-105883000D02*
X134992000Y-105883000D01*
X138542000Y-105883000D02*
X138542000Y-118903000D01*
X138542000Y-118903000D02*
X134992000Y-118903000D01*
X120127000Y-109678000D02*
X124337000Y-109678000D01*
X124337000Y-106658000D02*
X120127000Y-106658000D01*
X124337000Y-109678000D02*
X124337000Y-106658000D01*
X152227000Y-110548000D02*
X152227000Y-109218000D01*
X153557000Y-110548000D02*
X152227000Y-110548000D01*
X154827000Y-107888000D02*
X157427000Y-107888000D01*
X154827000Y-110548000D02*
X154827000Y-107888000D01*
X154827000Y-110548000D02*
X157427000Y-110548000D01*
X157427000Y-110548000D02*
X157427000Y-107888000D01*
X138172000Y-100533000D02*
X138172000Y-102003000D01*
X138172000Y-102003000D02*
X140457000Y-102003000D01*
X140457000Y-100533000D02*
X138172000Y-100533000D01*
X148667000Y-108143000D02*
X143157000Y-108143000D01*
X148667000Y-111443000D02*
X143157000Y-111443000D01*
X148667000Y-111443000D02*
X148667000Y-108143000D01*
X157691420Y-99083000D02*
X157972580Y-99083000D01*
X157691420Y-100103000D02*
X157972580Y-100103000D01*
X146969742Y-118295500D02*
X147444258Y-118295500D01*
X146969742Y-119340500D02*
X147444258Y-119340500D01*
X142769742Y-100745500D02*
X143244258Y-100745500D01*
X142769742Y-101790500D02*
X143244258Y-101790500D01*
M02*
