G04 #@! TF.GenerationSoftware,KiCad,Pcbnew,8.0.6*
G04 #@! TF.CreationDate,2024-11-11T12:49:33-08:00*
G04 #@! TF.ProjectId,pi-zero-serial-hat,70692d7a-6572-46f2-9d73-657269616c2d,1.0*
G04 #@! TF.SameCoordinates,Original*
G04 #@! TF.FileFunction,Soldermask,Bot*
G04 #@! TF.FilePolarity,Negative*
%FSLAX46Y46*%
G04 Gerber Fmt 4.6, Leading zero omitted, Abs format (unit mm)*
G04 Created by KiCad (PCBNEW 8.0.6) date 2024-11-11 12:49:33*
%MOMM*%
%LPD*%
G01*
G04 APERTURE LIST*
%ADD10R,1.700000X1.700000*%
%ADD11O,1.700000X1.700000*%
%ADD12C,2.700000*%
%ADD13C,1.700000*%
G04 APERTURE END LIST*
D10*
X121732000Y-100828000D03*
D11*
X121732000Y-103368000D03*
D12*
X121032000Y-94568000D03*
X179032000Y-94568000D03*
X179032000Y-117568000D03*
X121032000Y-117568000D03*
D10*
X143607000Y-103068000D03*
D11*
X146147000Y-103068000D03*
D13*
X177532000Y-103818000D03*
X177532000Y-100317998D03*
D10*
X125932000Y-95858000D03*
D11*
X125932000Y-93318000D03*
X128472000Y-95858000D03*
X128472000Y-93318000D03*
X131012000Y-95858000D03*
X131012000Y-93318000D03*
X133552000Y-95858000D03*
X133552000Y-93318000D03*
X136092000Y-95858000D03*
X136092000Y-93318000D03*
X138632000Y-95858000D03*
X138632000Y-93318000D03*
X141172000Y-95858000D03*
X141172000Y-93318000D03*
X143712000Y-95858000D03*
X143712000Y-93318000D03*
X146252000Y-95858000D03*
X146252000Y-93318000D03*
X148792000Y-95858000D03*
X148792000Y-93318000D03*
X151332000Y-95858000D03*
X151332000Y-93318000D03*
X153872000Y-95858000D03*
X153872000Y-93318000D03*
X156412000Y-95858000D03*
X156412000Y-93318000D03*
X158952000Y-95858000D03*
X158952000Y-93318000D03*
X161492000Y-95858000D03*
X161492000Y-93318000D03*
X164032000Y-95858000D03*
X164032000Y-93318000D03*
X166572000Y-95858000D03*
X166572000Y-93318000D03*
X169112000Y-95858000D03*
X169112000Y-93318000D03*
X171652000Y-95858000D03*
X171652000Y-93318000D03*
X174192000Y-95858000D03*
X174192000Y-93318000D03*
M02*
