G04 #@! TF.GenerationSoftware,KiCad,Pcbnew,8.0.7*
G04 #@! TF.CreationDate,2024-12-20T21:26:08-08:00*
G04 #@! TF.ProjectId,pi-zero-serial-hat,70692d7a-6572-46f2-9d73-657269616c2d,1.0*
G04 #@! TF.SameCoordinates,Original*
G04 #@! TF.FileFunction,Paste,Top*
G04 #@! TF.FilePolarity,Positive*
%FSLAX46Y46*%
G04 Gerber Fmt 4.6, Leading zero omitted, Abs format (unit mm)*
G04 Created by KiCad (PCBNEW 8.0.7) date 2024-12-20 21:26:08*
%MOMM*%
%LPD*%
G01*
G04 APERTURE LIST*
G04 Aperture macros list*
%AMRoundRect*
0 Rectangle with rounded corners*
0 $1 Rounding radius*
0 $2 $3 $4 $5 $6 $7 $8 $9 X,Y pos of 4 corners*
0 Add a 4 corners polygon primitive as box body*
4,1,4,$2,$3,$4,$5,$6,$7,$8,$9,$2,$3,0*
0 Add four circle primitives for the rounded corners*
1,1,$1+$1,$2,$3*
1,1,$1+$1,$4,$5*
1,1,$1+$1,$6,$7*
1,1,$1+$1,$8,$9*
0 Add four rect primitives between the rounded corners*
20,1,$1+$1,$2,$3,$4,$5,0*
20,1,$1+$1,$4,$5,$6,$7,0*
20,1,$1+$1,$6,$7,$8,$9,0*
20,1,$1+$1,$8,$9,$2,$3,0*%
G04 Aperture macros list end*
%ADD10RoundRect,0.225000X0.250000X-0.225000X0.250000X0.225000X-0.250000X0.225000X-0.250000X-0.225000X0*%
%ADD11R,1.550000X0.600000*%
%ADD12R,2.600000X3.100000*%
%ADD13RoundRect,0.250000X0.412500X0.925000X-0.412500X0.925000X-0.412500X-0.925000X0.412500X-0.925000X0*%
%ADD14RoundRect,0.250000X0.450000X0.425000X-0.450000X0.425000X-0.450000X-0.425000X0.450000X-0.425000X0*%
%ADD15RoundRect,0.250000X0.900000X-1.000000X0.900000X1.000000X-0.900000X1.000000X-0.900000X-1.000000X0*%
%ADD16RoundRect,0.218750X-0.218750X-0.256250X0.218750X-0.256250X0.218750X0.256250X-0.218750X0.256250X0*%
%ADD17RoundRect,0.250001X-0.799999X1.999999X-0.799999X-1.999999X0.799999X-1.999999X0.799999X1.999999X0*%
%ADD18RoundRect,0.225000X0.225000X0.250000X-0.225000X0.250000X-0.225000X-0.250000X0.225000X-0.250000X0*%
%ADD19RoundRect,0.250000X-1.000000X-0.900000X1.000000X-0.900000X1.000000X0.900000X-1.000000X0.900000X0*%
%ADD20RoundRect,0.200000X-0.200000X-0.275000X0.200000X-0.275000X0.200000X0.275000X-0.200000X0.275000X0*%
%ADD21RoundRect,0.200000X0.275000X-0.200000X0.275000X0.200000X-0.275000X0.200000X-0.275000X-0.200000X0*%
%ADD22R,5.400000X2.900000*%
%ADD23RoundRect,0.250000X-1.425000X0.362500X-1.425000X-0.362500X1.425000X-0.362500X1.425000X0.362500X0*%
%ADD24RoundRect,0.250000X1.425000X-0.362500X1.425000X0.362500X-1.425000X0.362500X-1.425000X-0.362500X0*%
%ADD25RoundRect,0.250000X-0.900000X1.000000X-0.900000X-1.000000X0.900000X-1.000000X0.900000X1.000000X0*%
%ADD26RoundRect,0.250000X1.000000X0.650000X-1.000000X0.650000X-1.000000X-0.650000X1.000000X-0.650000X0*%
%ADD27RoundRect,0.073750X-0.911250X-0.221250X0.911250X-0.221250X0.911250X0.221250X-0.911250X0.221250X0*%
%ADD28RoundRect,0.200000X-0.275000X0.200000X-0.275000X-0.200000X0.275000X-0.200000X0.275000X0.200000X0*%
%ADD29RoundRect,0.218750X0.256250X-0.218750X0.256250X0.218750X-0.256250X0.218750X-0.256250X-0.218750X0*%
%ADD30RoundRect,0.225000X-0.250000X0.225000X-0.250000X-0.225000X0.250000X-0.225000X0.250000X0.225000X0*%
G04 APERTURE END LIST*
D10*
X149132000Y-126643000D03*
X149132000Y-125093000D03*
D11*
X151532000Y-126658000D03*
X151532000Y-127928000D03*
X151532000Y-129198000D03*
X151532000Y-130468000D03*
X156932000Y-130468000D03*
X156932000Y-129198000D03*
X156932000Y-127928000D03*
X156932000Y-126658000D03*
D12*
X154232000Y-128563000D03*
D13*
X132032000Y-131318000D03*
X128957000Y-131318000D03*
D14*
X147022000Y-100818000D03*
X144322000Y-100818000D03*
D15*
X162482000Y-113718000D03*
X162482000Y-109418000D03*
D16*
X146694500Y-116068000D03*
X148269500Y-116068000D03*
D17*
X165932000Y-123868000D03*
X165932000Y-131068000D03*
D16*
X146732000Y-113818000D03*
X148307000Y-113818000D03*
D18*
X132307000Y-123168000D03*
X130757000Y-123168000D03*
D19*
X169284500Y-118418000D03*
X173584500Y-118418000D03*
D20*
X157312000Y-112318000D03*
X158962000Y-112318000D03*
D21*
X121032000Y-107218000D03*
X121032000Y-105568000D03*
D22*
X140232000Y-121268000D03*
X140232000Y-131168000D03*
D20*
X153832000Y-116068000D03*
X155482000Y-116068000D03*
X150157000Y-116068000D03*
X151807000Y-116068000D03*
D23*
X167482000Y-100068000D03*
X167482000Y-105993000D03*
D24*
X167482000Y-114493000D03*
X167482000Y-108568000D03*
D20*
X157312000Y-106568000D03*
X158962000Y-106568000D03*
X155982000Y-133868000D03*
X157632000Y-133868000D03*
D21*
X145732000Y-107548000D03*
X145732000Y-105898000D03*
D25*
X162482000Y-100768000D03*
X162482000Y-105068000D03*
D26*
X158032000Y-123568000D03*
X154032000Y-123568000D03*
D20*
X153732000Y-113818000D03*
X155382000Y-113818000D03*
D27*
X149007000Y-106663000D03*
X149007000Y-107933000D03*
X149007000Y-109203000D03*
X149007000Y-110473000D03*
X153957000Y-110473000D03*
X153957000Y-109203000D03*
X153957000Y-107933000D03*
X153957000Y-106663000D03*
D20*
X157312000Y-103568000D03*
X158962000Y-103568000D03*
D28*
X145732000Y-109918000D03*
X145732000Y-111568000D03*
D20*
X150157000Y-113818000D03*
X151807000Y-113818000D03*
X150782000Y-133868000D03*
X152432000Y-133868000D03*
D13*
X132032000Y-126968000D03*
X128957000Y-126968000D03*
D29*
X121032000Y-103893000D03*
X121032000Y-102318000D03*
D18*
X147027000Y-103068000D03*
X145477000Y-103068000D03*
D30*
X159332000Y-127893000D03*
X159332000Y-129443000D03*
M02*
