G04 #@! TF.GenerationSoftware,KiCad,Pcbnew,8.0.7*
G04 #@! TF.CreationDate,2024-12-23T21:13:05-08:00*
G04 #@! TF.ProjectId,pi-zero-serial-hat,70692d7a-6572-46f2-9d73-657269616c2d,1.0*
G04 #@! TF.SameCoordinates,Original*
G04 #@! TF.FileFunction,Copper,L1,Top*
G04 #@! TF.FilePolarity,Positive*
%FSLAX46Y46*%
G04 Gerber Fmt 4.6, Leading zero omitted, Abs format (unit mm)*
G04 Created by KiCad (PCBNEW 8.0.7) date 2024-12-23 21:13:05*
%MOMM*%
%LPD*%
G01*
G04 APERTURE LIST*
G04 Aperture macros list*
%AMRoundRect*
0 Rectangle with rounded corners*
0 $1 Rounding radius*
0 $2 $3 $4 $5 $6 $7 $8 $9 X,Y pos of 4 corners*
0 Add a 4 corners polygon primitive as box body*
4,1,4,$2,$3,$4,$5,$6,$7,$8,$9,$2,$3,0*
0 Add four circle primitives for the rounded corners*
1,1,$1+$1,$2,$3*
1,1,$1+$1,$4,$5*
1,1,$1+$1,$6,$7*
1,1,$1+$1,$8,$9*
0 Add four rect primitives between the rounded corners*
20,1,$1+$1,$2,$3,$4,$5,0*
20,1,$1+$1,$4,$5,$6,$7,0*
20,1,$1+$1,$6,$7,$8,$9,0*
20,1,$1+$1,$8,$9,$2,$3,0*%
G04 Aperture macros list end*
G04 #@! TA.AperFunction,ComponentPad*
%ADD10C,6.000000*%
G04 #@! TD*
G04 #@! TA.AperFunction,SMDPad,CuDef*
%ADD11RoundRect,0.200000X-0.200000X-0.275000X0.200000X-0.275000X0.200000X0.275000X-0.200000X0.275000X0*%
G04 #@! TD*
G04 #@! TA.AperFunction,SMDPad,CuDef*
%ADD12RoundRect,0.250000X-0.900000X1.000000X-0.900000X-1.000000X0.900000X-1.000000X0.900000X1.000000X0*%
G04 #@! TD*
G04 #@! TA.AperFunction,SMDPad,CuDef*
%ADD13RoundRect,0.150000X-0.150000X0.587500X-0.150000X-0.587500X0.150000X-0.587500X0.150000X0.587500X0*%
G04 #@! TD*
G04 #@! TA.AperFunction,SMDPad,CuDef*
%ADD14RoundRect,0.200000X0.275000X-0.200000X0.275000X0.200000X-0.275000X0.200000X-0.275000X-0.200000X0*%
G04 #@! TD*
G04 #@! TA.AperFunction,SMDPad,CuDef*
%ADD15RoundRect,0.250000X-0.625000X0.312500X-0.625000X-0.312500X0.625000X-0.312500X0.625000X0.312500X0*%
G04 #@! TD*
G04 #@! TA.AperFunction,SMDPad,CuDef*
%ADD16RoundRect,0.250000X0.450000X0.425000X-0.450000X0.425000X-0.450000X-0.425000X0.450000X-0.425000X0*%
G04 #@! TD*
G04 #@! TA.AperFunction,SMDPad,CuDef*
%ADD17RoundRect,0.200000X0.200000X0.275000X-0.200000X0.275000X-0.200000X-0.275000X0.200000X-0.275000X0*%
G04 #@! TD*
G04 #@! TA.AperFunction,ComponentPad*
%ADD18R,2.500000X2.500000*%
G04 #@! TD*
G04 #@! TA.AperFunction,ComponentPad*
%ADD19C,2.500000*%
G04 #@! TD*
G04 #@! TA.AperFunction,SMDPad,CuDef*
%ADD20RoundRect,0.200000X-0.275000X0.200000X-0.275000X-0.200000X0.275000X-0.200000X0.275000X0.200000X0*%
G04 #@! TD*
G04 #@! TA.AperFunction,SMDPad,CuDef*
%ADD21RoundRect,0.218750X-0.218750X-0.256250X0.218750X-0.256250X0.218750X0.256250X-0.218750X0.256250X0*%
G04 #@! TD*
G04 #@! TA.AperFunction,SMDPad,CuDef*
%ADD22RoundRect,0.250000X-0.450000X-0.425000X0.450000X-0.425000X0.450000X0.425000X-0.450000X0.425000X0*%
G04 #@! TD*
G04 #@! TA.AperFunction,SMDPad,CuDef*
%ADD23RoundRect,0.225000X0.250000X-0.225000X0.250000X0.225000X-0.250000X0.225000X-0.250000X-0.225000X0*%
G04 #@! TD*
G04 #@! TA.AperFunction,SMDPad,CuDef*
%ADD24RoundRect,0.225000X-0.250000X0.225000X-0.250000X-0.225000X0.250000X-0.225000X0.250000X0.225000X0*%
G04 #@! TD*
G04 #@! TA.AperFunction,SMDPad,CuDef*
%ADD25RoundRect,0.150000X0.587500X0.150000X-0.587500X0.150000X-0.587500X-0.150000X0.587500X-0.150000X0*%
G04 #@! TD*
G04 #@! TA.AperFunction,SMDPad,CuDef*
%ADD26RoundRect,0.250000X0.412500X0.925000X-0.412500X0.925000X-0.412500X-0.925000X0.412500X-0.925000X0*%
G04 #@! TD*
G04 #@! TA.AperFunction,SMDPad,CuDef*
%ADD27RoundRect,0.250000X-1.000000X-0.650000X1.000000X-0.650000X1.000000X0.650000X-1.000000X0.650000X0*%
G04 #@! TD*
G04 #@! TA.AperFunction,SMDPad,CuDef*
%ADD28RoundRect,0.250000X0.900000X-1.000000X0.900000X1.000000X-0.900000X1.000000X-0.900000X-1.000000X0*%
G04 #@! TD*
G04 #@! TA.AperFunction,SMDPad,CuDef*
%ADD29R,1.550000X0.600000*%
G04 #@! TD*
G04 #@! TA.AperFunction,ComponentPad*
%ADD30C,0.600000*%
G04 #@! TD*
G04 #@! TA.AperFunction,SMDPad,CuDef*
%ADD31R,2.600000X3.100000*%
G04 #@! TD*
G04 #@! TA.AperFunction,SMDPad,CuDef*
%ADD32R,2.950000X4.500000*%
G04 #@! TD*
G04 #@! TA.AperFunction,SMDPad,CuDef*
%ADD33RoundRect,0.250000X0.625000X-0.312500X0.625000X0.312500X-0.625000X0.312500X-0.625000X-0.312500X0*%
G04 #@! TD*
G04 #@! TA.AperFunction,SMDPad,CuDef*
%ADD34RoundRect,0.250001X-0.799999X1.999999X-0.799999X-1.999999X0.799999X-1.999999X0.799999X1.999999X0*%
G04 #@! TD*
G04 #@! TA.AperFunction,SMDPad,CuDef*
%ADD35RoundRect,0.073750X-0.911250X-0.221250X0.911250X-0.221250X0.911250X0.221250X-0.911250X0.221250X0*%
G04 #@! TD*
G04 #@! TA.AperFunction,SMDPad,CuDef*
%ADD36R,5.400000X2.900000*%
G04 #@! TD*
G04 #@! TA.AperFunction,ComponentPad*
%ADD37R,1.700000X1.700000*%
G04 #@! TD*
G04 #@! TA.AperFunction,ComponentPad*
%ADD38O,1.700000X1.700000*%
G04 #@! TD*
G04 #@! TA.AperFunction,SMDPad,CuDef*
%ADD39RoundRect,0.250000X1.000000X0.650000X-1.000000X0.650000X-1.000000X-0.650000X1.000000X-0.650000X0*%
G04 #@! TD*
G04 #@! TA.AperFunction,SMDPad,CuDef*
%ADD40RoundRect,0.225000X-0.225000X-0.250000X0.225000X-0.250000X0.225000X0.250000X-0.225000X0.250000X0*%
G04 #@! TD*
G04 #@! TA.AperFunction,ComponentPad*
%ADD41C,1.700000*%
G04 #@! TD*
G04 #@! TA.AperFunction,ViaPad*
%ADD42C,0.800000*%
G04 #@! TD*
G04 #@! TA.AperFunction,Conductor*
%ADD43C,0.500000*%
G04 #@! TD*
G04 #@! TA.AperFunction,Conductor*
%ADD44C,0.250000*%
G04 #@! TD*
G04 #@! TA.AperFunction,Conductor*
%ADD45C,0.750000*%
G04 #@! TD*
G04 #@! TA.AperFunction,Conductor*
%ADD46C,0.200000*%
G04 #@! TD*
G04 APERTURE END LIST*
D10*
X121032000Y-94568000D03*
X179032000Y-94568000D03*
X179032000Y-117568000D03*
X121032000Y-117568000D03*
D11*
X148082000Y-135218000D03*
X149732000Y-135218000D03*
D12*
X164432000Y-108018000D03*
X164432000Y-112318000D03*
D13*
X126407000Y-110793000D03*
X124507000Y-110793000D03*
X125457000Y-112668000D03*
D14*
X160032000Y-108018000D03*
X160032000Y-106368000D03*
D15*
X168732000Y-108005500D03*
X168732000Y-110930500D03*
D16*
X129282000Y-123343000D03*
X126582000Y-123343000D03*
D17*
X121932000Y-103868000D03*
X120282000Y-103868000D03*
D18*
X176282000Y-108643000D03*
D19*
X176282000Y-103643000D03*
D11*
X150619500Y-112868000D03*
X152269500Y-112868000D03*
D20*
X157332000Y-103618000D03*
X157332000Y-105268000D03*
D21*
X147307000Y-112868000D03*
X148882000Y-112868000D03*
D17*
X130632000Y-106268000D03*
X128982000Y-106268000D03*
D18*
X176282000Y-129418000D03*
D19*
X176282000Y-124418000D03*
D14*
X157332000Y-108993000D03*
X157332000Y-107343000D03*
D13*
X130232000Y-110793000D03*
X128332000Y-110793000D03*
X129282000Y-112668000D03*
D22*
X154182000Y-100118000D03*
X156882000Y-100118000D03*
D23*
X147682000Y-127293000D03*
X147682000Y-125743000D03*
D24*
X157907000Y-128568000D03*
X157907000Y-130118000D03*
D11*
X128982000Y-108168000D03*
X130632000Y-108168000D03*
D14*
X145932000Y-105418000D03*
X145932000Y-103768000D03*
D21*
X120269500Y-102168000D03*
X121844500Y-102168000D03*
D11*
X153919500Y-110918000D03*
X155569500Y-110918000D03*
D25*
X126407000Y-108168000D03*
X126407000Y-106268000D03*
X124532000Y-107218000D03*
D26*
X129607000Y-131943000D03*
X126532000Y-131943000D03*
D27*
X169582000Y-118418000D03*
X173582000Y-118418000D03*
D10*
X179032000Y-143568000D03*
D28*
X164432000Y-104318000D03*
X164432000Y-100018000D03*
D29*
X150032000Y-127288000D03*
X150032000Y-128558000D03*
X150032000Y-129828000D03*
X150032000Y-131098000D03*
X155432000Y-131098000D03*
X155432000Y-129828000D03*
X155432000Y-128558000D03*
X155432000Y-127288000D03*
D30*
X152132000Y-127393000D03*
X152132000Y-128593000D03*
X152132000Y-129893000D03*
X152132000Y-130993000D03*
D31*
X152732000Y-129193000D03*
D32*
X152732000Y-129193000D03*
D30*
X153332000Y-127393000D03*
X153332000Y-128593000D03*
X153332000Y-129893000D03*
X153332000Y-130993000D03*
D11*
X153919500Y-112868000D03*
X155569500Y-112868000D03*
D10*
X121032000Y-143568000D03*
D20*
X145932000Y-107218000D03*
X145932000Y-108868000D03*
D33*
X168732000Y-104368000D03*
X168732000Y-101443000D03*
D34*
X165907000Y-123868000D03*
X165907000Y-131068000D03*
D35*
X149207000Y-104363000D03*
X149207000Y-105633000D03*
X149207000Y-106903000D03*
X149207000Y-108173000D03*
X154157000Y-108173000D03*
X154157000Y-106903000D03*
X154157000Y-105633000D03*
X154157000Y-104363000D03*
D36*
X138707000Y-121843000D03*
X138707000Y-131743000D03*
D26*
X129614500Y-127318000D03*
X126539500Y-127318000D03*
D37*
X141232000Y-105018000D03*
D38*
X141232000Y-107558000D03*
D21*
X147307000Y-110918000D03*
X148882000Y-110918000D03*
D39*
X154932000Y-124193000D03*
X150932000Y-124193000D03*
D40*
X154157000Y-102218000D03*
X155707000Y-102218000D03*
D11*
X149732000Y-133493000D03*
X151382000Y-133493000D03*
X150619500Y-110918000D03*
X152269500Y-110918000D03*
D41*
X125932000Y-95858000D03*
D37*
X125932000Y-93318000D03*
D38*
X128472000Y-95858000D03*
D37*
X128472000Y-93318000D03*
D38*
X131012000Y-95858000D03*
X131012000Y-93318000D03*
X133552000Y-95858000D03*
X133552000Y-93318000D03*
X136092000Y-95858000D03*
X136092000Y-93318000D03*
X138632000Y-95858000D03*
X138632000Y-93318000D03*
X141172000Y-95858000D03*
X141172000Y-93318000D03*
X143712000Y-95858000D03*
X143712000Y-93318000D03*
D41*
X146252000Y-95858000D03*
D38*
X146252000Y-93318000D03*
X148792000Y-95858000D03*
X148792000Y-93318000D03*
X151332000Y-95858000D03*
X151332000Y-93318000D03*
X153872000Y-95858000D03*
X153872000Y-93318000D03*
X156412000Y-95858000D03*
X156412000Y-93318000D03*
X158952000Y-95858000D03*
X158952000Y-93318000D03*
X161492000Y-95858000D03*
X161492000Y-93318000D03*
X164032000Y-95858000D03*
X164032000Y-93318000D03*
X166572000Y-95858000D03*
X166572000Y-93318000D03*
X169112000Y-95858000D03*
X169112000Y-93318000D03*
X171652000Y-95858000D03*
X171652000Y-93318000D03*
X174192000Y-95858000D03*
X174192000Y-93318000D03*
D42*
X124832000Y-126968000D03*
X144407000Y-102443000D03*
X147332000Y-105568000D03*
X124832000Y-131268000D03*
X131882000Y-106743000D03*
X149532000Y-109568000D03*
X124832000Y-132268000D03*
X142007000Y-102018000D03*
X158582000Y-106318000D03*
X152782000Y-133418000D03*
X131832000Y-107918000D03*
X144257000Y-109693000D03*
X165332000Y-134368000D03*
X124832000Y-127968000D03*
X155932000Y-108218000D03*
X137932000Y-106243000D03*
X161132000Y-105218000D03*
X147332000Y-106918000D03*
X166232000Y-134368000D03*
X124932000Y-123768000D03*
X123107000Y-103393000D03*
X157832000Y-131268000D03*
X143832000Y-103793000D03*
X140532000Y-102193000D03*
X161282000Y-104168000D03*
X160032000Y-105018000D03*
D43*
X124532000Y-100093000D02*
X124532000Y-102318000D01*
X154182000Y-100118000D02*
X154182000Y-102193000D01*
X124382000Y-102168000D02*
X124532000Y-102318000D01*
X124532000Y-102318000D02*
X124532000Y-107218000D01*
X124557000Y-100118000D02*
X124532000Y-100093000D01*
X155582000Y-109468000D02*
X156132000Y-109468000D01*
X156607000Y-108993000D02*
X157332000Y-108993000D01*
X152132000Y-106868000D02*
X152132000Y-108718000D01*
X152097000Y-106903000D02*
X152132000Y-106868000D01*
X121844500Y-102168000D02*
X124382000Y-102168000D01*
X152882000Y-109468000D02*
X155582000Y-109468000D01*
X152487000Y-104363000D02*
X152132000Y-104718000D01*
X154157000Y-104363000D02*
X152487000Y-104363000D01*
X154232000Y-102143000D02*
X154157000Y-102218000D01*
X156132000Y-109468000D02*
X156607000Y-108993000D01*
X152132000Y-108718000D02*
X152882000Y-109468000D01*
X155569500Y-110918000D02*
X155569500Y-109480500D01*
X149207000Y-106903000D02*
X152097000Y-106903000D01*
X125932000Y-93318000D02*
X124532000Y-94718000D01*
X154182000Y-100118000D02*
X124557000Y-100118000D01*
X154182000Y-102193000D02*
X154157000Y-102218000D01*
X149207000Y-105633000D02*
X149207000Y-106903000D01*
X124532000Y-98518000D02*
X124532000Y-100093000D01*
X124532000Y-110793000D02*
X124532000Y-107218000D01*
X128472000Y-93318000D02*
X125932000Y-93318000D01*
X154157000Y-102218000D02*
X154157000Y-104363000D01*
X152132000Y-104718000D02*
X152132000Y-106868000D01*
X155569500Y-109480500D02*
X155582000Y-109468000D01*
X124532000Y-94718000D02*
X124532000Y-98518000D01*
D44*
X151532000Y-130388000D02*
X152732000Y-129188000D01*
X152832000Y-129088000D02*
X152732000Y-129188000D01*
X157587000Y-129823000D02*
X157832000Y-130068000D01*
X155432000Y-129823000D02*
X153367000Y-129823000D01*
X153367000Y-129823000D02*
X152732000Y-129188000D01*
D43*
X147632000Y-125718000D02*
X147632000Y-122993000D01*
X163732000Y-123868000D02*
X165932000Y-123868000D01*
X159057000Y-128543000D02*
X163732000Y-123868000D01*
D45*
X166782000Y-118418000D02*
X165932000Y-119268000D01*
X165932000Y-119268000D02*
X165932000Y-123868000D01*
D43*
X157832000Y-128543000D02*
X159057000Y-128543000D01*
D45*
X169434500Y-118418000D02*
X166782000Y-118418000D01*
D43*
X157822000Y-128553000D02*
X157832000Y-128543000D01*
D44*
X157797000Y-128553000D02*
X157832000Y-128518000D01*
D43*
X155432000Y-128553000D02*
X157822000Y-128553000D01*
X129232000Y-123743000D02*
X129232000Y-118718000D01*
X129282000Y-123793000D02*
X129232000Y-123743000D01*
D44*
X148082000Y-136318000D02*
X147682000Y-136718000D01*
X148082000Y-135293000D02*
X148082000Y-136318000D01*
X131782000Y-136718000D02*
X129632000Y-134568000D01*
D43*
X129282000Y-112668000D02*
X125482000Y-112668000D01*
X125457000Y-114943000D02*
X125457000Y-112668000D01*
X129232000Y-118718000D02*
X125457000Y-114943000D01*
D44*
X129632000Y-134568000D02*
X129632000Y-131943000D01*
X147682000Y-136718000D02*
X131782000Y-136718000D01*
X131532000Y-109368000D02*
X131807305Y-109368000D01*
X129232000Y-105018000D02*
X128982000Y-105268000D01*
X131807305Y-109368000D02*
X132782000Y-108393305D01*
X128332000Y-110793000D02*
X128332000Y-109618000D01*
X128332000Y-110793000D02*
X130232000Y-110793000D01*
X128582000Y-109368000D02*
X131532000Y-109368000D01*
X128332000Y-109618000D02*
X128582000Y-109368000D01*
X132782000Y-108393305D02*
X132782000Y-106168000D01*
X131632000Y-105018000D02*
X129232000Y-105018000D01*
X128982000Y-105268000D02*
X128982000Y-106268000D01*
X132782000Y-106168000D02*
X131632000Y-105018000D01*
X126582000Y-106268000D02*
X128982000Y-106268000D01*
D45*
X170669500Y-101443000D02*
X172869500Y-103643000D01*
X168732000Y-101443000D02*
X170669500Y-101443000D01*
X172869500Y-103643000D02*
X176282000Y-103643000D01*
D44*
X175694500Y-104230500D02*
X176282000Y-103643000D01*
X148882000Y-112868000D02*
X150619500Y-112868000D01*
X140532000Y-102593000D02*
X140532000Y-102193000D01*
X143832000Y-103793000D02*
X143157000Y-103118000D01*
X143157000Y-103118000D02*
X141057000Y-103118000D01*
X145932000Y-107218000D02*
X144257000Y-107218000D01*
X141057000Y-103118000D02*
X140532000Y-102593000D01*
X143917000Y-107558000D02*
X141232000Y-107558000D01*
X144257000Y-107218000D02*
X143917000Y-107558000D01*
X138982000Y-109368000D02*
X139507000Y-109893000D01*
X143957000Y-105018000D02*
X141232000Y-105018000D01*
X140057000Y-105018000D02*
X138982000Y-106093000D01*
X142982000Y-109893000D02*
X145957000Y-112868000D01*
X145957000Y-112868000D02*
X147307000Y-112868000D01*
X147332000Y-112893000D02*
X147307000Y-112868000D01*
X145932000Y-105418000D02*
X144357000Y-105418000D01*
X144357000Y-105418000D02*
X143957000Y-105018000D01*
X141232000Y-105018000D02*
X140057000Y-105018000D01*
X139507000Y-109893000D02*
X142982000Y-109893000D01*
X138982000Y-106093000D02*
X138982000Y-109368000D01*
D43*
X147647000Y-127283000D02*
X147632000Y-127268000D01*
D44*
X147772000Y-127283000D02*
X147632000Y-127143000D01*
D43*
X150032000Y-127283000D02*
X147647000Y-127283000D01*
D44*
X159482000Y-104168000D02*
X164282000Y-104168000D01*
X155832000Y-105633000D02*
X154157000Y-105633000D01*
X158382000Y-105268000D02*
X159482000Y-104168000D01*
X157332000Y-105268000D02*
X156197000Y-105268000D01*
D45*
X164482000Y-104368000D02*
X164432000Y-104318000D01*
D44*
X163832000Y-105268000D02*
X164532000Y-104568000D01*
X156197000Y-105268000D02*
X155832000Y-105633000D01*
X158382000Y-105268000D02*
X157332000Y-105268000D01*
D45*
X164644500Y-104530500D02*
X164432000Y-104318000D01*
D44*
X164282000Y-104168000D02*
X164432000Y-104318000D01*
D45*
X168732000Y-104368000D02*
X164482000Y-104368000D01*
D44*
X157332000Y-107343000D02*
X158307000Y-107343000D01*
X155867000Y-106903000D02*
X156307000Y-107343000D01*
X164432000Y-107943000D02*
X163832000Y-107343000D01*
X154157000Y-106903000D02*
X155867000Y-106903000D01*
D45*
X168732000Y-108005500D02*
X164444500Y-108005500D01*
D44*
X158982000Y-108018000D02*
X160032000Y-108018000D01*
X154272000Y-107018000D02*
X154157000Y-106903000D01*
X158307000Y-107343000D02*
X158982000Y-108018000D01*
X156307000Y-107343000D02*
X157332000Y-107343000D01*
D45*
X164444500Y-108005500D02*
X164432000Y-108018000D01*
D44*
X164432000Y-108018000D02*
X160032000Y-108018000D01*
X154222000Y-106968000D02*
X154157000Y-106903000D01*
X148882000Y-110918000D02*
X150619500Y-110918000D01*
X149207000Y-108173000D02*
X149052000Y-108018000D01*
X147307000Y-108493000D02*
X146932000Y-108868000D01*
X146932000Y-108868000D02*
X145932000Y-108868000D01*
X145932000Y-110443000D02*
X145932000Y-108868000D01*
X146407000Y-110918000D02*
X145932000Y-110443000D01*
X149207000Y-108173000D02*
X147627000Y-108173000D01*
X147307000Y-110918000D02*
X146407000Y-110918000D01*
X147627000Y-108173000D02*
X147307000Y-108493000D01*
X120269500Y-102168000D02*
X120269500Y-103830500D01*
X120269500Y-103830500D02*
X120232000Y-103868000D01*
D45*
X172757000Y-108643000D02*
X176282000Y-108643000D01*
X168732000Y-110930500D02*
X170469500Y-110930500D01*
X170469500Y-110930500D02*
X172757000Y-108643000D01*
D44*
X175494500Y-107855500D02*
X176282000Y-108643000D01*
X126432000Y-108193000D02*
X126407000Y-108168000D01*
X126432000Y-110793000D02*
X126432000Y-108193000D01*
X126582000Y-108168000D02*
X128882000Y-108168000D01*
X147727000Y-104363000D02*
X147132000Y-103768000D01*
X147132000Y-103768000D02*
X145932000Y-103768000D01*
X149207000Y-104363000D02*
X147727000Y-104363000D01*
X152269500Y-112868000D02*
X153919500Y-112868000D01*
X152269500Y-110918000D02*
X152269500Y-112868000D01*
X152269500Y-110918000D02*
X153919500Y-110918000D01*
X150032000Y-131093000D02*
X150032000Y-131193000D01*
X150032000Y-131193000D02*
X149732000Y-131493000D01*
X149732000Y-131493000D02*
X149732000Y-135293000D01*
D43*
X141157000Y-95873000D02*
X141172000Y-95858000D01*
D44*
X141272000Y-95858000D02*
X141172000Y-95858000D01*
D46*
X138657000Y-95883000D02*
X138632000Y-95858000D01*
D44*
X138772000Y-95858000D02*
X138632000Y-95858000D01*
X160032000Y-106368000D02*
X160032000Y-105018000D01*
G04 #@! TA.AperFunction,Conductor*
G36*
X139929560Y-106145509D02*
G01*
X139986396Y-106188056D01*
X140018738Y-106231261D01*
X140135791Y-106318886D01*
X140135792Y-106318886D01*
X140135796Y-106318889D01*
X140250810Y-106361787D01*
X140307642Y-106404332D01*
X140332453Y-106470852D01*
X140317362Y-106540226D01*
X140299475Y-106565179D01*
X140156280Y-106720729D01*
X140156275Y-106720734D01*
X140033141Y-106909206D01*
X139942703Y-107115386D01*
X139942702Y-107115387D01*
X139887437Y-107333624D01*
X139887436Y-107333630D01*
X139887436Y-107333632D01*
X139868844Y-107558000D01*
X139886809Y-107774807D01*
X139887437Y-107782375D01*
X139942702Y-108000612D01*
X139942703Y-108000613D01*
X139942704Y-108000616D01*
X139977680Y-108080354D01*
X140033141Y-108206793D01*
X140156275Y-108395265D01*
X140156279Y-108395270D01*
X140308762Y-108560908D01*
X140330840Y-108578092D01*
X140486424Y-108699189D01*
X140684426Y-108806342D01*
X140684427Y-108806342D01*
X140684428Y-108806343D01*
X140777822Y-108838405D01*
X140897365Y-108879444D01*
X141119431Y-108916500D01*
X141119435Y-108916500D01*
X141344565Y-108916500D01*
X141344569Y-108916500D01*
X141566635Y-108879444D01*
X141779574Y-108806342D01*
X141977576Y-108699189D01*
X142155240Y-108560906D01*
X142307722Y-108395268D01*
X142335438Y-108352845D01*
X142403555Y-108248585D01*
X142457558Y-108202496D01*
X142509038Y-108191500D01*
X143979393Y-108191500D01*
X143979394Y-108191500D01*
X144101785Y-108167155D01*
X144217075Y-108119400D01*
X144320833Y-108050071D01*
X144482499Y-107888405D01*
X144544811Y-107854379D01*
X144571594Y-107851500D01*
X145036338Y-107851500D01*
X145104459Y-107871502D01*
X145125433Y-107888405D01*
X145190933Y-107953905D01*
X145224959Y-108016217D01*
X145219894Y-108087032D01*
X145190933Y-108132095D01*
X145095188Y-108227839D01*
X145095184Y-108227844D01*
X145006172Y-108375088D01*
X145006170Y-108375093D01*
X144954986Y-108539353D01*
X144948500Y-108610737D01*
X144948500Y-109125261D01*
X144954986Y-109196646D01*
X144954986Y-109196647D01*
X145006170Y-109360906D01*
X145006172Y-109360911D01*
X145095184Y-109508155D01*
X145095188Y-109508160D01*
X145216838Y-109629810D01*
X145216841Y-109629812D01*
X145216845Y-109629816D01*
X145237682Y-109642412D01*
X145285632Y-109694770D01*
X145298500Y-109750242D01*
X145298500Y-110505396D01*
X145300282Y-110514352D01*
X145322845Y-110627785D01*
X145370600Y-110743075D01*
X145439929Y-110846833D01*
X145914929Y-111321833D01*
X146003167Y-111410071D01*
X146106925Y-111479400D01*
X146222215Y-111527155D01*
X146344606Y-111551500D01*
X146396153Y-111551500D01*
X146464274Y-111571502D01*
X146503394Y-111611354D01*
X146513898Y-111628384D01*
X146513905Y-111628393D01*
X146634106Y-111748594D01*
X146634110Y-111748597D01*
X146634113Y-111748600D01*
X146634118Y-111748603D01*
X146694357Y-111785760D01*
X146741835Y-111838546D01*
X146753238Y-111908621D01*
X146724945Y-111973736D01*
X146694357Y-112000240D01*
X146634118Y-112037396D01*
X146634106Y-112037405D01*
X146513905Y-112157606D01*
X146513898Y-112157615D01*
X146503394Y-112174646D01*
X146450609Y-112222125D01*
X146396153Y-112234500D01*
X146271594Y-112234500D01*
X146203473Y-112214498D01*
X146182499Y-112197595D01*
X143385835Y-109400931D01*
X143385833Y-109400929D01*
X143282075Y-109331600D01*
X143166785Y-109283845D01*
X143093086Y-109269185D01*
X143044396Y-109259500D01*
X143044394Y-109259500D01*
X139821594Y-109259500D01*
X139753473Y-109239498D01*
X139732499Y-109222595D01*
X139652405Y-109142501D01*
X139618379Y-109080189D01*
X139615500Y-109053406D01*
X139615500Y-106407594D01*
X139635502Y-106339473D01*
X139652400Y-106318503D01*
X139796435Y-106174468D01*
X139858744Y-106140445D01*
X139929560Y-106145509D01*
G37*
G04 #@! TD.AperFunction*
G04 #@! TA.AperFunction,Conductor*
G36*
X151315621Y-107681502D02*
G01*
X151362114Y-107735158D01*
X151373500Y-107787500D01*
X151373500Y-108792712D01*
X151376243Y-108806501D01*
X151376244Y-108806501D01*
X151392654Y-108889000D01*
X151402649Y-108939247D01*
X151459826Y-109077284D01*
X151542834Y-109201515D01*
X151542837Y-109201518D01*
X151542838Y-109201519D01*
X152063631Y-109722312D01*
X152097657Y-109784624D01*
X152092592Y-109855439D01*
X152050045Y-109912275D01*
X151985938Y-109936890D01*
X151940852Y-109940986D01*
X151776593Y-109992170D01*
X151776588Y-109992172D01*
X151629344Y-110081184D01*
X151629339Y-110081188D01*
X151533595Y-110176933D01*
X151471283Y-110210959D01*
X151400468Y-110205894D01*
X151355405Y-110176933D01*
X151259660Y-110081188D01*
X151259655Y-110081184D01*
X151174887Y-110029940D01*
X151112413Y-109992173D01*
X151112412Y-109992172D01*
X151112411Y-109992172D01*
X151112406Y-109992170D01*
X150948146Y-109940986D01*
X150896223Y-109936268D01*
X150876765Y-109934500D01*
X150876762Y-109934500D01*
X150362238Y-109934500D01*
X150290853Y-109940986D01*
X150290852Y-109940986D01*
X150126593Y-109992170D01*
X150126588Y-109992172D01*
X149979344Y-110081184D01*
X149979339Y-110081188D01*
X149853103Y-110207425D01*
X149790791Y-110241451D01*
X149719976Y-110236386D01*
X149674913Y-110207425D01*
X149554893Y-110087405D01*
X149554887Y-110087400D01*
X149410192Y-109998151D01*
X149392142Y-109992170D01*
X149248814Y-109944676D01*
X149248811Y-109944675D01*
X149248809Y-109944675D01*
X149149219Y-109934500D01*
X148614789Y-109934500D01*
X148515190Y-109944675D01*
X148515187Y-109944675D01*
X148515186Y-109944676D01*
X148486532Y-109954171D01*
X148353807Y-109998151D01*
X148209112Y-110087400D01*
X148209106Y-110087405D01*
X148183595Y-110112917D01*
X148121283Y-110146943D01*
X148050468Y-110141878D01*
X148005405Y-110112917D01*
X147979893Y-110087405D01*
X147979887Y-110087400D01*
X147835192Y-109998151D01*
X147817142Y-109992170D01*
X147673814Y-109944676D01*
X147673811Y-109944675D01*
X147673809Y-109944675D01*
X147574219Y-109934500D01*
X147039789Y-109934500D01*
X146940190Y-109944675D01*
X146940187Y-109944675D01*
X146940186Y-109944676D01*
X146778808Y-109998151D01*
X146778806Y-109998151D01*
X146778806Y-109998152D01*
X146757645Y-110011204D01*
X146689165Y-110029940D01*
X146621426Y-110008679D01*
X146575936Y-109954171D01*
X146565500Y-109903962D01*
X146565500Y-109750242D01*
X146585502Y-109682121D01*
X146626317Y-109642412D01*
X146647155Y-109629816D01*
X146676813Y-109600158D01*
X146738567Y-109538405D01*
X146800879Y-109504379D01*
X146827662Y-109501500D01*
X146994393Y-109501500D01*
X146994394Y-109501500D01*
X147116785Y-109477155D01*
X147232075Y-109429400D01*
X147335833Y-109360071D01*
X147799071Y-108896833D01*
X147805686Y-108890217D01*
X147867993Y-108856190D01*
X147938810Y-108861249D01*
X147971487Y-108879343D01*
X148002113Y-108902844D01*
X148143752Y-108961513D01*
X148257589Y-108976500D01*
X150156410Y-108976499D01*
X150270248Y-108961513D01*
X150411887Y-108902844D01*
X150533515Y-108809515D01*
X150626844Y-108687887D01*
X150685513Y-108546248D01*
X150700500Y-108432411D01*
X150700499Y-107913590D01*
X150697716Y-107892453D01*
X150690163Y-107835073D01*
X150686065Y-107803945D01*
X150697005Y-107733797D01*
X150744133Y-107680699D01*
X150810987Y-107661500D01*
X151247500Y-107661500D01*
X151315621Y-107681502D01*
G37*
G04 #@! TD.AperFunction*
G04 #@! TA.AperFunction,Conductor*
G36*
X131385527Y-105671502D02*
G01*
X131406501Y-105688405D01*
X132111595Y-106393499D01*
X132145621Y-106455811D01*
X132148500Y-106482594D01*
X132148500Y-108078711D01*
X132128498Y-108146832D01*
X132111595Y-108167806D01*
X131581806Y-108697595D01*
X131519494Y-108731621D01*
X131492711Y-108734500D01*
X130004505Y-108734500D01*
X129936384Y-108714498D01*
X129889891Y-108660842D01*
X129879787Y-108590568D01*
X129883623Y-108573608D01*
X129884013Y-108571649D01*
X129886321Y-108546246D01*
X129890500Y-108500265D01*
X129890499Y-107835736D01*
X129884013Y-107764351D01*
X129832827Y-107600087D01*
X129743816Y-107452845D01*
X129743815Y-107452844D01*
X129743811Y-107452839D01*
X129622160Y-107331188D01*
X129622157Y-107331186D01*
X129622155Y-107331184D01*
X129613293Y-107325826D01*
X129565347Y-107273471D01*
X129553316Y-107203502D01*
X129581024Y-107138135D01*
X129613290Y-107110174D01*
X129622155Y-107104816D01*
X129743816Y-106983155D01*
X129832827Y-106835913D01*
X129884013Y-106671649D01*
X129890500Y-106600265D01*
X129890499Y-105935736D01*
X129884013Y-105864351D01*
X129868630Y-105814984D01*
X129867461Y-105743997D01*
X129904856Y-105683647D01*
X129968942Y-105653095D01*
X129988925Y-105651500D01*
X131317406Y-105651500D01*
X131385527Y-105671502D01*
G37*
G04 #@! TD.AperFunction*
G04 #@! TA.AperFunction,Conductor*
G36*
X155620527Y-107556502D02*
G01*
X155641501Y-107573405D01*
X155814929Y-107746833D01*
X155903167Y-107835071D01*
X156006925Y-107904400D01*
X156122215Y-107952155D01*
X156244606Y-107976500D01*
X156436338Y-107976500D01*
X156504459Y-107996502D01*
X156525433Y-108013405D01*
X156544298Y-108032270D01*
X156578324Y-108094582D01*
X156573259Y-108165397D01*
X156530712Y-108222233D01*
X156479786Y-108244944D01*
X156459024Y-108249074D01*
X156385753Y-108263649D01*
X156385751Y-108263649D01*
X156385750Y-108263650D01*
X156385749Y-108263650D01*
X156328576Y-108287332D01*
X156328575Y-108287331D01*
X156247720Y-108320823D01*
X156247716Y-108320825D01*
X156162472Y-108377784D01*
X156123488Y-108403832D01*
X156123481Y-108403837D01*
X155854724Y-108672595D01*
X155792412Y-108706621D01*
X155765629Y-108709500D01*
X153248371Y-108709500D01*
X153180250Y-108689498D01*
X153159275Y-108672595D01*
X152927404Y-108440723D01*
X152893379Y-108378411D01*
X152890500Y-108351628D01*
X152890500Y-107795895D01*
X152910502Y-107727774D01*
X152964158Y-107681281D01*
X153034432Y-107671177D01*
X153064711Y-107679483D01*
X153093752Y-107691513D01*
X153207589Y-107706500D01*
X155106410Y-107706499D01*
X155220248Y-107691513D01*
X155361887Y-107632844D01*
X155453512Y-107562537D01*
X155519731Y-107536937D01*
X155530215Y-107536500D01*
X155552406Y-107536500D01*
X155620527Y-107556502D01*
G37*
G04 #@! TD.AperFunction*
G04 #@! TA.AperFunction,Conductor*
G36*
X146866566Y-104414572D02*
G01*
X146911629Y-104443533D01*
X147234929Y-104766833D01*
X147323167Y-104855071D01*
X147426925Y-104924400D01*
X147542215Y-104972155D01*
X147654076Y-104994405D01*
X147670678Y-104997708D01*
X147670283Y-104999688D01*
X147727501Y-105022787D01*
X147768516Y-105080737D01*
X147771690Y-105151663D01*
X147765737Y-105169823D01*
X147728486Y-105259753D01*
X147713500Y-105373586D01*
X147713500Y-105892409D01*
X147713501Y-105892418D01*
X147724952Y-105979398D01*
X147728487Y-106006248D01*
X147761779Y-106086621D01*
X147787155Y-106147885D01*
X147787160Y-106147893D01*
X147820465Y-106191297D01*
X147846065Y-106257517D01*
X147831800Y-106327066D01*
X147820465Y-106344703D01*
X147787160Y-106388106D01*
X147787155Y-106388114D01*
X147728486Y-106529753D01*
X147713500Y-106643586D01*
X147713500Y-107162409D01*
X147713501Y-107162418D01*
X147728486Y-107276245D01*
X147728486Y-107276247D01*
X147728487Y-107276248D01*
X147765367Y-107365284D01*
X147772956Y-107435871D01*
X147741177Y-107499358D01*
X147680119Y-107535586D01*
X147648958Y-107539500D01*
X147564603Y-107539500D01*
X147491568Y-107554028D01*
X147442215Y-107563845D01*
X147442213Y-107563845D01*
X147442212Y-107563846D01*
X147326923Y-107611601D01*
X147223171Y-107680926D01*
X147223169Y-107680927D01*
X147067495Y-107836601D01*
X147005183Y-107870626D01*
X146934367Y-107865561D01*
X146877532Y-107823014D01*
X146852721Y-107756493D01*
X146858105Y-107710020D01*
X146859202Y-107706499D01*
X146909013Y-107546649D01*
X146915500Y-107475265D01*
X146915499Y-106960736D01*
X146909013Y-106889351D01*
X146857827Y-106725087D01*
X146768816Y-106577845D01*
X146768815Y-106577844D01*
X146768811Y-106577839D01*
X146647160Y-106456188D01*
X146647157Y-106456186D01*
X146647155Y-106456184D01*
X146596937Y-106425826D01*
X146548991Y-106373470D01*
X146536961Y-106303500D01*
X146564670Y-106238134D01*
X146596935Y-106210174D01*
X146647155Y-106179816D01*
X146768816Y-106058155D01*
X146857827Y-105910913D01*
X146909013Y-105746649D01*
X146915500Y-105675265D01*
X146915499Y-105160736D01*
X146909013Y-105089351D01*
X146857827Y-104925087D01*
X146768816Y-104777845D01*
X146768815Y-104777844D01*
X146768811Y-104777839D01*
X146673067Y-104682095D01*
X146639041Y-104619783D01*
X146644106Y-104548968D01*
X146673067Y-104503905D01*
X146733439Y-104443533D01*
X146795751Y-104409507D01*
X146866566Y-104414572D01*
G37*
G04 #@! TD.AperFunction*
G04 #@! TA.AperFunction,Conductor*
G36*
X162715622Y-104821502D02*
G01*
X162762115Y-104875158D01*
X162773501Y-104927500D01*
X162773501Y-105368544D01*
X162784112Y-105472425D01*
X162839885Y-105640738D01*
X162932970Y-105791652D01*
X162932975Y-105791658D01*
X163058341Y-105917024D01*
X163058347Y-105917029D01*
X163058348Y-105917030D01*
X163209262Y-106010115D01*
X163324789Y-106048396D01*
X163383158Y-106088807D01*
X163410414Y-106154364D01*
X163397901Y-106224249D01*
X163349592Y-106276275D01*
X163324787Y-106287603D01*
X163209265Y-106325883D01*
X163058347Y-106418970D01*
X163058341Y-106418975D01*
X162932975Y-106544341D01*
X162932970Y-106544347D01*
X162839885Y-106695262D01*
X162784113Y-106863572D01*
X162784112Y-106863579D01*
X162773500Y-106967446D01*
X162773500Y-107258500D01*
X162753498Y-107326621D01*
X162699842Y-107373114D01*
X162647500Y-107384500D01*
X160927662Y-107384500D01*
X160859541Y-107364498D01*
X160838567Y-107347595D01*
X160773067Y-107282095D01*
X160739041Y-107219783D01*
X160744106Y-107148968D01*
X160773067Y-107103905D01*
X160868811Y-107008160D01*
X160868816Y-107008155D01*
X160957827Y-106860913D01*
X161009013Y-106696649D01*
X161015500Y-106625265D01*
X161015499Y-106110736D01*
X161009013Y-106039351D01*
X160968990Y-105910911D01*
X160957829Y-105875093D01*
X160957827Y-105875088D01*
X160957827Y-105875087D01*
X160868816Y-105727845D01*
X160868815Y-105727844D01*
X160868811Y-105727839D01*
X160811908Y-105670936D01*
X160777882Y-105608624D01*
X160782947Y-105537809D01*
X160791884Y-105518841D01*
X160797649Y-105508856D01*
X160866527Y-105389556D01*
X160925542Y-105207928D01*
X160930129Y-105164284D01*
X160957142Y-105098628D01*
X161015363Y-105057997D01*
X161081637Y-105054208D01*
X161186509Y-105076500D01*
X161186513Y-105076500D01*
X161377487Y-105076500D01*
X161564288Y-105036794D01*
X161738752Y-104959118D01*
X161893253Y-104846866D01*
X161896563Y-104843190D01*
X161957009Y-104805950D01*
X161990200Y-104801500D01*
X162647501Y-104801500D01*
X162715622Y-104821502D01*
G37*
G04 #@! TD.AperFunction*
G04 #@! TA.AperFunction,Conductor*
G36*
X159199435Y-105450634D02*
G01*
X159256271Y-105493181D01*
X159264521Y-105505688D01*
X159272114Y-105518839D01*
X159288853Y-105587834D01*
X159265634Y-105654927D01*
X159252092Y-105670936D01*
X159195184Y-105727844D01*
X159106172Y-105875088D01*
X159106170Y-105875093D01*
X159054986Y-106039353D01*
X159048500Y-106110737D01*
X159048500Y-106625261D01*
X159054986Y-106696646D01*
X159054986Y-106696647D01*
X159106170Y-106860906D01*
X159106171Y-106860909D01*
X159106172Y-106860911D01*
X159106173Y-106860913D01*
X159157073Y-106945112D01*
X159158380Y-106947273D01*
X159176503Y-107015917D01*
X159154638Y-107083463D01*
X159099726Y-107128465D01*
X159029201Y-107136635D01*
X158965455Y-107105380D01*
X158961456Y-107101552D01*
X158710835Y-106850931D01*
X158710833Y-106850929D01*
X158607075Y-106781600D01*
X158491785Y-106733845D01*
X158418086Y-106719185D01*
X158369396Y-106709500D01*
X158369394Y-106709500D01*
X158227662Y-106709500D01*
X158159541Y-106689498D01*
X158138567Y-106672595D01*
X158047160Y-106581188D01*
X158047155Y-106581184D01*
X158041622Y-106577839D01*
X157899913Y-106492173D01*
X157899912Y-106492172D01*
X157899911Y-106492172D01*
X157899906Y-106492170D01*
X157735646Y-106440986D01*
X157683723Y-106436268D01*
X157664265Y-106434500D01*
X157664262Y-106434500D01*
X156999738Y-106434500D01*
X156928353Y-106440986D01*
X156928352Y-106440986D01*
X156764093Y-106492170D01*
X156764090Y-106492171D01*
X156616848Y-106581181D01*
X156610848Y-106585883D01*
X156609766Y-106584502D01*
X156555719Y-106613998D01*
X156484904Y-106608916D01*
X156439870Y-106579966D01*
X156270835Y-106410931D01*
X156270828Y-106410925D01*
X156196216Y-106361071D01*
X156150688Y-106306594D01*
X156141840Y-106236151D01*
X156172482Y-106172107D01*
X156196208Y-106151547D01*
X156235833Y-106125071D01*
X156384871Y-105976033D01*
X156447183Y-105942007D01*
X156517998Y-105947072D01*
X156563061Y-105976033D01*
X156616839Y-106029811D01*
X156616844Y-106029815D01*
X156616845Y-106029816D01*
X156764087Y-106118827D01*
X156764091Y-106118828D01*
X156764093Y-106118829D01*
X156784125Y-106125071D01*
X156928351Y-106170013D01*
X156999735Y-106176500D01*
X157664264Y-106176499D01*
X157735649Y-106170013D01*
X157899913Y-106118827D01*
X158047155Y-106029816D01*
X158074917Y-106002054D01*
X158138567Y-105938405D01*
X158200879Y-105904379D01*
X158227662Y-105901500D01*
X158444393Y-105901500D01*
X158444394Y-105901500D01*
X158566785Y-105877155D01*
X158682075Y-105829400D01*
X158785833Y-105760071D01*
X159066309Y-105479593D01*
X159128619Y-105445570D01*
X159199435Y-105450634D01*
G37*
G04 #@! TD.AperFunction*
G04 #@! TA.AperFunction,Conductor*
G36*
X179535801Y-91568730D02*
G01*
X179565105Y-91570502D01*
X179825684Y-91586264D01*
X179840765Y-91588095D01*
X180122682Y-91639758D01*
X180137429Y-91643393D01*
X180411071Y-91728663D01*
X180425283Y-91734054D01*
X180686624Y-91851674D01*
X180700090Y-91858740D01*
X180945367Y-92007016D01*
X180957866Y-92015643D01*
X181183485Y-92192404D01*
X181194865Y-92202487D01*
X181397512Y-92405134D01*
X181407596Y-92416515D01*
X181584353Y-92642130D01*
X181592985Y-92654635D01*
X181733633Y-92887295D01*
X181741255Y-92899903D01*
X181748325Y-92913375D01*
X181865943Y-93174711D01*
X181871339Y-93188937D01*
X181956602Y-93462554D01*
X181960243Y-93477328D01*
X182011902Y-93759222D01*
X182013736Y-93774326D01*
X182031270Y-94064197D01*
X182031500Y-94071805D01*
X182031500Y-144064194D01*
X182031270Y-144071802D01*
X182013736Y-144361673D01*
X182011902Y-144376777D01*
X181960243Y-144658671D01*
X181956602Y-144673445D01*
X181871339Y-144947062D01*
X181865943Y-144961288D01*
X181748325Y-145222624D01*
X181741255Y-145236096D01*
X181592990Y-145481357D01*
X181584347Y-145493877D01*
X181464967Y-145646255D01*
X181407602Y-145719477D01*
X181397512Y-145730865D01*
X181194865Y-145933512D01*
X181183477Y-145943602D01*
X180957880Y-146120346D01*
X180945357Y-146128990D01*
X180700096Y-146277255D01*
X180686624Y-146284325D01*
X180425288Y-146401943D01*
X180411062Y-146407339D01*
X180137445Y-146492602D01*
X180122671Y-146496243D01*
X179840777Y-146547902D01*
X179825673Y-146549736D01*
X179535802Y-146567270D01*
X179528194Y-146567500D01*
X120535806Y-146567500D01*
X120528198Y-146567270D01*
X120238326Y-146549736D01*
X120223222Y-146547902D01*
X119941328Y-146496243D01*
X119926558Y-146492603D01*
X119652937Y-146407339D01*
X119638711Y-146401943D01*
X119377375Y-146284325D01*
X119363903Y-146277255D01*
X119118635Y-146128985D01*
X119106130Y-146120353D01*
X118880515Y-145943596D01*
X118869134Y-145933512D01*
X118666487Y-145730865D01*
X118656404Y-145719485D01*
X118479643Y-145493866D01*
X118471016Y-145481367D01*
X118322740Y-145236090D01*
X118315674Y-145222624D01*
X118198056Y-144961288D01*
X118192663Y-144947071D01*
X118107393Y-144673429D01*
X118103758Y-144658682D01*
X118052095Y-144376765D01*
X118050264Y-144361684D01*
X118032730Y-144071801D01*
X118032500Y-144064194D01*
X118032500Y-101863280D01*
X119323500Y-101863280D01*
X119323500Y-102472710D01*
X119333451Y-102570112D01*
X119333676Y-102572314D01*
X119351443Y-102625931D01*
X119387151Y-102733692D01*
X119476400Y-102878387D01*
X119476405Y-102878393D01*
X119546425Y-102948413D01*
X119580451Y-103010725D01*
X119575386Y-103081540D01*
X119546425Y-103126603D01*
X119520188Y-103152839D01*
X119520184Y-103152844D01*
X119431172Y-103300088D01*
X119431170Y-103300093D01*
X119379986Y-103464353D01*
X119376600Y-103501621D01*
X119373555Y-103535137D01*
X119373500Y-103535737D01*
X119373500Y-104200261D01*
X119379986Y-104271646D01*
X119379986Y-104271647D01*
X119431170Y-104435906D01*
X119431172Y-104435911D01*
X119431173Y-104435913D01*
X119499517Y-104548968D01*
X119520184Y-104583155D01*
X119520188Y-104583160D01*
X119641839Y-104704811D01*
X119641844Y-104704815D01*
X119641845Y-104704816D01*
X119789087Y-104793827D01*
X119953351Y-104845013D01*
X120024735Y-104851500D01*
X120539264Y-104851499D01*
X120610649Y-104845013D01*
X120774913Y-104793827D01*
X120922155Y-104704816D01*
X121043816Y-104583155D01*
X121132827Y-104435913D01*
X121184013Y-104271649D01*
X121190500Y-104200265D01*
X121190499Y-103535736D01*
X121184013Y-103464351D01*
X121132827Y-103300087D01*
X121088794Y-103227248D01*
X121070671Y-103158609D01*
X121092536Y-103091063D01*
X121147447Y-103046061D01*
X121217972Y-103037890D01*
X121262770Y-103054827D01*
X121306080Y-103081540D01*
X121316308Y-103087849D01*
X121477686Y-103141324D01*
X121577289Y-103151500D01*
X122111710Y-103151499D01*
X122211314Y-103141324D01*
X122372692Y-103087849D01*
X122517387Y-102998600D01*
X122552582Y-102963404D01*
X122614892Y-102929380D01*
X122641677Y-102926500D01*
X123647500Y-102926500D01*
X123715621Y-102946502D01*
X123762114Y-103000158D01*
X123773500Y-103052500D01*
X123773500Y-106337348D01*
X123753498Y-106405469D01*
X123699842Y-106451962D01*
X123682664Y-106458342D01*
X123680896Y-106458855D01*
X123680895Y-106458855D01*
X123537696Y-106543544D01*
X123537689Y-106543549D01*
X123420049Y-106661189D01*
X123420044Y-106661196D01*
X123335356Y-106804394D01*
X123288937Y-106964170D01*
X123288937Y-106964171D01*
X123286000Y-107001488D01*
X123286000Y-107434511D01*
X123288937Y-107471828D01*
X123288937Y-107471829D01*
X123335356Y-107631605D01*
X123420044Y-107774803D01*
X123420049Y-107774810D01*
X123537689Y-107892450D01*
X123537696Y-107892455D01*
X123680893Y-107977142D01*
X123680894Y-107977142D01*
X123680899Y-107977145D01*
X123682646Y-107977652D01*
X123683853Y-107978423D01*
X123688174Y-107980293D01*
X123687872Y-107980989D01*
X123742482Y-108015860D01*
X123772164Y-108080354D01*
X123773500Y-108098651D01*
X123773500Y-109864066D01*
X123755954Y-109928204D01*
X123747853Y-109941901D01*
X123701438Y-110101667D01*
X123701437Y-110101671D01*
X123698500Y-110138988D01*
X123698500Y-111447011D01*
X123701437Y-111484328D01*
X123701437Y-111484329D01*
X123747856Y-111644105D01*
X123832544Y-111787303D01*
X123832549Y-111787310D01*
X123950189Y-111904950D01*
X123950196Y-111904955D01*
X124093394Y-111989643D01*
X124093397Y-111989643D01*
X124093399Y-111989645D01*
X124253169Y-112036062D01*
X124290488Y-112038999D01*
X124290489Y-112039000D01*
X124290498Y-112039000D01*
X124522500Y-112039000D01*
X124590621Y-112059002D01*
X124637114Y-112112658D01*
X124648500Y-112165000D01*
X124648500Y-113322011D01*
X124651437Y-113359328D01*
X124651437Y-113359329D01*
X124670952Y-113426500D01*
X124692741Y-113501500D01*
X124693497Y-113504099D01*
X124698500Y-113539252D01*
X124698500Y-114868295D01*
X124698500Y-115017705D01*
X124727649Y-115164247D01*
X124784826Y-115302284D01*
X124867834Y-115426515D01*
X124867838Y-115426519D01*
X128436595Y-118995276D01*
X128470621Y-119057588D01*
X128473500Y-119084371D01*
X128473500Y-122177620D01*
X128453498Y-122245741D01*
X128413648Y-122284860D01*
X128358349Y-122318968D01*
X128358341Y-122318975D01*
X128232975Y-122444341D01*
X128232970Y-122444347D01*
X128139885Y-122595262D01*
X128084113Y-122763572D01*
X128084112Y-122763579D01*
X128073500Y-122867446D01*
X128073500Y-123627213D01*
X128053498Y-123695334D01*
X127999842Y-123741827D01*
X127982715Y-123748192D01*
X127913398Y-123768368D01*
X127790261Y-123847095D01*
X127790257Y-123847098D01*
X127737347Y-123892726D01*
X127641379Y-124002952D01*
X127641377Y-124002954D01*
X127580346Y-124135760D01*
X127560502Y-124202755D01*
X127539360Y-124347373D01*
X127539360Y-124347375D01*
X127539360Y-124347377D01*
X127534656Y-126341802D01*
X127530057Y-128291775D01*
X127523748Y-130966802D01*
X127518907Y-133019479D01*
X127518907Y-133019482D01*
X127518794Y-133067500D01*
X127518953Y-133069000D01*
X127530402Y-133177282D01*
X127541608Y-133229082D01*
X127541609Y-133229087D01*
X127576400Y-133333823D01*
X127655423Y-133456784D01*
X127655424Y-133456786D01*
X127701173Y-133509582D01*
X127701175Y-133509583D01*
X127701177Y-133509586D01*
X127811632Y-133605297D01*
X127890709Y-133641411D01*
X127944577Y-133666013D01*
X127944579Y-133666013D01*
X127944580Y-133666014D01*
X128011619Y-133685699D01*
X128011623Y-133685700D01*
X128156293Y-133706500D01*
X128156297Y-133706500D01*
X128340377Y-133706500D01*
X128385785Y-133704487D01*
X128385792Y-133704486D01*
X128385800Y-133704486D01*
X128407653Y-133702545D01*
X128452718Y-133696522D01*
X128591457Y-133650551D01*
X128653978Y-133619360D01*
X128734104Y-133563886D01*
X128801494Y-133541557D01*
X128864749Y-133557792D01*
X128865112Y-133557014D01*
X128869268Y-133558952D01*
X128870261Y-133559207D01*
X128871751Y-133560110D01*
X128871761Y-133560114D01*
X128871762Y-133560115D01*
X128912132Y-133573492D01*
X128970503Y-133613904D01*
X128997760Y-133679460D01*
X128998500Y-133693096D01*
X128998500Y-134505606D01*
X128998500Y-134630394D01*
X129022845Y-134752785D01*
X129070600Y-134868075D01*
X129139929Y-134971833D01*
X131289929Y-137121833D01*
X131378167Y-137210071D01*
X131481925Y-137279400D01*
X131597215Y-137327155D01*
X131719606Y-137351500D01*
X131719607Y-137351500D01*
X147744393Y-137351500D01*
X147744394Y-137351500D01*
X147866785Y-137327155D01*
X147982075Y-137279400D01*
X148085833Y-137210071D01*
X148574071Y-136721833D01*
X148643400Y-136618075D01*
X148691155Y-136502785D01*
X148715500Y-136380394D01*
X148715500Y-136113662D01*
X148735502Y-136045541D01*
X148752405Y-136024567D01*
X148817905Y-135959067D01*
X148880217Y-135925041D01*
X148951032Y-135930106D01*
X148996095Y-135959067D01*
X149091839Y-136054811D01*
X149091844Y-136054815D01*
X149091845Y-136054816D01*
X149239087Y-136143827D01*
X149403351Y-136195013D01*
X149474735Y-136201500D01*
X149989264Y-136201499D01*
X150060649Y-136195013D01*
X150224913Y-136143827D01*
X150372155Y-136054816D01*
X150493816Y-135933155D01*
X150582827Y-135785913D01*
X150634013Y-135621649D01*
X150640500Y-135550265D01*
X150640499Y-134885736D01*
X150634013Y-134814351D01*
X150582827Y-134650087D01*
X150493816Y-134502845D01*
X150435564Y-134444593D01*
X150401541Y-134382284D01*
X150406605Y-134311468D01*
X150435564Y-134266406D01*
X150493816Y-134208155D01*
X150582827Y-134060913D01*
X150634013Y-133896649D01*
X150640500Y-133825265D01*
X150640499Y-133160736D01*
X150634013Y-133089351D01*
X150582827Y-132925087D01*
X150493816Y-132777845D01*
X150493815Y-132777844D01*
X150493811Y-132777839D01*
X150402405Y-132686433D01*
X150368379Y-132624121D01*
X150365500Y-132597338D01*
X150365500Y-132032500D01*
X150385502Y-131964379D01*
X150439158Y-131917886D01*
X150491500Y-131906500D01*
X150855632Y-131906500D01*
X150855638Y-131906500D01*
X150855645Y-131906499D01*
X150855649Y-131906499D01*
X150916196Y-131899990D01*
X150916199Y-131899989D01*
X150916201Y-131899989D01*
X151053204Y-131848889D01*
X151170261Y-131761261D01*
X151257889Y-131644204D01*
X151308989Y-131507201D01*
X151315500Y-131446638D01*
X151315500Y-130749362D01*
X151315499Y-130749350D01*
X154148500Y-130749350D01*
X154148500Y-131446649D01*
X154155009Y-131507196D01*
X154155011Y-131507204D01*
X154206110Y-131644202D01*
X154206112Y-131644207D01*
X154293738Y-131761261D01*
X154410792Y-131848887D01*
X154410794Y-131848888D01*
X154410796Y-131848889D01*
X154416534Y-131851029D01*
X154547795Y-131899988D01*
X154547803Y-131899990D01*
X154608350Y-131906499D01*
X154608355Y-131906499D01*
X154608362Y-131906500D01*
X154608368Y-131906500D01*
X156255632Y-131906500D01*
X156255638Y-131906500D01*
X156255645Y-131906499D01*
X156255649Y-131906499D01*
X156316196Y-131899990D01*
X156316199Y-131899989D01*
X156316201Y-131899989D01*
X156453204Y-131848889D01*
X156570261Y-131761261D01*
X156657889Y-131644204D01*
X156708989Y-131507201D01*
X156715500Y-131446638D01*
X156715500Y-130749362D01*
X156715499Y-130749350D01*
X156708990Y-130688803D01*
X156708988Y-130688795D01*
X156657889Y-130551797D01*
X156657887Y-130551792D01*
X156570261Y-130434738D01*
X156453207Y-130347112D01*
X156453202Y-130347110D01*
X156316204Y-130296011D01*
X156316196Y-130296009D01*
X156255649Y-130289500D01*
X156255638Y-130289500D01*
X154608362Y-130289500D01*
X154608350Y-130289500D01*
X154547803Y-130296009D01*
X154547795Y-130296011D01*
X154410797Y-130347110D01*
X154410792Y-130347112D01*
X154293738Y-130434738D01*
X154206112Y-130551792D01*
X154206110Y-130551797D01*
X154155011Y-130688795D01*
X154155009Y-130688803D01*
X154148500Y-130749350D01*
X151315499Y-130749350D01*
X151308990Y-130688803D01*
X151308989Y-130688799D01*
X151257889Y-130551796D01*
X151247943Y-130538510D01*
X151223131Y-130471992D01*
X151238221Y-130402618D01*
X151247942Y-130387491D01*
X151257889Y-130374204D01*
X151308989Y-130237201D01*
X151311161Y-130217004D01*
X151315499Y-130176649D01*
X151315500Y-130176632D01*
X151315500Y-129479367D01*
X151315499Y-129479350D01*
X151308990Y-129418803D01*
X151308989Y-129418799D01*
X151257889Y-129281796D01*
X151247943Y-129268510D01*
X151223131Y-129201992D01*
X151238221Y-129132618D01*
X151247942Y-129117491D01*
X151257889Y-129104204D01*
X151308989Y-128967201D01*
X151315500Y-128906638D01*
X151315500Y-128209362D01*
X151315499Y-128209350D01*
X151308990Y-128148803D01*
X151308989Y-128148799D01*
X151257889Y-128011796D01*
X151247943Y-127998510D01*
X151223131Y-127931992D01*
X151238221Y-127862618D01*
X151247942Y-127847491D01*
X151257889Y-127834204D01*
X151308989Y-127697201D01*
X151314003Y-127650568D01*
X151315499Y-127636649D01*
X151315500Y-127636632D01*
X151315500Y-126939367D01*
X151315499Y-126939350D01*
X151308990Y-126878803D01*
X151308988Y-126878795D01*
X151257889Y-126741797D01*
X151257887Y-126741792D01*
X151170261Y-126624738D01*
X151053207Y-126537112D01*
X151053202Y-126537110D01*
X150916204Y-126486011D01*
X150916196Y-126486009D01*
X150855649Y-126479500D01*
X150855638Y-126479500D01*
X149208362Y-126479500D01*
X149208350Y-126479500D01*
X149147803Y-126486009D01*
X149147802Y-126486010D01*
X149147799Y-126486010D01*
X149147799Y-126486011D01*
X149065904Y-126516556D01*
X149021873Y-126524500D01*
X148676313Y-126524500D01*
X148608192Y-126504498D01*
X148561699Y-126450842D01*
X148551595Y-126380568D01*
X148569072Y-126332353D01*
X148601302Y-126280101D01*
X148655236Y-126117336D01*
X148664933Y-126022425D01*
X148665500Y-126016880D01*
X148665500Y-125469119D01*
X148655236Y-125368666D01*
X148655236Y-125368664D01*
X148601302Y-125205899D01*
X148511285Y-125059960D01*
X148511284Y-125059959D01*
X148511279Y-125059953D01*
X148427405Y-124976079D01*
X148393379Y-124913767D01*
X148390500Y-124886984D01*
X148390500Y-124031983D01*
X148410502Y-123963862D01*
X148464158Y-123917369D01*
X148511959Y-123906065D01*
X148514673Y-123905967D01*
X148518165Y-123905841D01*
X148518178Y-123905840D01*
X148518186Y-123905840D01*
X148536721Y-123904834D01*
X148536726Y-123904833D01*
X148679497Y-123873640D01*
X148679498Y-123873639D01*
X148679510Y-123873637D01*
X148744952Y-123849161D01*
X148873168Y-123778999D01*
X148936752Y-123731311D01*
X149469567Y-123331700D01*
X149536065Y-123306829D01*
X149545167Y-123306500D01*
X149791946Y-123306500D01*
X149800105Y-123306292D01*
X149818067Y-123305835D01*
X149830669Y-123305193D01*
X149839571Y-123304511D01*
X149856738Y-123303199D01*
X149888872Y-123299915D01*
X149901231Y-123298652D01*
X149914037Y-123298000D01*
X151949958Y-123298000D01*
X151962763Y-123298651D01*
X152007270Y-123303199D01*
X152007279Y-123303199D01*
X152007292Y-123303201D01*
X152027973Y-123304782D01*
X152033336Y-123305193D01*
X152045939Y-123305835D01*
X152063355Y-123306278D01*
X152072058Y-123306500D01*
X152072063Y-123306500D01*
X152892500Y-123306500D01*
X152960621Y-123326502D01*
X153007114Y-123380158D01*
X153018500Y-123432500D01*
X153018500Y-125324928D01*
X153030479Y-125435205D01*
X153030480Y-125435208D01*
X153041916Y-125487216D01*
X153041917Y-125487221D01*
X153077298Y-125592344D01*
X153156866Y-125714946D01*
X153200523Y-125764877D01*
X153202414Y-125767166D01*
X153202855Y-125767545D01*
X153202856Y-125767546D01*
X153313741Y-125862764D01*
X153748146Y-126139204D01*
X154060149Y-126337750D01*
X154106878Y-126391195D01*
X154118500Y-126444049D01*
X154118500Y-126620936D01*
X154118827Y-126639273D01*
X154119145Y-126648167D01*
X154120121Y-126666379D01*
X154120122Y-126666387D01*
X154120122Y-126666391D01*
X154120123Y-126666393D01*
X154150197Y-126804667D01*
X154151186Y-126809215D01*
X154152453Y-126813529D01*
X154150769Y-126814023D01*
X154154819Y-126870850D01*
X154155853Y-126870962D01*
X154155236Y-126876700D01*
X154155294Y-126877513D01*
X154155017Y-126878729D01*
X154148500Y-126939350D01*
X154148500Y-127636649D01*
X154155009Y-127697196D01*
X154155011Y-127697204D01*
X154206110Y-127834202D01*
X154206112Y-127834207D01*
X154216057Y-127847491D01*
X154240868Y-127914011D01*
X154225777Y-127983385D01*
X154216057Y-127998509D01*
X154206112Y-128011792D01*
X154206110Y-128011797D01*
X154155011Y-128148795D01*
X154155009Y-128148803D01*
X154148500Y-128209350D01*
X154148500Y-128906649D01*
X154155009Y-128967196D01*
X154155011Y-128967204D01*
X154206110Y-129104202D01*
X154206112Y-129104207D01*
X154293738Y-129221261D01*
X154410792Y-129308887D01*
X154410794Y-129308888D01*
X154410796Y-129308889D01*
X154439095Y-129319444D01*
X154547795Y-129359988D01*
X154547803Y-129359990D01*
X154608350Y-129366499D01*
X154608355Y-129366499D01*
X154608362Y-129366500D01*
X154608368Y-129366500D01*
X156255632Y-129366500D01*
X156255638Y-129366500D01*
X156255645Y-129366499D01*
X156255649Y-129366499D01*
X156273694Y-129364558D01*
X156316201Y-129359989D01*
X156424905Y-129319443D01*
X156468938Y-129311500D01*
X157085984Y-129311500D01*
X157154105Y-129331502D01*
X157175079Y-129348405D01*
X157198953Y-129372279D01*
X157198959Y-129372284D01*
X157198960Y-129372285D01*
X157344899Y-129462302D01*
X157507664Y-129516236D01*
X157527756Y-129518288D01*
X157608120Y-129526500D01*
X157608128Y-129526500D01*
X158205880Y-129526500D01*
X158278936Y-129519035D01*
X158306336Y-129516236D01*
X158469101Y-129462302D01*
X158615040Y-129372285D01*
X158648920Y-129338404D01*
X158711230Y-129304380D01*
X158738015Y-129301500D01*
X159131701Y-129301500D01*
X159131705Y-129301500D01*
X159131706Y-129301500D01*
X159204976Y-129286925D01*
X159278247Y-129272351D01*
X159416284Y-129215174D01*
X159540515Y-129132166D01*
X164009276Y-124663405D01*
X164071588Y-124629379D01*
X164098371Y-124626500D01*
X164222500Y-124626500D01*
X164290621Y-124646502D01*
X164337114Y-124700158D01*
X164348500Y-124752500D01*
X164348500Y-125918552D01*
X164348499Y-125918552D01*
X164359112Y-126022421D01*
X164359112Y-126022423D01*
X164359113Y-126022425D01*
X164414885Y-126190738D01*
X164414886Y-126190739D01*
X164507970Y-126341651D01*
X164507975Y-126341657D01*
X164633342Y-126467024D01*
X164633348Y-126467029D01*
X164633349Y-126467030D01*
X164784262Y-126560115D01*
X164952575Y-126615887D01*
X164980906Y-126618781D01*
X165056448Y-126626500D01*
X165056456Y-126626500D01*
X166757552Y-126626500D01*
X166826798Y-126619424D01*
X166861425Y-126615887D01*
X167029738Y-126560115D01*
X167180651Y-126467030D01*
X167306030Y-126341651D01*
X167399115Y-126190738D01*
X167454887Y-126022425D01*
X167458424Y-125987798D01*
X167465500Y-125918552D01*
X167465500Y-121817447D01*
X167454887Y-121713578D01*
X167454887Y-121713575D01*
X167399115Y-121545262D01*
X167306030Y-121394349D01*
X167306029Y-121394348D01*
X167306024Y-121394342D01*
X167180657Y-121268975D01*
X167180651Y-121268970D01*
X167057759Y-121193169D01*
X167029738Y-121175885D01*
X166901866Y-121133513D01*
X166843496Y-121093100D01*
X166816240Y-121027543D01*
X166815500Y-121013909D01*
X166815500Y-119686147D01*
X166835502Y-119618026D01*
X166852405Y-119597052D01*
X167111052Y-119338405D01*
X167173364Y-119304379D01*
X167200147Y-119301500D01*
X167769329Y-119301500D01*
X167837450Y-119321502D01*
X167883943Y-119375158D01*
X167888932Y-119387863D01*
X167889883Y-119390735D01*
X167982970Y-119541652D01*
X167982975Y-119541658D01*
X168108341Y-119667024D01*
X168108347Y-119667029D01*
X168108348Y-119667030D01*
X168259262Y-119760115D01*
X168427574Y-119815887D01*
X168531455Y-119826500D01*
X170632544Y-119826499D01*
X170736426Y-119815887D01*
X170904738Y-119760115D01*
X171055652Y-119667030D01*
X171181030Y-119541652D01*
X171274115Y-119390738D01*
X171329887Y-119222426D01*
X171340500Y-119118545D01*
X171340499Y-117717456D01*
X171329887Y-117613574D01*
X171274115Y-117445262D01*
X171181030Y-117294348D01*
X171181029Y-117294347D01*
X171181024Y-117294341D01*
X171178686Y-117292003D01*
X171718500Y-117292003D01*
X171718500Y-126644007D01*
X171730237Y-126753164D01*
X171741441Y-126804667D01*
X171776109Y-126908825D01*
X171855130Y-127031784D01*
X171855131Y-127031786D01*
X171900880Y-127084582D01*
X171900882Y-127084583D01*
X171900884Y-127084586D01*
X172011339Y-127180297D01*
X172090416Y-127216411D01*
X172144284Y-127241013D01*
X172144286Y-127241013D01*
X172144287Y-127241014D01*
X172211326Y-127260699D01*
X172211330Y-127260700D01*
X172356000Y-127281500D01*
X172356004Y-127281500D01*
X178707995Y-127281500D01*
X178708000Y-127281500D01*
X178817157Y-127269764D01*
X178868668Y-127258558D01*
X178972827Y-127223890D01*
X179095782Y-127144871D01*
X179095784Y-127144868D01*
X179095786Y-127144868D01*
X179122184Y-127121993D01*
X179148586Y-127099116D01*
X179244297Y-126988661D01*
X179305014Y-126855713D01*
X179324699Y-126788674D01*
X179324700Y-126788670D01*
X179345500Y-126644000D01*
X179345500Y-122858514D01*
X179344597Y-122828074D01*
X179343725Y-122813390D01*
X179343724Y-122813373D01*
X179341015Y-122783021D01*
X179341014Y-122783018D01*
X179303231Y-122641839D01*
X179303229Y-122641836D01*
X179303229Y-122641833D01*
X179275744Y-122577596D01*
X179199714Y-122452775D01*
X179199709Y-122452770D01*
X179091596Y-122354427D01*
X179033751Y-122315250D01*
X179033745Y-122315247D01*
X179033720Y-122315234D01*
X178902289Y-122251340D01*
X176781150Y-121572577D01*
X175683098Y-121221200D01*
X175624315Y-121181388D01*
X175596387Y-121116116D01*
X175595500Y-121101195D01*
X175595500Y-117292004D01*
X175595499Y-117291992D01*
X175583764Y-117182843D01*
X175572558Y-117131332D01*
X175537890Y-117027173D01*
X175458871Y-116904218D01*
X175458870Y-116904217D01*
X175458869Y-116904215D01*
X175458868Y-116904213D01*
X175413119Y-116851417D01*
X175396347Y-116836884D01*
X175302661Y-116755703D01*
X175169715Y-116694986D01*
X175102679Y-116675302D01*
X175102675Y-116675301D01*
X175102672Y-116675300D01*
X175102670Y-116675300D01*
X174958000Y-116654500D01*
X172356000Y-116654500D01*
X172355992Y-116654500D01*
X172262104Y-116664595D01*
X172246843Y-116666236D01*
X172246841Y-116666236D01*
X172246835Y-116666237D01*
X172195332Y-116677441D01*
X172091174Y-116712109D01*
X171968215Y-116791130D01*
X171968213Y-116791131D01*
X171915417Y-116836880D01*
X171819704Y-116947337D01*
X171819703Y-116947338D01*
X171758986Y-117080284D01*
X171739302Y-117147320D01*
X171739301Y-117147324D01*
X171739301Y-117147326D01*
X171739300Y-117147330D01*
X171718502Y-117291992D01*
X171718500Y-117292003D01*
X171178686Y-117292003D01*
X171055658Y-117168975D01*
X171055652Y-117168970D01*
X171020568Y-117147330D01*
X170904738Y-117075885D01*
X170820582Y-117047999D01*
X170736427Y-117020113D01*
X170736420Y-117020112D01*
X170632553Y-117009500D01*
X168531455Y-117009500D01*
X168427574Y-117020112D01*
X168259261Y-117075885D01*
X168108347Y-117168970D01*
X168108341Y-117168975D01*
X167982975Y-117294341D01*
X167982970Y-117294347D01*
X167889883Y-117445264D01*
X167888932Y-117448137D01*
X167887744Y-117449851D01*
X167886783Y-117451914D01*
X167886430Y-117451749D01*
X167848516Y-117506507D01*
X167782959Y-117533761D01*
X167769329Y-117534500D01*
X166694979Y-117534500D01*
X166524291Y-117568452D01*
X166524286Y-117568454D01*
X166363506Y-117635052D01*
X166218802Y-117731740D01*
X166218796Y-117731745D01*
X165245745Y-118704795D01*
X165245740Y-118704801D01*
X165149052Y-118849505D01*
X165082454Y-119010286D01*
X165082452Y-119010291D01*
X165048500Y-119180979D01*
X165048500Y-120997696D01*
X165028498Y-121065817D01*
X164974842Y-121112310D01*
X164958975Y-121117563D01*
X164959104Y-121117950D01*
X164952576Y-121120112D01*
X164952575Y-121120113D01*
X164784262Y-121175885D01*
X164784260Y-121175886D01*
X164633348Y-121268970D01*
X164633342Y-121268975D01*
X164507975Y-121394342D01*
X164507970Y-121394348D01*
X164414886Y-121545260D01*
X164414885Y-121545262D01*
X164359112Y-121713578D01*
X164348500Y-121817447D01*
X164348500Y-122983500D01*
X164328498Y-123051621D01*
X164274842Y-123098114D01*
X164222500Y-123109500D01*
X163657290Y-123109500D01*
X163592749Y-123122339D01*
X163510753Y-123138649D01*
X163474094Y-123153834D01*
X163372716Y-123195825D01*
X163362397Y-123202721D01*
X163362389Y-123202725D01*
X163268571Y-123265412D01*
X163248484Y-123278835D01*
X163248482Y-123278836D01*
X163248479Y-123278839D01*
X158779724Y-127747595D01*
X158717412Y-127781621D01*
X158690629Y-127784500D01*
X158684471Y-127784500D01*
X158618324Y-127765741D01*
X158615041Y-127763716D01*
X158615040Y-127763715D01*
X158469101Y-127673698D01*
X158306336Y-127619764D01*
X158306333Y-127619763D01*
X158205880Y-127609500D01*
X158205872Y-127609500D01*
X157608128Y-127609500D01*
X157608120Y-127609500D01*
X157507666Y-127619763D01*
X157344899Y-127673698D01*
X157198954Y-127763718D01*
X157194377Y-127767338D01*
X157128535Y-127793898D01*
X157116230Y-127794500D01*
X156861591Y-127794500D01*
X156793470Y-127774498D01*
X156746977Y-127720842D01*
X156736873Y-127650568D01*
X156737303Y-127647801D01*
X156748066Y-127583172D01*
X156748066Y-127583169D01*
X156748067Y-127583163D01*
X156843987Y-123266756D01*
X156837704Y-123174468D01*
X156831991Y-123138649D01*
X156830697Y-123130533D01*
X156830696Y-123130530D01*
X156825363Y-123109500D01*
X156807960Y-123040871D01*
X156777994Y-122983500D01*
X156740298Y-122911328D01*
X156740295Y-122911324D01*
X156740293Y-122911320D01*
X156702545Y-122858905D01*
X156701337Y-122857070D01*
X156699455Y-122854614D01*
X156598037Y-122749385D01*
X156598027Y-122749376D01*
X153080831Y-120013779D01*
X153062276Y-120000006D01*
X153053201Y-119993582D01*
X153034117Y-119980704D01*
X152901169Y-119919986D01*
X152834133Y-119900302D01*
X152834129Y-119900301D01*
X152834126Y-119900300D01*
X152834124Y-119900300D01*
X152689454Y-119879500D01*
X136056000Y-119879500D01*
X136055992Y-119879500D01*
X136019319Y-119883443D01*
X136016209Y-119883778D01*
X136002741Y-119884500D01*
X135958350Y-119884500D01*
X135897803Y-119891009D01*
X135897795Y-119891011D01*
X135760797Y-119942110D01*
X135760792Y-119942112D01*
X135643738Y-120029738D01*
X135635655Y-120040536D01*
X135617324Y-120060228D01*
X135615414Y-120061883D01*
X135519704Y-120172337D01*
X135519703Y-120172338D01*
X135458986Y-120305284D01*
X135439302Y-120372320D01*
X135439301Y-120372324D01*
X135418500Y-120517003D01*
X135418500Y-123269007D01*
X135430237Y-123378164D01*
X135441441Y-123429667D01*
X135476109Y-123533825D01*
X135555130Y-123656784D01*
X135555131Y-123656786D01*
X135600880Y-123709582D01*
X135600882Y-123709583D01*
X135600884Y-123709586D01*
X135711339Y-123805297D01*
X135790416Y-123841411D01*
X135844284Y-123866013D01*
X135844286Y-123866013D01*
X135844287Y-123866014D01*
X135911326Y-123885699D01*
X135911330Y-123885700D01*
X136056000Y-123906500D01*
X146747500Y-123906500D01*
X146815621Y-123926502D01*
X146862114Y-123980158D01*
X146873500Y-124032500D01*
X146873500Y-124990529D01*
X146854741Y-125056676D01*
X146762698Y-125205899D01*
X146708763Y-125368666D01*
X146698500Y-125469119D01*
X146698500Y-126016880D01*
X146698499Y-126016880D01*
X146708763Y-126117333D01*
X146708764Y-126117336D01*
X146762698Y-126280101D01*
X146794928Y-126332353D01*
X146852715Y-126426040D01*
X146852720Y-126426046D01*
X146855579Y-126428905D01*
X146856914Y-126431351D01*
X146857268Y-126431798D01*
X146857191Y-126431858D01*
X146889605Y-126491217D01*
X146884540Y-126562032D01*
X146855579Y-126607095D01*
X146852720Y-126609953D01*
X146852715Y-126609959D01*
X146762698Y-126755899D01*
X146708763Y-126918666D01*
X146698500Y-127019119D01*
X146698500Y-127566880D01*
X146698499Y-127566880D01*
X146708763Y-127667333D01*
X146708764Y-127667336D01*
X146762698Y-127830101D01*
X146782755Y-127862618D01*
X146852715Y-127976040D01*
X146852720Y-127976046D01*
X146973953Y-128097279D01*
X146973959Y-128097284D01*
X146973960Y-128097285D01*
X147119899Y-128187302D01*
X147282664Y-128241236D01*
X147302756Y-128243288D01*
X147383120Y-128251500D01*
X147383128Y-128251500D01*
X147980880Y-128251500D01*
X148053936Y-128244035D01*
X148081336Y-128241236D01*
X148244101Y-128187302D01*
X148390040Y-128097285D01*
X148390046Y-128097279D01*
X148408921Y-128078405D01*
X148471233Y-128044379D01*
X148498016Y-128041500D01*
X148626274Y-128041500D01*
X148694395Y-128061502D01*
X148740888Y-128115158D01*
X148751552Y-128180967D01*
X148748501Y-128209347D01*
X148748500Y-128209367D01*
X148748500Y-128906649D01*
X148755009Y-128967196D01*
X148755011Y-128967204D01*
X148806110Y-129104202D01*
X148806112Y-129104207D01*
X148816057Y-129117491D01*
X148840868Y-129184011D01*
X148825777Y-129253385D01*
X148816057Y-129268509D01*
X148806112Y-129281792D01*
X148806110Y-129281797D01*
X148755011Y-129418795D01*
X148755009Y-129418803D01*
X148748500Y-129479350D01*
X148748500Y-130176649D01*
X148755009Y-130237196D01*
X148755011Y-130237204D01*
X148806110Y-130374202D01*
X148806112Y-130374207D01*
X148816057Y-130387491D01*
X148840868Y-130454011D01*
X148825777Y-130523385D01*
X148816057Y-130538509D01*
X148806112Y-130551792D01*
X148806110Y-130551797D01*
X148755011Y-130688795D01*
X148755009Y-130688803D01*
X148748500Y-130749350D01*
X148748500Y-131446649D01*
X148755009Y-131507196D01*
X148755011Y-131507204D01*
X148806110Y-131644202D01*
X148806112Y-131644207D01*
X148893738Y-131761261D01*
X149010792Y-131848887D01*
X149010794Y-131848888D01*
X149010796Y-131848889D01*
X149014510Y-131850274D01*
X149016533Y-131851029D01*
X149073369Y-131893576D01*
X149098179Y-131960096D01*
X149098500Y-131969084D01*
X149098500Y-132597338D01*
X149078498Y-132665459D01*
X149061595Y-132686433D01*
X148970188Y-132777839D01*
X148970184Y-132777844D01*
X148881172Y-132925088D01*
X148881170Y-132925093D01*
X148829986Y-133089353D01*
X148823500Y-133160737D01*
X148823500Y-133825261D01*
X148829986Y-133896646D01*
X148829986Y-133896647D01*
X148881170Y-134060906D01*
X148881172Y-134060911D01*
X148970184Y-134208155D01*
X148970188Y-134208160D01*
X149028433Y-134266405D01*
X149062459Y-134328717D01*
X149057394Y-134399532D01*
X149028433Y-134444595D01*
X148996095Y-134476933D01*
X148933783Y-134510959D01*
X148862968Y-134505894D01*
X148817905Y-134476933D01*
X148722160Y-134381188D01*
X148722155Y-134381184D01*
X148715498Y-134377160D01*
X148574913Y-134292173D01*
X148574912Y-134292172D01*
X148574911Y-134292172D01*
X148574906Y-134292170D01*
X148410646Y-134240986D01*
X148358723Y-134236268D01*
X148339265Y-134234500D01*
X148339262Y-134234500D01*
X147824738Y-134234500D01*
X147753353Y-134240986D01*
X147753352Y-134240986D01*
X147589093Y-134292170D01*
X147589088Y-134292172D01*
X147441844Y-134381184D01*
X147441839Y-134381188D01*
X147320188Y-134502839D01*
X147320184Y-134502844D01*
X147231172Y-134650088D01*
X147231170Y-134650093D01*
X147179986Y-134814353D01*
X147173500Y-134885737D01*
X147173500Y-135550261D01*
X147179986Y-135621646D01*
X147179986Y-135621647D01*
X147231170Y-135785906D01*
X147231172Y-135785911D01*
X147296100Y-135893315D01*
X147314224Y-135961960D01*
X147292359Y-136029506D01*
X147237447Y-136074508D01*
X147188272Y-136084500D01*
X132096594Y-136084500D01*
X132028473Y-136064498D01*
X132007499Y-136047595D01*
X130302405Y-134342501D01*
X130268379Y-134280189D01*
X130265500Y-134253406D01*
X130265500Y-133676169D01*
X130285502Y-133608048D01*
X130338255Y-133561972D01*
X130348895Y-133557011D01*
X130349442Y-133558186D01*
X130410592Y-133541450D01*
X130478332Y-133562707D01*
X130490779Y-133572205D01*
X130528969Y-133605297D01*
X130608046Y-133641411D01*
X130661914Y-133666013D01*
X130661916Y-133666013D01*
X130661917Y-133666014D01*
X130728956Y-133685699D01*
X130728960Y-133685700D01*
X130873630Y-133706500D01*
X130873634Y-133706500D01*
X141407995Y-133706500D01*
X141408000Y-133706500D01*
X141450027Y-133701981D01*
X141454539Y-133701618D01*
X141455637Y-133701500D01*
X141455638Y-133701500D01*
X141516201Y-133694989D01*
X141516202Y-133694988D01*
X141516207Y-133694988D01*
X141518085Y-133694562D01*
X141568668Y-133683558D01*
X141672827Y-133648890D01*
X141795782Y-133569871D01*
X141795784Y-133569868D01*
X141795786Y-133569868D01*
X141828458Y-133541557D01*
X141848586Y-133524116D01*
X141944297Y-133413661D01*
X142005014Y-133280713D01*
X142024699Y-133213674D01*
X142024700Y-133213670D01*
X142045500Y-133069000D01*
X142045500Y-130217000D01*
X142033764Y-130107843D01*
X142022558Y-130056332D01*
X141987890Y-129952173D01*
X141908871Y-129829218D01*
X141908870Y-129829217D01*
X141908869Y-129829215D01*
X141908868Y-129829213D01*
X141863119Y-129776417D01*
X141752662Y-129680704D01*
X141752661Y-129680703D01*
X141619715Y-129619986D01*
X141552679Y-129600302D01*
X141552675Y-129600301D01*
X141552672Y-129600300D01*
X141552670Y-129600300D01*
X141408000Y-129579500D01*
X141407996Y-129579500D01*
X134251749Y-129579500D01*
X134183628Y-129559498D01*
X134150949Y-129529100D01*
X132876700Y-127830101D01*
X132449050Y-127259900D01*
X132071938Y-126757085D01*
X132047068Y-126690589D01*
X132046741Y-126680768D01*
X132069765Y-122720705D01*
X132058355Y-122610029D01*
X132047152Y-122557798D01*
X132012167Y-122452173D01*
X132007137Y-122444347D01*
X131933146Y-122329215D01*
X131933145Y-122329213D01*
X131887396Y-122276417D01*
X131856719Y-122249835D01*
X131776938Y-122180703D01*
X131746150Y-122166642D01*
X131643992Y-122119986D01*
X131576956Y-122100302D01*
X131576952Y-122100301D01*
X131576949Y-122100300D01*
X131576947Y-122100300D01*
X131432277Y-122079500D01*
X130586131Y-122079500D01*
X130586123Y-122079500D01*
X130540714Y-122081512D01*
X130518855Y-122083454D01*
X130518848Y-122083454D01*
X130518847Y-122083455D01*
X130512219Y-122084340D01*
X130473779Y-122089478D01*
X130473776Y-122089479D01*
X130335048Y-122135446D01*
X130272520Y-122166641D01*
X130272517Y-122166642D01*
X130192397Y-122222112D01*
X130125004Y-122244442D01*
X130056236Y-122226791D01*
X130054507Y-122225743D01*
X130050331Y-122223166D01*
X130002863Y-122170370D01*
X129990500Y-122115939D01*
X129990500Y-118643293D01*
X129990499Y-118643290D01*
X129961351Y-118496754D01*
X129904174Y-118358716D01*
X129821165Y-118234484D01*
X129715516Y-118128835D01*
X126252405Y-114665724D01*
X126218379Y-114603412D01*
X126215500Y-114576629D01*
X126215500Y-113552500D01*
X126235502Y-113484379D01*
X126289158Y-113437886D01*
X126341500Y-113426500D01*
X128401349Y-113426500D01*
X128469470Y-113446502D01*
X128515963Y-113500158D01*
X128522346Y-113517348D01*
X128522856Y-113519104D01*
X128607544Y-113662303D01*
X128607549Y-113662310D01*
X128725189Y-113779950D01*
X128725196Y-113779955D01*
X128868394Y-113864643D01*
X128868397Y-113864643D01*
X128868399Y-113864645D01*
X129028169Y-113911062D01*
X129065488Y-113913999D01*
X129065489Y-113914000D01*
X129065498Y-113914000D01*
X129498511Y-113914000D01*
X129498511Y-113913999D01*
X129535831Y-113911062D01*
X129695601Y-113864645D01*
X129695603Y-113864643D01*
X129695605Y-113864643D01*
X129815347Y-113793827D01*
X129838807Y-113779953D01*
X129956453Y-113662307D01*
X130003261Y-113583160D01*
X130041143Y-113519105D01*
X130041143Y-113519103D01*
X130041145Y-113519101D01*
X130087562Y-113359331D01*
X130090499Y-113322011D01*
X130090500Y-113322011D01*
X130090500Y-112165000D01*
X130110502Y-112096879D01*
X130164158Y-112050386D01*
X130216500Y-112039000D01*
X130448511Y-112039000D01*
X130448511Y-112038999D01*
X130485831Y-112036062D01*
X130645601Y-111989645D01*
X130645603Y-111989643D01*
X130645605Y-111989643D01*
X130717204Y-111947299D01*
X130788807Y-111904953D01*
X130906453Y-111787307D01*
X130991145Y-111644101D01*
X131037562Y-111484331D01*
X131040499Y-111447011D01*
X131040500Y-111447011D01*
X131040500Y-110138989D01*
X131040499Y-110138988D01*
X131040374Y-110137388D01*
X131040427Y-110137134D01*
X131040403Y-110136516D01*
X131040558Y-110136509D01*
X131054968Y-110067907D01*
X131104810Y-110017347D01*
X131165985Y-110001500D01*
X131869698Y-110001500D01*
X131869699Y-110001500D01*
X131992090Y-109977155D01*
X132107380Y-109929400D01*
X132211138Y-109860071D01*
X133274071Y-108797138D01*
X133343400Y-108693380D01*
X133391155Y-108578090D01*
X133415500Y-108455699D01*
X133415500Y-108330911D01*
X133415500Y-106105606D01*
X133391155Y-105983215D01*
X133377168Y-105949447D01*
X133343401Y-105867925D01*
X133274072Y-105764167D01*
X132035833Y-104525929D01*
X131932075Y-104456600D01*
X131816785Y-104408845D01*
X131733321Y-104392243D01*
X131694396Y-104384500D01*
X131694394Y-104384500D01*
X129294393Y-104384500D01*
X129169606Y-104384500D01*
X129169603Y-104384500D01*
X129096568Y-104399028D01*
X129047215Y-104408845D01*
X129047213Y-104408845D01*
X129047212Y-104408846D01*
X128979675Y-104436821D01*
X128931928Y-104456599D01*
X128931923Y-104456601D01*
X128828171Y-104525926D01*
X128828164Y-104525931D01*
X128489931Y-104864164D01*
X128489926Y-104864171D01*
X128426485Y-104959118D01*
X128420600Y-104967925D01*
X128407521Y-104999500D01*
X128376370Y-105074706D01*
X128372845Y-105083215D01*
X128371624Y-105089353D01*
X128348500Y-105205603D01*
X128348500Y-105372338D01*
X128328498Y-105440459D01*
X128311595Y-105461433D01*
X128220189Y-105552838D01*
X128220179Y-105552851D01*
X128207585Y-105573685D01*
X128155226Y-105621633D01*
X128099757Y-105634500D01*
X127494451Y-105634500D01*
X127426330Y-105614498D01*
X127405356Y-105597595D01*
X127401310Y-105593549D01*
X127401303Y-105593544D01*
X127258105Y-105508856D01*
X127098329Y-105462437D01*
X127061011Y-105459500D01*
X127061002Y-105459500D01*
X125752998Y-105459500D01*
X125752989Y-105459500D01*
X125715671Y-105462437D01*
X125715670Y-105462437D01*
X125555895Y-105508856D01*
X125480638Y-105553363D01*
X125411822Y-105570822D01*
X125344491Y-105548305D01*
X125300022Y-105492960D01*
X125290500Y-105444909D01*
X125290500Y-101002500D01*
X125310502Y-100934379D01*
X125364158Y-100887886D01*
X125416500Y-100876500D01*
X152976200Y-100876500D01*
X153044321Y-100896502D01*
X153083441Y-100936353D01*
X153132970Y-101016652D01*
X153132975Y-101016658D01*
X153258341Y-101142024D01*
X153258345Y-101142027D01*
X153258348Y-101142030D01*
X153363647Y-101206979D01*
X153411125Y-101259763D01*
X153423500Y-101314219D01*
X153423500Y-101386984D01*
X153403498Y-101455105D01*
X153386595Y-101476079D01*
X153352720Y-101509953D01*
X153352715Y-101509959D01*
X153262698Y-101655899D01*
X153208763Y-101818666D01*
X153198500Y-101919119D01*
X153198500Y-102516880D01*
X153198499Y-102516880D01*
X153208763Y-102617333D01*
X153208764Y-102617336D01*
X153262698Y-102780101D01*
X153352715Y-102926040D01*
X153361593Y-102934918D01*
X153395620Y-102997227D01*
X153398500Y-103024015D01*
X153398500Y-103433500D01*
X153378498Y-103501621D01*
X153324842Y-103548114D01*
X153272502Y-103559500D01*
X153207591Y-103559500D01*
X153207581Y-103559501D01*
X153105135Y-103572988D01*
X153093752Y-103574487D01*
X153093750Y-103574487D01*
X153093749Y-103574488D01*
X153044448Y-103594909D01*
X152996231Y-103604500D01*
X152412288Y-103604500D01*
X152339024Y-103619073D01*
X152339024Y-103619074D01*
X152265753Y-103633649D01*
X152265751Y-103633649D01*
X152265750Y-103633650D01*
X152204118Y-103659179D01*
X152152636Y-103680504D01*
X152127714Y-103690827D01*
X152003486Y-103773833D01*
X152003480Y-103773838D01*
X151542838Y-104234480D01*
X151542833Y-104234486D01*
X151459826Y-104358715D01*
X151402648Y-104496755D01*
X151402647Y-104496757D01*
X151400112Y-104509498D01*
X151400113Y-104509499D01*
X151373500Y-104643288D01*
X151373500Y-106018500D01*
X151353498Y-106086621D01*
X151299842Y-106133114D01*
X151247500Y-106144500D01*
X150810987Y-106144500D01*
X150742866Y-106124498D01*
X150696373Y-106070842D01*
X150686065Y-106002054D01*
X150688546Y-105983209D01*
X150700500Y-105892411D01*
X150700499Y-105373590D01*
X150700499Y-105373589D01*
X150700498Y-105373581D01*
X150698394Y-105357602D01*
X150685513Y-105259752D01*
X150626844Y-105118113D01*
X150626843Y-105118112D01*
X150626842Y-105118109D01*
X150593536Y-105074706D01*
X150567934Y-105008486D01*
X150582198Y-104938937D01*
X150593536Y-104921294D01*
X150626842Y-104877890D01*
X150626842Y-104877889D01*
X150626844Y-104877887D01*
X150685513Y-104736248D01*
X150700500Y-104622411D01*
X150700499Y-104103590D01*
X150685513Y-103989752D01*
X150626844Y-103848113D01*
X150593562Y-103804739D01*
X150533515Y-103726484D01*
X150411893Y-103633160D01*
X150411885Y-103633155D01*
X150270246Y-103574486D01*
X150196138Y-103564730D01*
X150156411Y-103559500D01*
X150156408Y-103559500D01*
X148257590Y-103559500D01*
X148257581Y-103559501D01*
X148155135Y-103572988D01*
X148143752Y-103574487D01*
X148061182Y-103608689D01*
X148002782Y-103632879D01*
X147932192Y-103640468D01*
X147868705Y-103608689D01*
X147865469Y-103605565D01*
X147535835Y-103275931D01*
X147535833Y-103275929D01*
X147432075Y-103206600D01*
X147316785Y-103158845D01*
X147228701Y-103141324D01*
X147194396Y-103134500D01*
X147194394Y-103134500D01*
X146827662Y-103134500D01*
X146759541Y-103114498D01*
X146738567Y-103097595D01*
X146647160Y-103006188D01*
X146647155Y-103006184D01*
X146590318Y-102971825D01*
X146499913Y-102917173D01*
X146499912Y-102917172D01*
X146499911Y-102917172D01*
X146499906Y-102917170D01*
X146335646Y-102865986D01*
X146283723Y-102861268D01*
X146264265Y-102859500D01*
X146264262Y-102859500D01*
X145599738Y-102859500D01*
X145528353Y-102865986D01*
X145528352Y-102865986D01*
X145364093Y-102917170D01*
X145364088Y-102917172D01*
X145216844Y-103006184D01*
X145216839Y-103006188D01*
X145095188Y-103127839D01*
X145095184Y-103127844D01*
X145006172Y-103275088D01*
X145006170Y-103275093D01*
X144954986Y-103439353D01*
X144948784Y-103507604D01*
X144922699Y-103573635D01*
X144865056Y-103615081D01*
X144794156Y-103618784D01*
X144732509Y-103583567D01*
X144703468Y-103535137D01*
X144703261Y-103534500D01*
X144666527Y-103421444D01*
X144571040Y-103256056D01*
X144571038Y-103256054D01*
X144571034Y-103256048D01*
X144443255Y-103114135D01*
X144288752Y-103001882D01*
X144114288Y-102924206D01*
X143927487Y-102884500D01*
X143871594Y-102884500D01*
X143803473Y-102864498D01*
X143782499Y-102847595D01*
X143560835Y-102625931D01*
X143560833Y-102625929D01*
X143457075Y-102556600D01*
X143341785Y-102508845D01*
X143268086Y-102494185D01*
X143219396Y-102484500D01*
X143219394Y-102484500D01*
X141554804Y-102484500D01*
X141486683Y-102464498D01*
X141440190Y-102410842D01*
X141429494Y-102345330D01*
X141433537Y-102306856D01*
X141445504Y-102193000D01*
X141425542Y-102003072D01*
X141366527Y-101821444D01*
X141271040Y-101656056D01*
X141271038Y-101656054D01*
X141271034Y-101656048D01*
X141143255Y-101514135D01*
X140988752Y-101401882D01*
X140814288Y-101324206D01*
X140627487Y-101284500D01*
X140436513Y-101284500D01*
X140249711Y-101324206D01*
X140075247Y-101401882D01*
X139920744Y-101514135D01*
X139792965Y-101656048D01*
X139792958Y-101656058D01*
X139697476Y-101821438D01*
X139697473Y-101821445D01*
X139638457Y-102003072D01*
X139618496Y-102193000D01*
X139638457Y-102382927D01*
X139658159Y-102443561D01*
X139697473Y-102564556D01*
X139697476Y-102564561D01*
X139792958Y-102729941D01*
X139792965Y-102729951D01*
X139920744Y-102871864D01*
X139971889Y-102909023D01*
X140002592Y-102940955D01*
X140039929Y-102996833D01*
X140487502Y-103444406D01*
X140521526Y-103506717D01*
X140516462Y-103577532D01*
X140473915Y-103634368D01*
X140407395Y-103659179D01*
X140398406Y-103659500D01*
X140333350Y-103659500D01*
X140272803Y-103666009D01*
X140272795Y-103666011D01*
X140135797Y-103717110D01*
X140135792Y-103717112D01*
X140018738Y-103804738D01*
X139931112Y-103921792D01*
X139931110Y-103921797D01*
X139880011Y-104058795D01*
X139880009Y-104058803D01*
X139873500Y-104119350D01*
X139873500Y-104324122D01*
X139853498Y-104392243D01*
X139799842Y-104438736D01*
X139795729Y-104440526D01*
X139756925Y-104456599D01*
X139756923Y-104456600D01*
X139653167Y-104525927D01*
X139472495Y-104706600D01*
X138578167Y-105600929D01*
X138489931Y-105689164D01*
X138489926Y-105689171D01*
X138421447Y-105791658D01*
X138420600Y-105792925D01*
X138400821Y-105840675D01*
X138385711Y-105877155D01*
X138372845Y-105908215D01*
X138363028Y-105957568D01*
X138348500Y-106030603D01*
X138348500Y-109430396D01*
X138349061Y-109433215D01*
X138372845Y-109552785D01*
X138420600Y-109668075D01*
X138489929Y-109771833D01*
X139014929Y-110296833D01*
X139103167Y-110385071D01*
X139206925Y-110454400D01*
X139322215Y-110502155D01*
X139444606Y-110526500D01*
X142667406Y-110526500D01*
X142735527Y-110546502D01*
X142756501Y-110563405D01*
X145464929Y-113271833D01*
X145553167Y-113360071D01*
X145656925Y-113429400D01*
X145772215Y-113477155D01*
X145894606Y-113501500D01*
X146396153Y-113501500D01*
X146464274Y-113521502D01*
X146503394Y-113561354D01*
X146513898Y-113578384D01*
X146513905Y-113578393D01*
X146634106Y-113698594D01*
X146634112Y-113698599D01*
X146634113Y-113698600D01*
X146778808Y-113787849D01*
X146940186Y-113841324D01*
X147039789Y-113851500D01*
X147574210Y-113851499D01*
X147673814Y-113841324D01*
X147835192Y-113787849D01*
X147979887Y-113698600D01*
X148005405Y-113673081D01*
X148067715Y-113639057D01*
X148138531Y-113644121D01*
X148183594Y-113673081D01*
X148209113Y-113698600D01*
X148353808Y-113787849D01*
X148515186Y-113841324D01*
X148614789Y-113851500D01*
X149149210Y-113851499D01*
X149248814Y-113841324D01*
X149410192Y-113787849D01*
X149554887Y-113698600D01*
X149614430Y-113639057D01*
X149674913Y-113578575D01*
X149737225Y-113544549D01*
X149808040Y-113549614D01*
X149853103Y-113578575D01*
X149979339Y-113704811D01*
X149979344Y-113704815D01*
X149979345Y-113704816D01*
X150126587Y-113793827D01*
X150290851Y-113845013D01*
X150362235Y-113851500D01*
X150876764Y-113851499D01*
X150948149Y-113845013D01*
X151112413Y-113793827D01*
X151259655Y-113704816D01*
X151302168Y-113662303D01*
X151355405Y-113609067D01*
X151417717Y-113575041D01*
X151488532Y-113580106D01*
X151533595Y-113609067D01*
X151629339Y-113704811D01*
X151629344Y-113704815D01*
X151629345Y-113704816D01*
X151776587Y-113793827D01*
X151940851Y-113845013D01*
X152012235Y-113851500D01*
X152526764Y-113851499D01*
X152598149Y-113845013D01*
X152762413Y-113793827D01*
X152909655Y-113704816D01*
X152952168Y-113662303D01*
X153005405Y-113609067D01*
X153067717Y-113575041D01*
X153138532Y-113580106D01*
X153183595Y-113609067D01*
X153279339Y-113704811D01*
X153279344Y-113704815D01*
X153279345Y-113704816D01*
X153426587Y-113793827D01*
X153590851Y-113845013D01*
X153662235Y-113851500D01*
X154176764Y-113851499D01*
X154248149Y-113845013D01*
X154412413Y-113793827D01*
X154559655Y-113704816D01*
X154681316Y-113583155D01*
X154770327Y-113435913D01*
X154821513Y-113271649D01*
X154828000Y-113200265D01*
X154827999Y-112535736D01*
X154821513Y-112464351D01*
X154770327Y-112300087D01*
X154681316Y-112152845D01*
X154681315Y-112152844D01*
X154681311Y-112152839D01*
X154559660Y-112031188D01*
X154559657Y-112031186D01*
X154559655Y-112031184D01*
X154509437Y-112000826D01*
X154461491Y-111948470D01*
X154449461Y-111878500D01*
X154477170Y-111813134D01*
X154509435Y-111785174D01*
X154559655Y-111754816D01*
X154601024Y-111713447D01*
X154655405Y-111659067D01*
X154717717Y-111625041D01*
X154788532Y-111630106D01*
X154833595Y-111659067D01*
X154929339Y-111754811D01*
X154929342Y-111754813D01*
X154929345Y-111754816D01*
X155076587Y-111843827D01*
X155240851Y-111895013D01*
X155312235Y-111901500D01*
X155826764Y-111901499D01*
X155898149Y-111895013D01*
X156062413Y-111843827D01*
X156209655Y-111754816D01*
X156331316Y-111633155D01*
X156420327Y-111485913D01*
X156471513Y-111321649D01*
X156478000Y-111250265D01*
X156477999Y-110585736D01*
X156476337Y-110567446D01*
X167348500Y-110567446D01*
X167348500Y-111293544D01*
X167359112Y-111397425D01*
X167414885Y-111565738D01*
X167507970Y-111716652D01*
X167507975Y-111716658D01*
X167633341Y-111842024D01*
X167633345Y-111842027D01*
X167633348Y-111842030D01*
X167784262Y-111935115D01*
X167952574Y-111990887D01*
X168056455Y-112001500D01*
X169407544Y-112001499D01*
X169511426Y-111990887D01*
X169679738Y-111935115D01*
X169830652Y-111842030D01*
X169830658Y-111842023D01*
X169831746Y-111841165D01*
X169832635Y-111840806D01*
X169836898Y-111838177D01*
X169837347Y-111838905D01*
X169897587Y-111814603D01*
X169909897Y-111814000D01*
X170556516Y-111814000D01*
X170556517Y-111814000D01*
X170727208Y-111780048D01*
X170887995Y-111713448D01*
X171032699Y-111616759D01*
X173086052Y-109563404D01*
X173148364Y-109529380D01*
X173175147Y-109526500D01*
X174397500Y-109526500D01*
X174465621Y-109546502D01*
X174512114Y-109600158D01*
X174523500Y-109652500D01*
X174523500Y-109941649D01*
X174530009Y-110002196D01*
X174530011Y-110002204D01*
X174581110Y-110139202D01*
X174581112Y-110139207D01*
X174668738Y-110256261D01*
X174785792Y-110343887D01*
X174785794Y-110343888D01*
X174785796Y-110343889D01*
X174844875Y-110365924D01*
X174922795Y-110394988D01*
X174922803Y-110394990D01*
X174983350Y-110401499D01*
X174983355Y-110401499D01*
X174983362Y-110401500D01*
X174983368Y-110401500D01*
X177580632Y-110401500D01*
X177580638Y-110401500D01*
X177580645Y-110401499D01*
X177580649Y-110401499D01*
X177641196Y-110394990D01*
X177641199Y-110394989D01*
X177641201Y-110394989D01*
X177778204Y-110343889D01*
X177795155Y-110331200D01*
X177895261Y-110256261D01*
X177982887Y-110139207D01*
X177982887Y-110139206D01*
X177982889Y-110139204D01*
X178033989Y-110002201D01*
X178034065Y-110001500D01*
X178040499Y-109941649D01*
X178040500Y-109941632D01*
X178040500Y-107344367D01*
X178040499Y-107344350D01*
X178033990Y-107283803D01*
X178033988Y-107283795D01*
X177988758Y-107162532D01*
X177982889Y-107146796D01*
X177982888Y-107146794D01*
X177982887Y-107146792D01*
X177895261Y-107029738D01*
X177778207Y-106942112D01*
X177778202Y-106942110D01*
X177641204Y-106891011D01*
X177641196Y-106891009D01*
X177580649Y-106884500D01*
X177580638Y-106884500D01*
X174983362Y-106884500D01*
X174983350Y-106884500D01*
X174922803Y-106891009D01*
X174922795Y-106891011D01*
X174785797Y-106942110D01*
X174785792Y-106942112D01*
X174668738Y-107029738D01*
X174581112Y-107146792D01*
X174581110Y-107146797D01*
X174530011Y-107283795D01*
X174530009Y-107283803D01*
X174523500Y-107344350D01*
X174523500Y-107633500D01*
X174503498Y-107701621D01*
X174449842Y-107748114D01*
X174397500Y-107759500D01*
X172669979Y-107759500D01*
X172499291Y-107793452D01*
X172499286Y-107793454D01*
X172338506Y-107860052D01*
X172193802Y-107956740D01*
X172193796Y-107956745D01*
X170140447Y-110010095D01*
X170078135Y-110044121D01*
X170051352Y-110047000D01*
X169909897Y-110047000D01*
X169841776Y-110026998D01*
X169831746Y-110019835D01*
X169830654Y-110018972D01*
X169830652Y-110018970D01*
X169679738Y-109925885D01*
X169586571Y-109895013D01*
X169511427Y-109870113D01*
X169511420Y-109870112D01*
X169407553Y-109859500D01*
X168056455Y-109859500D01*
X167952574Y-109870112D01*
X167784261Y-109925885D01*
X167633347Y-110018970D01*
X167633341Y-110018975D01*
X167507975Y-110144341D01*
X167507970Y-110144347D01*
X167414885Y-110295262D01*
X167359113Y-110463572D01*
X167359112Y-110463579D01*
X167348500Y-110567446D01*
X156476337Y-110567446D01*
X156471513Y-110514351D01*
X156420327Y-110350087D01*
X156408906Y-110331195D01*
X156390782Y-110262557D01*
X156412646Y-110195010D01*
X156467556Y-110150007D01*
X156468518Y-110149604D01*
X156481207Y-110144348D01*
X156491284Y-110140174D01*
X156615515Y-110057166D01*
X156759606Y-109913073D01*
X156821918Y-109879049D01*
X156886185Y-109881873D01*
X156928351Y-109895013D01*
X156999735Y-109901500D01*
X157664264Y-109901499D01*
X157735649Y-109895013D01*
X157899913Y-109843827D01*
X158047155Y-109754816D01*
X158168816Y-109633155D01*
X158257827Y-109485913D01*
X158309013Y-109321649D01*
X158315500Y-109250265D01*
X158315499Y-108735736D01*
X158309013Y-108664351D01*
X158269420Y-108537293D01*
X158268252Y-108466308D01*
X158305646Y-108405958D01*
X158369732Y-108375405D01*
X158440163Y-108384350D01*
X158478811Y-108410715D01*
X158578167Y-108510071D01*
X158681925Y-108579400D01*
X158797215Y-108627155D01*
X158919606Y-108651500D01*
X159044394Y-108651500D01*
X159136338Y-108651500D01*
X159204459Y-108671502D01*
X159225433Y-108688405D01*
X159316839Y-108779811D01*
X159316844Y-108779815D01*
X159316845Y-108779816D01*
X159464087Y-108868827D01*
X159628351Y-108920013D01*
X159699735Y-108926500D01*
X160364264Y-108926499D01*
X160435649Y-108920013D01*
X160599913Y-108868827D01*
X160747155Y-108779816D01*
X160792471Y-108734500D01*
X160838567Y-108688405D01*
X160900879Y-108654379D01*
X160927662Y-108651500D01*
X162647501Y-108651500D01*
X162715622Y-108671502D01*
X162762115Y-108725158D01*
X162773501Y-108777500D01*
X162773501Y-109068544D01*
X162784112Y-109172425D01*
X162839885Y-109340738D01*
X162932970Y-109491652D01*
X162932975Y-109491658D01*
X163058341Y-109617024D01*
X163058347Y-109617029D01*
X163058348Y-109617030D01*
X163209262Y-109710115D01*
X163377574Y-109765887D01*
X163481455Y-109776500D01*
X165382544Y-109776499D01*
X165486426Y-109765887D01*
X165654738Y-109710115D01*
X165805652Y-109617030D01*
X165931030Y-109491652D01*
X166024115Y-109340738D01*
X166079887Y-109172426D01*
X166086715Y-109105596D01*
X166090500Y-109068553D01*
X166090500Y-109015000D01*
X166110502Y-108946879D01*
X166164158Y-108900386D01*
X166216500Y-108889000D01*
X167554103Y-108889000D01*
X167622224Y-108909002D01*
X167632254Y-108916165D01*
X167633345Y-108917027D01*
X167633348Y-108917030D01*
X167784262Y-109010115D01*
X167952574Y-109065887D01*
X168056455Y-109076500D01*
X169407544Y-109076499D01*
X169511426Y-109065887D01*
X169679738Y-109010115D01*
X169830652Y-108917030D01*
X169956030Y-108791652D01*
X170049115Y-108640738D01*
X170104887Y-108472426D01*
X170115500Y-108368545D01*
X170115499Y-107642456D01*
X170104887Y-107538574D01*
X170049115Y-107370262D01*
X169956030Y-107219348D01*
X169956029Y-107219347D01*
X169956024Y-107219341D01*
X169830658Y-107093975D01*
X169830652Y-107093970D01*
X169820788Y-107087886D01*
X169679738Y-107000885D01*
X169578824Y-106967446D01*
X169511427Y-106945113D01*
X169511420Y-106945112D01*
X169407553Y-106934500D01*
X168056455Y-106934500D01*
X167952574Y-106945112D01*
X167784261Y-107000885D01*
X167737482Y-107029739D01*
X167650383Y-107083463D01*
X167633345Y-107093972D01*
X167632254Y-107094835D01*
X167631364Y-107095193D01*
X167627102Y-107097823D01*
X167626652Y-107097094D01*
X167566413Y-107121397D01*
X167554103Y-107122000D01*
X166216499Y-107122000D01*
X166148378Y-107101998D01*
X166101885Y-107048342D01*
X166090499Y-106996000D01*
X166090499Y-106967455D01*
X166079887Y-106863574D01*
X166070721Y-106835913D01*
X166024115Y-106695262D01*
X165931030Y-106544348D01*
X165931029Y-106544347D01*
X165931024Y-106544341D01*
X165805658Y-106418975D01*
X165805652Y-106418970D01*
X165792619Y-106410931D01*
X165654738Y-106325885D01*
X165539211Y-106287604D01*
X165480841Y-106247191D01*
X165453585Y-106181635D01*
X165466098Y-106111750D01*
X165514407Y-106059724D01*
X165539209Y-106048396D01*
X165654738Y-106010115D01*
X165805652Y-105917030D01*
X165931030Y-105791652D01*
X166024115Y-105640738D01*
X166079887Y-105472426D01*
X166084512Y-105427160D01*
X166090827Y-105365353D01*
X166092307Y-105365504D01*
X166113855Y-105304016D01*
X166169832Y-105260345D01*
X166216208Y-105251500D01*
X167554103Y-105251500D01*
X167622224Y-105271502D01*
X167632254Y-105278665D01*
X167633345Y-105279527D01*
X167633348Y-105279530D01*
X167784262Y-105372615D01*
X167952574Y-105428387D01*
X168056455Y-105439000D01*
X169407544Y-105438999D01*
X169511426Y-105428387D01*
X169679738Y-105372615D01*
X169830652Y-105279530D01*
X169956030Y-105154152D01*
X170049115Y-105003238D01*
X170104887Y-104834926D01*
X170115500Y-104731045D01*
X170115499Y-104004956D01*
X170104887Y-103901074D01*
X170049115Y-103732762D01*
X169956030Y-103581848D01*
X169956029Y-103581847D01*
X169956024Y-103581841D01*
X169830658Y-103456475D01*
X169830652Y-103456470D01*
X169773856Y-103421438D01*
X169679738Y-103363385D01*
X169595582Y-103335499D01*
X169511427Y-103307613D01*
X169511420Y-103307612D01*
X169407553Y-103297000D01*
X168056455Y-103297000D01*
X167952574Y-103307612D01*
X167784261Y-103363385D01*
X167633345Y-103456472D01*
X167632254Y-103457335D01*
X167631364Y-103457693D01*
X167627102Y-103460323D01*
X167626652Y-103459594D01*
X167566413Y-103483897D01*
X167554103Y-103484500D01*
X166216499Y-103484500D01*
X166148378Y-103464498D01*
X166101885Y-103410842D01*
X166090499Y-103358500D01*
X166090499Y-103267455D01*
X166079887Y-103163574D01*
X166067636Y-103126603D01*
X166024115Y-102995262D01*
X165931030Y-102844348D01*
X165931029Y-102844347D01*
X165931024Y-102844341D01*
X165805658Y-102718975D01*
X165805652Y-102718970D01*
X165654738Y-102625885D01*
X165570582Y-102597999D01*
X165486427Y-102570113D01*
X165486420Y-102570112D01*
X165382553Y-102559500D01*
X163481455Y-102559500D01*
X163377574Y-102570112D01*
X163209261Y-102625885D01*
X163058347Y-102718970D01*
X163058341Y-102718975D01*
X162932975Y-102844341D01*
X162932970Y-102844347D01*
X162839885Y-102995262D01*
X162784113Y-103163572D01*
X162784112Y-103163579D01*
X162773500Y-103267446D01*
X162773500Y-103408500D01*
X162753498Y-103476621D01*
X162699842Y-103523114D01*
X162647500Y-103534500D01*
X161990200Y-103534500D01*
X161922079Y-103514498D01*
X161896563Y-103492810D01*
X161893252Y-103489133D01*
X161738752Y-103376882D01*
X161564288Y-103299206D01*
X161377487Y-103259500D01*
X161186513Y-103259500D01*
X160999711Y-103299206D01*
X160825247Y-103376882D01*
X160670747Y-103489133D01*
X160667437Y-103492810D01*
X160606991Y-103530050D01*
X160573800Y-103534500D01*
X159419603Y-103534500D01*
X159346568Y-103549028D01*
X159297215Y-103558845D01*
X159297213Y-103558845D01*
X159297212Y-103558846D01*
X159252101Y-103577532D01*
X159190443Y-103603072D01*
X159181923Y-103606601D01*
X159078171Y-103675926D01*
X159078169Y-103675927D01*
X158236628Y-104517467D01*
X158174316Y-104551492D01*
X158103500Y-104546427D01*
X158058438Y-104517466D01*
X158047160Y-104506188D01*
X158047155Y-104506184D01*
X157965131Y-104456599D01*
X157899913Y-104417173D01*
X157899912Y-104417172D01*
X157899911Y-104417172D01*
X157899906Y-104417170D01*
X157735646Y-104365986D01*
X157683723Y-104361268D01*
X157664265Y-104359500D01*
X157664262Y-104359500D01*
X156999738Y-104359500D01*
X156928353Y-104365986D01*
X156928352Y-104365986D01*
X156764093Y-104417170D01*
X156764088Y-104417172D01*
X156616844Y-104506184D01*
X156616839Y-104506188D01*
X156525433Y-104597595D01*
X156463121Y-104631621D01*
X156436338Y-104634500D01*
X156134603Y-104634500D01*
X156061568Y-104649028D01*
X156012215Y-104658845D01*
X156012213Y-104658845D01*
X156012212Y-104658846D01*
X155896924Y-104706600D01*
X155845799Y-104740761D01*
X155778046Y-104761975D01*
X155709579Y-104743191D01*
X155662136Y-104690374D01*
X155651806Y-104626623D01*
X155650230Y-104626520D01*
X155650497Y-104622432D01*
X155650500Y-104622411D01*
X155650499Y-104103590D01*
X155635513Y-103989752D01*
X155576844Y-103848113D01*
X155543562Y-103804739D01*
X155483515Y-103726484D01*
X155361893Y-103633160D01*
X155361885Y-103633155D01*
X155220246Y-103574486D01*
X155106413Y-103559500D01*
X155106411Y-103559500D01*
X155041500Y-103559500D01*
X154973379Y-103539498D01*
X154926886Y-103485842D01*
X154915500Y-103433500D01*
X154915500Y-103024015D01*
X154935502Y-102955894D01*
X154952403Y-102934921D01*
X154961285Y-102926040D01*
X155051302Y-102780101D01*
X155105236Y-102617336D01*
X155110628Y-102564561D01*
X155115500Y-102516880D01*
X155115500Y-101919119D01*
X155105236Y-101818666D01*
X155105236Y-101818664D01*
X155051302Y-101655899D01*
X154961285Y-101509960D01*
X154961283Y-101509958D01*
X154959259Y-101506676D01*
X154940500Y-101440529D01*
X154940500Y-101314219D01*
X154960502Y-101246098D01*
X155000352Y-101206979D01*
X155105652Y-101142030D01*
X155167736Y-101079946D01*
X167348500Y-101079946D01*
X167348500Y-101806044D01*
X167359112Y-101909925D01*
X167414885Y-102078238D01*
X167507970Y-102229152D01*
X167507975Y-102229158D01*
X167633341Y-102354524D01*
X167633345Y-102354527D01*
X167633348Y-102354530D01*
X167784262Y-102447615D01*
X167952574Y-102503387D01*
X168056455Y-102514000D01*
X169407544Y-102513999D01*
X169511426Y-102503387D01*
X169679738Y-102447615D01*
X169830652Y-102354530D01*
X169830658Y-102354523D01*
X169831746Y-102353665D01*
X169832635Y-102353306D01*
X169836898Y-102350677D01*
X169837347Y-102351405D01*
X169897587Y-102327103D01*
X169909897Y-102326500D01*
X170251352Y-102326500D01*
X170319473Y-102346502D01*
X170340447Y-102363405D01*
X172306298Y-104329256D01*
X172306301Y-104329258D01*
X172306302Y-104329259D01*
X172451005Y-104425948D01*
X172611792Y-104492548D01*
X172782483Y-104526500D01*
X174688802Y-104526500D01*
X174756923Y-104546502D01*
X174797921Y-104589500D01*
X174824982Y-104636372D01*
X174824984Y-104636375D01*
X174824985Y-104636376D01*
X174989314Y-104842438D01*
X175182519Y-105021706D01*
X175182525Y-105021710D01*
X175400275Y-105170170D01*
X175400279Y-105170172D01*
X175400285Y-105170176D01*
X175637746Y-105284532D01*
X175637749Y-105284532D01*
X175637754Y-105284535D01*
X175889589Y-105362215D01*
X175889591Y-105362215D01*
X175889600Y-105362218D01*
X176150219Y-105401500D01*
X176150223Y-105401500D01*
X176413777Y-105401500D01*
X176413781Y-105401500D01*
X176674400Y-105362218D01*
X176863088Y-105304016D01*
X176926245Y-105284535D01*
X176926247Y-105284534D01*
X176926254Y-105284532D01*
X177163716Y-105170176D01*
X177172357Y-105164285D01*
X177282261Y-105089353D01*
X177381481Y-105021706D01*
X177574686Y-104842438D01*
X177739015Y-104636376D01*
X177822054Y-104492548D01*
X177870794Y-104408128D01*
X177870796Y-104408124D01*
X177967087Y-104162780D01*
X178025735Y-103905826D01*
X178045431Y-103643000D01*
X178025735Y-103380174D01*
X177967087Y-103123220D01*
X177870796Y-102877876D01*
X177870795Y-102877875D01*
X177870794Y-102877871D01*
X177739017Y-102649627D01*
X177720120Y-102625931D01*
X177574686Y-102443562D01*
X177381481Y-102264294D01*
X177350680Y-102243294D01*
X177163725Y-102115829D01*
X177163718Y-102115825D01*
X176926257Y-102001469D01*
X176926245Y-102001464D01*
X176674410Y-101923784D01*
X176674402Y-101923782D01*
X176674400Y-101923782D01*
X176413781Y-101884500D01*
X176150219Y-101884500D01*
X175889600Y-101923782D01*
X175889598Y-101923782D01*
X175889589Y-101923784D01*
X175637754Y-102001464D01*
X175637742Y-102001469D01*
X175400283Y-102115825D01*
X175400275Y-102115829D01*
X175182525Y-102264289D01*
X175182520Y-102264293D01*
X174989315Y-102443561D01*
X174824982Y-102649627D01*
X174797921Y-102696500D01*
X174746539Y-102745493D01*
X174688802Y-102759500D01*
X173287647Y-102759500D01*
X173219526Y-102739498D01*
X173198552Y-102722595D01*
X171232704Y-100756745D01*
X171232698Y-100756740D01*
X171143930Y-100697427D01*
X171087995Y-100660052D01*
X170927208Y-100593452D01*
X170756520Y-100559500D01*
X170756517Y-100559500D01*
X169909897Y-100559500D01*
X169841776Y-100539498D01*
X169831746Y-100532335D01*
X169830654Y-100531472D01*
X169830652Y-100531470D01*
X169679738Y-100438385D01*
X169595582Y-100410499D01*
X169511427Y-100382613D01*
X169511420Y-100382612D01*
X169407553Y-100372000D01*
X168056455Y-100372000D01*
X167952574Y-100382612D01*
X167784261Y-100438385D01*
X167633347Y-100531470D01*
X167633341Y-100531475D01*
X167507975Y-100656841D01*
X167507970Y-100656847D01*
X167414885Y-100807762D01*
X167359113Y-100976072D01*
X167359112Y-100976079D01*
X167348500Y-101079946D01*
X155167736Y-101079946D01*
X155231030Y-101016652D01*
X155324115Y-100865738D01*
X155379887Y-100697426D01*
X155390500Y-100593545D01*
X155390499Y-99642456D01*
X155379887Y-99538574D01*
X155324115Y-99370262D01*
X155231030Y-99219348D01*
X155231029Y-99219347D01*
X155231024Y-99219341D01*
X155105658Y-99093975D01*
X155105652Y-99093970D01*
X154954738Y-99000885D01*
X154870582Y-98972999D01*
X154786427Y-98945113D01*
X154786420Y-98945112D01*
X154682553Y-98934500D01*
X153681455Y-98934500D01*
X153577574Y-98945112D01*
X153409261Y-99000885D01*
X153258347Y-99093970D01*
X153258341Y-99093975D01*
X153132975Y-99219341D01*
X153132970Y-99219347D01*
X153083441Y-99299647D01*
X153030655Y-99347125D01*
X152976200Y-99359500D01*
X125416500Y-99359500D01*
X125348379Y-99339498D01*
X125301886Y-99285842D01*
X125290500Y-99233500D01*
X125290500Y-97250571D01*
X125310502Y-97182450D01*
X125364158Y-97135957D01*
X125434432Y-97125853D01*
X125457410Y-97131397D01*
X125597365Y-97179444D01*
X125819431Y-97216500D01*
X125819435Y-97216500D01*
X126044565Y-97216500D01*
X126044569Y-97216500D01*
X126266635Y-97179444D01*
X126479574Y-97106342D01*
X126677576Y-96999189D01*
X126855240Y-96860906D01*
X127007722Y-96695268D01*
X127096518Y-96559354D01*
X127150520Y-96513268D01*
X127220868Y-96503692D01*
X127285225Y-96533669D01*
X127307480Y-96559353D01*
X127340607Y-96610058D01*
X127396275Y-96695265D01*
X127396279Y-96695270D01*
X127548762Y-96860908D01*
X127603331Y-96903381D01*
X127726424Y-96999189D01*
X127924426Y-97106342D01*
X127924427Y-97106342D01*
X127924428Y-97106343D01*
X128036227Y-97144723D01*
X128137365Y-97179444D01*
X128359431Y-97216500D01*
X128359435Y-97216500D01*
X128584565Y-97216500D01*
X128584569Y-97216500D01*
X128806635Y-97179444D01*
X129019574Y-97106342D01*
X129217576Y-96999189D01*
X129395240Y-96860906D01*
X129547722Y-96695268D01*
X129636518Y-96559354D01*
X129690520Y-96513268D01*
X129760868Y-96503692D01*
X129825225Y-96533669D01*
X129847480Y-96559353D01*
X129880607Y-96610058D01*
X129936275Y-96695265D01*
X129936279Y-96695270D01*
X130088762Y-96860908D01*
X130143331Y-96903381D01*
X130266424Y-96999189D01*
X130464426Y-97106342D01*
X130464427Y-97106342D01*
X130464428Y-97106343D01*
X130576227Y-97144723D01*
X130677365Y-97179444D01*
X130899431Y-97216500D01*
X130899435Y-97216500D01*
X131124565Y-97216500D01*
X131124569Y-97216500D01*
X131346635Y-97179444D01*
X131559574Y-97106342D01*
X131757576Y-96999189D01*
X131935240Y-96860906D01*
X132087722Y-96695268D01*
X132176518Y-96559354D01*
X132230520Y-96513268D01*
X132300868Y-96503692D01*
X132365225Y-96533669D01*
X132387480Y-96559353D01*
X132420607Y-96610058D01*
X132476275Y-96695265D01*
X132476279Y-96695270D01*
X132628762Y-96860908D01*
X132683331Y-96903381D01*
X132806424Y-96999189D01*
X133004426Y-97106342D01*
X133004427Y-97106342D01*
X133004428Y-97106343D01*
X133116227Y-97144723D01*
X133217365Y-97179444D01*
X133439431Y-97216500D01*
X133439435Y-97216500D01*
X133664565Y-97216500D01*
X133664569Y-97216500D01*
X133886635Y-97179444D01*
X134099574Y-97106342D01*
X134297576Y-96999189D01*
X134475240Y-96860906D01*
X134627722Y-96695268D01*
X134750860Y-96506791D01*
X134841296Y-96300616D01*
X134896564Y-96082368D01*
X134915156Y-95858000D01*
X134896564Y-95633632D01*
X134841296Y-95415384D01*
X134750860Y-95209209D01*
X134744140Y-95198924D01*
X134627724Y-95020734D01*
X134627720Y-95020729D01*
X134475237Y-94855091D01*
X134367007Y-94770852D01*
X134297576Y-94716811D01*
X134264319Y-94698813D01*
X134213929Y-94648802D01*
X134198576Y-94579485D01*
X134223136Y-94512872D01*
X134264320Y-94477186D01*
X134297576Y-94459189D01*
X134475240Y-94320906D01*
X134627722Y-94155268D01*
X134716518Y-94019354D01*
X134770520Y-93973268D01*
X134840868Y-93963692D01*
X134905225Y-93993669D01*
X134927480Y-94019353D01*
X134956778Y-94064197D01*
X135016275Y-94155265D01*
X135016279Y-94155270D01*
X135168762Y-94320908D01*
X135217336Y-94358715D01*
X135346424Y-94459189D01*
X135544426Y-94566342D01*
X135544427Y-94566342D01*
X135544428Y-94566343D01*
X135632320Y-94596516D01*
X135757365Y-94639444D01*
X135979431Y-94676500D01*
X135979435Y-94676500D01*
X136204565Y-94676500D01*
X136204569Y-94676500D01*
X136426635Y-94639444D01*
X136639574Y-94566342D01*
X136837576Y-94459189D01*
X137015240Y-94320906D01*
X137167722Y-94155268D01*
X137256518Y-94019354D01*
X137310520Y-93973268D01*
X137380868Y-93963692D01*
X137445225Y-93993669D01*
X137467480Y-94019353D01*
X137496778Y-94064197D01*
X137556275Y-94155265D01*
X137556279Y-94155270D01*
X137708762Y-94320908D01*
X137757336Y-94358715D01*
X137886424Y-94459189D01*
X137919680Y-94477186D01*
X137970071Y-94527200D01*
X137985423Y-94596516D01*
X137960862Y-94663129D01*
X137919680Y-94698813D01*
X137886426Y-94716810D01*
X137886424Y-94716811D01*
X137708762Y-94855091D01*
X137556279Y-95020729D01*
X137556275Y-95020734D01*
X137433141Y-95209206D01*
X137342703Y-95415386D01*
X137342702Y-95415387D01*
X137287437Y-95633624D01*
X137268844Y-95858000D01*
X137287437Y-96082375D01*
X137342702Y-96300612D01*
X137342703Y-96300613D01*
X137433141Y-96506793D01*
X137556275Y-96695265D01*
X137556279Y-96695270D01*
X137708762Y-96860908D01*
X137763331Y-96903381D01*
X137886424Y-96999189D01*
X138084426Y-97106342D01*
X138084427Y-97106342D01*
X138084428Y-97106343D01*
X138196227Y-97144723D01*
X138297365Y-97179444D01*
X138519431Y-97216500D01*
X138519435Y-97216500D01*
X138744565Y-97216500D01*
X138744569Y-97216500D01*
X138966635Y-97179444D01*
X139179574Y-97106342D01*
X139377576Y-96999189D01*
X139555240Y-96860906D01*
X139707722Y-96695268D01*
X139796518Y-96559354D01*
X139850520Y-96513268D01*
X139920868Y-96503692D01*
X139985225Y-96533669D01*
X140007480Y-96559353D01*
X140040607Y-96610058D01*
X140096275Y-96695265D01*
X140096279Y-96695270D01*
X140248762Y-96860908D01*
X140303331Y-96903381D01*
X140426424Y-96999189D01*
X140624426Y-97106342D01*
X140624427Y-97106342D01*
X140624428Y-97106343D01*
X140736227Y-97144723D01*
X140837365Y-97179444D01*
X141059431Y-97216500D01*
X141059435Y-97216500D01*
X141284565Y-97216500D01*
X141284569Y-97216500D01*
X141506635Y-97179444D01*
X141719574Y-97106342D01*
X141917576Y-96999189D01*
X142095240Y-96860906D01*
X142247722Y-96695268D01*
X142336518Y-96559354D01*
X142390520Y-96513268D01*
X142460868Y-96503692D01*
X142525225Y-96533669D01*
X142547480Y-96559353D01*
X142580607Y-96610058D01*
X142636275Y-96695265D01*
X142636279Y-96695270D01*
X142788762Y-96860908D01*
X142843331Y-96903381D01*
X142966424Y-96999189D01*
X143164426Y-97106342D01*
X143164427Y-97106342D01*
X143164428Y-97106343D01*
X143276227Y-97144723D01*
X143377365Y-97179444D01*
X143599431Y-97216500D01*
X143599435Y-97216500D01*
X143824565Y-97216500D01*
X143824569Y-97216500D01*
X144046635Y-97179444D01*
X144259574Y-97106342D01*
X144457576Y-96999189D01*
X144635240Y-96860906D01*
X144787722Y-96695268D01*
X144876518Y-96559354D01*
X144930520Y-96513268D01*
X145000868Y-96503692D01*
X145065225Y-96533669D01*
X145087480Y-96559353D01*
X145120607Y-96610058D01*
X145176275Y-96695265D01*
X145176279Y-96695270D01*
X145328762Y-96860908D01*
X145383331Y-96903381D01*
X145506424Y-96999189D01*
X145704426Y-97106342D01*
X145704427Y-97106342D01*
X145704428Y-97106343D01*
X145816227Y-97144723D01*
X145917365Y-97179444D01*
X146139431Y-97216500D01*
X146139435Y-97216500D01*
X146364565Y-97216500D01*
X146364569Y-97216500D01*
X146586635Y-97179444D01*
X146799574Y-97106342D01*
X146997576Y-96999189D01*
X147175240Y-96860906D01*
X147327722Y-96695268D01*
X147416518Y-96559354D01*
X147470520Y-96513268D01*
X147540868Y-96503692D01*
X147605225Y-96533669D01*
X147627480Y-96559353D01*
X147660607Y-96610058D01*
X147716275Y-96695265D01*
X147716279Y-96695270D01*
X147868762Y-96860908D01*
X147923331Y-96903381D01*
X148046424Y-96999189D01*
X148244426Y-97106342D01*
X148244427Y-97106342D01*
X148244428Y-97106343D01*
X148356227Y-97144723D01*
X148457365Y-97179444D01*
X148679431Y-97216500D01*
X148679435Y-97216500D01*
X148904565Y-97216500D01*
X148904569Y-97216500D01*
X149126635Y-97179444D01*
X149339574Y-97106342D01*
X149537576Y-96999189D01*
X149715240Y-96860906D01*
X149867722Y-96695268D01*
X149956518Y-96559354D01*
X150010520Y-96513268D01*
X150080868Y-96503692D01*
X150145225Y-96533669D01*
X150167480Y-96559353D01*
X150200607Y-96610058D01*
X150256275Y-96695265D01*
X150256279Y-96695270D01*
X150408762Y-96860908D01*
X150463331Y-96903381D01*
X150586424Y-96999189D01*
X150784426Y-97106342D01*
X150784427Y-97106342D01*
X150784428Y-97106343D01*
X150896227Y-97144723D01*
X150997365Y-97179444D01*
X151219431Y-97216500D01*
X151219435Y-97216500D01*
X151444565Y-97216500D01*
X151444569Y-97216500D01*
X151666635Y-97179444D01*
X151879574Y-97106342D01*
X152077576Y-96999189D01*
X152255240Y-96860906D01*
X152407722Y-96695268D01*
X152496518Y-96559354D01*
X152550520Y-96513268D01*
X152620868Y-96503692D01*
X152685225Y-96533669D01*
X152707480Y-96559353D01*
X152740607Y-96610058D01*
X152796275Y-96695265D01*
X152796279Y-96695270D01*
X152948762Y-96860908D01*
X153003331Y-96903381D01*
X153126424Y-96999189D01*
X153324426Y-97106342D01*
X153324427Y-97106342D01*
X153324428Y-97106343D01*
X153436227Y-97144723D01*
X153537365Y-97179444D01*
X153759431Y-97216500D01*
X153759435Y-97216500D01*
X153984565Y-97216500D01*
X153984569Y-97216500D01*
X154206635Y-97179444D01*
X154419574Y-97106342D01*
X154617576Y-96999189D01*
X154795240Y-96860906D01*
X154947722Y-96695268D01*
X155070860Y-96506791D01*
X155161296Y-96300616D01*
X155216564Y-96082368D01*
X155235156Y-95858000D01*
X155216564Y-95633632D01*
X155161296Y-95415384D01*
X155070860Y-95209209D01*
X155064140Y-95198924D01*
X154947724Y-95020734D01*
X154947720Y-95020729D01*
X154795237Y-94855091D01*
X154687007Y-94770852D01*
X154617576Y-94716811D01*
X154584319Y-94698813D01*
X154533929Y-94648802D01*
X154518576Y-94579485D01*
X154543136Y-94512872D01*
X154584320Y-94477186D01*
X154617576Y-94459189D01*
X154795240Y-94320906D01*
X154947722Y-94155268D01*
X155036518Y-94019354D01*
X155090520Y-93973268D01*
X155160868Y-93963692D01*
X155225225Y-93993669D01*
X155247480Y-94019353D01*
X155276778Y-94064197D01*
X155336275Y-94155265D01*
X155336279Y-94155270D01*
X155488762Y-94320908D01*
X155537336Y-94358715D01*
X155666424Y-94459189D01*
X155864426Y-94566342D01*
X155864427Y-94566342D01*
X155864428Y-94566343D01*
X155952320Y-94596516D01*
X156077365Y-94639444D01*
X156299431Y-94676500D01*
X156299435Y-94676500D01*
X156524565Y-94676500D01*
X156524569Y-94676500D01*
X156746635Y-94639444D01*
X156959574Y-94566342D01*
X157157576Y-94459189D01*
X157335240Y-94320906D01*
X157487722Y-94155268D01*
X157576518Y-94019354D01*
X157630520Y-93973268D01*
X157700868Y-93963692D01*
X157765225Y-93993669D01*
X157787480Y-94019353D01*
X157816778Y-94064197D01*
X157876275Y-94155265D01*
X157876279Y-94155270D01*
X158028762Y-94320908D01*
X158077336Y-94358715D01*
X158206424Y-94459189D01*
X158239680Y-94477186D01*
X158290071Y-94527200D01*
X158305423Y-94596516D01*
X158280862Y-94663129D01*
X158239680Y-94698813D01*
X158206426Y-94716810D01*
X158206424Y-94716811D01*
X158028762Y-94855091D01*
X157876279Y-95020729D01*
X157876275Y-95020734D01*
X157753141Y-95209206D01*
X157662703Y-95415386D01*
X157662702Y-95415387D01*
X157607437Y-95633624D01*
X157588844Y-95858000D01*
X157607437Y-96082375D01*
X157662702Y-96300612D01*
X157662703Y-96300613D01*
X157753141Y-96506793D01*
X157876275Y-96695265D01*
X157876279Y-96695270D01*
X158028762Y-96860908D01*
X158083331Y-96903381D01*
X158206424Y-96999189D01*
X158404426Y-97106342D01*
X158404427Y-97106342D01*
X158404428Y-97106343D01*
X158516227Y-97144723D01*
X158617365Y-97179444D01*
X158839431Y-97216500D01*
X158839435Y-97216500D01*
X159064565Y-97216500D01*
X159064569Y-97216500D01*
X159286635Y-97179444D01*
X159499574Y-97106342D01*
X159697576Y-96999189D01*
X159875240Y-96860906D01*
X160027722Y-96695268D01*
X160116518Y-96559354D01*
X160170520Y-96513268D01*
X160240868Y-96503692D01*
X160305225Y-96533669D01*
X160327480Y-96559353D01*
X160360607Y-96610058D01*
X160416275Y-96695265D01*
X160416279Y-96695270D01*
X160568762Y-96860908D01*
X160623331Y-96903381D01*
X160746424Y-96999189D01*
X160944426Y-97106342D01*
X160944427Y-97106342D01*
X160944428Y-97106343D01*
X161056227Y-97144723D01*
X161157365Y-97179444D01*
X161379431Y-97216500D01*
X161379435Y-97216500D01*
X161604565Y-97216500D01*
X161604569Y-97216500D01*
X161826635Y-97179444D01*
X162039574Y-97106342D01*
X162237576Y-96999189D01*
X162415240Y-96860906D01*
X162567722Y-96695268D01*
X162656518Y-96559354D01*
X162710520Y-96513268D01*
X162780868Y-96503692D01*
X162845225Y-96533669D01*
X162867480Y-96559353D01*
X162900607Y-96610058D01*
X162956275Y-96695265D01*
X162956279Y-96695270D01*
X163108762Y-96860908D01*
X163163331Y-96903381D01*
X163286424Y-96999189D01*
X163484426Y-97106342D01*
X163484427Y-97106342D01*
X163484428Y-97106343D01*
X163596227Y-97144723D01*
X163697365Y-97179444D01*
X163919431Y-97216500D01*
X163919435Y-97216500D01*
X164144565Y-97216500D01*
X164144569Y-97216500D01*
X164366635Y-97179444D01*
X164579574Y-97106342D01*
X164777576Y-96999189D01*
X164955240Y-96860906D01*
X165107722Y-96695268D01*
X165196518Y-96559354D01*
X165250520Y-96513268D01*
X165320868Y-96503692D01*
X165385225Y-96533669D01*
X165407480Y-96559353D01*
X165440607Y-96610058D01*
X165496275Y-96695265D01*
X165496279Y-96695270D01*
X165648762Y-96860908D01*
X165703331Y-96903381D01*
X165826424Y-96999189D01*
X166024426Y-97106342D01*
X166024427Y-97106342D01*
X166024428Y-97106343D01*
X166136227Y-97144723D01*
X166237365Y-97179444D01*
X166459431Y-97216500D01*
X166459435Y-97216500D01*
X166684565Y-97216500D01*
X166684569Y-97216500D01*
X166906635Y-97179444D01*
X167119574Y-97106342D01*
X167317576Y-96999189D01*
X167495240Y-96860906D01*
X167647722Y-96695268D01*
X167736518Y-96559354D01*
X167790520Y-96513268D01*
X167860868Y-96503692D01*
X167925225Y-96533669D01*
X167947480Y-96559353D01*
X167980607Y-96610058D01*
X168036275Y-96695265D01*
X168036279Y-96695270D01*
X168188762Y-96860908D01*
X168243331Y-96903381D01*
X168366424Y-96999189D01*
X168564426Y-97106342D01*
X168564427Y-97106342D01*
X168564428Y-97106343D01*
X168676227Y-97144723D01*
X168777365Y-97179444D01*
X168999431Y-97216500D01*
X168999435Y-97216500D01*
X169224565Y-97216500D01*
X169224569Y-97216500D01*
X169446635Y-97179444D01*
X169659574Y-97106342D01*
X169857576Y-96999189D01*
X170035240Y-96860906D01*
X170187722Y-96695268D01*
X170276518Y-96559354D01*
X170330520Y-96513268D01*
X170400868Y-96503692D01*
X170465225Y-96533669D01*
X170487480Y-96559353D01*
X170520607Y-96610058D01*
X170576275Y-96695265D01*
X170576279Y-96695270D01*
X170728762Y-96860908D01*
X170783331Y-96903381D01*
X170906424Y-96999189D01*
X171104426Y-97106342D01*
X171104427Y-97106342D01*
X171104428Y-97106343D01*
X171216227Y-97144723D01*
X171317365Y-97179444D01*
X171539431Y-97216500D01*
X171539435Y-97216500D01*
X171764565Y-97216500D01*
X171764569Y-97216500D01*
X171986635Y-97179444D01*
X172199574Y-97106342D01*
X172397576Y-96999189D01*
X172575240Y-96860906D01*
X172727722Y-96695268D01*
X172850860Y-96506791D01*
X172941296Y-96300616D01*
X172996564Y-96082368D01*
X173015156Y-95858000D01*
X172996564Y-95633632D01*
X172941296Y-95415384D01*
X172850860Y-95209209D01*
X172844140Y-95198924D01*
X172727724Y-95020734D01*
X172727720Y-95020729D01*
X172575237Y-94855091D01*
X172467007Y-94770852D01*
X172397576Y-94716811D01*
X172364319Y-94698813D01*
X172313929Y-94648802D01*
X172298576Y-94579485D01*
X172323136Y-94512872D01*
X172364320Y-94477186D01*
X172397576Y-94459189D01*
X172575240Y-94320906D01*
X172727722Y-94155268D01*
X172816518Y-94019354D01*
X172870520Y-93973268D01*
X172940868Y-93963692D01*
X173005225Y-93993669D01*
X173027480Y-94019353D01*
X173056778Y-94064197D01*
X173116275Y-94155265D01*
X173116279Y-94155270D01*
X173268762Y-94320908D01*
X173317336Y-94358715D01*
X173446424Y-94459189D01*
X173644426Y-94566342D01*
X173644427Y-94566342D01*
X173644428Y-94566343D01*
X173732320Y-94596516D01*
X173857365Y-94639444D01*
X174079431Y-94676500D01*
X174079435Y-94676500D01*
X174304565Y-94676500D01*
X174304569Y-94676500D01*
X174526635Y-94639444D01*
X174739574Y-94566342D01*
X174937576Y-94459189D01*
X175115240Y-94320906D01*
X175267722Y-94155268D01*
X175390860Y-93966791D01*
X175481296Y-93760616D01*
X175536564Y-93542368D01*
X175555156Y-93318000D01*
X175536564Y-93093632D01*
X175490917Y-92913375D01*
X175481297Y-92875387D01*
X175481296Y-92875386D01*
X175481296Y-92875384D01*
X175390860Y-92669209D01*
X175377083Y-92648122D01*
X175267724Y-92480734D01*
X175267720Y-92480729D01*
X175115237Y-92315091D01*
X174995367Y-92221792D01*
X174937576Y-92176811D01*
X174739574Y-92069658D01*
X174739572Y-92069657D01*
X174739571Y-92069656D01*
X174526639Y-91996557D01*
X174526630Y-91996555D01*
X174482476Y-91989187D01*
X174304569Y-91959500D01*
X174079431Y-91959500D01*
X173931211Y-91984233D01*
X173857369Y-91996555D01*
X173857360Y-91996557D01*
X173644428Y-92069656D01*
X173644426Y-92069658D01*
X173446426Y-92176810D01*
X173446424Y-92176811D01*
X173268762Y-92315091D01*
X173116279Y-92480729D01*
X173027483Y-92616643D01*
X172973479Y-92662731D01*
X172903131Y-92672306D01*
X172838774Y-92642329D01*
X172816517Y-92616643D01*
X172727720Y-92480729D01*
X172575237Y-92315091D01*
X172455367Y-92221792D01*
X172397576Y-92176811D01*
X172199574Y-92069658D01*
X172199572Y-92069657D01*
X172199571Y-92069656D01*
X171986639Y-91996557D01*
X171986630Y-91996555D01*
X171942476Y-91989187D01*
X171764569Y-91959500D01*
X171539431Y-91959500D01*
X171391211Y-91984233D01*
X171317369Y-91996555D01*
X171317360Y-91996557D01*
X171104428Y-92069656D01*
X171104426Y-92069658D01*
X170906426Y-92176810D01*
X170906424Y-92176811D01*
X170728762Y-92315091D01*
X170576279Y-92480729D01*
X170487483Y-92616643D01*
X170433479Y-92662731D01*
X170363131Y-92672306D01*
X170298774Y-92642329D01*
X170276517Y-92616643D01*
X170187720Y-92480729D01*
X170035237Y-92315091D01*
X169915367Y-92221792D01*
X169857576Y-92176811D01*
X169659574Y-92069658D01*
X169659572Y-92069657D01*
X169659571Y-92069656D01*
X169446639Y-91996557D01*
X169446630Y-91996555D01*
X169402476Y-91989187D01*
X169224569Y-91959500D01*
X168999431Y-91959500D01*
X168851211Y-91984233D01*
X168777369Y-91996555D01*
X168777360Y-91996557D01*
X168564428Y-92069656D01*
X168564426Y-92069658D01*
X168366426Y-92176810D01*
X168366424Y-92176811D01*
X168188762Y-92315091D01*
X168036279Y-92480729D01*
X168036275Y-92480734D01*
X167913141Y-92669206D01*
X167822703Y-92875386D01*
X167822702Y-92875387D01*
X167767437Y-93093624D01*
X167767436Y-93093630D01*
X167767436Y-93093632D01*
X167748844Y-93318000D01*
X167761425Y-93469830D01*
X167767437Y-93542375D01*
X167822702Y-93760612D01*
X167822703Y-93760613D01*
X167913141Y-93966793D01*
X168036275Y-94155265D01*
X168036279Y-94155270D01*
X168188762Y-94320908D01*
X168237336Y-94358715D01*
X168366424Y-94459189D01*
X168399680Y-94477186D01*
X168450071Y-94527200D01*
X168465423Y-94596516D01*
X168440862Y-94663129D01*
X168399680Y-94698813D01*
X168366426Y-94716810D01*
X168366424Y-94716811D01*
X168188762Y-94855091D01*
X168036279Y-95020729D01*
X167947483Y-95156643D01*
X167893479Y-95202731D01*
X167823131Y-95212306D01*
X167758774Y-95182329D01*
X167736517Y-95156643D01*
X167647720Y-95020729D01*
X167495237Y-94855091D01*
X167387007Y-94770852D01*
X167317576Y-94716811D01*
X167119574Y-94609658D01*
X167119572Y-94609657D01*
X167119571Y-94609656D01*
X166906639Y-94536557D01*
X166906630Y-94536555D01*
X166850567Y-94527200D01*
X166684569Y-94499500D01*
X166459431Y-94499500D01*
X166311211Y-94524233D01*
X166237369Y-94536555D01*
X166237360Y-94536557D01*
X166024428Y-94609656D01*
X166024426Y-94609658D01*
X165826432Y-94716807D01*
X165826426Y-94716810D01*
X165826424Y-94716811D01*
X165648762Y-94855091D01*
X165496279Y-95020729D01*
X165407483Y-95156643D01*
X165353479Y-95202731D01*
X165283131Y-95212306D01*
X165218774Y-95182329D01*
X165196517Y-95156643D01*
X165107720Y-95020729D01*
X164955237Y-94855091D01*
X164847007Y-94770852D01*
X164777576Y-94716811D01*
X164744319Y-94698813D01*
X164693929Y-94648802D01*
X164678576Y-94579485D01*
X164703136Y-94512872D01*
X164744320Y-94477186D01*
X164777576Y-94459189D01*
X164955240Y-94320906D01*
X165107722Y-94155268D01*
X165230860Y-93966791D01*
X165321296Y-93760616D01*
X165376564Y-93542368D01*
X165395156Y-93318000D01*
X165376564Y-93093632D01*
X165330917Y-92913375D01*
X165321297Y-92875387D01*
X165321296Y-92875386D01*
X165321296Y-92875384D01*
X165230860Y-92669209D01*
X165217083Y-92648122D01*
X165107724Y-92480734D01*
X165107720Y-92480729D01*
X164955237Y-92315091D01*
X164835367Y-92221792D01*
X164777576Y-92176811D01*
X164579574Y-92069658D01*
X164579572Y-92069657D01*
X164579571Y-92069656D01*
X164366639Y-91996557D01*
X164366630Y-91996555D01*
X164322476Y-91989187D01*
X164144569Y-91959500D01*
X163919431Y-91959500D01*
X163771211Y-91984233D01*
X163697369Y-91996555D01*
X163697360Y-91996557D01*
X163484428Y-92069656D01*
X163484426Y-92069658D01*
X163286426Y-92176810D01*
X163286424Y-92176811D01*
X163108762Y-92315091D01*
X162956279Y-92480729D01*
X162956275Y-92480734D01*
X162833141Y-92669206D01*
X162742703Y-92875386D01*
X162742702Y-92875387D01*
X162687437Y-93093624D01*
X162687436Y-93093630D01*
X162687436Y-93093632D01*
X162668844Y-93318000D01*
X162681425Y-93469830D01*
X162687437Y-93542375D01*
X162742702Y-93760612D01*
X162742703Y-93760613D01*
X162833141Y-93966793D01*
X162956275Y-94155265D01*
X162956279Y-94155270D01*
X163108762Y-94320908D01*
X163157336Y-94358715D01*
X163286424Y-94459189D01*
X163319680Y-94477186D01*
X163370071Y-94527200D01*
X163385423Y-94596516D01*
X163360862Y-94663129D01*
X163319680Y-94698813D01*
X163286426Y-94716810D01*
X163286424Y-94716811D01*
X163108762Y-94855091D01*
X162956279Y-95020729D01*
X162867483Y-95156643D01*
X162813479Y-95202731D01*
X162743131Y-95212306D01*
X162678774Y-95182329D01*
X162656517Y-95156643D01*
X162567720Y-95020729D01*
X162415237Y-94855091D01*
X162307007Y-94770852D01*
X162237576Y-94716811D01*
X162039574Y-94609658D01*
X162039572Y-94609657D01*
X162039571Y-94609656D01*
X161826639Y-94536557D01*
X161826630Y-94536555D01*
X161770567Y-94527200D01*
X161604569Y-94499500D01*
X161379431Y-94499500D01*
X161231211Y-94524233D01*
X161157369Y-94536555D01*
X161157360Y-94536557D01*
X160944428Y-94609656D01*
X160944426Y-94609658D01*
X160746432Y-94716807D01*
X160746426Y-94716810D01*
X160746424Y-94716811D01*
X160568762Y-94855091D01*
X160416279Y-95020729D01*
X160327483Y-95156643D01*
X160273479Y-95202731D01*
X160203131Y-95212306D01*
X160138774Y-95182329D01*
X160116517Y-95156643D01*
X160027720Y-95020729D01*
X159875237Y-94855091D01*
X159767007Y-94770852D01*
X159697576Y-94716811D01*
X159664319Y-94698813D01*
X159613929Y-94648802D01*
X159598576Y-94579485D01*
X159623136Y-94512872D01*
X159664320Y-94477186D01*
X159697576Y-94459189D01*
X159875240Y-94320906D01*
X160027722Y-94155268D01*
X160150860Y-93966791D01*
X160241296Y-93760616D01*
X160296564Y-93542368D01*
X160315156Y-93318000D01*
X160296564Y-93093632D01*
X160250917Y-92913375D01*
X160241297Y-92875387D01*
X160241296Y-92875386D01*
X160241296Y-92875384D01*
X160150860Y-92669209D01*
X160137083Y-92648122D01*
X160027724Y-92480734D01*
X160027720Y-92480729D01*
X159875237Y-92315091D01*
X159755367Y-92221792D01*
X159697576Y-92176811D01*
X159499574Y-92069658D01*
X159499572Y-92069657D01*
X159499571Y-92069656D01*
X159286639Y-91996557D01*
X159286630Y-91996555D01*
X159242476Y-91989187D01*
X159064569Y-91959500D01*
X158839431Y-91959500D01*
X158691211Y-91984233D01*
X158617369Y-91996555D01*
X158617360Y-91996557D01*
X158404428Y-92069656D01*
X158404426Y-92069658D01*
X158206426Y-92176810D01*
X158206424Y-92176811D01*
X158028762Y-92315091D01*
X157876279Y-92480729D01*
X157787483Y-92616643D01*
X157733479Y-92662731D01*
X157663131Y-92672306D01*
X157598774Y-92642329D01*
X157576517Y-92616643D01*
X157487720Y-92480729D01*
X157335237Y-92315091D01*
X157215367Y-92221792D01*
X157157576Y-92176811D01*
X156959574Y-92069658D01*
X156959572Y-92069657D01*
X156959571Y-92069656D01*
X156746639Y-91996557D01*
X156746630Y-91996555D01*
X156702476Y-91989187D01*
X156524569Y-91959500D01*
X156299431Y-91959500D01*
X156151211Y-91984233D01*
X156077369Y-91996555D01*
X156077360Y-91996557D01*
X155864428Y-92069656D01*
X155864426Y-92069658D01*
X155666426Y-92176810D01*
X155666424Y-92176811D01*
X155488762Y-92315091D01*
X155336279Y-92480729D01*
X155247483Y-92616643D01*
X155193479Y-92662731D01*
X155123131Y-92672306D01*
X155058774Y-92642329D01*
X155036517Y-92616643D01*
X154947720Y-92480729D01*
X154795237Y-92315091D01*
X154675367Y-92221792D01*
X154617576Y-92176811D01*
X154419574Y-92069658D01*
X154419572Y-92069657D01*
X154419571Y-92069656D01*
X154206639Y-91996557D01*
X154206630Y-91996555D01*
X154162476Y-91989187D01*
X153984569Y-91959500D01*
X153759431Y-91959500D01*
X153611211Y-91984233D01*
X153537369Y-91996555D01*
X153537360Y-91996557D01*
X153324428Y-92069656D01*
X153324426Y-92069658D01*
X153126426Y-92176810D01*
X153126424Y-92176811D01*
X152948762Y-92315091D01*
X152796279Y-92480729D01*
X152707483Y-92616643D01*
X152653479Y-92662731D01*
X152583131Y-92672306D01*
X152518774Y-92642329D01*
X152496517Y-92616643D01*
X152407720Y-92480729D01*
X152255237Y-92315091D01*
X152135367Y-92221792D01*
X152077576Y-92176811D01*
X151879574Y-92069658D01*
X151879572Y-92069657D01*
X151879571Y-92069656D01*
X151666639Y-91996557D01*
X151666630Y-91996555D01*
X151622476Y-91989187D01*
X151444569Y-91959500D01*
X151219431Y-91959500D01*
X151071211Y-91984233D01*
X150997369Y-91996555D01*
X150997360Y-91996557D01*
X150784428Y-92069656D01*
X150784426Y-92069658D01*
X150586426Y-92176810D01*
X150586424Y-92176811D01*
X150408762Y-92315091D01*
X150256279Y-92480729D01*
X150256275Y-92480734D01*
X150133141Y-92669206D01*
X150042703Y-92875386D01*
X150042702Y-92875387D01*
X149987437Y-93093624D01*
X149987436Y-93093630D01*
X149987436Y-93093632D01*
X149968844Y-93318000D01*
X149981425Y-93469830D01*
X149987437Y-93542375D01*
X150042702Y-93760612D01*
X150042703Y-93760613D01*
X150133141Y-93966793D01*
X150256275Y-94155265D01*
X150256279Y-94155270D01*
X150408762Y-94320908D01*
X150457336Y-94358715D01*
X150586424Y-94459189D01*
X150619680Y-94477186D01*
X150670071Y-94527200D01*
X150685423Y-94596516D01*
X150660862Y-94663129D01*
X150619680Y-94698813D01*
X150586426Y-94716810D01*
X150586424Y-94716811D01*
X150408762Y-94855091D01*
X150256279Y-95020729D01*
X150167483Y-95156643D01*
X150113479Y-95202731D01*
X150043131Y-95212306D01*
X149978774Y-95182329D01*
X149956517Y-95156643D01*
X149867720Y-95020729D01*
X149715237Y-94855091D01*
X149607007Y-94770852D01*
X149537576Y-94716811D01*
X149339574Y-94609658D01*
X149339572Y-94609657D01*
X149339571Y-94609656D01*
X149126639Y-94536557D01*
X149126630Y-94536555D01*
X149070567Y-94527200D01*
X148904569Y-94499500D01*
X148679431Y-94499500D01*
X148531211Y-94524233D01*
X148457369Y-94536555D01*
X148457360Y-94536557D01*
X148244428Y-94609656D01*
X148244426Y-94609658D01*
X148046432Y-94716807D01*
X148046426Y-94716810D01*
X148046424Y-94716811D01*
X147868762Y-94855091D01*
X147716279Y-95020729D01*
X147627483Y-95156643D01*
X147573479Y-95202731D01*
X147503131Y-95212306D01*
X147438774Y-95182329D01*
X147416517Y-95156643D01*
X147327720Y-95020729D01*
X147175237Y-94855091D01*
X147067007Y-94770852D01*
X146997576Y-94716811D01*
X146964319Y-94698813D01*
X146913929Y-94648802D01*
X146898576Y-94579485D01*
X146923136Y-94512872D01*
X146964320Y-94477186D01*
X146997576Y-94459189D01*
X147175240Y-94320906D01*
X147327722Y-94155268D01*
X147450860Y-93966791D01*
X147541296Y-93760616D01*
X147596564Y-93542368D01*
X147615156Y-93318000D01*
X147596564Y-93093632D01*
X147550917Y-92913375D01*
X147541297Y-92875387D01*
X147541296Y-92875386D01*
X147541296Y-92875384D01*
X147450860Y-92669209D01*
X147437083Y-92648122D01*
X147327724Y-92480734D01*
X147327720Y-92480729D01*
X147175237Y-92315091D01*
X147055367Y-92221792D01*
X146997576Y-92176811D01*
X146799574Y-92069658D01*
X146799572Y-92069657D01*
X146799571Y-92069656D01*
X146586639Y-91996557D01*
X146586630Y-91996555D01*
X146542476Y-91989187D01*
X146364569Y-91959500D01*
X146139431Y-91959500D01*
X145991211Y-91984233D01*
X145917369Y-91996555D01*
X145917360Y-91996557D01*
X145704428Y-92069656D01*
X145704426Y-92069658D01*
X145506426Y-92176810D01*
X145506424Y-92176811D01*
X145328762Y-92315091D01*
X145176279Y-92480729D01*
X145087483Y-92616643D01*
X145033479Y-92662731D01*
X144963131Y-92672306D01*
X144898774Y-92642329D01*
X144876517Y-92616643D01*
X144787720Y-92480729D01*
X144635237Y-92315091D01*
X144515367Y-92221792D01*
X144457576Y-92176811D01*
X144259574Y-92069658D01*
X144259572Y-92069657D01*
X144259571Y-92069656D01*
X144046639Y-91996557D01*
X144046630Y-91996555D01*
X144002476Y-91989187D01*
X143824569Y-91959500D01*
X143599431Y-91959500D01*
X143451211Y-91984233D01*
X143377369Y-91996555D01*
X143377360Y-91996557D01*
X143164428Y-92069656D01*
X143164426Y-92069658D01*
X142966426Y-92176810D01*
X142966424Y-92176811D01*
X142788762Y-92315091D01*
X142636279Y-92480729D01*
X142636275Y-92480734D01*
X142513141Y-92669206D01*
X142422703Y-92875386D01*
X142422702Y-92875387D01*
X142367437Y-93093624D01*
X142367436Y-93093630D01*
X142367436Y-93093632D01*
X142348844Y-93318000D01*
X142361425Y-93469830D01*
X142367437Y-93542375D01*
X142422702Y-93760612D01*
X142422703Y-93760613D01*
X142513141Y-93966793D01*
X142636275Y-94155265D01*
X142636279Y-94155270D01*
X142788762Y-94320908D01*
X142837336Y-94358715D01*
X142966424Y-94459189D01*
X142999680Y-94477186D01*
X143050071Y-94527200D01*
X143065423Y-94596516D01*
X143040862Y-94663129D01*
X142999680Y-94698813D01*
X142966426Y-94716810D01*
X142966424Y-94716811D01*
X142788762Y-94855091D01*
X142636279Y-95020729D01*
X142547483Y-95156643D01*
X142493479Y-95202731D01*
X142423131Y-95212306D01*
X142358774Y-95182329D01*
X142336517Y-95156643D01*
X142247720Y-95020729D01*
X142095237Y-94855091D01*
X141987007Y-94770852D01*
X141917576Y-94716811D01*
X141719574Y-94609658D01*
X141719572Y-94609657D01*
X141719571Y-94609656D01*
X141506639Y-94536557D01*
X141506630Y-94536555D01*
X141450567Y-94527200D01*
X141284569Y-94499500D01*
X141059431Y-94499500D01*
X140911211Y-94524233D01*
X140837369Y-94536555D01*
X140837360Y-94536557D01*
X140624428Y-94609656D01*
X140624426Y-94609658D01*
X140426432Y-94716807D01*
X140426426Y-94716810D01*
X140426424Y-94716811D01*
X140248762Y-94855091D01*
X140096279Y-95020729D01*
X140007483Y-95156643D01*
X139953479Y-95202731D01*
X139883131Y-95212306D01*
X139818774Y-95182329D01*
X139796517Y-95156643D01*
X139707720Y-95020729D01*
X139555237Y-94855091D01*
X139447007Y-94770852D01*
X139377576Y-94716811D01*
X139344319Y-94698813D01*
X139293929Y-94648802D01*
X139278576Y-94579485D01*
X139303136Y-94512872D01*
X139344320Y-94477186D01*
X139377576Y-94459189D01*
X139555240Y-94320906D01*
X139707722Y-94155268D01*
X139830860Y-93966791D01*
X139921296Y-93760616D01*
X139976564Y-93542368D01*
X139995156Y-93318000D01*
X139976564Y-93093632D01*
X139930917Y-92913375D01*
X139921297Y-92875387D01*
X139921296Y-92875386D01*
X139921296Y-92875384D01*
X139830860Y-92669209D01*
X139817083Y-92648122D01*
X139707724Y-92480734D01*
X139707720Y-92480729D01*
X139555237Y-92315091D01*
X139435367Y-92221792D01*
X139377576Y-92176811D01*
X139179574Y-92069658D01*
X139179572Y-92069657D01*
X139179571Y-92069656D01*
X138966639Y-91996557D01*
X138966630Y-91996555D01*
X138922476Y-91989187D01*
X138744569Y-91959500D01*
X138519431Y-91959500D01*
X138371211Y-91984233D01*
X138297369Y-91996555D01*
X138297360Y-91996557D01*
X138084428Y-92069656D01*
X138084426Y-92069658D01*
X137886426Y-92176810D01*
X137886424Y-92176811D01*
X137708762Y-92315091D01*
X137556279Y-92480729D01*
X137467483Y-92616643D01*
X137413479Y-92662731D01*
X137343131Y-92672306D01*
X137278774Y-92642329D01*
X137256517Y-92616643D01*
X137167720Y-92480729D01*
X137015237Y-92315091D01*
X136895367Y-92221792D01*
X136837576Y-92176811D01*
X136639574Y-92069658D01*
X136639572Y-92069657D01*
X136639571Y-92069656D01*
X136426639Y-91996557D01*
X136426630Y-91996555D01*
X136382476Y-91989187D01*
X136204569Y-91959500D01*
X135979431Y-91959500D01*
X135831211Y-91984233D01*
X135757369Y-91996555D01*
X135757360Y-91996557D01*
X135544428Y-92069656D01*
X135544426Y-92069658D01*
X135346426Y-92176810D01*
X135346424Y-92176811D01*
X135168762Y-92315091D01*
X135016279Y-92480729D01*
X134927483Y-92616643D01*
X134873479Y-92662731D01*
X134803131Y-92672306D01*
X134738774Y-92642329D01*
X134716517Y-92616643D01*
X134627720Y-92480729D01*
X134475237Y-92315091D01*
X134355367Y-92221792D01*
X134297576Y-92176811D01*
X134099574Y-92069658D01*
X134099572Y-92069657D01*
X134099571Y-92069656D01*
X133886639Y-91996557D01*
X133886630Y-91996555D01*
X133842476Y-91989187D01*
X133664569Y-91959500D01*
X133439431Y-91959500D01*
X133291211Y-91984233D01*
X133217369Y-91996555D01*
X133217360Y-91996557D01*
X133004428Y-92069656D01*
X133004426Y-92069658D01*
X132806426Y-92176810D01*
X132806424Y-92176811D01*
X132628762Y-92315091D01*
X132476279Y-92480729D01*
X132476275Y-92480734D01*
X132353141Y-92669206D01*
X132262703Y-92875386D01*
X132262702Y-92875387D01*
X132207437Y-93093624D01*
X132207436Y-93093630D01*
X132207436Y-93093632D01*
X132188844Y-93318000D01*
X132201425Y-93469830D01*
X132207437Y-93542375D01*
X132262702Y-93760612D01*
X132262703Y-93760613D01*
X132353141Y-93966793D01*
X132476275Y-94155265D01*
X132476279Y-94155270D01*
X132628762Y-94320908D01*
X132677336Y-94358715D01*
X132806424Y-94459189D01*
X132839680Y-94477186D01*
X132890071Y-94527200D01*
X132905423Y-94596516D01*
X132880862Y-94663129D01*
X132839680Y-94698813D01*
X132806426Y-94716810D01*
X132806424Y-94716811D01*
X132628762Y-94855091D01*
X132476279Y-95020729D01*
X132387483Y-95156643D01*
X132333479Y-95202731D01*
X132263131Y-95212306D01*
X132198774Y-95182329D01*
X132176517Y-95156643D01*
X132087720Y-95020729D01*
X131935237Y-94855091D01*
X131827007Y-94770852D01*
X131757576Y-94716811D01*
X131559574Y-94609658D01*
X131559572Y-94609657D01*
X131559571Y-94609656D01*
X131346639Y-94536557D01*
X131346630Y-94536555D01*
X131290567Y-94527200D01*
X131124569Y-94499500D01*
X130899431Y-94499500D01*
X130751211Y-94524233D01*
X130677369Y-94536555D01*
X130677360Y-94536557D01*
X130464428Y-94609656D01*
X130464426Y-94609658D01*
X130266432Y-94716807D01*
X130266426Y-94716810D01*
X130266424Y-94716811D01*
X130088762Y-94855091D01*
X129936279Y-95020729D01*
X129847483Y-95156643D01*
X129793479Y-95202731D01*
X129723131Y-95212306D01*
X129658774Y-95182329D01*
X129636517Y-95156643D01*
X129547720Y-95020729D01*
X129404524Y-94865179D01*
X129373103Y-94801514D01*
X129381090Y-94730968D01*
X129425948Y-94675939D01*
X129453183Y-94661789D01*
X129568204Y-94618889D01*
X129620842Y-94579485D01*
X129685261Y-94531261D01*
X129772887Y-94414207D01*
X129772887Y-94414206D01*
X129772889Y-94414204D01*
X129823989Y-94277201D01*
X129828582Y-94234484D01*
X129830499Y-94216649D01*
X129830500Y-94216632D01*
X129830500Y-92419367D01*
X129830499Y-92419350D01*
X129823990Y-92358803D01*
X129823988Y-92358795D01*
X129772889Y-92221797D01*
X129772887Y-92221792D01*
X129685261Y-92104738D01*
X129568207Y-92017112D01*
X129568202Y-92017110D01*
X129431204Y-91966011D01*
X129431196Y-91966009D01*
X129370649Y-91959500D01*
X129370638Y-91959500D01*
X127573362Y-91959500D01*
X127573350Y-91959500D01*
X127512803Y-91966009D01*
X127512795Y-91966011D01*
X127375797Y-92017110D01*
X127375792Y-92017112D01*
X127277509Y-92090687D01*
X127210989Y-92115498D01*
X127141615Y-92100407D01*
X127126491Y-92090687D01*
X127028207Y-92017112D01*
X127028202Y-92017110D01*
X126891204Y-91966011D01*
X126891196Y-91966009D01*
X126830649Y-91959500D01*
X126830638Y-91959500D01*
X125033362Y-91959500D01*
X125033350Y-91959500D01*
X124972803Y-91966009D01*
X124972795Y-91966011D01*
X124835797Y-92017110D01*
X124835792Y-92017112D01*
X124718738Y-92104738D01*
X124631112Y-92221792D01*
X124631110Y-92221797D01*
X124580011Y-92358795D01*
X124580009Y-92358803D01*
X124573500Y-92419350D01*
X124573500Y-93551629D01*
X124553498Y-93619750D01*
X124536595Y-93640724D01*
X123942837Y-94234481D01*
X123942832Y-94234488D01*
X123859826Y-94358715D01*
X123802650Y-94496750D01*
X123802649Y-94496753D01*
X123773500Y-94643290D01*
X123773500Y-101283500D01*
X123753498Y-101351621D01*
X123699842Y-101398114D01*
X123647500Y-101409500D01*
X122641677Y-101409500D01*
X122573556Y-101389498D01*
X122552585Y-101372598D01*
X122517387Y-101337400D01*
X122372692Y-101248151D01*
X122211314Y-101194676D01*
X122211311Y-101194675D01*
X122211309Y-101194675D01*
X122111719Y-101184500D01*
X121577289Y-101184500D01*
X121477690Y-101194675D01*
X121477687Y-101194675D01*
X121477686Y-101194676D01*
X121440561Y-101206978D01*
X121316307Y-101248151D01*
X121171612Y-101337400D01*
X121171606Y-101337405D01*
X121146095Y-101362917D01*
X121083783Y-101396943D01*
X121012968Y-101391878D01*
X120967905Y-101362917D01*
X120942393Y-101337405D01*
X120942387Y-101337400D01*
X120797692Y-101248151D01*
X120791496Y-101246098D01*
X120636314Y-101194676D01*
X120636311Y-101194675D01*
X120636309Y-101194675D01*
X120536719Y-101184500D01*
X120002289Y-101184500D01*
X119902690Y-101194675D01*
X119902687Y-101194675D01*
X119902686Y-101194676D01*
X119865561Y-101206978D01*
X119741307Y-101248151D01*
X119596612Y-101337400D01*
X119596606Y-101337405D01*
X119476405Y-101457606D01*
X119476400Y-101457612D01*
X119387151Y-101602307D01*
X119333675Y-101763690D01*
X119323500Y-101863280D01*
X118032500Y-101863280D01*
X118032500Y-94071805D01*
X118032730Y-94064198D01*
X118048432Y-93804606D01*
X118050264Y-93774313D01*
X118052095Y-93759236D01*
X118103759Y-93477313D01*
X118107392Y-93462573D01*
X118192665Y-93188922D01*
X118198052Y-93174721D01*
X118315678Y-92913366D01*
X118322736Y-92899916D01*
X118471021Y-92654624D01*
X118479637Y-92642140D01*
X118656411Y-92416505D01*
X118666479Y-92405142D01*
X118869142Y-92202479D01*
X118880505Y-92192411D01*
X119106140Y-92015637D01*
X119118624Y-92007021D01*
X119363916Y-91858736D01*
X119377366Y-91851678D01*
X119638721Y-91734052D01*
X119652922Y-91728665D01*
X119926573Y-91643392D01*
X119941313Y-91639759D01*
X120223236Y-91588095D01*
X120238313Y-91586264D01*
X120500890Y-91570381D01*
X120528199Y-91568730D01*
X120535806Y-91568500D01*
X120597892Y-91568500D01*
X179466108Y-91568500D01*
X179528194Y-91568500D01*
X179535801Y-91568730D01*
G37*
G04 #@! TD.AperFunction*
G04 #@! TA.AperFunction,Conductor*
G36*
X131499316Y-122612685D02*
G01*
X131545071Y-122665489D01*
X131556274Y-122717720D01*
X131532000Y-126893000D01*
X132038250Y-127568000D01*
X133931999Y-130093000D01*
X133932000Y-130093000D01*
X141408000Y-130093000D01*
X141475039Y-130112685D01*
X141520794Y-130165489D01*
X141532000Y-130217000D01*
X141532000Y-133069000D01*
X141512315Y-133136039D01*
X141459511Y-133181794D01*
X141408000Y-133193000D01*
X130873630Y-133193000D01*
X130806591Y-133173315D01*
X130760836Y-133120511D01*
X130750892Y-133051353D01*
X130755924Y-133029997D01*
X130759004Y-133020700D01*
X130759006Y-133020690D01*
X130769499Y-132917986D01*
X130769500Y-132917973D01*
X130769500Y-132193000D01*
X128444501Y-132193000D01*
X128444501Y-132917986D01*
X128454994Y-133020697D01*
X128458076Y-133029999D01*
X128460476Y-133099827D01*
X128424743Y-133159868D01*
X128362222Y-133191059D01*
X128340369Y-133193000D01*
X128156293Y-133193000D01*
X128089254Y-133173315D01*
X128043499Y-133120511D01*
X128032293Y-133068708D01*
X128032406Y-133020690D01*
X128037247Y-130968013D01*
X128444500Y-130968013D01*
X128444500Y-131693000D01*
X129357000Y-131693000D01*
X129857000Y-131693000D01*
X130769499Y-131693000D01*
X130769499Y-130968028D01*
X130769498Y-130968013D01*
X130759005Y-130865302D01*
X130703858Y-130698880D01*
X130703856Y-130698875D01*
X130611815Y-130549654D01*
X130487845Y-130425684D01*
X130338624Y-130333643D01*
X130338619Y-130333641D01*
X130172197Y-130278494D01*
X130172190Y-130278493D01*
X130069486Y-130268000D01*
X129857000Y-130268000D01*
X129857000Y-131693000D01*
X129357000Y-131693000D01*
X129357000Y-130268000D01*
X129144529Y-130268000D01*
X129144512Y-130268001D01*
X129041802Y-130278494D01*
X128875380Y-130333641D01*
X128875375Y-130333643D01*
X128726154Y-130425684D01*
X128602184Y-130549654D01*
X128510143Y-130698875D01*
X128510141Y-130698880D01*
X128454994Y-130865302D01*
X128454993Y-130865309D01*
X128444500Y-130968013D01*
X128037247Y-130968013D01*
X128043556Y-128292986D01*
X128452001Y-128292986D01*
X128462494Y-128395697D01*
X128517641Y-128562119D01*
X128517643Y-128562124D01*
X128609684Y-128711345D01*
X128733654Y-128835315D01*
X128882875Y-128927356D01*
X128882880Y-128927358D01*
X129049302Y-128982505D01*
X129049309Y-128982506D01*
X129152019Y-128992999D01*
X129364499Y-128992999D01*
X129864500Y-128992999D01*
X130076972Y-128992999D01*
X130076986Y-128992998D01*
X130179697Y-128982505D01*
X130346119Y-128927358D01*
X130346124Y-128927356D01*
X130495345Y-128835315D01*
X130619315Y-128711345D01*
X130711356Y-128562124D01*
X130711358Y-128562119D01*
X130766505Y-128395697D01*
X130766506Y-128395690D01*
X130776999Y-128292986D01*
X130777000Y-128292973D01*
X130777000Y-127568000D01*
X129864500Y-127568000D01*
X129864500Y-128992999D01*
X129364499Y-128992999D01*
X129364500Y-128992998D01*
X129364500Y-127568000D01*
X128452001Y-127568000D01*
X128452001Y-128292986D01*
X128043556Y-128292986D01*
X128048155Y-126343013D01*
X128452000Y-126343013D01*
X128452000Y-127068000D01*
X129364500Y-127068000D01*
X129864500Y-127068000D01*
X130776999Y-127068000D01*
X130776999Y-126343028D01*
X130776998Y-126343013D01*
X130766505Y-126240302D01*
X130711358Y-126073880D01*
X130711356Y-126073875D01*
X130619315Y-125924654D01*
X130495345Y-125800684D01*
X130346124Y-125708643D01*
X130346119Y-125708641D01*
X130179697Y-125653494D01*
X130179690Y-125653493D01*
X130076986Y-125643000D01*
X129864500Y-125643000D01*
X129864500Y-127068000D01*
X129364500Y-127068000D01*
X129364500Y-125643000D01*
X129152029Y-125643000D01*
X129152012Y-125643001D01*
X129049302Y-125653494D01*
X128882880Y-125708641D01*
X128882875Y-125708643D01*
X128733654Y-125800684D01*
X128609684Y-125924654D01*
X128517643Y-126073875D01*
X128517641Y-126073880D01*
X128462494Y-126240302D01*
X128462493Y-126240309D01*
X128452000Y-126343013D01*
X128048155Y-126343013D01*
X128052859Y-124348588D01*
X128072702Y-124281597D01*
X128125614Y-124235966D01*
X128194795Y-124226186D01*
X128258283Y-124255361D01*
X128264540Y-124261201D01*
X128363654Y-124360315D01*
X128512875Y-124452356D01*
X128512880Y-124452358D01*
X128679302Y-124507505D01*
X128679309Y-124507506D01*
X128782019Y-124517999D01*
X129031999Y-124517999D01*
X129532000Y-124517999D01*
X129781972Y-124517999D01*
X129781986Y-124517998D01*
X129884697Y-124507505D01*
X130051119Y-124452358D01*
X130051124Y-124452356D01*
X130200345Y-124360315D01*
X130324315Y-124236345D01*
X130416356Y-124087124D01*
X130416358Y-124087119D01*
X130471505Y-123920697D01*
X130471506Y-123920690D01*
X130481999Y-123817986D01*
X130482000Y-123817973D01*
X130482000Y-123593000D01*
X129532000Y-123593000D01*
X129532000Y-124517999D01*
X129031999Y-124517999D01*
X129032000Y-124517998D01*
X129032000Y-123467000D01*
X129051685Y-123399961D01*
X129104489Y-123354206D01*
X129156000Y-123343000D01*
X129282000Y-123343000D01*
X129282000Y-123217000D01*
X129301685Y-123149961D01*
X129354489Y-123104206D01*
X129406000Y-123093000D01*
X130481999Y-123093000D01*
X130481999Y-122868028D01*
X130481998Y-122868013D01*
X130471505Y-122765302D01*
X130468424Y-122756001D01*
X130466024Y-122686173D01*
X130501757Y-122626132D01*
X130564278Y-122594941D01*
X130586131Y-122593000D01*
X131432277Y-122593000D01*
X131499316Y-122612685D01*
G37*
G04 #@! TD.AperFunction*
G04 #@! TA.AperFunction,Conductor*
G36*
X152756493Y-120412685D02*
G01*
X152765583Y-120419120D01*
X156282774Y-123154713D01*
X156323606Y-123211410D01*
X156330614Y-123255348D01*
X156234694Y-127571755D01*
X156213525Y-127638340D01*
X156159718Y-127682911D01*
X156110725Y-127693000D01*
X154839500Y-127693000D01*
X154772461Y-127673315D01*
X154726706Y-127620511D01*
X154715500Y-127569000D01*
X154715500Y-126894362D01*
X154715499Y-126894345D01*
X154712157Y-126863270D01*
X154708989Y-126833799D01*
X154657889Y-126696796D01*
X154657885Y-126696790D01*
X154656730Y-126695247D01*
X154656056Y-126693441D01*
X154653638Y-126689012D01*
X154654275Y-126688664D01*
X154632316Y-126629782D01*
X154632000Y-126620941D01*
X154632000Y-126093001D01*
X154632000Y-126093000D01*
X154023832Y-125705984D01*
X153589427Y-125429544D01*
X153543437Y-125376945D01*
X153532000Y-125324930D01*
X153532000Y-122793000D01*
X152072063Y-122793000D01*
X152059460Y-122792358D01*
X151982545Y-122784500D01*
X149881462Y-122784500D01*
X149881446Y-122784501D01*
X149804543Y-122792358D01*
X149791941Y-122793000D01*
X149332001Y-122793000D01*
X149332000Y-122793000D01*
X148628652Y-123320511D01*
X148565067Y-123368200D01*
X148499625Y-123392676D01*
X148490667Y-123393000D01*
X136056000Y-123393000D01*
X135988961Y-123373315D01*
X135943206Y-123320511D01*
X135932000Y-123269000D01*
X135932000Y-120517000D01*
X135951685Y-120449961D01*
X136004489Y-120404206D01*
X136056000Y-120393000D01*
X152689454Y-120393000D01*
X152756493Y-120412685D01*
G37*
G04 #@! TD.AperFunction*
G04 #@! TA.AperFunction,Conductor*
G36*
X175025039Y-117187685D02*
G01*
X175070794Y-117240489D01*
X175082000Y-117292000D01*
X175082000Y-121568000D01*
X175081999Y-121568000D01*
X176624648Y-122061647D01*
X178745793Y-122740413D01*
X178803643Y-122779593D01*
X178831128Y-122843830D01*
X178832000Y-122858514D01*
X178832000Y-126644000D01*
X178812315Y-126711039D01*
X178759511Y-126756794D01*
X178708000Y-126768000D01*
X172356000Y-126768000D01*
X172288961Y-126748315D01*
X172243206Y-126695511D01*
X172232000Y-126644000D01*
X172232000Y-117292000D01*
X172251685Y-117224961D01*
X172304489Y-117179206D01*
X172356000Y-117168000D01*
X174958000Y-117168000D01*
X175025039Y-117187685D01*
G37*
G04 #@! TD.AperFunction*
M02*
