%TF.GenerationSoftware,KiCad,Pcbnew,8.0.7*%
%TF.CreationDate,2025-01-02T15:08:53-08:00*%
%TF.ProjectId,pi-zero-serial-hat,70692d7a-6572-46f2-9d73-657269616c2d,1.0*%
%TF.SameCoordinates,Original*%
%TF.FileFunction,Drillmap*%
%TF.FilePolarity,Positive*%
%FSLAX45Y45*%
G04 Gerber Fmt 4.5, Leading zero omitted, Abs format (unit mm)*
G04 Created by KiCad (PCBNEW 8.0.7) date 2025-01-02 15:08:53*
%MOMM*%
%LPD*%
G01*
G04 APERTURE LIST*
%ADD10C,0.150000*%
%ADD11C,0.200000*%
G04 APERTURE END LIST*
D10*
X12053200Y-12106800D02*
X17953200Y-12106800D01*
X17953200Y-9106800D02*
G75*
G02*
X18253200Y-9406800I0J-300000D01*
G01*
X18253200Y-11806800D02*
G75*
G02*
X17953200Y-12106800I-300000J0D01*
G01*
X12053200Y-12106800D02*
G75*
G02*
X11753200Y-11806800I0J300000D01*
G01*
X11753200Y-9406800D02*
G75*
G02*
X12053200Y-9106800I300000J0D01*
G01*
X11753200Y-11806800D02*
X11753200Y-9406800D01*
X12053200Y-9106800D02*
X17953200Y-9106800D01*
X18253200Y-9406800D02*
X18253200Y-11806800D01*
D11*
X12006477Y-12425784D02*
X12006477Y-12225784D01*
X12006477Y-12225784D02*
X12054096Y-12225784D01*
X12054096Y-12225784D02*
X12082667Y-12235308D01*
X12082667Y-12235308D02*
X12101715Y-12254355D01*
X12101715Y-12254355D02*
X12111239Y-12273403D01*
X12111239Y-12273403D02*
X12120762Y-12311498D01*
X12120762Y-12311498D02*
X12120762Y-12340069D01*
X12120762Y-12340069D02*
X12111239Y-12378165D01*
X12111239Y-12378165D02*
X12101715Y-12397212D01*
X12101715Y-12397212D02*
X12082667Y-12416260D01*
X12082667Y-12416260D02*
X12054096Y-12425784D01*
X12054096Y-12425784D02*
X12006477Y-12425784D01*
X12206477Y-12425784D02*
X12206477Y-12292450D01*
X12206477Y-12330546D02*
X12216001Y-12311498D01*
X12216001Y-12311498D02*
X12225524Y-12301974D01*
X12225524Y-12301974D02*
X12244572Y-12292450D01*
X12244572Y-12292450D02*
X12263620Y-12292450D01*
X12330286Y-12425784D02*
X12330286Y-12292450D01*
X12330286Y-12225784D02*
X12320762Y-12235308D01*
X12320762Y-12235308D02*
X12330286Y-12244831D01*
X12330286Y-12244831D02*
X12339810Y-12235308D01*
X12339810Y-12235308D02*
X12330286Y-12225784D01*
X12330286Y-12225784D02*
X12330286Y-12244831D01*
X12454096Y-12425784D02*
X12435048Y-12416260D01*
X12435048Y-12416260D02*
X12425524Y-12397212D01*
X12425524Y-12397212D02*
X12425524Y-12225784D01*
X12558858Y-12425784D02*
X12539810Y-12416260D01*
X12539810Y-12416260D02*
X12530286Y-12397212D01*
X12530286Y-12397212D02*
X12530286Y-12225784D01*
X12787429Y-12425784D02*
X12787429Y-12225784D01*
X12787429Y-12225784D02*
X12854096Y-12368641D01*
X12854096Y-12368641D02*
X12920762Y-12225784D01*
X12920762Y-12225784D02*
X12920762Y-12425784D01*
X13101715Y-12425784D02*
X13101715Y-12321022D01*
X13101715Y-12321022D02*
X13092191Y-12301974D01*
X13092191Y-12301974D02*
X13073143Y-12292450D01*
X13073143Y-12292450D02*
X13035048Y-12292450D01*
X13035048Y-12292450D02*
X13016001Y-12301974D01*
X13101715Y-12416260D02*
X13082667Y-12425784D01*
X13082667Y-12425784D02*
X13035048Y-12425784D01*
X13035048Y-12425784D02*
X13016001Y-12416260D01*
X13016001Y-12416260D02*
X13006477Y-12397212D01*
X13006477Y-12397212D02*
X13006477Y-12378165D01*
X13006477Y-12378165D02*
X13016001Y-12359117D01*
X13016001Y-12359117D02*
X13035048Y-12349593D01*
X13035048Y-12349593D02*
X13082667Y-12349593D01*
X13082667Y-12349593D02*
X13101715Y-12340069D01*
X13196953Y-12292450D02*
X13196953Y-12492450D01*
X13196953Y-12301974D02*
X13216001Y-12292450D01*
X13216001Y-12292450D02*
X13254096Y-12292450D01*
X13254096Y-12292450D02*
X13273143Y-12301974D01*
X13273143Y-12301974D02*
X13282667Y-12311498D01*
X13282667Y-12311498D02*
X13292191Y-12330546D01*
X13292191Y-12330546D02*
X13292191Y-12387688D01*
X13292191Y-12387688D02*
X13282667Y-12406736D01*
X13282667Y-12406736D02*
X13273143Y-12416260D01*
X13273143Y-12416260D02*
X13254096Y-12425784D01*
X13254096Y-12425784D02*
X13216001Y-12425784D01*
X13216001Y-12425784D02*
X13196953Y-12416260D01*
X13377905Y-12406736D02*
X13387429Y-12416260D01*
X13387429Y-12416260D02*
X13377905Y-12425784D01*
X13377905Y-12425784D02*
X13368382Y-12416260D01*
X13368382Y-12416260D02*
X13377905Y-12406736D01*
X13377905Y-12406736D02*
X13377905Y-12425784D01*
X13377905Y-12301974D02*
X13387429Y-12311498D01*
X13387429Y-12311498D02*
X13377905Y-12321022D01*
X13377905Y-12321022D02*
X13368382Y-12311498D01*
X13368382Y-12311498D02*
X13377905Y-12301974D01*
X13377905Y-12301974D02*
X13377905Y-12321022D01*
M02*
