M48
; DRILL file {KiCad 8.0.8} date 2025-02-02T21:45:43-0800
; FORMAT={-:-/ absolute / inch / decimal}
; #@! TF.CreationDate,2025-02-02T21:45:43-08:00
; #@! TF.GenerationSoftware,Kicad,Pcbnew,8.0.8
; #@! TF.FileFunction,Plated,1,2,PTH
FMAT,2
INCH
; #@! TA.AperFunction,Plated,PTH,ComponentDrill
T1C0.0118
; #@! TA.AperFunction,Plated,PTH,ViaDrill
T2C0.0157
; #@! TA.AperFunction,Plated,PTH,ComponentDrill
T3C0.0315
; #@! TA.AperFunction,Plated,PTH,ComponentDrill
T4C0.0394
; #@! TA.AperFunction,Plated,PTH,ComponentDrill
T5C0.0472
; #@! TA.AperFunction,Plated,PTH,ComponentDrill
T6C0.1181
%
G90
G05
T1
X5.6833Y-4.4485
X5.6833Y-4.4958
X5.6833Y-4.547
X5.6833Y-4.5903
X5.7306Y-4.4485
X5.7306Y-4.4958
X5.7306Y-4.547
X5.7306Y-4.5903
T2
X4.6765Y-3.9594
X4.6765Y-3.9987
X4.6765Y-4.0381
X4.6765Y-4.0775
X4.6765Y-4.1169
X4.6765Y-4.1562
X4.6765Y-4.1956
X4.6765Y-4.235
X4.6765Y-4.2743
X4.6765Y-4.3137
X4.6765Y-4.3531
X4.6765Y-4.3924
X4.8831Y-3.9594
X4.9265Y-4.1267
X5.0721Y-3.9633
X5.2276Y-3.92
X5.2276Y-4.0106
X5.2769Y-4.3531
X5.2769Y-4.3924
X5.2769Y-4.4318
X5.2769Y-4.4712
X5.3162Y-4.3531
X5.3162Y-4.3924
X5.3162Y-4.4318
X5.3162Y-4.4712
X5.3556Y-4.3531
X5.3556Y-4.3924
X5.3556Y-4.4318
X5.3556Y-4.4712
X5.3556Y-4.5106
X5.3556Y-4.5499
X5.395Y-4.3531
X5.395Y-4.3924
X5.395Y-4.4318
X5.395Y-4.4712
X5.395Y-4.5106
X5.395Y-4.5499
X5.4107Y-3.9161
X5.5166Y-4.6546
X5.5682Y-4.6543
X5.769Y-4.1129
X5.8969Y-4.668
X5.8969Y-4.7074
X5.9091Y-4.2546
X5.9091Y-4.294
X5.9091Y-4.3334
X5.9091Y-4.3728
X5.9091Y-4.4121
X5.9127Y-4.046
X5.9127Y-4.1149
X5.9265Y-3.9239
X5.9363Y-4.668
X5.9363Y-4.7074
X5.9757Y-4.668
X5.9757Y-4.7074
X6.2532Y-4.1572
X6.3202Y-3.8806
X6.3202Y-3.92
X6.33Y-4.668
X6.33Y-4.7074
X6.3438Y-4.4141
X6.3438Y-4.4535
X6.3595Y-3.8806
X6.3595Y-3.92
X6.3694Y-4.668
X6.3694Y-4.7074
X6.3831Y-4.4141
X6.3831Y-4.4535
X6.3891Y-4.1365
X6.3989Y-3.8806
X6.3989Y-3.92
X6.4087Y-4.668
X6.4087Y-4.7074
X6.4481Y-4.668
X6.4481Y-4.7074
X6.4875Y-4.668
X6.4875Y-4.7074
X6.5269Y-4.668
X6.5269Y-4.7074
X6.5662Y-4.668
X6.5662Y-4.7074
X6.6056Y-4.668
X6.6056Y-4.7074
X6.6312Y-4.2842
X6.6312Y-4.3235
X6.6312Y-4.3629
X6.6312Y-4.4023
X6.6312Y-4.4417
X6.645Y-4.668
X6.645Y-4.7074
X6.6843Y-4.668
X6.6843Y-4.7074
X6.7237Y-4.668
X6.7237Y-4.7074
X6.7631Y-4.668
X6.7631Y-4.7074
X6.8024Y-4.668
X6.8024Y-4.7074
X6.8418Y-4.668
X6.8418Y-4.7074
T3
X6.3139Y-4.3046
T4
X4.958Y-3.6739
X4.958Y-3.7739
X5.058Y-3.6739
X5.058Y-3.7739
X5.158Y-3.6739
X5.158Y-3.7739
X5.258Y-3.6739
X5.258Y-3.7739
X5.358Y-3.6739
X5.358Y-3.7739
X5.458Y-3.6739
X5.458Y-3.7739
X5.558Y-3.6739
X5.558Y-3.7739
X5.658Y-3.6739
X5.658Y-3.7739
X5.758Y-3.6739
X5.758Y-3.7739
X5.858Y-3.6739
X5.858Y-3.7739
X5.958Y-3.6739
X5.958Y-3.7739
X6.0139Y-4.3046
X6.058Y-3.6739
X6.058Y-3.7739
X6.1139Y-4.3046
X6.158Y-3.6739
X6.158Y-3.7739
X6.258Y-3.6739
X6.258Y-3.7739
X6.358Y-3.6739
X6.358Y-3.7739
X6.458Y-3.6739
X6.458Y-3.7739
X6.558Y-3.6739
X6.558Y-3.7739
X6.658Y-3.6739
X6.658Y-3.7739
X6.758Y-3.6739
X6.758Y-3.7739
X6.858Y-3.6739
X6.858Y-3.7739
T5
X6.8681Y-3.9682
X6.8681Y-4.106
X6.8681Y-4.2438
X6.8681Y-4.3816
X6.9976Y-3.9678
X6.9976Y-4.1056
X6.9976Y-4.2434
X6.9976Y-4.3812
T6
X4.765Y-3.7231
X4.765Y-4.6287
X7.0485Y-3.7231
X7.0485Y-4.6287
M30
