G04 #@! TF.GenerationSoftware,KiCad,Pcbnew,8.0.6*
G04 #@! TF.CreationDate,2024-11-11T12:49:32-08:00*
G04 #@! TF.ProjectId,pi-zero-serial-hat,70692d7a-6572-46f2-9d73-657269616c2d,1.0*
G04 #@! TF.SameCoordinates,Original*
G04 #@! TF.FileFunction,Legend,Top*
G04 #@! TF.FilePolarity,Positive*
%FSLAX46Y46*%
G04 Gerber Fmt 4.6, Leading zero omitted, Abs format (unit mm)*
G04 Created by KiCad (PCBNEW 8.0.6) date 2024-11-11 12:49:32*
%MOMM*%
%LPD*%
G01*
G04 APERTURE LIST*
%ADD10C,0.150000*%
%ADD11C,0.125000*%
%ADD12C,0.100000*%
%ADD13C,0.120000*%
%ADD14C,0.127000*%
%ADD15C,0.200000*%
%ADD16C,0.152400*%
%ADD17C,0.508000*%
G04 APERTURE END LIST*
D10*
X153198779Y-100306866D02*
X153960684Y-100306866D01*
X153579731Y-100687819D02*
X153579731Y-99925914D01*
G36*
X125923503Y-103165942D02*
G01*
X125978567Y-103221006D01*
X126007537Y-103278945D01*
X126041398Y-103414387D01*
X126041398Y-103510202D01*
X126007537Y-103645643D01*
X125978567Y-103703582D01*
X125923502Y-103758648D01*
X125837561Y-103787295D01*
X125734255Y-103787295D01*
X125734255Y-103137295D01*
X125837561Y-103137295D01*
X125923503Y-103165942D01*
G37*
G36*
X126280287Y-104026184D02*
G01*
X123819175Y-104026184D01*
X123819175Y-103405152D01*
X123908064Y-103405152D01*
X123908064Y-103519438D01*
X123908315Y-103521991D01*
X123908153Y-103523084D01*
X123908962Y-103528558D01*
X123909505Y-103534070D01*
X123909927Y-103535090D01*
X123910303Y-103537629D01*
X123948399Y-103690010D01*
X123948784Y-103691089D01*
X123948823Y-103691628D01*
X123951147Y-103697703D01*
X123953346Y-103703855D01*
X123953668Y-103704290D01*
X123954078Y-103705360D01*
X123992173Y-103781550D01*
X123996136Y-103787846D01*
X123996894Y-103789676D01*
X123998583Y-103791734D01*
X124000005Y-103793993D01*
X124001503Y-103795292D01*
X124006222Y-103801042D01*
X124082412Y-103877233D01*
X124093777Y-103886560D01*
X124096267Y-103887591D01*
X124098303Y-103889357D01*
X124111728Y-103895351D01*
X124226014Y-103933446D01*
X124233267Y-103935095D01*
X124235099Y-103935854D01*
X124237753Y-103936115D01*
X124240351Y-103936706D01*
X124242325Y-103936565D01*
X124249731Y-103937295D01*
X124325922Y-103937295D01*
X124333327Y-103936565D01*
X124335302Y-103936706D01*
X124337899Y-103936115D01*
X124340554Y-103935854D01*
X124342385Y-103935095D01*
X124349639Y-103933446D01*
X124463924Y-103895351D01*
X124477350Y-103889357D01*
X124479386Y-103887590D01*
X124481875Y-103886560D01*
X124493240Y-103877233D01*
X124531336Y-103839137D01*
X124540664Y-103827772D01*
X124551735Y-103801042D01*
X124551862Y-103800736D01*
X124553303Y-103786104D01*
X124553303Y-103519438D01*
X124551862Y-103504806D01*
X124540663Y-103477770D01*
X124519971Y-103457078D01*
X124492935Y-103445879D01*
X124478303Y-103444438D01*
X124325922Y-103444438D01*
X124311290Y-103445879D01*
X124284254Y-103457078D01*
X124263562Y-103477770D01*
X124252363Y-103504806D01*
X124252363Y-103534070D01*
X124263562Y-103561106D01*
X124284254Y-103581798D01*
X124311290Y-103592997D01*
X124325922Y-103594438D01*
X124403303Y-103594438D01*
X124403303Y-103755038D01*
X124399693Y-103758648D01*
X124313752Y-103787295D01*
X124261901Y-103787295D01*
X124175959Y-103758648D01*
X124120894Y-103703582D01*
X124091924Y-103645642D01*
X124058064Y-103510202D01*
X124058064Y-103414387D01*
X124091924Y-103278946D01*
X124120894Y-103221006D01*
X124175958Y-103165942D01*
X124261901Y-103137295D01*
X124346312Y-103137295D01*
X124406666Y-103167472D01*
X124420398Y-103172727D01*
X124449588Y-103174801D01*
X124477349Y-103165547D01*
X124499457Y-103146374D01*
X124512544Y-103120199D01*
X124514618Y-103091009D01*
X124505364Y-103063248D01*
X124504538Y-103062295D01*
X124746160Y-103062295D01*
X124746160Y-103862295D01*
X124747601Y-103876927D01*
X124758800Y-103903963D01*
X124779492Y-103924655D01*
X124806528Y-103935854D01*
X124835792Y-103935854D01*
X124862828Y-103924655D01*
X124883520Y-103903963D01*
X124894719Y-103876927D01*
X124896160Y-103862295D01*
X124896160Y-103344711D01*
X125213185Y-103899505D01*
X125215373Y-103902588D01*
X125215943Y-103903963D01*
X125217342Y-103905362D01*
X125221695Y-103911495D01*
X125229583Y-103917603D01*
X125236635Y-103924655D01*
X125241053Y-103926485D01*
X125244833Y-103929412D01*
X125254454Y-103932036D01*
X125263671Y-103935854D01*
X125268452Y-103935854D01*
X125273064Y-103937112D01*
X125282961Y-103935854D01*
X125292935Y-103935854D01*
X125297350Y-103934024D01*
X125302094Y-103933422D01*
X125310758Y-103928471D01*
X125319971Y-103924655D01*
X125323349Y-103921276D01*
X125327503Y-103918903D01*
X125333612Y-103911013D01*
X125340663Y-103903963D01*
X125342492Y-103899546D01*
X125345420Y-103895766D01*
X125348044Y-103886142D01*
X125351862Y-103876927D01*
X125352598Y-103869444D01*
X125353120Y-103867534D01*
X125352932Y-103866058D01*
X125353303Y-103862295D01*
X125353303Y-103062295D01*
X125584255Y-103062295D01*
X125584255Y-103862295D01*
X125585696Y-103876927D01*
X125596895Y-103903963D01*
X125617587Y-103924655D01*
X125644623Y-103935854D01*
X125659255Y-103937295D01*
X125849731Y-103937295D01*
X125857136Y-103936565D01*
X125859111Y-103936706D01*
X125861708Y-103936115D01*
X125864363Y-103935854D01*
X125866194Y-103935095D01*
X125873448Y-103933446D01*
X125987734Y-103895351D01*
X126001159Y-103889357D01*
X126003194Y-103887591D01*
X126005685Y-103886560D01*
X126017050Y-103877233D01*
X126093241Y-103801041D01*
X126097958Y-103795292D01*
X126099457Y-103793993D01*
X126100878Y-103791734D01*
X126102568Y-103789676D01*
X126103325Y-103787846D01*
X126107289Y-103781550D01*
X126145384Y-103705360D01*
X126145793Y-103704290D01*
X126146116Y-103703855D01*
X126148314Y-103697703D01*
X126150639Y-103691628D01*
X126150677Y-103691089D01*
X126151063Y-103690010D01*
X126189159Y-103537628D01*
X126189534Y-103535091D01*
X126189957Y-103534070D01*
X126190499Y-103528557D01*
X126191309Y-103523084D01*
X126191146Y-103521991D01*
X126191398Y-103519438D01*
X126191398Y-103405152D01*
X126191146Y-103402598D01*
X126191309Y-103401506D01*
X126190499Y-103396032D01*
X126189957Y-103390520D01*
X126189534Y-103389498D01*
X126189159Y-103386962D01*
X126151063Y-103234580D01*
X126150677Y-103233500D01*
X126150639Y-103232962D01*
X126148314Y-103226886D01*
X126146116Y-103220735D01*
X126145793Y-103220299D01*
X126145384Y-103219230D01*
X126107289Y-103143039D01*
X126103326Y-103136744D01*
X126102568Y-103134912D01*
X126100876Y-103132850D01*
X126099457Y-103130596D01*
X126097960Y-103129297D01*
X126093240Y-103123547D01*
X126017050Y-103047357D01*
X126005685Y-103038030D01*
X126003194Y-103036998D01*
X126001159Y-103035233D01*
X125987734Y-103029239D01*
X125873448Y-102991144D01*
X125866194Y-102989494D01*
X125864363Y-102988736D01*
X125861708Y-102988474D01*
X125859111Y-102987884D01*
X125857136Y-102988024D01*
X125849731Y-102987295D01*
X125659255Y-102987295D01*
X125644623Y-102988736D01*
X125617587Y-102999935D01*
X125596895Y-103020627D01*
X125585696Y-103047663D01*
X125584255Y-103062295D01*
X125353303Y-103062295D01*
X125351862Y-103047663D01*
X125340663Y-103020627D01*
X125319971Y-102999935D01*
X125292935Y-102988736D01*
X125263671Y-102988736D01*
X125236635Y-102999935D01*
X125215943Y-103020627D01*
X125204744Y-103047663D01*
X125203303Y-103062295D01*
X125203303Y-103579878D01*
X124886278Y-103025085D01*
X124884089Y-103022001D01*
X124883520Y-103020627D01*
X124882120Y-103019227D01*
X124877768Y-103013095D01*
X124869878Y-103006985D01*
X124862828Y-102999935D01*
X124858411Y-102998105D01*
X124854631Y-102995178D01*
X124845007Y-102992553D01*
X124835792Y-102988736D01*
X124831011Y-102988736D01*
X124826399Y-102987478D01*
X124816502Y-102988736D01*
X124806528Y-102988736D01*
X124802112Y-102990565D01*
X124797369Y-102991168D01*
X124788704Y-102996118D01*
X124779492Y-102999935D01*
X124776113Y-103003313D01*
X124771960Y-103005687D01*
X124765850Y-103013576D01*
X124758800Y-103020627D01*
X124756970Y-103025043D01*
X124754043Y-103028824D01*
X124751418Y-103038447D01*
X124747601Y-103047663D01*
X124746864Y-103055145D01*
X124746343Y-103057056D01*
X124746530Y-103058531D01*
X124746160Y-103062295D01*
X124504538Y-103062295D01*
X124486191Y-103041140D01*
X124473748Y-103033308D01*
X124397558Y-102995213D01*
X124383826Y-102989958D01*
X124381138Y-102989767D01*
X124378649Y-102988736D01*
X124364017Y-102987295D01*
X124249731Y-102987295D01*
X124242325Y-102988024D01*
X124240351Y-102987884D01*
X124237753Y-102988474D01*
X124235099Y-102988736D01*
X124233267Y-102989494D01*
X124226014Y-102991144D01*
X124111728Y-103029239D01*
X124098303Y-103035233D01*
X124096269Y-103036996D01*
X124093777Y-103038029D01*
X124082412Y-103047357D01*
X124006222Y-103123547D01*
X124001503Y-103129296D01*
X124000005Y-103130596D01*
X123998583Y-103132855D01*
X123996895Y-103134912D01*
X123996137Y-103136739D01*
X123992173Y-103143039D01*
X123954078Y-103219230D01*
X123953668Y-103220299D01*
X123953346Y-103220735D01*
X123951147Y-103226886D01*
X123948823Y-103232962D01*
X123948784Y-103233500D01*
X123948399Y-103234580D01*
X123910303Y-103386961D01*
X123909927Y-103389499D01*
X123909505Y-103390520D01*
X123908962Y-103396031D01*
X123908153Y-103401506D01*
X123908315Y-103402598D01*
X123908064Y-103405152D01*
X123819175Y-103405152D01*
X123819175Y-102898406D01*
X126280287Y-102898406D01*
X126280287Y-104026184D01*
G37*
G36*
X126155888Y-101426184D02*
G01*
X123658712Y-101426184D01*
X123658712Y-100942901D01*
X123747601Y-100942901D01*
X123747601Y-100972165D01*
X123758800Y-100999201D01*
X123779492Y-101019893D01*
X123806528Y-101031092D01*
X123821160Y-101032533D01*
X124050922Y-101032533D01*
X124050922Y-101262295D01*
X124052363Y-101276927D01*
X124063562Y-101303963D01*
X124084254Y-101324655D01*
X124111290Y-101335854D01*
X124140554Y-101335854D01*
X124167590Y-101324655D01*
X124188282Y-101303963D01*
X124199481Y-101276927D01*
X124200922Y-101262295D01*
X124200922Y-101032533D01*
X124430684Y-101032533D01*
X124445316Y-101031092D01*
X124472352Y-101019893D01*
X124493044Y-100999201D01*
X124504243Y-100972165D01*
X124504243Y-100942901D01*
X124493044Y-100915865D01*
X124472352Y-100895173D01*
X124445316Y-100883974D01*
X124430684Y-100882533D01*
X124200922Y-100882533D01*
X124200922Y-100850487D01*
X124698890Y-100850487D01*
X124699981Y-100854102D01*
X124699981Y-100857877D01*
X124704174Y-100868003D01*
X124707343Y-100878503D01*
X124709734Y-100881425D01*
X124711179Y-100884914D01*
X124718933Y-100892668D01*
X124725874Y-100901151D01*
X124729200Y-100902935D01*
X124731872Y-100905607D01*
X124742001Y-100909802D01*
X124751661Y-100914985D01*
X124755419Y-100915360D01*
X124758908Y-100916806D01*
X124769870Y-100916806D01*
X124780780Y-100917897D01*
X124784396Y-100916806D01*
X124788170Y-100916806D01*
X124798296Y-100912612D01*
X124808796Y-100909444D01*
X124811718Y-100907052D01*
X124815207Y-100905608D01*
X124826572Y-100896281D01*
X124856062Y-100866791D01*
X124905531Y-100842057D01*
X125060597Y-100842057D01*
X125110066Y-100866791D01*
X125130948Y-100887673D01*
X125155683Y-100937142D01*
X125155683Y-101092209D01*
X125130948Y-101141677D01*
X125110065Y-101162561D01*
X125060597Y-101187295D01*
X124905531Y-101187295D01*
X124856063Y-101162561D01*
X124826573Y-101133071D01*
X124815208Y-101123744D01*
X124788171Y-101112545D01*
X124758909Y-101112545D01*
X124731872Y-101123744D01*
X124711180Y-101144436D01*
X124699981Y-101171473D01*
X124699981Y-101200735D01*
X124711180Y-101227772D01*
X124720507Y-101239137D01*
X124758603Y-101277233D01*
X124764353Y-101281953D01*
X124765652Y-101283450D01*
X124767906Y-101284869D01*
X124769968Y-101286561D01*
X124771800Y-101287319D01*
X124778095Y-101291282D01*
X124854285Y-101329377D01*
X124868017Y-101334632D01*
X124870704Y-101334822D01*
X124873194Y-101335854D01*
X124887826Y-101337295D01*
X125078302Y-101337295D01*
X125092934Y-101335854D01*
X125095423Y-101334822D01*
X125098111Y-101334632D01*
X125111843Y-101329377D01*
X125188034Y-101291282D01*
X125194333Y-101287317D01*
X125196161Y-101286560D01*
X125198217Y-101284872D01*
X125200477Y-101283450D01*
X125201777Y-101281950D01*
X125207527Y-101277232D01*
X125245622Y-101239136D01*
X125250339Y-101233387D01*
X125251838Y-101232088D01*
X125253259Y-101229829D01*
X125254949Y-101227771D01*
X125255706Y-101225941D01*
X125259670Y-101219645D01*
X125297765Y-101143455D01*
X125303020Y-101129723D01*
X125303210Y-101127035D01*
X125304242Y-101124546D01*
X125305683Y-101109914D01*
X125305683Y-100919438D01*
X125304242Y-100904806D01*
X125303210Y-100902316D01*
X125303020Y-100899629D01*
X125297765Y-100885897D01*
X125259670Y-100809706D01*
X125255705Y-100803406D01*
X125254948Y-100801579D01*
X125253259Y-100799522D01*
X125251838Y-100797263D01*
X125250339Y-100795963D01*
X125245621Y-100790214D01*
X125207526Y-100752119D01*
X125201776Y-100747400D01*
X125200477Y-100745902D01*
X125198217Y-100744480D01*
X125196161Y-100742792D01*
X125194333Y-100742034D01*
X125188034Y-100738070D01*
X125111843Y-100699975D01*
X125098111Y-100694720D01*
X125095423Y-100694529D01*
X125092934Y-100693498D01*
X125078302Y-100692057D01*
X124887826Y-100692057D01*
X124873194Y-100693498D01*
X124870704Y-100694529D01*
X124868017Y-100694720D01*
X124863598Y-100696410D01*
X124879510Y-100537295D01*
X125192588Y-100537295D01*
X125207220Y-100535854D01*
X125234256Y-100524655D01*
X125254948Y-100503963D01*
X125266147Y-100476927D01*
X125266147Y-100471675D01*
X125384844Y-100471675D01*
X125388104Y-100486012D01*
X125654771Y-101286012D01*
X125660765Y-101299437D01*
X125664275Y-101303484D01*
X125666672Y-101308278D01*
X125673776Y-101314440D01*
X125679939Y-101321545D01*
X125684732Y-101323941D01*
X125688780Y-101327452D01*
X125697701Y-101330425D01*
X125706112Y-101334631D01*
X125711456Y-101335010D01*
X125716542Y-101336706D01*
X125725922Y-101336039D01*
X125735302Y-101336706D01*
X125740387Y-101335010D01*
X125745732Y-101334631D01*
X125754141Y-101330426D01*
X125763065Y-101327452D01*
X125767113Y-101323940D01*
X125771905Y-101321545D01*
X125778066Y-101314441D01*
X125785172Y-101308278D01*
X125787568Y-101303484D01*
X125791079Y-101299437D01*
X125797073Y-101286012D01*
X126063739Y-100486012D01*
X126066999Y-100471675D01*
X126064925Y-100442485D01*
X126051838Y-100416311D01*
X126029731Y-100397138D01*
X126001968Y-100387884D01*
X125972778Y-100389958D01*
X125946605Y-100403045D01*
X125927431Y-100425152D01*
X125921437Y-100438578D01*
X125725921Y-101025124D01*
X125530406Y-100438578D01*
X125524412Y-100425152D01*
X125505238Y-100403045D01*
X125479065Y-100389959D01*
X125449875Y-100387884D01*
X125422112Y-100397138D01*
X125400005Y-100416312D01*
X125386919Y-100442485D01*
X125384844Y-100471675D01*
X125266147Y-100471675D01*
X125266147Y-100447663D01*
X125254948Y-100420627D01*
X125234256Y-100399935D01*
X125207220Y-100388736D01*
X125192588Y-100387295D01*
X124811636Y-100387295D01*
X124806224Y-100387827D01*
X124804396Y-100387645D01*
X124802609Y-100388183D01*
X124797004Y-100388736D01*
X124786877Y-100392930D01*
X124776380Y-100396098D01*
X124773456Y-100398489D01*
X124769968Y-100399935D01*
X124762214Y-100407688D01*
X124753732Y-100414629D01*
X124751947Y-100417955D01*
X124749276Y-100420627D01*
X124745080Y-100430756D01*
X124739898Y-100440416D01*
X124738790Y-100445940D01*
X124738077Y-100447663D01*
X124738077Y-100449499D01*
X124737008Y-100454832D01*
X124698912Y-100835784D01*
X124698890Y-100850487D01*
X124200922Y-100850487D01*
X124200922Y-100652771D01*
X124199481Y-100638139D01*
X124188282Y-100611103D01*
X124167590Y-100590411D01*
X124140554Y-100579212D01*
X124111290Y-100579212D01*
X124084254Y-100590411D01*
X124063562Y-100611103D01*
X124052363Y-100638139D01*
X124050922Y-100652771D01*
X124050922Y-100882533D01*
X123821160Y-100882533D01*
X123806528Y-100883974D01*
X123779492Y-100895173D01*
X123758800Y-100915865D01*
X123747601Y-100942901D01*
X123658712Y-100942901D01*
X123658712Y-100298406D01*
X126155888Y-100298406D01*
X126155888Y-101426184D01*
G37*
X137332000Y-98968000D02*
X137332000Y-96568000D01*
X139932000Y-96568000D02*
X139932000Y-97768000D01*
D11*
X145661855Y-104600309D02*
X145947569Y-104600309D01*
X145804712Y-105100309D02*
X145804712Y-104600309D01*
X146066616Y-104600309D02*
X146399949Y-105100309D01*
X146399949Y-104600309D02*
X146066616Y-105100309D01*
X146590425Y-105100309D02*
X146590425Y-104600309D01*
X146590425Y-104600309D02*
X146709473Y-104600309D01*
X146709473Y-104600309D02*
X146780901Y-104624119D01*
X146780901Y-104624119D02*
X146828520Y-104671738D01*
X146828520Y-104671738D02*
X146852330Y-104719357D01*
X146852330Y-104719357D02*
X146876139Y-104814595D01*
X146876139Y-104814595D02*
X146876139Y-104886023D01*
X146876139Y-104886023D02*
X146852330Y-104981261D01*
X146852330Y-104981261D02*
X146828520Y-105028880D01*
X146828520Y-105028880D02*
X146780901Y-105076500D01*
X146780901Y-105076500D02*
X146709473Y-105100309D01*
X146709473Y-105100309D02*
X146590425Y-105100309D01*
X145918997Y-116300309D02*
X145752331Y-116062214D01*
X145633283Y-116300309D02*
X145633283Y-115800309D01*
X145633283Y-115800309D02*
X145823759Y-115800309D01*
X145823759Y-115800309D02*
X145871378Y-115824119D01*
X145871378Y-115824119D02*
X145895188Y-115847928D01*
X145895188Y-115847928D02*
X145918997Y-115895547D01*
X145918997Y-115895547D02*
X145918997Y-115966976D01*
X145918997Y-115966976D02*
X145895188Y-116014595D01*
X145895188Y-116014595D02*
X145871378Y-116038404D01*
X145871378Y-116038404D02*
X145823759Y-116062214D01*
X145823759Y-116062214D02*
X145633283Y-116062214D01*
X146085664Y-115800309D02*
X146418997Y-116300309D01*
X146418997Y-115800309D02*
X146085664Y-116300309D01*
X146609473Y-116300309D02*
X146609473Y-115800309D01*
X146609473Y-115800309D02*
X146728521Y-115800309D01*
X146728521Y-115800309D02*
X146799949Y-115824119D01*
X146799949Y-115824119D02*
X146847568Y-115871738D01*
X146847568Y-115871738D02*
X146871378Y-115919357D01*
X146871378Y-115919357D02*
X146895187Y-116014595D01*
X146895187Y-116014595D02*
X146895187Y-116086023D01*
X146895187Y-116086023D02*
X146871378Y-116181261D01*
X146871378Y-116181261D02*
X146847568Y-116228880D01*
X146847568Y-116228880D02*
X146799949Y-116276500D01*
X146799949Y-116276500D02*
X146728521Y-116300309D01*
X146728521Y-116300309D02*
X146609473Y-116300309D01*
X138833283Y-98100309D02*
X138833283Y-98505071D01*
X138833283Y-98505071D02*
X138857093Y-98552690D01*
X138857093Y-98552690D02*
X138880902Y-98576500D01*
X138880902Y-98576500D02*
X138928521Y-98600309D01*
X138928521Y-98600309D02*
X139023759Y-98600309D01*
X139023759Y-98600309D02*
X139071378Y-98576500D01*
X139071378Y-98576500D02*
X139095188Y-98552690D01*
X139095188Y-98552690D02*
X139118997Y-98505071D01*
X139118997Y-98505071D02*
X139118997Y-98100309D01*
X139333284Y-98457452D02*
X139571379Y-98457452D01*
X139285665Y-98600309D02*
X139452331Y-98100309D01*
X139452331Y-98100309D02*
X139618998Y-98600309D01*
X140071378Y-98600309D02*
X139904712Y-98362214D01*
X139785664Y-98600309D02*
X139785664Y-98100309D01*
X139785664Y-98100309D02*
X139976140Y-98100309D01*
X139976140Y-98100309D02*
X140023759Y-98124119D01*
X140023759Y-98124119D02*
X140047569Y-98147928D01*
X140047569Y-98147928D02*
X140071378Y-98195547D01*
X140071378Y-98195547D02*
X140071378Y-98266976D01*
X140071378Y-98266976D02*
X140047569Y-98314595D01*
X140047569Y-98314595D02*
X140023759Y-98338404D01*
X140023759Y-98338404D02*
X139976140Y-98362214D01*
X139976140Y-98362214D02*
X139785664Y-98362214D01*
X140214236Y-98100309D02*
X140499950Y-98100309D01*
X140357093Y-98600309D02*
X140357093Y-98100309D01*
X140904711Y-98100309D02*
X140666616Y-98100309D01*
X140666616Y-98100309D02*
X140642807Y-98338404D01*
X140642807Y-98338404D02*
X140666616Y-98314595D01*
X140666616Y-98314595D02*
X140714235Y-98290785D01*
X140714235Y-98290785D02*
X140833283Y-98290785D01*
X140833283Y-98290785D02*
X140880902Y-98314595D01*
X140880902Y-98314595D02*
X140904711Y-98338404D01*
X140904711Y-98338404D02*
X140928521Y-98386023D01*
X140928521Y-98386023D02*
X140928521Y-98505071D01*
X140928521Y-98505071D02*
X140904711Y-98552690D01*
X140904711Y-98552690D02*
X140880902Y-98576500D01*
X140880902Y-98576500D02*
X140833283Y-98600309D01*
X140833283Y-98600309D02*
X140714235Y-98600309D01*
X140714235Y-98600309D02*
X140666616Y-98576500D01*
X140666616Y-98576500D02*
X140642807Y-98552690D01*
G36*
X156134356Y-99375485D02*
G01*
X156162561Y-99403690D01*
X156180307Y-99474671D01*
X156180307Y-99625946D01*
X156162561Y-99696926D01*
X156134354Y-99725134D01*
X156109005Y-99737809D01*
X156043275Y-99737809D01*
X156017926Y-99725134D01*
X155989718Y-99696926D01*
X155971974Y-99625948D01*
X155971974Y-99474669D01*
X155989718Y-99403690D01*
X156017925Y-99375483D01*
X156043274Y-99362809D01*
X156109005Y-99362809D01*
X156134356Y-99375485D01*
G37*
G36*
X157681977Y-99375485D02*
G01*
X157691442Y-99384950D01*
X157704117Y-99410300D01*
X157704117Y-99452222D01*
X157691442Y-99477572D01*
X157681977Y-99487037D01*
X157656625Y-99499714D01*
X157543403Y-99499714D01*
X157543403Y-99362809D01*
X157656625Y-99362809D01*
X157681977Y-99375485D01*
G37*
G36*
X155634357Y-99375485D02*
G01*
X155643822Y-99384950D01*
X155656497Y-99410300D01*
X155656497Y-99452222D01*
X155643822Y-99477572D01*
X155634357Y-99487037D01*
X155609005Y-99499714D01*
X155495783Y-99499714D01*
X155495783Y-99362809D01*
X155609005Y-99362809D01*
X155634357Y-99375485D01*
G37*
G36*
X157891617Y-99925309D02*
G01*
X155308283Y-99925309D01*
X155308283Y-99300309D01*
X155370783Y-99300309D01*
X155370783Y-99800309D01*
X155375541Y-99824227D01*
X155409365Y-99858051D01*
X155457201Y-99858051D01*
X155491025Y-99824227D01*
X155495783Y-99800309D01*
X155495783Y-99624714D01*
X155623759Y-99624714D01*
X155626830Y-99624102D01*
X155628190Y-99624556D01*
X155637846Y-99621911D01*
X155647677Y-99619956D01*
X155648691Y-99618941D01*
X155651710Y-99618115D01*
X155699329Y-99594305D01*
X155707237Y-99588166D01*
X155715571Y-99582599D01*
X155739381Y-99558790D01*
X155744945Y-99550462D01*
X155751090Y-99542545D01*
X155774899Y-99494927D01*
X155775725Y-99491907D01*
X155776739Y-99490894D01*
X155778693Y-99481066D01*
X155781339Y-99471406D01*
X155780886Y-99470047D01*
X155781497Y-99466976D01*
X155846974Y-99466976D01*
X155846974Y-99633642D01*
X155848467Y-99641151D01*
X155848840Y-99648800D01*
X155872649Y-99744038D01*
X155875540Y-99750157D01*
X155875540Y-99752797D01*
X155879796Y-99759168D01*
X155883066Y-99766088D01*
X155885326Y-99767444D01*
X155889088Y-99773074D01*
X155936707Y-99820694D01*
X155945040Y-99826261D01*
X155952952Y-99832402D01*
X156000570Y-99856211D01*
X156003589Y-99857037D01*
X156004603Y-99858051D01*
X156014430Y-99860005D01*
X156024091Y-99862651D01*
X156025449Y-99862198D01*
X156028521Y-99862809D01*
X156123759Y-99862809D01*
X156126828Y-99862198D01*
X156128189Y-99862652D01*
X156137855Y-99860004D01*
X156147677Y-99858051D01*
X156148690Y-99857037D01*
X156151709Y-99856211D01*
X156199328Y-99832402D01*
X156207236Y-99826263D01*
X156215573Y-99820694D01*
X156263192Y-99773074D01*
X156266951Y-99767446D01*
X156269214Y-99766089D01*
X156272486Y-99759162D01*
X156276739Y-99752797D01*
X156276739Y-99750160D01*
X156279631Y-99744039D01*
X156303441Y-99648801D01*
X156303813Y-99641151D01*
X156305307Y-99633642D01*
X156305307Y-99466976D01*
X156303813Y-99459466D01*
X156303441Y-99451817D01*
X156279631Y-99356579D01*
X156276739Y-99350457D01*
X156276739Y-99347821D01*
X156272487Y-99341457D01*
X156269214Y-99334529D01*
X156266950Y-99333171D01*
X156263191Y-99327544D01*
X156226063Y-99290416D01*
X156347762Y-99290416D01*
X156348674Y-99314785D01*
X156467722Y-99814785D01*
X156477890Y-99836951D01*
X156485850Y-99841850D01*
X156490534Y-99849939D01*
X156505466Y-99853920D01*
X156518629Y-99862021D01*
X156527722Y-99859855D01*
X156536754Y-99862264D01*
X156550128Y-99854520D01*
X156565164Y-99850941D01*
X156570063Y-99842980D01*
X156578152Y-99838297D01*
X156588912Y-99816413D01*
X156623760Y-99685732D01*
X156658608Y-99816413D01*
X156669368Y-99838297D01*
X156677457Y-99842980D01*
X156682356Y-99850941D01*
X156697390Y-99854520D01*
X156710765Y-99862264D01*
X156719796Y-99859855D01*
X156728891Y-99862021D01*
X156742056Y-99853919D01*
X156756986Y-99849938D01*
X156761668Y-99841850D01*
X156769630Y-99836951D01*
X156779798Y-99814785D01*
X156898846Y-99314785D01*
X156899388Y-99300309D01*
X156966022Y-99300309D01*
X156966022Y-99800309D01*
X156970780Y-99824227D01*
X157004604Y-99858051D01*
X157028522Y-99862809D01*
X157266617Y-99862809D01*
X157290535Y-99858051D01*
X157324359Y-99824227D01*
X157324359Y-99776391D01*
X157290535Y-99742567D01*
X157266617Y-99737809D01*
X157091022Y-99737809D01*
X157091022Y-99600904D01*
X157195189Y-99600904D01*
X157219107Y-99596146D01*
X157252931Y-99562322D01*
X157252931Y-99514486D01*
X157219107Y-99480662D01*
X157195189Y-99475904D01*
X157091022Y-99475904D01*
X157091022Y-99362809D01*
X157266617Y-99362809D01*
X157290535Y-99358051D01*
X157324359Y-99324227D01*
X157324359Y-99300309D01*
X157418403Y-99300309D01*
X157418403Y-99800309D01*
X157423161Y-99824227D01*
X157456985Y-99858051D01*
X157504821Y-99858051D01*
X157538645Y-99824227D01*
X157543403Y-99800309D01*
X157543403Y-99624714D01*
X157567410Y-99624714D01*
X157715415Y-99836151D01*
X157733029Y-99853016D01*
X157780136Y-99861329D01*
X157819324Y-99833897D01*
X157827637Y-99786791D01*
X157817819Y-99764468D01*
X157711213Y-99612173D01*
X157746949Y-99594305D01*
X157754857Y-99588166D01*
X157763191Y-99582599D01*
X157787001Y-99558790D01*
X157792565Y-99550462D01*
X157798710Y-99542545D01*
X157822519Y-99494927D01*
X157823345Y-99491907D01*
X157824359Y-99490894D01*
X157826313Y-99481066D01*
X157828959Y-99471406D01*
X157828506Y-99470047D01*
X157829117Y-99466976D01*
X157829117Y-99395547D01*
X157828506Y-99392475D01*
X157828959Y-99391117D01*
X157826313Y-99381456D01*
X157824359Y-99371629D01*
X157823345Y-99370615D01*
X157822519Y-99367596D01*
X157798710Y-99319978D01*
X157792565Y-99312060D01*
X157787001Y-99303733D01*
X157763191Y-99279924D01*
X157754857Y-99274356D01*
X157746949Y-99268218D01*
X157699330Y-99244408D01*
X157696311Y-99243581D01*
X157695297Y-99242567D01*
X157685466Y-99240611D01*
X157675810Y-99237967D01*
X157674450Y-99238420D01*
X157671379Y-99237809D01*
X157480903Y-99237809D01*
X157456985Y-99242567D01*
X157423161Y-99276391D01*
X157418403Y-99300309D01*
X157324359Y-99300309D01*
X157324359Y-99276391D01*
X157290535Y-99242567D01*
X157266617Y-99237809D01*
X157028522Y-99237809D01*
X157004604Y-99242567D01*
X156970780Y-99276391D01*
X156966022Y-99300309D01*
X156899388Y-99300309D01*
X156899758Y-99290416D01*
X156874688Y-99249677D01*
X156828153Y-99238597D01*
X156787414Y-99263667D01*
X156777246Y-99285833D01*
X156715568Y-99544879D01*
X156684150Y-99427062D01*
X156673390Y-99405178D01*
X156666015Y-99400908D01*
X156661748Y-99393537D01*
X156646053Y-99389351D01*
X156631992Y-99381211D01*
X156623759Y-99383406D01*
X156615527Y-99381211D01*
X156601468Y-99389350D01*
X156585772Y-99393536D01*
X156581503Y-99400909D01*
X156574130Y-99405178D01*
X156563370Y-99427062D01*
X156531951Y-99544879D01*
X156470274Y-99285833D01*
X156460106Y-99263667D01*
X156419367Y-99238597D01*
X156372832Y-99249677D01*
X156347762Y-99290416D01*
X156226063Y-99290416D01*
X156215572Y-99279925D01*
X156207240Y-99274358D01*
X156199329Y-99268218D01*
X156151710Y-99244408D01*
X156148691Y-99243581D01*
X156147677Y-99242567D01*
X156137846Y-99240611D01*
X156128190Y-99237967D01*
X156126830Y-99238420D01*
X156123759Y-99237809D01*
X156028521Y-99237809D01*
X156025449Y-99238420D01*
X156024090Y-99237967D01*
X156014428Y-99240612D01*
X156004603Y-99242567D01*
X156003589Y-99243580D01*
X156000570Y-99244407D01*
X155952951Y-99268218D01*
X155945039Y-99274358D01*
X155936708Y-99279925D01*
X155889089Y-99327544D01*
X155885328Y-99333172D01*
X155883066Y-99334530D01*
X155879794Y-99341454D01*
X155875541Y-99347821D01*
X155875541Y-99350458D01*
X155872649Y-99356580D01*
X155848840Y-99451818D01*
X155848467Y-99459466D01*
X155846974Y-99466976D01*
X155781497Y-99466976D01*
X155781497Y-99395547D01*
X155780886Y-99392475D01*
X155781339Y-99391117D01*
X155778693Y-99381456D01*
X155776739Y-99371629D01*
X155775725Y-99370615D01*
X155774899Y-99367596D01*
X155751090Y-99319978D01*
X155744945Y-99312060D01*
X155739381Y-99303733D01*
X155715571Y-99279924D01*
X155707237Y-99274356D01*
X155699329Y-99268218D01*
X155651710Y-99244408D01*
X155648691Y-99243581D01*
X155647677Y-99242567D01*
X155637846Y-99240611D01*
X155628190Y-99237967D01*
X155626830Y-99238420D01*
X155623759Y-99237809D01*
X155433283Y-99237809D01*
X155409365Y-99242567D01*
X155375541Y-99276391D01*
X155370783Y-99300309D01*
X155308283Y-99300309D01*
X155308283Y-99175309D01*
X157891617Y-99175309D01*
X157891617Y-99925309D01*
G37*
X141118997Y-97800309D02*
X140952331Y-97562214D01*
X140833283Y-97800309D02*
X140833283Y-97300309D01*
X140833283Y-97300309D02*
X141023759Y-97300309D01*
X141023759Y-97300309D02*
X141071378Y-97324119D01*
X141071378Y-97324119D02*
X141095188Y-97347928D01*
X141095188Y-97347928D02*
X141118997Y-97395547D01*
X141118997Y-97395547D02*
X141118997Y-97466976D01*
X141118997Y-97466976D02*
X141095188Y-97514595D01*
X141095188Y-97514595D02*
X141071378Y-97538404D01*
X141071378Y-97538404D02*
X141023759Y-97562214D01*
X141023759Y-97562214D02*
X140833283Y-97562214D01*
X141285664Y-97300309D02*
X141618997Y-97800309D01*
X141618997Y-97300309D02*
X141285664Y-97800309D01*
D10*
X122540207Y-109027875D02*
X122206874Y-108551684D01*
X121968779Y-109027875D02*
X121968779Y-108027875D01*
X121968779Y-108027875D02*
X122349731Y-108027875D01*
X122349731Y-108027875D02*
X122444969Y-108075494D01*
X122444969Y-108075494D02*
X122492588Y-108123113D01*
X122492588Y-108123113D02*
X122540207Y-108218351D01*
X122540207Y-108218351D02*
X122540207Y-108361208D01*
X122540207Y-108361208D02*
X122492588Y-108456446D01*
X122492588Y-108456446D02*
X122444969Y-108504065D01*
X122444969Y-108504065D02*
X122349731Y-108551684D01*
X122349731Y-108551684D02*
X121968779Y-108551684D01*
X122921160Y-108980256D02*
X123064017Y-109027875D01*
X123064017Y-109027875D02*
X123302112Y-109027875D01*
X123302112Y-109027875D02*
X123397350Y-108980256D01*
X123397350Y-108980256D02*
X123444969Y-108932636D01*
X123444969Y-108932636D02*
X123492588Y-108837398D01*
X123492588Y-108837398D02*
X123492588Y-108742160D01*
X123492588Y-108742160D02*
X123444969Y-108646922D01*
X123444969Y-108646922D02*
X123397350Y-108599303D01*
X123397350Y-108599303D02*
X123302112Y-108551684D01*
X123302112Y-108551684D02*
X123111636Y-108504065D01*
X123111636Y-108504065D02*
X123016398Y-108456446D01*
X123016398Y-108456446D02*
X122968779Y-108408827D01*
X122968779Y-108408827D02*
X122921160Y-108313589D01*
X122921160Y-108313589D02*
X122921160Y-108218351D01*
X122921160Y-108218351D02*
X122968779Y-108123113D01*
X122968779Y-108123113D02*
X123016398Y-108075494D01*
X123016398Y-108075494D02*
X123111636Y-108027875D01*
X123111636Y-108027875D02*
X123349731Y-108027875D01*
X123349731Y-108027875D02*
X123492588Y-108075494D01*
X123921160Y-108646922D02*
X124683065Y-108646922D01*
X125587826Y-108361208D02*
X125587826Y-109027875D01*
X125349731Y-107980256D02*
X125111636Y-108694541D01*
X125111636Y-108694541D02*
X125730683Y-108694541D01*
X126254493Y-108456446D02*
X126159255Y-108408827D01*
X126159255Y-108408827D02*
X126111636Y-108361208D01*
X126111636Y-108361208D02*
X126064017Y-108265970D01*
X126064017Y-108265970D02*
X126064017Y-108218351D01*
X126064017Y-108218351D02*
X126111636Y-108123113D01*
X126111636Y-108123113D02*
X126159255Y-108075494D01*
X126159255Y-108075494D02*
X126254493Y-108027875D01*
X126254493Y-108027875D02*
X126444969Y-108027875D01*
X126444969Y-108027875D02*
X126540207Y-108075494D01*
X126540207Y-108075494D02*
X126587826Y-108123113D01*
X126587826Y-108123113D02*
X126635445Y-108218351D01*
X126635445Y-108218351D02*
X126635445Y-108265970D01*
X126635445Y-108265970D02*
X126587826Y-108361208D01*
X126587826Y-108361208D02*
X126540207Y-108408827D01*
X126540207Y-108408827D02*
X126444969Y-108456446D01*
X126444969Y-108456446D02*
X126254493Y-108456446D01*
X126254493Y-108456446D02*
X126159255Y-108504065D01*
X126159255Y-108504065D02*
X126111636Y-108551684D01*
X126111636Y-108551684D02*
X126064017Y-108646922D01*
X126064017Y-108646922D02*
X126064017Y-108837398D01*
X126064017Y-108837398D02*
X126111636Y-108932636D01*
X126111636Y-108932636D02*
X126159255Y-108980256D01*
X126159255Y-108980256D02*
X126254493Y-109027875D01*
X126254493Y-109027875D02*
X126444969Y-109027875D01*
X126444969Y-109027875D02*
X126540207Y-108980256D01*
X126540207Y-108980256D02*
X126587826Y-108932636D01*
X126587826Y-108932636D02*
X126635445Y-108837398D01*
X126635445Y-108837398D02*
X126635445Y-108646922D01*
X126635445Y-108646922D02*
X126587826Y-108551684D01*
X126587826Y-108551684D02*
X126540207Y-108504065D01*
X126540207Y-108504065D02*
X126444969Y-108456446D01*
X127540207Y-108027875D02*
X127064017Y-108027875D01*
X127064017Y-108027875D02*
X127016398Y-108504065D01*
X127016398Y-108504065D02*
X127064017Y-108456446D01*
X127064017Y-108456446D02*
X127159255Y-108408827D01*
X127159255Y-108408827D02*
X127397350Y-108408827D01*
X127397350Y-108408827D02*
X127492588Y-108456446D01*
X127492588Y-108456446D02*
X127540207Y-108504065D01*
X127540207Y-108504065D02*
X127587826Y-108599303D01*
X127587826Y-108599303D02*
X127587826Y-108837398D01*
X127587826Y-108837398D02*
X127540207Y-108932636D01*
X127540207Y-108932636D02*
X127492588Y-108980256D01*
X127492588Y-108980256D02*
X127397350Y-109027875D01*
X127397350Y-109027875D02*
X127159255Y-109027875D01*
X127159255Y-109027875D02*
X127064017Y-108980256D01*
X127064017Y-108980256D02*
X127016398Y-108932636D01*
X128730684Y-108980256D02*
X128873541Y-109027875D01*
X128873541Y-109027875D02*
X129111636Y-109027875D01*
X129111636Y-109027875D02*
X129206874Y-108980256D01*
X129206874Y-108980256D02*
X129254493Y-108932636D01*
X129254493Y-108932636D02*
X129302112Y-108837398D01*
X129302112Y-108837398D02*
X129302112Y-108742160D01*
X129302112Y-108742160D02*
X129254493Y-108646922D01*
X129254493Y-108646922D02*
X129206874Y-108599303D01*
X129206874Y-108599303D02*
X129111636Y-108551684D01*
X129111636Y-108551684D02*
X128921160Y-108504065D01*
X128921160Y-108504065D02*
X128825922Y-108456446D01*
X128825922Y-108456446D02*
X128778303Y-108408827D01*
X128778303Y-108408827D02*
X128730684Y-108313589D01*
X128730684Y-108313589D02*
X128730684Y-108218351D01*
X128730684Y-108218351D02*
X128778303Y-108123113D01*
X128778303Y-108123113D02*
X128825922Y-108075494D01*
X128825922Y-108075494D02*
X128921160Y-108027875D01*
X128921160Y-108027875D02*
X129159255Y-108027875D01*
X129159255Y-108027875D02*
X129302112Y-108075494D01*
X130111636Y-108980256D02*
X130016398Y-109027875D01*
X130016398Y-109027875D02*
X129825922Y-109027875D01*
X129825922Y-109027875D02*
X129730684Y-108980256D01*
X129730684Y-108980256D02*
X129683065Y-108885017D01*
X129683065Y-108885017D02*
X129683065Y-108504065D01*
X129683065Y-108504065D02*
X129730684Y-108408827D01*
X129730684Y-108408827D02*
X129825922Y-108361208D01*
X129825922Y-108361208D02*
X130016398Y-108361208D01*
X130016398Y-108361208D02*
X130111636Y-108408827D01*
X130111636Y-108408827D02*
X130159255Y-108504065D01*
X130159255Y-108504065D02*
X130159255Y-108599303D01*
X130159255Y-108599303D02*
X129683065Y-108694541D01*
X130587827Y-109027875D02*
X130587827Y-108361208D01*
X130587827Y-108551684D02*
X130635446Y-108456446D01*
X130635446Y-108456446D02*
X130683065Y-108408827D01*
X130683065Y-108408827D02*
X130778303Y-108361208D01*
X130778303Y-108361208D02*
X130873541Y-108361208D01*
X131206875Y-109027875D02*
X131206875Y-108361208D01*
X131206875Y-108027875D02*
X131159256Y-108075494D01*
X131159256Y-108075494D02*
X131206875Y-108123113D01*
X131206875Y-108123113D02*
X131254494Y-108075494D01*
X131254494Y-108075494D02*
X131206875Y-108027875D01*
X131206875Y-108027875D02*
X131206875Y-108123113D01*
X132111636Y-109027875D02*
X132111636Y-108504065D01*
X132111636Y-108504065D02*
X132064017Y-108408827D01*
X132064017Y-108408827D02*
X131968779Y-108361208D01*
X131968779Y-108361208D02*
X131778303Y-108361208D01*
X131778303Y-108361208D02*
X131683065Y-108408827D01*
X132111636Y-108980256D02*
X132016398Y-109027875D01*
X132016398Y-109027875D02*
X131778303Y-109027875D01*
X131778303Y-109027875D02*
X131683065Y-108980256D01*
X131683065Y-108980256D02*
X131635446Y-108885017D01*
X131635446Y-108885017D02*
X131635446Y-108789779D01*
X131635446Y-108789779D02*
X131683065Y-108694541D01*
X131683065Y-108694541D02*
X131778303Y-108646922D01*
X131778303Y-108646922D02*
X132016398Y-108646922D01*
X132016398Y-108646922D02*
X132111636Y-108599303D01*
X132730684Y-109027875D02*
X132635446Y-108980256D01*
X132635446Y-108980256D02*
X132587827Y-108885017D01*
X132587827Y-108885017D02*
X132587827Y-108027875D01*
X133873542Y-109027875D02*
X133873542Y-108027875D01*
X133873542Y-108027875D02*
X134254494Y-108027875D01*
X134254494Y-108027875D02*
X134349732Y-108075494D01*
X134349732Y-108075494D02*
X134397351Y-108123113D01*
X134397351Y-108123113D02*
X134444970Y-108218351D01*
X134444970Y-108218351D02*
X134444970Y-108361208D01*
X134444970Y-108361208D02*
X134397351Y-108456446D01*
X134397351Y-108456446D02*
X134349732Y-108504065D01*
X134349732Y-108504065D02*
X134254494Y-108551684D01*
X134254494Y-108551684D02*
X133873542Y-108551684D01*
X134873542Y-109027875D02*
X134873542Y-108361208D01*
X134873542Y-108027875D02*
X134825923Y-108075494D01*
X134825923Y-108075494D02*
X134873542Y-108123113D01*
X134873542Y-108123113D02*
X134921161Y-108075494D01*
X134921161Y-108075494D02*
X134873542Y-108027875D01*
X134873542Y-108027875D02*
X134873542Y-108123113D01*
X135349732Y-108646922D02*
X136111637Y-108646922D01*
X136587827Y-109027875D02*
X136587827Y-108027875D01*
X136587827Y-108504065D02*
X137159255Y-108504065D01*
X137159255Y-109027875D02*
X137159255Y-108027875D01*
X137587827Y-108742160D02*
X138064017Y-108742160D01*
X137492589Y-109027875D02*
X137825922Y-108027875D01*
X137825922Y-108027875D02*
X138159255Y-109027875D01*
X138349732Y-108027875D02*
X138921160Y-108027875D01*
X138635446Y-109027875D02*
X138635446Y-108027875D01*
X121873541Y-109971152D02*
X122111636Y-110637819D01*
X122111636Y-110637819D02*
X122349731Y-109971152D01*
X123254493Y-110637819D02*
X122683065Y-110637819D01*
X122968779Y-110637819D02*
X122968779Y-109637819D01*
X122968779Y-109637819D02*
X122873541Y-109780676D01*
X122873541Y-109780676D02*
X122778303Y-109875914D01*
X122778303Y-109875914D02*
X122683065Y-109923533D01*
X123683065Y-110542580D02*
X123730684Y-110590200D01*
X123730684Y-110590200D02*
X123683065Y-110637819D01*
X123683065Y-110637819D02*
X123635446Y-110590200D01*
X123635446Y-110590200D02*
X123683065Y-110542580D01*
X123683065Y-110542580D02*
X123683065Y-110637819D01*
X124349731Y-109637819D02*
X124444969Y-109637819D01*
X124444969Y-109637819D02*
X124540207Y-109685438D01*
X124540207Y-109685438D02*
X124587826Y-109733057D01*
X124587826Y-109733057D02*
X124635445Y-109828295D01*
X124635445Y-109828295D02*
X124683064Y-110018771D01*
X124683064Y-110018771D02*
X124683064Y-110256866D01*
X124683064Y-110256866D02*
X124635445Y-110447342D01*
X124635445Y-110447342D02*
X124587826Y-110542580D01*
X124587826Y-110542580D02*
X124540207Y-110590200D01*
X124540207Y-110590200D02*
X124444969Y-110637819D01*
X124444969Y-110637819D02*
X124349731Y-110637819D01*
X124349731Y-110637819D02*
X124254493Y-110590200D01*
X124254493Y-110590200D02*
X124206874Y-110542580D01*
X124206874Y-110542580D02*
X124159255Y-110447342D01*
X124159255Y-110447342D02*
X124111636Y-110256866D01*
X124111636Y-110256866D02*
X124111636Y-110018771D01*
X124111636Y-110018771D02*
X124159255Y-109828295D01*
X124159255Y-109828295D02*
X124206874Y-109733057D01*
X124206874Y-109733057D02*
X124254493Y-109685438D01*
X124254493Y-109685438D02*
X124349731Y-109637819D01*
D12*
G36*
X181342206Y-100427642D02*
G01*
X181366220Y-100451656D01*
X181395408Y-100510031D01*
X181395408Y-100600710D01*
X181366220Y-100659085D01*
X181339597Y-100685708D01*
X181281224Y-100714895D01*
X181038265Y-100714895D01*
X181038265Y-100395847D01*
X181246818Y-100395847D01*
X181342206Y-100427642D01*
G37*
G36*
X181301505Y-100044083D02*
G01*
X181328125Y-100070704D01*
X181357312Y-100129078D01*
X181357312Y-100181663D01*
X181328125Y-100240037D01*
X181301505Y-100266658D01*
X181243129Y-100295847D01*
X181038265Y-100295847D01*
X181038265Y-100014895D01*
X181243129Y-100014895D01*
X181301505Y-100044083D01*
G37*
G36*
X181584297Y-100903784D02*
G01*
X180849376Y-100903784D01*
X180849376Y-99964895D01*
X180938265Y-99964895D01*
X180938265Y-100764895D01*
X180942071Y-100784029D01*
X180969131Y-100811089D01*
X180988265Y-100814895D01*
X181293027Y-100814895D01*
X181295483Y-100814406D01*
X181296572Y-100814769D01*
X181304299Y-100812652D01*
X181312161Y-100811089D01*
X181312972Y-100810277D01*
X181315388Y-100809616D01*
X181391578Y-100771521D01*
X181397906Y-100766609D01*
X181404573Y-100762155D01*
X181442668Y-100724059D01*
X181447121Y-100717393D01*
X181452033Y-100711065D01*
X181490129Y-100634876D01*
X181490790Y-100632459D01*
X181491602Y-100631648D01*
X181493165Y-100623789D01*
X181495282Y-100616060D01*
X181494919Y-100614971D01*
X181495408Y-100612514D01*
X181495408Y-100498228D01*
X181494919Y-100495770D01*
X181495282Y-100494682D01*
X181493165Y-100486952D01*
X181491602Y-100479094D01*
X181490790Y-100478282D01*
X181490129Y-100475866D01*
X181452033Y-100399677D01*
X181447121Y-100393348D01*
X181442668Y-100386683D01*
X181404573Y-100348587D01*
X181402490Y-100347195D01*
X181401977Y-100346169D01*
X181395018Y-100342202D01*
X181388352Y-100337748D01*
X181387203Y-100337748D01*
X181385028Y-100336508D01*
X181376064Y-100333520D01*
X181404572Y-100305013D01*
X181409031Y-100298338D01*
X181413938Y-100292017D01*
X181452034Y-100215826D01*
X181452695Y-100213410D01*
X181453506Y-100212600D01*
X181455069Y-100204739D01*
X181457186Y-100197010D01*
X181456823Y-100195922D01*
X181457312Y-100193466D01*
X181457312Y-100117276D01*
X181456823Y-100114819D01*
X181457186Y-100113732D01*
X181455069Y-100106002D01*
X181453506Y-100098142D01*
X181452695Y-100097331D01*
X181452034Y-100094916D01*
X181413938Y-100018725D01*
X181409031Y-100012403D01*
X181404572Y-100005729D01*
X181366477Y-99967635D01*
X181359814Y-99963182D01*
X181353483Y-99958269D01*
X181277291Y-99920174D01*
X181274876Y-99919512D01*
X181274065Y-99918701D01*
X181266199Y-99917136D01*
X181258475Y-99915021D01*
X181257387Y-99915383D01*
X181254931Y-99914895D01*
X180988265Y-99914895D01*
X180969131Y-99918701D01*
X180942071Y-99945761D01*
X180938265Y-99964895D01*
X180849376Y-99964895D01*
X180849376Y-99826006D01*
X181584297Y-99826006D01*
X181584297Y-100903784D01*
G37*
D11*
G36*
X181260854Y-103972523D02*
G01*
X181053331Y-103972523D01*
X181157092Y-103661238D01*
X181260854Y-103972523D01*
G37*
G36*
X181574990Y-104414827D02*
G01*
X180739195Y-104414827D01*
X180739195Y-104268026D01*
X180828084Y-104268026D01*
X180849476Y-104310810D01*
X180894857Y-104325937D01*
X180937641Y-104304545D01*
X180949719Y-104283359D01*
X181011664Y-104097523D01*
X181302521Y-104097523D01*
X181364466Y-104283359D01*
X181376544Y-104304545D01*
X181419328Y-104325938D01*
X181464709Y-104310811D01*
X181486101Y-104268026D01*
X181483052Y-104243831D01*
X181216386Y-103443831D01*
X181204308Y-103422645D01*
X181200131Y-103420556D01*
X181198043Y-103416380D01*
X181179248Y-103410115D01*
X181161524Y-103401253D01*
X181157093Y-103402730D01*
X181152662Y-103401253D01*
X181134938Y-103410115D01*
X181116143Y-103416380D01*
X181114054Y-103420556D01*
X181109878Y-103422645D01*
X181097800Y-103443831D01*
X180831133Y-104243831D01*
X180828084Y-104268026D01*
X180739195Y-104268026D01*
X180739195Y-103312364D01*
X181574990Y-103312364D01*
X181574990Y-104414827D01*
G37*
X145661855Y-113500309D02*
X145947569Y-113500309D01*
X145804712Y-114000309D02*
X145804712Y-113500309D01*
X146066616Y-113500309D02*
X146399949Y-114000309D01*
X146399949Y-113500309D02*
X146066616Y-114000309D01*
X146590425Y-114000309D02*
X146590425Y-113500309D01*
X146590425Y-113500309D02*
X146709473Y-113500309D01*
X146709473Y-113500309D02*
X146780901Y-113524119D01*
X146780901Y-113524119D02*
X146828520Y-113571738D01*
X146828520Y-113571738D02*
X146852330Y-113619357D01*
X146852330Y-113619357D02*
X146876139Y-113714595D01*
X146876139Y-113714595D02*
X146876139Y-113786023D01*
X146876139Y-113786023D02*
X146852330Y-113881261D01*
X146852330Y-113881261D02*
X146828520Y-113928880D01*
X146828520Y-113928880D02*
X146780901Y-113976500D01*
X146780901Y-113976500D02*
X146709473Y-114000309D01*
X146709473Y-114000309D02*
X146590425Y-114000309D01*
X143318997Y-105100309D02*
X143152331Y-104862214D01*
X143033283Y-105100309D02*
X143033283Y-104600309D01*
X143033283Y-104600309D02*
X143223759Y-104600309D01*
X143223759Y-104600309D02*
X143271378Y-104624119D01*
X143271378Y-104624119D02*
X143295188Y-104647928D01*
X143295188Y-104647928D02*
X143318997Y-104695547D01*
X143318997Y-104695547D02*
X143318997Y-104766976D01*
X143318997Y-104766976D02*
X143295188Y-104814595D01*
X143295188Y-104814595D02*
X143271378Y-104838404D01*
X143271378Y-104838404D02*
X143223759Y-104862214D01*
X143223759Y-104862214D02*
X143033283Y-104862214D01*
X143485664Y-104600309D02*
X143818997Y-105100309D01*
X143818997Y-104600309D02*
X143485664Y-105100309D01*
X144009473Y-105100309D02*
X144009473Y-104600309D01*
X144009473Y-104600309D02*
X144128521Y-104600309D01*
X144128521Y-104600309D02*
X144199949Y-104624119D01*
X144199949Y-104624119D02*
X144247568Y-104671738D01*
X144247568Y-104671738D02*
X144271378Y-104719357D01*
X144271378Y-104719357D02*
X144295187Y-104814595D01*
X144295187Y-104814595D02*
X144295187Y-104886023D01*
X144295187Y-104886023D02*
X144271378Y-104981261D01*
X144271378Y-104981261D02*
X144247568Y-105028880D01*
X144247568Y-105028880D02*
X144199949Y-105076500D01*
X144199949Y-105076500D02*
X144128521Y-105100309D01*
X144128521Y-105100309D02*
X144009473Y-105100309D01*
X138161855Y-97300309D02*
X138447569Y-97300309D01*
X138304712Y-97800309D02*
X138304712Y-97300309D01*
X138566616Y-97300309D02*
X138899949Y-97800309D01*
X138899949Y-97300309D02*
X138566616Y-97800309D01*
D10*
X142432000Y-98968000D02*
X137332000Y-98968000D01*
X142432000Y-96568000D02*
X142432000Y-98968000D01*
D11*
X121565333Y-98222809D02*
X121565333Y-98579952D01*
X121565333Y-98579952D02*
X121541524Y-98651380D01*
X121541524Y-98651380D02*
X121493905Y-98699000D01*
X121493905Y-98699000D02*
X121422476Y-98722809D01*
X121422476Y-98722809D02*
X121374857Y-98722809D01*
X122017714Y-98389476D02*
X122017714Y-98722809D01*
X121898666Y-98199000D02*
X121779619Y-98556142D01*
X121779619Y-98556142D02*
X122089142Y-98556142D01*
X159115571Y-108062809D02*
X158948905Y-107824714D01*
X158829857Y-108062809D02*
X158829857Y-107562809D01*
X158829857Y-107562809D02*
X159020333Y-107562809D01*
X159020333Y-107562809D02*
X159067952Y-107586619D01*
X159067952Y-107586619D02*
X159091762Y-107610428D01*
X159091762Y-107610428D02*
X159115571Y-107658047D01*
X159115571Y-107658047D02*
X159115571Y-107729476D01*
X159115571Y-107729476D02*
X159091762Y-107777095D01*
X159091762Y-107777095D02*
X159067952Y-107800904D01*
X159067952Y-107800904D02*
X159020333Y-107824714D01*
X159020333Y-107824714D02*
X158829857Y-107824714D01*
X159591762Y-108062809D02*
X159306048Y-108062809D01*
X159448905Y-108062809D02*
X159448905Y-107562809D01*
X159448905Y-107562809D02*
X159401286Y-107634238D01*
X159401286Y-107634238D02*
X159353667Y-107681857D01*
X159353667Y-107681857D02*
X159306048Y-107705666D01*
X160020333Y-107562809D02*
X159925095Y-107562809D01*
X159925095Y-107562809D02*
X159877476Y-107586619D01*
X159877476Y-107586619D02*
X159853666Y-107610428D01*
X159853666Y-107610428D02*
X159806047Y-107681857D01*
X159806047Y-107681857D02*
X159782238Y-107777095D01*
X159782238Y-107777095D02*
X159782238Y-107967571D01*
X159782238Y-107967571D02*
X159806047Y-108015190D01*
X159806047Y-108015190D02*
X159829857Y-108039000D01*
X159829857Y-108039000D02*
X159877476Y-108062809D01*
X159877476Y-108062809D02*
X159972714Y-108062809D01*
X159972714Y-108062809D02*
X160020333Y-108039000D01*
X160020333Y-108039000D02*
X160044142Y-108015190D01*
X160044142Y-108015190D02*
X160067952Y-107967571D01*
X160067952Y-107967571D02*
X160067952Y-107848523D01*
X160067952Y-107848523D02*
X160044142Y-107800904D01*
X160044142Y-107800904D02*
X160020333Y-107777095D01*
X160020333Y-107777095D02*
X159972714Y-107753285D01*
X159972714Y-107753285D02*
X159877476Y-107753285D01*
X159877476Y-107753285D02*
X159829857Y-107777095D01*
X159829857Y-107777095D02*
X159806047Y-107800904D01*
X159806047Y-107800904D02*
X159782238Y-107848523D01*
X153748666Y-102092809D02*
X153582000Y-101854714D01*
X153462952Y-102092809D02*
X153462952Y-101592809D01*
X153462952Y-101592809D02*
X153653428Y-101592809D01*
X153653428Y-101592809D02*
X153701047Y-101616619D01*
X153701047Y-101616619D02*
X153724857Y-101640428D01*
X153724857Y-101640428D02*
X153748666Y-101688047D01*
X153748666Y-101688047D02*
X153748666Y-101759476D01*
X153748666Y-101759476D02*
X153724857Y-101807095D01*
X153724857Y-101807095D02*
X153701047Y-101830904D01*
X153701047Y-101830904D02*
X153653428Y-101854714D01*
X153653428Y-101854714D02*
X153462952Y-101854714D01*
X153915333Y-101592809D02*
X154248666Y-101592809D01*
X154248666Y-101592809D02*
X154034381Y-102092809D01*
X143115333Y-97392809D02*
X143115333Y-97749952D01*
X143115333Y-97749952D02*
X143091524Y-97821380D01*
X143091524Y-97821380D02*
X143043905Y-97869000D01*
X143043905Y-97869000D02*
X142972476Y-97892809D01*
X142972476Y-97892809D02*
X142924857Y-97892809D01*
X143353428Y-97892809D02*
X143353428Y-97392809D01*
X143353428Y-97392809D02*
X143543904Y-97392809D01*
X143543904Y-97392809D02*
X143591523Y-97416619D01*
X143591523Y-97416619D02*
X143615333Y-97440428D01*
X143615333Y-97440428D02*
X143639142Y-97488047D01*
X143639142Y-97488047D02*
X143639142Y-97559476D01*
X143639142Y-97559476D02*
X143615333Y-97607095D01*
X143615333Y-97607095D02*
X143591523Y-97630904D01*
X143591523Y-97630904D02*
X143543904Y-97654714D01*
X143543904Y-97654714D02*
X143353428Y-97654714D01*
X143829619Y-97440428D02*
X143853428Y-97416619D01*
X143853428Y-97416619D02*
X143901047Y-97392809D01*
X143901047Y-97392809D02*
X144020095Y-97392809D01*
X144020095Y-97392809D02*
X144067714Y-97416619D01*
X144067714Y-97416619D02*
X144091523Y-97440428D01*
X144091523Y-97440428D02*
X144115333Y-97488047D01*
X144115333Y-97488047D02*
X144115333Y-97535666D01*
X144115333Y-97535666D02*
X144091523Y-97607095D01*
X144091523Y-97607095D02*
X143805809Y-97892809D01*
X143805809Y-97892809D02*
X144115333Y-97892809D01*
X150568666Y-99245190D02*
X150544857Y-99269000D01*
X150544857Y-99269000D02*
X150473428Y-99292809D01*
X150473428Y-99292809D02*
X150425809Y-99292809D01*
X150425809Y-99292809D02*
X150354381Y-99269000D01*
X150354381Y-99269000D02*
X150306762Y-99221380D01*
X150306762Y-99221380D02*
X150282952Y-99173761D01*
X150282952Y-99173761D02*
X150259143Y-99078523D01*
X150259143Y-99078523D02*
X150259143Y-99007095D01*
X150259143Y-99007095D02*
X150282952Y-98911857D01*
X150282952Y-98911857D02*
X150306762Y-98864238D01*
X150306762Y-98864238D02*
X150354381Y-98816619D01*
X150354381Y-98816619D02*
X150425809Y-98792809D01*
X150425809Y-98792809D02*
X150473428Y-98792809D01*
X150473428Y-98792809D02*
X150544857Y-98816619D01*
X150544857Y-98816619D02*
X150568666Y-98840428D01*
X151044857Y-99292809D02*
X150759143Y-99292809D01*
X150902000Y-99292809D02*
X150902000Y-98792809D01*
X150902000Y-98792809D02*
X150854381Y-98864238D01*
X150854381Y-98864238D02*
X150806762Y-98911857D01*
X150806762Y-98911857D02*
X150759143Y-98935666D01*
X145715333Y-97392809D02*
X145715333Y-97749952D01*
X145715333Y-97749952D02*
X145691524Y-97821380D01*
X145691524Y-97821380D02*
X145643905Y-97869000D01*
X145643905Y-97869000D02*
X145572476Y-97892809D01*
X145572476Y-97892809D02*
X145524857Y-97892809D01*
X145953428Y-97892809D02*
X145953428Y-97392809D01*
X145953428Y-97392809D02*
X146143904Y-97392809D01*
X146143904Y-97392809D02*
X146191523Y-97416619D01*
X146191523Y-97416619D02*
X146215333Y-97440428D01*
X146215333Y-97440428D02*
X146239142Y-97488047D01*
X146239142Y-97488047D02*
X146239142Y-97559476D01*
X146239142Y-97559476D02*
X146215333Y-97607095D01*
X146215333Y-97607095D02*
X146191523Y-97630904D01*
X146191523Y-97630904D02*
X146143904Y-97654714D01*
X146143904Y-97654714D02*
X145953428Y-97654714D01*
X146715333Y-97892809D02*
X146429619Y-97892809D01*
X146572476Y-97892809D02*
X146572476Y-97392809D01*
X146572476Y-97392809D02*
X146524857Y-97464238D01*
X146524857Y-97464238D02*
X146477238Y-97511857D01*
X146477238Y-97511857D02*
X146429619Y-97535666D01*
X163412952Y-116542809D02*
X163412952Y-116042809D01*
X163412952Y-116042809D02*
X163532000Y-116042809D01*
X163532000Y-116042809D02*
X163603428Y-116066619D01*
X163603428Y-116066619D02*
X163651047Y-116114238D01*
X163651047Y-116114238D02*
X163674857Y-116161857D01*
X163674857Y-116161857D02*
X163698666Y-116257095D01*
X163698666Y-116257095D02*
X163698666Y-116328523D01*
X163698666Y-116328523D02*
X163674857Y-116423761D01*
X163674857Y-116423761D02*
X163651047Y-116471380D01*
X163651047Y-116471380D02*
X163603428Y-116519000D01*
X163603428Y-116519000D02*
X163532000Y-116542809D01*
X163532000Y-116542809D02*
X163412952Y-116542809D01*
X164127238Y-116042809D02*
X164032000Y-116042809D01*
X164032000Y-116042809D02*
X163984381Y-116066619D01*
X163984381Y-116066619D02*
X163960571Y-116090428D01*
X163960571Y-116090428D02*
X163912952Y-116161857D01*
X163912952Y-116161857D02*
X163889143Y-116257095D01*
X163889143Y-116257095D02*
X163889143Y-116447571D01*
X163889143Y-116447571D02*
X163912952Y-116495190D01*
X163912952Y-116495190D02*
X163936762Y-116519000D01*
X163936762Y-116519000D02*
X163984381Y-116542809D01*
X163984381Y-116542809D02*
X164079619Y-116542809D01*
X164079619Y-116542809D02*
X164127238Y-116519000D01*
X164127238Y-116519000D02*
X164151047Y-116495190D01*
X164151047Y-116495190D02*
X164174857Y-116447571D01*
X164174857Y-116447571D02*
X164174857Y-116328523D01*
X164174857Y-116328523D02*
X164151047Y-116280904D01*
X164151047Y-116280904D02*
X164127238Y-116257095D01*
X164127238Y-116257095D02*
X164079619Y-116233285D01*
X164079619Y-116233285D02*
X163984381Y-116233285D01*
X163984381Y-116233285D02*
X163936762Y-116257095D01*
X163936762Y-116257095D02*
X163912952Y-116280904D01*
X163912952Y-116280904D02*
X163889143Y-116328523D01*
X148412952Y-117792809D02*
X148412952Y-117292809D01*
X148412952Y-117292809D02*
X148532000Y-117292809D01*
X148532000Y-117292809D02*
X148603428Y-117316619D01*
X148603428Y-117316619D02*
X148651047Y-117364238D01*
X148651047Y-117364238D02*
X148674857Y-117411857D01*
X148674857Y-117411857D02*
X148698666Y-117507095D01*
X148698666Y-117507095D02*
X148698666Y-117578523D01*
X148698666Y-117578523D02*
X148674857Y-117673761D01*
X148674857Y-117673761D02*
X148651047Y-117721380D01*
X148651047Y-117721380D02*
X148603428Y-117769000D01*
X148603428Y-117769000D02*
X148532000Y-117792809D01*
X148532000Y-117792809D02*
X148412952Y-117792809D01*
X149151047Y-117292809D02*
X148912952Y-117292809D01*
X148912952Y-117292809D02*
X148889143Y-117530904D01*
X148889143Y-117530904D02*
X148912952Y-117507095D01*
X148912952Y-117507095D02*
X148960571Y-117483285D01*
X148960571Y-117483285D02*
X149079619Y-117483285D01*
X149079619Y-117483285D02*
X149127238Y-117507095D01*
X149127238Y-117507095D02*
X149151047Y-117530904D01*
X149151047Y-117530904D02*
X149174857Y-117578523D01*
X149174857Y-117578523D02*
X149174857Y-117697571D01*
X149174857Y-117697571D02*
X149151047Y-117745190D01*
X149151047Y-117745190D02*
X149127238Y-117769000D01*
X149127238Y-117769000D02*
X149079619Y-117792809D01*
X149079619Y-117792809D02*
X148960571Y-117792809D01*
X148960571Y-117792809D02*
X148912952Y-117769000D01*
X148912952Y-117769000D02*
X148889143Y-117745190D01*
X141110333Y-102792809D02*
X141110333Y-103149952D01*
X141110333Y-103149952D02*
X141086524Y-103221380D01*
X141086524Y-103221380D02*
X141038905Y-103269000D01*
X141038905Y-103269000D02*
X140967476Y-103292809D01*
X140967476Y-103292809D02*
X140919857Y-103292809D01*
X141300809Y-102792809D02*
X141610333Y-102792809D01*
X141610333Y-102792809D02*
X141443666Y-102983285D01*
X141443666Y-102983285D02*
X141515095Y-102983285D01*
X141515095Y-102983285D02*
X141562714Y-103007095D01*
X141562714Y-103007095D02*
X141586523Y-103030904D01*
X141586523Y-103030904D02*
X141610333Y-103078523D01*
X141610333Y-103078523D02*
X141610333Y-103197571D01*
X141610333Y-103197571D02*
X141586523Y-103245190D01*
X141586523Y-103245190D02*
X141562714Y-103269000D01*
X141562714Y-103269000D02*
X141515095Y-103292809D01*
X141515095Y-103292809D02*
X141372238Y-103292809D01*
X141372238Y-103292809D02*
X141324619Y-103269000D01*
X141324619Y-103269000D02*
X141300809Y-103245190D01*
X148450452Y-112612809D02*
X148450452Y-112112809D01*
X148450452Y-112112809D02*
X148569500Y-112112809D01*
X148569500Y-112112809D02*
X148640928Y-112136619D01*
X148640928Y-112136619D02*
X148688547Y-112184238D01*
X148688547Y-112184238D02*
X148712357Y-112231857D01*
X148712357Y-112231857D02*
X148736166Y-112327095D01*
X148736166Y-112327095D02*
X148736166Y-112398523D01*
X148736166Y-112398523D02*
X148712357Y-112493761D01*
X148712357Y-112493761D02*
X148688547Y-112541380D01*
X148688547Y-112541380D02*
X148640928Y-112589000D01*
X148640928Y-112589000D02*
X148569500Y-112612809D01*
X148569500Y-112612809D02*
X148450452Y-112612809D01*
X149164738Y-112279476D02*
X149164738Y-112612809D01*
X149045690Y-112089000D02*
X148926643Y-112446142D01*
X148926643Y-112446142D02*
X149236166Y-112446142D01*
X159353666Y-111112809D02*
X159187000Y-110874714D01*
X159067952Y-111112809D02*
X159067952Y-110612809D01*
X159067952Y-110612809D02*
X159258428Y-110612809D01*
X159258428Y-110612809D02*
X159306047Y-110636619D01*
X159306047Y-110636619D02*
X159329857Y-110660428D01*
X159329857Y-110660428D02*
X159353666Y-110708047D01*
X159353666Y-110708047D02*
X159353666Y-110779476D01*
X159353666Y-110779476D02*
X159329857Y-110827095D01*
X159329857Y-110827095D02*
X159306047Y-110850904D01*
X159306047Y-110850904D02*
X159258428Y-110874714D01*
X159258428Y-110874714D02*
X159067952Y-110874714D01*
X159782238Y-110779476D02*
X159782238Y-111112809D01*
X159663190Y-110589000D02*
X159544143Y-110946142D01*
X159544143Y-110946142D02*
X159853666Y-110946142D01*
X155635571Y-117792809D02*
X155468905Y-117554714D01*
X155349857Y-117792809D02*
X155349857Y-117292809D01*
X155349857Y-117292809D02*
X155540333Y-117292809D01*
X155540333Y-117292809D02*
X155587952Y-117316619D01*
X155587952Y-117316619D02*
X155611762Y-117340428D01*
X155611762Y-117340428D02*
X155635571Y-117388047D01*
X155635571Y-117388047D02*
X155635571Y-117459476D01*
X155635571Y-117459476D02*
X155611762Y-117507095D01*
X155611762Y-117507095D02*
X155587952Y-117530904D01*
X155587952Y-117530904D02*
X155540333Y-117554714D01*
X155540333Y-117554714D02*
X155349857Y-117554714D01*
X156111762Y-117792809D02*
X155826048Y-117792809D01*
X155968905Y-117792809D02*
X155968905Y-117292809D01*
X155968905Y-117292809D02*
X155921286Y-117364238D01*
X155921286Y-117364238D02*
X155873667Y-117411857D01*
X155873667Y-117411857D02*
X155826048Y-117435666D01*
X156564142Y-117292809D02*
X156326047Y-117292809D01*
X156326047Y-117292809D02*
X156302238Y-117530904D01*
X156302238Y-117530904D02*
X156326047Y-117507095D01*
X156326047Y-117507095D02*
X156373666Y-117483285D01*
X156373666Y-117483285D02*
X156492714Y-117483285D01*
X156492714Y-117483285D02*
X156540333Y-117507095D01*
X156540333Y-117507095D02*
X156564142Y-117530904D01*
X156564142Y-117530904D02*
X156587952Y-117578523D01*
X156587952Y-117578523D02*
X156587952Y-117697571D01*
X156587952Y-117697571D02*
X156564142Y-117745190D01*
X156564142Y-117745190D02*
X156540333Y-117769000D01*
X156540333Y-117769000D02*
X156492714Y-117792809D01*
X156492714Y-117792809D02*
X156373666Y-117792809D01*
X156373666Y-117792809D02*
X156326047Y-117769000D01*
X156326047Y-117769000D02*
X156302238Y-117745190D01*
X152198666Y-117792809D02*
X152032000Y-117554714D01*
X151912952Y-117792809D02*
X151912952Y-117292809D01*
X151912952Y-117292809D02*
X152103428Y-117292809D01*
X152103428Y-117292809D02*
X152151047Y-117316619D01*
X152151047Y-117316619D02*
X152174857Y-117340428D01*
X152174857Y-117340428D02*
X152198666Y-117388047D01*
X152198666Y-117388047D02*
X152198666Y-117459476D01*
X152198666Y-117459476D02*
X152174857Y-117507095D01*
X152174857Y-117507095D02*
X152151047Y-117530904D01*
X152151047Y-117530904D02*
X152103428Y-117554714D01*
X152103428Y-117554714D02*
X151912952Y-117554714D01*
X152436762Y-117792809D02*
X152532000Y-117792809D01*
X152532000Y-117792809D02*
X152579619Y-117769000D01*
X152579619Y-117769000D02*
X152603428Y-117745190D01*
X152603428Y-117745190D02*
X152651047Y-117673761D01*
X152651047Y-117673761D02*
X152674857Y-117578523D01*
X152674857Y-117578523D02*
X152674857Y-117388047D01*
X152674857Y-117388047D02*
X152651047Y-117340428D01*
X152651047Y-117340428D02*
X152627238Y-117316619D01*
X152627238Y-117316619D02*
X152579619Y-117292809D01*
X152579619Y-117292809D02*
X152484381Y-117292809D01*
X152484381Y-117292809D02*
X152436762Y-117316619D01*
X152436762Y-117316619D02*
X152412952Y-117340428D01*
X152412952Y-117340428D02*
X152389143Y-117388047D01*
X152389143Y-117388047D02*
X152389143Y-117507095D01*
X152389143Y-117507095D02*
X152412952Y-117554714D01*
X152412952Y-117554714D02*
X152436762Y-117578523D01*
X152436762Y-117578523D02*
X152484381Y-117602333D01*
X152484381Y-117602333D02*
X152579619Y-117602333D01*
X152579619Y-117602333D02*
X152627238Y-117578523D01*
X152627238Y-117578523D02*
X152651047Y-117554714D01*
X152651047Y-117554714D02*
X152674857Y-117507095D01*
X168460571Y-98542809D02*
X168293905Y-98304714D01*
X168174857Y-98542809D02*
X168174857Y-98042809D01*
X168174857Y-98042809D02*
X168365333Y-98042809D01*
X168365333Y-98042809D02*
X168412952Y-98066619D01*
X168412952Y-98066619D02*
X168436762Y-98090428D01*
X168436762Y-98090428D02*
X168460571Y-98138047D01*
X168460571Y-98138047D02*
X168460571Y-98209476D01*
X168460571Y-98209476D02*
X168436762Y-98257095D01*
X168436762Y-98257095D02*
X168412952Y-98280904D01*
X168412952Y-98280904D02*
X168365333Y-98304714D01*
X168365333Y-98304714D02*
X168174857Y-98304714D01*
X168936762Y-98542809D02*
X168651048Y-98542809D01*
X168793905Y-98542809D02*
X168793905Y-98042809D01*
X168793905Y-98042809D02*
X168746286Y-98114238D01*
X168746286Y-98114238D02*
X168698667Y-98161857D01*
X168698667Y-98161857D02*
X168651048Y-98185666D01*
X169127238Y-98090428D02*
X169151047Y-98066619D01*
X169151047Y-98066619D02*
X169198666Y-98042809D01*
X169198666Y-98042809D02*
X169317714Y-98042809D01*
X169317714Y-98042809D02*
X169365333Y-98066619D01*
X169365333Y-98066619D02*
X169389142Y-98090428D01*
X169389142Y-98090428D02*
X169412952Y-98138047D01*
X169412952Y-98138047D02*
X169412952Y-98185666D01*
X169412952Y-98185666D02*
X169389142Y-98257095D01*
X169389142Y-98257095D02*
X169103428Y-98542809D01*
X169103428Y-98542809D02*
X169412952Y-98542809D01*
X168460571Y-116542809D02*
X168293905Y-116304714D01*
X168174857Y-116542809D02*
X168174857Y-116042809D01*
X168174857Y-116042809D02*
X168365333Y-116042809D01*
X168365333Y-116042809D02*
X168412952Y-116066619D01*
X168412952Y-116066619D02*
X168436762Y-116090428D01*
X168436762Y-116090428D02*
X168460571Y-116138047D01*
X168460571Y-116138047D02*
X168460571Y-116209476D01*
X168460571Y-116209476D02*
X168436762Y-116257095D01*
X168436762Y-116257095D02*
X168412952Y-116280904D01*
X168412952Y-116280904D02*
X168365333Y-116304714D01*
X168365333Y-116304714D02*
X168174857Y-116304714D01*
X168936762Y-116542809D02*
X168651048Y-116542809D01*
X168793905Y-116542809D02*
X168793905Y-116042809D01*
X168793905Y-116042809D02*
X168746286Y-116114238D01*
X168746286Y-116114238D02*
X168698667Y-116161857D01*
X168698667Y-116161857D02*
X168651048Y-116185666D01*
X169103428Y-116042809D02*
X169412952Y-116042809D01*
X169412952Y-116042809D02*
X169246285Y-116233285D01*
X169246285Y-116233285D02*
X169317714Y-116233285D01*
X169317714Y-116233285D02*
X169365333Y-116257095D01*
X169365333Y-116257095D02*
X169389142Y-116280904D01*
X169389142Y-116280904D02*
X169412952Y-116328523D01*
X169412952Y-116328523D02*
X169412952Y-116447571D01*
X169412952Y-116447571D02*
X169389142Y-116495190D01*
X169389142Y-116495190D02*
X169365333Y-116519000D01*
X169365333Y-116519000D02*
X169317714Y-116542809D01*
X169317714Y-116542809D02*
X169174857Y-116542809D01*
X169174857Y-116542809D02*
X169127238Y-116519000D01*
X169127238Y-116519000D02*
X169103428Y-116495190D01*
X159115571Y-105362809D02*
X158948905Y-105124714D01*
X158829857Y-105362809D02*
X158829857Y-104862809D01*
X158829857Y-104862809D02*
X159020333Y-104862809D01*
X159020333Y-104862809D02*
X159067952Y-104886619D01*
X159067952Y-104886619D02*
X159091762Y-104910428D01*
X159091762Y-104910428D02*
X159115571Y-104958047D01*
X159115571Y-104958047D02*
X159115571Y-105029476D01*
X159115571Y-105029476D02*
X159091762Y-105077095D01*
X159091762Y-105077095D02*
X159067952Y-105100904D01*
X159067952Y-105100904D02*
X159020333Y-105124714D01*
X159020333Y-105124714D02*
X158829857Y-105124714D01*
X159591762Y-105362809D02*
X159306048Y-105362809D01*
X159448905Y-105362809D02*
X159448905Y-104862809D01*
X159448905Y-104862809D02*
X159401286Y-104934238D01*
X159401286Y-104934238D02*
X159353667Y-104981857D01*
X159353667Y-104981857D02*
X159306048Y-105005666D01*
X159758428Y-104862809D02*
X160091761Y-104862809D01*
X160091761Y-104862809D02*
X159877476Y-105362809D01*
D12*
X146058109Y-107044428D02*
X145820014Y-107211094D01*
X146058109Y-107330142D02*
X145558109Y-107330142D01*
X145558109Y-107330142D02*
X145558109Y-107139666D01*
X145558109Y-107139666D02*
X145581919Y-107092047D01*
X145581919Y-107092047D02*
X145605728Y-107068237D01*
X145605728Y-107068237D02*
X145653347Y-107044428D01*
X145653347Y-107044428D02*
X145724776Y-107044428D01*
X145724776Y-107044428D02*
X145772395Y-107068237D01*
X145772395Y-107068237D02*
X145796204Y-107092047D01*
X145796204Y-107092047D02*
X145820014Y-107139666D01*
X145820014Y-107139666D02*
X145820014Y-107330142D01*
X146058109Y-106568237D02*
X146058109Y-106853951D01*
X146058109Y-106711094D02*
X145558109Y-106711094D01*
X145558109Y-106711094D02*
X145629538Y-106758713D01*
X145629538Y-106758713D02*
X145677157Y-106806332D01*
X145677157Y-106806332D02*
X145700966Y-106853951D01*
X145558109Y-106258714D02*
X145558109Y-106211095D01*
X145558109Y-106211095D02*
X145581919Y-106163476D01*
X145581919Y-106163476D02*
X145605728Y-106139666D01*
X145605728Y-106139666D02*
X145653347Y-106115857D01*
X145653347Y-106115857D02*
X145748585Y-106092047D01*
X145748585Y-106092047D02*
X145867633Y-106092047D01*
X145867633Y-106092047D02*
X145962871Y-106115857D01*
X145962871Y-106115857D02*
X146010490Y-106139666D01*
X146010490Y-106139666D02*
X146034300Y-106163476D01*
X146034300Y-106163476D02*
X146058109Y-106211095D01*
X146058109Y-106211095D02*
X146058109Y-106258714D01*
X146058109Y-106258714D02*
X146034300Y-106306333D01*
X146034300Y-106306333D02*
X146010490Y-106330142D01*
X146010490Y-106330142D02*
X145962871Y-106353952D01*
X145962871Y-106353952D02*
X145867633Y-106377761D01*
X145867633Y-106377761D02*
X145748585Y-106377761D01*
X145748585Y-106377761D02*
X145653347Y-106353952D01*
X145653347Y-106353952D02*
X145605728Y-106330142D01*
X145605728Y-106330142D02*
X145581919Y-106306333D01*
X145581919Y-106306333D02*
X145558109Y-106258714D01*
D11*
X163412952Y-98542809D02*
X163412952Y-98042809D01*
X163412952Y-98042809D02*
X163532000Y-98042809D01*
X163532000Y-98042809D02*
X163603428Y-98066619D01*
X163603428Y-98066619D02*
X163651047Y-98114238D01*
X163651047Y-98114238D02*
X163674857Y-98161857D01*
X163674857Y-98161857D02*
X163698666Y-98257095D01*
X163698666Y-98257095D02*
X163698666Y-98328523D01*
X163698666Y-98328523D02*
X163674857Y-98423761D01*
X163674857Y-98423761D02*
X163651047Y-98471380D01*
X163651047Y-98471380D02*
X163603428Y-98519000D01*
X163603428Y-98519000D02*
X163532000Y-98542809D01*
X163532000Y-98542809D02*
X163412952Y-98542809D01*
X163865333Y-98042809D02*
X164198666Y-98042809D01*
X164198666Y-98042809D02*
X163984381Y-98542809D01*
X158562952Y-101292809D02*
X158562952Y-100792809D01*
X158562952Y-100792809D02*
X158682000Y-100792809D01*
X158682000Y-100792809D02*
X158753428Y-100816619D01*
X158753428Y-100816619D02*
X158801047Y-100864238D01*
X158801047Y-100864238D02*
X158824857Y-100911857D01*
X158824857Y-100911857D02*
X158848666Y-101007095D01*
X158848666Y-101007095D02*
X158848666Y-101078523D01*
X158848666Y-101078523D02*
X158824857Y-101173761D01*
X158824857Y-101173761D02*
X158801047Y-101221380D01*
X158801047Y-101221380D02*
X158753428Y-101269000D01*
X158753428Y-101269000D02*
X158682000Y-101292809D01*
X158682000Y-101292809D02*
X158562952Y-101292809D01*
X159015333Y-100792809D02*
X159324857Y-100792809D01*
X159324857Y-100792809D02*
X159158190Y-100983285D01*
X159158190Y-100983285D02*
X159229619Y-100983285D01*
X159229619Y-100983285D02*
X159277238Y-101007095D01*
X159277238Y-101007095D02*
X159301047Y-101030904D01*
X159301047Y-101030904D02*
X159324857Y-101078523D01*
X159324857Y-101078523D02*
X159324857Y-101197571D01*
X159324857Y-101197571D02*
X159301047Y-101245190D01*
X159301047Y-101245190D02*
X159277238Y-101269000D01*
X159277238Y-101269000D02*
X159229619Y-101292809D01*
X159229619Y-101292809D02*
X159086762Y-101292809D01*
X159086762Y-101292809D02*
X159039143Y-101269000D01*
X159039143Y-101269000D02*
X159015333Y-101245190D01*
X155535571Y-112612809D02*
X155368905Y-112374714D01*
X155249857Y-112612809D02*
X155249857Y-112112809D01*
X155249857Y-112112809D02*
X155440333Y-112112809D01*
X155440333Y-112112809D02*
X155487952Y-112136619D01*
X155487952Y-112136619D02*
X155511762Y-112160428D01*
X155511762Y-112160428D02*
X155535571Y-112208047D01*
X155535571Y-112208047D02*
X155535571Y-112279476D01*
X155535571Y-112279476D02*
X155511762Y-112327095D01*
X155511762Y-112327095D02*
X155487952Y-112350904D01*
X155487952Y-112350904D02*
X155440333Y-112374714D01*
X155440333Y-112374714D02*
X155249857Y-112374714D01*
X156011762Y-112612809D02*
X155726048Y-112612809D01*
X155868905Y-112612809D02*
X155868905Y-112112809D01*
X155868905Y-112112809D02*
X155821286Y-112184238D01*
X155821286Y-112184238D02*
X155773667Y-112231857D01*
X155773667Y-112231857D02*
X155726048Y-112255666D01*
X156440333Y-112279476D02*
X156440333Y-112612809D01*
X156321285Y-112089000D02*
X156202238Y-112446142D01*
X156202238Y-112446142D02*
X156511761Y-112446142D01*
X149251047Y-105092809D02*
X149251047Y-105497571D01*
X149251047Y-105497571D02*
X149274857Y-105545190D01*
X149274857Y-105545190D02*
X149298666Y-105569000D01*
X149298666Y-105569000D02*
X149346285Y-105592809D01*
X149346285Y-105592809D02*
X149441523Y-105592809D01*
X149441523Y-105592809D02*
X149489142Y-105569000D01*
X149489142Y-105569000D02*
X149512952Y-105545190D01*
X149512952Y-105545190D02*
X149536761Y-105497571D01*
X149536761Y-105497571D02*
X149536761Y-105092809D01*
X150036762Y-105592809D02*
X149751048Y-105592809D01*
X149893905Y-105592809D02*
X149893905Y-105092809D01*
X149893905Y-105092809D02*
X149846286Y-105164238D01*
X149846286Y-105164238D02*
X149798667Y-105211857D01*
X149798667Y-105211857D02*
X149751048Y-105235666D01*
X179365333Y-106542809D02*
X179365333Y-106899952D01*
X179365333Y-106899952D02*
X179341524Y-106971380D01*
X179341524Y-106971380D02*
X179293905Y-107019000D01*
X179293905Y-107019000D02*
X179222476Y-107042809D01*
X179222476Y-107042809D02*
X179174857Y-107042809D01*
X179579619Y-106590428D02*
X179603428Y-106566619D01*
X179603428Y-106566619D02*
X179651047Y-106542809D01*
X179651047Y-106542809D02*
X179770095Y-106542809D01*
X179770095Y-106542809D02*
X179817714Y-106566619D01*
X179817714Y-106566619D02*
X179841523Y-106590428D01*
X179841523Y-106590428D02*
X179865333Y-106638047D01*
X179865333Y-106638047D02*
X179865333Y-106685666D01*
X179865333Y-106685666D02*
X179841523Y-106757095D01*
X179841523Y-106757095D02*
X179555809Y-107042809D01*
X179555809Y-107042809D02*
X179865333Y-107042809D01*
X159353666Y-102362809D02*
X159187000Y-102124714D01*
X159067952Y-102362809D02*
X159067952Y-101862809D01*
X159067952Y-101862809D02*
X159258428Y-101862809D01*
X159258428Y-101862809D02*
X159306047Y-101886619D01*
X159306047Y-101886619D02*
X159329857Y-101910428D01*
X159329857Y-101910428D02*
X159353666Y-101958047D01*
X159353666Y-101958047D02*
X159353666Y-102029476D01*
X159353666Y-102029476D02*
X159329857Y-102077095D01*
X159329857Y-102077095D02*
X159306047Y-102100904D01*
X159306047Y-102100904D02*
X159258428Y-102124714D01*
X159258428Y-102124714D02*
X159067952Y-102124714D01*
X159806047Y-101862809D02*
X159567952Y-101862809D01*
X159567952Y-101862809D02*
X159544143Y-102100904D01*
X159544143Y-102100904D02*
X159567952Y-102077095D01*
X159567952Y-102077095D02*
X159615571Y-102053285D01*
X159615571Y-102053285D02*
X159734619Y-102053285D01*
X159734619Y-102053285D02*
X159782238Y-102077095D01*
X159782238Y-102077095D02*
X159806047Y-102100904D01*
X159806047Y-102100904D02*
X159829857Y-102148523D01*
X159829857Y-102148523D02*
X159829857Y-102267571D01*
X159829857Y-102267571D02*
X159806047Y-102315190D01*
X159806047Y-102315190D02*
X159782238Y-102339000D01*
X159782238Y-102339000D02*
X159734619Y-102362809D01*
X159734619Y-102362809D02*
X159615571Y-102362809D01*
X159615571Y-102362809D02*
X159567952Y-102339000D01*
X159567952Y-102339000D02*
X159544143Y-102315190D01*
D12*
X146058109Y-110689428D02*
X145820014Y-110856094D01*
X146058109Y-110975142D02*
X145558109Y-110975142D01*
X145558109Y-110975142D02*
X145558109Y-110784666D01*
X145558109Y-110784666D02*
X145581919Y-110737047D01*
X145581919Y-110737047D02*
X145605728Y-110713237D01*
X145605728Y-110713237D02*
X145653347Y-110689428D01*
X145653347Y-110689428D02*
X145724776Y-110689428D01*
X145724776Y-110689428D02*
X145772395Y-110713237D01*
X145772395Y-110713237D02*
X145796204Y-110737047D01*
X145796204Y-110737047D02*
X145820014Y-110784666D01*
X145820014Y-110784666D02*
X145820014Y-110975142D01*
X146058109Y-110213237D02*
X146058109Y-110498951D01*
X146058109Y-110356094D02*
X145558109Y-110356094D01*
X145558109Y-110356094D02*
X145629538Y-110403713D01*
X145629538Y-110403713D02*
X145677157Y-110451332D01*
X145677157Y-110451332D02*
X145700966Y-110498951D01*
X146058109Y-109737047D02*
X146058109Y-110022761D01*
X146058109Y-109879904D02*
X145558109Y-109879904D01*
X145558109Y-109879904D02*
X145629538Y-109927523D01*
X145629538Y-109927523D02*
X145677157Y-109975142D01*
X145677157Y-109975142D02*
X145700966Y-110022761D01*
D11*
X152198666Y-112612809D02*
X152032000Y-112374714D01*
X151912952Y-112612809D02*
X151912952Y-112112809D01*
X151912952Y-112112809D02*
X152103428Y-112112809D01*
X152103428Y-112112809D02*
X152151047Y-112136619D01*
X152151047Y-112136619D02*
X152174857Y-112160428D01*
X152174857Y-112160428D02*
X152198666Y-112208047D01*
X152198666Y-112208047D02*
X152198666Y-112279476D01*
X152198666Y-112279476D02*
X152174857Y-112327095D01*
X152174857Y-112327095D02*
X152151047Y-112350904D01*
X152151047Y-112350904D02*
X152103428Y-112374714D01*
X152103428Y-112374714D02*
X151912952Y-112374714D01*
X152484381Y-112327095D02*
X152436762Y-112303285D01*
X152436762Y-112303285D02*
X152412952Y-112279476D01*
X152412952Y-112279476D02*
X152389143Y-112231857D01*
X152389143Y-112231857D02*
X152389143Y-112208047D01*
X152389143Y-112208047D02*
X152412952Y-112160428D01*
X152412952Y-112160428D02*
X152436762Y-112136619D01*
X152436762Y-112136619D02*
X152484381Y-112112809D01*
X152484381Y-112112809D02*
X152579619Y-112112809D01*
X152579619Y-112112809D02*
X152627238Y-112136619D01*
X152627238Y-112136619D02*
X152651047Y-112160428D01*
X152651047Y-112160428D02*
X152674857Y-112208047D01*
X152674857Y-112208047D02*
X152674857Y-112231857D01*
X152674857Y-112231857D02*
X152651047Y-112279476D01*
X152651047Y-112279476D02*
X152627238Y-112303285D01*
X152627238Y-112303285D02*
X152579619Y-112327095D01*
X152579619Y-112327095D02*
X152484381Y-112327095D01*
X152484381Y-112327095D02*
X152436762Y-112350904D01*
X152436762Y-112350904D02*
X152412952Y-112374714D01*
X152412952Y-112374714D02*
X152389143Y-112422333D01*
X152389143Y-112422333D02*
X152389143Y-112517571D01*
X152389143Y-112517571D02*
X152412952Y-112565190D01*
X152412952Y-112565190D02*
X152436762Y-112589000D01*
X152436762Y-112589000D02*
X152484381Y-112612809D01*
X152484381Y-112612809D02*
X152579619Y-112612809D01*
X152579619Y-112612809D02*
X152627238Y-112589000D01*
X152627238Y-112589000D02*
X152651047Y-112565190D01*
X152651047Y-112565190D02*
X152674857Y-112517571D01*
X152674857Y-112517571D02*
X152674857Y-112422333D01*
X152674857Y-112422333D02*
X152651047Y-112374714D01*
X152651047Y-112374714D02*
X152627238Y-112350904D01*
X152627238Y-112350904D02*
X152579619Y-112327095D01*
X150413666Y-104675190D02*
X150389857Y-104699000D01*
X150389857Y-104699000D02*
X150318428Y-104722809D01*
X150318428Y-104722809D02*
X150270809Y-104722809D01*
X150270809Y-104722809D02*
X150199381Y-104699000D01*
X150199381Y-104699000D02*
X150151762Y-104651380D01*
X150151762Y-104651380D02*
X150127952Y-104603761D01*
X150127952Y-104603761D02*
X150104143Y-104508523D01*
X150104143Y-104508523D02*
X150104143Y-104437095D01*
X150104143Y-104437095D02*
X150127952Y-104341857D01*
X150127952Y-104341857D02*
X150151762Y-104294238D01*
X150151762Y-104294238D02*
X150199381Y-104246619D01*
X150199381Y-104246619D02*
X150270809Y-104222809D01*
X150270809Y-104222809D02*
X150318428Y-104222809D01*
X150318428Y-104222809D02*
X150389857Y-104246619D01*
X150389857Y-104246619D02*
X150413666Y-104270428D01*
X150604143Y-104270428D02*
X150627952Y-104246619D01*
X150627952Y-104246619D02*
X150675571Y-104222809D01*
X150675571Y-104222809D02*
X150794619Y-104222809D01*
X150794619Y-104222809D02*
X150842238Y-104246619D01*
X150842238Y-104246619D02*
X150866047Y-104270428D01*
X150866047Y-104270428D02*
X150889857Y-104318047D01*
X150889857Y-104318047D02*
X150889857Y-104365666D01*
X150889857Y-104365666D02*
X150866047Y-104437095D01*
X150866047Y-104437095D02*
X150580333Y-104722809D01*
X150580333Y-104722809D02*
X150889857Y-104722809D01*
D13*
X120402000Y-99498000D02*
X121732000Y-99498000D01*
X120402000Y-100828000D02*
X120402000Y-99498000D01*
X120402000Y-102098000D02*
X120402000Y-104698000D01*
X120402000Y-102098000D02*
X123062000Y-102098000D01*
X120402000Y-104698000D02*
X123062000Y-104698000D01*
X123062000Y-102098000D02*
X123062000Y-104698000D01*
X159199742Y-108745500D02*
X159674258Y-108745500D01*
X159199742Y-109790500D02*
X159674258Y-109790500D01*
X154569742Y-102545500D02*
X155044258Y-102545500D01*
X154569742Y-103590500D02*
X155044258Y-103590500D01*
X142632000Y-98193000D02*
X144632000Y-98193000D01*
X142632000Y-100993000D02*
X142632000Y-98193000D01*
X144632000Y-98193000D02*
X144632000Y-100993000D01*
X144632000Y-100993000D02*
X142632000Y-100993000D01*
X148952000Y-101753000D02*
X152862000Y-101753000D01*
X152862000Y-99883000D02*
X148952000Y-99883000D01*
X152862000Y-101753000D02*
X152862000Y-99883000D01*
X145132000Y-98193000D02*
X147132000Y-98193000D01*
X145132000Y-100993000D02*
X145132000Y-98193000D01*
X147132000Y-98193000D02*
X147132000Y-100993000D01*
X147132000Y-100993000D02*
X145132000Y-100993000D01*
X161632000Y-115228000D02*
X161632000Y-109418000D01*
X161632000Y-115228000D02*
X165932000Y-115228000D01*
X165932000Y-115228000D02*
X165932000Y-109418000D01*
X147297000Y-115333000D02*
X147297000Y-116803000D01*
X147297000Y-116803000D02*
X149582000Y-116803000D01*
X149582000Y-115333000D02*
X147297000Y-115333000D01*
X142277000Y-104398000D02*
X142277000Y-103068000D01*
X143607000Y-104398000D02*
X142277000Y-104398000D01*
X144877000Y-101738000D02*
X147477000Y-101738000D01*
X144877000Y-104398000D02*
X144877000Y-101738000D01*
X144877000Y-104398000D02*
X147477000Y-104398000D01*
X147477000Y-104398000D02*
X147477000Y-101738000D01*
X147334500Y-113083000D02*
X147334500Y-114553000D01*
X147334500Y-114553000D02*
X149619500Y-114553000D01*
X149619500Y-113083000D02*
X147334500Y-113083000D01*
X159199742Y-111795500D02*
X159674258Y-111795500D01*
X159199742Y-112840500D02*
X159674258Y-112840500D01*
X155719742Y-115545500D02*
X156194258Y-115545500D01*
X155719742Y-116590500D02*
X156194258Y-116590500D01*
X152044742Y-115545500D02*
X152519258Y-115545500D01*
X152044742Y-116590500D02*
X152519258Y-116590500D01*
X167072000Y-100853436D02*
X167072000Y-105207564D01*
X170492000Y-100853436D02*
X170492000Y-105207564D01*
X167072000Y-113707564D02*
X167072000Y-109353436D01*
X170492000Y-113707564D02*
X170492000Y-109353436D01*
X159199742Y-106045500D02*
X159674258Y-106045500D01*
X159199742Y-107090500D02*
X159674258Y-107090500D01*
X146509500Y-106960258D02*
X146509500Y-106485742D01*
X147554500Y-106960258D02*
X147554500Y-106485742D01*
X161632000Y-99258000D02*
X161632000Y-105068000D01*
X165932000Y-99258000D02*
X161632000Y-99258000D01*
X165932000Y-99258000D02*
X165932000Y-105068000D01*
X155694500Y-101803000D02*
X157979500Y-101803000D01*
X157979500Y-100333000D02*
X155694500Y-100333000D01*
X157979500Y-101803000D02*
X157979500Y-100333000D01*
X155619742Y-113295500D02*
X156094258Y-113295500D01*
X155619742Y-114340500D02*
X156094258Y-114340500D01*
D14*
X150782000Y-106048000D02*
X154782000Y-106048000D01*
X150782000Y-111088000D02*
X154782000Y-111088000D01*
D15*
X148437000Y-106073000D02*
G75*
G02*
X148237000Y-106073000I-100000J0D01*
G01*
X148237000Y-106073000D02*
G75*
G02*
X148437000Y-106073000I100000J0D01*
G01*
D16*
X173605000Y-98435800D02*
X173605000Y-105700200D01*
X173605000Y-105700200D02*
X180361400Y-105700200D01*
X180361400Y-98435800D02*
X173605000Y-98435800D01*
X180361400Y-105700200D02*
X180361400Y-98435800D01*
D17*
X177913000Y-107478200D02*
G75*
G02*
X177151000Y-107478200I-381000J0D01*
G01*
X177151000Y-107478200D02*
G75*
G02*
X177913000Y-107478200I381000J0D01*
G01*
D13*
X159199742Y-103045500D02*
X159674258Y-103045500D01*
X159199742Y-104090500D02*
X159674258Y-104090500D01*
X146509500Y-110710258D02*
X146509500Y-110235742D01*
X147554500Y-110710258D02*
X147554500Y-110235742D01*
X152044742Y-113295500D02*
X152519258Y-113295500D01*
X152044742Y-114340500D02*
X152519258Y-114340500D01*
X150637580Y-102558000D02*
X150356420Y-102558000D01*
X150637580Y-103578000D02*
X150356420Y-103578000D01*
M02*
