G04 #@! TF.GenerationSoftware,KiCad,Pcbnew,8.0.8*
G04 #@! TF.CreationDate,2025-01-31T19:00:45-08:00*
G04 #@! TF.ProjectId,pi-zero-serial-hat,70692d7a-6572-46f2-9d73-657269616c2d,2.0*
G04 #@! TF.SameCoordinates,Original*
G04 #@! TF.FileFunction,Legend,Top*
G04 #@! TF.FilePolarity,Positive*
%FSLAX46Y46*%
G04 Gerber Fmt 4.6, Leading zero omitted, Abs format (unit mm)*
G04 Created by KiCad (PCBNEW 8.0.8) date 2025-01-31 19:00:45*
%MOMM*%
%LPD*%
G01*
G04 APERTURE LIST*
%ADD10C,0.150000*%
%ADD11C,0.120000*%
G04 APERTURE END LIST*
D10*
G36*
X181956850Y-112904633D02*
G01*
X180486215Y-112904633D01*
X180486215Y-112550268D01*
X180575104Y-112550268D01*
X180575104Y-112740744D01*
X180576545Y-112755376D01*
X180587744Y-112782412D01*
X180608436Y-112803104D01*
X180635472Y-112814303D01*
X180650104Y-112815744D01*
X181792961Y-112815744D01*
X181807593Y-112814303D01*
X181834629Y-112803104D01*
X181855321Y-112782412D01*
X181866520Y-112755376D01*
X181867961Y-112740744D01*
X181867961Y-112550268D01*
X181866520Y-112535636D01*
X181855321Y-112508600D01*
X181834629Y-112487908D01*
X181807593Y-112476709D01*
X181778329Y-112476709D01*
X181751293Y-112487908D01*
X181730601Y-112508600D01*
X181719402Y-112535636D01*
X181717961Y-112550268D01*
X181717961Y-112665744D01*
X180725104Y-112665744D01*
X180725104Y-112550268D01*
X180723663Y-112535636D01*
X180712464Y-112508600D01*
X180691772Y-112487908D01*
X180664736Y-112476709D01*
X180635472Y-112476709D01*
X180608436Y-112487908D01*
X180587744Y-112508600D01*
X180576545Y-112535636D01*
X180575104Y-112550268D01*
X180486215Y-112550268D01*
X180486215Y-111817079D01*
X180651884Y-111817079D01*
X180653959Y-111846269D01*
X180667045Y-111872442D01*
X180689153Y-111891616D01*
X180702578Y-111897610D01*
X181289124Y-112093125D01*
X180702578Y-112288641D01*
X180689152Y-112294635D01*
X180667045Y-112313809D01*
X180653959Y-112339982D01*
X180651884Y-112369172D01*
X180661138Y-112396935D01*
X180680312Y-112419042D01*
X180706485Y-112432128D01*
X180735675Y-112434203D01*
X180750012Y-112430943D01*
X181550012Y-112164276D01*
X181563437Y-112158282D01*
X181567482Y-112154773D01*
X181572279Y-112152375D01*
X181578443Y-112145266D01*
X181585545Y-112139108D01*
X181587940Y-112134316D01*
X181591452Y-112130268D01*
X181594426Y-112121344D01*
X181598631Y-112112935D01*
X181599010Y-112107590D01*
X181600706Y-112102505D01*
X181600039Y-112093122D01*
X181600706Y-112083745D01*
X181599011Y-112078662D01*
X181598632Y-112073315D01*
X181594425Y-112064901D01*
X181591452Y-112055982D01*
X181587941Y-112051934D01*
X181585545Y-112047142D01*
X181578440Y-112040979D01*
X181572278Y-112033875D01*
X181567486Y-112031479D01*
X181563438Y-112027968D01*
X181550012Y-112021974D01*
X180750012Y-111755308D01*
X180735675Y-111752048D01*
X180706485Y-111754123D01*
X180680312Y-111767209D01*
X180661138Y-111789317D01*
X180651884Y-111817079D01*
X180486215Y-111817079D01*
X180486215Y-111545160D01*
X180652736Y-111545160D01*
X180652736Y-111574424D01*
X180663935Y-111601460D01*
X180684627Y-111622152D01*
X180711663Y-111633351D01*
X180726295Y-111634792D01*
X181526295Y-111634792D01*
X181540927Y-111633351D01*
X181567963Y-111622152D01*
X181588655Y-111601460D01*
X181599854Y-111574424D01*
X181599854Y-111545160D01*
X181588655Y-111518124D01*
X181567963Y-111497432D01*
X181540927Y-111486233D01*
X181526295Y-111484792D01*
X180726295Y-111484792D01*
X180711663Y-111486233D01*
X180684627Y-111497432D01*
X180663935Y-111518124D01*
X180652736Y-111545160D01*
X180486215Y-111545160D01*
X180486215Y-111173601D01*
X180651478Y-111173601D01*
X180652736Y-111183497D01*
X180652736Y-111193472D01*
X180654565Y-111197887D01*
X180655168Y-111202631D01*
X180660118Y-111211295D01*
X180663935Y-111220508D01*
X180667313Y-111223886D01*
X180669687Y-111228040D01*
X180677576Y-111234149D01*
X180684627Y-111241200D01*
X180689043Y-111243029D01*
X180692824Y-111245957D01*
X180702447Y-111248581D01*
X180711663Y-111252399D01*
X180719145Y-111253135D01*
X180721056Y-111253657D01*
X180722531Y-111253469D01*
X180726295Y-111253840D01*
X181526295Y-111253840D01*
X181540927Y-111252399D01*
X181567963Y-111241200D01*
X181588655Y-111220508D01*
X181599854Y-111193472D01*
X181599854Y-111164208D01*
X181588655Y-111137172D01*
X181567963Y-111116480D01*
X181540927Y-111105281D01*
X181526295Y-111103840D01*
X181008711Y-111103840D01*
X181563505Y-110786815D01*
X181566588Y-110784626D01*
X181567963Y-110784057D01*
X181569362Y-110782657D01*
X181575495Y-110778305D01*
X181581603Y-110770416D01*
X181588655Y-110763365D01*
X181590485Y-110758946D01*
X181593412Y-110755167D01*
X181596036Y-110745545D01*
X181599854Y-110736329D01*
X181599854Y-110731548D01*
X181601112Y-110726936D01*
X181599854Y-110717039D01*
X181599854Y-110707065D01*
X181598024Y-110702649D01*
X181597422Y-110697906D01*
X181592471Y-110689241D01*
X181588655Y-110680029D01*
X181585276Y-110676650D01*
X181582903Y-110672497D01*
X181575013Y-110666387D01*
X181567963Y-110659337D01*
X181563546Y-110657507D01*
X181559766Y-110654580D01*
X181550142Y-110651955D01*
X181540927Y-110648138D01*
X181533444Y-110647401D01*
X181531534Y-110646880D01*
X181530058Y-110647067D01*
X181526295Y-110646697D01*
X180726295Y-110646697D01*
X180711663Y-110648138D01*
X180684627Y-110659337D01*
X180663935Y-110680029D01*
X180652736Y-110707065D01*
X180652736Y-110736329D01*
X180663935Y-110763365D01*
X180684627Y-110784057D01*
X180711663Y-110795256D01*
X180726295Y-110796697D01*
X181243879Y-110796697D01*
X180689085Y-111113722D01*
X180686001Y-111115910D01*
X180684627Y-111116480D01*
X180683227Y-111117879D01*
X180677095Y-111122232D01*
X180670985Y-111130121D01*
X180663935Y-111137172D01*
X180662105Y-111141588D01*
X180659178Y-111145369D01*
X180656553Y-111154992D01*
X180652736Y-111164208D01*
X180652736Y-111168988D01*
X180651478Y-111173601D01*
X180486215Y-111173601D01*
X180486215Y-110226460D01*
X180575104Y-110226460D01*
X180575104Y-110416936D01*
X180576545Y-110431568D01*
X180587744Y-110458604D01*
X180608436Y-110479296D01*
X180635472Y-110490495D01*
X180664736Y-110490495D01*
X180691772Y-110479296D01*
X180712464Y-110458604D01*
X180723663Y-110431568D01*
X180725104Y-110416936D01*
X180725104Y-110301460D01*
X181717961Y-110301460D01*
X181717961Y-110416936D01*
X181719402Y-110431568D01*
X181730601Y-110458604D01*
X181751293Y-110479296D01*
X181778329Y-110490495D01*
X181807593Y-110490495D01*
X181834629Y-110479296D01*
X181855321Y-110458604D01*
X181866520Y-110431568D01*
X181867961Y-110416936D01*
X181867961Y-110226460D01*
X181866520Y-110211828D01*
X181855321Y-110184792D01*
X181834629Y-110164100D01*
X181807593Y-110152901D01*
X181792961Y-110151460D01*
X180650104Y-110151460D01*
X180635472Y-110152901D01*
X180608436Y-110164100D01*
X180587744Y-110184792D01*
X180576545Y-110211828D01*
X180575104Y-110226460D01*
X180486215Y-110226460D01*
X180486215Y-110062571D01*
X181956850Y-110062571D01*
X181956850Y-112904633D01*
G37*
G36*
X160263763Y-109197077D02*
G01*
X160294170Y-109227484D01*
X160328428Y-109296000D01*
X160328428Y-109403447D01*
X160294170Y-109471963D01*
X160263763Y-109502370D01*
X160195247Y-109536628D01*
X159907000Y-109536628D01*
X159907000Y-109162819D01*
X160195247Y-109162819D01*
X160263763Y-109197077D01*
G37*
G36*
X162303825Y-110607263D02*
G01*
X157360174Y-110607263D01*
X157360174Y-108992580D01*
X157471285Y-108992580D01*
X157471285Y-110421152D01*
X157472726Y-110435784D01*
X157483925Y-110462820D01*
X157504617Y-110483512D01*
X157531653Y-110494711D01*
X157546285Y-110496152D01*
X157784380Y-110496152D01*
X157799012Y-110494711D01*
X157826048Y-110483512D01*
X157846740Y-110462820D01*
X157857939Y-110435784D01*
X157857939Y-110406520D01*
X157846740Y-110379484D01*
X157826048Y-110358792D01*
X157799012Y-110347593D01*
X157784380Y-110346152D01*
X157621285Y-110346152D01*
X157621285Y-109073187D01*
X157948917Y-109073187D01*
X157948917Y-109102451D01*
X157960116Y-109129487D01*
X157980808Y-109150179D01*
X158007844Y-109161378D01*
X158022476Y-109162819D01*
X158233190Y-109162819D01*
X158233190Y-110087819D01*
X158234631Y-110102451D01*
X158245830Y-110129487D01*
X158266522Y-110150179D01*
X158293558Y-110161378D01*
X158322822Y-110161378D01*
X158349858Y-110150179D01*
X158370550Y-110129487D01*
X158381749Y-110102451D01*
X158383190Y-110087819D01*
X158383190Y-109162819D01*
X158593904Y-109162819D01*
X158608536Y-109161378D01*
X158635572Y-109150179D01*
X158656264Y-109129487D01*
X158667463Y-109102451D01*
X158667463Y-109087819D01*
X158852238Y-109087819D01*
X158852238Y-110087819D01*
X158853679Y-110102451D01*
X158864878Y-110129487D01*
X158885570Y-110150179D01*
X158912606Y-110161378D01*
X158927238Y-110162819D01*
X159403428Y-110162819D01*
X159418060Y-110161378D01*
X159445096Y-110150179D01*
X159465788Y-110129487D01*
X159476987Y-110102451D01*
X159476987Y-110073187D01*
X159465788Y-110046151D01*
X159445096Y-110025459D01*
X159418060Y-110014260D01*
X159403428Y-110012819D01*
X159002238Y-110012819D01*
X159002238Y-109639009D01*
X159260571Y-109639009D01*
X159275203Y-109637568D01*
X159302239Y-109626369D01*
X159322931Y-109605677D01*
X159334130Y-109578641D01*
X159334130Y-109549377D01*
X159322931Y-109522341D01*
X159302239Y-109501649D01*
X159275203Y-109490450D01*
X159260571Y-109489009D01*
X159002238Y-109489009D01*
X159002238Y-109162819D01*
X159403428Y-109162819D01*
X159418060Y-109161378D01*
X159445096Y-109150179D01*
X159465788Y-109129487D01*
X159476987Y-109102451D01*
X159476987Y-109087819D01*
X159757000Y-109087819D01*
X159757000Y-110087819D01*
X159758441Y-110102451D01*
X159769640Y-110129487D01*
X159790332Y-110150179D01*
X159817368Y-110161378D01*
X159846632Y-110161378D01*
X159873668Y-110150179D01*
X159894360Y-110129487D01*
X159905559Y-110102451D01*
X159907000Y-110087819D01*
X159907000Y-109686628D01*
X160031046Y-109686628D01*
X160341986Y-110130829D01*
X160351557Y-110141989D01*
X160376236Y-110157716D01*
X160405053Y-110162802D01*
X160433624Y-110156472D01*
X160457598Y-110139690D01*
X160473325Y-110115012D01*
X160478410Y-110086194D01*
X160472081Y-110057623D01*
X160464871Y-110044810D01*
X160214067Y-109686518D01*
X160227584Y-109685187D01*
X160230073Y-109684155D01*
X160232761Y-109683965D01*
X160246493Y-109678710D01*
X160341731Y-109631091D01*
X160348030Y-109627126D01*
X160349858Y-109626369D01*
X160351914Y-109624680D01*
X160354174Y-109623259D01*
X160355473Y-109621760D01*
X160361223Y-109617042D01*
X160408842Y-109569423D01*
X160413560Y-109563673D01*
X160415059Y-109562374D01*
X160416480Y-109560114D01*
X160418169Y-109558058D01*
X160418926Y-109556230D01*
X160422891Y-109549931D01*
X160470510Y-109454693D01*
X160475765Y-109440962D01*
X160475956Y-109438272D01*
X160476987Y-109435784D01*
X160478428Y-109421152D01*
X160478428Y-109278295D01*
X160476987Y-109263663D01*
X160475956Y-109261174D01*
X160475765Y-109258485D01*
X160470510Y-109244754D01*
X160422891Y-109149516D01*
X160418926Y-109143216D01*
X160418169Y-109141389D01*
X160416480Y-109139332D01*
X160415059Y-109137073D01*
X160413560Y-109135773D01*
X160408842Y-109130024D01*
X160366637Y-109087819D01*
X160757000Y-109087819D01*
X160757000Y-110087819D01*
X160758441Y-110102451D01*
X160769640Y-110129487D01*
X160790332Y-110150179D01*
X160817368Y-110161378D01*
X160846632Y-110161378D01*
X160873668Y-110150179D01*
X160894360Y-110129487D01*
X160905559Y-110102451D01*
X160907000Y-110087819D01*
X160907000Y-109425886D01*
X161097369Y-109833821D01*
X161100543Y-109839180D01*
X161101203Y-109840993D01*
X161102377Y-109842275D01*
X161104863Y-109846471D01*
X161113272Y-109854171D01*
X161120967Y-109862574D01*
X161123985Y-109863982D01*
X161126444Y-109866234D01*
X161137156Y-109870129D01*
X161147485Y-109874950D01*
X161150813Y-109875096D01*
X161153945Y-109876235D01*
X161165339Y-109875734D01*
X161176721Y-109876234D01*
X161179849Y-109875096D01*
X161183181Y-109874950D01*
X161193516Y-109870126D01*
X161204222Y-109866234D01*
X161206677Y-109863984D01*
X161209699Y-109862575D01*
X161217400Y-109854164D01*
X161225803Y-109846470D01*
X161228286Y-109842277D01*
X161229463Y-109840993D01*
X161230123Y-109839177D01*
X161233297Y-109833820D01*
X161423666Y-109425886D01*
X161423666Y-110087819D01*
X161425107Y-110102451D01*
X161436306Y-110129487D01*
X161456998Y-110150179D01*
X161484034Y-110161378D01*
X161513298Y-110161378D01*
X161540334Y-110150179D01*
X161561026Y-110129487D01*
X161572225Y-110102451D01*
X161573666Y-110087819D01*
X161573666Y-109087819D01*
X161572718Y-109078197D01*
X161572796Y-109076431D01*
X161572451Y-109075482D01*
X161572225Y-109073187D01*
X161567243Y-109061160D01*
X161562796Y-109048930D01*
X161561666Y-109047696D01*
X161561026Y-109046151D01*
X161551826Y-109036951D01*
X161543032Y-109027348D01*
X161541515Y-109026640D01*
X161540334Y-109025459D01*
X161528321Y-109020482D01*
X161516514Y-109014973D01*
X161514841Y-109014899D01*
X161513298Y-109014260D01*
X161500292Y-109014260D01*
X161487278Y-109013688D01*
X161485705Y-109014260D01*
X161484034Y-109014260D01*
X161472015Y-109019238D01*
X161459777Y-109023689D01*
X161458543Y-109024819D01*
X161456998Y-109025459D01*
X161447799Y-109034657D01*
X161438196Y-109043452D01*
X161437020Y-109045436D01*
X161436306Y-109046151D01*
X161435629Y-109047784D01*
X161430702Y-109056102D01*
X161165332Y-109624750D01*
X160899964Y-109056103D01*
X160895038Y-109047787D01*
X160894360Y-109046151D01*
X160893644Y-109045435D01*
X160892470Y-109043453D01*
X160882873Y-109034664D01*
X160873668Y-109025459D01*
X160872122Y-109024818D01*
X160870889Y-109023689D01*
X160858658Y-109019241D01*
X160846632Y-109014260D01*
X160844958Y-109014260D01*
X160843388Y-109013689D01*
X160830387Y-109014260D01*
X160817368Y-109014260D01*
X160815823Y-109014899D01*
X160814152Y-109014973D01*
X160802353Y-109020479D01*
X160790332Y-109025459D01*
X160789149Y-109026641D01*
X160787634Y-109027349D01*
X160778845Y-109036945D01*
X160769640Y-109046151D01*
X160768999Y-109047696D01*
X160767870Y-109048930D01*
X160763422Y-109061160D01*
X160758441Y-109073187D01*
X160758214Y-109075482D01*
X160757870Y-109076431D01*
X160757947Y-109078197D01*
X160757000Y-109087819D01*
X160366637Y-109087819D01*
X160361223Y-109082405D01*
X160355473Y-109077686D01*
X160354174Y-109076188D01*
X160351914Y-109074766D01*
X160349858Y-109073078D01*
X160348030Y-109072320D01*
X160341731Y-109068356D01*
X160246493Y-109020737D01*
X160232761Y-109015482D01*
X160230073Y-109015291D01*
X160227584Y-109014260D01*
X160212952Y-109012819D01*
X159832000Y-109012819D01*
X159817368Y-109014260D01*
X159790332Y-109025459D01*
X159769640Y-109046151D01*
X159758441Y-109073187D01*
X159757000Y-109087819D01*
X159476987Y-109087819D01*
X159476987Y-109073187D01*
X159465788Y-109046151D01*
X159445096Y-109025459D01*
X159418060Y-109014260D01*
X159403428Y-109012819D01*
X158927238Y-109012819D01*
X158912606Y-109014260D01*
X158885570Y-109025459D01*
X158864878Y-109046151D01*
X158853679Y-109073187D01*
X158852238Y-109087819D01*
X158667463Y-109087819D01*
X158667463Y-109073187D01*
X158656264Y-109046151D01*
X158635572Y-109025459D01*
X158608536Y-109014260D01*
X158593904Y-109012819D01*
X158022476Y-109012819D01*
X158007844Y-109014260D01*
X157980808Y-109025459D01*
X157960116Y-109046151D01*
X157948917Y-109073187D01*
X157621285Y-109073187D01*
X157621285Y-109067580D01*
X157784380Y-109067580D01*
X157799012Y-109066139D01*
X157826048Y-109054940D01*
X157846740Y-109034248D01*
X157857939Y-109007212D01*
X157857939Y-108977948D01*
X161806060Y-108977948D01*
X161806060Y-109007212D01*
X161817259Y-109034248D01*
X161837951Y-109054940D01*
X161864987Y-109066139D01*
X161879619Y-109067580D01*
X162042714Y-109067580D01*
X162042714Y-110346152D01*
X161879619Y-110346152D01*
X161864987Y-110347593D01*
X161837951Y-110358792D01*
X161817259Y-110379484D01*
X161806060Y-110406520D01*
X161806060Y-110435784D01*
X161817259Y-110462820D01*
X161837951Y-110483512D01*
X161864987Y-110494711D01*
X161879619Y-110496152D01*
X162117714Y-110496152D01*
X162132346Y-110494711D01*
X162159382Y-110483512D01*
X162180074Y-110462820D01*
X162191273Y-110435784D01*
X162192714Y-110421152D01*
X162192714Y-108992580D01*
X162191273Y-108977948D01*
X162180074Y-108950912D01*
X162159382Y-108930220D01*
X162132346Y-108919021D01*
X162117714Y-108917580D01*
X161879619Y-108917580D01*
X161864987Y-108919021D01*
X161837951Y-108930220D01*
X161817259Y-108950912D01*
X161806060Y-108977948D01*
X157857939Y-108977948D01*
X157846740Y-108950912D01*
X157826048Y-108930220D01*
X157799012Y-108919021D01*
X157784380Y-108917580D01*
X157546285Y-108917580D01*
X157531653Y-108919021D01*
X157504617Y-108930220D01*
X157483925Y-108950912D01*
X157472726Y-108977948D01*
X157471285Y-108992580D01*
X157360174Y-108992580D01*
X157360174Y-108806469D01*
X162303825Y-108806469D01*
X162303825Y-110607263D01*
G37*
G36*
X181309642Y-106809128D02*
G01*
X181367582Y-106838098D01*
X181422648Y-106893163D01*
X181451295Y-106979104D01*
X181451295Y-107082411D01*
X180801295Y-107082411D01*
X180801295Y-106979104D01*
X180829942Y-106893162D01*
X180885006Y-106838098D01*
X180942945Y-106809128D01*
X181078387Y-106775268D01*
X181174203Y-106775268D01*
X181309642Y-106809128D01*
G37*
G36*
X181956850Y-109454633D02*
G01*
X180486215Y-109454633D01*
X180486215Y-109100268D01*
X180575104Y-109100268D01*
X180575104Y-109290744D01*
X180576545Y-109305376D01*
X180587744Y-109332412D01*
X180608436Y-109353104D01*
X180635472Y-109364303D01*
X180650104Y-109365744D01*
X181792961Y-109365744D01*
X181807593Y-109364303D01*
X181834629Y-109353104D01*
X181855321Y-109332412D01*
X181866520Y-109305376D01*
X181867961Y-109290744D01*
X181867961Y-109100268D01*
X181866520Y-109085636D01*
X181855321Y-109058600D01*
X181834629Y-109037908D01*
X181807593Y-109026709D01*
X181778329Y-109026709D01*
X181751293Y-109037908D01*
X181730601Y-109058600D01*
X181719402Y-109085636D01*
X181717961Y-109100268D01*
X181717961Y-109215744D01*
X180725104Y-109215744D01*
X180725104Y-109100268D01*
X180723663Y-109085636D01*
X180712464Y-109058600D01*
X180691772Y-109037908D01*
X180664736Y-109026709D01*
X180635472Y-109026709D01*
X180608436Y-109037908D01*
X180587744Y-109058600D01*
X180576545Y-109085636D01*
X180575104Y-109100268D01*
X180486215Y-109100268D01*
X180486215Y-108452649D01*
X180651295Y-108452649D01*
X180651295Y-108566935D01*
X180652024Y-108574340D01*
X180651884Y-108576315D01*
X180652474Y-108578912D01*
X180652736Y-108581567D01*
X180653494Y-108583398D01*
X180655144Y-108590652D01*
X180693239Y-108704938D01*
X180699233Y-108718363D01*
X180700998Y-108720398D01*
X180702030Y-108722889D01*
X180711357Y-108734254D01*
X180787547Y-108810444D01*
X180793297Y-108815164D01*
X180794596Y-108816661D01*
X180796850Y-108818080D01*
X180798912Y-108819772D01*
X180800744Y-108820530D01*
X180807039Y-108824493D01*
X180883230Y-108862588D01*
X180884299Y-108862997D01*
X180884735Y-108863320D01*
X180890886Y-108865518D01*
X180896962Y-108867843D01*
X180897500Y-108867881D01*
X180898580Y-108868267D01*
X181050962Y-108906363D01*
X181053498Y-108906738D01*
X181054520Y-108907161D01*
X181060032Y-108907703D01*
X181065506Y-108908513D01*
X181066598Y-108908350D01*
X181069152Y-108908602D01*
X181183438Y-108908602D01*
X181185991Y-108908350D01*
X181187084Y-108908513D01*
X181192558Y-108907703D01*
X181198070Y-108907161D01*
X181199090Y-108906738D01*
X181201629Y-108906363D01*
X181354010Y-108868267D01*
X181355089Y-108867881D01*
X181355628Y-108867843D01*
X181361703Y-108865518D01*
X181367855Y-108863320D01*
X181368290Y-108862997D01*
X181369360Y-108862588D01*
X181445550Y-108824493D01*
X181451846Y-108820529D01*
X181453676Y-108819772D01*
X181455734Y-108818082D01*
X181457993Y-108816661D01*
X181459292Y-108815162D01*
X181465042Y-108810444D01*
X181541233Y-108734254D01*
X181550560Y-108722889D01*
X181551591Y-108720398D01*
X181553357Y-108718363D01*
X181559351Y-108704938D01*
X181597446Y-108590652D01*
X181599095Y-108583398D01*
X181599854Y-108581567D01*
X181600115Y-108578912D01*
X181600706Y-108576315D01*
X181600565Y-108574340D01*
X181601295Y-108566935D01*
X181601295Y-108490744D01*
X181600565Y-108483338D01*
X181600706Y-108481364D01*
X181600115Y-108478766D01*
X181599854Y-108476112D01*
X181599095Y-108474280D01*
X181597446Y-108467027D01*
X181559351Y-108352742D01*
X181553357Y-108339316D01*
X181551592Y-108337281D01*
X181550561Y-108334791D01*
X181541233Y-108323426D01*
X181503137Y-108285330D01*
X181491772Y-108276003D01*
X181464736Y-108264804D01*
X181450104Y-108263363D01*
X181183438Y-108263363D01*
X181168806Y-108264804D01*
X181141770Y-108276003D01*
X181121078Y-108296695D01*
X181109879Y-108323731D01*
X181108438Y-108338363D01*
X181108438Y-108490744D01*
X181109879Y-108505376D01*
X181121078Y-108532412D01*
X181141770Y-108553104D01*
X181168806Y-108564303D01*
X181198070Y-108564303D01*
X181225106Y-108553104D01*
X181245798Y-108532412D01*
X181256997Y-108505376D01*
X181258438Y-108490744D01*
X181258438Y-108413363D01*
X181419038Y-108413363D01*
X181422648Y-108416973D01*
X181451295Y-108502914D01*
X181451295Y-108554765D01*
X181422648Y-108640706D01*
X181367582Y-108695771D01*
X181309642Y-108724741D01*
X181174203Y-108758602D01*
X181078387Y-108758602D01*
X180942945Y-108724741D01*
X180885006Y-108695771D01*
X180829942Y-108640707D01*
X180801295Y-108554765D01*
X180801295Y-108470354D01*
X180831472Y-108410000D01*
X180836727Y-108396268D01*
X180838801Y-108367078D01*
X180829547Y-108339317D01*
X180810374Y-108317209D01*
X180784199Y-108304122D01*
X180755009Y-108302048D01*
X180727248Y-108311302D01*
X180705140Y-108330475D01*
X180697308Y-108342918D01*
X180659213Y-108419108D01*
X180653958Y-108432840D01*
X180653767Y-108435527D01*
X180652736Y-108438017D01*
X180651295Y-108452649D01*
X180486215Y-108452649D01*
X180486215Y-107990267D01*
X180651478Y-107990267D01*
X180652736Y-108000163D01*
X180652736Y-108010138D01*
X180654565Y-108014553D01*
X180655168Y-108019297D01*
X180660118Y-108027961D01*
X180663935Y-108037174D01*
X180667313Y-108040552D01*
X180669687Y-108044706D01*
X180677576Y-108050815D01*
X180684627Y-108057866D01*
X180689043Y-108059695D01*
X180692824Y-108062623D01*
X180702447Y-108065247D01*
X180711663Y-108069065D01*
X180719145Y-108069801D01*
X180721056Y-108070323D01*
X180722531Y-108070135D01*
X180726295Y-108070506D01*
X181526295Y-108070506D01*
X181540927Y-108069065D01*
X181567963Y-108057866D01*
X181588655Y-108037174D01*
X181599854Y-108010138D01*
X181599854Y-107980874D01*
X181588655Y-107953838D01*
X181567963Y-107933146D01*
X181540927Y-107921947D01*
X181526295Y-107920506D01*
X181008711Y-107920506D01*
X181563505Y-107603481D01*
X181566588Y-107601292D01*
X181567963Y-107600723D01*
X181569362Y-107599323D01*
X181575495Y-107594971D01*
X181581603Y-107587082D01*
X181588655Y-107580031D01*
X181590485Y-107575612D01*
X181593412Y-107571833D01*
X181596036Y-107562211D01*
X181599854Y-107552995D01*
X181599854Y-107548214D01*
X181601112Y-107543602D01*
X181599854Y-107533705D01*
X181599854Y-107523731D01*
X181598024Y-107519315D01*
X181597422Y-107514572D01*
X181592471Y-107505907D01*
X181588655Y-107496695D01*
X181585276Y-107493316D01*
X181582903Y-107489163D01*
X181575013Y-107483053D01*
X181567963Y-107476003D01*
X181563546Y-107474173D01*
X181559766Y-107471246D01*
X181550142Y-107468621D01*
X181540927Y-107464804D01*
X181533444Y-107464067D01*
X181531534Y-107463546D01*
X181530058Y-107463733D01*
X181526295Y-107463363D01*
X180726295Y-107463363D01*
X180711663Y-107464804D01*
X180684627Y-107476003D01*
X180663935Y-107496695D01*
X180652736Y-107523731D01*
X180652736Y-107552995D01*
X180663935Y-107580031D01*
X180684627Y-107600723D01*
X180711663Y-107611922D01*
X180726295Y-107613363D01*
X181243879Y-107613363D01*
X180689085Y-107930388D01*
X180686001Y-107932576D01*
X180684627Y-107933146D01*
X180683227Y-107934545D01*
X180677095Y-107938898D01*
X180670985Y-107946787D01*
X180663935Y-107953838D01*
X180662105Y-107958254D01*
X180659178Y-107962035D01*
X180656553Y-107971658D01*
X180652736Y-107980874D01*
X180652736Y-107985654D01*
X180651478Y-107990267D01*
X180486215Y-107990267D01*
X180486215Y-106966935D01*
X180651295Y-106966935D01*
X180651295Y-107157411D01*
X180652736Y-107172043D01*
X180663935Y-107199079D01*
X180684627Y-107219771D01*
X180711663Y-107230970D01*
X180726295Y-107232411D01*
X181526295Y-107232411D01*
X181540927Y-107230970D01*
X181567963Y-107219771D01*
X181588655Y-107199079D01*
X181599854Y-107172043D01*
X181601295Y-107157411D01*
X181601295Y-106966935D01*
X181600565Y-106959529D01*
X181600706Y-106957555D01*
X181600115Y-106954957D01*
X181599854Y-106952303D01*
X181599095Y-106950471D01*
X181597446Y-106943218D01*
X181559351Y-106828932D01*
X181553357Y-106815507D01*
X181551591Y-106813471D01*
X181550560Y-106810981D01*
X181541233Y-106799616D01*
X181465042Y-106723426D01*
X181459292Y-106718707D01*
X181457993Y-106717209D01*
X181455734Y-106715787D01*
X181453676Y-106714098D01*
X181451846Y-106713340D01*
X181445550Y-106709377D01*
X181369360Y-106671282D01*
X181368290Y-106670872D01*
X181367855Y-106670550D01*
X181361703Y-106668351D01*
X181355628Y-106666027D01*
X181355089Y-106665988D01*
X181354010Y-106665603D01*
X181201629Y-106627507D01*
X181199090Y-106627131D01*
X181198070Y-106626709D01*
X181192558Y-106626166D01*
X181187084Y-106625357D01*
X181185991Y-106625519D01*
X181183438Y-106625268D01*
X181069152Y-106625268D01*
X181066598Y-106625519D01*
X181065506Y-106625357D01*
X181060032Y-106626166D01*
X181054520Y-106626709D01*
X181053498Y-106627131D01*
X181050962Y-106627507D01*
X180898580Y-106665603D01*
X180897500Y-106665988D01*
X180896962Y-106666027D01*
X180890886Y-106668351D01*
X180884735Y-106670550D01*
X180884299Y-106670872D01*
X180883230Y-106671282D01*
X180807039Y-106709377D01*
X180800744Y-106713339D01*
X180798912Y-106714098D01*
X180796850Y-106715789D01*
X180794596Y-106717209D01*
X180793297Y-106718705D01*
X180787547Y-106723426D01*
X180711357Y-106799616D01*
X180702030Y-106810981D01*
X180700998Y-106813471D01*
X180699233Y-106815507D01*
X180693239Y-106828932D01*
X180655144Y-106943218D01*
X180653494Y-106950471D01*
X180652736Y-106952303D01*
X180652474Y-106954957D01*
X180651884Y-106957555D01*
X180652024Y-106959529D01*
X180651295Y-106966935D01*
X180486215Y-106966935D01*
X180486215Y-106243126D01*
X180575104Y-106243126D01*
X180575104Y-106433602D01*
X180576545Y-106448234D01*
X180587744Y-106475270D01*
X180608436Y-106495962D01*
X180635472Y-106507161D01*
X180664736Y-106507161D01*
X180691772Y-106495962D01*
X180712464Y-106475270D01*
X180723663Y-106448234D01*
X180725104Y-106433602D01*
X180725104Y-106318126D01*
X181717961Y-106318126D01*
X181717961Y-106433602D01*
X181719402Y-106448234D01*
X181730601Y-106475270D01*
X181751293Y-106495962D01*
X181778329Y-106507161D01*
X181807593Y-106507161D01*
X181834629Y-106495962D01*
X181855321Y-106475270D01*
X181866520Y-106448234D01*
X181867961Y-106433602D01*
X181867961Y-106243126D01*
X181866520Y-106228494D01*
X181855321Y-106201458D01*
X181834629Y-106180766D01*
X181807593Y-106169567D01*
X181792961Y-106168126D01*
X180650104Y-106168126D01*
X180635472Y-106169567D01*
X180608436Y-106180766D01*
X180587744Y-106201458D01*
X180576545Y-106228494D01*
X180575104Y-106243126D01*
X180486215Y-106243126D01*
X180486215Y-106079237D01*
X181956850Y-106079237D01*
X181956850Y-109454633D01*
G37*
D11*
G36*
X146570167Y-97701262D02*
G01*
X146627720Y-97758814D01*
X146659994Y-97887905D01*
X146659994Y-98139803D01*
X146627720Y-98268894D01*
X146570168Y-98326447D01*
X146515353Y-98353855D01*
X146391302Y-98353855D01*
X146336487Y-98326447D01*
X146278934Y-98268894D01*
X146246660Y-98139803D01*
X146246660Y-97887905D01*
X146278934Y-97758813D01*
X146336484Y-97701263D01*
X146391302Y-97673855D01*
X146515353Y-97673855D01*
X146570167Y-97701262D01*
G37*
G36*
X149046359Y-97701262D02*
G01*
X149070683Y-97725587D01*
X149098090Y-97780400D01*
X149098090Y-97866356D01*
X149070683Y-97921169D01*
X149046359Y-97945494D01*
X148991544Y-97972902D01*
X148760947Y-97972902D01*
X148760947Y-97673855D01*
X148991544Y-97673855D01*
X149046359Y-97701262D01*
G37*
G36*
X145770168Y-97701262D02*
G01*
X145794492Y-97725587D01*
X145821899Y-97780400D01*
X145821899Y-97866356D01*
X145794492Y-97921169D01*
X145770168Y-97945494D01*
X145715353Y-97972902D01*
X145484756Y-97972902D01*
X145484756Y-97673855D01*
X145715353Y-97673855D01*
X145770168Y-97701262D01*
G37*
G36*
X149764121Y-98829410D02*
G01*
X144780629Y-98829410D01*
X144780629Y-97537664D01*
X144869518Y-97537664D01*
X144869518Y-98680521D01*
X144874085Y-98703482D01*
X144906557Y-98735954D01*
X144929518Y-98740521D01*
X145119994Y-98740521D01*
X145142955Y-98735954D01*
X145175427Y-98703482D01*
X145175427Y-98657560D01*
X145142955Y-98625088D01*
X145119994Y-98620521D01*
X144989518Y-98620521D01*
X144989518Y-97613855D01*
X145364756Y-97613855D01*
X145364756Y-98413855D01*
X145369323Y-98436816D01*
X145401795Y-98469288D01*
X145447717Y-98469288D01*
X145480189Y-98436816D01*
X145484756Y-98413855D01*
X145484756Y-98092902D01*
X145729518Y-98092902D01*
X145732465Y-98092315D01*
X145733771Y-98092751D01*
X145743046Y-98090211D01*
X145752479Y-98088335D01*
X145753452Y-98087361D01*
X145756351Y-98086568D01*
X145832541Y-98048473D01*
X145840142Y-98042572D01*
X145848134Y-98037233D01*
X145886229Y-97999139D01*
X145891575Y-97991138D01*
X145897468Y-97983545D01*
X145935564Y-97907354D01*
X145936357Y-97904456D01*
X145937332Y-97903482D01*
X145939208Y-97894045D01*
X145941748Y-97884775D01*
X145941312Y-97883468D01*
X145941899Y-97880521D01*
X146126660Y-97880521D01*
X146126660Y-98147188D01*
X146128094Y-98154399D01*
X146128452Y-98161740D01*
X146166548Y-98314121D01*
X146169323Y-98319995D01*
X146169323Y-98322530D01*
X146173407Y-98328643D01*
X146176547Y-98335289D01*
X146178718Y-98336592D01*
X146182329Y-98341995D01*
X146258520Y-98418186D01*
X146266507Y-98423523D01*
X146274113Y-98429426D01*
X146350305Y-98467521D01*
X146353202Y-98468314D01*
X146354176Y-98469288D01*
X146363610Y-98471164D01*
X146372884Y-98473704D01*
X146374189Y-98473268D01*
X146377137Y-98473855D01*
X146529518Y-98473855D01*
X146532465Y-98473268D01*
X146533771Y-98473704D01*
X146543046Y-98471164D01*
X146552479Y-98469288D01*
X146553452Y-98468314D01*
X146556351Y-98467521D01*
X146632541Y-98429426D01*
X146640142Y-98423525D01*
X146648134Y-98418186D01*
X146724325Y-98341996D01*
X146727935Y-98336592D01*
X146730108Y-98335289D01*
X146733248Y-98328641D01*
X146737332Y-98322530D01*
X146737332Y-98319997D01*
X146740108Y-98314121D01*
X146778203Y-98161740D01*
X146778560Y-98154395D01*
X146779994Y-98147188D01*
X146779994Y-97880521D01*
X146778560Y-97873313D01*
X146778203Y-97865969D01*
X146740108Y-97713588D01*
X146737332Y-97707711D01*
X146737332Y-97705179D01*
X146733248Y-97699068D01*
X146730108Y-97692420D01*
X146727934Y-97691116D01*
X146724325Y-97685714D01*
X146648134Y-97609523D01*
X146640405Y-97604358D01*
X146927416Y-97604358D01*
X146928292Y-97627752D01*
X147118768Y-98427752D01*
X147128529Y-98449031D01*
X147136170Y-98453733D01*
X147140667Y-98461500D01*
X147155002Y-98465322D01*
X147167639Y-98473099D01*
X147176369Y-98471020D01*
X147185039Y-98473332D01*
X147197878Y-98465898D01*
X147212312Y-98462462D01*
X147217014Y-98454820D01*
X147224781Y-98450324D01*
X147235110Y-98429315D01*
X147329516Y-98075288D01*
X147423924Y-98429315D01*
X147434253Y-98450324D01*
X147442019Y-98454820D01*
X147446722Y-98462462D01*
X147461153Y-98465898D01*
X147473995Y-98473333D01*
X147482666Y-98471020D01*
X147491395Y-98473099D01*
X147504028Y-98465324D01*
X147518367Y-98461501D01*
X147522864Y-98453733D01*
X147530505Y-98449031D01*
X147540266Y-98427752D01*
X147730743Y-97627753D01*
X147731263Y-97613855D01*
X147917137Y-97613855D01*
X147917137Y-98413855D01*
X147921704Y-98436816D01*
X147954176Y-98469288D01*
X147977137Y-98473855D01*
X148358089Y-98473855D01*
X148381050Y-98469288D01*
X148413522Y-98436816D01*
X148413522Y-98390894D01*
X148381050Y-98358422D01*
X148358089Y-98353855D01*
X148037137Y-98353855D01*
X148037137Y-98054807D01*
X148243803Y-98054807D01*
X148266764Y-98050240D01*
X148299236Y-98017768D01*
X148299236Y-97971846D01*
X148266764Y-97939374D01*
X148243803Y-97934807D01*
X148037137Y-97934807D01*
X148037137Y-97673855D01*
X148358089Y-97673855D01*
X148381050Y-97669288D01*
X148413522Y-97636816D01*
X148413522Y-97613855D01*
X148640947Y-97613855D01*
X148640947Y-98413855D01*
X148645514Y-98436816D01*
X148677986Y-98469288D01*
X148723908Y-98469288D01*
X148756380Y-98436816D01*
X148760947Y-98413855D01*
X148760947Y-98092902D01*
X148860183Y-98092902D01*
X149108936Y-98448262D01*
X149125845Y-98464454D01*
X149171068Y-98472434D01*
X149208689Y-98446100D01*
X149216670Y-98400876D01*
X149207244Y-98379447D01*
X149006546Y-98092735D01*
X149008656Y-98092315D01*
X149009962Y-98092751D01*
X149019237Y-98090211D01*
X149028670Y-98088335D01*
X149029643Y-98087361D01*
X149032542Y-98086568D01*
X149108732Y-98048473D01*
X149116333Y-98042572D01*
X149124325Y-98037233D01*
X149162420Y-97999139D01*
X149167766Y-97991138D01*
X149173659Y-97983545D01*
X149211755Y-97907354D01*
X149212548Y-97904456D01*
X149213523Y-97903482D01*
X149215399Y-97894045D01*
X149217939Y-97884775D01*
X149217503Y-97883468D01*
X149218090Y-97880521D01*
X149218090Y-97766236D01*
X149217503Y-97763288D01*
X149217939Y-97761982D01*
X149215399Y-97752711D01*
X149213523Y-97743275D01*
X149212548Y-97742300D01*
X149211755Y-97739403D01*
X149173659Y-97663212D01*
X149167766Y-97655618D01*
X149162420Y-97647618D01*
X149124325Y-97609524D01*
X149116333Y-97604184D01*
X149108732Y-97598284D01*
X149032542Y-97560189D01*
X149029643Y-97559395D01*
X149028670Y-97558422D01*
X149019237Y-97556545D01*
X149009962Y-97554006D01*
X149008656Y-97554441D01*
X149005709Y-97553855D01*
X148700947Y-97553855D01*
X148677986Y-97558422D01*
X148645514Y-97590894D01*
X148640947Y-97613855D01*
X148413522Y-97613855D01*
X148413522Y-97590894D01*
X148381050Y-97558422D01*
X148358089Y-97553855D01*
X147977137Y-97553855D01*
X147954176Y-97558422D01*
X147921704Y-97590894D01*
X147917137Y-97613855D01*
X147731263Y-97613855D01*
X147731619Y-97604358D01*
X147707551Y-97565248D01*
X147662878Y-97554612D01*
X147623768Y-97578679D01*
X147614007Y-97599958D01*
X147478604Y-98168644D01*
X147387491Y-97826966D01*
X147377162Y-97805957D01*
X147370084Y-97801859D01*
X147365986Y-97794780D01*
X147350913Y-97790760D01*
X147337420Y-97782949D01*
X147329518Y-97785055D01*
X147321614Y-97782948D01*
X147308115Y-97790763D01*
X147293048Y-97794781D01*
X147288950Y-97801858D01*
X147281872Y-97805957D01*
X147271543Y-97826966D01*
X147180429Y-98168643D01*
X147045028Y-97599958D01*
X147035267Y-97578679D01*
X146996157Y-97554611D01*
X146951484Y-97565248D01*
X146927416Y-97604358D01*
X146640405Y-97604358D01*
X146640137Y-97604179D01*
X146632541Y-97598284D01*
X146556351Y-97560189D01*
X146553452Y-97559395D01*
X146552479Y-97558422D01*
X146543046Y-97556545D01*
X146533771Y-97554006D01*
X146532465Y-97554441D01*
X146529518Y-97553855D01*
X146377137Y-97553855D01*
X146374189Y-97554441D01*
X146372884Y-97554006D01*
X146363610Y-97556545D01*
X146354176Y-97558422D01*
X146353202Y-97559395D01*
X146350305Y-97560189D01*
X146274113Y-97598284D01*
X146266507Y-97604186D01*
X146258520Y-97609524D01*
X146182330Y-97685714D01*
X146178720Y-97691116D01*
X146176547Y-97692420D01*
X146173407Y-97699066D01*
X146169323Y-97705179D01*
X146169323Y-97707713D01*
X146166548Y-97713588D01*
X146128452Y-97865969D01*
X146128094Y-97873309D01*
X146126660Y-97880521D01*
X145941899Y-97880521D01*
X145941899Y-97766236D01*
X145941312Y-97763288D01*
X145941748Y-97761982D01*
X145939208Y-97752711D01*
X145937332Y-97743275D01*
X145936357Y-97742300D01*
X145935564Y-97739403D01*
X145897468Y-97663212D01*
X145891575Y-97655618D01*
X145886229Y-97647618D01*
X145848134Y-97609524D01*
X145840142Y-97604184D01*
X145832541Y-97598284D01*
X145756351Y-97560189D01*
X145753452Y-97559395D01*
X145752479Y-97558422D01*
X145743046Y-97556545D01*
X145733771Y-97554006D01*
X145732465Y-97554441D01*
X145729518Y-97553855D01*
X145424756Y-97553855D01*
X145401795Y-97558422D01*
X145369323Y-97590894D01*
X145364756Y-97613855D01*
X144989518Y-97613855D01*
X144989518Y-97597664D01*
X145119994Y-97597664D01*
X145142955Y-97593097D01*
X145175427Y-97560625D01*
X145175427Y-97514703D01*
X149369323Y-97514703D01*
X149369323Y-97560625D01*
X149401795Y-97593097D01*
X149424756Y-97597664D01*
X149555232Y-97597664D01*
X149555232Y-98620521D01*
X149424756Y-98620521D01*
X149401795Y-98625088D01*
X149369323Y-98657560D01*
X149369323Y-98703482D01*
X149401795Y-98735954D01*
X149424756Y-98740521D01*
X149615232Y-98740521D01*
X149638193Y-98735954D01*
X149670665Y-98703482D01*
X149675232Y-98680521D01*
X149675232Y-97537664D01*
X149670665Y-97514703D01*
X149638193Y-97482231D01*
X149615232Y-97477664D01*
X149424756Y-97477664D01*
X149401795Y-97482231D01*
X149369323Y-97514703D01*
X145175427Y-97514703D01*
X145142955Y-97482231D01*
X145119994Y-97477664D01*
X144929518Y-97477664D01*
X144906557Y-97482231D01*
X144874085Y-97514703D01*
X144869518Y-97537664D01*
X144780629Y-97537664D01*
X144780629Y-97388775D01*
X149764121Y-97388775D01*
X149764121Y-98829410D01*
G37*
G36*
X140594013Y-99454392D02*
G01*
X140653299Y-99513678D01*
X140684098Y-99575276D01*
X140718804Y-99714096D01*
X140718804Y-99813613D01*
X140684098Y-99952432D01*
X140653300Y-100014030D01*
X140594011Y-100073318D01*
X140502400Y-100103855D01*
X140381661Y-100103855D01*
X140381661Y-99423855D01*
X140502400Y-99423855D01*
X140594013Y-99454392D01*
G37*
G36*
X139105168Y-99451262D02*
G01*
X139129492Y-99475587D01*
X139156899Y-99530400D01*
X139156899Y-99616356D01*
X139129492Y-99671169D01*
X139105168Y-99695494D01*
X139050353Y-99722902D01*
X138819756Y-99722902D01*
X138819756Y-99423855D01*
X139050353Y-99423855D01*
X139105168Y-99451262D01*
G37*
G36*
X141384835Y-100579410D02*
G01*
X138115629Y-100579410D01*
X138115629Y-99287664D01*
X138204518Y-99287664D01*
X138204518Y-100430521D01*
X138209085Y-100453482D01*
X138241557Y-100485954D01*
X138264518Y-100490521D01*
X138454994Y-100490521D01*
X138477955Y-100485954D01*
X138510427Y-100453482D01*
X138510427Y-100407560D01*
X138477955Y-100375088D01*
X138454994Y-100370521D01*
X138324518Y-100370521D01*
X138324518Y-99363855D01*
X138699756Y-99363855D01*
X138699756Y-100163855D01*
X138704323Y-100186816D01*
X138736795Y-100219288D01*
X138782717Y-100219288D01*
X138815189Y-100186816D01*
X138819756Y-100163855D01*
X138819756Y-99842902D01*
X138918992Y-99842902D01*
X139167745Y-100198262D01*
X139184654Y-100214454D01*
X139229877Y-100222434D01*
X139267498Y-100196100D01*
X139275479Y-100150876D01*
X139266053Y-100129447D01*
X139065355Y-99842735D01*
X139067465Y-99842315D01*
X139068771Y-99842751D01*
X139078046Y-99840211D01*
X139087479Y-99838335D01*
X139088452Y-99837361D01*
X139091351Y-99836568D01*
X139167541Y-99798473D01*
X139175142Y-99792572D01*
X139183134Y-99787233D01*
X139221229Y-99749139D01*
X139226575Y-99741138D01*
X139232468Y-99733545D01*
X139270564Y-99657354D01*
X139271357Y-99654456D01*
X139272332Y-99653482D01*
X139274208Y-99644045D01*
X139276748Y-99634775D01*
X139276312Y-99633468D01*
X139276899Y-99630521D01*
X139276899Y-99516236D01*
X139276312Y-99513288D01*
X139276748Y-99511982D01*
X139274208Y-99502711D01*
X139272332Y-99493275D01*
X139271357Y-99492300D01*
X139270564Y-99489403D01*
X139232468Y-99413212D01*
X139226575Y-99405618D01*
X139221229Y-99397618D01*
X139199109Y-99375499D01*
X139424705Y-99375499D01*
X139433642Y-99397137D01*
X139678120Y-99763855D01*
X139433642Y-100130573D01*
X139424705Y-100152211D01*
X139433712Y-100197242D01*
X139471921Y-100222715D01*
X139516952Y-100213708D01*
X139533488Y-100197137D01*
X139750232Y-99872021D01*
X139966976Y-100197137D01*
X139983513Y-100213709D01*
X140028543Y-100222715D01*
X140066753Y-100197242D01*
X140075759Y-100152211D01*
X140066822Y-100130573D01*
X139822343Y-99763855D01*
X140066822Y-99397137D01*
X140075759Y-99375499D01*
X140073430Y-99363855D01*
X140261661Y-99363855D01*
X140261661Y-100163855D01*
X140266228Y-100186816D01*
X140298700Y-100219288D01*
X140321661Y-100223855D01*
X140512137Y-100223855D01*
X140521570Y-100221978D01*
X140531111Y-100220776D01*
X140645397Y-100182681D01*
X140648007Y-100181193D01*
X140649385Y-100181193D01*
X140657380Y-100175850D01*
X140665735Y-100171088D01*
X140666351Y-100169855D01*
X140668850Y-100168186D01*
X140745040Y-100091995D01*
X140750383Y-100083998D01*
X140756279Y-100076402D01*
X140794374Y-100000212D01*
X140796110Y-99993870D01*
X140798916Y-99987931D01*
X140837013Y-99835550D01*
X140837370Y-99828205D01*
X140838804Y-99820998D01*
X140838804Y-99706712D01*
X140837370Y-99699504D01*
X140837013Y-99692160D01*
X140798916Y-99539779D01*
X140796110Y-99533838D01*
X140794374Y-99527499D01*
X140756279Y-99451307D01*
X140750376Y-99443701D01*
X140745039Y-99435714D01*
X140668849Y-99359524D01*
X140666351Y-99357855D01*
X140665735Y-99356622D01*
X140657373Y-99351855D01*
X140649384Y-99346517D01*
X140648007Y-99346517D01*
X140645397Y-99345029D01*
X140531111Y-99306934D01*
X140521570Y-99305731D01*
X140512137Y-99303855D01*
X140321661Y-99303855D01*
X140298700Y-99308422D01*
X140266228Y-99340894D01*
X140261661Y-99363855D01*
X140073430Y-99363855D01*
X140066753Y-99330468D01*
X140028543Y-99304995D01*
X139983513Y-99314001D01*
X139966976Y-99330573D01*
X139750232Y-99655688D01*
X139533488Y-99330573D01*
X139516952Y-99314002D01*
X139471921Y-99304995D01*
X139433712Y-99330468D01*
X139424705Y-99375499D01*
X139199109Y-99375499D01*
X139183134Y-99359524D01*
X139175142Y-99354184D01*
X139167541Y-99348284D01*
X139091351Y-99310189D01*
X139088452Y-99309395D01*
X139087479Y-99308422D01*
X139078046Y-99306545D01*
X139068771Y-99304006D01*
X139067465Y-99304441D01*
X139064518Y-99303855D01*
X138759756Y-99303855D01*
X138736795Y-99308422D01*
X138704323Y-99340894D01*
X138699756Y-99363855D01*
X138324518Y-99363855D01*
X138324518Y-99347664D01*
X138454994Y-99347664D01*
X138477955Y-99343097D01*
X138510427Y-99310625D01*
X138510427Y-99264703D01*
X140990037Y-99264703D01*
X140990037Y-99310625D01*
X141022509Y-99343097D01*
X141045470Y-99347664D01*
X141175946Y-99347664D01*
X141175946Y-100370521D01*
X141045470Y-100370521D01*
X141022509Y-100375088D01*
X140990037Y-100407560D01*
X140990037Y-100453482D01*
X141022509Y-100485954D01*
X141045470Y-100490521D01*
X141235946Y-100490521D01*
X141258907Y-100485954D01*
X141291379Y-100453482D01*
X141295946Y-100430521D01*
X141295946Y-99287664D01*
X141291379Y-99264703D01*
X141258907Y-99232231D01*
X141235946Y-99227664D01*
X141045470Y-99227664D01*
X141022509Y-99232231D01*
X140990037Y-99264703D01*
X138510427Y-99264703D01*
X138477955Y-99232231D01*
X138454994Y-99227664D01*
X138264518Y-99227664D01*
X138241557Y-99232231D01*
X138209085Y-99264703D01*
X138204518Y-99287664D01*
X138115629Y-99287664D01*
X138115629Y-99138775D01*
X141384835Y-99138775D01*
X141384835Y-100579410D01*
G37*
D10*
G36*
X180986630Y-100716669D02*
G01*
X181007512Y-100737551D01*
X181032247Y-100787020D01*
X181032247Y-100960982D01*
X180801295Y-100960982D01*
X180801295Y-100787020D01*
X180826029Y-100737551D01*
X180846911Y-100716669D01*
X180896381Y-100691935D01*
X180937161Y-100691935D01*
X180986630Y-100716669D01*
G37*
G36*
X181405676Y-100678573D02*
G01*
X181426561Y-100699457D01*
X181451295Y-100748925D01*
X181451295Y-100960982D01*
X181182247Y-100960982D01*
X181182247Y-100781485D01*
X181210893Y-100695544D01*
X181227863Y-100678574D01*
X181277334Y-100653839D01*
X181356208Y-100653839D01*
X181405676Y-100678573D01*
G37*
G36*
X181956850Y-102304633D02*
G01*
X180486215Y-102304633D01*
X180486215Y-101950268D01*
X180575104Y-101950268D01*
X180575104Y-102140744D01*
X180576545Y-102155376D01*
X180587744Y-102182412D01*
X180608436Y-102203104D01*
X180635472Y-102214303D01*
X180650104Y-102215744D01*
X181792961Y-102215744D01*
X181807593Y-102214303D01*
X181834629Y-102203104D01*
X181855321Y-102182412D01*
X181866520Y-102155376D01*
X181867961Y-102140744D01*
X181867961Y-101950268D01*
X181866520Y-101935636D01*
X181855321Y-101908600D01*
X181834629Y-101887908D01*
X181807593Y-101876709D01*
X181778329Y-101876709D01*
X181751293Y-101887908D01*
X181730601Y-101908600D01*
X181719402Y-101935636D01*
X181717961Y-101950268D01*
X181717961Y-102065744D01*
X180725104Y-102065744D01*
X180725104Y-101950268D01*
X180723663Y-101935636D01*
X180712464Y-101908600D01*
X180691772Y-101887908D01*
X180664736Y-101876709D01*
X180635472Y-101876709D01*
X180608436Y-101887908D01*
X180587744Y-101908600D01*
X180576545Y-101935636D01*
X180575104Y-101950268D01*
X180486215Y-101950268D01*
X180486215Y-100769316D01*
X180651295Y-100769316D01*
X180651295Y-101035982D01*
X180652736Y-101050614D01*
X180663935Y-101077650D01*
X180684627Y-101098342D01*
X180711663Y-101109541D01*
X180726295Y-101110982D01*
X181526295Y-101110982D01*
X181540927Y-101109541D01*
X181567963Y-101098342D01*
X181588655Y-101077650D01*
X181599854Y-101050614D01*
X181601295Y-101035982D01*
X181601295Y-100731220D01*
X181599854Y-100716588D01*
X181598822Y-100714098D01*
X181598632Y-100711411D01*
X181593377Y-100697679D01*
X181555282Y-100621489D01*
X181551318Y-100615191D01*
X181550560Y-100613361D01*
X181548869Y-100611301D01*
X181547450Y-100609046D01*
X181545952Y-100607747D01*
X181541232Y-100601996D01*
X181503136Y-100563901D01*
X181497384Y-100559180D01*
X181496088Y-100557686D01*
X181493834Y-100556267D01*
X181491771Y-100554574D01*
X181489939Y-100553815D01*
X181483645Y-100549853D01*
X181407456Y-100511757D01*
X181393724Y-100506502D01*
X181391034Y-100506310D01*
X181388546Y-100505280D01*
X181373914Y-100503839D01*
X181259628Y-100503839D01*
X181244996Y-100505280D01*
X181242504Y-100506312D01*
X181239818Y-100506503D01*
X181226086Y-100511758D01*
X181149896Y-100549853D01*
X181143601Y-100553815D01*
X181141771Y-100554574D01*
X181139708Y-100556266D01*
X181137454Y-100557686D01*
X181136157Y-100559180D01*
X181130406Y-100563901D01*
X181092310Y-100601996D01*
X181088604Y-100606511D01*
X181084090Y-100601997D01*
X181078340Y-100597278D01*
X181077041Y-100595780D01*
X181074781Y-100594358D01*
X181072725Y-100592670D01*
X181070897Y-100591912D01*
X181064598Y-100587948D01*
X180988407Y-100549853D01*
X180974675Y-100544598D01*
X180971987Y-100544407D01*
X180969498Y-100543376D01*
X180954866Y-100541935D01*
X180878676Y-100541935D01*
X180864044Y-100543376D01*
X180861554Y-100544407D01*
X180858867Y-100544598D01*
X180845135Y-100549853D01*
X180768944Y-100587948D01*
X180762644Y-100591912D01*
X180760817Y-100592670D01*
X180758760Y-100594358D01*
X180756501Y-100595780D01*
X180755201Y-100597278D01*
X180749452Y-100601997D01*
X180711357Y-100640092D01*
X180706638Y-100645841D01*
X180705140Y-100647141D01*
X180703718Y-100649400D01*
X180702030Y-100651457D01*
X180701272Y-100653284D01*
X180697308Y-100659584D01*
X180659213Y-100735775D01*
X180653958Y-100749507D01*
X180653767Y-100752194D01*
X180652736Y-100754684D01*
X180651295Y-100769316D01*
X180486215Y-100769316D01*
X180486215Y-99512173D01*
X180575104Y-99512173D01*
X180575104Y-99702649D01*
X180576545Y-99717281D01*
X180587744Y-99744317D01*
X180608436Y-99765009D01*
X180635472Y-99776208D01*
X180664736Y-99776208D01*
X180691772Y-99765009D01*
X180712464Y-99744317D01*
X180723663Y-99717281D01*
X180725104Y-99702649D01*
X180725104Y-99587173D01*
X181717961Y-99587173D01*
X181717961Y-99702649D01*
X181719402Y-99717281D01*
X181730601Y-99744317D01*
X181751293Y-99765009D01*
X181778329Y-99776208D01*
X181807593Y-99776208D01*
X181834629Y-99765009D01*
X181855321Y-99744317D01*
X181866520Y-99717281D01*
X181867961Y-99702649D01*
X181867961Y-99512173D01*
X181866520Y-99497541D01*
X181855321Y-99470505D01*
X181834629Y-99449813D01*
X181807593Y-99438614D01*
X181792961Y-99437173D01*
X180650104Y-99437173D01*
X180635472Y-99438614D01*
X180608436Y-99449813D01*
X180587744Y-99470505D01*
X180576545Y-99497541D01*
X180575104Y-99512173D01*
X180486215Y-99512173D01*
X180486215Y-99348284D01*
X181956850Y-99348284D01*
X181956850Y-102304633D01*
G37*
D11*
G36*
X181239283Y-104460568D02*
G01*
X180917592Y-104353338D01*
X181239283Y-104246108D01*
X181239283Y-104460568D01*
G37*
G36*
X181943410Y-105759370D02*
G01*
X180502775Y-105759370D01*
X180502775Y-105420005D01*
X180591664Y-105420005D01*
X180591664Y-105610481D01*
X180596231Y-105633442D01*
X180628703Y-105665914D01*
X180651664Y-105670481D01*
X181794521Y-105670481D01*
X181817482Y-105665914D01*
X181849954Y-105633442D01*
X181854521Y-105610481D01*
X181854521Y-105420005D01*
X181849954Y-105397044D01*
X181817482Y-105364572D01*
X181771560Y-105364572D01*
X181739088Y-105397044D01*
X181734521Y-105420005D01*
X181734521Y-105550481D01*
X180711664Y-105550481D01*
X180711664Y-105420005D01*
X180707097Y-105397044D01*
X180674625Y-105364572D01*
X180628703Y-105364572D01*
X180596231Y-105397044D01*
X180591664Y-105420005D01*
X180502775Y-105420005D01*
X180502775Y-104349085D01*
X180668006Y-104349085D01*
X180669423Y-104353338D01*
X180668006Y-104357591D01*
X180676512Y-104374604D01*
X180682528Y-104392650D01*
X180686538Y-104394655D01*
X180688543Y-104398665D01*
X180708881Y-104410259D01*
X181508881Y-104676926D01*
X181532108Y-104679854D01*
X181573182Y-104659317D01*
X181587704Y-104615752D01*
X181567167Y-104574678D01*
X181546829Y-104563084D01*
X181359283Y-104500568D01*
X181359283Y-104206108D01*
X181546829Y-104143593D01*
X181567167Y-104131999D01*
X181587704Y-104090925D01*
X181573183Y-104047360D01*
X181532108Y-104026823D01*
X181508882Y-104029751D01*
X180708881Y-104296417D01*
X180688543Y-104308011D01*
X180686538Y-104312021D01*
X180682528Y-104314026D01*
X180676512Y-104332071D01*
X180668006Y-104349085D01*
X180502775Y-104349085D01*
X180502775Y-103096196D01*
X180591664Y-103096196D01*
X180591664Y-103286672D01*
X180596231Y-103309633D01*
X180628703Y-103342105D01*
X180674625Y-103342105D01*
X180707097Y-103309633D01*
X180711664Y-103286672D01*
X180711664Y-103156196D01*
X181734521Y-103156196D01*
X181734521Y-103286672D01*
X181739088Y-103309633D01*
X181771560Y-103342105D01*
X181817482Y-103342105D01*
X181849954Y-103309633D01*
X181854521Y-103286672D01*
X181854521Y-103096196D01*
X181849954Y-103073235D01*
X181817482Y-103040763D01*
X181794521Y-103036196D01*
X180651664Y-103036196D01*
X180628703Y-103040763D01*
X180596231Y-103073235D01*
X180591664Y-103096196D01*
X180502775Y-103096196D01*
X180502775Y-102947307D01*
X181943410Y-102947307D01*
X181943410Y-105759370D01*
G37*
G36*
X140403537Y-104229392D02*
G01*
X140462823Y-104288678D01*
X140493622Y-104350276D01*
X140528328Y-104489096D01*
X140528328Y-104588613D01*
X140493622Y-104727432D01*
X140462824Y-104789030D01*
X140403535Y-104848318D01*
X140311924Y-104878855D01*
X140191185Y-104878855D01*
X140191185Y-104198855D01*
X140311924Y-104198855D01*
X140403537Y-104229392D01*
G37*
G36*
X141194359Y-105354410D02*
G01*
X138115629Y-105354410D01*
X138115629Y-104062664D01*
X138204518Y-104062664D01*
X138204518Y-105205521D01*
X138209085Y-105228482D01*
X138241557Y-105260954D01*
X138264518Y-105265521D01*
X138454994Y-105265521D01*
X138477955Y-105260954D01*
X138510427Y-105228482D01*
X138510427Y-105182560D01*
X138477955Y-105150088D01*
X138454994Y-105145521D01*
X138324518Y-105145521D01*
X138324518Y-104122664D01*
X138454994Y-104122664D01*
X138477955Y-104118097D01*
X138480158Y-104115894D01*
X138590037Y-104115894D01*
X138590037Y-104161816D01*
X138622509Y-104194288D01*
X138645470Y-104198855D01*
X138814041Y-104198855D01*
X138814041Y-104938855D01*
X138818608Y-104961816D01*
X138851080Y-104994288D01*
X138897002Y-104994288D01*
X138929474Y-104961816D01*
X138934041Y-104938855D01*
X138934041Y-104198855D01*
X139102613Y-104198855D01*
X139125574Y-104194288D01*
X139158046Y-104161816D01*
X139158046Y-104150499D01*
X139234229Y-104150499D01*
X139243166Y-104172137D01*
X139487644Y-104538855D01*
X139243166Y-104905573D01*
X139234229Y-104927211D01*
X139243236Y-104972242D01*
X139281445Y-104997715D01*
X139326476Y-104988708D01*
X139343012Y-104972137D01*
X139559756Y-104647021D01*
X139776500Y-104972137D01*
X139793037Y-104988709D01*
X139838067Y-104997715D01*
X139876277Y-104972242D01*
X139885283Y-104927211D01*
X139876346Y-104905573D01*
X139631867Y-104538855D01*
X139876346Y-104172137D01*
X139885283Y-104150499D01*
X139882954Y-104138855D01*
X140071185Y-104138855D01*
X140071185Y-104938855D01*
X140075752Y-104961816D01*
X140108224Y-104994288D01*
X140131185Y-104998855D01*
X140321661Y-104998855D01*
X140331094Y-104996978D01*
X140340635Y-104995776D01*
X140454921Y-104957681D01*
X140457531Y-104956193D01*
X140458909Y-104956193D01*
X140466904Y-104950850D01*
X140475259Y-104946088D01*
X140475875Y-104944855D01*
X140478374Y-104943186D01*
X140554564Y-104866995D01*
X140559907Y-104858998D01*
X140565803Y-104851402D01*
X140603898Y-104775212D01*
X140605634Y-104768870D01*
X140608440Y-104762931D01*
X140646537Y-104610550D01*
X140646894Y-104603205D01*
X140648328Y-104595998D01*
X140648328Y-104481712D01*
X140646894Y-104474504D01*
X140646537Y-104467160D01*
X140608440Y-104314779D01*
X140605634Y-104308838D01*
X140603898Y-104302499D01*
X140565803Y-104226307D01*
X140559900Y-104218701D01*
X140554563Y-104210714D01*
X140478373Y-104134524D01*
X140475875Y-104132855D01*
X140475259Y-104131622D01*
X140466897Y-104126855D01*
X140458908Y-104121517D01*
X140457531Y-104121517D01*
X140454921Y-104120029D01*
X140340635Y-104081934D01*
X140331094Y-104080731D01*
X140321661Y-104078855D01*
X140131185Y-104078855D01*
X140108224Y-104083422D01*
X140075752Y-104115894D01*
X140071185Y-104138855D01*
X139882954Y-104138855D01*
X139876277Y-104105468D01*
X139838067Y-104079995D01*
X139793037Y-104089001D01*
X139776500Y-104105573D01*
X139559756Y-104430688D01*
X139343012Y-104105573D01*
X139326476Y-104089002D01*
X139281445Y-104079995D01*
X139243236Y-104105468D01*
X139234229Y-104150499D01*
X139158046Y-104150499D01*
X139158046Y-104115894D01*
X139125574Y-104083422D01*
X139102613Y-104078855D01*
X138645470Y-104078855D01*
X138622509Y-104083422D01*
X138590037Y-104115894D01*
X138480158Y-104115894D01*
X138510427Y-104085625D01*
X138510427Y-104039703D01*
X140799561Y-104039703D01*
X140799561Y-104085625D01*
X140832033Y-104118097D01*
X140854994Y-104122664D01*
X140985470Y-104122664D01*
X140985470Y-105145521D01*
X140854994Y-105145521D01*
X140832033Y-105150088D01*
X140799561Y-105182560D01*
X140799561Y-105228482D01*
X140832033Y-105260954D01*
X140854994Y-105265521D01*
X141045470Y-105265521D01*
X141068431Y-105260954D01*
X141100903Y-105228482D01*
X141105470Y-105205521D01*
X141105470Y-104062664D01*
X141100903Y-104039703D01*
X141068431Y-104007231D01*
X141045470Y-104002664D01*
X140854994Y-104002664D01*
X140832033Y-104007231D01*
X140799561Y-104039703D01*
X138510427Y-104039703D01*
X138477955Y-104007231D01*
X138454994Y-104002664D01*
X138264518Y-104002664D01*
X138241557Y-104007231D01*
X138209085Y-104039703D01*
X138204518Y-104062664D01*
X138115629Y-104062664D01*
X138115629Y-103913775D01*
X141194359Y-103913775D01*
X141194359Y-105354410D01*
G37*
D10*
X171798666Y-98222819D02*
X171798666Y-98937104D01*
X171798666Y-98937104D02*
X171751047Y-99079961D01*
X171751047Y-99079961D02*
X171655809Y-99175200D01*
X171655809Y-99175200D02*
X171512952Y-99222819D01*
X171512952Y-99222819D02*
X171417714Y-99222819D01*
X172703428Y-98556152D02*
X172703428Y-99222819D01*
X172465333Y-98175200D02*
X172227238Y-98889485D01*
X172227238Y-98889485D02*
X172846285Y-98889485D01*
X139270095Y-115522819D02*
X139270095Y-116332342D01*
X139270095Y-116332342D02*
X139317714Y-116427580D01*
X139317714Y-116427580D02*
X139365333Y-116475200D01*
X139365333Y-116475200D02*
X139460571Y-116522819D01*
X139460571Y-116522819D02*
X139651047Y-116522819D01*
X139651047Y-116522819D02*
X139746285Y-116475200D01*
X139746285Y-116475200D02*
X139793904Y-116427580D01*
X139793904Y-116427580D02*
X139841523Y-116332342D01*
X139841523Y-116332342D02*
X139841523Y-115522819D01*
X140270095Y-115618057D02*
X140317714Y-115570438D01*
X140317714Y-115570438D02*
X140412952Y-115522819D01*
X140412952Y-115522819D02*
X140651047Y-115522819D01*
X140651047Y-115522819D02*
X140746285Y-115570438D01*
X140746285Y-115570438D02*
X140793904Y-115618057D01*
X140793904Y-115618057D02*
X140841523Y-115713295D01*
X140841523Y-115713295D02*
X140841523Y-115808533D01*
X140841523Y-115808533D02*
X140793904Y-115951390D01*
X140793904Y-115951390D02*
X140222476Y-116522819D01*
X140222476Y-116522819D02*
X140841523Y-116522819D01*
X150970095Y-106422819D02*
X150970095Y-107232342D01*
X150970095Y-107232342D02*
X151017714Y-107327580D01*
X151017714Y-107327580D02*
X151065333Y-107375200D01*
X151065333Y-107375200D02*
X151160571Y-107422819D01*
X151160571Y-107422819D02*
X151351047Y-107422819D01*
X151351047Y-107422819D02*
X151446285Y-107375200D01*
X151446285Y-107375200D02*
X151493904Y-107327580D01*
X151493904Y-107327580D02*
X151541523Y-107232342D01*
X151541523Y-107232342D02*
X151541523Y-106422819D01*
X152541523Y-107422819D02*
X151970095Y-107422819D01*
X152255809Y-107422819D02*
X152255809Y-106422819D01*
X152255809Y-106422819D02*
X152160571Y-106565676D01*
X152160571Y-106565676D02*
X152065333Y-106660914D01*
X152065333Y-106660914D02*
X151970095Y-106708533D01*
X126865333Y-105522819D02*
X126389143Y-105522819D01*
X126389143Y-105522819D02*
X126389143Y-104522819D01*
X127722476Y-105522819D02*
X127151048Y-105522819D01*
X127436762Y-105522819D02*
X127436762Y-104522819D01*
X127436762Y-104522819D02*
X127341524Y-104665676D01*
X127341524Y-104665676D02*
X127246286Y-104760914D01*
X127246286Y-104760914D02*
X127151048Y-104808533D01*
D11*
X143394742Y-118295500D02*
X143869258Y-118295500D01*
X143394742Y-119340500D02*
X143869258Y-119340500D01*
X163494500Y-106245500D02*
X163494500Y-112055500D01*
X167794500Y-106245500D02*
X163494500Y-106245500D01*
X167794500Y-106245500D02*
X167794500Y-112055500D01*
X121719500Y-98883000D02*
X121069500Y-98883000D01*
X121719500Y-98883000D02*
X122369500Y-98883000D01*
X121719500Y-102003000D02*
X121069500Y-102003000D01*
X121719500Y-102003000D02*
X122369500Y-102003000D01*
X123122000Y-102283000D02*
X122642000Y-102283000D01*
X122882000Y-101953000D01*
X123122000Y-102283000D01*
G36*
X123122000Y-102283000D02*
G01*
X122642000Y-102283000D01*
X122882000Y-101953000D01*
X123122000Y-102283000D01*
G37*
X176429500Y-98223000D02*
X176429500Y-99733000D01*
X176429500Y-103233000D02*
X176429500Y-101833000D01*
X176429500Y-106733000D02*
X176429500Y-105333000D01*
X176429500Y-110233000D02*
X176429500Y-108833000D01*
X176429500Y-113843000D02*
X176429500Y-112333000D01*
X176429500Y-113843000D02*
X185849500Y-113843000D01*
X185849500Y-98223000D02*
X176429500Y-98223000D01*
X185849500Y-113843000D02*
X185849500Y-98223000D01*
X161759500Y-102455742D02*
X161759500Y-102930258D01*
X162804500Y-102455742D02*
X162804500Y-102930258D01*
X168637000Y-105395064D02*
X168637000Y-104940936D01*
X170107000Y-105395064D02*
X170107000Y-104940936D01*
X120432000Y-105803000D02*
X124342000Y-105803000D01*
X124342000Y-103933000D02*
X120432000Y-103933000D01*
X124342000Y-105803000D02*
X124342000Y-103933000D01*
X142819742Y-98995500D02*
X143294258Y-98995500D01*
X142819742Y-100040500D02*
X143294258Y-100040500D01*
X142769742Y-102695500D02*
X143244258Y-102695500D01*
X142769742Y-103740500D02*
X143244258Y-103740500D01*
X159709500Y-101580742D02*
X159709500Y-102055258D01*
X160754500Y-101580742D02*
X160754500Y-102055258D01*
X138172000Y-102483000D02*
X138172000Y-103953000D01*
X138172000Y-103953000D02*
X140457000Y-103953000D01*
X140457000Y-102483000D02*
X138172000Y-102483000D01*
X130994258Y-98995500D02*
X130519742Y-98995500D01*
X130994258Y-100040500D02*
X130519742Y-100040500D01*
X173139500Y-98233000D02*
X173139500Y-99743000D01*
X173139500Y-103243000D02*
X173139500Y-101843000D01*
X173139500Y-106743000D02*
X173139500Y-105343000D01*
X173139500Y-110243000D02*
X173139500Y-108843000D01*
X173139500Y-113853000D02*
X173139500Y-112343000D01*
X173139500Y-113853000D02*
X182559500Y-113853000D01*
X182559500Y-98233000D02*
X173139500Y-98233000D01*
X182559500Y-113853000D02*
X182559500Y-98233000D01*
X159709500Y-105780258D02*
X159709500Y-105305742D01*
X160754500Y-105780258D02*
X160754500Y-105305742D01*
X133522000Y-100630500D02*
X133522000Y-99980500D01*
X133522000Y-100630500D02*
X133522000Y-101280500D01*
X136642000Y-100630500D02*
X136642000Y-99980500D01*
X136642000Y-100630500D02*
X136642000Y-101280500D01*
X136922000Y-99708000D02*
X136592000Y-99468000D01*
X136922000Y-99228000D01*
X136922000Y-99708000D01*
G36*
X136922000Y-99708000D02*
G01*
X136592000Y-99468000D01*
X136922000Y-99228000D01*
X136922000Y-99708000D01*
G37*
X152032000Y-100528000D02*
X155942000Y-100528000D01*
X155942000Y-98658000D02*
X152032000Y-98658000D01*
X155942000Y-100528000D02*
X155942000Y-98658000D01*
X139397000Y-112258580D02*
X139397000Y-111977420D01*
X140417000Y-112258580D02*
X140417000Y-111977420D01*
X149622000Y-114802420D02*
X149622000Y-115083580D01*
X150642000Y-114802420D02*
X150642000Y-115083580D01*
X130519742Y-101295500D02*
X130994258Y-101295500D01*
X130519742Y-102340500D02*
X130994258Y-102340500D01*
X148309500Y-102205258D02*
X148309500Y-101730742D01*
X149354500Y-102205258D02*
X149354500Y-101730742D01*
X144847000Y-98783000D02*
X144847000Y-100253000D01*
X144847000Y-100253000D02*
X147132000Y-100253000D01*
X147132000Y-98783000D02*
X144847000Y-98783000D01*
X146069742Y-100745500D02*
X146544258Y-100745500D01*
X146069742Y-101790500D02*
X146544258Y-101790500D01*
X126419500Y-98908000D02*
X125769500Y-98908000D01*
X126419500Y-98908000D02*
X127069500Y-98908000D01*
X126419500Y-102028000D02*
X125769500Y-102028000D01*
X126419500Y-102028000D02*
X127069500Y-102028000D01*
X127822000Y-102308000D02*
X127342000Y-102308000D01*
X127582000Y-101978000D01*
X127822000Y-102308000D01*
G36*
X127822000Y-102308000D02*
G01*
X127342000Y-102308000D01*
X127582000Y-101978000D01*
X127822000Y-102308000D01*
G37*
X120119500Y-113590500D02*
X124329500Y-113590500D01*
X124329500Y-110570500D02*
X120119500Y-110570500D01*
X124329500Y-113590500D02*
X124329500Y-110570500D01*
X165822000Y-114868000D02*
X165822000Y-118168000D01*
X165822000Y-114868000D02*
X171332000Y-114868000D01*
X165822000Y-118168000D02*
X171332000Y-118168000D01*
X163494500Y-105565500D02*
X163494500Y-99755500D01*
X163494500Y-105565500D02*
X167794500Y-105565500D01*
X167794500Y-105565500D02*
X167794500Y-99755500D01*
D10*
X142882000Y-112218000D02*
X147032000Y-112218000D01*
X142882000Y-117368000D02*
X147032000Y-117368000D01*
D11*
X142457000Y-112293000D02*
X142217000Y-111963000D01*
X142697000Y-111963000D01*
X142457000Y-112293000D01*
G36*
X142457000Y-112293000D02*
G01*
X142217000Y-111963000D01*
X142697000Y-111963000D01*
X142457000Y-112293000D01*
G37*
X146069742Y-102695500D02*
X146544258Y-102695500D01*
X146069742Y-103740500D02*
X146544258Y-103740500D01*
X148309500Y-105180742D02*
X148309500Y-105655258D01*
X149354500Y-105180742D02*
X149354500Y-105655258D01*
X168637000Y-101907564D02*
X168637000Y-101453436D01*
X170107000Y-101907564D02*
X170107000Y-101453436D01*
X153722000Y-111658000D02*
X153722000Y-114608000D01*
X153722000Y-120178000D02*
X153722000Y-117228000D01*
X161177563Y-111658000D02*
X153722000Y-111658000D01*
X161177563Y-120178000D02*
X153722000Y-120178000D01*
X162242000Y-112722437D02*
X161177563Y-111658000D01*
X162242000Y-112722437D02*
X162242000Y-114608000D01*
X162242000Y-119113563D02*
X161177563Y-120178000D01*
X162242000Y-119113563D02*
X162242000Y-117228000D01*
X154582000Y-101083000D02*
X152632000Y-101083000D01*
X154582000Y-101083000D02*
X156532000Y-101083000D01*
X154582000Y-106203000D02*
X152632000Y-106203000D01*
X154582000Y-106203000D02*
X156532000Y-106203000D01*
X151882000Y-101178000D02*
X151642000Y-100848000D01*
X152122000Y-100848000D01*
X151882000Y-101178000D01*
G36*
X151882000Y-101178000D02*
G01*
X151642000Y-100848000D01*
X152122000Y-100848000D01*
X151882000Y-101178000D01*
G37*
X125522000Y-105883000D02*
X125522000Y-118903000D01*
X125522000Y-105883000D02*
X129072000Y-105883000D01*
X125522000Y-118903000D02*
X129072000Y-118903000D01*
X138542000Y-105883000D02*
X134992000Y-105883000D01*
X138542000Y-105883000D02*
X138542000Y-118903000D01*
X138542000Y-118903000D02*
X134992000Y-118903000D01*
X120127000Y-109678000D02*
X124337000Y-109678000D01*
X124337000Y-106658000D02*
X120127000Y-106658000D01*
X124337000Y-109678000D02*
X124337000Y-106658000D01*
X152227000Y-110548000D02*
X152227000Y-109218000D01*
X153557000Y-110548000D02*
X152227000Y-110548000D01*
X154827000Y-107888000D02*
X157427000Y-107888000D01*
X154827000Y-110548000D02*
X154827000Y-107888000D01*
X154827000Y-110548000D02*
X157427000Y-110548000D01*
X157427000Y-110548000D02*
X157427000Y-107888000D01*
X138172000Y-100533000D02*
X138172000Y-102003000D01*
X138172000Y-102003000D02*
X140457000Y-102003000D01*
X140457000Y-100533000D02*
X138172000Y-100533000D01*
X148667000Y-108143000D02*
X143157000Y-108143000D01*
X148667000Y-111443000D02*
X143157000Y-111443000D01*
X148667000Y-111443000D02*
X148667000Y-108143000D01*
X157691420Y-99083000D02*
X157972580Y-99083000D01*
X157691420Y-100103000D02*
X157972580Y-100103000D01*
X146969742Y-118295500D02*
X147444258Y-118295500D01*
X146969742Y-119340500D02*
X147444258Y-119340500D01*
X142769742Y-100745500D02*
X143244258Y-100745500D01*
X142769742Y-101790500D02*
X143244258Y-101790500D01*
M02*
