G04 #@! TF.GenerationSoftware,KiCad,Pcbnew,8.0.7*
G04 #@! TF.CreationDate,2025-01-02T15:08:57-08:00*
G04 #@! TF.ProjectId,pi-zero-serial-hat,70692d7a-6572-46f2-9d73-657269616c2d,1.0*
G04 #@! TF.SameCoordinates,Original*
G04 #@! TF.FileFunction,Legend,Bot*
G04 #@! TF.FilePolarity,Positive*
%FSLAX46Y46*%
G04 Gerber Fmt 4.6, Leading zero omitted, Abs format (unit mm)*
G04 Created by KiCad (PCBNEW 8.0.7) date 2025-01-02 15:08:57*
%MOMM*%
%LPD*%
G01*
G04 APERTURE LIST*
%ADD10C,0.150000*%
%ADD11C,0.120000*%
G04 APERTURE END LIST*
D10*
G36*
X181271052Y-106809128D02*
G01*
X181328992Y-106838098D01*
X181384056Y-106893162D01*
X181412704Y-106979104D01*
X181412704Y-107082411D01*
X180762704Y-107082411D01*
X180762704Y-106979105D01*
X180791352Y-106893162D01*
X180846417Y-106838098D01*
X180904355Y-106809128D01*
X181039796Y-106775268D01*
X181135612Y-106775268D01*
X181271052Y-106809128D01*
G37*
G36*
X181727784Y-109454633D02*
G01*
X180257149Y-109454633D01*
X180257149Y-109100268D01*
X180346038Y-109100268D01*
X180346038Y-109290744D01*
X180347479Y-109305376D01*
X180358678Y-109332412D01*
X180379370Y-109353104D01*
X180406406Y-109364303D01*
X180421038Y-109365744D01*
X181563895Y-109365744D01*
X181578527Y-109364303D01*
X181605563Y-109353104D01*
X181626255Y-109332412D01*
X181637454Y-109305376D01*
X181638895Y-109290744D01*
X181638895Y-109100268D01*
X181637454Y-109085636D01*
X181626255Y-109058600D01*
X181605563Y-109037908D01*
X181578527Y-109026709D01*
X181549263Y-109026709D01*
X181522227Y-109037908D01*
X181501535Y-109058600D01*
X181490336Y-109085636D01*
X181488895Y-109100268D01*
X181488895Y-109215744D01*
X180496038Y-109215744D01*
X180496038Y-109100268D01*
X180494597Y-109085636D01*
X180483398Y-109058600D01*
X180462706Y-109037908D01*
X180435670Y-109026709D01*
X180406406Y-109026709D01*
X180379370Y-109037908D01*
X180358678Y-109058600D01*
X180347479Y-109085636D01*
X180346038Y-109100268D01*
X180257149Y-109100268D01*
X180257149Y-108490744D01*
X180612704Y-108490744D01*
X180612704Y-108566935D01*
X180613433Y-108574340D01*
X180613293Y-108576316D01*
X180613883Y-108578913D01*
X180614145Y-108581567D01*
X180614903Y-108583397D01*
X180616553Y-108590652D01*
X180654649Y-108704938D01*
X180660643Y-108718364D01*
X180662409Y-108720400D01*
X180663440Y-108722889D01*
X180672767Y-108734254D01*
X180748957Y-108810444D01*
X180754707Y-108815164D01*
X180756006Y-108816661D01*
X180758260Y-108818080D01*
X180760322Y-108819772D01*
X180762154Y-108820530D01*
X180768449Y-108824493D01*
X180844639Y-108862588D01*
X180845708Y-108862997D01*
X180846144Y-108863320D01*
X180852295Y-108865518D01*
X180858371Y-108867843D01*
X180858909Y-108867881D01*
X180859989Y-108868267D01*
X181012371Y-108906363D01*
X181014907Y-108906738D01*
X181015929Y-108907161D01*
X181021441Y-108907703D01*
X181026915Y-108908513D01*
X181028007Y-108908350D01*
X181030561Y-108908602D01*
X181144847Y-108908602D01*
X181147400Y-108908350D01*
X181148493Y-108908513D01*
X181153967Y-108907703D01*
X181159479Y-108907161D01*
X181160499Y-108906738D01*
X181163038Y-108906363D01*
X181315419Y-108868267D01*
X181316498Y-108867881D01*
X181317037Y-108867843D01*
X181323112Y-108865518D01*
X181329264Y-108863320D01*
X181329699Y-108862997D01*
X181330769Y-108862588D01*
X181406960Y-108824493D01*
X181413259Y-108820528D01*
X181415087Y-108819771D01*
X181417143Y-108818082D01*
X181419403Y-108816661D01*
X181420702Y-108815162D01*
X181426452Y-108810444D01*
X181502642Y-108734254D01*
X181511970Y-108722889D01*
X181513002Y-108720396D01*
X181514766Y-108718363D01*
X181520760Y-108704938D01*
X181558855Y-108590652D01*
X181560504Y-108583398D01*
X181561263Y-108581567D01*
X181561524Y-108578912D01*
X181562115Y-108576315D01*
X181561974Y-108574340D01*
X181562704Y-108566935D01*
X181562704Y-108452649D01*
X181561263Y-108438017D01*
X181560231Y-108435527D01*
X181560041Y-108432840D01*
X181554786Y-108419108D01*
X181516691Y-108342918D01*
X181508859Y-108330475D01*
X181486751Y-108311302D01*
X181458990Y-108302048D01*
X181429800Y-108304122D01*
X181403625Y-108317209D01*
X181384452Y-108339317D01*
X181375198Y-108367078D01*
X181377272Y-108396268D01*
X181382527Y-108410000D01*
X181412704Y-108470354D01*
X181412704Y-108554765D01*
X181384056Y-108640707D01*
X181328992Y-108695771D01*
X181271052Y-108724741D01*
X181135612Y-108758602D01*
X181039796Y-108758602D01*
X180904355Y-108724741D01*
X180846417Y-108695772D01*
X180791352Y-108640707D01*
X180762704Y-108554764D01*
X180762704Y-108502915D01*
X180791352Y-108416972D01*
X180794962Y-108413363D01*
X180955561Y-108413363D01*
X180955561Y-108490744D01*
X180957002Y-108505376D01*
X180968201Y-108532412D01*
X180988893Y-108553104D01*
X181015929Y-108564303D01*
X181045193Y-108564303D01*
X181072229Y-108553104D01*
X181092921Y-108532412D01*
X181104120Y-108505376D01*
X181105561Y-108490744D01*
X181105561Y-108338363D01*
X181104120Y-108323731D01*
X181092921Y-108296695D01*
X181072229Y-108276003D01*
X181045193Y-108264804D01*
X181030561Y-108263363D01*
X180763895Y-108263363D01*
X180749263Y-108264804D01*
X180749262Y-108264804D01*
X180722226Y-108276003D01*
X180710861Y-108285331D01*
X180672766Y-108323427D01*
X180663439Y-108334792D01*
X180662408Y-108337280D01*
X180660643Y-108339316D01*
X180654649Y-108352742D01*
X180616553Y-108467026D01*
X180614903Y-108474281D01*
X180614145Y-108476112D01*
X180613883Y-108478765D01*
X180613293Y-108481363D01*
X180613433Y-108483338D01*
X180612704Y-108490744D01*
X180257149Y-108490744D01*
X180257149Y-107543602D01*
X180612887Y-107543602D01*
X180614145Y-107548214D01*
X180614145Y-107552995D01*
X180617962Y-107562210D01*
X180620587Y-107571834D01*
X180623514Y-107575614D01*
X180625344Y-107580031D01*
X180632394Y-107587081D01*
X180638504Y-107594971D01*
X180644636Y-107599323D01*
X180646036Y-107600723D01*
X180647410Y-107601292D01*
X180650494Y-107603481D01*
X181205288Y-107920506D01*
X180687704Y-107920506D01*
X180673072Y-107921947D01*
X180646036Y-107933146D01*
X180625344Y-107953838D01*
X180614145Y-107980874D01*
X180614145Y-108010138D01*
X180625344Y-108037174D01*
X180646036Y-108057866D01*
X180673072Y-108069065D01*
X180687704Y-108070506D01*
X181487704Y-108070506D01*
X181491467Y-108070135D01*
X181492943Y-108070323D01*
X181494853Y-108069801D01*
X181502336Y-108069065D01*
X181511551Y-108065247D01*
X181521175Y-108062623D01*
X181524955Y-108059695D01*
X181529372Y-108057866D01*
X181536422Y-108050815D01*
X181544312Y-108044706D01*
X181546685Y-108040552D01*
X181550064Y-108037174D01*
X181553880Y-108027961D01*
X181558831Y-108019297D01*
X181559433Y-108014553D01*
X181561263Y-108010138D01*
X181561263Y-108000163D01*
X181562521Y-107990267D01*
X181561263Y-107985654D01*
X181561263Y-107980874D01*
X181557445Y-107971657D01*
X181554821Y-107962036D01*
X181551894Y-107958256D01*
X181550064Y-107953838D01*
X181543012Y-107946786D01*
X181536904Y-107938898D01*
X181530771Y-107934545D01*
X181529372Y-107933146D01*
X181527997Y-107932576D01*
X181524914Y-107930388D01*
X180970120Y-107613363D01*
X181487704Y-107613363D01*
X181502336Y-107611922D01*
X181529372Y-107600723D01*
X181550064Y-107580031D01*
X181561263Y-107552995D01*
X181561263Y-107523731D01*
X181550064Y-107496695D01*
X181529372Y-107476003D01*
X181502336Y-107464804D01*
X181487704Y-107463363D01*
X180687704Y-107463363D01*
X180683940Y-107463733D01*
X180682465Y-107463546D01*
X180680554Y-107464067D01*
X180673072Y-107464804D01*
X180663856Y-107468621D01*
X180654233Y-107471246D01*
X180650452Y-107474173D01*
X180646036Y-107476003D01*
X180638985Y-107483053D01*
X180631096Y-107489163D01*
X180628722Y-107493316D01*
X180625344Y-107496695D01*
X180621527Y-107505907D01*
X180616577Y-107514572D01*
X180615974Y-107519315D01*
X180614145Y-107523731D01*
X180614145Y-107533705D01*
X180612887Y-107543602D01*
X180257149Y-107543602D01*
X180257149Y-106966935D01*
X180612704Y-106966935D01*
X180612704Y-107157411D01*
X180614145Y-107172043D01*
X180625344Y-107199079D01*
X180646036Y-107219771D01*
X180673072Y-107230970D01*
X180687704Y-107232411D01*
X181487704Y-107232411D01*
X181502336Y-107230970D01*
X181529372Y-107219771D01*
X181550064Y-107199079D01*
X181561263Y-107172043D01*
X181562704Y-107157411D01*
X181562704Y-106966935D01*
X181561974Y-106959529D01*
X181562115Y-106957555D01*
X181561524Y-106954957D01*
X181561263Y-106952303D01*
X181560504Y-106950471D01*
X181558855Y-106943218D01*
X181520760Y-106828932D01*
X181514766Y-106815507D01*
X181513002Y-106813473D01*
X181511970Y-106810981D01*
X181502642Y-106799616D01*
X181426452Y-106723426D01*
X181420702Y-106718707D01*
X181419403Y-106717209D01*
X181417143Y-106715787D01*
X181415087Y-106714099D01*
X181413259Y-106713341D01*
X181406960Y-106709377D01*
X181330769Y-106671282D01*
X181329699Y-106670872D01*
X181329264Y-106670550D01*
X181323112Y-106668351D01*
X181317037Y-106666027D01*
X181316498Y-106665988D01*
X181315419Y-106665603D01*
X181163038Y-106627507D01*
X181160499Y-106627131D01*
X181159479Y-106626709D01*
X181153967Y-106626166D01*
X181148493Y-106625357D01*
X181147400Y-106625519D01*
X181144847Y-106625268D01*
X181030561Y-106625268D01*
X181028007Y-106625519D01*
X181026915Y-106625357D01*
X181021441Y-106626166D01*
X181015929Y-106626709D01*
X181014907Y-106627131D01*
X181012371Y-106627507D01*
X180859989Y-106665603D01*
X180858909Y-106665988D01*
X180858371Y-106666027D01*
X180852295Y-106668351D01*
X180846144Y-106670550D01*
X180845708Y-106670872D01*
X180844639Y-106671282D01*
X180768449Y-106709377D01*
X180762154Y-106713339D01*
X180760322Y-106714098D01*
X180758260Y-106715789D01*
X180756006Y-106717209D01*
X180754707Y-106718705D01*
X180748957Y-106723426D01*
X180672767Y-106799616D01*
X180663440Y-106810981D01*
X180662409Y-106813469D01*
X180660643Y-106815506D01*
X180654649Y-106828932D01*
X180616553Y-106943218D01*
X180614903Y-106950472D01*
X180614145Y-106952303D01*
X180613883Y-106954956D01*
X180613293Y-106957554D01*
X180613433Y-106959529D01*
X180612704Y-106966935D01*
X180257149Y-106966935D01*
X180257149Y-106243126D01*
X180346038Y-106243126D01*
X180346038Y-106433602D01*
X180347479Y-106448234D01*
X180358678Y-106475270D01*
X180379370Y-106495962D01*
X180406406Y-106507161D01*
X180435670Y-106507161D01*
X180462706Y-106495962D01*
X180483398Y-106475270D01*
X180494597Y-106448234D01*
X180496038Y-106433602D01*
X180496038Y-106318126D01*
X181488895Y-106318126D01*
X181488895Y-106433602D01*
X181490336Y-106448234D01*
X181501535Y-106475270D01*
X181522227Y-106495962D01*
X181549263Y-106507161D01*
X181578527Y-106507161D01*
X181605563Y-106495962D01*
X181626255Y-106475270D01*
X181637454Y-106448234D01*
X181638895Y-106433602D01*
X181638895Y-106243126D01*
X181637454Y-106228494D01*
X181626255Y-106201458D01*
X181605563Y-106180766D01*
X181578527Y-106169567D01*
X181563895Y-106168126D01*
X180421038Y-106168126D01*
X180406406Y-106169567D01*
X180379370Y-106180766D01*
X180358678Y-106201458D01*
X180347479Y-106228494D01*
X180346038Y-106243126D01*
X180257149Y-106243126D01*
X180257149Y-106079237D01*
X181727784Y-106079237D01*
X181727784Y-109454633D01*
G37*
G36*
X180986133Y-100678573D02*
G01*
X181003105Y-100695544D01*
X181031752Y-100781485D01*
X181031752Y-100960982D01*
X180762704Y-100960982D01*
X180762704Y-100748926D01*
X180787438Y-100699458D01*
X180808321Y-100678574D01*
X180857791Y-100653839D01*
X180936665Y-100653839D01*
X180986133Y-100678573D01*
G37*
G36*
X181367087Y-100716669D02*
G01*
X181387969Y-100737551D01*
X181412704Y-100787020D01*
X181412704Y-100960982D01*
X181181752Y-100960982D01*
X181181752Y-100787020D01*
X181206486Y-100737551D01*
X181227368Y-100716669D01*
X181276838Y-100691935D01*
X181317618Y-100691935D01*
X181367087Y-100716669D01*
G37*
G36*
X181727784Y-102304633D02*
G01*
X180257149Y-102304633D01*
X180257149Y-101950268D01*
X180346038Y-101950268D01*
X180346038Y-102140744D01*
X180347479Y-102155376D01*
X180358678Y-102182412D01*
X180379370Y-102203104D01*
X180406406Y-102214303D01*
X180421038Y-102215744D01*
X181563895Y-102215744D01*
X181578527Y-102214303D01*
X181605563Y-102203104D01*
X181626255Y-102182412D01*
X181637454Y-102155376D01*
X181638895Y-102140744D01*
X181638895Y-101950268D01*
X181637454Y-101935636D01*
X181626255Y-101908600D01*
X181605563Y-101887908D01*
X181578527Y-101876709D01*
X181549263Y-101876709D01*
X181522227Y-101887908D01*
X181501535Y-101908600D01*
X181490336Y-101935636D01*
X181488895Y-101950268D01*
X181488895Y-102065744D01*
X180496038Y-102065744D01*
X180496038Y-101950268D01*
X180494597Y-101935636D01*
X180483398Y-101908600D01*
X180462706Y-101887908D01*
X180435670Y-101876709D01*
X180406406Y-101876709D01*
X180379370Y-101887908D01*
X180358678Y-101908600D01*
X180347479Y-101935636D01*
X180346038Y-101950268D01*
X180257149Y-101950268D01*
X180257149Y-100731220D01*
X180612704Y-100731220D01*
X180612704Y-101035982D01*
X180614145Y-101050614D01*
X180625344Y-101077650D01*
X180646036Y-101098342D01*
X180673072Y-101109541D01*
X180687704Y-101110982D01*
X181487704Y-101110982D01*
X181502336Y-101109541D01*
X181529372Y-101098342D01*
X181550064Y-101077650D01*
X181561263Y-101050614D01*
X181562704Y-101035982D01*
X181562704Y-100769316D01*
X181561263Y-100754684D01*
X181560231Y-100752194D01*
X181560041Y-100749507D01*
X181554786Y-100735775D01*
X181516691Y-100659584D01*
X181512726Y-100653284D01*
X181511969Y-100651457D01*
X181510280Y-100649400D01*
X181508859Y-100647141D01*
X181507360Y-100645841D01*
X181502642Y-100640092D01*
X181464547Y-100601997D01*
X181458797Y-100597278D01*
X181457498Y-100595780D01*
X181455238Y-100594358D01*
X181453182Y-100592670D01*
X181451354Y-100591912D01*
X181445055Y-100587948D01*
X181368864Y-100549853D01*
X181355132Y-100544598D01*
X181352444Y-100544407D01*
X181349955Y-100543376D01*
X181335323Y-100541935D01*
X181259133Y-100541935D01*
X181244501Y-100543376D01*
X181242011Y-100544407D01*
X181239324Y-100544598D01*
X181225592Y-100549853D01*
X181149401Y-100587948D01*
X181143101Y-100591912D01*
X181141274Y-100592670D01*
X181139217Y-100594358D01*
X181136958Y-100595780D01*
X181135658Y-100597278D01*
X181129909Y-100601997D01*
X181125394Y-100606511D01*
X181121689Y-100601996D01*
X181083593Y-100563901D01*
X181077841Y-100559180D01*
X181076545Y-100557686D01*
X181074291Y-100556267D01*
X181072228Y-100554574D01*
X181070396Y-100553815D01*
X181064102Y-100549853D01*
X180987913Y-100511757D01*
X180974181Y-100506502D01*
X180971491Y-100506310D01*
X180969003Y-100505280D01*
X180954371Y-100503839D01*
X180840085Y-100503839D01*
X180825453Y-100505280D01*
X180822961Y-100506312D01*
X180820275Y-100506503D01*
X180806543Y-100511758D01*
X180730353Y-100549853D01*
X180724055Y-100553817D01*
X180722227Y-100554575D01*
X180720166Y-100556266D01*
X180717911Y-100557686D01*
X180716614Y-100559181D01*
X180710862Y-100563902D01*
X180672767Y-100601997D01*
X180668046Y-100607749D01*
X180666551Y-100609046D01*
X180665131Y-100611300D01*
X180663440Y-100613362D01*
X180662681Y-100615192D01*
X180658718Y-100621489D01*
X180620622Y-100697678D01*
X180615367Y-100711410D01*
X180615175Y-100714099D01*
X180614145Y-100716588D01*
X180612704Y-100731220D01*
X180257149Y-100731220D01*
X180257149Y-99512173D01*
X180346038Y-99512173D01*
X180346038Y-99702649D01*
X180347479Y-99717281D01*
X180358678Y-99744317D01*
X180379370Y-99765009D01*
X180406406Y-99776208D01*
X180435670Y-99776208D01*
X180462706Y-99765009D01*
X180483398Y-99744317D01*
X180494597Y-99717281D01*
X180496038Y-99702649D01*
X180496038Y-99587173D01*
X181488895Y-99587173D01*
X181488895Y-99702649D01*
X181490336Y-99717281D01*
X181501535Y-99744317D01*
X181522227Y-99765009D01*
X181549263Y-99776208D01*
X181578527Y-99776208D01*
X181605563Y-99765009D01*
X181626255Y-99744317D01*
X181637454Y-99717281D01*
X181638895Y-99702649D01*
X181638895Y-99512173D01*
X181637454Y-99497541D01*
X181626255Y-99470505D01*
X181605563Y-99449813D01*
X181578527Y-99438614D01*
X181563895Y-99437173D01*
X180421038Y-99437173D01*
X180406406Y-99438614D01*
X180379370Y-99449813D01*
X180358678Y-99470505D01*
X180347479Y-99497541D01*
X180346038Y-99512173D01*
X180257149Y-99512173D01*
X180257149Y-99348284D01*
X181727784Y-99348284D01*
X181727784Y-102304633D01*
G37*
D11*
G36*
X181296407Y-104353337D02*
G01*
X180974716Y-104460568D01*
X180974716Y-104246107D01*
X181296407Y-104353337D01*
G37*
G36*
X181711224Y-105759370D02*
G01*
X180270589Y-105759370D01*
X180270589Y-105420005D01*
X180359478Y-105420005D01*
X180359478Y-105610481D01*
X180364045Y-105633442D01*
X180396517Y-105665914D01*
X180419478Y-105670481D01*
X181562335Y-105670481D01*
X181585296Y-105665914D01*
X181617768Y-105633442D01*
X181622335Y-105610481D01*
X181622335Y-105420005D01*
X181617768Y-105397044D01*
X181585296Y-105364572D01*
X181539374Y-105364572D01*
X181506902Y-105397044D01*
X181502335Y-105420005D01*
X181502335Y-105550481D01*
X180479478Y-105550481D01*
X180479478Y-105420005D01*
X180474911Y-105397044D01*
X180442439Y-105364572D01*
X180396517Y-105364572D01*
X180364045Y-105397044D01*
X180359478Y-105420005D01*
X180270589Y-105420005D01*
X180270589Y-104090925D01*
X180626295Y-104090925D01*
X180646832Y-104131999D01*
X180667170Y-104143593D01*
X180854716Y-104206108D01*
X180854716Y-104500568D01*
X180667170Y-104563084D01*
X180646832Y-104574678D01*
X180626295Y-104615752D01*
X180640817Y-104659317D01*
X180681891Y-104679854D01*
X180705118Y-104676926D01*
X181505118Y-104410259D01*
X181525456Y-104398665D01*
X181527460Y-104394655D01*
X181531472Y-104392650D01*
X181537488Y-104374600D01*
X181545993Y-104357591D01*
X181544575Y-104353338D01*
X181545993Y-104349085D01*
X181537486Y-104332071D01*
X181531471Y-104314026D01*
X181527461Y-104312021D01*
X181525456Y-104308011D01*
X181505118Y-104296417D01*
X180705118Y-104029751D01*
X180681891Y-104026823D01*
X180640817Y-104047360D01*
X180626295Y-104090925D01*
X180270589Y-104090925D01*
X180270589Y-103096196D01*
X180359478Y-103096196D01*
X180359478Y-103286672D01*
X180364045Y-103309633D01*
X180396517Y-103342105D01*
X180442439Y-103342105D01*
X180474911Y-103309633D01*
X180479478Y-103286672D01*
X180479478Y-103156196D01*
X181502335Y-103156196D01*
X181502335Y-103286672D01*
X181506902Y-103309633D01*
X181539374Y-103342105D01*
X181585296Y-103342105D01*
X181617768Y-103309633D01*
X181622335Y-103286672D01*
X181622335Y-103096196D01*
X181617768Y-103073235D01*
X181585296Y-103040763D01*
X181562335Y-103036196D01*
X180419478Y-103036196D01*
X180396517Y-103040763D01*
X180364045Y-103073235D01*
X180359478Y-103096196D01*
X180270589Y-103096196D01*
X180270589Y-102947307D01*
X181711224Y-102947307D01*
X181711224Y-105759370D01*
G37*
D10*
X173002839Y-114282216D02*
X172526649Y-114282216D01*
X173098077Y-114567931D02*
X172764744Y-113567931D01*
X172764744Y-113567931D02*
X172431411Y-114567931D01*
X171669506Y-113901264D02*
X171669506Y-114901264D01*
X171669506Y-114520312D02*
X171764744Y-114567931D01*
X171764744Y-114567931D02*
X171955220Y-114567931D01*
X171955220Y-114567931D02*
X172050458Y-114520312D01*
X172050458Y-114520312D02*
X172098077Y-114472692D01*
X172098077Y-114472692D02*
X172145696Y-114377454D01*
X172145696Y-114377454D02*
X172145696Y-114091740D01*
X172145696Y-114091740D02*
X172098077Y-113996502D01*
X172098077Y-113996502D02*
X172050458Y-113948883D01*
X172050458Y-113948883D02*
X171955220Y-113901264D01*
X171955220Y-113901264D02*
X171764744Y-113901264D01*
X171764744Y-113901264D02*
X171669506Y-113948883D01*
X170764744Y-113901264D02*
X170764744Y-114567931D01*
X171193315Y-113901264D02*
X171193315Y-114425073D01*
X171193315Y-114425073D02*
X171145696Y-114520312D01*
X171145696Y-114520312D02*
X171050458Y-114567931D01*
X171050458Y-114567931D02*
X170907601Y-114567931D01*
X170907601Y-114567931D02*
X170812363Y-114520312D01*
X170812363Y-114520312D02*
X170764744Y-114472692D01*
X169859982Y-114567931D02*
X169859982Y-114044121D01*
X169859982Y-114044121D02*
X169907601Y-113948883D01*
X169907601Y-113948883D02*
X170002839Y-113901264D01*
X170002839Y-113901264D02*
X170193315Y-113901264D01*
X170193315Y-113901264D02*
X170288553Y-113948883D01*
X169859982Y-114520312D02*
X169955220Y-114567931D01*
X169955220Y-114567931D02*
X170193315Y-114567931D01*
X170193315Y-114567931D02*
X170288553Y-114520312D01*
X170288553Y-114520312D02*
X170336172Y-114425073D01*
X170336172Y-114425073D02*
X170336172Y-114329835D01*
X170336172Y-114329835D02*
X170288553Y-114234597D01*
X170288553Y-114234597D02*
X170193315Y-114186978D01*
X170193315Y-114186978D02*
X169955220Y-114186978D01*
X169955220Y-114186978D02*
X169859982Y-114139359D01*
X169240934Y-114567931D02*
X169336172Y-114520312D01*
X169336172Y-114520312D02*
X169383791Y-114425073D01*
X169383791Y-114425073D02*
X169383791Y-113567931D01*
X168859981Y-114567931D02*
X168859981Y-113901264D01*
X168859981Y-113567931D02*
X168907600Y-113615550D01*
X168907600Y-113615550D02*
X168859981Y-113663169D01*
X168859981Y-113663169D02*
X168812362Y-113615550D01*
X168812362Y-113615550D02*
X168859981Y-113567931D01*
X168859981Y-113567931D02*
X168859981Y-113663169D01*
X168383791Y-113901264D02*
X168383791Y-114567931D01*
X168383791Y-113996502D02*
X168336172Y-113948883D01*
X168336172Y-113948883D02*
X168240934Y-113901264D01*
X168240934Y-113901264D02*
X168098077Y-113901264D01*
X168098077Y-113901264D02*
X168002839Y-113948883D01*
X168002839Y-113948883D02*
X167955220Y-114044121D01*
X167955220Y-114044121D02*
X167955220Y-114567931D01*
X167479029Y-114567931D02*
X167479029Y-113567931D01*
X167383791Y-114186978D02*
X167098077Y-114567931D01*
X167098077Y-113901264D02*
X167479029Y-114282216D01*
X166669505Y-114567931D02*
X166669505Y-113567931D01*
X166669505Y-113567931D02*
X166431410Y-113567931D01*
X166431410Y-113567931D02*
X166288553Y-113615550D01*
X166288553Y-113615550D02*
X166193315Y-113710788D01*
X166193315Y-113710788D02*
X166145696Y-113806026D01*
X166145696Y-113806026D02*
X166098077Y-113996502D01*
X166098077Y-113996502D02*
X166098077Y-114139359D01*
X166098077Y-114139359D02*
X166145696Y-114329835D01*
X166145696Y-114329835D02*
X166193315Y-114425073D01*
X166193315Y-114425073D02*
X166288553Y-114520312D01*
X166288553Y-114520312D02*
X166431410Y-114567931D01*
X166431410Y-114567931D02*
X166669505Y-114567931D01*
X164907600Y-114567931D02*
X164907600Y-113567931D01*
X164431410Y-113901264D02*
X164431410Y-114567931D01*
X164431410Y-113996502D02*
X164383791Y-113948883D01*
X164383791Y-113948883D02*
X164288553Y-113901264D01*
X164288553Y-113901264D02*
X164145696Y-113901264D01*
X164145696Y-113901264D02*
X164050458Y-113948883D01*
X164050458Y-113948883D02*
X164002839Y-114044121D01*
X164002839Y-114044121D02*
X164002839Y-114567931D01*
X163669505Y-113901264D02*
X163288553Y-113901264D01*
X163526648Y-113567931D02*
X163526648Y-114425073D01*
X163526648Y-114425073D02*
X163479029Y-114520312D01*
X163479029Y-114520312D02*
X163383791Y-114567931D01*
X163383791Y-114567931D02*
X163288553Y-114567931D01*
X162574267Y-114520312D02*
X162669505Y-114567931D01*
X162669505Y-114567931D02*
X162859981Y-114567931D01*
X162859981Y-114567931D02*
X162955219Y-114520312D01*
X162955219Y-114520312D02*
X163002838Y-114425073D01*
X163002838Y-114425073D02*
X163002838Y-114044121D01*
X163002838Y-114044121D02*
X162955219Y-113948883D01*
X162955219Y-113948883D02*
X162859981Y-113901264D01*
X162859981Y-113901264D02*
X162669505Y-113901264D01*
X162669505Y-113901264D02*
X162574267Y-113948883D01*
X162574267Y-113948883D02*
X162526648Y-114044121D01*
X162526648Y-114044121D02*
X162526648Y-114139359D01*
X162526648Y-114139359D02*
X163002838Y-114234597D01*
X162098076Y-114567931D02*
X162098076Y-113901264D01*
X162098076Y-114091740D02*
X162050457Y-113996502D01*
X162050457Y-113996502D02*
X162002838Y-113948883D01*
X162002838Y-113948883D02*
X161907600Y-113901264D01*
X161907600Y-113901264D02*
X161812362Y-113901264D01*
X161621885Y-113901264D02*
X161240933Y-113901264D01*
X161479028Y-114567931D02*
X161479028Y-113710788D01*
X161479028Y-113710788D02*
X161431409Y-113615550D01*
X161431409Y-113615550D02*
X161336171Y-113567931D01*
X161336171Y-113567931D02*
X161240933Y-113567931D01*
X160479028Y-114567931D02*
X160479028Y-114044121D01*
X160479028Y-114044121D02*
X160526647Y-113948883D01*
X160526647Y-113948883D02*
X160621885Y-113901264D01*
X160621885Y-113901264D02*
X160812361Y-113901264D01*
X160812361Y-113901264D02*
X160907599Y-113948883D01*
X160479028Y-114520312D02*
X160574266Y-114567931D01*
X160574266Y-114567931D02*
X160812361Y-114567931D01*
X160812361Y-114567931D02*
X160907599Y-114520312D01*
X160907599Y-114520312D02*
X160955218Y-114425073D01*
X160955218Y-114425073D02*
X160955218Y-114329835D01*
X160955218Y-114329835D02*
X160907599Y-114234597D01*
X160907599Y-114234597D02*
X160812361Y-114186978D01*
X160812361Y-114186978D02*
X160574266Y-114186978D01*
X160574266Y-114186978D02*
X160479028Y-114139359D01*
X159574266Y-114520312D02*
X159669504Y-114567931D01*
X159669504Y-114567931D02*
X159859980Y-114567931D01*
X159859980Y-114567931D02*
X159955218Y-114520312D01*
X159955218Y-114520312D02*
X160002837Y-114472692D01*
X160002837Y-114472692D02*
X160050456Y-114377454D01*
X160050456Y-114377454D02*
X160050456Y-114091740D01*
X160050456Y-114091740D02*
X160002837Y-113996502D01*
X160002837Y-113996502D02*
X159955218Y-113948883D01*
X159955218Y-113948883D02*
X159859980Y-113901264D01*
X159859980Y-113901264D02*
X159669504Y-113901264D01*
X159669504Y-113901264D02*
X159574266Y-113948883D01*
X158764742Y-114520312D02*
X158859980Y-114567931D01*
X158859980Y-114567931D02*
X159050456Y-114567931D01*
X159050456Y-114567931D02*
X159145694Y-114520312D01*
X159145694Y-114520312D02*
X159193313Y-114425073D01*
X159193313Y-114425073D02*
X159193313Y-114044121D01*
X159193313Y-114044121D02*
X159145694Y-113948883D01*
X159145694Y-113948883D02*
X159050456Y-113901264D01*
X159050456Y-113901264D02*
X158859980Y-113901264D01*
X158859980Y-113901264D02*
X158764742Y-113948883D01*
X158764742Y-113948883D02*
X158717123Y-114044121D01*
X158717123Y-114044121D02*
X158717123Y-114139359D01*
X158717123Y-114139359D02*
X159193313Y-114234597D01*
X157526646Y-114567931D02*
X157526646Y-113567931D01*
X157526646Y-113567931D02*
X157145694Y-113567931D01*
X157145694Y-113567931D02*
X157050456Y-113615550D01*
X157050456Y-113615550D02*
X157002837Y-113663169D01*
X157002837Y-113663169D02*
X156955218Y-113758407D01*
X156955218Y-113758407D02*
X156955218Y-113901264D01*
X156955218Y-113901264D02*
X157002837Y-113996502D01*
X157002837Y-113996502D02*
X157050456Y-114044121D01*
X157050456Y-114044121D02*
X157145694Y-114091740D01*
X157145694Y-114091740D02*
X157526646Y-114091740D01*
X156526646Y-114567931D02*
X156526646Y-113901264D01*
X156526646Y-113567931D02*
X156574265Y-113615550D01*
X156574265Y-113615550D02*
X156526646Y-113663169D01*
X156526646Y-113663169D02*
X156479027Y-113615550D01*
X156479027Y-113615550D02*
X156526646Y-113567931D01*
X156526646Y-113567931D02*
X156526646Y-113663169D01*
X156050456Y-114186978D02*
X155288552Y-114186978D01*
X154812361Y-114567931D02*
X154812361Y-113567931D01*
X154812361Y-114044121D02*
X154240933Y-114044121D01*
X154240933Y-114567931D02*
X154240933Y-113567931D01*
X153812361Y-114282216D02*
X153336171Y-114282216D01*
X153907599Y-114567931D02*
X153574266Y-113567931D01*
X153574266Y-113567931D02*
X153240933Y-114567931D01*
X153050456Y-113567931D02*
X152479028Y-113567931D01*
X152764742Y-114567931D02*
X152764742Y-113567931D01*
X151479027Y-113901264D02*
X151240932Y-114567931D01*
X151240932Y-114567931D02*
X151002837Y-113901264D01*
X150669503Y-113663169D02*
X150621884Y-113615550D01*
X150621884Y-113615550D02*
X150526646Y-113567931D01*
X150526646Y-113567931D02*
X150288551Y-113567931D01*
X150288551Y-113567931D02*
X150193313Y-113615550D01*
X150193313Y-113615550D02*
X150145694Y-113663169D01*
X150145694Y-113663169D02*
X150098075Y-113758407D01*
X150098075Y-113758407D02*
X150098075Y-113853645D01*
X150098075Y-113853645D02*
X150145694Y-113996502D01*
X150145694Y-113996502D02*
X150717122Y-114567931D01*
X150717122Y-114567931D02*
X150098075Y-114567931D01*
X149669503Y-114472692D02*
X149621884Y-114520312D01*
X149621884Y-114520312D02*
X149669503Y-114567931D01*
X149669503Y-114567931D02*
X149717122Y-114520312D01*
X149717122Y-114520312D02*
X149669503Y-114472692D01*
X149669503Y-114472692D02*
X149669503Y-114567931D01*
X149002837Y-113567931D02*
X148907599Y-113567931D01*
X148907599Y-113567931D02*
X148812361Y-113615550D01*
X148812361Y-113615550D02*
X148764742Y-113663169D01*
X148764742Y-113663169D02*
X148717123Y-113758407D01*
X148717123Y-113758407D02*
X148669504Y-113948883D01*
X148669504Y-113948883D02*
X148669504Y-114186978D01*
X148669504Y-114186978D02*
X148717123Y-114377454D01*
X148717123Y-114377454D02*
X148764742Y-114472692D01*
X148764742Y-114472692D02*
X148812361Y-114520312D01*
X148812361Y-114520312D02*
X148907599Y-114567931D01*
X148907599Y-114567931D02*
X149002837Y-114567931D01*
X149002837Y-114567931D02*
X149098075Y-114520312D01*
X149098075Y-114520312D02*
X149145694Y-114472692D01*
X149145694Y-114472692D02*
X149193313Y-114377454D01*
X149193313Y-114377454D02*
X149240932Y-114186978D01*
X149240932Y-114186978D02*
X149240932Y-113948883D01*
X149240932Y-113948883D02*
X149193313Y-113758407D01*
X149193313Y-113758407D02*
X149145694Y-113663169D01*
X149145694Y-113663169D02*
X149098075Y-113615550D01*
X149098075Y-113615550D02*
X149002837Y-113567931D01*
X172526649Y-116130256D02*
X172621887Y-116177875D01*
X172621887Y-116177875D02*
X172812363Y-116177875D01*
X172812363Y-116177875D02*
X172907601Y-116130256D01*
X172907601Y-116130256D02*
X172955220Y-116082636D01*
X172955220Y-116082636D02*
X173002839Y-115987398D01*
X173002839Y-115987398D02*
X173002839Y-115701684D01*
X173002839Y-115701684D02*
X172955220Y-115606446D01*
X172955220Y-115606446D02*
X172907601Y-115558827D01*
X172907601Y-115558827D02*
X172812363Y-115511208D01*
X172812363Y-115511208D02*
X172621887Y-115511208D01*
X172621887Y-115511208D02*
X172526649Y-115558827D01*
X172098077Y-116177875D02*
X172098077Y-115177875D01*
X171669506Y-116177875D02*
X171669506Y-115654065D01*
X171669506Y-115654065D02*
X171717125Y-115558827D01*
X171717125Y-115558827D02*
X171812363Y-115511208D01*
X171812363Y-115511208D02*
X171955220Y-115511208D01*
X171955220Y-115511208D02*
X172050458Y-115558827D01*
X172050458Y-115558827D02*
X172098077Y-115606446D01*
X171193315Y-116177875D02*
X171193315Y-115511208D01*
X171193315Y-115701684D02*
X171145696Y-115606446D01*
X171145696Y-115606446D02*
X171098077Y-115558827D01*
X171098077Y-115558827D02*
X171002839Y-115511208D01*
X171002839Y-115511208D02*
X170907601Y-115511208D01*
X170574267Y-116177875D02*
X170574267Y-115511208D01*
X170574267Y-115177875D02*
X170621886Y-115225494D01*
X170621886Y-115225494D02*
X170574267Y-115273113D01*
X170574267Y-115273113D02*
X170526648Y-115225494D01*
X170526648Y-115225494D02*
X170574267Y-115177875D01*
X170574267Y-115177875D02*
X170574267Y-115273113D01*
X170145696Y-116130256D02*
X170050458Y-116177875D01*
X170050458Y-116177875D02*
X169859982Y-116177875D01*
X169859982Y-116177875D02*
X169764744Y-116130256D01*
X169764744Y-116130256D02*
X169717125Y-116035017D01*
X169717125Y-116035017D02*
X169717125Y-115987398D01*
X169717125Y-115987398D02*
X169764744Y-115892160D01*
X169764744Y-115892160D02*
X169859982Y-115844541D01*
X169859982Y-115844541D02*
X170002839Y-115844541D01*
X170002839Y-115844541D02*
X170098077Y-115796922D01*
X170098077Y-115796922D02*
X170145696Y-115701684D01*
X170145696Y-115701684D02*
X170145696Y-115654065D01*
X170145696Y-115654065D02*
X170098077Y-115558827D01*
X170098077Y-115558827D02*
X170002839Y-115511208D01*
X170002839Y-115511208D02*
X169859982Y-115511208D01*
X169859982Y-115511208D02*
X169764744Y-115558827D01*
X168859982Y-116177875D02*
X168859982Y-115177875D01*
X168859982Y-116130256D02*
X168955220Y-116177875D01*
X168955220Y-116177875D02*
X169145696Y-116177875D01*
X169145696Y-116177875D02*
X169240934Y-116130256D01*
X169240934Y-116130256D02*
X169288553Y-116082636D01*
X169288553Y-116082636D02*
X169336172Y-115987398D01*
X169336172Y-115987398D02*
X169336172Y-115701684D01*
X169336172Y-115701684D02*
X169288553Y-115606446D01*
X169288553Y-115606446D02*
X169240934Y-115558827D01*
X169240934Y-115558827D02*
X169145696Y-115511208D01*
X169145696Y-115511208D02*
X168955220Y-115511208D01*
X168955220Y-115511208D02*
X168859982Y-115558827D01*
X167955220Y-116177875D02*
X167955220Y-115654065D01*
X167955220Y-115654065D02*
X168002839Y-115558827D01*
X168002839Y-115558827D02*
X168098077Y-115511208D01*
X168098077Y-115511208D02*
X168288553Y-115511208D01*
X168288553Y-115511208D02*
X168383791Y-115558827D01*
X167955220Y-116130256D02*
X168050458Y-116177875D01*
X168050458Y-116177875D02*
X168288553Y-116177875D01*
X168288553Y-116177875D02*
X168383791Y-116130256D01*
X168383791Y-116130256D02*
X168431410Y-116035017D01*
X168431410Y-116035017D02*
X168431410Y-115939779D01*
X168431410Y-115939779D02*
X168383791Y-115844541D01*
X168383791Y-115844541D02*
X168288553Y-115796922D01*
X168288553Y-115796922D02*
X168050458Y-115796922D01*
X168050458Y-115796922D02*
X167955220Y-115749303D01*
X167050458Y-115511208D02*
X167050458Y-116177875D01*
X167479029Y-115511208D02*
X167479029Y-116035017D01*
X167479029Y-116035017D02*
X167431410Y-116130256D01*
X167431410Y-116130256D02*
X167336172Y-116177875D01*
X167336172Y-116177875D02*
X167193315Y-116177875D01*
X167193315Y-116177875D02*
X167098077Y-116130256D01*
X167098077Y-116130256D02*
X167050458Y-116082636D01*
X166574267Y-115511208D02*
X166574267Y-116177875D01*
X166574267Y-115606446D02*
X166526648Y-115558827D01*
X166526648Y-115558827D02*
X166431410Y-115511208D01*
X166431410Y-115511208D02*
X166288553Y-115511208D01*
X166288553Y-115511208D02*
X166193315Y-115558827D01*
X166193315Y-115558827D02*
X166145696Y-115654065D01*
X166145696Y-115654065D02*
X166145696Y-116177875D01*
X165050458Y-115701684D02*
X165098077Y-115654065D01*
X165098077Y-115654065D02*
X165193315Y-115606446D01*
X165193315Y-115606446D02*
X165288553Y-115606446D01*
X165288553Y-115606446D02*
X165383791Y-115654065D01*
X165383791Y-115654065D02*
X165431410Y-115701684D01*
X165431410Y-115701684D02*
X165479029Y-115796922D01*
X165479029Y-115796922D02*
X165479029Y-115892160D01*
X165479029Y-115892160D02*
X165431410Y-115987398D01*
X165431410Y-115987398D02*
X165383791Y-116035017D01*
X165383791Y-116035017D02*
X165288553Y-116082636D01*
X165288553Y-116082636D02*
X165193315Y-116082636D01*
X165193315Y-116082636D02*
X165098077Y-116035017D01*
X165098077Y-116035017D02*
X165050458Y-115987398D01*
X165050458Y-115606446D02*
X165050458Y-115987398D01*
X165050458Y-115987398D02*
X165002839Y-116035017D01*
X165002839Y-116035017D02*
X164955220Y-116035017D01*
X164955220Y-116035017D02*
X164859981Y-115987398D01*
X164859981Y-115987398D02*
X164812362Y-115892160D01*
X164812362Y-115892160D02*
X164812362Y-115654065D01*
X164812362Y-115654065D02*
X164907601Y-115511208D01*
X164907601Y-115511208D02*
X165050458Y-115415970D01*
X165050458Y-115415970D02*
X165240934Y-115368351D01*
X165240934Y-115368351D02*
X165431410Y-115415970D01*
X165431410Y-115415970D02*
X165574267Y-115511208D01*
X165574267Y-115511208D02*
X165669505Y-115654065D01*
X165669505Y-115654065D02*
X165717124Y-115844541D01*
X165717124Y-115844541D02*
X165669505Y-116035017D01*
X165669505Y-116035017D02*
X165574267Y-116177875D01*
X165574267Y-116177875D02*
X165431410Y-116273113D01*
X165431410Y-116273113D02*
X165240934Y-116320732D01*
X165240934Y-116320732D02*
X165050458Y-116273113D01*
X165050458Y-116273113D02*
X164907601Y-116177875D01*
X163955220Y-115511208D02*
X163955220Y-116320732D01*
X163955220Y-116320732D02*
X164002839Y-116415970D01*
X164002839Y-116415970D02*
X164050458Y-116463589D01*
X164050458Y-116463589D02*
X164145696Y-116511208D01*
X164145696Y-116511208D02*
X164288553Y-116511208D01*
X164288553Y-116511208D02*
X164383791Y-116463589D01*
X163955220Y-116130256D02*
X164050458Y-116177875D01*
X164050458Y-116177875D02*
X164240934Y-116177875D01*
X164240934Y-116177875D02*
X164336172Y-116130256D01*
X164336172Y-116130256D02*
X164383791Y-116082636D01*
X164383791Y-116082636D02*
X164431410Y-115987398D01*
X164431410Y-115987398D02*
X164431410Y-115701684D01*
X164431410Y-115701684D02*
X164383791Y-115606446D01*
X164383791Y-115606446D02*
X164336172Y-115558827D01*
X164336172Y-115558827D02*
X164240934Y-115511208D01*
X164240934Y-115511208D02*
X164050458Y-115511208D01*
X164050458Y-115511208D02*
X163955220Y-115558827D01*
X163479029Y-116177875D02*
X163479029Y-115511208D01*
X163479029Y-115606446D02*
X163431410Y-115558827D01*
X163431410Y-115558827D02*
X163336172Y-115511208D01*
X163336172Y-115511208D02*
X163193315Y-115511208D01*
X163193315Y-115511208D02*
X163098077Y-115558827D01*
X163098077Y-115558827D02*
X163050458Y-115654065D01*
X163050458Y-115654065D02*
X163050458Y-116177875D01*
X163050458Y-115654065D02*
X163002839Y-115558827D01*
X163002839Y-115558827D02*
X162907601Y-115511208D01*
X162907601Y-115511208D02*
X162764744Y-115511208D01*
X162764744Y-115511208D02*
X162669505Y-115558827D01*
X162669505Y-115558827D02*
X162621886Y-115654065D01*
X162621886Y-115654065D02*
X162621886Y-116177875D01*
X161717125Y-116177875D02*
X161717125Y-115654065D01*
X161717125Y-115654065D02*
X161764744Y-115558827D01*
X161764744Y-115558827D02*
X161859982Y-115511208D01*
X161859982Y-115511208D02*
X162050458Y-115511208D01*
X162050458Y-115511208D02*
X162145696Y-115558827D01*
X161717125Y-116130256D02*
X161812363Y-116177875D01*
X161812363Y-116177875D02*
X162050458Y-116177875D01*
X162050458Y-116177875D02*
X162145696Y-116130256D01*
X162145696Y-116130256D02*
X162193315Y-116035017D01*
X162193315Y-116035017D02*
X162193315Y-115939779D01*
X162193315Y-115939779D02*
X162145696Y-115844541D01*
X162145696Y-115844541D02*
X162050458Y-115796922D01*
X162050458Y-115796922D02*
X161812363Y-115796922D01*
X161812363Y-115796922D02*
X161717125Y-115749303D01*
X161240934Y-116177875D02*
X161240934Y-115511208D01*
X161240934Y-115177875D02*
X161288553Y-115225494D01*
X161288553Y-115225494D02*
X161240934Y-115273113D01*
X161240934Y-115273113D02*
X161193315Y-115225494D01*
X161193315Y-115225494D02*
X161240934Y-115177875D01*
X161240934Y-115177875D02*
X161240934Y-115273113D01*
X160621887Y-116177875D02*
X160717125Y-116130256D01*
X160717125Y-116130256D02*
X160764744Y-116035017D01*
X160764744Y-116035017D02*
X160764744Y-115177875D01*
X160240934Y-116082636D02*
X160193315Y-116130256D01*
X160193315Y-116130256D02*
X160240934Y-116177875D01*
X160240934Y-116177875D02*
X160288553Y-116130256D01*
X160288553Y-116130256D02*
X160240934Y-116082636D01*
X160240934Y-116082636D02*
X160240934Y-116177875D01*
X159336173Y-116130256D02*
X159431411Y-116177875D01*
X159431411Y-116177875D02*
X159621887Y-116177875D01*
X159621887Y-116177875D02*
X159717125Y-116130256D01*
X159717125Y-116130256D02*
X159764744Y-116082636D01*
X159764744Y-116082636D02*
X159812363Y-115987398D01*
X159812363Y-115987398D02*
X159812363Y-115701684D01*
X159812363Y-115701684D02*
X159764744Y-115606446D01*
X159764744Y-115606446D02*
X159717125Y-115558827D01*
X159717125Y-115558827D02*
X159621887Y-115511208D01*
X159621887Y-115511208D02*
X159431411Y-115511208D01*
X159431411Y-115511208D02*
X159336173Y-115558827D01*
X158764744Y-116177875D02*
X158859982Y-116130256D01*
X158859982Y-116130256D02*
X158907601Y-116082636D01*
X158907601Y-116082636D02*
X158955220Y-115987398D01*
X158955220Y-115987398D02*
X158955220Y-115701684D01*
X158955220Y-115701684D02*
X158907601Y-115606446D01*
X158907601Y-115606446D02*
X158859982Y-115558827D01*
X158859982Y-115558827D02*
X158764744Y-115511208D01*
X158764744Y-115511208D02*
X158621887Y-115511208D01*
X158621887Y-115511208D02*
X158526649Y-115558827D01*
X158526649Y-115558827D02*
X158479030Y-115606446D01*
X158479030Y-115606446D02*
X158431411Y-115701684D01*
X158431411Y-115701684D02*
X158431411Y-115987398D01*
X158431411Y-115987398D02*
X158479030Y-116082636D01*
X158479030Y-116082636D02*
X158526649Y-116130256D01*
X158526649Y-116130256D02*
X158621887Y-116177875D01*
X158621887Y-116177875D02*
X158764744Y-116177875D01*
X158002839Y-116177875D02*
X158002839Y-115511208D01*
X158002839Y-115606446D02*
X157955220Y-115558827D01*
X157955220Y-115558827D02*
X157859982Y-115511208D01*
X157859982Y-115511208D02*
X157717125Y-115511208D01*
X157717125Y-115511208D02*
X157621887Y-115558827D01*
X157621887Y-115558827D02*
X157574268Y-115654065D01*
X157574268Y-115654065D02*
X157574268Y-116177875D01*
X157574268Y-115654065D02*
X157526649Y-115558827D01*
X157526649Y-115558827D02*
X157431411Y-115511208D01*
X157431411Y-115511208D02*
X157288554Y-115511208D01*
X157288554Y-115511208D02*
X157193315Y-115558827D01*
X157193315Y-115558827D02*
X157145696Y-115654065D01*
X157145696Y-115654065D02*
X157145696Y-116177875D01*
X172955220Y-117787819D02*
X172955220Y-116787819D01*
X172526649Y-117787819D02*
X172526649Y-117264009D01*
X172526649Y-117264009D02*
X172574268Y-117168771D01*
X172574268Y-117168771D02*
X172669506Y-117121152D01*
X172669506Y-117121152D02*
X172812363Y-117121152D01*
X172812363Y-117121152D02*
X172907601Y-117168771D01*
X172907601Y-117168771D02*
X172955220Y-117216390D01*
X172193315Y-117121152D02*
X171812363Y-117121152D01*
X172050458Y-116787819D02*
X172050458Y-117644961D01*
X172050458Y-117644961D02*
X172002839Y-117740200D01*
X172002839Y-117740200D02*
X171907601Y-117787819D01*
X171907601Y-117787819D02*
X171812363Y-117787819D01*
X171621886Y-117121152D02*
X171240934Y-117121152D01*
X171479029Y-116787819D02*
X171479029Y-117644961D01*
X171479029Y-117644961D02*
X171431410Y-117740200D01*
X171431410Y-117740200D02*
X171336172Y-117787819D01*
X171336172Y-117787819D02*
X171240934Y-117787819D01*
X170907600Y-117121152D02*
X170907600Y-118121152D01*
X170907600Y-117168771D02*
X170812362Y-117121152D01*
X170812362Y-117121152D02*
X170621886Y-117121152D01*
X170621886Y-117121152D02*
X170526648Y-117168771D01*
X170526648Y-117168771D02*
X170479029Y-117216390D01*
X170479029Y-117216390D02*
X170431410Y-117311628D01*
X170431410Y-117311628D02*
X170431410Y-117597342D01*
X170431410Y-117597342D02*
X170479029Y-117692580D01*
X170479029Y-117692580D02*
X170526648Y-117740200D01*
X170526648Y-117740200D02*
X170621886Y-117787819D01*
X170621886Y-117787819D02*
X170812362Y-117787819D01*
X170812362Y-117787819D02*
X170907600Y-117740200D01*
X170050457Y-117740200D02*
X169955219Y-117787819D01*
X169955219Y-117787819D02*
X169764743Y-117787819D01*
X169764743Y-117787819D02*
X169669505Y-117740200D01*
X169669505Y-117740200D02*
X169621886Y-117644961D01*
X169621886Y-117644961D02*
X169621886Y-117597342D01*
X169621886Y-117597342D02*
X169669505Y-117502104D01*
X169669505Y-117502104D02*
X169764743Y-117454485D01*
X169764743Y-117454485D02*
X169907600Y-117454485D01*
X169907600Y-117454485D02*
X170002838Y-117406866D01*
X170002838Y-117406866D02*
X170050457Y-117311628D01*
X170050457Y-117311628D02*
X170050457Y-117264009D01*
X170050457Y-117264009D02*
X170002838Y-117168771D01*
X170002838Y-117168771D02*
X169907600Y-117121152D01*
X169907600Y-117121152D02*
X169764743Y-117121152D01*
X169764743Y-117121152D02*
X169669505Y-117168771D01*
X169193314Y-117692580D02*
X169145695Y-117740200D01*
X169145695Y-117740200D02*
X169193314Y-117787819D01*
X169193314Y-117787819D02*
X169240933Y-117740200D01*
X169240933Y-117740200D02*
X169193314Y-117692580D01*
X169193314Y-117692580D02*
X169193314Y-117787819D01*
X169193314Y-117168771D02*
X169145695Y-117216390D01*
X169145695Y-117216390D02*
X169193314Y-117264009D01*
X169193314Y-117264009D02*
X169240933Y-117216390D01*
X169240933Y-117216390D02*
X169193314Y-117168771D01*
X169193314Y-117168771D02*
X169193314Y-117264009D01*
X168002839Y-116740200D02*
X168859981Y-118025914D01*
X166955220Y-116740200D02*
X167812362Y-118025914D01*
X166193315Y-117121152D02*
X166193315Y-117930676D01*
X166193315Y-117930676D02*
X166240934Y-118025914D01*
X166240934Y-118025914D02*
X166288553Y-118073533D01*
X166288553Y-118073533D02*
X166383791Y-118121152D01*
X166383791Y-118121152D02*
X166526648Y-118121152D01*
X166526648Y-118121152D02*
X166621886Y-118073533D01*
X166193315Y-117740200D02*
X166288553Y-117787819D01*
X166288553Y-117787819D02*
X166479029Y-117787819D01*
X166479029Y-117787819D02*
X166574267Y-117740200D01*
X166574267Y-117740200D02*
X166621886Y-117692580D01*
X166621886Y-117692580D02*
X166669505Y-117597342D01*
X166669505Y-117597342D02*
X166669505Y-117311628D01*
X166669505Y-117311628D02*
X166621886Y-117216390D01*
X166621886Y-117216390D02*
X166574267Y-117168771D01*
X166574267Y-117168771D02*
X166479029Y-117121152D01*
X166479029Y-117121152D02*
X166288553Y-117121152D01*
X166288553Y-117121152D02*
X166193315Y-117168771D01*
X165717124Y-117787819D02*
X165717124Y-117121152D01*
X165717124Y-116787819D02*
X165764743Y-116835438D01*
X165764743Y-116835438D02*
X165717124Y-116883057D01*
X165717124Y-116883057D02*
X165669505Y-116835438D01*
X165669505Y-116835438D02*
X165717124Y-116787819D01*
X165717124Y-116787819D02*
X165717124Y-116883057D01*
X165383791Y-117121152D02*
X165002839Y-117121152D01*
X165240934Y-116787819D02*
X165240934Y-117644961D01*
X165240934Y-117644961D02*
X165193315Y-117740200D01*
X165193315Y-117740200D02*
X165098077Y-117787819D01*
X165098077Y-117787819D02*
X165002839Y-117787819D01*
X164669505Y-117787819D02*
X164669505Y-116787819D01*
X164240934Y-117787819D02*
X164240934Y-117264009D01*
X164240934Y-117264009D02*
X164288553Y-117168771D01*
X164288553Y-117168771D02*
X164383791Y-117121152D01*
X164383791Y-117121152D02*
X164526648Y-117121152D01*
X164526648Y-117121152D02*
X164621886Y-117168771D01*
X164621886Y-117168771D02*
X164669505Y-117216390D01*
X163336172Y-117121152D02*
X163336172Y-117787819D01*
X163764743Y-117121152D02*
X163764743Y-117644961D01*
X163764743Y-117644961D02*
X163717124Y-117740200D01*
X163717124Y-117740200D02*
X163621886Y-117787819D01*
X163621886Y-117787819D02*
X163479029Y-117787819D01*
X163479029Y-117787819D02*
X163383791Y-117740200D01*
X163383791Y-117740200D02*
X163336172Y-117692580D01*
X162859981Y-117787819D02*
X162859981Y-116787819D01*
X162859981Y-117168771D02*
X162764743Y-117121152D01*
X162764743Y-117121152D02*
X162574267Y-117121152D01*
X162574267Y-117121152D02*
X162479029Y-117168771D01*
X162479029Y-117168771D02*
X162431410Y-117216390D01*
X162431410Y-117216390D02*
X162383791Y-117311628D01*
X162383791Y-117311628D02*
X162383791Y-117597342D01*
X162383791Y-117597342D02*
X162431410Y-117692580D01*
X162431410Y-117692580D02*
X162479029Y-117740200D01*
X162479029Y-117740200D02*
X162574267Y-117787819D01*
X162574267Y-117787819D02*
X162764743Y-117787819D01*
X162764743Y-117787819D02*
X162859981Y-117740200D01*
X161955219Y-117692580D02*
X161907600Y-117740200D01*
X161907600Y-117740200D02*
X161955219Y-117787819D01*
X161955219Y-117787819D02*
X162002838Y-117740200D01*
X162002838Y-117740200D02*
X161955219Y-117692580D01*
X161955219Y-117692580D02*
X161955219Y-117787819D01*
X161050458Y-117740200D02*
X161145696Y-117787819D01*
X161145696Y-117787819D02*
X161336172Y-117787819D01*
X161336172Y-117787819D02*
X161431410Y-117740200D01*
X161431410Y-117740200D02*
X161479029Y-117692580D01*
X161479029Y-117692580D02*
X161526648Y-117597342D01*
X161526648Y-117597342D02*
X161526648Y-117311628D01*
X161526648Y-117311628D02*
X161479029Y-117216390D01*
X161479029Y-117216390D02*
X161431410Y-117168771D01*
X161431410Y-117168771D02*
X161336172Y-117121152D01*
X161336172Y-117121152D02*
X161145696Y-117121152D01*
X161145696Y-117121152D02*
X161050458Y-117168771D01*
X160479029Y-117787819D02*
X160574267Y-117740200D01*
X160574267Y-117740200D02*
X160621886Y-117692580D01*
X160621886Y-117692580D02*
X160669505Y-117597342D01*
X160669505Y-117597342D02*
X160669505Y-117311628D01*
X160669505Y-117311628D02*
X160621886Y-117216390D01*
X160621886Y-117216390D02*
X160574267Y-117168771D01*
X160574267Y-117168771D02*
X160479029Y-117121152D01*
X160479029Y-117121152D02*
X160336172Y-117121152D01*
X160336172Y-117121152D02*
X160240934Y-117168771D01*
X160240934Y-117168771D02*
X160193315Y-117216390D01*
X160193315Y-117216390D02*
X160145696Y-117311628D01*
X160145696Y-117311628D02*
X160145696Y-117597342D01*
X160145696Y-117597342D02*
X160193315Y-117692580D01*
X160193315Y-117692580D02*
X160240934Y-117740200D01*
X160240934Y-117740200D02*
X160336172Y-117787819D01*
X160336172Y-117787819D02*
X160479029Y-117787819D01*
X159717124Y-117787819D02*
X159717124Y-117121152D01*
X159717124Y-117216390D02*
X159669505Y-117168771D01*
X159669505Y-117168771D02*
X159574267Y-117121152D01*
X159574267Y-117121152D02*
X159431410Y-117121152D01*
X159431410Y-117121152D02*
X159336172Y-117168771D01*
X159336172Y-117168771D02*
X159288553Y-117264009D01*
X159288553Y-117264009D02*
X159288553Y-117787819D01*
X159288553Y-117264009D02*
X159240934Y-117168771D01*
X159240934Y-117168771D02*
X159145696Y-117121152D01*
X159145696Y-117121152D02*
X159002839Y-117121152D01*
X159002839Y-117121152D02*
X158907600Y-117168771D01*
X158907600Y-117168771D02*
X158859981Y-117264009D01*
X158859981Y-117264009D02*
X158859981Y-117787819D01*
X157669506Y-116740200D02*
X158526648Y-118025914D01*
X156907601Y-117740200D02*
X157002839Y-117787819D01*
X157002839Y-117787819D02*
X157193315Y-117787819D01*
X157193315Y-117787819D02*
X157288553Y-117740200D01*
X157288553Y-117740200D02*
X157336172Y-117692580D01*
X157336172Y-117692580D02*
X157383791Y-117597342D01*
X157383791Y-117597342D02*
X157383791Y-117311628D01*
X157383791Y-117311628D02*
X157336172Y-117216390D01*
X157336172Y-117216390D02*
X157288553Y-117168771D01*
X157288553Y-117168771D02*
X157193315Y-117121152D01*
X157193315Y-117121152D02*
X157002839Y-117121152D01*
X157002839Y-117121152D02*
X156907601Y-117168771D01*
X156479029Y-117787819D02*
X156479029Y-116787819D01*
X156050458Y-117787819D02*
X156050458Y-117264009D01*
X156050458Y-117264009D02*
X156098077Y-117168771D01*
X156098077Y-117168771D02*
X156193315Y-117121152D01*
X156193315Y-117121152D02*
X156336172Y-117121152D01*
X156336172Y-117121152D02*
X156431410Y-117168771D01*
X156431410Y-117168771D02*
X156479029Y-117216390D01*
X155574267Y-117787819D02*
X155574267Y-117121152D01*
X155574267Y-117311628D02*
X155526648Y-117216390D01*
X155526648Y-117216390D02*
X155479029Y-117168771D01*
X155479029Y-117168771D02*
X155383791Y-117121152D01*
X155383791Y-117121152D02*
X155288553Y-117121152D01*
X154955219Y-117787819D02*
X154955219Y-117121152D01*
X154955219Y-116787819D02*
X155002838Y-116835438D01*
X155002838Y-116835438D02*
X154955219Y-116883057D01*
X154955219Y-116883057D02*
X154907600Y-116835438D01*
X154907600Y-116835438D02*
X154955219Y-116787819D01*
X154955219Y-116787819D02*
X154955219Y-116883057D01*
X154526648Y-117740200D02*
X154431410Y-117787819D01*
X154431410Y-117787819D02*
X154240934Y-117787819D01*
X154240934Y-117787819D02*
X154145696Y-117740200D01*
X154145696Y-117740200D02*
X154098077Y-117644961D01*
X154098077Y-117644961D02*
X154098077Y-117597342D01*
X154098077Y-117597342D02*
X154145696Y-117502104D01*
X154145696Y-117502104D02*
X154240934Y-117454485D01*
X154240934Y-117454485D02*
X154383791Y-117454485D01*
X154383791Y-117454485D02*
X154479029Y-117406866D01*
X154479029Y-117406866D02*
X154526648Y-117311628D01*
X154526648Y-117311628D02*
X154526648Y-117264009D01*
X154526648Y-117264009D02*
X154479029Y-117168771D01*
X154479029Y-117168771D02*
X154383791Y-117121152D01*
X154383791Y-117121152D02*
X154240934Y-117121152D01*
X154240934Y-117121152D02*
X154145696Y-117168771D01*
X153240934Y-117787819D02*
X153240934Y-116787819D01*
X153240934Y-117740200D02*
X153336172Y-117787819D01*
X153336172Y-117787819D02*
X153526648Y-117787819D01*
X153526648Y-117787819D02*
X153621886Y-117740200D01*
X153621886Y-117740200D02*
X153669505Y-117692580D01*
X153669505Y-117692580D02*
X153717124Y-117597342D01*
X153717124Y-117597342D02*
X153717124Y-117311628D01*
X153717124Y-117311628D02*
X153669505Y-117216390D01*
X153669505Y-117216390D02*
X153621886Y-117168771D01*
X153621886Y-117168771D02*
X153526648Y-117121152D01*
X153526648Y-117121152D02*
X153336172Y-117121152D01*
X153336172Y-117121152D02*
X153240934Y-117168771D01*
X152336172Y-117787819D02*
X152336172Y-117264009D01*
X152336172Y-117264009D02*
X152383791Y-117168771D01*
X152383791Y-117168771D02*
X152479029Y-117121152D01*
X152479029Y-117121152D02*
X152669505Y-117121152D01*
X152669505Y-117121152D02*
X152764743Y-117168771D01*
X152336172Y-117740200D02*
X152431410Y-117787819D01*
X152431410Y-117787819D02*
X152669505Y-117787819D01*
X152669505Y-117787819D02*
X152764743Y-117740200D01*
X152764743Y-117740200D02*
X152812362Y-117644961D01*
X152812362Y-117644961D02*
X152812362Y-117549723D01*
X152812362Y-117549723D02*
X152764743Y-117454485D01*
X152764743Y-117454485D02*
X152669505Y-117406866D01*
X152669505Y-117406866D02*
X152431410Y-117406866D01*
X152431410Y-117406866D02*
X152336172Y-117359247D01*
X151431410Y-117121152D02*
X151431410Y-117787819D01*
X151859981Y-117121152D02*
X151859981Y-117644961D01*
X151859981Y-117644961D02*
X151812362Y-117740200D01*
X151812362Y-117740200D02*
X151717124Y-117787819D01*
X151717124Y-117787819D02*
X151574267Y-117787819D01*
X151574267Y-117787819D02*
X151479029Y-117740200D01*
X151479029Y-117740200D02*
X151431410Y-117692580D01*
X150955219Y-117121152D02*
X150955219Y-117787819D01*
X150955219Y-117216390D02*
X150907600Y-117168771D01*
X150907600Y-117168771D02*
X150812362Y-117121152D01*
X150812362Y-117121152D02*
X150669505Y-117121152D01*
X150669505Y-117121152D02*
X150574267Y-117168771D01*
X150574267Y-117168771D02*
X150526648Y-117264009D01*
X150526648Y-117264009D02*
X150526648Y-117787819D01*
X149336172Y-116740200D02*
X150193314Y-118025914D01*
X149002838Y-117121152D02*
X149002838Y-118121152D01*
X149002838Y-117168771D02*
X148907600Y-117121152D01*
X148907600Y-117121152D02*
X148717124Y-117121152D01*
X148717124Y-117121152D02*
X148621886Y-117168771D01*
X148621886Y-117168771D02*
X148574267Y-117216390D01*
X148574267Y-117216390D02*
X148526648Y-117311628D01*
X148526648Y-117311628D02*
X148526648Y-117597342D01*
X148526648Y-117597342D02*
X148574267Y-117692580D01*
X148574267Y-117692580D02*
X148621886Y-117740200D01*
X148621886Y-117740200D02*
X148717124Y-117787819D01*
X148717124Y-117787819D02*
X148907600Y-117787819D01*
X148907600Y-117787819D02*
X149002838Y-117740200D01*
X148098076Y-117787819D02*
X148098076Y-117121152D01*
X148098076Y-116787819D02*
X148145695Y-116835438D01*
X148145695Y-116835438D02*
X148098076Y-116883057D01*
X148098076Y-116883057D02*
X148050457Y-116835438D01*
X148050457Y-116835438D02*
X148098076Y-116787819D01*
X148098076Y-116787819D02*
X148098076Y-116883057D01*
X147621886Y-117406866D02*
X146859982Y-117406866D01*
X146479029Y-117121152D02*
X145955220Y-117121152D01*
X145955220Y-117121152D02*
X146479029Y-117787819D01*
X146479029Y-117787819D02*
X145955220Y-117787819D01*
X145193315Y-117740200D02*
X145288553Y-117787819D01*
X145288553Y-117787819D02*
X145479029Y-117787819D01*
X145479029Y-117787819D02*
X145574267Y-117740200D01*
X145574267Y-117740200D02*
X145621886Y-117644961D01*
X145621886Y-117644961D02*
X145621886Y-117264009D01*
X145621886Y-117264009D02*
X145574267Y-117168771D01*
X145574267Y-117168771D02*
X145479029Y-117121152D01*
X145479029Y-117121152D02*
X145288553Y-117121152D01*
X145288553Y-117121152D02*
X145193315Y-117168771D01*
X145193315Y-117168771D02*
X145145696Y-117264009D01*
X145145696Y-117264009D02*
X145145696Y-117359247D01*
X145145696Y-117359247D02*
X145621886Y-117454485D01*
X144717124Y-117787819D02*
X144717124Y-117121152D01*
X144717124Y-117311628D02*
X144669505Y-117216390D01*
X144669505Y-117216390D02*
X144621886Y-117168771D01*
X144621886Y-117168771D02*
X144526648Y-117121152D01*
X144526648Y-117121152D02*
X144431410Y-117121152D01*
X143955219Y-117787819D02*
X144050457Y-117740200D01*
X144050457Y-117740200D02*
X144098076Y-117692580D01*
X144098076Y-117692580D02*
X144145695Y-117597342D01*
X144145695Y-117597342D02*
X144145695Y-117311628D01*
X144145695Y-117311628D02*
X144098076Y-117216390D01*
X144098076Y-117216390D02*
X144050457Y-117168771D01*
X144050457Y-117168771D02*
X143955219Y-117121152D01*
X143955219Y-117121152D02*
X143812362Y-117121152D01*
X143812362Y-117121152D02*
X143717124Y-117168771D01*
X143717124Y-117168771D02*
X143669505Y-117216390D01*
X143669505Y-117216390D02*
X143621886Y-117311628D01*
X143621886Y-117311628D02*
X143621886Y-117597342D01*
X143621886Y-117597342D02*
X143669505Y-117692580D01*
X143669505Y-117692580D02*
X143717124Y-117740200D01*
X143717124Y-117740200D02*
X143812362Y-117787819D01*
X143812362Y-117787819D02*
X143955219Y-117787819D01*
X143193314Y-117406866D02*
X142431410Y-117406866D01*
X142002838Y-117740200D02*
X141907600Y-117787819D01*
X141907600Y-117787819D02*
X141717124Y-117787819D01*
X141717124Y-117787819D02*
X141621886Y-117740200D01*
X141621886Y-117740200D02*
X141574267Y-117644961D01*
X141574267Y-117644961D02*
X141574267Y-117597342D01*
X141574267Y-117597342D02*
X141621886Y-117502104D01*
X141621886Y-117502104D02*
X141717124Y-117454485D01*
X141717124Y-117454485D02*
X141859981Y-117454485D01*
X141859981Y-117454485D02*
X141955219Y-117406866D01*
X141955219Y-117406866D02*
X142002838Y-117311628D01*
X142002838Y-117311628D02*
X142002838Y-117264009D01*
X142002838Y-117264009D02*
X141955219Y-117168771D01*
X141955219Y-117168771D02*
X141859981Y-117121152D01*
X141859981Y-117121152D02*
X141717124Y-117121152D01*
X141717124Y-117121152D02*
X141621886Y-117168771D01*
X140764743Y-117740200D02*
X140859981Y-117787819D01*
X140859981Y-117787819D02*
X141050457Y-117787819D01*
X141050457Y-117787819D02*
X141145695Y-117740200D01*
X141145695Y-117740200D02*
X141193314Y-117644961D01*
X141193314Y-117644961D02*
X141193314Y-117264009D01*
X141193314Y-117264009D02*
X141145695Y-117168771D01*
X141145695Y-117168771D02*
X141050457Y-117121152D01*
X141050457Y-117121152D02*
X140859981Y-117121152D01*
X140859981Y-117121152D02*
X140764743Y-117168771D01*
X140764743Y-117168771D02*
X140717124Y-117264009D01*
X140717124Y-117264009D02*
X140717124Y-117359247D01*
X140717124Y-117359247D02*
X141193314Y-117454485D01*
X140288552Y-117787819D02*
X140288552Y-117121152D01*
X140288552Y-117311628D02*
X140240933Y-117216390D01*
X140240933Y-117216390D02*
X140193314Y-117168771D01*
X140193314Y-117168771D02*
X140098076Y-117121152D01*
X140098076Y-117121152D02*
X140002838Y-117121152D01*
X139669504Y-117787819D02*
X139669504Y-117121152D01*
X139669504Y-116787819D02*
X139717123Y-116835438D01*
X139717123Y-116835438D02*
X139669504Y-116883057D01*
X139669504Y-116883057D02*
X139621885Y-116835438D01*
X139621885Y-116835438D02*
X139669504Y-116787819D01*
X139669504Y-116787819D02*
X139669504Y-116883057D01*
X138764743Y-117787819D02*
X138764743Y-117264009D01*
X138764743Y-117264009D02*
X138812362Y-117168771D01*
X138812362Y-117168771D02*
X138907600Y-117121152D01*
X138907600Y-117121152D02*
X139098076Y-117121152D01*
X139098076Y-117121152D02*
X139193314Y-117168771D01*
X138764743Y-117740200D02*
X138859981Y-117787819D01*
X138859981Y-117787819D02*
X139098076Y-117787819D01*
X139098076Y-117787819D02*
X139193314Y-117740200D01*
X139193314Y-117740200D02*
X139240933Y-117644961D01*
X139240933Y-117644961D02*
X139240933Y-117549723D01*
X139240933Y-117549723D02*
X139193314Y-117454485D01*
X139193314Y-117454485D02*
X139098076Y-117406866D01*
X139098076Y-117406866D02*
X138859981Y-117406866D01*
X138859981Y-117406866D02*
X138764743Y-117359247D01*
X138145695Y-117787819D02*
X138240933Y-117740200D01*
X138240933Y-117740200D02*
X138288552Y-117644961D01*
X138288552Y-117644961D02*
X138288552Y-116787819D01*
X137764742Y-117406866D02*
X137002838Y-117406866D01*
X136526647Y-117787819D02*
X136526647Y-116787819D01*
X136098076Y-117787819D02*
X136098076Y-117264009D01*
X136098076Y-117264009D02*
X136145695Y-117168771D01*
X136145695Y-117168771D02*
X136240933Y-117121152D01*
X136240933Y-117121152D02*
X136383790Y-117121152D01*
X136383790Y-117121152D02*
X136479028Y-117168771D01*
X136479028Y-117168771D02*
X136526647Y-117216390D01*
X135193314Y-117787819D02*
X135193314Y-117264009D01*
X135193314Y-117264009D02*
X135240933Y-117168771D01*
X135240933Y-117168771D02*
X135336171Y-117121152D01*
X135336171Y-117121152D02*
X135526647Y-117121152D01*
X135526647Y-117121152D02*
X135621885Y-117168771D01*
X135193314Y-117740200D02*
X135288552Y-117787819D01*
X135288552Y-117787819D02*
X135526647Y-117787819D01*
X135526647Y-117787819D02*
X135621885Y-117740200D01*
X135621885Y-117740200D02*
X135669504Y-117644961D01*
X135669504Y-117644961D02*
X135669504Y-117549723D01*
X135669504Y-117549723D02*
X135621885Y-117454485D01*
X135621885Y-117454485D02*
X135526647Y-117406866D01*
X135526647Y-117406866D02*
X135288552Y-117406866D01*
X135288552Y-117406866D02*
X135193314Y-117359247D01*
X134859980Y-117121152D02*
X134479028Y-117121152D01*
X134717123Y-116787819D02*
X134717123Y-117644961D01*
X134717123Y-117644961D02*
X134669504Y-117740200D01*
X134669504Y-117740200D02*
X134574266Y-117787819D01*
X134574266Y-117787819D02*
X134479028Y-117787819D01*
X136198792Y-98362819D02*
X136532125Y-97886628D01*
X136770220Y-98362819D02*
X136770220Y-97362819D01*
X136770220Y-97362819D02*
X136389268Y-97362819D01*
X136389268Y-97362819D02*
X136294030Y-97410438D01*
X136294030Y-97410438D02*
X136246411Y-97458057D01*
X136246411Y-97458057D02*
X136198792Y-97553295D01*
X136198792Y-97553295D02*
X136198792Y-97696152D01*
X136198792Y-97696152D02*
X136246411Y-97791390D01*
X136246411Y-97791390D02*
X136294030Y-97839009D01*
X136294030Y-97839009D02*
X136389268Y-97886628D01*
X136389268Y-97886628D02*
X136770220Y-97886628D01*
X135865458Y-97362819D02*
X135198792Y-98362819D01*
X135198792Y-97362819D02*
X135865458Y-98362819D01*
X134263077Y-97387819D02*
X133691649Y-97387819D01*
X133977363Y-98387819D02*
X133977363Y-97387819D01*
X133453553Y-97387819D02*
X132786887Y-98387819D01*
X132786887Y-97387819D02*
X133453553Y-98387819D01*
G36*
X181727784Y-113704633D02*
G01*
X180257149Y-113704633D01*
X180257149Y-113350268D01*
X180346038Y-113350268D01*
X180346038Y-113540744D01*
X180347479Y-113555376D01*
X180358678Y-113582412D01*
X180379370Y-113603104D01*
X180406406Y-113614303D01*
X180421038Y-113615744D01*
X181563895Y-113615744D01*
X181578527Y-113614303D01*
X181605563Y-113603104D01*
X181626255Y-113582412D01*
X181637454Y-113555376D01*
X181638895Y-113540744D01*
X181638895Y-113350268D01*
X181637454Y-113335636D01*
X181626255Y-113308600D01*
X181605563Y-113287908D01*
X181578527Y-113276709D01*
X181549263Y-113276709D01*
X181522227Y-113287908D01*
X181501535Y-113308600D01*
X181490336Y-113335636D01*
X181488895Y-113350268D01*
X181488895Y-113465744D01*
X180496038Y-113465744D01*
X180496038Y-113350268D01*
X180494597Y-113335636D01*
X180483398Y-113308600D01*
X180462706Y-113287908D01*
X180435670Y-113276709D01*
X180406406Y-113276709D01*
X180379370Y-113287908D01*
X180358678Y-113308600D01*
X180347479Y-113335636D01*
X180346038Y-113350268D01*
X180257149Y-113350268D01*
X180257149Y-112726112D01*
X180614145Y-112726112D01*
X180614145Y-112755376D01*
X180625344Y-112782412D01*
X180646036Y-112803104D01*
X180673072Y-112814303D01*
X180687704Y-112815744D01*
X180917466Y-112815744D01*
X180917466Y-113045506D01*
X180918907Y-113060138D01*
X180930106Y-113087174D01*
X180950798Y-113107866D01*
X180977834Y-113119065D01*
X181007098Y-113119065D01*
X181034134Y-113107866D01*
X181054826Y-113087174D01*
X181066025Y-113060138D01*
X181067466Y-113045506D01*
X181067466Y-112815744D01*
X181297228Y-112815744D01*
X181311860Y-112814303D01*
X181338896Y-112803104D01*
X181359588Y-112782412D01*
X181370787Y-112755376D01*
X181370787Y-112726112D01*
X181359588Y-112699076D01*
X181338896Y-112678384D01*
X181311860Y-112667185D01*
X181297228Y-112665744D01*
X181067466Y-112665744D01*
X181067466Y-112435983D01*
X181066025Y-112421351D01*
X181054826Y-112394315D01*
X181034134Y-112373623D01*
X181007098Y-112362424D01*
X180977834Y-112362424D01*
X180950798Y-112373623D01*
X180930106Y-112394315D01*
X180918907Y-112421351D01*
X180917466Y-112435983D01*
X180917466Y-112665744D01*
X180687704Y-112665744D01*
X180673072Y-112667185D01*
X180646036Y-112678384D01*
X180625344Y-112699076D01*
X180614145Y-112726112D01*
X180257149Y-112726112D01*
X180257149Y-111635983D01*
X180612704Y-111635983D01*
X180612704Y-112131221D01*
X180614145Y-112145853D01*
X180625344Y-112172889D01*
X180646036Y-112193581D01*
X180673072Y-112204780D01*
X180673073Y-112204780D01*
X180702335Y-112204780D01*
X180702336Y-112204780D01*
X180729372Y-112193581D01*
X180740737Y-112184254D01*
X181185360Y-111739630D01*
X181271303Y-111710983D01*
X181317618Y-111710983D01*
X181367087Y-111735717D01*
X181387969Y-111756599D01*
X181412704Y-111806068D01*
X181412704Y-111961135D01*
X181387969Y-112010603D01*
X181358480Y-112040094D01*
X181349153Y-112051459D01*
X181337955Y-112078496D01*
X181337955Y-112107758D01*
X181349154Y-112134794D01*
X181369847Y-112155487D01*
X181396884Y-112166685D01*
X181426146Y-112166685D01*
X181453182Y-112155486D01*
X181464548Y-112146158D01*
X181502643Y-112108062D01*
X181507360Y-112102313D01*
X181508859Y-112101014D01*
X181510280Y-112098755D01*
X181511970Y-112096697D01*
X181512727Y-112094867D01*
X181516691Y-112088571D01*
X181554786Y-112012381D01*
X181560041Y-111998649D01*
X181560231Y-111995961D01*
X181561263Y-111993472D01*
X181562704Y-111978840D01*
X181562704Y-111788364D01*
X181561263Y-111773732D01*
X181560231Y-111771242D01*
X181560041Y-111768555D01*
X181554786Y-111754823D01*
X181516691Y-111678632D01*
X181512726Y-111672332D01*
X181511969Y-111670505D01*
X181510280Y-111668448D01*
X181508859Y-111666189D01*
X181507360Y-111664889D01*
X181502642Y-111659140D01*
X181464547Y-111621045D01*
X181458797Y-111616326D01*
X181457498Y-111614828D01*
X181455238Y-111613406D01*
X181453182Y-111611718D01*
X181451354Y-111610960D01*
X181445055Y-111606996D01*
X181368864Y-111568901D01*
X181355132Y-111563646D01*
X181352444Y-111563455D01*
X181349955Y-111562424D01*
X181335323Y-111560983D01*
X181259133Y-111560983D01*
X181251727Y-111561712D01*
X181249753Y-111561572D01*
X181247155Y-111562162D01*
X181244501Y-111562424D01*
X181242669Y-111563182D01*
X181235416Y-111564832D01*
X181121130Y-111602927D01*
X181107705Y-111608921D01*
X181105671Y-111610684D01*
X181103179Y-111611717D01*
X181091814Y-111621045D01*
X180762704Y-111950155D01*
X180762704Y-111635983D01*
X180761263Y-111621351D01*
X180750064Y-111594315D01*
X180729372Y-111573623D01*
X180702336Y-111562424D01*
X180673072Y-111562424D01*
X180646036Y-111573623D01*
X180625344Y-111594315D01*
X180614145Y-111621351D01*
X180612704Y-111635983D01*
X180257149Y-111635983D01*
X180257149Y-110935636D01*
X180614145Y-110935636D01*
X180614145Y-110964900D01*
X180625344Y-110991936D01*
X180646036Y-111012628D01*
X180673072Y-111023827D01*
X180687704Y-111025268D01*
X180879371Y-111025268D01*
X180879371Y-111331221D01*
X180880100Y-111338626D01*
X180879960Y-111340601D01*
X180880435Y-111342026D01*
X180880812Y-111345853D01*
X180885412Y-111356960D01*
X180889214Y-111368364D01*
X180890980Y-111370400D01*
X180892011Y-111372889D01*
X180900510Y-111381388D01*
X180908388Y-111390471D01*
X180910797Y-111391675D01*
X180912703Y-111393581D01*
X180923811Y-111398182D01*
X180934561Y-111403557D01*
X180937247Y-111403747D01*
X180939739Y-111404780D01*
X180951766Y-111404780D01*
X180963751Y-111405632D01*
X180967498Y-111404780D01*
X180969003Y-111404780D01*
X180970834Y-111404021D01*
X180978088Y-111402372D01*
X181549517Y-111211895D01*
X181562942Y-111205901D01*
X181585049Y-111186727D01*
X181598136Y-111160554D01*
X181600211Y-111131364D01*
X181590957Y-111103601D01*
X181571783Y-111081494D01*
X181545609Y-111068408D01*
X181516419Y-111066333D01*
X181502083Y-111069593D01*
X181029371Y-111227164D01*
X181029371Y-111025268D01*
X181221038Y-111025268D01*
X181235670Y-111023827D01*
X181262706Y-111012628D01*
X181283398Y-110991936D01*
X181294597Y-110964900D01*
X181294597Y-110935636D01*
X181283398Y-110908600D01*
X181262706Y-110887908D01*
X181235670Y-110876709D01*
X181221038Y-110875268D01*
X181029371Y-110875268D01*
X181029371Y-110835982D01*
X181027930Y-110821350D01*
X181016731Y-110794314D01*
X180996039Y-110773622D01*
X180969003Y-110762423D01*
X180939739Y-110762423D01*
X180912703Y-110773622D01*
X180892011Y-110794314D01*
X180880812Y-110821350D01*
X180879371Y-110835982D01*
X180879371Y-110875268D01*
X180687704Y-110875268D01*
X180673072Y-110876709D01*
X180646036Y-110887908D01*
X180625344Y-110908600D01*
X180614145Y-110935636D01*
X180257149Y-110935636D01*
X180257149Y-110405974D01*
X180613509Y-110405974D01*
X180614054Y-110416931D01*
X180613509Y-110427896D01*
X180614776Y-110431443D01*
X180614963Y-110435202D01*
X180619660Y-110445117D01*
X180623352Y-110455455D01*
X180625878Y-110458245D01*
X180627490Y-110461648D01*
X180635625Y-110469013D01*
X180642991Y-110477149D01*
X180646393Y-110478760D01*
X180649184Y-110481287D01*
X180662479Y-110487566D01*
X181195813Y-110678042D01*
X181210077Y-110681606D01*
X181239305Y-110680152D01*
X181265751Y-110667625D01*
X181285390Y-110645931D01*
X181295233Y-110618372D01*
X181293779Y-110589144D01*
X181281252Y-110562698D01*
X181259558Y-110543059D01*
X181246263Y-110536780D01*
X180910695Y-110416934D01*
X181246263Y-110297089D01*
X181259558Y-110290810D01*
X181281252Y-110271171D01*
X181293779Y-110244725D01*
X181295233Y-110215497D01*
X181285390Y-110187938D01*
X181265750Y-110166244D01*
X181239304Y-110153717D01*
X181210077Y-110152263D01*
X181195812Y-110155827D01*
X180662479Y-110346304D01*
X180649184Y-110352583D01*
X180646393Y-110355109D01*
X180642991Y-110356721D01*
X180635625Y-110364856D01*
X180627490Y-110372222D01*
X180625878Y-110375624D01*
X180623352Y-110378415D01*
X180619661Y-110388749D01*
X180614962Y-110398669D01*
X180614775Y-110402429D01*
X180613509Y-110405974D01*
X180257149Y-110405974D01*
X180257149Y-109807411D01*
X180346038Y-109807411D01*
X180346038Y-109997887D01*
X180347479Y-110012519D01*
X180358678Y-110039555D01*
X180379370Y-110060247D01*
X180406406Y-110071446D01*
X180435670Y-110071446D01*
X180462706Y-110060247D01*
X180483398Y-110039555D01*
X180494597Y-110012519D01*
X180496038Y-109997887D01*
X180496038Y-109882411D01*
X181488895Y-109882411D01*
X181488895Y-109997887D01*
X181490336Y-110012519D01*
X181501535Y-110039555D01*
X181522227Y-110060247D01*
X181549263Y-110071446D01*
X181578527Y-110071446D01*
X181605563Y-110060247D01*
X181626255Y-110039555D01*
X181637454Y-110012519D01*
X181638895Y-109997887D01*
X181638895Y-109807411D01*
X181637454Y-109792779D01*
X181626255Y-109765743D01*
X181605563Y-109745051D01*
X181578527Y-109733852D01*
X181563895Y-109732411D01*
X180421038Y-109732411D01*
X180406406Y-109733852D01*
X180379370Y-109745051D01*
X180358678Y-109765743D01*
X180347479Y-109792779D01*
X180346038Y-109807411D01*
X180257149Y-109807411D01*
X180257149Y-109643522D01*
X181727784Y-109643522D01*
X181727784Y-113704633D01*
G37*
X150365333Y-94022819D02*
X150365333Y-94737104D01*
X150365333Y-94737104D02*
X150412952Y-94879961D01*
X150412952Y-94879961D02*
X150508190Y-94975200D01*
X150508190Y-94975200D02*
X150651047Y-95022819D01*
X150651047Y-95022819D02*
X150746285Y-95022819D01*
X149365333Y-95022819D02*
X149936761Y-95022819D01*
X149651047Y-95022819D02*
X149651047Y-94022819D01*
X149651047Y-94022819D02*
X149746285Y-94165676D01*
X149746285Y-94165676D02*
X149841523Y-94260914D01*
X149841523Y-94260914D02*
X149936761Y-94308533D01*
D11*
X124602000Y-94588000D02*
X124602000Y-91988000D01*
X124602000Y-97188000D02*
X124602000Y-95858000D01*
X125932000Y-97188000D02*
X124602000Y-97188000D01*
X127202000Y-94588000D02*
X124602000Y-94588000D01*
X127202000Y-97188000D02*
X127202000Y-94588000D01*
X175522000Y-91988000D02*
X124602000Y-91988000D01*
X175522000Y-97188000D02*
X127202000Y-97188000D01*
X175522000Y-97188000D02*
X175522000Y-91988000D01*
M02*
