G04 #@! TF.GenerationSoftware,KiCad,Pcbnew,8.0.8*
G04 #@! TF.CreationDate,2025-02-02T21:46:04-08:00*
G04 #@! TF.ProjectId,pi-zero-serial-hat,70692d7a-6572-46f2-9d73-657269616c2d,2.1*
G04 #@! TF.SameCoordinates,Original*
G04 #@! TF.FileFunction,Copper,L2,Bot*
G04 #@! TF.FilePolarity,Positive*
%FSLAX46Y46*%
G04 Gerber Fmt 4.6, Leading zero omitted, Abs format (unit mm)*
G04 Created by KiCad (PCBNEW 8.0.8) date 2025-02-02 21:46:04*
%MOMM*%
%LPD*%
G01*
G04 APERTURE LIST*
G04 #@! TA.AperFunction,ComponentPad*
%ADD10C,6.000000*%
G04 #@! TD*
G04 #@! TA.AperFunction,ComponentPad*
%ADD11O,3.600000X1.800000*%
G04 #@! TD*
G04 #@! TA.AperFunction,ComponentPad*
%ADD12C,1.700000*%
G04 #@! TD*
G04 #@! TA.AperFunction,ComponentPad*
%ADD13C,0.600000*%
G04 #@! TD*
G04 #@! TA.AperFunction,SMDPad,CuDef*
%ADD14R,2.950000X4.500000*%
G04 #@! TD*
G04 #@! TA.AperFunction,ComponentPad*
%ADD15R,1.600000X1.600000*%
G04 #@! TD*
G04 #@! TA.AperFunction,ComponentPad*
%ADD16O,1.600000X1.600000*%
G04 #@! TD*
G04 #@! TA.AperFunction,ComponentPad*
%ADD17R,1.700000X1.700000*%
G04 #@! TD*
G04 #@! TA.AperFunction,ComponentPad*
%ADD18O,1.700000X1.700000*%
G04 #@! TD*
G04 #@! TA.AperFunction,ViaPad*
%ADD19C,0.800000*%
G04 #@! TD*
G04 #@! TA.AperFunction,Conductor*
%ADD20C,0.250000*%
G04 #@! TD*
G04 APERTURE END LIST*
D10*
X121032000Y-94568000D03*
X179032000Y-94568000D03*
X179032000Y-117568000D03*
X121032000Y-117568000D03*
D11*
X177739500Y-111283000D03*
X177739500Y-107783000D03*
X177739500Y-104283000D03*
X177739500Y-100783000D03*
X174449500Y-111293000D03*
X174449500Y-107793000D03*
X174449500Y-104293000D03*
X174449500Y-100793000D03*
D12*
X155292000Y-109338000D03*
D13*
X144357000Y-112993000D03*
X144357000Y-114193000D03*
X144357000Y-115493000D03*
X144357000Y-116593000D03*
D14*
X144957000Y-114793000D03*
D13*
X145557000Y-112993000D03*
X145557000Y-114193000D03*
X145557000Y-115493000D03*
X145557000Y-116593000D03*
D15*
X152752000Y-109338000D03*
D16*
X160372000Y-109338000D03*
D12*
X125932000Y-95858000D03*
D17*
X125932000Y-93318000D03*
D18*
X128472000Y-95858000D03*
D17*
X128472000Y-93318000D03*
D18*
X131012000Y-95858000D03*
X131012000Y-93318000D03*
X133552000Y-95858000D03*
X133552000Y-93318000D03*
X136092000Y-95858000D03*
X136092000Y-93318000D03*
X138632000Y-95858000D03*
X138632000Y-93318000D03*
X141172000Y-95858000D03*
X141172000Y-93318000D03*
X143712000Y-95858000D03*
X143712000Y-93318000D03*
D12*
X146252000Y-95858000D03*
D18*
X146252000Y-93318000D03*
X148792000Y-95858000D03*
X148792000Y-93318000D03*
X151332000Y-95858000D03*
X151332000Y-93318000D03*
X153872000Y-95858000D03*
X153872000Y-93318000D03*
X156412000Y-95858000D03*
X156412000Y-93318000D03*
X158952000Y-95858000D03*
X158952000Y-93318000D03*
X161492000Y-95858000D03*
X161492000Y-93318000D03*
X164032000Y-95858000D03*
X164032000Y-93318000D03*
X166572000Y-95858000D03*
X166572000Y-93318000D03*
X169112000Y-95858000D03*
X169112000Y-93318000D03*
X171652000Y-95858000D03*
X171652000Y-93318000D03*
X174192000Y-95858000D03*
X174192000Y-93318000D03*
D19*
X162532000Y-98568000D03*
X171782000Y-119568000D03*
X134032000Y-113568000D03*
X164782000Y-118568000D03*
X160782000Y-118568000D03*
X118782000Y-102568000D03*
X118782000Y-100568000D03*
X166782000Y-119568000D03*
X160782000Y-119568000D03*
X151782000Y-119568000D03*
X136032000Y-114568000D03*
X173782000Y-119568000D03*
X118782000Y-111568000D03*
X150092000Y-112068000D03*
X140122000Y-118228000D03*
X161782000Y-119568000D03*
X161532000Y-98568000D03*
X132782000Y-99568000D03*
X149782000Y-119568000D03*
X118782000Y-105568000D03*
X137032000Y-110568000D03*
X168432000Y-110818000D03*
X171782000Y-118568000D03*
X170782000Y-118568000D03*
X167782000Y-118568000D03*
X165782000Y-119568000D03*
X136032000Y-111568000D03*
X167782000Y-119568000D03*
X166782000Y-118568000D03*
X134032000Y-110568000D03*
X162132000Y-113118000D03*
X118782000Y-110568000D03*
X150092000Y-110068000D03*
X150532000Y-99668000D03*
X124032000Y-100568000D03*
X161532000Y-99568000D03*
X132782000Y-101868000D03*
X161782000Y-118568000D03*
X163782000Y-118568000D03*
X136032000Y-113568000D03*
X118782000Y-107568000D03*
X135032000Y-111568000D03*
X137032000Y-112568000D03*
X135032000Y-110568000D03*
X169782000Y-118568000D03*
X168432000Y-109818000D03*
X118782000Y-109568000D03*
X161132000Y-113118000D03*
X150092000Y-111068000D03*
X158832000Y-105593000D03*
X162132000Y-112118000D03*
X128832000Y-100668000D03*
X150782000Y-118568000D03*
X137032000Y-115568000D03*
X136032000Y-112568000D03*
X160532000Y-99568000D03*
X168782000Y-118568000D03*
X163782000Y-119568000D03*
X149782000Y-118568000D03*
X137432000Y-99468000D03*
X168432000Y-112818000D03*
X162782000Y-118568000D03*
X118782000Y-101568000D03*
X137032000Y-111568000D03*
X150092000Y-108068000D03*
X173782000Y-118568000D03*
X165782000Y-118568000D03*
X162782000Y-119568000D03*
X134032000Y-111568000D03*
X168782000Y-119568000D03*
X135032000Y-113568000D03*
X134032000Y-112568000D03*
X151782000Y-118568000D03*
X160532000Y-98568000D03*
X150092000Y-109068000D03*
X169782000Y-119568000D03*
X150782000Y-119568000D03*
X172782000Y-119568000D03*
X161132000Y-112118000D03*
X136032000Y-115568000D03*
X168432000Y-108818000D03*
X135032000Y-112568000D03*
X168432000Y-111818000D03*
X118782000Y-104568000D03*
X118782000Y-103568000D03*
X118782000Y-108568000D03*
X170782000Y-119568000D03*
X118782000Y-106568000D03*
X164782000Y-119568000D03*
X146532000Y-104468000D03*
X136032000Y-110568000D03*
X137032000Y-113568000D03*
X137032000Y-114568000D03*
X162532000Y-99568000D03*
X172782000Y-118568000D03*
X125132000Y-104818000D03*
X141432000Y-118218000D03*
X162282000Y-105068000D03*
X150182000Y-104518000D03*
X150182000Y-102768000D03*
D20*
X141432000Y-106018000D02*
X140232000Y-104818000D01*
X140232000Y-104818000D02*
X125132000Y-104818000D01*
X141432000Y-118218000D02*
X141432000Y-106018000D01*
X161822000Y-109338000D02*
X160372000Y-109338000D01*
X162282000Y-105068000D02*
X162272000Y-105078000D01*
X160372000Y-109338000D02*
X155292000Y-109338000D01*
X162272000Y-108888000D02*
X161822000Y-109338000D01*
X162272000Y-105078000D02*
X162272000Y-108888000D01*
X150182000Y-104518000D02*
X146082000Y-100418000D01*
X132377000Y-97313000D02*
X132377000Y-94493000D01*
X135482000Y-100418000D02*
X132377000Y-97313000D01*
X132377000Y-94493000D02*
X133552000Y-93318000D01*
X146082000Y-100418000D02*
X135482000Y-100418000D01*
X134917000Y-96853000D02*
X134917000Y-94493000D01*
X134917000Y-94493000D02*
X136092000Y-93318000D01*
X144982000Y-97568000D02*
X135632000Y-97568000D01*
X150182000Y-102768000D02*
X144982000Y-97568000D01*
X135632000Y-97568000D02*
X134917000Y-96853000D01*
G04 #@! TA.AperFunction,Conductor*
G36*
X134305859Y-97078455D02*
G01*
X134346381Y-97130820D01*
X134355598Y-97153072D01*
X134355599Y-97153074D01*
X134373218Y-97179442D01*
X134424929Y-97256833D01*
X135228167Y-98060072D01*
X135331925Y-98129401D01*
X135413447Y-98163168D01*
X135447215Y-98177155D01*
X135569606Y-98201500D01*
X135569607Y-98201500D01*
X135694394Y-98201500D01*
X144667406Y-98201500D01*
X144735527Y-98221502D01*
X144756501Y-98238405D01*
X146087501Y-99569405D01*
X146121527Y-99631717D01*
X146116462Y-99702532D01*
X146073915Y-99759368D01*
X146007395Y-99784179D01*
X145998406Y-99784500D01*
X135796594Y-99784500D01*
X135728473Y-99764498D01*
X135707499Y-99747595D01*
X133391499Y-97431595D01*
X133357473Y-97369283D01*
X133362538Y-97298468D01*
X133405085Y-97241632D01*
X133471605Y-97216821D01*
X133480594Y-97216500D01*
X133664565Y-97216500D01*
X133664569Y-97216500D01*
X133886635Y-97179444D01*
X134099574Y-97106342D01*
X134170006Y-97068226D01*
X134239433Y-97053396D01*
X134305859Y-97078455D01*
G37*
G04 #@! TD.AperFunction*
G04 #@! TA.AperFunction,Conductor*
G36*
X137445225Y-93993669D02*
G01*
X137467480Y-94019353D01*
X137496778Y-94064197D01*
X137556275Y-94155265D01*
X137556279Y-94155270D01*
X137708762Y-94320908D01*
X137763331Y-94363381D01*
X137886424Y-94459189D01*
X137919680Y-94477186D01*
X137970071Y-94527200D01*
X137985423Y-94596516D01*
X137960862Y-94663129D01*
X137919680Y-94698813D01*
X137886426Y-94716810D01*
X137886424Y-94716811D01*
X137708762Y-94855091D01*
X137556279Y-95020729D01*
X137556275Y-95020734D01*
X137433141Y-95209206D01*
X137342703Y-95415386D01*
X137342702Y-95415387D01*
X137287437Y-95633624D01*
X137268844Y-95858000D01*
X137287437Y-96082375D01*
X137342702Y-96300612D01*
X137342703Y-96300613D01*
X137433141Y-96506793D01*
X137556275Y-96695265D01*
X137556280Y-96695270D01*
X137581956Y-96723162D01*
X137613377Y-96786827D01*
X137605390Y-96857373D01*
X137560532Y-96912402D01*
X137493043Y-96934443D01*
X137489255Y-96934500D01*
X135946595Y-96934500D01*
X135878474Y-96914498D01*
X135857500Y-96897595D01*
X135587405Y-96627500D01*
X135553379Y-96565188D01*
X135550500Y-96538405D01*
X135550500Y-94807594D01*
X135570502Y-94739473D01*
X135587400Y-94718502D01*
X135634206Y-94671697D01*
X135696514Y-94637674D01*
X135752218Y-94638617D01*
X135752224Y-94638586D01*
X135752436Y-94638621D01*
X135754241Y-94638652D01*
X135757350Y-94639439D01*
X135757365Y-94639444D01*
X135979431Y-94676500D01*
X135979435Y-94676500D01*
X136204565Y-94676500D01*
X136204569Y-94676500D01*
X136426635Y-94639444D01*
X136639574Y-94566342D01*
X136837576Y-94459189D01*
X137015240Y-94320906D01*
X137167722Y-94155268D01*
X137256518Y-94019354D01*
X137310520Y-93973268D01*
X137380868Y-93963692D01*
X137445225Y-93993669D01*
G37*
G04 #@! TD.AperFunction*
G04 #@! TA.AperFunction,Conductor*
G36*
X179535801Y-91568730D02*
G01*
X179565105Y-91570502D01*
X179825684Y-91586264D01*
X179840765Y-91588095D01*
X180122682Y-91639758D01*
X180137429Y-91643393D01*
X180411071Y-91728663D01*
X180425283Y-91734054D01*
X180686624Y-91851674D01*
X180700090Y-91858740D01*
X180945367Y-92007016D01*
X180957866Y-92015643D01*
X181183485Y-92192404D01*
X181194865Y-92202487D01*
X181397512Y-92405134D01*
X181407596Y-92416515D01*
X181584353Y-92642130D01*
X181592985Y-92654635D01*
X181733633Y-92887295D01*
X181741255Y-92899903D01*
X181748325Y-92913375D01*
X181865943Y-93174711D01*
X181871339Y-93188937D01*
X181956602Y-93462554D01*
X181960243Y-93477328D01*
X182011902Y-93759222D01*
X182013736Y-93774326D01*
X182031270Y-94064197D01*
X182031500Y-94071805D01*
X182031500Y-118064194D01*
X182031270Y-118071802D01*
X182013736Y-118361673D01*
X182011902Y-118376777D01*
X181960243Y-118658671D01*
X181956602Y-118673445D01*
X181871339Y-118947062D01*
X181865943Y-118961288D01*
X181748325Y-119222624D01*
X181741255Y-119236096D01*
X181592990Y-119481357D01*
X181584347Y-119493877D01*
X181464967Y-119646255D01*
X181407602Y-119719477D01*
X181397512Y-119730865D01*
X181194865Y-119933512D01*
X181183477Y-119943602D01*
X180957880Y-120120346D01*
X180945357Y-120128990D01*
X180700096Y-120277255D01*
X180686624Y-120284325D01*
X180425288Y-120401943D01*
X180411062Y-120407339D01*
X180137445Y-120492602D01*
X180122671Y-120496243D01*
X179840777Y-120547902D01*
X179825673Y-120549736D01*
X179535802Y-120567270D01*
X179528194Y-120567500D01*
X120535806Y-120567500D01*
X120528198Y-120567270D01*
X120238326Y-120549736D01*
X120223222Y-120547902D01*
X119941328Y-120496243D01*
X119926558Y-120492603D01*
X119652937Y-120407339D01*
X119638711Y-120401943D01*
X119377375Y-120284325D01*
X119363903Y-120277255D01*
X119118635Y-120128985D01*
X119106130Y-120120353D01*
X118880515Y-119943596D01*
X118869134Y-119933512D01*
X118666487Y-119730865D01*
X118656404Y-119719485D01*
X118479643Y-119493866D01*
X118471016Y-119481367D01*
X118322740Y-119236090D01*
X118315674Y-119222624D01*
X118254542Y-119086794D01*
X118198054Y-118961283D01*
X118192663Y-118947071D01*
X118107393Y-118673429D01*
X118103758Y-118658682D01*
X118052095Y-118376765D01*
X118050264Y-118361684D01*
X118032730Y-118071801D01*
X118032500Y-118064194D01*
X118032500Y-104818000D01*
X124218496Y-104818000D01*
X124238457Y-105007927D01*
X124268526Y-105100470D01*
X124297473Y-105189556D01*
X124303837Y-105200578D01*
X124392958Y-105354941D01*
X124392965Y-105354951D01*
X124520744Y-105496864D01*
X124560749Y-105525929D01*
X124675248Y-105609118D01*
X124849712Y-105686794D01*
X125036513Y-105726500D01*
X125227487Y-105726500D01*
X125414288Y-105686794D01*
X125588752Y-105609118D01*
X125743253Y-105496866D01*
X125746563Y-105493190D01*
X125807009Y-105455950D01*
X125840200Y-105451500D01*
X139917406Y-105451500D01*
X139985527Y-105471502D01*
X140006501Y-105488405D01*
X140761595Y-106243499D01*
X140795621Y-106305811D01*
X140798500Y-106332594D01*
X140798500Y-117515474D01*
X140778498Y-117583595D01*
X140766137Y-117599784D01*
X140692957Y-117681059D01*
X140597476Y-117846438D01*
X140597473Y-117846445D01*
X140538457Y-118028072D01*
X140518496Y-118218000D01*
X140538457Y-118407927D01*
X140568526Y-118500470D01*
X140597473Y-118589556D01*
X140597476Y-118589561D01*
X140692958Y-118754941D01*
X140692965Y-118754951D01*
X140820744Y-118896864D01*
X140820747Y-118896866D01*
X140975248Y-119009118D01*
X141149712Y-119086794D01*
X141336513Y-119126500D01*
X141527487Y-119126500D01*
X141714288Y-119086794D01*
X141888752Y-119009118D01*
X142043253Y-118896866D01*
X142171040Y-118754944D01*
X142266527Y-118589556D01*
X142325542Y-118407928D01*
X142345504Y-118218000D01*
X142325542Y-118028072D01*
X142266527Y-117846444D01*
X142171040Y-117681056D01*
X142097863Y-117599784D01*
X142067146Y-117535776D01*
X142065500Y-117515474D01*
X142065500Y-111182149D01*
X172141000Y-111182149D01*
X172141000Y-111403851D01*
X172174098Y-111612824D01*
X172175683Y-111622829D01*
X172240943Y-111823677D01*
X172244192Y-111833676D01*
X172344843Y-112031215D01*
X172344845Y-112031218D01*
X172475158Y-112210578D01*
X172631921Y-112367341D01*
X172631924Y-112367343D01*
X172811285Y-112497657D01*
X173008824Y-112598308D01*
X173219676Y-112666818D01*
X173438649Y-112701500D01*
X173438652Y-112701500D01*
X175460348Y-112701500D01*
X175460351Y-112701500D01*
X175679324Y-112666818D01*
X175890176Y-112598308D01*
X176047111Y-112518345D01*
X176116886Y-112505242D01*
X176161514Y-112518346D01*
X176298816Y-112588304D01*
X176298824Y-112588308D01*
X176509676Y-112656818D01*
X176728649Y-112691500D01*
X176728652Y-112691500D01*
X178750348Y-112691500D01*
X178750351Y-112691500D01*
X178969324Y-112656818D01*
X179180176Y-112588308D01*
X179377715Y-112487657D01*
X179557076Y-112357343D01*
X179713843Y-112200576D01*
X179844157Y-112021215D01*
X179944808Y-111823676D01*
X180013318Y-111612824D01*
X180048000Y-111393851D01*
X180048000Y-111172149D01*
X180013318Y-110953176D01*
X179944808Y-110742324D01*
X179844157Y-110544785D01*
X179799446Y-110483246D01*
X179713841Y-110365421D01*
X179557078Y-110208658D01*
X179377718Y-110078345D01*
X179377717Y-110078344D01*
X179377715Y-110078343D01*
X179180176Y-109977692D01*
X179180173Y-109977691D01*
X179180171Y-109977690D01*
X178969329Y-109909183D01*
X178969325Y-109909182D01*
X178969324Y-109909182D01*
X178750351Y-109874500D01*
X176728649Y-109874500D01*
X176509676Y-109909182D01*
X176509670Y-109909183D01*
X176298828Y-109977690D01*
X176298824Y-109977692D01*
X176205528Y-110025229D01*
X176141890Y-110057654D01*
X176072113Y-110070758D01*
X176027486Y-110057654D01*
X175890176Y-109987692D01*
X175821810Y-109965478D01*
X175679329Y-109919183D01*
X175679325Y-109919182D01*
X175679324Y-109919182D01*
X175460351Y-109884500D01*
X173438649Y-109884500D01*
X173219676Y-109919182D01*
X173219670Y-109919183D01*
X173008828Y-109987690D01*
X173008822Y-109987693D01*
X172811281Y-110088345D01*
X172631921Y-110218658D01*
X172475158Y-110375421D01*
X172344845Y-110554781D01*
X172244193Y-110752322D01*
X172244190Y-110752328D01*
X172175683Y-110963170D01*
X172175682Y-110963175D01*
X172175682Y-110963176D01*
X172141000Y-111182149D01*
X142065500Y-111182149D01*
X142065500Y-108489350D01*
X151443500Y-108489350D01*
X151443500Y-110186649D01*
X151450009Y-110247196D01*
X151450011Y-110247204D01*
X151501110Y-110384202D01*
X151501112Y-110384207D01*
X151588738Y-110501261D01*
X151705792Y-110588887D01*
X151705794Y-110588888D01*
X151705796Y-110588889D01*
X151764875Y-110610924D01*
X151842795Y-110639988D01*
X151842803Y-110639990D01*
X151903350Y-110646499D01*
X151903355Y-110646499D01*
X151903362Y-110646500D01*
X151903368Y-110646500D01*
X153600632Y-110646500D01*
X153600638Y-110646500D01*
X153600645Y-110646499D01*
X153600649Y-110646499D01*
X153661196Y-110639990D01*
X153661199Y-110639989D01*
X153661201Y-110639989D01*
X153798204Y-110588889D01*
X153801607Y-110586342D01*
X153915261Y-110501261D01*
X154002886Y-110384208D01*
X154002885Y-110384208D01*
X154002889Y-110384204D01*
X154048144Y-110262869D01*
X154090690Y-110206037D01*
X154157211Y-110181226D01*
X154226585Y-110196318D01*
X154258898Y-110221566D01*
X154296924Y-110262872D01*
X154368762Y-110340908D01*
X154400260Y-110365424D01*
X154546424Y-110479189D01*
X154744426Y-110586342D01*
X154744427Y-110586342D01*
X154744428Y-110586343D01*
X154856227Y-110624723D01*
X154957365Y-110659444D01*
X155179431Y-110696500D01*
X155179435Y-110696500D01*
X155404565Y-110696500D01*
X155404569Y-110696500D01*
X155626635Y-110659444D01*
X155839574Y-110586342D01*
X156037576Y-110479189D01*
X156215240Y-110340906D01*
X156367722Y-110175268D01*
X156424513Y-110088343D01*
X156463555Y-110028585D01*
X156517558Y-109982496D01*
X156569038Y-109971500D01*
X159152606Y-109971500D01*
X159220727Y-109991502D01*
X159255819Y-110025229D01*
X159365050Y-110181226D01*
X159365802Y-110182300D01*
X159527700Y-110344198D01*
X159715251Y-110475523D01*
X159922757Y-110572284D01*
X160143913Y-110631543D01*
X160372000Y-110651498D01*
X160600087Y-110631543D01*
X160821243Y-110572284D01*
X161028749Y-110475523D01*
X161216300Y-110344198D01*
X161378198Y-110182300D01*
X161488181Y-110025229D01*
X161543638Y-109980901D01*
X161591394Y-109971500D01*
X161884393Y-109971500D01*
X161884394Y-109971500D01*
X162006785Y-109947155D01*
X162122075Y-109899400D01*
X162225833Y-109830071D01*
X162764071Y-109291833D01*
X162833400Y-109188075D01*
X162881155Y-109072785D01*
X162905500Y-108950394D01*
X162905500Y-108825606D01*
X162905500Y-105781631D01*
X162925502Y-105713510D01*
X162937864Y-105697320D01*
X163021040Y-105604944D01*
X163116527Y-105439556D01*
X163175542Y-105257928D01*
X163195504Y-105068000D01*
X163175542Y-104878072D01*
X163116527Y-104696444D01*
X163021040Y-104531056D01*
X163021038Y-104531054D01*
X163021034Y-104531048D01*
X162893255Y-104389135D01*
X162738752Y-104276882D01*
X162564288Y-104199206D01*
X162484042Y-104182149D01*
X172141000Y-104182149D01*
X172141000Y-104403851D01*
X172161148Y-104531058D01*
X172175683Y-104622829D01*
X172240943Y-104823677D01*
X172244192Y-104833676D01*
X172344843Y-105031215D01*
X172344845Y-105031218D01*
X172475158Y-105210578D01*
X172631921Y-105367341D01*
X172658696Y-105386794D01*
X172811285Y-105497657D01*
X173008824Y-105598308D01*
X173219676Y-105666818D01*
X173438649Y-105701500D01*
X173438652Y-105701500D01*
X175460348Y-105701500D01*
X175460351Y-105701500D01*
X175679324Y-105666818D01*
X175890176Y-105598308D01*
X176047111Y-105518345D01*
X176116886Y-105505242D01*
X176161514Y-105518346D01*
X176298816Y-105588304D01*
X176298824Y-105588308D01*
X176509676Y-105656818D01*
X176728649Y-105691500D01*
X176728652Y-105691500D01*
X178750348Y-105691500D01*
X178750351Y-105691500D01*
X178969324Y-105656818D01*
X179180176Y-105588308D01*
X179377715Y-105487657D01*
X179557076Y-105357343D01*
X179713843Y-105200576D01*
X179844157Y-105021215D01*
X179944808Y-104823676D01*
X180013318Y-104612824D01*
X180048000Y-104393851D01*
X180048000Y-104172149D01*
X180013318Y-103953176D01*
X179944808Y-103742324D01*
X179844157Y-103544785D01*
X179773013Y-103446864D01*
X179713841Y-103365421D01*
X179557078Y-103208658D01*
X179377718Y-103078345D01*
X179377717Y-103078344D01*
X179377715Y-103078343D01*
X179180176Y-102977692D01*
X179180173Y-102977691D01*
X179180171Y-102977690D01*
X178969329Y-102909183D01*
X178969325Y-102909182D01*
X178969324Y-102909182D01*
X178750351Y-102874500D01*
X176728649Y-102874500D01*
X176509676Y-102909182D01*
X176509670Y-102909183D01*
X176298828Y-102977690D01*
X176298822Y-102977693D01*
X176141890Y-103057654D01*
X176072113Y-103070758D01*
X176027486Y-103057654D01*
X175890176Y-102987692D01*
X175798569Y-102957927D01*
X175679329Y-102919183D01*
X175679325Y-102919182D01*
X175679324Y-102919182D01*
X175460351Y-102884500D01*
X173438649Y-102884500D01*
X173219676Y-102919182D01*
X173219670Y-102919183D01*
X173008828Y-102987690D01*
X173008822Y-102987693D01*
X172811281Y-103088345D01*
X172631921Y-103218658D01*
X172475158Y-103375421D01*
X172344845Y-103554781D01*
X172244193Y-103752322D01*
X172244190Y-103752328D01*
X172175683Y-103963170D01*
X172175682Y-103963175D01*
X172175682Y-103963176D01*
X172141000Y-104182149D01*
X162484042Y-104182149D01*
X162377487Y-104159500D01*
X162186513Y-104159500D01*
X161999711Y-104199206D01*
X161825247Y-104276882D01*
X161670744Y-104389135D01*
X161542965Y-104531048D01*
X161542958Y-104531058D01*
X161447476Y-104696438D01*
X161447473Y-104696445D01*
X161388457Y-104878072D01*
X161368496Y-105068000D01*
X161388457Y-105257927D01*
X161418526Y-105350470D01*
X161447473Y-105439556D01*
X161447476Y-105439561D01*
X161539128Y-105598308D01*
X161542960Y-105604944D01*
X161606137Y-105675109D01*
X161636853Y-105739114D01*
X161638500Y-105759418D01*
X161638500Y-108465828D01*
X161618498Y-108533949D01*
X161564842Y-108580442D01*
X161494568Y-108590546D01*
X161429988Y-108561052D01*
X161409287Y-108538099D01*
X161378200Y-108493703D01*
X161378195Y-108493697D01*
X161216302Y-108331804D01*
X161216296Y-108331799D01*
X161028749Y-108200477D01*
X160821246Y-108103717D01*
X160821240Y-108103715D01*
X160727771Y-108078670D01*
X160600087Y-108044457D01*
X160372000Y-108024502D01*
X160143913Y-108044457D01*
X159922759Y-108103715D01*
X159922753Y-108103717D01*
X159715250Y-108200477D01*
X159527703Y-108331799D01*
X159527697Y-108331804D01*
X159365804Y-108493697D01*
X159365799Y-108493703D01*
X159255819Y-108650771D01*
X159200362Y-108695099D01*
X159152606Y-108704500D01*
X156569038Y-108704500D01*
X156500917Y-108684498D01*
X156463555Y-108647415D01*
X156367724Y-108500734D01*
X156367720Y-108500729D01*
X156215237Y-108335091D01*
X156133382Y-108271381D01*
X156037576Y-108196811D01*
X155839574Y-108089658D01*
X155839572Y-108089657D01*
X155839571Y-108089656D01*
X155626639Y-108016557D01*
X155626630Y-108016555D01*
X155582476Y-108009187D01*
X155404569Y-107979500D01*
X155179431Y-107979500D01*
X155031211Y-108004233D01*
X154957369Y-108016555D01*
X154957360Y-108016557D01*
X154744428Y-108089656D01*
X154744426Y-108089658D01*
X154587212Y-108174738D01*
X154546426Y-108196810D01*
X154546424Y-108196811D01*
X154368759Y-108335094D01*
X154258899Y-108454432D01*
X154198046Y-108491003D01*
X154127082Y-108488868D01*
X154068537Y-108448706D01*
X154048144Y-108413127D01*
X154002889Y-108291796D01*
X154002887Y-108291792D01*
X153915261Y-108174738D01*
X153798207Y-108087112D01*
X153798202Y-108087110D01*
X153661204Y-108036011D01*
X153661196Y-108036009D01*
X153600649Y-108029500D01*
X153600638Y-108029500D01*
X151903362Y-108029500D01*
X151903350Y-108029500D01*
X151842803Y-108036009D01*
X151842795Y-108036011D01*
X151705797Y-108087110D01*
X151705792Y-108087112D01*
X151588738Y-108174738D01*
X151501112Y-108291792D01*
X151501110Y-108291797D01*
X151450011Y-108428795D01*
X151450009Y-108428803D01*
X151443500Y-108489350D01*
X142065500Y-108489350D01*
X142065500Y-105955607D01*
X142065499Y-105955603D01*
X142041155Y-105833215D01*
X141993400Y-105717925D01*
X141924071Y-105614167D01*
X141835833Y-105525929D01*
X140635833Y-104325929D01*
X140532075Y-104256600D01*
X140416785Y-104208845D01*
X140343086Y-104194185D01*
X140294396Y-104184500D01*
X140294394Y-104184500D01*
X125840200Y-104184500D01*
X125772079Y-104164498D01*
X125746563Y-104142810D01*
X125743252Y-104139133D01*
X125588752Y-104026882D01*
X125414288Y-103949206D01*
X125227487Y-103909500D01*
X125036513Y-103909500D01*
X124849711Y-103949206D01*
X124675247Y-104026882D01*
X124520744Y-104139135D01*
X124392965Y-104281048D01*
X124392958Y-104281058D01*
X124297476Y-104446438D01*
X124297473Y-104446445D01*
X124238457Y-104628072D01*
X124218496Y-104818000D01*
X118032500Y-104818000D01*
X118032500Y-95858000D01*
X124568844Y-95858000D01*
X124587437Y-96082375D01*
X124642702Y-96300612D01*
X124642703Y-96300613D01*
X124733141Y-96506793D01*
X124856275Y-96695265D01*
X124856279Y-96695270D01*
X125008762Y-96860908D01*
X125055897Y-96897595D01*
X125186424Y-96999189D01*
X125384426Y-97106342D01*
X125384427Y-97106342D01*
X125384428Y-97106343D01*
X125455728Y-97130820D01*
X125597365Y-97179444D01*
X125819431Y-97216500D01*
X125819435Y-97216500D01*
X126044565Y-97216500D01*
X126044569Y-97216500D01*
X126266635Y-97179444D01*
X126479574Y-97106342D01*
X126677576Y-96999189D01*
X126855240Y-96860906D01*
X127007722Y-96695268D01*
X127096518Y-96559354D01*
X127150520Y-96513268D01*
X127220868Y-96503692D01*
X127285225Y-96533669D01*
X127307480Y-96559353D01*
X127311293Y-96565188D01*
X127396275Y-96695265D01*
X127396279Y-96695270D01*
X127548762Y-96860908D01*
X127595897Y-96897595D01*
X127726424Y-96999189D01*
X127924426Y-97106342D01*
X127924427Y-97106342D01*
X127924428Y-97106343D01*
X127995728Y-97130820D01*
X128137365Y-97179444D01*
X128359431Y-97216500D01*
X128359435Y-97216500D01*
X128584565Y-97216500D01*
X128584569Y-97216500D01*
X128806635Y-97179444D01*
X129019574Y-97106342D01*
X129217576Y-96999189D01*
X129395240Y-96860906D01*
X129547722Y-96695268D01*
X129636518Y-96559354D01*
X129690520Y-96513268D01*
X129760868Y-96503692D01*
X129825225Y-96533669D01*
X129847480Y-96559353D01*
X129851293Y-96565188D01*
X129936275Y-96695265D01*
X129936279Y-96695270D01*
X130088762Y-96860908D01*
X130135897Y-96897595D01*
X130266424Y-96999189D01*
X130464426Y-97106342D01*
X130464427Y-97106342D01*
X130464428Y-97106343D01*
X130535728Y-97130820D01*
X130677365Y-97179444D01*
X130899431Y-97216500D01*
X130899435Y-97216500D01*
X131124565Y-97216500D01*
X131124569Y-97216500D01*
X131346635Y-97179444D01*
X131559574Y-97106342D01*
X131559577Y-97106340D01*
X131564345Y-97104249D01*
X131565045Y-97105845D01*
X131626945Y-97092615D01*
X131693375Y-97117668D01*
X131735715Y-97174657D01*
X131743500Y-97218261D01*
X131743500Y-97250606D01*
X131743500Y-97375394D01*
X131767845Y-97497785D01*
X131815600Y-97613075D01*
X131884929Y-97716833D01*
X134989929Y-100821833D01*
X135078167Y-100910071D01*
X135181925Y-100979400D01*
X135297215Y-101027155D01*
X135419606Y-101051500D01*
X145767406Y-101051500D01*
X145835527Y-101071502D01*
X145856501Y-101088405D01*
X149234877Y-104466782D01*
X149268903Y-104529094D01*
X149271092Y-104542706D01*
X149288457Y-104707927D01*
X149318526Y-104800470D01*
X149347473Y-104889556D01*
X149347476Y-104889561D01*
X149442958Y-105054941D01*
X149442965Y-105054951D01*
X149570744Y-105196864D01*
X149570747Y-105196866D01*
X149725248Y-105309118D01*
X149899712Y-105386794D01*
X150086513Y-105426500D01*
X150277487Y-105426500D01*
X150464288Y-105386794D01*
X150638752Y-105309118D01*
X150793253Y-105196866D01*
X150793255Y-105196864D01*
X150921034Y-105054951D01*
X150921035Y-105054949D01*
X150921040Y-105054944D01*
X151016527Y-104889556D01*
X151075542Y-104707928D01*
X151095504Y-104518000D01*
X151075542Y-104328072D01*
X151016527Y-104146444D01*
X150921040Y-103981056D01*
X150921038Y-103981054D01*
X150921034Y-103981048D01*
X150793255Y-103839135D01*
X150746315Y-103805031D01*
X150663598Y-103744934D01*
X150620246Y-103688714D01*
X150614171Y-103617978D01*
X150647302Y-103555186D01*
X150663594Y-103541068D01*
X150793253Y-103446866D01*
X150857580Y-103375424D01*
X150921034Y-103304951D01*
X150921035Y-103304949D01*
X150921040Y-103304944D01*
X151016527Y-103139556D01*
X151075542Y-102957928D01*
X151095504Y-102768000D01*
X151075542Y-102578072D01*
X151016527Y-102396444D01*
X150921040Y-102231056D01*
X150921038Y-102231054D01*
X150921034Y-102231048D01*
X150793255Y-102089135D01*
X150638752Y-101976882D01*
X150464288Y-101899206D01*
X150277487Y-101859500D01*
X150221595Y-101859500D01*
X150153474Y-101839498D01*
X150132500Y-101822595D01*
X148992054Y-100682149D01*
X172141000Y-100682149D01*
X172141000Y-100903851D01*
X172170231Y-101088405D01*
X172175683Y-101122829D01*
X172240943Y-101323677D01*
X172244192Y-101333676D01*
X172344843Y-101531215D01*
X172344845Y-101531218D01*
X172475158Y-101710578D01*
X172631921Y-101867341D01*
X172631924Y-101867343D01*
X172811285Y-101997657D01*
X173008824Y-102098308D01*
X173219676Y-102166818D01*
X173438649Y-102201500D01*
X173438652Y-102201500D01*
X175460348Y-102201500D01*
X175460351Y-102201500D01*
X175679324Y-102166818D01*
X175890176Y-102098308D01*
X176047111Y-102018345D01*
X176116886Y-102005242D01*
X176161514Y-102018346D01*
X176298816Y-102088304D01*
X176298824Y-102088308D01*
X176509676Y-102156818D01*
X176728649Y-102191500D01*
X176728652Y-102191500D01*
X178750348Y-102191500D01*
X178750351Y-102191500D01*
X178969324Y-102156818D01*
X179180176Y-102088308D01*
X179377715Y-101987657D01*
X179557076Y-101857343D01*
X179713843Y-101700576D01*
X179844157Y-101521215D01*
X179944808Y-101323676D01*
X180013318Y-101112824D01*
X180048000Y-100893851D01*
X180048000Y-100672149D01*
X180013318Y-100453176D01*
X179944808Y-100242324D01*
X179844157Y-100044785D01*
X179799446Y-99983246D01*
X179713841Y-99865421D01*
X179557078Y-99708658D01*
X179377718Y-99578345D01*
X179377717Y-99578344D01*
X179377715Y-99578343D01*
X179180176Y-99477692D01*
X179180173Y-99477691D01*
X179180171Y-99477690D01*
X178969329Y-99409183D01*
X178969325Y-99409182D01*
X178969324Y-99409182D01*
X178750351Y-99374500D01*
X176728649Y-99374500D01*
X176509676Y-99409182D01*
X176509670Y-99409183D01*
X176298828Y-99477690D01*
X176298822Y-99477693D01*
X176141890Y-99557654D01*
X176072113Y-99570758D01*
X176027486Y-99557654D01*
X175890176Y-99487692D01*
X175821810Y-99465478D01*
X175679329Y-99419183D01*
X175679325Y-99419182D01*
X175679324Y-99419182D01*
X175460351Y-99384500D01*
X173438649Y-99384500D01*
X173219676Y-99419182D01*
X173219670Y-99419183D01*
X173008828Y-99487690D01*
X173008822Y-99487693D01*
X172811281Y-99588345D01*
X172631921Y-99718658D01*
X172475158Y-99875421D01*
X172344845Y-100054781D01*
X172244193Y-100252322D01*
X172244190Y-100252328D01*
X172175683Y-100463170D01*
X172175682Y-100463175D01*
X172175682Y-100463176D01*
X172141000Y-100682149D01*
X148992054Y-100682149D01*
X147898189Y-99588284D01*
X145650701Y-97340797D01*
X145616676Y-97278486D01*
X145621741Y-97207671D01*
X145664288Y-97150835D01*
X145730808Y-97126024D01*
X145780709Y-97132530D01*
X145917365Y-97179444D01*
X146139431Y-97216500D01*
X146139435Y-97216500D01*
X146364565Y-97216500D01*
X146364569Y-97216500D01*
X146586635Y-97179444D01*
X146799574Y-97106342D01*
X146997576Y-96999189D01*
X147175240Y-96860906D01*
X147327722Y-96695268D01*
X147416518Y-96559354D01*
X147470520Y-96513268D01*
X147540868Y-96503692D01*
X147605225Y-96533669D01*
X147627480Y-96559353D01*
X147631293Y-96565188D01*
X147716275Y-96695265D01*
X147716279Y-96695270D01*
X147868762Y-96860908D01*
X147915897Y-96897595D01*
X148046424Y-96999189D01*
X148244426Y-97106342D01*
X148244427Y-97106342D01*
X148244428Y-97106343D01*
X148315728Y-97130820D01*
X148457365Y-97179444D01*
X148679431Y-97216500D01*
X148679435Y-97216500D01*
X148904565Y-97216500D01*
X148904569Y-97216500D01*
X149126635Y-97179444D01*
X149339574Y-97106342D01*
X149537576Y-96999189D01*
X149715240Y-96860906D01*
X149867722Y-96695268D01*
X149956518Y-96559354D01*
X150010520Y-96513268D01*
X150080868Y-96503692D01*
X150145225Y-96533669D01*
X150167480Y-96559353D01*
X150171293Y-96565188D01*
X150256275Y-96695265D01*
X150256279Y-96695270D01*
X150408762Y-96860908D01*
X150455897Y-96897595D01*
X150586424Y-96999189D01*
X150784426Y-97106342D01*
X150784427Y-97106342D01*
X150784428Y-97106343D01*
X150855728Y-97130820D01*
X150997365Y-97179444D01*
X151219431Y-97216500D01*
X151219435Y-97216500D01*
X151444565Y-97216500D01*
X151444569Y-97216500D01*
X151666635Y-97179444D01*
X151879574Y-97106342D01*
X152077576Y-96999189D01*
X152255240Y-96860906D01*
X152407722Y-96695268D01*
X152496518Y-96559354D01*
X152550520Y-96513268D01*
X152620868Y-96503692D01*
X152685225Y-96533669D01*
X152707480Y-96559353D01*
X152711293Y-96565188D01*
X152796275Y-96695265D01*
X152796279Y-96695270D01*
X152948762Y-96860908D01*
X152995897Y-96897595D01*
X153126424Y-96999189D01*
X153324426Y-97106342D01*
X153324427Y-97106342D01*
X153324428Y-97106343D01*
X153395728Y-97130820D01*
X153537365Y-97179444D01*
X153759431Y-97216500D01*
X153759435Y-97216500D01*
X153984565Y-97216500D01*
X153984569Y-97216500D01*
X154206635Y-97179444D01*
X154419574Y-97106342D01*
X154617576Y-96999189D01*
X154795240Y-96860906D01*
X154947722Y-96695268D01*
X155070860Y-96506791D01*
X155161296Y-96300616D01*
X155216564Y-96082368D01*
X155235156Y-95858000D01*
X155216564Y-95633632D01*
X155161296Y-95415384D01*
X155070860Y-95209209D01*
X155064140Y-95198924D01*
X154947724Y-95020734D01*
X154947720Y-95020729D01*
X154795237Y-94855091D01*
X154687007Y-94770852D01*
X154617576Y-94716811D01*
X154584319Y-94698813D01*
X154533929Y-94648802D01*
X154518576Y-94579485D01*
X154543136Y-94512872D01*
X154584320Y-94477186D01*
X154617576Y-94459189D01*
X154795240Y-94320906D01*
X154947722Y-94155268D01*
X155036518Y-94019354D01*
X155090520Y-93973268D01*
X155160868Y-93963692D01*
X155225225Y-93993669D01*
X155247480Y-94019353D01*
X155276778Y-94064197D01*
X155336275Y-94155265D01*
X155336279Y-94155270D01*
X155488762Y-94320908D01*
X155543331Y-94363381D01*
X155666424Y-94459189D01*
X155864426Y-94566342D01*
X155864427Y-94566342D01*
X155864428Y-94566343D01*
X155952320Y-94596516D01*
X156077365Y-94639444D01*
X156299431Y-94676500D01*
X156299435Y-94676500D01*
X156524565Y-94676500D01*
X156524569Y-94676500D01*
X156746635Y-94639444D01*
X156959574Y-94566342D01*
X157157576Y-94459189D01*
X157335240Y-94320906D01*
X157487722Y-94155268D01*
X157576518Y-94019354D01*
X157630520Y-93973268D01*
X157700868Y-93963692D01*
X157765225Y-93993669D01*
X157787480Y-94019353D01*
X157816778Y-94064197D01*
X157876275Y-94155265D01*
X157876279Y-94155270D01*
X158028762Y-94320908D01*
X158083331Y-94363381D01*
X158206424Y-94459189D01*
X158239680Y-94477186D01*
X158290071Y-94527200D01*
X158305423Y-94596516D01*
X158280862Y-94663129D01*
X158239680Y-94698813D01*
X158206426Y-94716810D01*
X158206424Y-94716811D01*
X158028762Y-94855091D01*
X157876279Y-95020729D01*
X157876275Y-95020734D01*
X157753141Y-95209206D01*
X157662703Y-95415386D01*
X157662702Y-95415387D01*
X157607437Y-95633624D01*
X157588844Y-95858000D01*
X157607437Y-96082375D01*
X157662702Y-96300612D01*
X157662703Y-96300613D01*
X157753141Y-96506793D01*
X157876275Y-96695265D01*
X157876279Y-96695270D01*
X158028762Y-96860908D01*
X158075897Y-96897595D01*
X158206424Y-96999189D01*
X158404426Y-97106342D01*
X158404427Y-97106342D01*
X158404428Y-97106343D01*
X158475728Y-97130820D01*
X158617365Y-97179444D01*
X158839431Y-97216500D01*
X158839435Y-97216500D01*
X159064565Y-97216500D01*
X159064569Y-97216500D01*
X159286635Y-97179444D01*
X159499574Y-97106342D01*
X159697576Y-96999189D01*
X159875240Y-96860906D01*
X160027722Y-96695268D01*
X160116518Y-96559354D01*
X160170520Y-96513268D01*
X160240868Y-96503692D01*
X160305225Y-96533669D01*
X160327480Y-96559353D01*
X160331293Y-96565188D01*
X160416275Y-96695265D01*
X160416279Y-96695270D01*
X160568762Y-96860908D01*
X160615897Y-96897595D01*
X160746424Y-96999189D01*
X160944426Y-97106342D01*
X160944427Y-97106342D01*
X160944428Y-97106343D01*
X161015728Y-97130820D01*
X161157365Y-97179444D01*
X161379431Y-97216500D01*
X161379435Y-97216500D01*
X161604565Y-97216500D01*
X161604569Y-97216500D01*
X161826635Y-97179444D01*
X162039574Y-97106342D01*
X162237576Y-96999189D01*
X162415240Y-96860906D01*
X162567722Y-96695268D01*
X162656518Y-96559354D01*
X162710520Y-96513268D01*
X162780868Y-96503692D01*
X162845225Y-96533669D01*
X162867480Y-96559353D01*
X162871293Y-96565188D01*
X162956275Y-96695265D01*
X162956279Y-96695270D01*
X163108762Y-96860908D01*
X163155897Y-96897595D01*
X163286424Y-96999189D01*
X163484426Y-97106342D01*
X163484427Y-97106342D01*
X163484428Y-97106343D01*
X163555728Y-97130820D01*
X163697365Y-97179444D01*
X163919431Y-97216500D01*
X163919435Y-97216500D01*
X164144565Y-97216500D01*
X164144569Y-97216500D01*
X164366635Y-97179444D01*
X164579574Y-97106342D01*
X164777576Y-96999189D01*
X164955240Y-96860906D01*
X165107722Y-96695268D01*
X165196518Y-96559354D01*
X165250520Y-96513268D01*
X165320868Y-96503692D01*
X165385225Y-96533669D01*
X165407480Y-96559353D01*
X165411293Y-96565188D01*
X165496275Y-96695265D01*
X165496279Y-96695270D01*
X165648762Y-96860908D01*
X165695897Y-96897595D01*
X165826424Y-96999189D01*
X166024426Y-97106342D01*
X166024427Y-97106342D01*
X166024428Y-97106343D01*
X166095728Y-97130820D01*
X166237365Y-97179444D01*
X166459431Y-97216500D01*
X166459435Y-97216500D01*
X166684565Y-97216500D01*
X166684569Y-97216500D01*
X166906635Y-97179444D01*
X167119574Y-97106342D01*
X167317576Y-96999189D01*
X167495240Y-96860906D01*
X167647722Y-96695268D01*
X167736518Y-96559354D01*
X167790520Y-96513268D01*
X167860868Y-96503692D01*
X167925225Y-96533669D01*
X167947480Y-96559353D01*
X167951293Y-96565188D01*
X168036275Y-96695265D01*
X168036279Y-96695270D01*
X168188762Y-96860908D01*
X168235897Y-96897595D01*
X168366424Y-96999189D01*
X168564426Y-97106342D01*
X168564427Y-97106342D01*
X168564428Y-97106343D01*
X168635728Y-97130820D01*
X168777365Y-97179444D01*
X168999431Y-97216500D01*
X168999435Y-97216500D01*
X169224565Y-97216500D01*
X169224569Y-97216500D01*
X169446635Y-97179444D01*
X169659574Y-97106342D01*
X169857576Y-96999189D01*
X170035240Y-96860906D01*
X170187722Y-96695268D01*
X170276518Y-96559354D01*
X170330520Y-96513268D01*
X170400868Y-96503692D01*
X170465225Y-96533669D01*
X170487480Y-96559353D01*
X170491293Y-96565188D01*
X170576275Y-96695265D01*
X170576279Y-96695270D01*
X170728762Y-96860908D01*
X170775897Y-96897595D01*
X170906424Y-96999189D01*
X171104426Y-97106342D01*
X171104427Y-97106342D01*
X171104428Y-97106343D01*
X171175728Y-97130820D01*
X171317365Y-97179444D01*
X171539431Y-97216500D01*
X171539435Y-97216500D01*
X171764565Y-97216500D01*
X171764569Y-97216500D01*
X171986635Y-97179444D01*
X172199574Y-97106342D01*
X172397576Y-96999189D01*
X172575240Y-96860906D01*
X172727722Y-96695268D01*
X172850860Y-96506791D01*
X172941296Y-96300616D01*
X172996564Y-96082368D01*
X173015156Y-95858000D01*
X172996564Y-95633632D01*
X172941296Y-95415384D01*
X172850860Y-95209209D01*
X172844140Y-95198924D01*
X172727724Y-95020734D01*
X172727720Y-95020729D01*
X172575237Y-94855091D01*
X172467007Y-94770852D01*
X172397576Y-94716811D01*
X172364319Y-94698813D01*
X172313929Y-94648802D01*
X172298576Y-94579485D01*
X172323136Y-94512872D01*
X172364320Y-94477186D01*
X172397576Y-94459189D01*
X172575240Y-94320906D01*
X172727722Y-94155268D01*
X172816518Y-94019354D01*
X172870520Y-93973268D01*
X172940868Y-93963692D01*
X173005225Y-93993669D01*
X173027480Y-94019353D01*
X173056778Y-94064197D01*
X173116275Y-94155265D01*
X173116279Y-94155270D01*
X173268762Y-94320908D01*
X173323331Y-94363381D01*
X173446424Y-94459189D01*
X173644426Y-94566342D01*
X173644427Y-94566342D01*
X173644428Y-94566343D01*
X173732320Y-94596516D01*
X173857365Y-94639444D01*
X174079431Y-94676500D01*
X174079435Y-94676500D01*
X174304565Y-94676500D01*
X174304569Y-94676500D01*
X174526635Y-94639444D01*
X174739574Y-94566342D01*
X174937576Y-94459189D01*
X175115240Y-94320906D01*
X175267722Y-94155268D01*
X175390860Y-93966791D01*
X175481296Y-93760616D01*
X175536564Y-93542368D01*
X175555156Y-93318000D01*
X175536564Y-93093632D01*
X175490917Y-92913375D01*
X175481297Y-92875387D01*
X175481296Y-92875386D01*
X175481296Y-92875384D01*
X175390860Y-92669209D01*
X175377083Y-92648122D01*
X175267724Y-92480734D01*
X175267720Y-92480729D01*
X175115237Y-92315091D01*
X174995367Y-92221792D01*
X174937576Y-92176811D01*
X174739574Y-92069658D01*
X174739572Y-92069657D01*
X174739571Y-92069656D01*
X174526639Y-91996557D01*
X174526630Y-91996555D01*
X174482476Y-91989187D01*
X174304569Y-91959500D01*
X174079431Y-91959500D01*
X173931211Y-91984233D01*
X173857369Y-91996555D01*
X173857360Y-91996557D01*
X173644428Y-92069656D01*
X173644426Y-92069658D01*
X173446426Y-92176810D01*
X173446424Y-92176811D01*
X173268762Y-92315091D01*
X173116279Y-92480729D01*
X173027483Y-92616643D01*
X172973479Y-92662731D01*
X172903131Y-92672306D01*
X172838774Y-92642329D01*
X172816517Y-92616643D01*
X172727720Y-92480729D01*
X172575237Y-92315091D01*
X172455367Y-92221792D01*
X172397576Y-92176811D01*
X172199574Y-92069658D01*
X172199572Y-92069657D01*
X172199571Y-92069656D01*
X171986639Y-91996557D01*
X171986630Y-91996555D01*
X171942476Y-91989187D01*
X171764569Y-91959500D01*
X171539431Y-91959500D01*
X171391211Y-91984233D01*
X171317369Y-91996555D01*
X171317360Y-91996557D01*
X171104428Y-92069656D01*
X171104426Y-92069658D01*
X170906426Y-92176810D01*
X170906424Y-92176811D01*
X170728762Y-92315091D01*
X170576279Y-92480729D01*
X170487483Y-92616643D01*
X170433479Y-92662731D01*
X170363131Y-92672306D01*
X170298774Y-92642329D01*
X170276517Y-92616643D01*
X170187720Y-92480729D01*
X170035237Y-92315091D01*
X169915367Y-92221792D01*
X169857576Y-92176811D01*
X169659574Y-92069658D01*
X169659572Y-92069657D01*
X169659571Y-92069656D01*
X169446639Y-91996557D01*
X169446630Y-91996555D01*
X169402476Y-91989187D01*
X169224569Y-91959500D01*
X168999431Y-91959500D01*
X168851211Y-91984233D01*
X168777369Y-91996555D01*
X168777360Y-91996557D01*
X168564428Y-92069656D01*
X168564426Y-92069658D01*
X168366426Y-92176810D01*
X168366424Y-92176811D01*
X168188762Y-92315091D01*
X168036279Y-92480729D01*
X168036275Y-92480734D01*
X167913141Y-92669206D01*
X167822703Y-92875386D01*
X167822702Y-92875387D01*
X167767437Y-93093624D01*
X167767436Y-93093630D01*
X167767436Y-93093632D01*
X167748844Y-93318000D01*
X167767436Y-93542368D01*
X167767436Y-93542370D01*
X167767437Y-93542375D01*
X167822702Y-93760612D01*
X167822703Y-93760613D01*
X167822704Y-93760616D01*
X167828718Y-93774326D01*
X167913141Y-93966793D01*
X168036275Y-94155265D01*
X168036279Y-94155270D01*
X168188762Y-94320908D01*
X168243331Y-94363381D01*
X168366424Y-94459189D01*
X168399680Y-94477186D01*
X168450071Y-94527200D01*
X168465423Y-94596516D01*
X168440862Y-94663129D01*
X168399680Y-94698813D01*
X168366426Y-94716810D01*
X168366424Y-94716811D01*
X168188762Y-94855091D01*
X168036279Y-95020729D01*
X167947483Y-95156643D01*
X167893479Y-95202731D01*
X167823131Y-95212306D01*
X167758774Y-95182329D01*
X167736517Y-95156643D01*
X167647720Y-95020729D01*
X167495237Y-94855091D01*
X167387007Y-94770852D01*
X167317576Y-94716811D01*
X167119574Y-94609658D01*
X167119572Y-94609657D01*
X167119571Y-94609656D01*
X166906639Y-94536557D01*
X166906630Y-94536555D01*
X166850567Y-94527200D01*
X166684569Y-94499500D01*
X166459431Y-94499500D01*
X166311211Y-94524233D01*
X166237369Y-94536555D01*
X166237360Y-94536557D01*
X166024428Y-94609656D01*
X166024426Y-94609658D01*
X165826432Y-94716807D01*
X165826426Y-94716810D01*
X165826424Y-94716811D01*
X165648762Y-94855091D01*
X165496279Y-95020729D01*
X165407483Y-95156643D01*
X165353479Y-95202731D01*
X165283131Y-95212306D01*
X165218774Y-95182329D01*
X165196517Y-95156643D01*
X165107720Y-95020729D01*
X164955237Y-94855091D01*
X164847007Y-94770852D01*
X164777576Y-94716811D01*
X164744319Y-94698813D01*
X164693929Y-94648802D01*
X164678576Y-94579485D01*
X164703136Y-94512872D01*
X164744320Y-94477186D01*
X164777576Y-94459189D01*
X164955240Y-94320906D01*
X165107722Y-94155268D01*
X165230860Y-93966791D01*
X165321296Y-93760616D01*
X165376564Y-93542368D01*
X165395156Y-93318000D01*
X165376564Y-93093632D01*
X165330917Y-92913375D01*
X165321297Y-92875387D01*
X165321296Y-92875386D01*
X165321296Y-92875384D01*
X165230860Y-92669209D01*
X165217083Y-92648122D01*
X165107724Y-92480734D01*
X165107720Y-92480729D01*
X164955237Y-92315091D01*
X164835367Y-92221792D01*
X164777576Y-92176811D01*
X164579574Y-92069658D01*
X164579572Y-92069657D01*
X164579571Y-92069656D01*
X164366639Y-91996557D01*
X164366630Y-91996555D01*
X164322476Y-91989187D01*
X164144569Y-91959500D01*
X163919431Y-91959500D01*
X163771211Y-91984233D01*
X163697369Y-91996555D01*
X163697360Y-91996557D01*
X163484428Y-92069656D01*
X163484426Y-92069658D01*
X163286426Y-92176810D01*
X163286424Y-92176811D01*
X163108762Y-92315091D01*
X162956279Y-92480729D01*
X162956275Y-92480734D01*
X162833141Y-92669206D01*
X162742703Y-92875386D01*
X162742702Y-92875387D01*
X162687437Y-93093624D01*
X162687436Y-93093630D01*
X162687436Y-93093632D01*
X162668844Y-93318000D01*
X162687436Y-93542368D01*
X162687436Y-93542370D01*
X162687437Y-93542375D01*
X162742702Y-93760612D01*
X162742703Y-93760613D01*
X162742704Y-93760616D01*
X162748718Y-93774326D01*
X162833141Y-93966793D01*
X162956275Y-94155265D01*
X162956279Y-94155270D01*
X163108762Y-94320908D01*
X163163331Y-94363381D01*
X163286424Y-94459189D01*
X163319680Y-94477186D01*
X163370071Y-94527200D01*
X163385423Y-94596516D01*
X163360862Y-94663129D01*
X163319680Y-94698813D01*
X163286426Y-94716810D01*
X163286424Y-94716811D01*
X163108762Y-94855091D01*
X162956279Y-95020729D01*
X162867483Y-95156643D01*
X162813479Y-95202731D01*
X162743131Y-95212306D01*
X162678774Y-95182329D01*
X162656517Y-95156643D01*
X162567720Y-95020729D01*
X162415237Y-94855091D01*
X162307007Y-94770852D01*
X162237576Y-94716811D01*
X162039574Y-94609658D01*
X162039572Y-94609657D01*
X162039571Y-94609656D01*
X161826639Y-94536557D01*
X161826630Y-94536555D01*
X161770567Y-94527200D01*
X161604569Y-94499500D01*
X161379431Y-94499500D01*
X161231211Y-94524233D01*
X161157369Y-94536555D01*
X161157360Y-94536557D01*
X160944428Y-94609656D01*
X160944426Y-94609658D01*
X160746432Y-94716807D01*
X160746426Y-94716810D01*
X160746424Y-94716811D01*
X160568762Y-94855091D01*
X160416279Y-95020729D01*
X160327483Y-95156643D01*
X160273479Y-95202731D01*
X160203131Y-95212306D01*
X160138774Y-95182329D01*
X160116517Y-95156643D01*
X160027720Y-95020729D01*
X159875237Y-94855091D01*
X159767007Y-94770852D01*
X159697576Y-94716811D01*
X159664319Y-94698813D01*
X159613929Y-94648802D01*
X159598576Y-94579485D01*
X159623136Y-94512872D01*
X159664320Y-94477186D01*
X159697576Y-94459189D01*
X159875240Y-94320906D01*
X160027722Y-94155268D01*
X160150860Y-93966791D01*
X160241296Y-93760616D01*
X160296564Y-93542368D01*
X160315156Y-93318000D01*
X160296564Y-93093632D01*
X160250917Y-92913375D01*
X160241297Y-92875387D01*
X160241296Y-92875386D01*
X160241296Y-92875384D01*
X160150860Y-92669209D01*
X160137083Y-92648122D01*
X160027724Y-92480734D01*
X160027720Y-92480729D01*
X159875237Y-92315091D01*
X159755367Y-92221792D01*
X159697576Y-92176811D01*
X159499574Y-92069658D01*
X159499572Y-92069657D01*
X159499571Y-92069656D01*
X159286639Y-91996557D01*
X159286630Y-91996555D01*
X159242476Y-91989187D01*
X159064569Y-91959500D01*
X158839431Y-91959500D01*
X158691211Y-91984233D01*
X158617369Y-91996555D01*
X158617360Y-91996557D01*
X158404428Y-92069656D01*
X158404426Y-92069658D01*
X158206426Y-92176810D01*
X158206424Y-92176811D01*
X158028762Y-92315091D01*
X157876279Y-92480729D01*
X157787483Y-92616643D01*
X157733479Y-92662731D01*
X157663131Y-92672306D01*
X157598774Y-92642329D01*
X157576517Y-92616643D01*
X157487720Y-92480729D01*
X157335237Y-92315091D01*
X157215367Y-92221792D01*
X157157576Y-92176811D01*
X156959574Y-92069658D01*
X156959572Y-92069657D01*
X156959571Y-92069656D01*
X156746639Y-91996557D01*
X156746630Y-91996555D01*
X156702476Y-91989187D01*
X156524569Y-91959500D01*
X156299431Y-91959500D01*
X156151211Y-91984233D01*
X156077369Y-91996555D01*
X156077360Y-91996557D01*
X155864428Y-92069656D01*
X155864426Y-92069658D01*
X155666426Y-92176810D01*
X155666424Y-92176811D01*
X155488762Y-92315091D01*
X155336279Y-92480729D01*
X155247483Y-92616643D01*
X155193479Y-92662731D01*
X155123131Y-92672306D01*
X155058774Y-92642329D01*
X155036517Y-92616643D01*
X154947720Y-92480729D01*
X154795237Y-92315091D01*
X154675367Y-92221792D01*
X154617576Y-92176811D01*
X154419574Y-92069658D01*
X154419572Y-92069657D01*
X154419571Y-92069656D01*
X154206639Y-91996557D01*
X154206630Y-91996555D01*
X154162476Y-91989187D01*
X153984569Y-91959500D01*
X153759431Y-91959500D01*
X153611211Y-91984233D01*
X153537369Y-91996555D01*
X153537360Y-91996557D01*
X153324428Y-92069656D01*
X153324426Y-92069658D01*
X153126426Y-92176810D01*
X153126424Y-92176811D01*
X152948762Y-92315091D01*
X152796279Y-92480729D01*
X152707483Y-92616643D01*
X152653479Y-92662731D01*
X152583131Y-92672306D01*
X152518774Y-92642329D01*
X152496517Y-92616643D01*
X152407720Y-92480729D01*
X152255237Y-92315091D01*
X152135367Y-92221792D01*
X152077576Y-92176811D01*
X151879574Y-92069658D01*
X151879572Y-92069657D01*
X151879571Y-92069656D01*
X151666639Y-91996557D01*
X151666630Y-91996555D01*
X151622476Y-91989187D01*
X151444569Y-91959500D01*
X151219431Y-91959500D01*
X151071211Y-91984233D01*
X150997369Y-91996555D01*
X150997360Y-91996557D01*
X150784428Y-92069656D01*
X150784426Y-92069658D01*
X150586426Y-92176810D01*
X150586424Y-92176811D01*
X150408762Y-92315091D01*
X150256279Y-92480729D01*
X150256275Y-92480734D01*
X150133141Y-92669206D01*
X150042703Y-92875386D01*
X150042702Y-92875387D01*
X149987437Y-93093624D01*
X149987436Y-93093630D01*
X149987436Y-93093632D01*
X149968844Y-93318000D01*
X149987436Y-93542368D01*
X149987436Y-93542370D01*
X149987437Y-93542375D01*
X150042702Y-93760612D01*
X150042703Y-93760613D01*
X150042704Y-93760616D01*
X150048718Y-93774326D01*
X150133141Y-93966793D01*
X150256275Y-94155265D01*
X150256279Y-94155270D01*
X150408762Y-94320908D01*
X150463331Y-94363381D01*
X150586424Y-94459189D01*
X150619680Y-94477186D01*
X150670071Y-94527200D01*
X150685423Y-94596516D01*
X150660862Y-94663129D01*
X150619680Y-94698813D01*
X150586426Y-94716810D01*
X150586424Y-94716811D01*
X150408762Y-94855091D01*
X150256279Y-95020729D01*
X150167483Y-95156643D01*
X150113479Y-95202731D01*
X150043131Y-95212306D01*
X149978774Y-95182329D01*
X149956517Y-95156643D01*
X149867720Y-95020729D01*
X149715237Y-94855091D01*
X149607007Y-94770852D01*
X149537576Y-94716811D01*
X149339574Y-94609658D01*
X149339572Y-94609657D01*
X149339571Y-94609656D01*
X149126639Y-94536557D01*
X149126630Y-94536555D01*
X149070567Y-94527200D01*
X148904569Y-94499500D01*
X148679431Y-94499500D01*
X148531211Y-94524233D01*
X148457369Y-94536555D01*
X148457360Y-94536557D01*
X148244428Y-94609656D01*
X148244426Y-94609658D01*
X148046432Y-94716807D01*
X148046426Y-94716810D01*
X148046424Y-94716811D01*
X147868762Y-94855091D01*
X147716279Y-95020729D01*
X147627483Y-95156643D01*
X147573479Y-95202731D01*
X147503131Y-95212306D01*
X147438774Y-95182329D01*
X147416517Y-95156643D01*
X147327720Y-95020729D01*
X147175237Y-94855091D01*
X147067007Y-94770852D01*
X146997576Y-94716811D01*
X146964319Y-94698813D01*
X146913929Y-94648802D01*
X146898576Y-94579485D01*
X146923136Y-94512872D01*
X146964320Y-94477186D01*
X146997576Y-94459189D01*
X147175240Y-94320906D01*
X147327722Y-94155268D01*
X147450860Y-93966791D01*
X147541296Y-93760616D01*
X147596564Y-93542368D01*
X147615156Y-93318000D01*
X147596564Y-93093632D01*
X147550917Y-92913375D01*
X147541297Y-92875387D01*
X147541296Y-92875386D01*
X147541296Y-92875384D01*
X147450860Y-92669209D01*
X147437083Y-92648122D01*
X147327724Y-92480734D01*
X147327720Y-92480729D01*
X147175237Y-92315091D01*
X147055367Y-92221792D01*
X146997576Y-92176811D01*
X146799574Y-92069658D01*
X146799572Y-92069657D01*
X146799571Y-92069656D01*
X146586639Y-91996557D01*
X146586630Y-91996555D01*
X146542476Y-91989187D01*
X146364569Y-91959500D01*
X146139431Y-91959500D01*
X145991211Y-91984233D01*
X145917369Y-91996555D01*
X145917360Y-91996557D01*
X145704428Y-92069656D01*
X145704426Y-92069658D01*
X145506426Y-92176810D01*
X145506424Y-92176811D01*
X145328762Y-92315091D01*
X145176279Y-92480729D01*
X145087483Y-92616643D01*
X145033479Y-92662731D01*
X144963131Y-92672306D01*
X144898774Y-92642329D01*
X144876517Y-92616643D01*
X144787720Y-92480729D01*
X144635237Y-92315091D01*
X144515367Y-92221792D01*
X144457576Y-92176811D01*
X144259574Y-92069658D01*
X144259572Y-92069657D01*
X144259571Y-92069656D01*
X144046639Y-91996557D01*
X144046630Y-91996555D01*
X144002476Y-91989187D01*
X143824569Y-91959500D01*
X143599431Y-91959500D01*
X143451211Y-91984233D01*
X143377369Y-91996555D01*
X143377360Y-91996557D01*
X143164428Y-92069656D01*
X143164426Y-92069658D01*
X142966426Y-92176810D01*
X142966424Y-92176811D01*
X142788762Y-92315091D01*
X142636279Y-92480729D01*
X142636275Y-92480734D01*
X142513141Y-92669206D01*
X142422703Y-92875386D01*
X142422702Y-92875387D01*
X142367437Y-93093624D01*
X142367436Y-93093630D01*
X142367436Y-93093632D01*
X142348844Y-93318000D01*
X142367436Y-93542368D01*
X142367436Y-93542370D01*
X142367437Y-93542375D01*
X142422702Y-93760612D01*
X142422703Y-93760613D01*
X142422704Y-93760616D01*
X142428718Y-93774326D01*
X142513141Y-93966793D01*
X142636275Y-94155265D01*
X142636279Y-94155270D01*
X142788762Y-94320908D01*
X142843331Y-94363381D01*
X142966424Y-94459189D01*
X142999680Y-94477186D01*
X143050071Y-94527200D01*
X143065423Y-94596516D01*
X143040862Y-94663129D01*
X142999680Y-94698813D01*
X142966426Y-94716810D01*
X142966424Y-94716811D01*
X142788762Y-94855091D01*
X142636279Y-95020729D01*
X142547483Y-95156643D01*
X142493479Y-95202731D01*
X142423131Y-95212306D01*
X142358774Y-95182329D01*
X142336517Y-95156643D01*
X142247720Y-95020729D01*
X142095237Y-94855091D01*
X141987007Y-94770852D01*
X141917576Y-94716811D01*
X141719574Y-94609658D01*
X141719572Y-94609657D01*
X141719571Y-94609656D01*
X141506639Y-94536557D01*
X141506630Y-94536555D01*
X141450567Y-94527200D01*
X141284569Y-94499500D01*
X141059431Y-94499500D01*
X140911211Y-94524233D01*
X140837369Y-94536555D01*
X140837360Y-94536557D01*
X140624428Y-94609656D01*
X140624426Y-94609658D01*
X140426432Y-94716807D01*
X140426426Y-94716810D01*
X140426424Y-94716811D01*
X140248762Y-94855091D01*
X140096279Y-95020729D01*
X140007483Y-95156643D01*
X139953479Y-95202731D01*
X139883131Y-95212306D01*
X139818774Y-95182329D01*
X139796517Y-95156643D01*
X139707720Y-95020729D01*
X139555237Y-94855091D01*
X139447007Y-94770852D01*
X139377576Y-94716811D01*
X139344319Y-94698813D01*
X139293929Y-94648802D01*
X139278576Y-94579485D01*
X139303136Y-94512872D01*
X139344320Y-94477186D01*
X139377576Y-94459189D01*
X139555240Y-94320906D01*
X139707722Y-94155268D01*
X139830860Y-93966791D01*
X139921296Y-93760616D01*
X139976564Y-93542368D01*
X139995156Y-93318000D01*
X139976564Y-93093632D01*
X139930917Y-92913375D01*
X139921297Y-92875387D01*
X139921296Y-92875386D01*
X139921296Y-92875384D01*
X139830860Y-92669209D01*
X139817083Y-92648122D01*
X139707724Y-92480734D01*
X139707720Y-92480729D01*
X139555237Y-92315091D01*
X139435367Y-92221792D01*
X139377576Y-92176811D01*
X139179574Y-92069658D01*
X139179572Y-92069657D01*
X139179571Y-92069656D01*
X138966639Y-91996557D01*
X138966630Y-91996555D01*
X138922476Y-91989187D01*
X138744569Y-91959500D01*
X138519431Y-91959500D01*
X138371211Y-91984233D01*
X138297369Y-91996555D01*
X138297360Y-91996557D01*
X138084428Y-92069656D01*
X138084426Y-92069658D01*
X137886426Y-92176810D01*
X137886424Y-92176811D01*
X137708762Y-92315091D01*
X137556279Y-92480729D01*
X137467483Y-92616643D01*
X137413479Y-92662731D01*
X137343131Y-92672306D01*
X137278774Y-92642329D01*
X137256517Y-92616643D01*
X137167720Y-92480729D01*
X137015237Y-92315091D01*
X136895367Y-92221792D01*
X136837576Y-92176811D01*
X136639574Y-92069658D01*
X136639572Y-92069657D01*
X136639571Y-92069656D01*
X136426639Y-91996557D01*
X136426630Y-91996555D01*
X136382476Y-91989187D01*
X136204569Y-91959500D01*
X135979431Y-91959500D01*
X135831211Y-91984233D01*
X135757369Y-91996555D01*
X135757360Y-91996557D01*
X135544428Y-92069656D01*
X135544426Y-92069658D01*
X135346426Y-92176810D01*
X135346424Y-92176811D01*
X135168762Y-92315091D01*
X135016279Y-92480729D01*
X134927483Y-92616643D01*
X134873479Y-92662731D01*
X134803131Y-92672306D01*
X134738774Y-92642329D01*
X134716517Y-92616643D01*
X134627720Y-92480729D01*
X134475237Y-92315091D01*
X134355367Y-92221792D01*
X134297576Y-92176811D01*
X134099574Y-92069658D01*
X134099572Y-92069657D01*
X134099571Y-92069656D01*
X133886639Y-91996557D01*
X133886630Y-91996555D01*
X133842476Y-91989187D01*
X133664569Y-91959500D01*
X133439431Y-91959500D01*
X133291211Y-91984233D01*
X133217369Y-91996555D01*
X133217360Y-91996557D01*
X133004428Y-92069656D01*
X133004426Y-92069658D01*
X132806426Y-92176810D01*
X132806424Y-92176811D01*
X132628762Y-92315091D01*
X132476279Y-92480729D01*
X132476275Y-92480734D01*
X132353141Y-92669206D01*
X132262703Y-92875386D01*
X132262702Y-92875387D01*
X132207437Y-93093624D01*
X132207436Y-93093630D01*
X132207436Y-93093632D01*
X132200141Y-93181665D01*
X132188844Y-93318000D01*
X132207436Y-93542369D01*
X132235182Y-93651935D01*
X132232514Y-93722882D01*
X132202133Y-93771961D01*
X131973167Y-94000929D01*
X131884927Y-94089169D01*
X131884926Y-94089171D01*
X131815601Y-94192923D01*
X131780692Y-94277201D01*
X131767845Y-94308215D01*
X131758028Y-94357568D01*
X131743500Y-94430603D01*
X131743500Y-94497738D01*
X131723498Y-94565859D01*
X131669842Y-94612352D01*
X131599568Y-94622456D01*
X131564705Y-94610928D01*
X131564345Y-94611751D01*
X131559571Y-94609656D01*
X131346639Y-94536557D01*
X131346630Y-94536555D01*
X131290567Y-94527200D01*
X131124569Y-94499500D01*
X130899431Y-94499500D01*
X130751211Y-94524233D01*
X130677369Y-94536555D01*
X130677360Y-94536557D01*
X130464428Y-94609656D01*
X130464426Y-94609658D01*
X130266432Y-94716807D01*
X130266426Y-94716810D01*
X130266424Y-94716811D01*
X130088762Y-94855091D01*
X129936279Y-95020729D01*
X129847483Y-95156643D01*
X129793479Y-95202731D01*
X129723131Y-95212306D01*
X129658774Y-95182329D01*
X129636517Y-95156643D01*
X129547720Y-95020729D01*
X129404524Y-94865179D01*
X129373103Y-94801514D01*
X129381090Y-94730968D01*
X129425948Y-94675939D01*
X129453183Y-94661789D01*
X129568204Y-94618889D01*
X129571782Y-94616211D01*
X129685261Y-94531261D01*
X129772887Y-94414207D01*
X129772887Y-94414206D01*
X129772889Y-94414204D01*
X129823989Y-94277201D01*
X129830500Y-94216638D01*
X129830500Y-92419362D01*
X129829550Y-92410525D01*
X129823990Y-92358803D01*
X129823988Y-92358795D01*
X129772889Y-92221797D01*
X129772887Y-92221792D01*
X129685261Y-92104738D01*
X129568207Y-92017112D01*
X129568202Y-92017110D01*
X129431204Y-91966011D01*
X129431196Y-91966009D01*
X129370649Y-91959500D01*
X129370638Y-91959500D01*
X127573362Y-91959500D01*
X127573350Y-91959500D01*
X127512803Y-91966009D01*
X127512795Y-91966011D01*
X127375797Y-92017110D01*
X127375792Y-92017112D01*
X127277509Y-92090687D01*
X127210989Y-92115498D01*
X127141615Y-92100407D01*
X127126491Y-92090687D01*
X127028207Y-92017112D01*
X127028202Y-92017110D01*
X126891204Y-91966011D01*
X126891196Y-91966009D01*
X126830649Y-91959500D01*
X126830638Y-91959500D01*
X125033362Y-91959500D01*
X125033350Y-91959500D01*
X124972803Y-91966009D01*
X124972795Y-91966011D01*
X124835797Y-92017110D01*
X124835792Y-92017112D01*
X124718738Y-92104738D01*
X124631112Y-92221792D01*
X124631110Y-92221797D01*
X124580011Y-92358795D01*
X124580009Y-92358803D01*
X124573500Y-92419350D01*
X124573500Y-94216649D01*
X124580009Y-94277196D01*
X124580011Y-94277204D01*
X124631110Y-94414202D01*
X124631112Y-94414207D01*
X124718738Y-94531261D01*
X124835791Y-94618886D01*
X124835792Y-94618886D01*
X124835796Y-94618889D01*
X124950810Y-94661787D01*
X125007642Y-94704332D01*
X125032453Y-94770852D01*
X125017362Y-94840226D01*
X124999475Y-94865179D01*
X124856280Y-95020729D01*
X124856275Y-95020734D01*
X124733141Y-95209206D01*
X124642703Y-95415386D01*
X124642702Y-95415387D01*
X124587437Y-95633624D01*
X124568844Y-95858000D01*
X118032500Y-95858000D01*
X118032500Y-94071805D01*
X118032730Y-94064198D01*
X118048432Y-93804606D01*
X118050264Y-93774313D01*
X118052095Y-93759236D01*
X118103759Y-93477313D01*
X118107392Y-93462573D01*
X118192665Y-93188922D01*
X118198052Y-93174721D01*
X118315678Y-92913366D01*
X118322736Y-92899916D01*
X118471021Y-92654624D01*
X118479637Y-92642140D01*
X118656411Y-92416505D01*
X118666479Y-92405142D01*
X118869142Y-92202479D01*
X118880505Y-92192411D01*
X119106140Y-92015637D01*
X119118624Y-92007021D01*
X119363916Y-91858736D01*
X119377366Y-91851678D01*
X119638721Y-91734052D01*
X119652922Y-91728665D01*
X119926573Y-91643392D01*
X119941313Y-91639759D01*
X120223236Y-91588095D01*
X120238313Y-91586264D01*
X120500890Y-91570381D01*
X120528199Y-91568730D01*
X120535806Y-91568500D01*
X120597892Y-91568500D01*
X179466108Y-91568500D01*
X179528194Y-91568500D01*
X179535801Y-91568730D01*
G37*
G04 #@! TD.AperFunction*
G04 #@! TA.AperFunction,Conductor*
G36*
X134305859Y-97078455D02*
G01*
X134346381Y-97130820D01*
X134355598Y-97153072D01*
X134355599Y-97153074D01*
X134373218Y-97179442D01*
X134424929Y-97256833D01*
X135228167Y-98060072D01*
X135331925Y-98129401D01*
X135413447Y-98163168D01*
X135447215Y-98177155D01*
X135569606Y-98201500D01*
X135569607Y-98201500D01*
X135694394Y-98201500D01*
X144667406Y-98201500D01*
X144735527Y-98221502D01*
X144756501Y-98238405D01*
X146087501Y-99569405D01*
X146121527Y-99631717D01*
X146116462Y-99702532D01*
X146073915Y-99759368D01*
X146007395Y-99784179D01*
X145998406Y-99784500D01*
X135796594Y-99784500D01*
X135728473Y-99764498D01*
X135707499Y-99747595D01*
X133391499Y-97431595D01*
X133357473Y-97369283D01*
X133362538Y-97298468D01*
X133405085Y-97241632D01*
X133471605Y-97216821D01*
X133480594Y-97216500D01*
X133664565Y-97216500D01*
X133664569Y-97216500D01*
X133886635Y-97179444D01*
X134099574Y-97106342D01*
X134170006Y-97068226D01*
X134239433Y-97053396D01*
X134305859Y-97078455D01*
G37*
G04 #@! TD.AperFunction*
G04 #@! TA.AperFunction,Conductor*
G36*
X137445225Y-93993669D02*
G01*
X137467480Y-94019353D01*
X137496778Y-94064197D01*
X137556275Y-94155265D01*
X137556279Y-94155270D01*
X137708762Y-94320908D01*
X137763331Y-94363381D01*
X137886424Y-94459189D01*
X137919680Y-94477186D01*
X137970071Y-94527200D01*
X137985423Y-94596516D01*
X137960862Y-94663129D01*
X137919680Y-94698813D01*
X137886426Y-94716810D01*
X137886424Y-94716811D01*
X137708762Y-94855091D01*
X137556279Y-95020729D01*
X137556275Y-95020734D01*
X137433141Y-95209206D01*
X137342703Y-95415386D01*
X137342702Y-95415387D01*
X137287437Y-95633624D01*
X137268844Y-95858000D01*
X137287437Y-96082375D01*
X137342702Y-96300612D01*
X137342703Y-96300613D01*
X137433141Y-96506793D01*
X137556275Y-96695265D01*
X137556280Y-96695270D01*
X137581956Y-96723162D01*
X137613377Y-96786827D01*
X137605390Y-96857373D01*
X137560532Y-96912402D01*
X137493043Y-96934443D01*
X137489255Y-96934500D01*
X135946595Y-96934500D01*
X135878474Y-96914498D01*
X135857500Y-96897595D01*
X135587405Y-96627500D01*
X135553379Y-96565188D01*
X135550500Y-96538405D01*
X135550500Y-94807594D01*
X135570502Y-94739473D01*
X135587400Y-94718502D01*
X135634206Y-94671697D01*
X135696514Y-94637674D01*
X135752218Y-94638617D01*
X135752224Y-94638586D01*
X135752436Y-94638621D01*
X135754241Y-94638652D01*
X135757350Y-94639439D01*
X135757365Y-94639444D01*
X135979431Y-94676500D01*
X135979435Y-94676500D01*
X136204565Y-94676500D01*
X136204569Y-94676500D01*
X136426635Y-94639444D01*
X136639574Y-94566342D01*
X136837576Y-94459189D01*
X137015240Y-94320906D01*
X137167722Y-94155268D01*
X137256518Y-94019354D01*
X137310520Y-93973268D01*
X137380868Y-93963692D01*
X137445225Y-93993669D01*
G37*
G04 #@! TD.AperFunction*
G04 #@! TA.AperFunction,Conductor*
G36*
X179535801Y-91568730D02*
G01*
X179565105Y-91570502D01*
X179825684Y-91586264D01*
X179840765Y-91588095D01*
X180122682Y-91639758D01*
X180137429Y-91643393D01*
X180411071Y-91728663D01*
X180425283Y-91734054D01*
X180686624Y-91851674D01*
X180700090Y-91858740D01*
X180945367Y-92007016D01*
X180957866Y-92015643D01*
X181183485Y-92192404D01*
X181194865Y-92202487D01*
X181397512Y-92405134D01*
X181407596Y-92416515D01*
X181584353Y-92642130D01*
X181592985Y-92654635D01*
X181733633Y-92887295D01*
X181741255Y-92899903D01*
X181748325Y-92913375D01*
X181865943Y-93174711D01*
X181871339Y-93188937D01*
X181956602Y-93462554D01*
X181960243Y-93477328D01*
X182011902Y-93759222D01*
X182013736Y-93774326D01*
X182031270Y-94064197D01*
X182031500Y-94071805D01*
X182031500Y-118064194D01*
X182031270Y-118071802D01*
X182013736Y-118361673D01*
X182011902Y-118376777D01*
X181960243Y-118658671D01*
X181956602Y-118673445D01*
X181871339Y-118947062D01*
X181865943Y-118961288D01*
X181748325Y-119222624D01*
X181741255Y-119236096D01*
X181592990Y-119481357D01*
X181584347Y-119493877D01*
X181464967Y-119646255D01*
X181407602Y-119719477D01*
X181397512Y-119730865D01*
X181194865Y-119933512D01*
X181183477Y-119943602D01*
X180957880Y-120120346D01*
X180945357Y-120128990D01*
X180700096Y-120277255D01*
X180686624Y-120284325D01*
X180425288Y-120401943D01*
X180411062Y-120407339D01*
X180137445Y-120492602D01*
X180122671Y-120496243D01*
X179840777Y-120547902D01*
X179825673Y-120549736D01*
X179535802Y-120567270D01*
X179528194Y-120567500D01*
X120535806Y-120567500D01*
X120528198Y-120567270D01*
X120238326Y-120549736D01*
X120223222Y-120547902D01*
X119941328Y-120496243D01*
X119926558Y-120492603D01*
X119652937Y-120407339D01*
X119638711Y-120401943D01*
X119377375Y-120284325D01*
X119363903Y-120277255D01*
X119118635Y-120128985D01*
X119106130Y-120120353D01*
X118880515Y-119943596D01*
X118869134Y-119933512D01*
X118666487Y-119730865D01*
X118656404Y-119719485D01*
X118479643Y-119493866D01*
X118471016Y-119481367D01*
X118322740Y-119236090D01*
X118315674Y-119222624D01*
X118254542Y-119086794D01*
X118198054Y-118961283D01*
X118192663Y-118947071D01*
X118107393Y-118673429D01*
X118103758Y-118658682D01*
X118052095Y-118376765D01*
X118050264Y-118361684D01*
X118032730Y-118071801D01*
X118032500Y-118064194D01*
X118032500Y-104818000D01*
X124218496Y-104818000D01*
X124238457Y-105007927D01*
X124268526Y-105100470D01*
X124297473Y-105189556D01*
X124303837Y-105200578D01*
X124392958Y-105354941D01*
X124392965Y-105354951D01*
X124520744Y-105496864D01*
X124560749Y-105525929D01*
X124675248Y-105609118D01*
X124849712Y-105686794D01*
X125036513Y-105726500D01*
X125227487Y-105726500D01*
X125414288Y-105686794D01*
X125588752Y-105609118D01*
X125743253Y-105496866D01*
X125746563Y-105493190D01*
X125807009Y-105455950D01*
X125840200Y-105451500D01*
X139917406Y-105451500D01*
X139985527Y-105471502D01*
X140006501Y-105488405D01*
X140761595Y-106243499D01*
X140795621Y-106305811D01*
X140798500Y-106332594D01*
X140798500Y-117515474D01*
X140778498Y-117583595D01*
X140766137Y-117599784D01*
X140692957Y-117681059D01*
X140597476Y-117846438D01*
X140597473Y-117846445D01*
X140538457Y-118028072D01*
X140518496Y-118218000D01*
X140538457Y-118407927D01*
X140568526Y-118500470D01*
X140597473Y-118589556D01*
X140597476Y-118589561D01*
X140692958Y-118754941D01*
X140692965Y-118754951D01*
X140820744Y-118896864D01*
X140820747Y-118896866D01*
X140975248Y-119009118D01*
X141149712Y-119086794D01*
X141336513Y-119126500D01*
X141527487Y-119126500D01*
X141714288Y-119086794D01*
X141888752Y-119009118D01*
X142043253Y-118896866D01*
X142171040Y-118754944D01*
X142266527Y-118589556D01*
X142325542Y-118407928D01*
X142345504Y-118218000D01*
X142325542Y-118028072D01*
X142266527Y-117846444D01*
X142171040Y-117681056D01*
X142097863Y-117599784D01*
X142067146Y-117535776D01*
X142065500Y-117515474D01*
X142065500Y-111182149D01*
X172141000Y-111182149D01*
X172141000Y-111403851D01*
X172174098Y-111612824D01*
X172175683Y-111622829D01*
X172240943Y-111823677D01*
X172244192Y-111833676D01*
X172344843Y-112031215D01*
X172344845Y-112031218D01*
X172475158Y-112210578D01*
X172631921Y-112367341D01*
X172631924Y-112367343D01*
X172811285Y-112497657D01*
X173008824Y-112598308D01*
X173219676Y-112666818D01*
X173438649Y-112701500D01*
X173438652Y-112701500D01*
X175460348Y-112701500D01*
X175460351Y-112701500D01*
X175679324Y-112666818D01*
X175890176Y-112598308D01*
X176047111Y-112518345D01*
X176116886Y-112505242D01*
X176161514Y-112518346D01*
X176298816Y-112588304D01*
X176298824Y-112588308D01*
X176509676Y-112656818D01*
X176728649Y-112691500D01*
X176728652Y-112691500D01*
X178750348Y-112691500D01*
X178750351Y-112691500D01*
X178969324Y-112656818D01*
X179180176Y-112588308D01*
X179377715Y-112487657D01*
X179557076Y-112357343D01*
X179713843Y-112200576D01*
X179844157Y-112021215D01*
X179944808Y-111823676D01*
X180013318Y-111612824D01*
X180048000Y-111393851D01*
X180048000Y-111172149D01*
X180013318Y-110953176D01*
X179944808Y-110742324D01*
X179844157Y-110544785D01*
X179799446Y-110483246D01*
X179713841Y-110365421D01*
X179557078Y-110208658D01*
X179377718Y-110078345D01*
X179377717Y-110078344D01*
X179377715Y-110078343D01*
X179180176Y-109977692D01*
X179180173Y-109977691D01*
X179180171Y-109977690D01*
X178969329Y-109909183D01*
X178969325Y-109909182D01*
X178969324Y-109909182D01*
X178750351Y-109874500D01*
X176728649Y-109874500D01*
X176509676Y-109909182D01*
X176509670Y-109909183D01*
X176298828Y-109977690D01*
X176298824Y-109977692D01*
X176205528Y-110025229D01*
X176141890Y-110057654D01*
X176072113Y-110070758D01*
X176027486Y-110057654D01*
X175890176Y-109987692D01*
X175821810Y-109965478D01*
X175679329Y-109919183D01*
X175679325Y-109919182D01*
X175679324Y-109919182D01*
X175460351Y-109884500D01*
X173438649Y-109884500D01*
X173219676Y-109919182D01*
X173219670Y-109919183D01*
X173008828Y-109987690D01*
X173008822Y-109987693D01*
X172811281Y-110088345D01*
X172631921Y-110218658D01*
X172475158Y-110375421D01*
X172344845Y-110554781D01*
X172244193Y-110752322D01*
X172244190Y-110752328D01*
X172175683Y-110963170D01*
X172175682Y-110963175D01*
X172175682Y-110963176D01*
X172141000Y-111182149D01*
X142065500Y-111182149D01*
X142065500Y-108489350D01*
X151443500Y-108489350D01*
X151443500Y-110186649D01*
X151450009Y-110247196D01*
X151450011Y-110247204D01*
X151501110Y-110384202D01*
X151501112Y-110384207D01*
X151588738Y-110501261D01*
X151705792Y-110588887D01*
X151705794Y-110588888D01*
X151705796Y-110588889D01*
X151764875Y-110610924D01*
X151842795Y-110639988D01*
X151842803Y-110639990D01*
X151903350Y-110646499D01*
X151903355Y-110646499D01*
X151903362Y-110646500D01*
X151903368Y-110646500D01*
X153600632Y-110646500D01*
X153600638Y-110646500D01*
X153600645Y-110646499D01*
X153600649Y-110646499D01*
X153661196Y-110639990D01*
X153661199Y-110639989D01*
X153661201Y-110639989D01*
X153798204Y-110588889D01*
X153801607Y-110586342D01*
X153915261Y-110501261D01*
X154002886Y-110384208D01*
X154002885Y-110384208D01*
X154002889Y-110384204D01*
X154048144Y-110262869D01*
X154090690Y-110206037D01*
X154157211Y-110181226D01*
X154226585Y-110196318D01*
X154258898Y-110221566D01*
X154296924Y-110262872D01*
X154368762Y-110340908D01*
X154400260Y-110365424D01*
X154546424Y-110479189D01*
X154744426Y-110586342D01*
X154744427Y-110586342D01*
X154744428Y-110586343D01*
X154856227Y-110624723D01*
X154957365Y-110659444D01*
X155179431Y-110696500D01*
X155179435Y-110696500D01*
X155404565Y-110696500D01*
X155404569Y-110696500D01*
X155626635Y-110659444D01*
X155839574Y-110586342D01*
X156037576Y-110479189D01*
X156215240Y-110340906D01*
X156367722Y-110175268D01*
X156424513Y-110088343D01*
X156463555Y-110028585D01*
X156517558Y-109982496D01*
X156569038Y-109971500D01*
X159152606Y-109971500D01*
X159220727Y-109991502D01*
X159255819Y-110025229D01*
X159365050Y-110181226D01*
X159365802Y-110182300D01*
X159527700Y-110344198D01*
X159715251Y-110475523D01*
X159922757Y-110572284D01*
X160143913Y-110631543D01*
X160372000Y-110651498D01*
X160600087Y-110631543D01*
X160821243Y-110572284D01*
X161028749Y-110475523D01*
X161216300Y-110344198D01*
X161378198Y-110182300D01*
X161488181Y-110025229D01*
X161543638Y-109980901D01*
X161591394Y-109971500D01*
X161884393Y-109971500D01*
X161884394Y-109971500D01*
X162006785Y-109947155D01*
X162122075Y-109899400D01*
X162225833Y-109830071D01*
X162764071Y-109291833D01*
X162833400Y-109188075D01*
X162881155Y-109072785D01*
X162905500Y-108950394D01*
X162905500Y-108825606D01*
X162905500Y-105781631D01*
X162925502Y-105713510D01*
X162937864Y-105697320D01*
X163021040Y-105604944D01*
X163116527Y-105439556D01*
X163175542Y-105257928D01*
X163195504Y-105068000D01*
X163175542Y-104878072D01*
X163116527Y-104696444D01*
X163021040Y-104531056D01*
X163021038Y-104531054D01*
X163021034Y-104531048D01*
X162893255Y-104389135D01*
X162738752Y-104276882D01*
X162564288Y-104199206D01*
X162484042Y-104182149D01*
X172141000Y-104182149D01*
X172141000Y-104403851D01*
X172161148Y-104531058D01*
X172175683Y-104622829D01*
X172240943Y-104823677D01*
X172244192Y-104833676D01*
X172344843Y-105031215D01*
X172344845Y-105031218D01*
X172475158Y-105210578D01*
X172631921Y-105367341D01*
X172658696Y-105386794D01*
X172811285Y-105497657D01*
X173008824Y-105598308D01*
X173219676Y-105666818D01*
X173438649Y-105701500D01*
X173438652Y-105701500D01*
X175460348Y-105701500D01*
X175460351Y-105701500D01*
X175679324Y-105666818D01*
X175890176Y-105598308D01*
X176047111Y-105518345D01*
X176116886Y-105505242D01*
X176161514Y-105518346D01*
X176298816Y-105588304D01*
X176298824Y-105588308D01*
X176509676Y-105656818D01*
X176728649Y-105691500D01*
X176728652Y-105691500D01*
X178750348Y-105691500D01*
X178750351Y-105691500D01*
X178969324Y-105656818D01*
X179180176Y-105588308D01*
X179377715Y-105487657D01*
X179557076Y-105357343D01*
X179713843Y-105200576D01*
X179844157Y-105021215D01*
X179944808Y-104823676D01*
X180013318Y-104612824D01*
X180048000Y-104393851D01*
X180048000Y-104172149D01*
X180013318Y-103953176D01*
X179944808Y-103742324D01*
X179844157Y-103544785D01*
X179773013Y-103446864D01*
X179713841Y-103365421D01*
X179557078Y-103208658D01*
X179377718Y-103078345D01*
X179377717Y-103078344D01*
X179377715Y-103078343D01*
X179180176Y-102977692D01*
X179180173Y-102977691D01*
X179180171Y-102977690D01*
X178969329Y-102909183D01*
X178969325Y-102909182D01*
X178969324Y-102909182D01*
X178750351Y-102874500D01*
X176728649Y-102874500D01*
X176509676Y-102909182D01*
X176509670Y-102909183D01*
X176298828Y-102977690D01*
X176298822Y-102977693D01*
X176141890Y-103057654D01*
X176072113Y-103070758D01*
X176027486Y-103057654D01*
X175890176Y-102987692D01*
X175798569Y-102957927D01*
X175679329Y-102919183D01*
X175679325Y-102919182D01*
X175679324Y-102919182D01*
X175460351Y-102884500D01*
X173438649Y-102884500D01*
X173219676Y-102919182D01*
X173219670Y-102919183D01*
X173008828Y-102987690D01*
X173008822Y-102987693D01*
X172811281Y-103088345D01*
X172631921Y-103218658D01*
X172475158Y-103375421D01*
X172344845Y-103554781D01*
X172244193Y-103752322D01*
X172244190Y-103752328D01*
X172175683Y-103963170D01*
X172175682Y-103963175D01*
X172175682Y-103963176D01*
X172141000Y-104182149D01*
X162484042Y-104182149D01*
X162377487Y-104159500D01*
X162186513Y-104159500D01*
X161999711Y-104199206D01*
X161825247Y-104276882D01*
X161670744Y-104389135D01*
X161542965Y-104531048D01*
X161542958Y-104531058D01*
X161447476Y-104696438D01*
X161447473Y-104696445D01*
X161388457Y-104878072D01*
X161368496Y-105068000D01*
X161388457Y-105257927D01*
X161418526Y-105350470D01*
X161447473Y-105439556D01*
X161447476Y-105439561D01*
X161539128Y-105598308D01*
X161542960Y-105604944D01*
X161606137Y-105675109D01*
X161636853Y-105739114D01*
X161638500Y-105759418D01*
X161638500Y-108465828D01*
X161618498Y-108533949D01*
X161564842Y-108580442D01*
X161494568Y-108590546D01*
X161429988Y-108561052D01*
X161409287Y-108538099D01*
X161378200Y-108493703D01*
X161378195Y-108493697D01*
X161216302Y-108331804D01*
X161216296Y-108331799D01*
X161028749Y-108200477D01*
X160821246Y-108103717D01*
X160821240Y-108103715D01*
X160727771Y-108078670D01*
X160600087Y-108044457D01*
X160372000Y-108024502D01*
X160143913Y-108044457D01*
X159922759Y-108103715D01*
X159922753Y-108103717D01*
X159715250Y-108200477D01*
X159527703Y-108331799D01*
X159527697Y-108331804D01*
X159365804Y-108493697D01*
X159365799Y-108493703D01*
X159255819Y-108650771D01*
X159200362Y-108695099D01*
X159152606Y-108704500D01*
X156569038Y-108704500D01*
X156500917Y-108684498D01*
X156463555Y-108647415D01*
X156367724Y-108500734D01*
X156367720Y-108500729D01*
X156215237Y-108335091D01*
X156133382Y-108271381D01*
X156037576Y-108196811D01*
X155839574Y-108089658D01*
X155839572Y-108089657D01*
X155839571Y-108089656D01*
X155626639Y-108016557D01*
X155626630Y-108016555D01*
X155582476Y-108009187D01*
X155404569Y-107979500D01*
X155179431Y-107979500D01*
X155031211Y-108004233D01*
X154957369Y-108016555D01*
X154957360Y-108016557D01*
X154744428Y-108089656D01*
X154744426Y-108089658D01*
X154587212Y-108174738D01*
X154546426Y-108196810D01*
X154546424Y-108196811D01*
X154368759Y-108335094D01*
X154258899Y-108454432D01*
X154198046Y-108491003D01*
X154127082Y-108488868D01*
X154068537Y-108448706D01*
X154048144Y-108413127D01*
X154002889Y-108291796D01*
X154002887Y-108291792D01*
X153915261Y-108174738D01*
X153798207Y-108087112D01*
X153798202Y-108087110D01*
X153661204Y-108036011D01*
X153661196Y-108036009D01*
X153600649Y-108029500D01*
X153600638Y-108029500D01*
X151903362Y-108029500D01*
X151903350Y-108029500D01*
X151842803Y-108036009D01*
X151842795Y-108036011D01*
X151705797Y-108087110D01*
X151705792Y-108087112D01*
X151588738Y-108174738D01*
X151501112Y-108291792D01*
X151501110Y-108291797D01*
X151450011Y-108428795D01*
X151450009Y-108428803D01*
X151443500Y-108489350D01*
X142065500Y-108489350D01*
X142065500Y-105955607D01*
X142065499Y-105955603D01*
X142041155Y-105833215D01*
X141993400Y-105717925D01*
X141924071Y-105614167D01*
X141835833Y-105525929D01*
X140635833Y-104325929D01*
X140532075Y-104256600D01*
X140416785Y-104208845D01*
X140343086Y-104194185D01*
X140294396Y-104184500D01*
X140294394Y-104184500D01*
X125840200Y-104184500D01*
X125772079Y-104164498D01*
X125746563Y-104142810D01*
X125743252Y-104139133D01*
X125588752Y-104026882D01*
X125414288Y-103949206D01*
X125227487Y-103909500D01*
X125036513Y-103909500D01*
X124849711Y-103949206D01*
X124675247Y-104026882D01*
X124520744Y-104139135D01*
X124392965Y-104281048D01*
X124392958Y-104281058D01*
X124297476Y-104446438D01*
X124297473Y-104446445D01*
X124238457Y-104628072D01*
X124218496Y-104818000D01*
X118032500Y-104818000D01*
X118032500Y-95858000D01*
X124568844Y-95858000D01*
X124587437Y-96082375D01*
X124642702Y-96300612D01*
X124642703Y-96300613D01*
X124733141Y-96506793D01*
X124856275Y-96695265D01*
X124856279Y-96695270D01*
X125008762Y-96860908D01*
X125055897Y-96897595D01*
X125186424Y-96999189D01*
X125384426Y-97106342D01*
X125384427Y-97106342D01*
X125384428Y-97106343D01*
X125455728Y-97130820D01*
X125597365Y-97179444D01*
X125819431Y-97216500D01*
X125819435Y-97216500D01*
X126044565Y-97216500D01*
X126044569Y-97216500D01*
X126266635Y-97179444D01*
X126479574Y-97106342D01*
X126677576Y-96999189D01*
X126855240Y-96860906D01*
X127007722Y-96695268D01*
X127096518Y-96559354D01*
X127150520Y-96513268D01*
X127220868Y-96503692D01*
X127285225Y-96533669D01*
X127307480Y-96559353D01*
X127311293Y-96565188D01*
X127396275Y-96695265D01*
X127396279Y-96695270D01*
X127548762Y-96860908D01*
X127595897Y-96897595D01*
X127726424Y-96999189D01*
X127924426Y-97106342D01*
X127924427Y-97106342D01*
X127924428Y-97106343D01*
X127995728Y-97130820D01*
X128137365Y-97179444D01*
X128359431Y-97216500D01*
X128359435Y-97216500D01*
X128584565Y-97216500D01*
X128584569Y-97216500D01*
X128806635Y-97179444D01*
X129019574Y-97106342D01*
X129217576Y-96999189D01*
X129395240Y-96860906D01*
X129547722Y-96695268D01*
X129636518Y-96559354D01*
X129690520Y-96513268D01*
X129760868Y-96503692D01*
X129825225Y-96533669D01*
X129847480Y-96559353D01*
X129851293Y-96565188D01*
X129936275Y-96695265D01*
X129936279Y-96695270D01*
X130088762Y-96860908D01*
X130135897Y-96897595D01*
X130266424Y-96999189D01*
X130464426Y-97106342D01*
X130464427Y-97106342D01*
X130464428Y-97106343D01*
X130535728Y-97130820D01*
X130677365Y-97179444D01*
X130899431Y-97216500D01*
X130899435Y-97216500D01*
X131124565Y-97216500D01*
X131124569Y-97216500D01*
X131346635Y-97179444D01*
X131559574Y-97106342D01*
X131559577Y-97106340D01*
X131564345Y-97104249D01*
X131565045Y-97105845D01*
X131626945Y-97092615D01*
X131693375Y-97117668D01*
X131735715Y-97174657D01*
X131743500Y-97218261D01*
X131743500Y-97250606D01*
X131743500Y-97375394D01*
X131767845Y-97497785D01*
X131815600Y-97613075D01*
X131884929Y-97716833D01*
X134989929Y-100821833D01*
X135078167Y-100910071D01*
X135181925Y-100979400D01*
X135297215Y-101027155D01*
X135419606Y-101051500D01*
X145767406Y-101051500D01*
X145835527Y-101071502D01*
X145856501Y-101088405D01*
X149234877Y-104466782D01*
X149268903Y-104529094D01*
X149271092Y-104542706D01*
X149288457Y-104707927D01*
X149318526Y-104800470D01*
X149347473Y-104889556D01*
X149347476Y-104889561D01*
X149442958Y-105054941D01*
X149442965Y-105054951D01*
X149570744Y-105196864D01*
X149570747Y-105196866D01*
X149725248Y-105309118D01*
X149899712Y-105386794D01*
X150086513Y-105426500D01*
X150277487Y-105426500D01*
X150464288Y-105386794D01*
X150638752Y-105309118D01*
X150793253Y-105196866D01*
X150793255Y-105196864D01*
X150921034Y-105054951D01*
X150921035Y-105054949D01*
X150921040Y-105054944D01*
X151016527Y-104889556D01*
X151075542Y-104707928D01*
X151095504Y-104518000D01*
X151075542Y-104328072D01*
X151016527Y-104146444D01*
X150921040Y-103981056D01*
X150921038Y-103981054D01*
X150921034Y-103981048D01*
X150793255Y-103839135D01*
X150746315Y-103805031D01*
X150663598Y-103744934D01*
X150620246Y-103688714D01*
X150614171Y-103617978D01*
X150647302Y-103555186D01*
X150663594Y-103541068D01*
X150793253Y-103446866D01*
X150857580Y-103375424D01*
X150921034Y-103304951D01*
X150921035Y-103304949D01*
X150921040Y-103304944D01*
X151016527Y-103139556D01*
X151075542Y-102957928D01*
X151095504Y-102768000D01*
X151075542Y-102578072D01*
X151016527Y-102396444D01*
X150921040Y-102231056D01*
X150921038Y-102231054D01*
X150921034Y-102231048D01*
X150793255Y-102089135D01*
X150638752Y-101976882D01*
X150464288Y-101899206D01*
X150277487Y-101859500D01*
X150221595Y-101859500D01*
X150153474Y-101839498D01*
X150132500Y-101822595D01*
X148992054Y-100682149D01*
X172141000Y-100682149D01*
X172141000Y-100903851D01*
X172170231Y-101088405D01*
X172175683Y-101122829D01*
X172240943Y-101323677D01*
X172244192Y-101333676D01*
X172344843Y-101531215D01*
X172344845Y-101531218D01*
X172475158Y-101710578D01*
X172631921Y-101867341D01*
X172631924Y-101867343D01*
X172811285Y-101997657D01*
X173008824Y-102098308D01*
X173219676Y-102166818D01*
X173438649Y-102201500D01*
X173438652Y-102201500D01*
X175460348Y-102201500D01*
X175460351Y-102201500D01*
X175679324Y-102166818D01*
X175890176Y-102098308D01*
X176047111Y-102018345D01*
X176116886Y-102005242D01*
X176161514Y-102018346D01*
X176298816Y-102088304D01*
X176298824Y-102088308D01*
X176509676Y-102156818D01*
X176728649Y-102191500D01*
X176728652Y-102191500D01*
X178750348Y-102191500D01*
X178750351Y-102191500D01*
X178969324Y-102156818D01*
X179180176Y-102088308D01*
X179377715Y-101987657D01*
X179557076Y-101857343D01*
X179713843Y-101700576D01*
X179844157Y-101521215D01*
X179944808Y-101323676D01*
X180013318Y-101112824D01*
X180048000Y-100893851D01*
X180048000Y-100672149D01*
X180013318Y-100453176D01*
X179944808Y-100242324D01*
X179844157Y-100044785D01*
X179799446Y-99983246D01*
X179713841Y-99865421D01*
X179557078Y-99708658D01*
X179377718Y-99578345D01*
X179377717Y-99578344D01*
X179377715Y-99578343D01*
X179180176Y-99477692D01*
X179180173Y-99477691D01*
X179180171Y-99477690D01*
X178969329Y-99409183D01*
X178969325Y-99409182D01*
X178969324Y-99409182D01*
X178750351Y-99374500D01*
X176728649Y-99374500D01*
X176509676Y-99409182D01*
X176509670Y-99409183D01*
X176298828Y-99477690D01*
X176298822Y-99477693D01*
X176141890Y-99557654D01*
X176072113Y-99570758D01*
X176027486Y-99557654D01*
X175890176Y-99487692D01*
X175821810Y-99465478D01*
X175679329Y-99419183D01*
X175679325Y-99419182D01*
X175679324Y-99419182D01*
X175460351Y-99384500D01*
X173438649Y-99384500D01*
X173219676Y-99419182D01*
X173219670Y-99419183D01*
X173008828Y-99487690D01*
X173008822Y-99487693D01*
X172811281Y-99588345D01*
X172631921Y-99718658D01*
X172475158Y-99875421D01*
X172344845Y-100054781D01*
X172244193Y-100252322D01*
X172244190Y-100252328D01*
X172175683Y-100463170D01*
X172175682Y-100463175D01*
X172175682Y-100463176D01*
X172141000Y-100682149D01*
X148992054Y-100682149D01*
X147898189Y-99588284D01*
X145650701Y-97340797D01*
X145616676Y-97278486D01*
X145621741Y-97207671D01*
X145664288Y-97150835D01*
X145730808Y-97126024D01*
X145780709Y-97132530D01*
X145917365Y-97179444D01*
X146139431Y-97216500D01*
X146139435Y-97216500D01*
X146364565Y-97216500D01*
X146364569Y-97216500D01*
X146586635Y-97179444D01*
X146799574Y-97106342D01*
X146997576Y-96999189D01*
X147175240Y-96860906D01*
X147327722Y-96695268D01*
X147416518Y-96559354D01*
X147470520Y-96513268D01*
X147540868Y-96503692D01*
X147605225Y-96533669D01*
X147627480Y-96559353D01*
X147631293Y-96565188D01*
X147716275Y-96695265D01*
X147716279Y-96695270D01*
X147868762Y-96860908D01*
X147915897Y-96897595D01*
X148046424Y-96999189D01*
X148244426Y-97106342D01*
X148244427Y-97106342D01*
X148244428Y-97106343D01*
X148315728Y-97130820D01*
X148457365Y-97179444D01*
X148679431Y-97216500D01*
X148679435Y-97216500D01*
X148904565Y-97216500D01*
X148904569Y-97216500D01*
X149126635Y-97179444D01*
X149339574Y-97106342D01*
X149537576Y-96999189D01*
X149715240Y-96860906D01*
X149867722Y-96695268D01*
X149956518Y-96559354D01*
X150010520Y-96513268D01*
X150080868Y-96503692D01*
X150145225Y-96533669D01*
X150167480Y-96559353D01*
X150171293Y-96565188D01*
X150256275Y-96695265D01*
X150256279Y-96695270D01*
X150408762Y-96860908D01*
X150455897Y-96897595D01*
X150586424Y-96999189D01*
X150784426Y-97106342D01*
X150784427Y-97106342D01*
X150784428Y-97106343D01*
X150855728Y-97130820D01*
X150997365Y-97179444D01*
X151219431Y-97216500D01*
X151219435Y-97216500D01*
X151444565Y-97216500D01*
X151444569Y-97216500D01*
X151666635Y-97179444D01*
X151879574Y-97106342D01*
X152077576Y-96999189D01*
X152255240Y-96860906D01*
X152407722Y-96695268D01*
X152496518Y-96559354D01*
X152550520Y-96513268D01*
X152620868Y-96503692D01*
X152685225Y-96533669D01*
X152707480Y-96559353D01*
X152711293Y-96565188D01*
X152796275Y-96695265D01*
X152796279Y-96695270D01*
X152948762Y-96860908D01*
X152995897Y-96897595D01*
X153126424Y-96999189D01*
X153324426Y-97106342D01*
X153324427Y-97106342D01*
X153324428Y-97106343D01*
X153395728Y-97130820D01*
X153537365Y-97179444D01*
X153759431Y-97216500D01*
X153759435Y-97216500D01*
X153984565Y-97216500D01*
X153984569Y-97216500D01*
X154206635Y-97179444D01*
X154419574Y-97106342D01*
X154617576Y-96999189D01*
X154795240Y-96860906D01*
X154947722Y-96695268D01*
X155070860Y-96506791D01*
X155161296Y-96300616D01*
X155216564Y-96082368D01*
X155235156Y-95858000D01*
X155216564Y-95633632D01*
X155161296Y-95415384D01*
X155070860Y-95209209D01*
X155064140Y-95198924D01*
X154947724Y-95020734D01*
X154947720Y-95020729D01*
X154795237Y-94855091D01*
X154687007Y-94770852D01*
X154617576Y-94716811D01*
X154584319Y-94698813D01*
X154533929Y-94648802D01*
X154518576Y-94579485D01*
X154543136Y-94512872D01*
X154584320Y-94477186D01*
X154617576Y-94459189D01*
X154795240Y-94320906D01*
X154947722Y-94155268D01*
X155036518Y-94019354D01*
X155090520Y-93973268D01*
X155160868Y-93963692D01*
X155225225Y-93993669D01*
X155247480Y-94019353D01*
X155276778Y-94064197D01*
X155336275Y-94155265D01*
X155336279Y-94155270D01*
X155488762Y-94320908D01*
X155543331Y-94363381D01*
X155666424Y-94459189D01*
X155864426Y-94566342D01*
X155864427Y-94566342D01*
X155864428Y-94566343D01*
X155952320Y-94596516D01*
X156077365Y-94639444D01*
X156299431Y-94676500D01*
X156299435Y-94676500D01*
X156524565Y-94676500D01*
X156524569Y-94676500D01*
X156746635Y-94639444D01*
X156959574Y-94566342D01*
X157157576Y-94459189D01*
X157335240Y-94320906D01*
X157487722Y-94155268D01*
X157576518Y-94019354D01*
X157630520Y-93973268D01*
X157700868Y-93963692D01*
X157765225Y-93993669D01*
X157787480Y-94019353D01*
X157816778Y-94064197D01*
X157876275Y-94155265D01*
X157876279Y-94155270D01*
X158028762Y-94320908D01*
X158083331Y-94363381D01*
X158206424Y-94459189D01*
X158239680Y-94477186D01*
X158290071Y-94527200D01*
X158305423Y-94596516D01*
X158280862Y-94663129D01*
X158239680Y-94698813D01*
X158206426Y-94716810D01*
X158206424Y-94716811D01*
X158028762Y-94855091D01*
X157876279Y-95020729D01*
X157876275Y-95020734D01*
X157753141Y-95209206D01*
X157662703Y-95415386D01*
X157662702Y-95415387D01*
X157607437Y-95633624D01*
X157588844Y-95858000D01*
X157607437Y-96082375D01*
X157662702Y-96300612D01*
X157662703Y-96300613D01*
X157753141Y-96506793D01*
X157876275Y-96695265D01*
X157876279Y-96695270D01*
X158028762Y-96860908D01*
X158075897Y-96897595D01*
X158206424Y-96999189D01*
X158404426Y-97106342D01*
X158404427Y-97106342D01*
X158404428Y-97106343D01*
X158475728Y-97130820D01*
X158617365Y-97179444D01*
X158839431Y-97216500D01*
X158839435Y-97216500D01*
X159064565Y-97216500D01*
X159064569Y-97216500D01*
X159286635Y-97179444D01*
X159499574Y-97106342D01*
X159697576Y-96999189D01*
X159875240Y-96860906D01*
X160027722Y-96695268D01*
X160116518Y-96559354D01*
X160170520Y-96513268D01*
X160240868Y-96503692D01*
X160305225Y-96533669D01*
X160327480Y-96559353D01*
X160331293Y-96565188D01*
X160416275Y-96695265D01*
X160416279Y-96695270D01*
X160568762Y-96860908D01*
X160615897Y-96897595D01*
X160746424Y-96999189D01*
X160944426Y-97106342D01*
X160944427Y-97106342D01*
X160944428Y-97106343D01*
X161015728Y-97130820D01*
X161157365Y-97179444D01*
X161379431Y-97216500D01*
X161379435Y-97216500D01*
X161604565Y-97216500D01*
X161604569Y-97216500D01*
X161826635Y-97179444D01*
X162039574Y-97106342D01*
X162237576Y-96999189D01*
X162415240Y-96860906D01*
X162567722Y-96695268D01*
X162656518Y-96559354D01*
X162710520Y-96513268D01*
X162780868Y-96503692D01*
X162845225Y-96533669D01*
X162867480Y-96559353D01*
X162871293Y-96565188D01*
X162956275Y-96695265D01*
X162956279Y-96695270D01*
X163108762Y-96860908D01*
X163155897Y-96897595D01*
X163286424Y-96999189D01*
X163484426Y-97106342D01*
X163484427Y-97106342D01*
X163484428Y-97106343D01*
X163555728Y-97130820D01*
X163697365Y-97179444D01*
X163919431Y-97216500D01*
X163919435Y-97216500D01*
X164144565Y-97216500D01*
X164144569Y-97216500D01*
X164366635Y-97179444D01*
X164579574Y-97106342D01*
X164777576Y-96999189D01*
X164955240Y-96860906D01*
X165107722Y-96695268D01*
X165196518Y-96559354D01*
X165250520Y-96513268D01*
X165320868Y-96503692D01*
X165385225Y-96533669D01*
X165407480Y-96559353D01*
X165411293Y-96565188D01*
X165496275Y-96695265D01*
X165496279Y-96695270D01*
X165648762Y-96860908D01*
X165695897Y-96897595D01*
X165826424Y-96999189D01*
X166024426Y-97106342D01*
X166024427Y-97106342D01*
X166024428Y-97106343D01*
X166095728Y-97130820D01*
X166237365Y-97179444D01*
X166459431Y-97216500D01*
X166459435Y-97216500D01*
X166684565Y-97216500D01*
X166684569Y-97216500D01*
X166906635Y-97179444D01*
X167119574Y-97106342D01*
X167317576Y-96999189D01*
X167495240Y-96860906D01*
X167647722Y-96695268D01*
X167736518Y-96559354D01*
X167790520Y-96513268D01*
X167860868Y-96503692D01*
X167925225Y-96533669D01*
X167947480Y-96559353D01*
X167951293Y-96565188D01*
X168036275Y-96695265D01*
X168036279Y-96695270D01*
X168188762Y-96860908D01*
X168235897Y-96897595D01*
X168366424Y-96999189D01*
X168564426Y-97106342D01*
X168564427Y-97106342D01*
X168564428Y-97106343D01*
X168635728Y-97130820D01*
X168777365Y-97179444D01*
X168999431Y-97216500D01*
X168999435Y-97216500D01*
X169224565Y-97216500D01*
X169224569Y-97216500D01*
X169446635Y-97179444D01*
X169659574Y-97106342D01*
X169857576Y-96999189D01*
X170035240Y-96860906D01*
X170187722Y-96695268D01*
X170276518Y-96559354D01*
X170330520Y-96513268D01*
X170400868Y-96503692D01*
X170465225Y-96533669D01*
X170487480Y-96559353D01*
X170491293Y-96565188D01*
X170576275Y-96695265D01*
X170576279Y-96695270D01*
X170728762Y-96860908D01*
X170775897Y-96897595D01*
X170906424Y-96999189D01*
X171104426Y-97106342D01*
X171104427Y-97106342D01*
X171104428Y-97106343D01*
X171175728Y-97130820D01*
X171317365Y-97179444D01*
X171539431Y-97216500D01*
X171539435Y-97216500D01*
X171764565Y-97216500D01*
X171764569Y-97216500D01*
X171986635Y-97179444D01*
X172199574Y-97106342D01*
X172397576Y-96999189D01*
X172575240Y-96860906D01*
X172727722Y-96695268D01*
X172850860Y-96506791D01*
X172941296Y-96300616D01*
X172996564Y-96082368D01*
X173015156Y-95858000D01*
X172996564Y-95633632D01*
X172941296Y-95415384D01*
X172850860Y-95209209D01*
X172844140Y-95198924D01*
X172727724Y-95020734D01*
X172727720Y-95020729D01*
X172575237Y-94855091D01*
X172467007Y-94770852D01*
X172397576Y-94716811D01*
X172364319Y-94698813D01*
X172313929Y-94648802D01*
X172298576Y-94579485D01*
X172323136Y-94512872D01*
X172364320Y-94477186D01*
X172397576Y-94459189D01*
X172575240Y-94320906D01*
X172727722Y-94155268D01*
X172816518Y-94019354D01*
X172870520Y-93973268D01*
X172940868Y-93963692D01*
X173005225Y-93993669D01*
X173027480Y-94019353D01*
X173056778Y-94064197D01*
X173116275Y-94155265D01*
X173116279Y-94155270D01*
X173268762Y-94320908D01*
X173323331Y-94363381D01*
X173446424Y-94459189D01*
X173644426Y-94566342D01*
X173644427Y-94566342D01*
X173644428Y-94566343D01*
X173732320Y-94596516D01*
X173857365Y-94639444D01*
X174079431Y-94676500D01*
X174079435Y-94676500D01*
X174304565Y-94676500D01*
X174304569Y-94676500D01*
X174526635Y-94639444D01*
X174739574Y-94566342D01*
X174937576Y-94459189D01*
X175115240Y-94320906D01*
X175267722Y-94155268D01*
X175390860Y-93966791D01*
X175481296Y-93760616D01*
X175536564Y-93542368D01*
X175555156Y-93318000D01*
X175536564Y-93093632D01*
X175490917Y-92913375D01*
X175481297Y-92875387D01*
X175481296Y-92875386D01*
X175481296Y-92875384D01*
X175390860Y-92669209D01*
X175377083Y-92648122D01*
X175267724Y-92480734D01*
X175267720Y-92480729D01*
X175115237Y-92315091D01*
X174995367Y-92221792D01*
X174937576Y-92176811D01*
X174739574Y-92069658D01*
X174739572Y-92069657D01*
X174739571Y-92069656D01*
X174526639Y-91996557D01*
X174526630Y-91996555D01*
X174482476Y-91989187D01*
X174304569Y-91959500D01*
X174079431Y-91959500D01*
X173931211Y-91984233D01*
X173857369Y-91996555D01*
X173857360Y-91996557D01*
X173644428Y-92069656D01*
X173644426Y-92069658D01*
X173446426Y-92176810D01*
X173446424Y-92176811D01*
X173268762Y-92315091D01*
X173116279Y-92480729D01*
X173027483Y-92616643D01*
X172973479Y-92662731D01*
X172903131Y-92672306D01*
X172838774Y-92642329D01*
X172816517Y-92616643D01*
X172727720Y-92480729D01*
X172575237Y-92315091D01*
X172455367Y-92221792D01*
X172397576Y-92176811D01*
X172199574Y-92069658D01*
X172199572Y-92069657D01*
X172199571Y-92069656D01*
X171986639Y-91996557D01*
X171986630Y-91996555D01*
X171942476Y-91989187D01*
X171764569Y-91959500D01*
X171539431Y-91959500D01*
X171391211Y-91984233D01*
X171317369Y-91996555D01*
X171317360Y-91996557D01*
X171104428Y-92069656D01*
X171104426Y-92069658D01*
X170906426Y-92176810D01*
X170906424Y-92176811D01*
X170728762Y-92315091D01*
X170576279Y-92480729D01*
X170487483Y-92616643D01*
X170433479Y-92662731D01*
X170363131Y-92672306D01*
X170298774Y-92642329D01*
X170276517Y-92616643D01*
X170187720Y-92480729D01*
X170035237Y-92315091D01*
X169915367Y-92221792D01*
X169857576Y-92176811D01*
X169659574Y-92069658D01*
X169659572Y-92069657D01*
X169659571Y-92069656D01*
X169446639Y-91996557D01*
X169446630Y-91996555D01*
X169402476Y-91989187D01*
X169224569Y-91959500D01*
X168999431Y-91959500D01*
X168851211Y-91984233D01*
X168777369Y-91996555D01*
X168777360Y-91996557D01*
X168564428Y-92069656D01*
X168564426Y-92069658D01*
X168366426Y-92176810D01*
X168366424Y-92176811D01*
X168188762Y-92315091D01*
X168036279Y-92480729D01*
X168036275Y-92480734D01*
X167913141Y-92669206D01*
X167822703Y-92875386D01*
X167822702Y-92875387D01*
X167767437Y-93093624D01*
X167767436Y-93093630D01*
X167767436Y-93093632D01*
X167748844Y-93318000D01*
X167767436Y-93542368D01*
X167767436Y-93542370D01*
X167767437Y-93542375D01*
X167822702Y-93760612D01*
X167822703Y-93760613D01*
X167822704Y-93760616D01*
X167828718Y-93774326D01*
X167913141Y-93966793D01*
X168036275Y-94155265D01*
X168036279Y-94155270D01*
X168188762Y-94320908D01*
X168243331Y-94363381D01*
X168366424Y-94459189D01*
X168399680Y-94477186D01*
X168450071Y-94527200D01*
X168465423Y-94596516D01*
X168440862Y-94663129D01*
X168399680Y-94698813D01*
X168366426Y-94716810D01*
X168366424Y-94716811D01*
X168188762Y-94855091D01*
X168036279Y-95020729D01*
X167947483Y-95156643D01*
X167893479Y-95202731D01*
X167823131Y-95212306D01*
X167758774Y-95182329D01*
X167736517Y-95156643D01*
X167647720Y-95020729D01*
X167495237Y-94855091D01*
X167387007Y-94770852D01*
X167317576Y-94716811D01*
X167119574Y-94609658D01*
X167119572Y-94609657D01*
X167119571Y-94609656D01*
X166906639Y-94536557D01*
X166906630Y-94536555D01*
X166850567Y-94527200D01*
X166684569Y-94499500D01*
X166459431Y-94499500D01*
X166311211Y-94524233D01*
X166237369Y-94536555D01*
X166237360Y-94536557D01*
X166024428Y-94609656D01*
X166024426Y-94609658D01*
X165826432Y-94716807D01*
X165826426Y-94716810D01*
X165826424Y-94716811D01*
X165648762Y-94855091D01*
X165496279Y-95020729D01*
X165407483Y-95156643D01*
X165353479Y-95202731D01*
X165283131Y-95212306D01*
X165218774Y-95182329D01*
X165196517Y-95156643D01*
X165107720Y-95020729D01*
X164955237Y-94855091D01*
X164847007Y-94770852D01*
X164777576Y-94716811D01*
X164744319Y-94698813D01*
X164693929Y-94648802D01*
X164678576Y-94579485D01*
X164703136Y-94512872D01*
X164744320Y-94477186D01*
X164777576Y-94459189D01*
X164955240Y-94320906D01*
X165107722Y-94155268D01*
X165230860Y-93966791D01*
X165321296Y-93760616D01*
X165376564Y-93542368D01*
X165395156Y-93318000D01*
X165376564Y-93093632D01*
X165330917Y-92913375D01*
X165321297Y-92875387D01*
X165321296Y-92875386D01*
X165321296Y-92875384D01*
X165230860Y-92669209D01*
X165217083Y-92648122D01*
X165107724Y-92480734D01*
X165107720Y-92480729D01*
X164955237Y-92315091D01*
X164835367Y-92221792D01*
X164777576Y-92176811D01*
X164579574Y-92069658D01*
X164579572Y-92069657D01*
X164579571Y-92069656D01*
X164366639Y-91996557D01*
X164366630Y-91996555D01*
X164322476Y-91989187D01*
X164144569Y-91959500D01*
X163919431Y-91959500D01*
X163771211Y-91984233D01*
X163697369Y-91996555D01*
X163697360Y-91996557D01*
X163484428Y-92069656D01*
X163484426Y-92069658D01*
X163286426Y-92176810D01*
X163286424Y-92176811D01*
X163108762Y-92315091D01*
X162956279Y-92480729D01*
X162956275Y-92480734D01*
X162833141Y-92669206D01*
X162742703Y-92875386D01*
X162742702Y-92875387D01*
X162687437Y-93093624D01*
X162687436Y-93093630D01*
X162687436Y-93093632D01*
X162668844Y-93318000D01*
X162687436Y-93542368D01*
X162687436Y-93542370D01*
X162687437Y-93542375D01*
X162742702Y-93760612D01*
X162742703Y-93760613D01*
X162742704Y-93760616D01*
X162748718Y-93774326D01*
X162833141Y-93966793D01*
X162956275Y-94155265D01*
X162956279Y-94155270D01*
X163108762Y-94320908D01*
X163163331Y-94363381D01*
X163286424Y-94459189D01*
X163319680Y-94477186D01*
X163370071Y-94527200D01*
X163385423Y-94596516D01*
X163360862Y-94663129D01*
X163319680Y-94698813D01*
X163286426Y-94716810D01*
X163286424Y-94716811D01*
X163108762Y-94855091D01*
X162956279Y-95020729D01*
X162867483Y-95156643D01*
X162813479Y-95202731D01*
X162743131Y-95212306D01*
X162678774Y-95182329D01*
X162656517Y-95156643D01*
X162567720Y-95020729D01*
X162415237Y-94855091D01*
X162307007Y-94770852D01*
X162237576Y-94716811D01*
X162039574Y-94609658D01*
X162039572Y-94609657D01*
X162039571Y-94609656D01*
X161826639Y-94536557D01*
X161826630Y-94536555D01*
X161770567Y-94527200D01*
X161604569Y-94499500D01*
X161379431Y-94499500D01*
X161231211Y-94524233D01*
X161157369Y-94536555D01*
X161157360Y-94536557D01*
X160944428Y-94609656D01*
X160944426Y-94609658D01*
X160746432Y-94716807D01*
X160746426Y-94716810D01*
X160746424Y-94716811D01*
X160568762Y-94855091D01*
X160416279Y-95020729D01*
X160327483Y-95156643D01*
X160273479Y-95202731D01*
X160203131Y-95212306D01*
X160138774Y-95182329D01*
X160116517Y-95156643D01*
X160027720Y-95020729D01*
X159875237Y-94855091D01*
X159767007Y-94770852D01*
X159697576Y-94716811D01*
X159664319Y-94698813D01*
X159613929Y-94648802D01*
X159598576Y-94579485D01*
X159623136Y-94512872D01*
X159664320Y-94477186D01*
X159697576Y-94459189D01*
X159875240Y-94320906D01*
X160027722Y-94155268D01*
X160150860Y-93966791D01*
X160241296Y-93760616D01*
X160296564Y-93542368D01*
X160315156Y-93318000D01*
X160296564Y-93093632D01*
X160250917Y-92913375D01*
X160241297Y-92875387D01*
X160241296Y-92875386D01*
X160241296Y-92875384D01*
X160150860Y-92669209D01*
X160137083Y-92648122D01*
X160027724Y-92480734D01*
X160027720Y-92480729D01*
X159875237Y-92315091D01*
X159755367Y-92221792D01*
X159697576Y-92176811D01*
X159499574Y-92069658D01*
X159499572Y-92069657D01*
X159499571Y-92069656D01*
X159286639Y-91996557D01*
X159286630Y-91996555D01*
X159242476Y-91989187D01*
X159064569Y-91959500D01*
X158839431Y-91959500D01*
X158691211Y-91984233D01*
X158617369Y-91996555D01*
X158617360Y-91996557D01*
X158404428Y-92069656D01*
X158404426Y-92069658D01*
X158206426Y-92176810D01*
X158206424Y-92176811D01*
X158028762Y-92315091D01*
X157876279Y-92480729D01*
X157787483Y-92616643D01*
X157733479Y-92662731D01*
X157663131Y-92672306D01*
X157598774Y-92642329D01*
X157576517Y-92616643D01*
X157487720Y-92480729D01*
X157335237Y-92315091D01*
X157215367Y-92221792D01*
X157157576Y-92176811D01*
X156959574Y-92069658D01*
X156959572Y-92069657D01*
X156959571Y-92069656D01*
X156746639Y-91996557D01*
X156746630Y-91996555D01*
X156702476Y-91989187D01*
X156524569Y-91959500D01*
X156299431Y-91959500D01*
X156151211Y-91984233D01*
X156077369Y-91996555D01*
X156077360Y-91996557D01*
X155864428Y-92069656D01*
X155864426Y-92069658D01*
X155666426Y-92176810D01*
X155666424Y-92176811D01*
X155488762Y-92315091D01*
X155336279Y-92480729D01*
X155247483Y-92616643D01*
X155193479Y-92662731D01*
X155123131Y-92672306D01*
X155058774Y-92642329D01*
X155036517Y-92616643D01*
X154947720Y-92480729D01*
X154795237Y-92315091D01*
X154675367Y-92221792D01*
X154617576Y-92176811D01*
X154419574Y-92069658D01*
X154419572Y-92069657D01*
X154419571Y-92069656D01*
X154206639Y-91996557D01*
X154206630Y-91996555D01*
X154162476Y-91989187D01*
X153984569Y-91959500D01*
X153759431Y-91959500D01*
X153611211Y-91984233D01*
X153537369Y-91996555D01*
X153537360Y-91996557D01*
X153324428Y-92069656D01*
X153324426Y-92069658D01*
X153126426Y-92176810D01*
X153126424Y-92176811D01*
X152948762Y-92315091D01*
X152796279Y-92480729D01*
X152707483Y-92616643D01*
X152653479Y-92662731D01*
X152583131Y-92672306D01*
X152518774Y-92642329D01*
X152496517Y-92616643D01*
X152407720Y-92480729D01*
X152255237Y-92315091D01*
X152135367Y-92221792D01*
X152077576Y-92176811D01*
X151879574Y-92069658D01*
X151879572Y-92069657D01*
X151879571Y-92069656D01*
X151666639Y-91996557D01*
X151666630Y-91996555D01*
X151622476Y-91989187D01*
X151444569Y-91959500D01*
X151219431Y-91959500D01*
X151071211Y-91984233D01*
X150997369Y-91996555D01*
X150997360Y-91996557D01*
X150784428Y-92069656D01*
X150784426Y-92069658D01*
X150586426Y-92176810D01*
X150586424Y-92176811D01*
X150408762Y-92315091D01*
X150256279Y-92480729D01*
X150256275Y-92480734D01*
X150133141Y-92669206D01*
X150042703Y-92875386D01*
X150042702Y-92875387D01*
X149987437Y-93093624D01*
X149987436Y-93093630D01*
X149987436Y-93093632D01*
X149968844Y-93318000D01*
X149987436Y-93542368D01*
X149987436Y-93542370D01*
X149987437Y-93542375D01*
X150042702Y-93760612D01*
X150042703Y-93760613D01*
X150042704Y-93760616D01*
X150048718Y-93774326D01*
X150133141Y-93966793D01*
X150256275Y-94155265D01*
X150256279Y-94155270D01*
X150408762Y-94320908D01*
X150463331Y-94363381D01*
X150586424Y-94459189D01*
X150619680Y-94477186D01*
X150670071Y-94527200D01*
X150685423Y-94596516D01*
X150660862Y-94663129D01*
X150619680Y-94698813D01*
X150586426Y-94716810D01*
X150586424Y-94716811D01*
X150408762Y-94855091D01*
X150256279Y-95020729D01*
X150167483Y-95156643D01*
X150113479Y-95202731D01*
X150043131Y-95212306D01*
X149978774Y-95182329D01*
X149956517Y-95156643D01*
X149867720Y-95020729D01*
X149715237Y-94855091D01*
X149607007Y-94770852D01*
X149537576Y-94716811D01*
X149339574Y-94609658D01*
X149339572Y-94609657D01*
X149339571Y-94609656D01*
X149126639Y-94536557D01*
X149126630Y-94536555D01*
X149070567Y-94527200D01*
X148904569Y-94499500D01*
X148679431Y-94499500D01*
X148531211Y-94524233D01*
X148457369Y-94536555D01*
X148457360Y-94536557D01*
X148244428Y-94609656D01*
X148244426Y-94609658D01*
X148046432Y-94716807D01*
X148046426Y-94716810D01*
X148046424Y-94716811D01*
X147868762Y-94855091D01*
X147716279Y-95020729D01*
X147627483Y-95156643D01*
X147573479Y-95202731D01*
X147503131Y-95212306D01*
X147438774Y-95182329D01*
X147416517Y-95156643D01*
X147327720Y-95020729D01*
X147175237Y-94855091D01*
X147067007Y-94770852D01*
X146997576Y-94716811D01*
X146964319Y-94698813D01*
X146913929Y-94648802D01*
X146898576Y-94579485D01*
X146923136Y-94512872D01*
X146964320Y-94477186D01*
X146997576Y-94459189D01*
X147175240Y-94320906D01*
X147327722Y-94155268D01*
X147450860Y-93966791D01*
X147541296Y-93760616D01*
X147596564Y-93542368D01*
X147615156Y-93318000D01*
X147596564Y-93093632D01*
X147550917Y-92913375D01*
X147541297Y-92875387D01*
X147541296Y-92875386D01*
X147541296Y-92875384D01*
X147450860Y-92669209D01*
X147437083Y-92648122D01*
X147327724Y-92480734D01*
X147327720Y-92480729D01*
X147175237Y-92315091D01*
X147055367Y-92221792D01*
X146997576Y-92176811D01*
X146799574Y-92069658D01*
X146799572Y-92069657D01*
X146799571Y-92069656D01*
X146586639Y-91996557D01*
X146586630Y-91996555D01*
X146542476Y-91989187D01*
X146364569Y-91959500D01*
X146139431Y-91959500D01*
X145991211Y-91984233D01*
X145917369Y-91996555D01*
X145917360Y-91996557D01*
X145704428Y-92069656D01*
X145704426Y-92069658D01*
X145506426Y-92176810D01*
X145506424Y-92176811D01*
X145328762Y-92315091D01*
X145176279Y-92480729D01*
X145087483Y-92616643D01*
X145033479Y-92662731D01*
X144963131Y-92672306D01*
X144898774Y-92642329D01*
X144876517Y-92616643D01*
X144787720Y-92480729D01*
X144635237Y-92315091D01*
X144515367Y-92221792D01*
X144457576Y-92176811D01*
X144259574Y-92069658D01*
X144259572Y-92069657D01*
X144259571Y-92069656D01*
X144046639Y-91996557D01*
X144046630Y-91996555D01*
X144002476Y-91989187D01*
X143824569Y-91959500D01*
X143599431Y-91959500D01*
X143451211Y-91984233D01*
X143377369Y-91996555D01*
X143377360Y-91996557D01*
X143164428Y-92069656D01*
X143164426Y-92069658D01*
X142966426Y-92176810D01*
X142966424Y-92176811D01*
X142788762Y-92315091D01*
X142636279Y-92480729D01*
X142636275Y-92480734D01*
X142513141Y-92669206D01*
X142422703Y-92875386D01*
X142422702Y-92875387D01*
X142367437Y-93093624D01*
X142367436Y-93093630D01*
X142367436Y-93093632D01*
X142348844Y-93318000D01*
X142367436Y-93542368D01*
X142367436Y-93542370D01*
X142367437Y-93542375D01*
X142422702Y-93760612D01*
X142422703Y-93760613D01*
X142422704Y-93760616D01*
X142428718Y-93774326D01*
X142513141Y-93966793D01*
X142636275Y-94155265D01*
X142636279Y-94155270D01*
X142788762Y-94320908D01*
X142843331Y-94363381D01*
X142966424Y-94459189D01*
X142999680Y-94477186D01*
X143050071Y-94527200D01*
X143065423Y-94596516D01*
X143040862Y-94663129D01*
X142999680Y-94698813D01*
X142966426Y-94716810D01*
X142966424Y-94716811D01*
X142788762Y-94855091D01*
X142636279Y-95020729D01*
X142547483Y-95156643D01*
X142493479Y-95202731D01*
X142423131Y-95212306D01*
X142358774Y-95182329D01*
X142336517Y-95156643D01*
X142247720Y-95020729D01*
X142095237Y-94855091D01*
X141987007Y-94770852D01*
X141917576Y-94716811D01*
X141719574Y-94609658D01*
X141719572Y-94609657D01*
X141719571Y-94609656D01*
X141506639Y-94536557D01*
X141506630Y-94536555D01*
X141450567Y-94527200D01*
X141284569Y-94499500D01*
X141059431Y-94499500D01*
X140911211Y-94524233D01*
X140837369Y-94536555D01*
X140837360Y-94536557D01*
X140624428Y-94609656D01*
X140624426Y-94609658D01*
X140426432Y-94716807D01*
X140426426Y-94716810D01*
X140426424Y-94716811D01*
X140248762Y-94855091D01*
X140096279Y-95020729D01*
X140007483Y-95156643D01*
X139953479Y-95202731D01*
X139883131Y-95212306D01*
X139818774Y-95182329D01*
X139796517Y-95156643D01*
X139707720Y-95020729D01*
X139555237Y-94855091D01*
X139447007Y-94770852D01*
X139377576Y-94716811D01*
X139344319Y-94698813D01*
X139293929Y-94648802D01*
X139278576Y-94579485D01*
X139303136Y-94512872D01*
X139344320Y-94477186D01*
X139377576Y-94459189D01*
X139555240Y-94320906D01*
X139707722Y-94155268D01*
X139830860Y-93966791D01*
X139921296Y-93760616D01*
X139976564Y-93542368D01*
X139995156Y-93318000D01*
X139976564Y-93093632D01*
X139930917Y-92913375D01*
X139921297Y-92875387D01*
X139921296Y-92875386D01*
X139921296Y-92875384D01*
X139830860Y-92669209D01*
X139817083Y-92648122D01*
X139707724Y-92480734D01*
X139707720Y-92480729D01*
X139555237Y-92315091D01*
X139435367Y-92221792D01*
X139377576Y-92176811D01*
X139179574Y-92069658D01*
X139179572Y-92069657D01*
X139179571Y-92069656D01*
X138966639Y-91996557D01*
X138966630Y-91996555D01*
X138922476Y-91989187D01*
X138744569Y-91959500D01*
X138519431Y-91959500D01*
X138371211Y-91984233D01*
X138297369Y-91996555D01*
X138297360Y-91996557D01*
X138084428Y-92069656D01*
X138084426Y-92069658D01*
X137886426Y-92176810D01*
X137886424Y-92176811D01*
X137708762Y-92315091D01*
X137556279Y-92480729D01*
X137467483Y-92616643D01*
X137413479Y-92662731D01*
X137343131Y-92672306D01*
X137278774Y-92642329D01*
X137256517Y-92616643D01*
X137167720Y-92480729D01*
X137015237Y-92315091D01*
X136895367Y-92221792D01*
X136837576Y-92176811D01*
X136639574Y-92069658D01*
X136639572Y-92069657D01*
X136639571Y-92069656D01*
X136426639Y-91996557D01*
X136426630Y-91996555D01*
X136382476Y-91989187D01*
X136204569Y-91959500D01*
X135979431Y-91959500D01*
X135831211Y-91984233D01*
X135757369Y-91996555D01*
X135757360Y-91996557D01*
X135544428Y-92069656D01*
X135544426Y-92069658D01*
X135346426Y-92176810D01*
X135346424Y-92176811D01*
X135168762Y-92315091D01*
X135016279Y-92480729D01*
X134927483Y-92616643D01*
X134873479Y-92662731D01*
X134803131Y-92672306D01*
X134738774Y-92642329D01*
X134716517Y-92616643D01*
X134627720Y-92480729D01*
X134475237Y-92315091D01*
X134355367Y-92221792D01*
X134297576Y-92176811D01*
X134099574Y-92069658D01*
X134099572Y-92069657D01*
X134099571Y-92069656D01*
X133886639Y-91996557D01*
X133886630Y-91996555D01*
X133842476Y-91989187D01*
X133664569Y-91959500D01*
X133439431Y-91959500D01*
X133291211Y-91984233D01*
X133217369Y-91996555D01*
X133217360Y-91996557D01*
X133004428Y-92069656D01*
X133004426Y-92069658D01*
X132806426Y-92176810D01*
X132806424Y-92176811D01*
X132628762Y-92315091D01*
X132476279Y-92480729D01*
X132476275Y-92480734D01*
X132353141Y-92669206D01*
X132262703Y-92875386D01*
X132262702Y-92875387D01*
X132207437Y-93093624D01*
X132207436Y-93093630D01*
X132207436Y-93093632D01*
X132200141Y-93181665D01*
X132188844Y-93318000D01*
X132207436Y-93542369D01*
X132235182Y-93651935D01*
X132232514Y-93722882D01*
X132202133Y-93771961D01*
X131973167Y-94000929D01*
X131884927Y-94089169D01*
X131884926Y-94089171D01*
X131815601Y-94192923D01*
X131780692Y-94277201D01*
X131767845Y-94308215D01*
X131758028Y-94357568D01*
X131743500Y-94430603D01*
X131743500Y-94497738D01*
X131723498Y-94565859D01*
X131669842Y-94612352D01*
X131599568Y-94622456D01*
X131564705Y-94610928D01*
X131564345Y-94611751D01*
X131559571Y-94609656D01*
X131346639Y-94536557D01*
X131346630Y-94536555D01*
X131290567Y-94527200D01*
X131124569Y-94499500D01*
X130899431Y-94499500D01*
X130751211Y-94524233D01*
X130677369Y-94536555D01*
X130677360Y-94536557D01*
X130464428Y-94609656D01*
X130464426Y-94609658D01*
X130266432Y-94716807D01*
X130266426Y-94716810D01*
X130266424Y-94716811D01*
X130088762Y-94855091D01*
X129936279Y-95020729D01*
X129847483Y-95156643D01*
X129793479Y-95202731D01*
X129723131Y-95212306D01*
X129658774Y-95182329D01*
X129636517Y-95156643D01*
X129547720Y-95020729D01*
X129404524Y-94865179D01*
X129373103Y-94801514D01*
X129381090Y-94730968D01*
X129425948Y-94675939D01*
X129453183Y-94661789D01*
X129568204Y-94618889D01*
X129571782Y-94616211D01*
X129685261Y-94531261D01*
X129772887Y-94414207D01*
X129772887Y-94414206D01*
X129772889Y-94414204D01*
X129823989Y-94277201D01*
X129830500Y-94216638D01*
X129830500Y-92419362D01*
X129829550Y-92410525D01*
X129823990Y-92358803D01*
X129823988Y-92358795D01*
X129772889Y-92221797D01*
X129772887Y-92221792D01*
X129685261Y-92104738D01*
X129568207Y-92017112D01*
X129568202Y-92017110D01*
X129431204Y-91966011D01*
X129431196Y-91966009D01*
X129370649Y-91959500D01*
X129370638Y-91959500D01*
X127573362Y-91959500D01*
X127573350Y-91959500D01*
X127512803Y-91966009D01*
X127512795Y-91966011D01*
X127375797Y-92017110D01*
X127375792Y-92017112D01*
X127277509Y-92090687D01*
X127210989Y-92115498D01*
X127141615Y-92100407D01*
X127126491Y-92090687D01*
X127028207Y-92017112D01*
X127028202Y-92017110D01*
X126891204Y-91966011D01*
X126891196Y-91966009D01*
X126830649Y-91959500D01*
X126830638Y-91959500D01*
X125033362Y-91959500D01*
X125033350Y-91959500D01*
X124972803Y-91966009D01*
X124972795Y-91966011D01*
X124835797Y-92017110D01*
X124835792Y-92017112D01*
X124718738Y-92104738D01*
X124631112Y-92221792D01*
X124631110Y-92221797D01*
X124580011Y-92358795D01*
X124580009Y-92358803D01*
X124573500Y-92419350D01*
X124573500Y-94216649D01*
X124580009Y-94277196D01*
X124580011Y-94277204D01*
X124631110Y-94414202D01*
X124631112Y-94414207D01*
X124718738Y-94531261D01*
X124835791Y-94618886D01*
X124835792Y-94618886D01*
X124835796Y-94618889D01*
X124950810Y-94661787D01*
X125007642Y-94704332D01*
X125032453Y-94770852D01*
X125017362Y-94840226D01*
X124999475Y-94865179D01*
X124856280Y-95020729D01*
X124856275Y-95020734D01*
X124733141Y-95209206D01*
X124642703Y-95415386D01*
X124642702Y-95415387D01*
X124587437Y-95633624D01*
X124568844Y-95858000D01*
X118032500Y-95858000D01*
X118032500Y-94071805D01*
X118032730Y-94064198D01*
X118048432Y-93804606D01*
X118050264Y-93774313D01*
X118052095Y-93759236D01*
X118103759Y-93477313D01*
X118107392Y-93462573D01*
X118192665Y-93188922D01*
X118198052Y-93174721D01*
X118315678Y-92913366D01*
X118322736Y-92899916D01*
X118471021Y-92654624D01*
X118479637Y-92642140D01*
X118656411Y-92416505D01*
X118666479Y-92405142D01*
X118869142Y-92202479D01*
X118880505Y-92192411D01*
X119106140Y-92015637D01*
X119118624Y-92007021D01*
X119363916Y-91858736D01*
X119377366Y-91851678D01*
X119638721Y-91734052D01*
X119652922Y-91728665D01*
X119926573Y-91643392D01*
X119941313Y-91639759D01*
X120223236Y-91588095D01*
X120238313Y-91586264D01*
X120500890Y-91570381D01*
X120528199Y-91568730D01*
X120535806Y-91568500D01*
X120597892Y-91568500D01*
X179466108Y-91568500D01*
X179528194Y-91568500D01*
X179535801Y-91568730D01*
G37*
G04 #@! TD.AperFunction*
M02*
