G04 #@! TF.GenerationSoftware,KiCad,Pcbnew,8.0.8*
G04 #@! TF.CreationDate,2025-01-31T19:00:45-08:00*
G04 #@! TF.ProjectId,pi-zero-serial-hat,70692d7a-6572-46f2-9d73-657269616c2d,2.0*
G04 #@! TF.SameCoordinates,Original*
G04 #@! TF.FileFunction,Legend,Bot*
G04 #@! TF.FilePolarity,Positive*
%FSLAX46Y46*%
G04 Gerber Fmt 4.6, Leading zero omitted, Abs format (unit mm)*
G04 Created by KiCad (PCBNEW 8.0.8) date 2025-01-31 19:00:45*
%MOMM*%
%LPD*%
G01*
G04 APERTURE LIST*
%ADD10C,0.150000*%
%ADD11C,0.120000*%
G04 APERTURE END LIST*
D10*
G36*
X181521052Y-106809128D02*
G01*
X181578992Y-106838098D01*
X181634056Y-106893162D01*
X181662704Y-106979104D01*
X181662704Y-107082411D01*
X181012704Y-107082411D01*
X181012704Y-106979105D01*
X181041352Y-106893162D01*
X181096417Y-106838098D01*
X181154355Y-106809128D01*
X181289796Y-106775268D01*
X181385612Y-106775268D01*
X181521052Y-106809128D01*
G37*
G36*
X181977784Y-109454633D02*
G01*
X180507149Y-109454633D01*
X180507149Y-109100268D01*
X180596038Y-109100268D01*
X180596038Y-109290744D01*
X180597479Y-109305376D01*
X180608678Y-109332412D01*
X180629370Y-109353104D01*
X180656406Y-109364303D01*
X180671038Y-109365744D01*
X181813895Y-109365744D01*
X181828527Y-109364303D01*
X181855563Y-109353104D01*
X181876255Y-109332412D01*
X181887454Y-109305376D01*
X181888895Y-109290744D01*
X181888895Y-109100268D01*
X181887454Y-109085636D01*
X181876255Y-109058600D01*
X181855563Y-109037908D01*
X181828527Y-109026709D01*
X181799263Y-109026709D01*
X181772227Y-109037908D01*
X181751535Y-109058600D01*
X181740336Y-109085636D01*
X181738895Y-109100268D01*
X181738895Y-109215744D01*
X180746038Y-109215744D01*
X180746038Y-109100268D01*
X180744597Y-109085636D01*
X180733398Y-109058600D01*
X180712706Y-109037908D01*
X180685670Y-109026709D01*
X180656406Y-109026709D01*
X180629370Y-109037908D01*
X180608678Y-109058600D01*
X180597479Y-109085636D01*
X180596038Y-109100268D01*
X180507149Y-109100268D01*
X180507149Y-108490744D01*
X180862704Y-108490744D01*
X180862704Y-108566935D01*
X180863433Y-108574340D01*
X180863293Y-108576316D01*
X180863883Y-108578913D01*
X180864145Y-108581567D01*
X180864903Y-108583397D01*
X180866553Y-108590652D01*
X180904649Y-108704938D01*
X180910643Y-108718364D01*
X180912409Y-108720400D01*
X180913440Y-108722889D01*
X180922767Y-108734254D01*
X180998957Y-108810444D01*
X181004707Y-108815164D01*
X181006006Y-108816661D01*
X181008260Y-108818080D01*
X181010322Y-108819772D01*
X181012154Y-108820530D01*
X181018449Y-108824493D01*
X181094639Y-108862588D01*
X181095708Y-108862997D01*
X181096144Y-108863320D01*
X181102295Y-108865518D01*
X181108371Y-108867843D01*
X181108909Y-108867881D01*
X181109989Y-108868267D01*
X181262371Y-108906363D01*
X181264907Y-108906738D01*
X181265929Y-108907161D01*
X181271441Y-108907703D01*
X181276915Y-108908513D01*
X181278007Y-108908350D01*
X181280561Y-108908602D01*
X181394847Y-108908602D01*
X181397400Y-108908350D01*
X181398493Y-108908513D01*
X181403967Y-108907703D01*
X181409479Y-108907161D01*
X181410499Y-108906738D01*
X181413038Y-108906363D01*
X181565419Y-108868267D01*
X181566498Y-108867881D01*
X181567037Y-108867843D01*
X181573112Y-108865518D01*
X181579264Y-108863320D01*
X181579699Y-108862997D01*
X181580769Y-108862588D01*
X181656960Y-108824493D01*
X181663259Y-108820528D01*
X181665087Y-108819771D01*
X181667143Y-108818082D01*
X181669403Y-108816661D01*
X181670702Y-108815162D01*
X181676452Y-108810444D01*
X181752642Y-108734254D01*
X181761970Y-108722889D01*
X181763002Y-108720396D01*
X181764766Y-108718363D01*
X181770760Y-108704938D01*
X181808855Y-108590652D01*
X181810504Y-108583398D01*
X181811263Y-108581567D01*
X181811524Y-108578912D01*
X181812115Y-108576315D01*
X181811974Y-108574340D01*
X181812704Y-108566935D01*
X181812704Y-108452649D01*
X181811263Y-108438017D01*
X181810231Y-108435527D01*
X181810041Y-108432840D01*
X181804786Y-108419108D01*
X181766691Y-108342918D01*
X181758859Y-108330475D01*
X181736751Y-108311302D01*
X181708990Y-108302048D01*
X181679800Y-108304122D01*
X181653625Y-108317209D01*
X181634452Y-108339317D01*
X181625198Y-108367078D01*
X181627272Y-108396268D01*
X181632527Y-108410000D01*
X181662704Y-108470354D01*
X181662704Y-108554765D01*
X181634056Y-108640707D01*
X181578992Y-108695771D01*
X181521052Y-108724741D01*
X181385612Y-108758602D01*
X181289796Y-108758602D01*
X181154355Y-108724741D01*
X181096417Y-108695772D01*
X181041352Y-108640707D01*
X181012704Y-108554764D01*
X181012704Y-108502915D01*
X181041352Y-108416972D01*
X181044962Y-108413363D01*
X181205561Y-108413363D01*
X181205561Y-108490744D01*
X181207002Y-108505376D01*
X181218201Y-108532412D01*
X181238893Y-108553104D01*
X181265929Y-108564303D01*
X181295193Y-108564303D01*
X181322229Y-108553104D01*
X181342921Y-108532412D01*
X181354120Y-108505376D01*
X181355561Y-108490744D01*
X181355561Y-108338363D01*
X181354120Y-108323731D01*
X181342921Y-108296695D01*
X181322229Y-108276003D01*
X181295193Y-108264804D01*
X181280561Y-108263363D01*
X181013895Y-108263363D01*
X180999263Y-108264804D01*
X180999262Y-108264804D01*
X180972226Y-108276003D01*
X180960861Y-108285331D01*
X180922766Y-108323427D01*
X180913439Y-108334792D01*
X180912408Y-108337280D01*
X180910643Y-108339316D01*
X180904649Y-108352742D01*
X180866553Y-108467026D01*
X180864903Y-108474281D01*
X180864145Y-108476112D01*
X180863883Y-108478765D01*
X180863293Y-108481363D01*
X180863433Y-108483338D01*
X180862704Y-108490744D01*
X180507149Y-108490744D01*
X180507149Y-107543602D01*
X180862887Y-107543602D01*
X180864145Y-107548214D01*
X180864145Y-107552995D01*
X180867962Y-107562210D01*
X180870587Y-107571834D01*
X180873514Y-107575614D01*
X180875344Y-107580031D01*
X180882394Y-107587081D01*
X180888504Y-107594971D01*
X180894636Y-107599323D01*
X180896036Y-107600723D01*
X180897410Y-107601292D01*
X180900494Y-107603481D01*
X181455288Y-107920506D01*
X180937704Y-107920506D01*
X180923072Y-107921947D01*
X180896036Y-107933146D01*
X180875344Y-107953838D01*
X180864145Y-107980874D01*
X180864145Y-108010138D01*
X180875344Y-108037174D01*
X180896036Y-108057866D01*
X180923072Y-108069065D01*
X180937704Y-108070506D01*
X181737704Y-108070506D01*
X181741467Y-108070135D01*
X181742943Y-108070323D01*
X181744853Y-108069801D01*
X181752336Y-108069065D01*
X181761551Y-108065247D01*
X181771175Y-108062623D01*
X181774955Y-108059695D01*
X181779372Y-108057866D01*
X181786422Y-108050815D01*
X181794312Y-108044706D01*
X181796685Y-108040552D01*
X181800064Y-108037174D01*
X181803880Y-108027961D01*
X181808831Y-108019297D01*
X181809433Y-108014553D01*
X181811263Y-108010138D01*
X181811263Y-108000163D01*
X181812521Y-107990267D01*
X181811263Y-107985654D01*
X181811263Y-107980874D01*
X181807445Y-107971657D01*
X181804821Y-107962036D01*
X181801894Y-107958256D01*
X181800064Y-107953838D01*
X181793012Y-107946786D01*
X181786904Y-107938898D01*
X181780771Y-107934545D01*
X181779372Y-107933146D01*
X181777997Y-107932576D01*
X181774914Y-107930388D01*
X181220120Y-107613363D01*
X181737704Y-107613363D01*
X181752336Y-107611922D01*
X181779372Y-107600723D01*
X181800064Y-107580031D01*
X181811263Y-107552995D01*
X181811263Y-107523731D01*
X181800064Y-107496695D01*
X181779372Y-107476003D01*
X181752336Y-107464804D01*
X181737704Y-107463363D01*
X180937704Y-107463363D01*
X180933940Y-107463733D01*
X180932465Y-107463546D01*
X180930554Y-107464067D01*
X180923072Y-107464804D01*
X180913856Y-107468621D01*
X180904233Y-107471246D01*
X180900452Y-107474173D01*
X180896036Y-107476003D01*
X180888985Y-107483053D01*
X180881096Y-107489163D01*
X180878722Y-107493316D01*
X180875344Y-107496695D01*
X180871527Y-107505907D01*
X180866577Y-107514572D01*
X180865974Y-107519315D01*
X180864145Y-107523731D01*
X180864145Y-107533705D01*
X180862887Y-107543602D01*
X180507149Y-107543602D01*
X180507149Y-106966935D01*
X180862704Y-106966935D01*
X180862704Y-107157411D01*
X180864145Y-107172043D01*
X180875344Y-107199079D01*
X180896036Y-107219771D01*
X180923072Y-107230970D01*
X180937704Y-107232411D01*
X181737704Y-107232411D01*
X181752336Y-107230970D01*
X181779372Y-107219771D01*
X181800064Y-107199079D01*
X181811263Y-107172043D01*
X181812704Y-107157411D01*
X181812704Y-106966935D01*
X181811974Y-106959529D01*
X181812115Y-106957555D01*
X181811524Y-106954957D01*
X181811263Y-106952303D01*
X181810504Y-106950471D01*
X181808855Y-106943218D01*
X181770760Y-106828932D01*
X181764766Y-106815507D01*
X181763002Y-106813473D01*
X181761970Y-106810981D01*
X181752642Y-106799616D01*
X181676452Y-106723426D01*
X181670702Y-106718707D01*
X181669403Y-106717209D01*
X181667143Y-106715787D01*
X181665087Y-106714099D01*
X181663259Y-106713341D01*
X181656960Y-106709377D01*
X181580769Y-106671282D01*
X181579699Y-106670872D01*
X181579264Y-106670550D01*
X181573112Y-106668351D01*
X181567037Y-106666027D01*
X181566498Y-106665988D01*
X181565419Y-106665603D01*
X181413038Y-106627507D01*
X181410499Y-106627131D01*
X181409479Y-106626709D01*
X181403967Y-106626166D01*
X181398493Y-106625357D01*
X181397400Y-106625519D01*
X181394847Y-106625268D01*
X181280561Y-106625268D01*
X181278007Y-106625519D01*
X181276915Y-106625357D01*
X181271441Y-106626166D01*
X181265929Y-106626709D01*
X181264907Y-106627131D01*
X181262371Y-106627507D01*
X181109989Y-106665603D01*
X181108909Y-106665988D01*
X181108371Y-106666027D01*
X181102295Y-106668351D01*
X181096144Y-106670550D01*
X181095708Y-106670872D01*
X181094639Y-106671282D01*
X181018449Y-106709377D01*
X181012154Y-106713339D01*
X181010322Y-106714098D01*
X181008260Y-106715789D01*
X181006006Y-106717209D01*
X181004707Y-106718705D01*
X180998957Y-106723426D01*
X180922767Y-106799616D01*
X180913440Y-106810981D01*
X180912409Y-106813469D01*
X180910643Y-106815506D01*
X180904649Y-106828932D01*
X180866553Y-106943218D01*
X180864903Y-106950472D01*
X180864145Y-106952303D01*
X180863883Y-106954956D01*
X180863293Y-106957554D01*
X180863433Y-106959529D01*
X180862704Y-106966935D01*
X180507149Y-106966935D01*
X180507149Y-106243126D01*
X180596038Y-106243126D01*
X180596038Y-106433602D01*
X180597479Y-106448234D01*
X180608678Y-106475270D01*
X180629370Y-106495962D01*
X180656406Y-106507161D01*
X180685670Y-106507161D01*
X180712706Y-106495962D01*
X180733398Y-106475270D01*
X180744597Y-106448234D01*
X180746038Y-106433602D01*
X180746038Y-106318126D01*
X181738895Y-106318126D01*
X181738895Y-106433602D01*
X181740336Y-106448234D01*
X181751535Y-106475270D01*
X181772227Y-106495962D01*
X181799263Y-106507161D01*
X181828527Y-106507161D01*
X181855563Y-106495962D01*
X181876255Y-106475270D01*
X181887454Y-106448234D01*
X181888895Y-106433602D01*
X181888895Y-106243126D01*
X181887454Y-106228494D01*
X181876255Y-106201458D01*
X181855563Y-106180766D01*
X181828527Y-106169567D01*
X181813895Y-106168126D01*
X180671038Y-106168126D01*
X180656406Y-106169567D01*
X180629370Y-106180766D01*
X180608678Y-106201458D01*
X180597479Y-106228494D01*
X180596038Y-106243126D01*
X180507149Y-106243126D01*
X180507149Y-106079237D01*
X181977784Y-106079237D01*
X181977784Y-109454633D01*
G37*
G36*
X181236133Y-100678573D02*
G01*
X181253105Y-100695544D01*
X181281752Y-100781485D01*
X181281752Y-100960982D01*
X181012704Y-100960982D01*
X181012704Y-100748926D01*
X181037438Y-100699458D01*
X181058321Y-100678574D01*
X181107791Y-100653839D01*
X181186665Y-100653839D01*
X181236133Y-100678573D01*
G37*
G36*
X181617087Y-100716669D02*
G01*
X181637969Y-100737551D01*
X181662704Y-100787020D01*
X181662704Y-100960982D01*
X181431752Y-100960982D01*
X181431752Y-100787020D01*
X181456486Y-100737551D01*
X181477368Y-100716669D01*
X181526838Y-100691935D01*
X181567618Y-100691935D01*
X181617087Y-100716669D01*
G37*
G36*
X181977784Y-102304633D02*
G01*
X180507149Y-102304633D01*
X180507149Y-101950268D01*
X180596038Y-101950268D01*
X180596038Y-102140744D01*
X180597479Y-102155376D01*
X180608678Y-102182412D01*
X180629370Y-102203104D01*
X180656406Y-102214303D01*
X180671038Y-102215744D01*
X181813895Y-102215744D01*
X181828527Y-102214303D01*
X181855563Y-102203104D01*
X181876255Y-102182412D01*
X181887454Y-102155376D01*
X181888895Y-102140744D01*
X181888895Y-101950268D01*
X181887454Y-101935636D01*
X181876255Y-101908600D01*
X181855563Y-101887908D01*
X181828527Y-101876709D01*
X181799263Y-101876709D01*
X181772227Y-101887908D01*
X181751535Y-101908600D01*
X181740336Y-101935636D01*
X181738895Y-101950268D01*
X181738895Y-102065744D01*
X180746038Y-102065744D01*
X180746038Y-101950268D01*
X180744597Y-101935636D01*
X180733398Y-101908600D01*
X180712706Y-101887908D01*
X180685670Y-101876709D01*
X180656406Y-101876709D01*
X180629370Y-101887908D01*
X180608678Y-101908600D01*
X180597479Y-101935636D01*
X180596038Y-101950268D01*
X180507149Y-101950268D01*
X180507149Y-100731220D01*
X180862704Y-100731220D01*
X180862704Y-101035982D01*
X180864145Y-101050614D01*
X180875344Y-101077650D01*
X180896036Y-101098342D01*
X180923072Y-101109541D01*
X180937704Y-101110982D01*
X181737704Y-101110982D01*
X181752336Y-101109541D01*
X181779372Y-101098342D01*
X181800064Y-101077650D01*
X181811263Y-101050614D01*
X181812704Y-101035982D01*
X181812704Y-100769316D01*
X181811263Y-100754684D01*
X181810231Y-100752194D01*
X181810041Y-100749507D01*
X181804786Y-100735775D01*
X181766691Y-100659584D01*
X181762726Y-100653284D01*
X181761969Y-100651457D01*
X181760280Y-100649400D01*
X181758859Y-100647141D01*
X181757360Y-100645841D01*
X181752642Y-100640092D01*
X181714547Y-100601997D01*
X181708797Y-100597278D01*
X181707498Y-100595780D01*
X181705238Y-100594358D01*
X181703182Y-100592670D01*
X181701354Y-100591912D01*
X181695055Y-100587948D01*
X181618864Y-100549853D01*
X181605132Y-100544598D01*
X181602444Y-100544407D01*
X181599955Y-100543376D01*
X181585323Y-100541935D01*
X181509133Y-100541935D01*
X181494501Y-100543376D01*
X181492011Y-100544407D01*
X181489324Y-100544598D01*
X181475592Y-100549853D01*
X181399401Y-100587948D01*
X181393101Y-100591912D01*
X181391274Y-100592670D01*
X181389217Y-100594358D01*
X181386958Y-100595780D01*
X181385658Y-100597278D01*
X181379909Y-100601997D01*
X181375394Y-100606511D01*
X181371689Y-100601996D01*
X181333593Y-100563901D01*
X181327841Y-100559180D01*
X181326545Y-100557686D01*
X181324291Y-100556267D01*
X181322228Y-100554574D01*
X181320396Y-100553815D01*
X181314102Y-100549853D01*
X181237913Y-100511757D01*
X181224181Y-100506502D01*
X181221491Y-100506310D01*
X181219003Y-100505280D01*
X181204371Y-100503839D01*
X181090085Y-100503839D01*
X181075453Y-100505280D01*
X181072961Y-100506312D01*
X181070275Y-100506503D01*
X181056543Y-100511758D01*
X180980353Y-100549853D01*
X180974055Y-100553817D01*
X180972227Y-100554575D01*
X180970166Y-100556266D01*
X180967911Y-100557686D01*
X180966614Y-100559181D01*
X180960862Y-100563902D01*
X180922767Y-100601997D01*
X180918046Y-100607749D01*
X180916551Y-100609046D01*
X180915131Y-100611300D01*
X180913440Y-100613362D01*
X180912681Y-100615192D01*
X180908718Y-100621489D01*
X180870622Y-100697678D01*
X180865367Y-100711410D01*
X180865175Y-100714099D01*
X180864145Y-100716588D01*
X180862704Y-100731220D01*
X180507149Y-100731220D01*
X180507149Y-99512173D01*
X180596038Y-99512173D01*
X180596038Y-99702649D01*
X180597479Y-99717281D01*
X180608678Y-99744317D01*
X180629370Y-99765009D01*
X180656406Y-99776208D01*
X180685670Y-99776208D01*
X180712706Y-99765009D01*
X180733398Y-99744317D01*
X180744597Y-99717281D01*
X180746038Y-99702649D01*
X180746038Y-99587173D01*
X181738895Y-99587173D01*
X181738895Y-99702649D01*
X181740336Y-99717281D01*
X181751535Y-99744317D01*
X181772227Y-99765009D01*
X181799263Y-99776208D01*
X181828527Y-99776208D01*
X181855563Y-99765009D01*
X181876255Y-99744317D01*
X181887454Y-99717281D01*
X181888895Y-99702649D01*
X181888895Y-99512173D01*
X181887454Y-99497541D01*
X181876255Y-99470505D01*
X181855563Y-99449813D01*
X181828527Y-99438614D01*
X181813895Y-99437173D01*
X180671038Y-99437173D01*
X180656406Y-99438614D01*
X180629370Y-99449813D01*
X180608678Y-99470505D01*
X180597479Y-99497541D01*
X180596038Y-99512173D01*
X180507149Y-99512173D01*
X180507149Y-99348284D01*
X181977784Y-99348284D01*
X181977784Y-102304633D01*
G37*
D11*
G36*
X181546407Y-104353337D02*
G01*
X181224716Y-104460568D01*
X181224716Y-104246107D01*
X181546407Y-104353337D01*
G37*
G36*
X181961224Y-105759370D02*
G01*
X180520589Y-105759370D01*
X180520589Y-105420005D01*
X180609478Y-105420005D01*
X180609478Y-105610481D01*
X180614045Y-105633442D01*
X180646517Y-105665914D01*
X180669478Y-105670481D01*
X181812335Y-105670481D01*
X181835296Y-105665914D01*
X181867768Y-105633442D01*
X181872335Y-105610481D01*
X181872335Y-105420005D01*
X181867768Y-105397044D01*
X181835296Y-105364572D01*
X181789374Y-105364572D01*
X181756902Y-105397044D01*
X181752335Y-105420005D01*
X181752335Y-105550481D01*
X180729478Y-105550481D01*
X180729478Y-105420005D01*
X180724911Y-105397044D01*
X180692439Y-105364572D01*
X180646517Y-105364572D01*
X180614045Y-105397044D01*
X180609478Y-105420005D01*
X180520589Y-105420005D01*
X180520589Y-104090925D01*
X180876295Y-104090925D01*
X180896832Y-104131999D01*
X180917170Y-104143593D01*
X181104716Y-104206108D01*
X181104716Y-104500568D01*
X180917170Y-104563084D01*
X180896832Y-104574678D01*
X180876295Y-104615752D01*
X180890817Y-104659317D01*
X180931891Y-104679854D01*
X180955118Y-104676926D01*
X181755118Y-104410259D01*
X181775456Y-104398665D01*
X181777460Y-104394655D01*
X181781472Y-104392650D01*
X181787488Y-104374600D01*
X181795993Y-104357591D01*
X181794575Y-104353338D01*
X181795993Y-104349085D01*
X181787486Y-104332071D01*
X181781471Y-104314026D01*
X181777461Y-104312021D01*
X181775456Y-104308011D01*
X181755118Y-104296417D01*
X180955118Y-104029751D01*
X180931891Y-104026823D01*
X180890817Y-104047360D01*
X180876295Y-104090925D01*
X180520589Y-104090925D01*
X180520589Y-103096196D01*
X180609478Y-103096196D01*
X180609478Y-103286672D01*
X180614045Y-103309633D01*
X180646517Y-103342105D01*
X180692439Y-103342105D01*
X180724911Y-103309633D01*
X180729478Y-103286672D01*
X180729478Y-103156196D01*
X181752335Y-103156196D01*
X181752335Y-103286672D01*
X181756902Y-103309633D01*
X181789374Y-103342105D01*
X181835296Y-103342105D01*
X181867768Y-103309633D01*
X181872335Y-103286672D01*
X181872335Y-103096196D01*
X181867768Y-103073235D01*
X181835296Y-103040763D01*
X181812335Y-103036196D01*
X180669478Y-103036196D01*
X180646517Y-103040763D01*
X180614045Y-103073235D01*
X180609478Y-103096196D01*
X180520589Y-103096196D01*
X180520589Y-102947307D01*
X181961224Y-102947307D01*
X181961224Y-105759370D01*
G37*
D10*
X173002839Y-115342160D02*
X172526649Y-115342160D01*
X173098077Y-115627875D02*
X172764744Y-114627875D01*
X172764744Y-114627875D02*
X172431411Y-115627875D01*
X171669506Y-114961208D02*
X171669506Y-115961208D01*
X171669506Y-115580256D02*
X171764744Y-115627875D01*
X171764744Y-115627875D02*
X171955220Y-115627875D01*
X171955220Y-115627875D02*
X172050458Y-115580256D01*
X172050458Y-115580256D02*
X172098077Y-115532636D01*
X172098077Y-115532636D02*
X172145696Y-115437398D01*
X172145696Y-115437398D02*
X172145696Y-115151684D01*
X172145696Y-115151684D02*
X172098077Y-115056446D01*
X172098077Y-115056446D02*
X172050458Y-115008827D01*
X172050458Y-115008827D02*
X171955220Y-114961208D01*
X171955220Y-114961208D02*
X171764744Y-114961208D01*
X171764744Y-114961208D02*
X171669506Y-115008827D01*
X170764744Y-114961208D02*
X170764744Y-115627875D01*
X171193315Y-114961208D02*
X171193315Y-115485017D01*
X171193315Y-115485017D02*
X171145696Y-115580256D01*
X171145696Y-115580256D02*
X171050458Y-115627875D01*
X171050458Y-115627875D02*
X170907601Y-115627875D01*
X170907601Y-115627875D02*
X170812363Y-115580256D01*
X170812363Y-115580256D02*
X170764744Y-115532636D01*
X169859982Y-115627875D02*
X169859982Y-115104065D01*
X169859982Y-115104065D02*
X169907601Y-115008827D01*
X169907601Y-115008827D02*
X170002839Y-114961208D01*
X170002839Y-114961208D02*
X170193315Y-114961208D01*
X170193315Y-114961208D02*
X170288553Y-115008827D01*
X169859982Y-115580256D02*
X169955220Y-115627875D01*
X169955220Y-115627875D02*
X170193315Y-115627875D01*
X170193315Y-115627875D02*
X170288553Y-115580256D01*
X170288553Y-115580256D02*
X170336172Y-115485017D01*
X170336172Y-115485017D02*
X170336172Y-115389779D01*
X170336172Y-115389779D02*
X170288553Y-115294541D01*
X170288553Y-115294541D02*
X170193315Y-115246922D01*
X170193315Y-115246922D02*
X169955220Y-115246922D01*
X169955220Y-115246922D02*
X169859982Y-115199303D01*
X169240934Y-115627875D02*
X169336172Y-115580256D01*
X169336172Y-115580256D02*
X169383791Y-115485017D01*
X169383791Y-115485017D02*
X169383791Y-114627875D01*
X168859981Y-115627875D02*
X168859981Y-114961208D01*
X168859981Y-114627875D02*
X168907600Y-114675494D01*
X168907600Y-114675494D02*
X168859981Y-114723113D01*
X168859981Y-114723113D02*
X168812362Y-114675494D01*
X168812362Y-114675494D02*
X168859981Y-114627875D01*
X168859981Y-114627875D02*
X168859981Y-114723113D01*
X168383791Y-114961208D02*
X168383791Y-115627875D01*
X168383791Y-115056446D02*
X168336172Y-115008827D01*
X168336172Y-115008827D02*
X168240934Y-114961208D01*
X168240934Y-114961208D02*
X168098077Y-114961208D01*
X168098077Y-114961208D02*
X168002839Y-115008827D01*
X168002839Y-115008827D02*
X167955220Y-115104065D01*
X167955220Y-115104065D02*
X167955220Y-115627875D01*
X167479029Y-115627875D02*
X167479029Y-114627875D01*
X167383791Y-115246922D02*
X167098077Y-115627875D01*
X167098077Y-114961208D02*
X167479029Y-115342160D01*
X166669505Y-115627875D02*
X166669505Y-114627875D01*
X166669505Y-114627875D02*
X166431410Y-114627875D01*
X166431410Y-114627875D02*
X166288553Y-114675494D01*
X166288553Y-114675494D02*
X166193315Y-114770732D01*
X166193315Y-114770732D02*
X166145696Y-114865970D01*
X166145696Y-114865970D02*
X166098077Y-115056446D01*
X166098077Y-115056446D02*
X166098077Y-115199303D01*
X166098077Y-115199303D02*
X166145696Y-115389779D01*
X166145696Y-115389779D02*
X166193315Y-115485017D01*
X166193315Y-115485017D02*
X166288553Y-115580256D01*
X166288553Y-115580256D02*
X166431410Y-115627875D01*
X166431410Y-115627875D02*
X166669505Y-115627875D01*
X164907600Y-115627875D02*
X164907600Y-114627875D01*
X164431410Y-114961208D02*
X164431410Y-115627875D01*
X164431410Y-115056446D02*
X164383791Y-115008827D01*
X164383791Y-115008827D02*
X164288553Y-114961208D01*
X164288553Y-114961208D02*
X164145696Y-114961208D01*
X164145696Y-114961208D02*
X164050458Y-115008827D01*
X164050458Y-115008827D02*
X164002839Y-115104065D01*
X164002839Y-115104065D02*
X164002839Y-115627875D01*
X163669505Y-114961208D02*
X163288553Y-114961208D01*
X163526648Y-114627875D02*
X163526648Y-115485017D01*
X163526648Y-115485017D02*
X163479029Y-115580256D01*
X163479029Y-115580256D02*
X163383791Y-115627875D01*
X163383791Y-115627875D02*
X163288553Y-115627875D01*
X162574267Y-115580256D02*
X162669505Y-115627875D01*
X162669505Y-115627875D02*
X162859981Y-115627875D01*
X162859981Y-115627875D02*
X162955219Y-115580256D01*
X162955219Y-115580256D02*
X163002838Y-115485017D01*
X163002838Y-115485017D02*
X163002838Y-115104065D01*
X163002838Y-115104065D02*
X162955219Y-115008827D01*
X162955219Y-115008827D02*
X162859981Y-114961208D01*
X162859981Y-114961208D02*
X162669505Y-114961208D01*
X162669505Y-114961208D02*
X162574267Y-115008827D01*
X162574267Y-115008827D02*
X162526648Y-115104065D01*
X162526648Y-115104065D02*
X162526648Y-115199303D01*
X162526648Y-115199303D02*
X163002838Y-115294541D01*
X162098076Y-115627875D02*
X162098076Y-114961208D01*
X162098076Y-115151684D02*
X162050457Y-115056446D01*
X162050457Y-115056446D02*
X162002838Y-115008827D01*
X162002838Y-115008827D02*
X161907600Y-114961208D01*
X161907600Y-114961208D02*
X161812362Y-114961208D01*
X161621885Y-114961208D02*
X161240933Y-114961208D01*
X161479028Y-115627875D02*
X161479028Y-114770732D01*
X161479028Y-114770732D02*
X161431409Y-114675494D01*
X161431409Y-114675494D02*
X161336171Y-114627875D01*
X161336171Y-114627875D02*
X161240933Y-114627875D01*
X160479028Y-115627875D02*
X160479028Y-115104065D01*
X160479028Y-115104065D02*
X160526647Y-115008827D01*
X160526647Y-115008827D02*
X160621885Y-114961208D01*
X160621885Y-114961208D02*
X160812361Y-114961208D01*
X160812361Y-114961208D02*
X160907599Y-115008827D01*
X160479028Y-115580256D02*
X160574266Y-115627875D01*
X160574266Y-115627875D02*
X160812361Y-115627875D01*
X160812361Y-115627875D02*
X160907599Y-115580256D01*
X160907599Y-115580256D02*
X160955218Y-115485017D01*
X160955218Y-115485017D02*
X160955218Y-115389779D01*
X160955218Y-115389779D02*
X160907599Y-115294541D01*
X160907599Y-115294541D02*
X160812361Y-115246922D01*
X160812361Y-115246922D02*
X160574266Y-115246922D01*
X160574266Y-115246922D02*
X160479028Y-115199303D01*
X159574266Y-115580256D02*
X159669504Y-115627875D01*
X159669504Y-115627875D02*
X159859980Y-115627875D01*
X159859980Y-115627875D02*
X159955218Y-115580256D01*
X159955218Y-115580256D02*
X160002837Y-115532636D01*
X160002837Y-115532636D02*
X160050456Y-115437398D01*
X160050456Y-115437398D02*
X160050456Y-115151684D01*
X160050456Y-115151684D02*
X160002837Y-115056446D01*
X160002837Y-115056446D02*
X159955218Y-115008827D01*
X159955218Y-115008827D02*
X159859980Y-114961208D01*
X159859980Y-114961208D02*
X159669504Y-114961208D01*
X159669504Y-114961208D02*
X159574266Y-115008827D01*
X158764742Y-115580256D02*
X158859980Y-115627875D01*
X158859980Y-115627875D02*
X159050456Y-115627875D01*
X159050456Y-115627875D02*
X159145694Y-115580256D01*
X159145694Y-115580256D02*
X159193313Y-115485017D01*
X159193313Y-115485017D02*
X159193313Y-115104065D01*
X159193313Y-115104065D02*
X159145694Y-115008827D01*
X159145694Y-115008827D02*
X159050456Y-114961208D01*
X159050456Y-114961208D02*
X158859980Y-114961208D01*
X158859980Y-114961208D02*
X158764742Y-115008827D01*
X158764742Y-115008827D02*
X158717123Y-115104065D01*
X158717123Y-115104065D02*
X158717123Y-115199303D01*
X158717123Y-115199303D02*
X159193313Y-115294541D01*
X157526646Y-115627875D02*
X157526646Y-114627875D01*
X157526646Y-114627875D02*
X157145694Y-114627875D01*
X157145694Y-114627875D02*
X157050456Y-114675494D01*
X157050456Y-114675494D02*
X157002837Y-114723113D01*
X157002837Y-114723113D02*
X156955218Y-114818351D01*
X156955218Y-114818351D02*
X156955218Y-114961208D01*
X156955218Y-114961208D02*
X157002837Y-115056446D01*
X157002837Y-115056446D02*
X157050456Y-115104065D01*
X157050456Y-115104065D02*
X157145694Y-115151684D01*
X157145694Y-115151684D02*
X157526646Y-115151684D01*
X156526646Y-115627875D02*
X156526646Y-114961208D01*
X156526646Y-114627875D02*
X156574265Y-114675494D01*
X156574265Y-114675494D02*
X156526646Y-114723113D01*
X156526646Y-114723113D02*
X156479027Y-114675494D01*
X156479027Y-114675494D02*
X156526646Y-114627875D01*
X156526646Y-114627875D02*
X156526646Y-114723113D01*
X156050456Y-115246922D02*
X155288552Y-115246922D01*
X154812361Y-115627875D02*
X154812361Y-114627875D01*
X154812361Y-115104065D02*
X154240933Y-115104065D01*
X154240933Y-115627875D02*
X154240933Y-114627875D01*
X153812361Y-115342160D02*
X153336171Y-115342160D01*
X153907599Y-115627875D02*
X153574266Y-114627875D01*
X153574266Y-114627875D02*
X153240933Y-115627875D01*
X153050456Y-114627875D02*
X152479028Y-114627875D01*
X152764742Y-115627875D02*
X152764742Y-114627875D01*
X151479027Y-114961208D02*
X151240932Y-115627875D01*
X151240932Y-115627875D02*
X151002837Y-114961208D01*
X150669503Y-114723113D02*
X150621884Y-114675494D01*
X150621884Y-114675494D02*
X150526646Y-114627875D01*
X150526646Y-114627875D02*
X150288551Y-114627875D01*
X150288551Y-114627875D02*
X150193313Y-114675494D01*
X150193313Y-114675494D02*
X150145694Y-114723113D01*
X150145694Y-114723113D02*
X150098075Y-114818351D01*
X150098075Y-114818351D02*
X150098075Y-114913589D01*
X150098075Y-114913589D02*
X150145694Y-115056446D01*
X150145694Y-115056446D02*
X150717122Y-115627875D01*
X150717122Y-115627875D02*
X150098075Y-115627875D01*
X149669503Y-115532636D02*
X149621884Y-115580256D01*
X149621884Y-115580256D02*
X149669503Y-115627875D01*
X149669503Y-115627875D02*
X149717122Y-115580256D01*
X149717122Y-115580256D02*
X149669503Y-115532636D01*
X149669503Y-115532636D02*
X149669503Y-115627875D01*
X149002837Y-114627875D02*
X148907599Y-114627875D01*
X148907599Y-114627875D02*
X148812361Y-114675494D01*
X148812361Y-114675494D02*
X148764742Y-114723113D01*
X148764742Y-114723113D02*
X148717123Y-114818351D01*
X148717123Y-114818351D02*
X148669504Y-115008827D01*
X148669504Y-115008827D02*
X148669504Y-115246922D01*
X148669504Y-115246922D02*
X148717123Y-115437398D01*
X148717123Y-115437398D02*
X148764742Y-115532636D01*
X148764742Y-115532636D02*
X148812361Y-115580256D01*
X148812361Y-115580256D02*
X148907599Y-115627875D01*
X148907599Y-115627875D02*
X149002837Y-115627875D01*
X149002837Y-115627875D02*
X149098075Y-115580256D01*
X149098075Y-115580256D02*
X149145694Y-115532636D01*
X149145694Y-115532636D02*
X149193313Y-115437398D01*
X149193313Y-115437398D02*
X149240932Y-115246922D01*
X149240932Y-115246922D02*
X149240932Y-115008827D01*
X149240932Y-115008827D02*
X149193313Y-114818351D01*
X149193313Y-114818351D02*
X149145694Y-114723113D01*
X149145694Y-114723113D02*
X149098075Y-114675494D01*
X149098075Y-114675494D02*
X149002837Y-114627875D01*
X172955220Y-117237819D02*
X172955220Y-116237819D01*
X172955220Y-116237819D02*
X172717125Y-116237819D01*
X172717125Y-116237819D02*
X172574268Y-116285438D01*
X172574268Y-116285438D02*
X172479030Y-116380676D01*
X172479030Y-116380676D02*
X172431411Y-116475914D01*
X172431411Y-116475914D02*
X172383792Y-116666390D01*
X172383792Y-116666390D02*
X172383792Y-116809247D01*
X172383792Y-116809247D02*
X172431411Y-116999723D01*
X172431411Y-116999723D02*
X172479030Y-117094961D01*
X172479030Y-117094961D02*
X172574268Y-117190200D01*
X172574268Y-117190200D02*
X172717125Y-117237819D01*
X172717125Y-117237819D02*
X172955220Y-117237819D01*
X171574268Y-117190200D02*
X171669506Y-117237819D01*
X171669506Y-117237819D02*
X171859982Y-117237819D01*
X171859982Y-117237819D02*
X171955220Y-117190200D01*
X171955220Y-117190200D02*
X172002839Y-117094961D01*
X172002839Y-117094961D02*
X172002839Y-116714009D01*
X172002839Y-116714009D02*
X171955220Y-116618771D01*
X171955220Y-116618771D02*
X171859982Y-116571152D01*
X171859982Y-116571152D02*
X171669506Y-116571152D01*
X171669506Y-116571152D02*
X171574268Y-116618771D01*
X171574268Y-116618771D02*
X171526649Y-116714009D01*
X171526649Y-116714009D02*
X171526649Y-116809247D01*
X171526649Y-116809247D02*
X172002839Y-116904485D01*
X171145696Y-117190200D02*
X171050458Y-117237819D01*
X171050458Y-117237819D02*
X170859982Y-117237819D01*
X170859982Y-117237819D02*
X170764744Y-117190200D01*
X170764744Y-117190200D02*
X170717125Y-117094961D01*
X170717125Y-117094961D02*
X170717125Y-117047342D01*
X170717125Y-117047342D02*
X170764744Y-116952104D01*
X170764744Y-116952104D02*
X170859982Y-116904485D01*
X170859982Y-116904485D02*
X171002839Y-116904485D01*
X171002839Y-116904485D02*
X171098077Y-116856866D01*
X171098077Y-116856866D02*
X171145696Y-116761628D01*
X171145696Y-116761628D02*
X171145696Y-116714009D01*
X171145696Y-116714009D02*
X171098077Y-116618771D01*
X171098077Y-116618771D02*
X171002839Y-116571152D01*
X171002839Y-116571152D02*
X170859982Y-116571152D01*
X170859982Y-116571152D02*
X170764744Y-116618771D01*
X170288553Y-117237819D02*
X170288553Y-116571152D01*
X170288553Y-116237819D02*
X170336172Y-116285438D01*
X170336172Y-116285438D02*
X170288553Y-116333057D01*
X170288553Y-116333057D02*
X170240934Y-116285438D01*
X170240934Y-116285438D02*
X170288553Y-116237819D01*
X170288553Y-116237819D02*
X170288553Y-116333057D01*
X169383792Y-116571152D02*
X169383792Y-117380676D01*
X169383792Y-117380676D02*
X169431411Y-117475914D01*
X169431411Y-117475914D02*
X169479030Y-117523533D01*
X169479030Y-117523533D02*
X169574268Y-117571152D01*
X169574268Y-117571152D02*
X169717125Y-117571152D01*
X169717125Y-117571152D02*
X169812363Y-117523533D01*
X169383792Y-117190200D02*
X169479030Y-117237819D01*
X169479030Y-117237819D02*
X169669506Y-117237819D01*
X169669506Y-117237819D02*
X169764744Y-117190200D01*
X169764744Y-117190200D02*
X169812363Y-117142580D01*
X169812363Y-117142580D02*
X169859982Y-117047342D01*
X169859982Y-117047342D02*
X169859982Y-116761628D01*
X169859982Y-116761628D02*
X169812363Y-116666390D01*
X169812363Y-116666390D02*
X169764744Y-116618771D01*
X169764744Y-116618771D02*
X169669506Y-116571152D01*
X169669506Y-116571152D02*
X169479030Y-116571152D01*
X169479030Y-116571152D02*
X169383792Y-116618771D01*
X168907601Y-116571152D02*
X168907601Y-117237819D01*
X168907601Y-116666390D02*
X168859982Y-116618771D01*
X168859982Y-116618771D02*
X168764744Y-116571152D01*
X168764744Y-116571152D02*
X168621887Y-116571152D01*
X168621887Y-116571152D02*
X168526649Y-116618771D01*
X168526649Y-116618771D02*
X168479030Y-116714009D01*
X168479030Y-116714009D02*
X168479030Y-117237819D01*
X167621887Y-117190200D02*
X167717125Y-117237819D01*
X167717125Y-117237819D02*
X167907601Y-117237819D01*
X167907601Y-117237819D02*
X168002839Y-117190200D01*
X168002839Y-117190200D02*
X168050458Y-117094961D01*
X168050458Y-117094961D02*
X168050458Y-116714009D01*
X168050458Y-116714009D02*
X168002839Y-116618771D01*
X168002839Y-116618771D02*
X167907601Y-116571152D01*
X167907601Y-116571152D02*
X167717125Y-116571152D01*
X167717125Y-116571152D02*
X167621887Y-116618771D01*
X167621887Y-116618771D02*
X167574268Y-116714009D01*
X167574268Y-116714009D02*
X167574268Y-116809247D01*
X167574268Y-116809247D02*
X168050458Y-116904485D01*
X166717125Y-117237819D02*
X166717125Y-116237819D01*
X166717125Y-117190200D02*
X166812363Y-117237819D01*
X166812363Y-117237819D02*
X167002839Y-117237819D01*
X167002839Y-117237819D02*
X167098077Y-117190200D01*
X167098077Y-117190200D02*
X167145696Y-117142580D01*
X167145696Y-117142580D02*
X167193315Y-117047342D01*
X167193315Y-117047342D02*
X167193315Y-116761628D01*
X167193315Y-116761628D02*
X167145696Y-116666390D01*
X167145696Y-116666390D02*
X167098077Y-116618771D01*
X167098077Y-116618771D02*
X167002839Y-116571152D01*
X167002839Y-116571152D02*
X166812363Y-116571152D01*
X166812363Y-116571152D02*
X166717125Y-116618771D01*
X165479029Y-117237819D02*
X165479029Y-116237819D01*
X165479029Y-116618771D02*
X165383791Y-116571152D01*
X165383791Y-116571152D02*
X165193315Y-116571152D01*
X165193315Y-116571152D02*
X165098077Y-116618771D01*
X165098077Y-116618771D02*
X165050458Y-116666390D01*
X165050458Y-116666390D02*
X165002839Y-116761628D01*
X165002839Y-116761628D02*
X165002839Y-117047342D01*
X165002839Y-117047342D02*
X165050458Y-117142580D01*
X165050458Y-117142580D02*
X165098077Y-117190200D01*
X165098077Y-117190200D02*
X165193315Y-117237819D01*
X165193315Y-117237819D02*
X165383791Y-117237819D01*
X165383791Y-117237819D02*
X165479029Y-117190200D01*
X164669505Y-116571152D02*
X164431410Y-117237819D01*
X164193315Y-116571152D02*
X164431410Y-117237819D01*
X164431410Y-117237819D02*
X164526648Y-117475914D01*
X164526648Y-117475914D02*
X164574267Y-117523533D01*
X164574267Y-117523533D02*
X164669505Y-117571152D01*
X162479029Y-117142580D02*
X162526648Y-117190200D01*
X162526648Y-117190200D02*
X162669505Y-117237819D01*
X162669505Y-117237819D02*
X162764743Y-117237819D01*
X162764743Y-117237819D02*
X162907600Y-117190200D01*
X162907600Y-117190200D02*
X163002838Y-117094961D01*
X163002838Y-117094961D02*
X163050457Y-116999723D01*
X163050457Y-116999723D02*
X163098076Y-116809247D01*
X163098076Y-116809247D02*
X163098076Y-116666390D01*
X163098076Y-116666390D02*
X163050457Y-116475914D01*
X163050457Y-116475914D02*
X163002838Y-116380676D01*
X163002838Y-116380676D02*
X162907600Y-116285438D01*
X162907600Y-116285438D02*
X162764743Y-116237819D01*
X162764743Y-116237819D02*
X162669505Y-116237819D01*
X162669505Y-116237819D02*
X162526648Y-116285438D01*
X162526648Y-116285438D02*
X162479029Y-116333057D01*
X162050457Y-117237819D02*
X162050457Y-116237819D01*
X161621886Y-117237819D02*
X161621886Y-116714009D01*
X161621886Y-116714009D02*
X161669505Y-116618771D01*
X161669505Y-116618771D02*
X161764743Y-116571152D01*
X161764743Y-116571152D02*
X161907600Y-116571152D01*
X161907600Y-116571152D02*
X162002838Y-116618771D01*
X162002838Y-116618771D02*
X162050457Y-116666390D01*
X161145695Y-117237819D02*
X161145695Y-116571152D01*
X161145695Y-116761628D02*
X161098076Y-116666390D01*
X161098076Y-116666390D02*
X161050457Y-116618771D01*
X161050457Y-116618771D02*
X160955219Y-116571152D01*
X160955219Y-116571152D02*
X160859981Y-116571152D01*
X160526647Y-117237819D02*
X160526647Y-116571152D01*
X160526647Y-116237819D02*
X160574266Y-116285438D01*
X160574266Y-116285438D02*
X160526647Y-116333057D01*
X160526647Y-116333057D02*
X160479028Y-116285438D01*
X160479028Y-116285438D02*
X160526647Y-116237819D01*
X160526647Y-116237819D02*
X160526647Y-116333057D01*
X160098076Y-117190200D02*
X160002838Y-117237819D01*
X160002838Y-117237819D02*
X159812362Y-117237819D01*
X159812362Y-117237819D02*
X159717124Y-117190200D01*
X159717124Y-117190200D02*
X159669505Y-117094961D01*
X159669505Y-117094961D02*
X159669505Y-117047342D01*
X159669505Y-117047342D02*
X159717124Y-116952104D01*
X159717124Y-116952104D02*
X159812362Y-116904485D01*
X159812362Y-116904485D02*
X159955219Y-116904485D01*
X159955219Y-116904485D02*
X160050457Y-116856866D01*
X160050457Y-116856866D02*
X160098076Y-116761628D01*
X160098076Y-116761628D02*
X160098076Y-116714009D01*
X160098076Y-116714009D02*
X160050457Y-116618771D01*
X160050457Y-116618771D02*
X159955219Y-116571152D01*
X159955219Y-116571152D02*
X159812362Y-116571152D01*
X159812362Y-116571152D02*
X159717124Y-116618771D01*
X159383790Y-116571152D02*
X159002838Y-116571152D01*
X159240933Y-116237819D02*
X159240933Y-117094961D01*
X159240933Y-117094961D02*
X159193314Y-117190200D01*
X159193314Y-117190200D02*
X159098076Y-117237819D01*
X159098076Y-117237819D02*
X159002838Y-117237819D01*
X158526647Y-117237819D02*
X158621885Y-117190200D01*
X158621885Y-117190200D02*
X158669504Y-117142580D01*
X158669504Y-117142580D02*
X158717123Y-117047342D01*
X158717123Y-117047342D02*
X158717123Y-116761628D01*
X158717123Y-116761628D02*
X158669504Y-116666390D01*
X158669504Y-116666390D02*
X158621885Y-116618771D01*
X158621885Y-116618771D02*
X158526647Y-116571152D01*
X158526647Y-116571152D02*
X158383790Y-116571152D01*
X158383790Y-116571152D02*
X158288552Y-116618771D01*
X158288552Y-116618771D02*
X158240933Y-116666390D01*
X158240933Y-116666390D02*
X158193314Y-116761628D01*
X158193314Y-116761628D02*
X158193314Y-117047342D01*
X158193314Y-117047342D02*
X158240933Y-117142580D01*
X158240933Y-117142580D02*
X158288552Y-117190200D01*
X158288552Y-117190200D02*
X158383790Y-117237819D01*
X158383790Y-117237819D02*
X158526647Y-117237819D01*
X157764742Y-116571152D02*
X157764742Y-117571152D01*
X157764742Y-116618771D02*
X157669504Y-116571152D01*
X157669504Y-116571152D02*
X157479028Y-116571152D01*
X157479028Y-116571152D02*
X157383790Y-116618771D01*
X157383790Y-116618771D02*
X157336171Y-116666390D01*
X157336171Y-116666390D02*
X157288552Y-116761628D01*
X157288552Y-116761628D02*
X157288552Y-117047342D01*
X157288552Y-117047342D02*
X157336171Y-117142580D01*
X157336171Y-117142580D02*
X157383790Y-117190200D01*
X157383790Y-117190200D02*
X157479028Y-117237819D01*
X157479028Y-117237819D02*
X157669504Y-117237819D01*
X157669504Y-117237819D02*
X157764742Y-117190200D01*
X156859980Y-117237819D02*
X156859980Y-116237819D01*
X156431409Y-117237819D02*
X156431409Y-116714009D01*
X156431409Y-116714009D02*
X156479028Y-116618771D01*
X156479028Y-116618771D02*
X156574266Y-116571152D01*
X156574266Y-116571152D02*
X156717123Y-116571152D01*
X156717123Y-116571152D02*
X156812361Y-116618771D01*
X156812361Y-116618771D02*
X156859980Y-116666390D01*
X155574266Y-117190200D02*
X155669504Y-117237819D01*
X155669504Y-117237819D02*
X155859980Y-117237819D01*
X155859980Y-117237819D02*
X155955218Y-117190200D01*
X155955218Y-117190200D02*
X156002837Y-117094961D01*
X156002837Y-117094961D02*
X156002837Y-116714009D01*
X156002837Y-116714009D02*
X155955218Y-116618771D01*
X155955218Y-116618771D02*
X155859980Y-116571152D01*
X155859980Y-116571152D02*
X155669504Y-116571152D01*
X155669504Y-116571152D02*
X155574266Y-116618771D01*
X155574266Y-116618771D02*
X155526647Y-116714009D01*
X155526647Y-116714009D02*
X155526647Y-116809247D01*
X155526647Y-116809247D02*
X156002837Y-116904485D01*
X155098075Y-117237819D02*
X155098075Y-116571152D01*
X155098075Y-116761628D02*
X155050456Y-116666390D01*
X155050456Y-116666390D02*
X155002837Y-116618771D01*
X155002837Y-116618771D02*
X154907599Y-116571152D01*
X154907599Y-116571152D02*
X154812361Y-116571152D01*
X153717122Y-117237819D02*
X153717122Y-116237819D01*
X153717122Y-116237819D02*
X153479027Y-116237819D01*
X153479027Y-116237819D02*
X153336170Y-116285438D01*
X153336170Y-116285438D02*
X153240932Y-116380676D01*
X153240932Y-116380676D02*
X153193313Y-116475914D01*
X153193313Y-116475914D02*
X153145694Y-116666390D01*
X153145694Y-116666390D02*
X153145694Y-116809247D01*
X153145694Y-116809247D02*
X153193313Y-116999723D01*
X153193313Y-116999723D02*
X153240932Y-117094961D01*
X153240932Y-117094961D02*
X153336170Y-117190200D01*
X153336170Y-117190200D02*
X153479027Y-117237819D01*
X153479027Y-117237819D02*
X153717122Y-117237819D01*
X152288551Y-117237819D02*
X152288551Y-116714009D01*
X152288551Y-116714009D02*
X152336170Y-116618771D01*
X152336170Y-116618771D02*
X152431408Y-116571152D01*
X152431408Y-116571152D02*
X152621884Y-116571152D01*
X152621884Y-116571152D02*
X152717122Y-116618771D01*
X152288551Y-117190200D02*
X152383789Y-117237819D01*
X152383789Y-117237819D02*
X152621884Y-117237819D01*
X152621884Y-117237819D02*
X152717122Y-117190200D01*
X152717122Y-117190200D02*
X152764741Y-117094961D01*
X152764741Y-117094961D02*
X152764741Y-116999723D01*
X152764741Y-116999723D02*
X152717122Y-116904485D01*
X152717122Y-116904485D02*
X152621884Y-116856866D01*
X152621884Y-116856866D02*
X152383789Y-116856866D01*
X152383789Y-116856866D02*
X152288551Y-116809247D01*
X151383789Y-116571152D02*
X151383789Y-117237819D01*
X151812360Y-116571152D02*
X151812360Y-117094961D01*
X151812360Y-117094961D02*
X151764741Y-117190200D01*
X151764741Y-117190200D02*
X151669503Y-117237819D01*
X151669503Y-117237819D02*
X151526646Y-117237819D01*
X151526646Y-117237819D02*
X151431408Y-117190200D01*
X151431408Y-117190200D02*
X151383789Y-117142580D01*
X150907598Y-116571152D02*
X150907598Y-117237819D01*
X150907598Y-116666390D02*
X150859979Y-116618771D01*
X150859979Y-116618771D02*
X150764741Y-116571152D01*
X150764741Y-116571152D02*
X150621884Y-116571152D01*
X150621884Y-116571152D02*
X150526646Y-116618771D01*
X150526646Y-116618771D02*
X150479027Y-116714009D01*
X150479027Y-116714009D02*
X150479027Y-117237819D01*
G36*
X181977784Y-112904633D02*
G01*
X180507149Y-112904633D01*
X180507149Y-112550268D01*
X180596038Y-112550268D01*
X180596038Y-112740744D01*
X180597479Y-112755376D01*
X180608678Y-112782412D01*
X180629370Y-112803104D01*
X180656406Y-112814303D01*
X180671038Y-112815744D01*
X181813895Y-112815744D01*
X181828527Y-112814303D01*
X181855563Y-112803104D01*
X181876255Y-112782412D01*
X181887454Y-112755376D01*
X181888895Y-112740744D01*
X181888895Y-112550268D01*
X181887454Y-112535636D01*
X181876255Y-112508600D01*
X181855563Y-112487908D01*
X181828527Y-112476709D01*
X181799263Y-112476709D01*
X181772227Y-112487908D01*
X181751535Y-112508600D01*
X181740336Y-112535636D01*
X181738895Y-112550268D01*
X181738895Y-112665744D01*
X180746038Y-112665744D01*
X180746038Y-112550268D01*
X180744597Y-112535636D01*
X180733398Y-112508600D01*
X180712706Y-112487908D01*
X180685670Y-112476709D01*
X180656406Y-112476709D01*
X180629370Y-112487908D01*
X180608678Y-112508600D01*
X180597479Y-112535636D01*
X180596038Y-112550268D01*
X180507149Y-112550268D01*
X180507149Y-112083745D01*
X180863293Y-112083745D01*
X180863959Y-112093125D01*
X180863293Y-112102505D01*
X180864988Y-112107590D01*
X180865368Y-112112935D01*
X180869573Y-112121345D01*
X180872547Y-112130267D01*
X180876057Y-112134314D01*
X180878454Y-112139108D01*
X180885559Y-112145271D01*
X180891721Y-112152375D01*
X180896512Y-112154770D01*
X180900561Y-112158282D01*
X180913987Y-112164276D01*
X181713987Y-112430943D01*
X181728324Y-112434203D01*
X181757514Y-112432128D01*
X181783687Y-112419042D01*
X181802861Y-112396935D01*
X181812115Y-112369172D01*
X181810040Y-112339982D01*
X181796954Y-112313809D01*
X181774846Y-112294635D01*
X181761421Y-112288641D01*
X181174874Y-112093125D01*
X181761421Y-111897610D01*
X181774847Y-111891616D01*
X181796954Y-111872442D01*
X181810041Y-111846269D01*
X181812115Y-111817079D01*
X181802861Y-111789316D01*
X181783688Y-111767209D01*
X181757514Y-111754122D01*
X181728324Y-111752048D01*
X181713987Y-111755308D01*
X180913987Y-112021974D01*
X180900562Y-112027968D01*
X180896514Y-112031478D01*
X180891721Y-112033875D01*
X180885557Y-112040980D01*
X180878454Y-112047142D01*
X180876058Y-112051933D01*
X180872547Y-112055982D01*
X180869572Y-112064905D01*
X180865368Y-112073315D01*
X180864988Y-112078659D01*
X180863293Y-112083745D01*
X180507149Y-112083745D01*
X180507149Y-111545160D01*
X180864145Y-111545160D01*
X180864145Y-111574424D01*
X180875344Y-111601460D01*
X180896036Y-111622152D01*
X180923072Y-111633351D01*
X180937704Y-111634792D01*
X181737704Y-111634792D01*
X181752336Y-111633351D01*
X181779372Y-111622152D01*
X181800064Y-111601460D01*
X181811263Y-111574424D01*
X181811263Y-111545160D01*
X181800064Y-111518124D01*
X181779372Y-111497432D01*
X181752336Y-111486233D01*
X181737704Y-111484792D01*
X180937704Y-111484792D01*
X180923072Y-111486233D01*
X180896036Y-111497432D01*
X180875344Y-111518124D01*
X180864145Y-111545160D01*
X180507149Y-111545160D01*
X180507149Y-110726936D01*
X180862887Y-110726936D01*
X180864145Y-110731548D01*
X180864145Y-110736329D01*
X180867962Y-110745544D01*
X180870587Y-110755168D01*
X180873514Y-110758948D01*
X180875344Y-110763365D01*
X180882394Y-110770415D01*
X180888504Y-110778305D01*
X180894636Y-110782657D01*
X180896036Y-110784057D01*
X180897410Y-110784626D01*
X180900494Y-110786815D01*
X181455288Y-111103840D01*
X180937704Y-111103840D01*
X180923072Y-111105281D01*
X180896036Y-111116480D01*
X180875344Y-111137172D01*
X180864145Y-111164208D01*
X180864145Y-111193472D01*
X180875344Y-111220508D01*
X180896036Y-111241200D01*
X180923072Y-111252399D01*
X180937704Y-111253840D01*
X181737704Y-111253840D01*
X181741467Y-111253469D01*
X181742943Y-111253657D01*
X181744853Y-111253135D01*
X181752336Y-111252399D01*
X181761551Y-111248581D01*
X181771175Y-111245957D01*
X181774955Y-111243029D01*
X181779372Y-111241200D01*
X181786422Y-111234149D01*
X181794312Y-111228040D01*
X181796685Y-111223886D01*
X181800064Y-111220508D01*
X181803880Y-111211295D01*
X181808831Y-111202631D01*
X181809433Y-111197887D01*
X181811263Y-111193472D01*
X181811263Y-111183497D01*
X181812521Y-111173601D01*
X181811263Y-111168988D01*
X181811263Y-111164208D01*
X181807445Y-111154991D01*
X181804821Y-111145370D01*
X181801894Y-111141590D01*
X181800064Y-111137172D01*
X181793012Y-111130120D01*
X181786904Y-111122232D01*
X181780771Y-111117879D01*
X181779372Y-111116480D01*
X181777997Y-111115910D01*
X181774914Y-111113722D01*
X181220120Y-110796697D01*
X181737704Y-110796697D01*
X181752336Y-110795256D01*
X181779372Y-110784057D01*
X181800064Y-110763365D01*
X181811263Y-110736329D01*
X181811263Y-110707065D01*
X181800064Y-110680029D01*
X181779372Y-110659337D01*
X181752336Y-110648138D01*
X181737704Y-110646697D01*
X180937704Y-110646697D01*
X180933940Y-110647067D01*
X180932465Y-110646880D01*
X180930554Y-110647401D01*
X180923072Y-110648138D01*
X180913856Y-110651955D01*
X180904233Y-110654580D01*
X180900452Y-110657507D01*
X180896036Y-110659337D01*
X180888985Y-110666387D01*
X180881096Y-110672497D01*
X180878722Y-110676650D01*
X180875344Y-110680029D01*
X180871527Y-110689241D01*
X180866577Y-110697906D01*
X180865974Y-110702649D01*
X180864145Y-110707065D01*
X180864145Y-110717039D01*
X180862887Y-110726936D01*
X180507149Y-110726936D01*
X180507149Y-110226460D01*
X180596038Y-110226460D01*
X180596038Y-110416936D01*
X180597479Y-110431568D01*
X180608678Y-110458604D01*
X180629370Y-110479296D01*
X180656406Y-110490495D01*
X180685670Y-110490495D01*
X180712706Y-110479296D01*
X180733398Y-110458604D01*
X180744597Y-110431568D01*
X180746038Y-110416936D01*
X180746038Y-110301460D01*
X181738895Y-110301460D01*
X181738895Y-110416936D01*
X181740336Y-110431568D01*
X181751535Y-110458604D01*
X181772227Y-110479296D01*
X181799263Y-110490495D01*
X181828527Y-110490495D01*
X181855563Y-110479296D01*
X181876255Y-110458604D01*
X181887454Y-110431568D01*
X181888895Y-110416936D01*
X181888895Y-110226460D01*
X181887454Y-110211828D01*
X181876255Y-110184792D01*
X181855563Y-110164100D01*
X181828527Y-110152901D01*
X181813895Y-110151460D01*
X180671038Y-110151460D01*
X180656406Y-110152901D01*
X180629370Y-110164100D01*
X180608678Y-110184792D01*
X180597479Y-110211828D01*
X180596038Y-110226460D01*
X180507149Y-110226460D01*
X180507149Y-110062571D01*
X181977784Y-110062571D01*
X181977784Y-112904633D01*
G37*
X150365333Y-94022819D02*
X150365333Y-94737104D01*
X150365333Y-94737104D02*
X150412952Y-94879961D01*
X150412952Y-94879961D02*
X150508190Y-94975200D01*
X150508190Y-94975200D02*
X150651047Y-95022819D01*
X150651047Y-95022819D02*
X150746285Y-95022819D01*
X149365333Y-95022819D02*
X149936761Y-95022819D01*
X149651047Y-95022819D02*
X149651047Y-94022819D01*
X149651047Y-94022819D02*
X149746285Y-94165676D01*
X149746285Y-94165676D02*
X149841523Y-94260914D01*
X149841523Y-94260914D02*
X149936761Y-94308533D01*
D11*
X124602000Y-94588000D02*
X124602000Y-91988000D01*
X124602000Y-97188000D02*
X124602000Y-95858000D01*
X125932000Y-97188000D02*
X124602000Y-97188000D01*
X127202000Y-94588000D02*
X124602000Y-94588000D01*
X127202000Y-97188000D02*
X127202000Y-94588000D01*
X175522000Y-91988000D02*
X124602000Y-91988000D01*
X175522000Y-97188000D02*
X127202000Y-97188000D01*
X175522000Y-97188000D02*
X175522000Y-91988000D01*
M02*
