G04 #@! TF.GenerationSoftware,KiCad,Pcbnew,8.0.7*
G04 #@! TF.CreationDate,2024-12-23T21:13:05-08:00*
G04 #@! TF.ProjectId,pi-zero-serial-hat,70692d7a-6572-46f2-9d73-657269616c2d,1.0*
G04 #@! TF.SameCoordinates,Original*
G04 #@! TF.FileFunction,Legend,Top*
G04 #@! TF.FilePolarity,Positive*
%FSLAX46Y46*%
G04 Gerber Fmt 4.6, Leading zero omitted, Abs format (unit mm)*
G04 Created by KiCad (PCBNEW 8.0.7) date 2024-12-23 21:13:05*
%MOMM*%
%LPD*%
G01*
G04 APERTURE LIST*
%ADD10C,0.150000*%
%ADD11C,0.120000*%
%ADD12C,0.127000*%
%ADD13C,0.200000*%
G04 APERTURE END LIST*
D10*
X136775922Y-104362819D02*
X137347350Y-104362819D01*
X137061636Y-105362819D02*
X137061636Y-104362819D01*
X137585446Y-104362819D02*
X138252112Y-105362819D01*
X138252112Y-104362819D02*
X137585446Y-105362819D01*
X138633065Y-105362819D02*
X138633065Y-104362819D01*
X138633065Y-104362819D02*
X138871160Y-104362819D01*
X138871160Y-104362819D02*
X139014017Y-104410438D01*
X139014017Y-104410438D02*
X139109255Y-104505676D01*
X139109255Y-104505676D02*
X139156874Y-104600914D01*
X139156874Y-104600914D02*
X139204493Y-104791390D01*
X139204493Y-104791390D02*
X139204493Y-104934247D01*
X139204493Y-104934247D02*
X139156874Y-105124723D01*
X139156874Y-105124723D02*
X139109255Y-105219961D01*
X139109255Y-105219961D02*
X139014017Y-105315200D01*
X139014017Y-105315200D02*
X138871160Y-105362819D01*
X138871160Y-105362819D02*
X138633065Y-105362819D01*
G36*
X182071263Y-126969712D02*
G01*
X180270469Y-126969712D01*
X180270469Y-126545506D01*
X180381580Y-126545506D01*
X180381580Y-126783601D01*
X180383021Y-126798233D01*
X180394220Y-126825269D01*
X180414912Y-126845961D01*
X180441948Y-126857160D01*
X180456580Y-126858601D01*
X181885152Y-126858601D01*
X181899784Y-126857160D01*
X181926820Y-126845961D01*
X181947512Y-126825269D01*
X181958711Y-126798233D01*
X181960152Y-126783601D01*
X181960152Y-126545506D01*
X181958711Y-126530874D01*
X181947512Y-126503838D01*
X181926820Y-126483146D01*
X181899784Y-126471947D01*
X181870520Y-126471947D01*
X181843484Y-126483146D01*
X181822792Y-126503838D01*
X181811593Y-126530874D01*
X181810152Y-126545506D01*
X181810152Y-126708601D01*
X180531580Y-126708601D01*
X180531580Y-126545506D01*
X180530139Y-126530874D01*
X180518940Y-126503838D01*
X180498248Y-126483146D01*
X180471212Y-126471947D01*
X180441948Y-126471947D01*
X180414912Y-126483146D01*
X180394220Y-126503838D01*
X180383021Y-126530874D01*
X180381580Y-126545506D01*
X180270469Y-126545506D01*
X180270469Y-125768969D01*
X180716355Y-125768969D01*
X180716355Y-125798233D01*
X180727554Y-125825269D01*
X180748246Y-125845961D01*
X180775282Y-125857160D01*
X180789914Y-125858601D01*
X181095866Y-125858601D01*
X181095866Y-126164553D01*
X181097307Y-126179185D01*
X181108506Y-126206221D01*
X181129198Y-126226913D01*
X181156234Y-126238112D01*
X181185498Y-126238112D01*
X181212534Y-126226913D01*
X181233226Y-126206221D01*
X181244425Y-126179185D01*
X181245866Y-126164553D01*
X181245866Y-125858601D01*
X181551819Y-125858601D01*
X181566451Y-125857160D01*
X181593487Y-125845961D01*
X181614179Y-125825269D01*
X181625378Y-125798233D01*
X181625378Y-125768969D01*
X181614179Y-125741933D01*
X181593487Y-125721241D01*
X181566451Y-125710042D01*
X181551819Y-125708601D01*
X181245866Y-125708601D01*
X181245866Y-125402649D01*
X181244425Y-125388017D01*
X181233226Y-125360981D01*
X181212534Y-125340289D01*
X181185498Y-125329090D01*
X181156234Y-125329090D01*
X181129198Y-125340289D01*
X181108506Y-125360981D01*
X181097307Y-125388017D01*
X181095866Y-125402649D01*
X181095866Y-125708601D01*
X180789914Y-125708601D01*
X180775282Y-125710042D01*
X180748246Y-125721241D01*
X180727554Y-125741933D01*
X180716355Y-125768969D01*
X180270469Y-125768969D01*
X180270469Y-124593125D01*
X180476819Y-124593125D01*
X180476819Y-124831220D01*
X180478260Y-124845852D01*
X180479291Y-124848341D01*
X180479482Y-124851029D01*
X180484737Y-124864761D01*
X180532356Y-124959999D01*
X180536320Y-124966298D01*
X180537078Y-124968126D01*
X180538766Y-124970182D01*
X180540188Y-124972442D01*
X180541686Y-124973741D01*
X180546405Y-124979491D01*
X180594024Y-125027110D01*
X180605389Y-125036437D01*
X180632425Y-125047636D01*
X180661688Y-125047636D01*
X180688724Y-125036437D01*
X180709417Y-125015744D01*
X180720616Y-124988708D01*
X180720616Y-124959445D01*
X180709417Y-124932409D01*
X180700090Y-124921044D01*
X180661077Y-124882031D01*
X180626819Y-124813515D01*
X180626819Y-124610830D01*
X180661077Y-124542314D01*
X180691484Y-124511907D01*
X180760000Y-124477649D01*
X180825363Y-124477649D01*
X180939876Y-124515820D01*
X181498786Y-125074729D01*
X181510151Y-125084057D01*
X181529268Y-125091975D01*
X181537187Y-125095255D01*
X181537188Y-125095255D01*
X181566451Y-125095255D01*
X181593487Y-125084056D01*
X181614180Y-125063364D01*
X181622098Y-125044246D01*
X181625378Y-125036328D01*
X181626819Y-125021696D01*
X181626819Y-124402649D01*
X181625378Y-124388017D01*
X181614179Y-124360981D01*
X181593487Y-124340289D01*
X181566451Y-124329090D01*
X181537187Y-124329090D01*
X181510151Y-124340289D01*
X181489459Y-124360981D01*
X181478260Y-124388017D01*
X181476819Y-124402649D01*
X181476819Y-124840630D01*
X181033423Y-124397235D01*
X181022058Y-124387908D01*
X181019567Y-124386876D01*
X181017532Y-124385111D01*
X181004107Y-124379117D01*
X180861250Y-124331498D01*
X180853996Y-124329848D01*
X180852165Y-124329090D01*
X180849510Y-124328828D01*
X180846913Y-124328238D01*
X180844938Y-124328378D01*
X180837533Y-124327649D01*
X180742295Y-124327649D01*
X180727663Y-124329090D01*
X180725174Y-124330120D01*
X180722485Y-124330312D01*
X180708754Y-124335567D01*
X180613516Y-124383186D01*
X180607216Y-124387150D01*
X180605389Y-124387908D01*
X180603332Y-124389596D01*
X180601073Y-124391018D01*
X180599773Y-124392516D01*
X180594024Y-124397235D01*
X180546405Y-124444854D01*
X180541686Y-124450603D01*
X180540188Y-124451903D01*
X180538766Y-124454162D01*
X180537078Y-124456219D01*
X180536320Y-124458046D01*
X180532356Y-124464346D01*
X180484737Y-124559584D01*
X180479482Y-124573316D01*
X180479291Y-124576003D01*
X180478260Y-124578493D01*
X180476819Y-124593125D01*
X180270469Y-124593125D01*
X180270469Y-123774221D01*
X180429789Y-123774221D01*
X180431864Y-123803411D01*
X180444950Y-123829584D01*
X180467057Y-123848758D01*
X180480483Y-123854752D01*
X181194767Y-124092847D01*
X181202022Y-124094496D01*
X181203853Y-124095255D01*
X181205357Y-124095255D01*
X181209104Y-124096107D01*
X181221089Y-124095255D01*
X181233117Y-124095255D01*
X181235608Y-124094222D01*
X181238294Y-124094032D01*
X181249041Y-124088658D01*
X181260153Y-124084056D01*
X181262058Y-124082150D01*
X181264468Y-124080946D01*
X181272342Y-124071866D01*
X181280845Y-124063364D01*
X181281876Y-124060873D01*
X181283642Y-124058838D01*
X181287442Y-124047437D01*
X181292044Y-124036328D01*
X181292420Y-124032501D01*
X181292896Y-124031076D01*
X181292755Y-124029101D01*
X181293485Y-124021696D01*
X181293485Y-123620506D01*
X181551819Y-123620506D01*
X181566451Y-123619065D01*
X181593487Y-123607866D01*
X181614179Y-123587174D01*
X181625378Y-123560138D01*
X181625378Y-123530874D01*
X181614179Y-123503838D01*
X181593487Y-123483146D01*
X181566451Y-123471947D01*
X181551819Y-123470506D01*
X181293485Y-123470506D01*
X181293485Y-123402649D01*
X181292044Y-123388017D01*
X181280845Y-123360981D01*
X181260153Y-123340289D01*
X181233117Y-123329090D01*
X181203853Y-123329090D01*
X181176817Y-123340289D01*
X181156125Y-123360981D01*
X181144926Y-123388017D01*
X181143485Y-123402649D01*
X181143485Y-123470506D01*
X180885152Y-123470506D01*
X180870520Y-123471947D01*
X180843484Y-123483146D01*
X180822792Y-123503838D01*
X180811593Y-123530874D01*
X180811593Y-123560138D01*
X180822792Y-123587174D01*
X180843484Y-123607866D01*
X180870520Y-123619065D01*
X180885152Y-123620506D01*
X181143485Y-123620506D01*
X181143485Y-123917639D01*
X180527917Y-123712450D01*
X180513580Y-123709190D01*
X180484390Y-123711265D01*
X180458217Y-123724351D01*
X180439043Y-123746458D01*
X180429789Y-123774221D01*
X180270469Y-123774221D01*
X180270469Y-122629783D01*
X180810957Y-122629783D01*
X180812411Y-122659011D01*
X180824938Y-122685457D01*
X180846632Y-122705096D01*
X180859927Y-122711375D01*
X181328826Y-122878839D01*
X180859927Y-123046303D01*
X180846632Y-123052582D01*
X180824938Y-123072221D01*
X180812411Y-123098667D01*
X180810957Y-123127895D01*
X180820800Y-123155454D01*
X180840439Y-123177148D01*
X180866885Y-123189675D01*
X180896113Y-123191129D01*
X180910377Y-123187565D01*
X181577044Y-122949470D01*
X181590339Y-122943191D01*
X181593130Y-122940663D01*
X181596531Y-122939053D01*
X181603893Y-122930920D01*
X181612033Y-122923552D01*
X181613644Y-122920149D01*
X181616171Y-122917359D01*
X181619862Y-122907021D01*
X181624560Y-122897106D01*
X181624746Y-122893347D01*
X181626014Y-122889800D01*
X181625468Y-122878839D01*
X181626014Y-122867878D01*
X181624746Y-122864330D01*
X181624560Y-122860572D01*
X181619862Y-122850656D01*
X181616171Y-122840319D01*
X181613644Y-122837528D01*
X181612033Y-122834126D01*
X181603893Y-122826757D01*
X181596531Y-122818625D01*
X181593130Y-122817014D01*
X181590339Y-122814487D01*
X181577044Y-122808208D01*
X180910377Y-122570113D01*
X180896113Y-122566549D01*
X180866885Y-122568003D01*
X180840439Y-122580530D01*
X180820800Y-122602224D01*
X180810957Y-122629783D01*
X180270469Y-122629783D01*
X180270469Y-122116934D01*
X180381580Y-122116934D01*
X180381580Y-122355029D01*
X180383021Y-122369661D01*
X180394220Y-122396697D01*
X180414912Y-122417389D01*
X180441948Y-122428588D01*
X180471212Y-122428588D01*
X180498248Y-122417389D01*
X180518940Y-122396697D01*
X180530139Y-122369661D01*
X180531580Y-122355029D01*
X180531580Y-122191934D01*
X181810152Y-122191934D01*
X181810152Y-122355029D01*
X181811593Y-122369661D01*
X181822792Y-122396697D01*
X181843484Y-122417389D01*
X181870520Y-122428588D01*
X181899784Y-122428588D01*
X181926820Y-122417389D01*
X181947512Y-122396697D01*
X181958711Y-122369661D01*
X181960152Y-122355029D01*
X181960152Y-122116934D01*
X181958711Y-122102302D01*
X181947512Y-122075266D01*
X181926820Y-122054574D01*
X181899784Y-122043375D01*
X181885152Y-122041934D01*
X180456580Y-122041934D01*
X180441948Y-122043375D01*
X180414912Y-122054574D01*
X180394220Y-122075266D01*
X180383021Y-122102302D01*
X180381580Y-122116934D01*
X180270469Y-122116934D01*
X180270469Y-121930823D01*
X182071263Y-121930823D01*
X182071263Y-126969712D01*
G37*
X144240207Y-111337819D02*
X143906874Y-110861628D01*
X143668779Y-111337819D02*
X143668779Y-110337819D01*
X143668779Y-110337819D02*
X144049731Y-110337819D01*
X144049731Y-110337819D02*
X144144969Y-110385438D01*
X144144969Y-110385438D02*
X144192588Y-110433057D01*
X144192588Y-110433057D02*
X144240207Y-110528295D01*
X144240207Y-110528295D02*
X144240207Y-110671152D01*
X144240207Y-110671152D02*
X144192588Y-110766390D01*
X144192588Y-110766390D02*
X144144969Y-110814009D01*
X144144969Y-110814009D02*
X144049731Y-110861628D01*
X144049731Y-110861628D02*
X143668779Y-110861628D01*
X144573541Y-110337819D02*
X145240207Y-111337819D01*
X145240207Y-110337819D02*
X144573541Y-111337819D01*
X145621160Y-111337819D02*
X145621160Y-110337819D01*
X145621160Y-110337819D02*
X145859255Y-110337819D01*
X145859255Y-110337819D02*
X146002112Y-110385438D01*
X146002112Y-110385438D02*
X146097350Y-110480676D01*
X146097350Y-110480676D02*
X146144969Y-110575914D01*
X146144969Y-110575914D02*
X146192588Y-110766390D01*
X146192588Y-110766390D02*
X146192588Y-110909247D01*
X146192588Y-110909247D02*
X146144969Y-111099723D01*
X146144969Y-111099723D02*
X146097350Y-111194961D01*
X146097350Y-111194961D02*
X146002112Y-111290200D01*
X146002112Y-111290200D02*
X145859255Y-111337819D01*
X145859255Y-111337819D02*
X145621160Y-111337819D01*
G36*
X181287547Y-128663889D02*
G01*
X181364534Y-128702383D01*
X181438648Y-128776496D01*
X181476819Y-128891009D01*
X181476819Y-129041934D01*
X180626819Y-129041934D01*
X180626819Y-128891009D01*
X180664990Y-128776495D01*
X180739103Y-128702383D01*
X180816090Y-128663889D01*
X180989624Y-128620506D01*
X181114013Y-128620506D01*
X181287547Y-128663889D01*
G37*
G36*
X182071263Y-131969712D02*
G01*
X180270469Y-131969712D01*
X180270469Y-131545506D01*
X180381580Y-131545506D01*
X180381580Y-131783601D01*
X180383021Y-131798233D01*
X180394220Y-131825269D01*
X180414912Y-131845961D01*
X180441948Y-131857160D01*
X180456580Y-131858601D01*
X181885152Y-131858601D01*
X181899784Y-131857160D01*
X181926820Y-131845961D01*
X181947512Y-131825269D01*
X181958711Y-131798233D01*
X181960152Y-131783601D01*
X181960152Y-131545506D01*
X181958711Y-131530874D01*
X181947512Y-131503838D01*
X181926820Y-131483146D01*
X181899784Y-131471947D01*
X181870520Y-131471947D01*
X181843484Y-131483146D01*
X181822792Y-131503838D01*
X181811593Y-131530874D01*
X181810152Y-131545506D01*
X181810152Y-131708601D01*
X180531580Y-131708601D01*
X180531580Y-131545506D01*
X180530139Y-131530874D01*
X180518940Y-131503838D01*
X180498248Y-131483146D01*
X180471212Y-131471947D01*
X180441948Y-131471947D01*
X180414912Y-131483146D01*
X180394220Y-131503838D01*
X180383021Y-131530874D01*
X180381580Y-131545506D01*
X180270469Y-131545506D01*
X180270469Y-130735982D01*
X180476819Y-130735982D01*
X180476819Y-130878839D01*
X180477548Y-130886244D01*
X180477408Y-130888219D01*
X180477998Y-130890816D01*
X180478260Y-130893471D01*
X180479018Y-130895302D01*
X180480668Y-130902556D01*
X180528287Y-131045413D01*
X180534281Y-131058838D01*
X180536046Y-131060873D01*
X180537078Y-131063364D01*
X180546405Y-131074729D01*
X180641643Y-131169967D01*
X180647393Y-131174687D01*
X180648692Y-131176184D01*
X180650946Y-131177603D01*
X180653008Y-131179295D01*
X180654840Y-131180053D01*
X180661135Y-131184016D01*
X180756373Y-131231635D01*
X180757442Y-131232044D01*
X180757878Y-131232367D01*
X180764014Y-131234559D01*
X180770104Y-131236890D01*
X180770644Y-131236928D01*
X180771724Y-131237314D01*
X180962200Y-131284933D01*
X180964736Y-131285308D01*
X180965758Y-131285731D01*
X180971270Y-131286273D01*
X180976744Y-131287083D01*
X180977836Y-131286920D01*
X180980390Y-131287172D01*
X181123247Y-131287172D01*
X181125800Y-131286920D01*
X181126893Y-131287083D01*
X181132366Y-131286273D01*
X181137879Y-131285731D01*
X181138900Y-131285308D01*
X181141437Y-131284933D01*
X181331913Y-131237314D01*
X181332992Y-131236928D01*
X181333532Y-131236890D01*
X181339613Y-131234562D01*
X181345759Y-131232367D01*
X181346194Y-131232044D01*
X181347264Y-131231635D01*
X181442502Y-131184016D01*
X181448798Y-131180052D01*
X181450628Y-131179295D01*
X181452686Y-131177605D01*
X181454945Y-131176184D01*
X181456244Y-131174685D01*
X181461994Y-131169967D01*
X181557233Y-131074729D01*
X181566561Y-131063364D01*
X181567592Y-131060873D01*
X181569357Y-131058839D01*
X181575351Y-131045413D01*
X181622970Y-130902557D01*
X181624619Y-130895301D01*
X181625378Y-130893471D01*
X181625639Y-130890817D01*
X181626230Y-130888220D01*
X181626089Y-130886245D01*
X181626819Y-130878839D01*
X181626819Y-130783601D01*
X181626089Y-130776194D01*
X181626230Y-130774220D01*
X181625639Y-130771622D01*
X181625378Y-130768969D01*
X181624619Y-130767138D01*
X181622970Y-130759883D01*
X181575351Y-130617027D01*
X181569357Y-130603601D01*
X181567590Y-130601564D01*
X181566560Y-130599076D01*
X181557232Y-130587710D01*
X181509612Y-130540091D01*
X181498247Y-130530764D01*
X181482410Y-130524204D01*
X181471212Y-130519566D01*
X181456580Y-130518125D01*
X181123247Y-130518125D01*
X181108615Y-130519566D01*
X181081579Y-130530765D01*
X181060887Y-130551457D01*
X181049688Y-130578493D01*
X181048247Y-130593125D01*
X181048247Y-130783601D01*
X181049688Y-130798233D01*
X181060887Y-130825269D01*
X181081579Y-130845961D01*
X181108615Y-130857160D01*
X181137879Y-130857160D01*
X181164915Y-130845961D01*
X181185607Y-130825269D01*
X181196806Y-130798233D01*
X181198247Y-130783601D01*
X181198247Y-130668125D01*
X181425514Y-130668125D01*
X181438648Y-130681258D01*
X181476819Y-130795771D01*
X181476819Y-130866669D01*
X181438648Y-130981181D01*
X181364534Y-131055294D01*
X181287547Y-131093788D01*
X181114013Y-131137172D01*
X180989624Y-131137172D01*
X180816090Y-131093788D01*
X180739103Y-131055295D01*
X180664990Y-130981182D01*
X180626819Y-130866668D01*
X180626819Y-130753687D01*
X180666520Y-130674285D01*
X180671775Y-130660554D01*
X180673849Y-130631364D01*
X180664595Y-130603602D01*
X180645422Y-130581495D01*
X180619247Y-130568407D01*
X180590057Y-130566333D01*
X180562296Y-130575587D01*
X180540188Y-130594760D01*
X180532356Y-130607203D01*
X180484737Y-130702441D01*
X180479482Y-130716173D01*
X180479291Y-130718860D01*
X180478260Y-130721350D01*
X180476819Y-130735982D01*
X180270469Y-130735982D01*
X180270469Y-130159314D01*
X180477002Y-130159314D01*
X180478260Y-130169210D01*
X180478260Y-130179185D01*
X180480089Y-130183600D01*
X180480692Y-130188344D01*
X180485642Y-130197008D01*
X180489459Y-130206221D01*
X180492837Y-130209599D01*
X180495211Y-130213753D01*
X180503100Y-130219862D01*
X180510151Y-130226913D01*
X180514567Y-130228742D01*
X180518348Y-130231670D01*
X180527971Y-130234294D01*
X180537187Y-130238112D01*
X180544669Y-130238848D01*
X180546580Y-130239370D01*
X180548055Y-130239182D01*
X180551819Y-130239553D01*
X181551819Y-130239553D01*
X181566451Y-130238112D01*
X181593487Y-130226913D01*
X181614179Y-130206221D01*
X181625378Y-130179185D01*
X181625378Y-130149921D01*
X181614179Y-130122885D01*
X181593487Y-130102193D01*
X181566451Y-130090994D01*
X181551819Y-130089553D01*
X180834236Y-130089553D01*
X181589030Y-129658243D01*
X181592114Y-129656053D01*
X181593487Y-129655485D01*
X181594884Y-129654087D01*
X181601019Y-129649733D01*
X181607127Y-129641844D01*
X181614179Y-129634793D01*
X181616009Y-129630374D01*
X181618936Y-129626595D01*
X181621560Y-129616973D01*
X181625378Y-129607757D01*
X181625378Y-129602976D01*
X181626636Y-129598364D01*
X181625378Y-129588467D01*
X181625378Y-129578493D01*
X181623548Y-129574077D01*
X181622946Y-129569334D01*
X181617995Y-129560669D01*
X181614179Y-129551457D01*
X181610800Y-129548078D01*
X181608427Y-129543925D01*
X181600537Y-129537815D01*
X181593487Y-129530765D01*
X181589070Y-129528935D01*
X181585290Y-129526008D01*
X181575666Y-129523383D01*
X181566451Y-129519566D01*
X181558968Y-129518829D01*
X181557058Y-129518308D01*
X181555582Y-129518495D01*
X181551819Y-129518125D01*
X180551819Y-129518125D01*
X180537187Y-129519566D01*
X180510151Y-129530765D01*
X180489459Y-129551457D01*
X180478260Y-129578493D01*
X180478260Y-129607757D01*
X180489459Y-129634793D01*
X180510151Y-129655485D01*
X180537187Y-129666684D01*
X180551819Y-129668125D01*
X181269402Y-129668125D01*
X180514609Y-130099435D01*
X180511525Y-130101623D01*
X180510151Y-130102193D01*
X180508751Y-130103592D01*
X180502619Y-130107945D01*
X180496509Y-130115834D01*
X180489459Y-130122885D01*
X180487629Y-130127301D01*
X180484702Y-130131082D01*
X180482077Y-130140705D01*
X180478260Y-130149921D01*
X180478260Y-130154701D01*
X180477002Y-130159314D01*
X180270469Y-130159314D01*
X180270469Y-128878839D01*
X180476819Y-128878839D01*
X180476819Y-129116934D01*
X180478260Y-129131566D01*
X180489459Y-129158602D01*
X180510151Y-129179294D01*
X180537187Y-129190493D01*
X180551819Y-129191934D01*
X181551819Y-129191934D01*
X181566451Y-129190493D01*
X181593487Y-129179294D01*
X181614179Y-129158602D01*
X181625378Y-129131566D01*
X181626819Y-129116934D01*
X181626819Y-128878839D01*
X181626089Y-128871432D01*
X181626230Y-128869458D01*
X181625639Y-128866860D01*
X181625378Y-128864207D01*
X181624619Y-128862376D01*
X181622970Y-128855121D01*
X181575351Y-128712265D01*
X181569357Y-128698839D01*
X181567592Y-128696804D01*
X181566561Y-128694314D01*
X181557233Y-128682949D01*
X181461994Y-128587711D01*
X181456244Y-128582992D01*
X181454945Y-128581494D01*
X181452686Y-128580072D01*
X181450628Y-128578383D01*
X181448798Y-128577625D01*
X181442502Y-128573662D01*
X181347264Y-128526043D01*
X181346194Y-128525633D01*
X181345759Y-128525311D01*
X181339613Y-128523115D01*
X181333532Y-128520788D01*
X181332992Y-128520749D01*
X181331913Y-128520364D01*
X181141437Y-128472745D01*
X181138900Y-128472369D01*
X181137879Y-128471947D01*
X181132366Y-128471404D01*
X181126893Y-128470595D01*
X181125800Y-128470757D01*
X181123247Y-128470506D01*
X180980390Y-128470506D01*
X180977836Y-128470757D01*
X180976744Y-128470595D01*
X180971270Y-128471404D01*
X180965758Y-128471947D01*
X180964736Y-128472369D01*
X180962200Y-128472745D01*
X180771724Y-128520364D01*
X180770644Y-128520749D01*
X180770104Y-128520788D01*
X180764014Y-128523118D01*
X180757878Y-128525311D01*
X180757442Y-128525633D01*
X180756373Y-128526043D01*
X180661135Y-128573662D01*
X180654840Y-128577624D01*
X180653008Y-128578383D01*
X180650946Y-128580074D01*
X180648692Y-128581494D01*
X180647393Y-128582990D01*
X180641643Y-128587711D01*
X180546405Y-128682949D01*
X180537078Y-128694314D01*
X180536046Y-128696804D01*
X180534281Y-128698840D01*
X180528287Y-128712265D01*
X180480668Y-128855122D01*
X180479018Y-128862375D01*
X180478260Y-128864207D01*
X180477998Y-128866861D01*
X180477408Y-128869459D01*
X180477548Y-128871433D01*
X180476819Y-128878839D01*
X180270469Y-128878839D01*
X180270469Y-127974077D01*
X180381580Y-127974077D01*
X180381580Y-128212172D01*
X180383021Y-128226804D01*
X180394220Y-128253840D01*
X180414912Y-128274532D01*
X180441948Y-128285731D01*
X180471212Y-128285731D01*
X180498248Y-128274532D01*
X180518940Y-128253840D01*
X180530139Y-128226804D01*
X180531580Y-128212172D01*
X180531580Y-128049077D01*
X181810152Y-128049077D01*
X181810152Y-128212172D01*
X181811593Y-128226804D01*
X181822792Y-128253840D01*
X181843484Y-128274532D01*
X181870520Y-128285731D01*
X181899784Y-128285731D01*
X181926820Y-128274532D01*
X181947512Y-128253840D01*
X181958711Y-128226804D01*
X181960152Y-128212172D01*
X181960152Y-127974077D01*
X181958711Y-127959445D01*
X181947512Y-127932409D01*
X181926820Y-127911717D01*
X181899784Y-127900518D01*
X181885152Y-127899077D01*
X180456580Y-127899077D01*
X180441948Y-127900518D01*
X180414912Y-127911717D01*
X180394220Y-127932409D01*
X180383021Y-127959445D01*
X180381580Y-127974077D01*
X180270469Y-127974077D01*
X180270469Y-127787966D01*
X182071263Y-127787966D01*
X182071263Y-131969712D01*
G37*
D11*
G36*
X120330167Y-100151262D02*
G01*
X120387720Y-100208814D01*
X120419994Y-100337905D01*
X120419994Y-100589803D01*
X120387720Y-100718894D01*
X120330168Y-100776447D01*
X120275353Y-100803855D01*
X120151302Y-100803855D01*
X120096487Y-100776447D01*
X120038934Y-100718894D01*
X120006660Y-100589803D01*
X120006660Y-100337905D01*
X120038934Y-100208813D01*
X120096484Y-100151263D01*
X120151302Y-100123855D01*
X120275353Y-100123855D01*
X120330167Y-100151262D01*
G37*
G36*
X122806359Y-100151262D02*
G01*
X122830683Y-100175587D01*
X122858090Y-100230400D01*
X122858090Y-100316356D01*
X122830683Y-100371169D01*
X122806359Y-100395494D01*
X122751544Y-100422902D01*
X122520947Y-100422902D01*
X122520947Y-100123855D01*
X122751544Y-100123855D01*
X122806359Y-100151262D01*
G37*
G36*
X119530168Y-100151262D02*
G01*
X119554492Y-100175587D01*
X119581899Y-100230400D01*
X119581899Y-100316356D01*
X119554492Y-100371169D01*
X119530168Y-100395494D01*
X119475353Y-100422902D01*
X119244756Y-100422902D01*
X119244756Y-100123855D01*
X119475353Y-100123855D01*
X119530168Y-100151262D01*
G37*
G36*
X123524121Y-101279410D02*
G01*
X118540629Y-101279410D01*
X118540629Y-99987664D01*
X118629518Y-99987664D01*
X118629518Y-101130521D01*
X118634085Y-101153482D01*
X118666557Y-101185954D01*
X118689518Y-101190521D01*
X118879994Y-101190521D01*
X118902955Y-101185954D01*
X118935427Y-101153482D01*
X118935427Y-101107560D01*
X118902955Y-101075088D01*
X118879994Y-101070521D01*
X118749518Y-101070521D01*
X118749518Y-100063855D01*
X119124756Y-100063855D01*
X119124756Y-100863855D01*
X119129323Y-100886816D01*
X119161795Y-100919288D01*
X119207717Y-100919288D01*
X119240189Y-100886816D01*
X119244756Y-100863855D01*
X119244756Y-100542902D01*
X119489518Y-100542902D01*
X119492465Y-100542315D01*
X119493771Y-100542751D01*
X119503046Y-100540211D01*
X119512479Y-100538335D01*
X119513452Y-100537361D01*
X119516351Y-100536568D01*
X119592541Y-100498473D01*
X119600142Y-100492572D01*
X119608134Y-100487233D01*
X119646229Y-100449139D01*
X119651575Y-100441138D01*
X119657468Y-100433545D01*
X119695564Y-100357354D01*
X119696357Y-100354456D01*
X119697332Y-100353482D01*
X119699208Y-100344045D01*
X119701748Y-100334775D01*
X119701312Y-100333468D01*
X119701899Y-100330521D01*
X119886660Y-100330521D01*
X119886660Y-100597188D01*
X119888094Y-100604399D01*
X119888452Y-100611740D01*
X119926548Y-100764121D01*
X119929323Y-100769995D01*
X119929323Y-100772530D01*
X119933407Y-100778643D01*
X119936547Y-100785289D01*
X119938718Y-100786592D01*
X119942329Y-100791995D01*
X120018520Y-100868186D01*
X120026507Y-100873523D01*
X120034113Y-100879426D01*
X120110305Y-100917521D01*
X120113202Y-100918314D01*
X120114176Y-100919288D01*
X120123610Y-100921164D01*
X120132884Y-100923704D01*
X120134189Y-100923268D01*
X120137137Y-100923855D01*
X120289518Y-100923855D01*
X120292465Y-100923268D01*
X120293771Y-100923704D01*
X120303046Y-100921164D01*
X120312479Y-100919288D01*
X120313452Y-100918314D01*
X120316351Y-100917521D01*
X120392541Y-100879426D01*
X120400142Y-100873525D01*
X120408134Y-100868186D01*
X120484325Y-100791996D01*
X120487935Y-100786592D01*
X120490108Y-100785289D01*
X120493248Y-100778641D01*
X120497332Y-100772530D01*
X120497332Y-100769997D01*
X120500108Y-100764121D01*
X120538203Y-100611740D01*
X120538560Y-100604395D01*
X120539994Y-100597188D01*
X120539994Y-100330521D01*
X120538560Y-100323313D01*
X120538203Y-100315969D01*
X120500108Y-100163588D01*
X120497332Y-100157711D01*
X120497332Y-100155179D01*
X120493248Y-100149068D01*
X120490108Y-100142420D01*
X120487934Y-100141116D01*
X120484325Y-100135714D01*
X120408134Y-100059523D01*
X120400405Y-100054358D01*
X120687416Y-100054358D01*
X120688292Y-100077752D01*
X120878768Y-100877752D01*
X120888529Y-100899031D01*
X120896170Y-100903733D01*
X120900667Y-100911500D01*
X120915002Y-100915322D01*
X120927639Y-100923099D01*
X120936369Y-100921020D01*
X120945039Y-100923332D01*
X120957878Y-100915898D01*
X120972312Y-100912462D01*
X120977014Y-100904820D01*
X120984781Y-100900324D01*
X120995110Y-100879315D01*
X121089516Y-100525288D01*
X121183924Y-100879315D01*
X121194253Y-100900324D01*
X121202019Y-100904820D01*
X121206722Y-100912462D01*
X121221153Y-100915898D01*
X121233995Y-100923333D01*
X121242666Y-100921020D01*
X121251395Y-100923099D01*
X121264028Y-100915324D01*
X121278367Y-100911501D01*
X121282864Y-100903733D01*
X121290505Y-100899031D01*
X121300266Y-100877752D01*
X121490743Y-100077753D01*
X121491263Y-100063855D01*
X121677137Y-100063855D01*
X121677137Y-100863855D01*
X121681704Y-100886816D01*
X121714176Y-100919288D01*
X121737137Y-100923855D01*
X122118089Y-100923855D01*
X122141050Y-100919288D01*
X122173522Y-100886816D01*
X122173522Y-100840894D01*
X122141050Y-100808422D01*
X122118089Y-100803855D01*
X121797137Y-100803855D01*
X121797137Y-100504807D01*
X122003803Y-100504807D01*
X122026764Y-100500240D01*
X122059236Y-100467768D01*
X122059236Y-100421846D01*
X122026764Y-100389374D01*
X122003803Y-100384807D01*
X121797137Y-100384807D01*
X121797137Y-100123855D01*
X122118089Y-100123855D01*
X122141050Y-100119288D01*
X122173522Y-100086816D01*
X122173522Y-100063855D01*
X122400947Y-100063855D01*
X122400947Y-100863855D01*
X122405514Y-100886816D01*
X122437986Y-100919288D01*
X122483908Y-100919288D01*
X122516380Y-100886816D01*
X122520947Y-100863855D01*
X122520947Y-100542902D01*
X122620183Y-100542902D01*
X122868936Y-100898262D01*
X122885845Y-100914454D01*
X122931068Y-100922434D01*
X122968689Y-100896100D01*
X122976670Y-100850876D01*
X122967244Y-100829447D01*
X122766546Y-100542735D01*
X122768656Y-100542315D01*
X122769962Y-100542751D01*
X122779237Y-100540211D01*
X122788670Y-100538335D01*
X122789643Y-100537361D01*
X122792542Y-100536568D01*
X122868732Y-100498473D01*
X122876333Y-100492572D01*
X122884325Y-100487233D01*
X122922420Y-100449139D01*
X122927766Y-100441138D01*
X122933659Y-100433545D01*
X122971755Y-100357354D01*
X122972548Y-100354456D01*
X122973523Y-100353482D01*
X122975399Y-100344045D01*
X122977939Y-100334775D01*
X122977503Y-100333468D01*
X122978090Y-100330521D01*
X122978090Y-100216236D01*
X122977503Y-100213288D01*
X122977939Y-100211982D01*
X122975399Y-100202711D01*
X122973523Y-100193275D01*
X122972548Y-100192300D01*
X122971755Y-100189403D01*
X122933659Y-100113212D01*
X122927766Y-100105618D01*
X122922420Y-100097618D01*
X122884325Y-100059524D01*
X122876333Y-100054184D01*
X122868732Y-100048284D01*
X122792542Y-100010189D01*
X122789643Y-100009395D01*
X122788670Y-100008422D01*
X122779237Y-100006545D01*
X122769962Y-100004006D01*
X122768656Y-100004441D01*
X122765709Y-100003855D01*
X122460947Y-100003855D01*
X122437986Y-100008422D01*
X122405514Y-100040894D01*
X122400947Y-100063855D01*
X122173522Y-100063855D01*
X122173522Y-100040894D01*
X122141050Y-100008422D01*
X122118089Y-100003855D01*
X121737137Y-100003855D01*
X121714176Y-100008422D01*
X121681704Y-100040894D01*
X121677137Y-100063855D01*
X121491263Y-100063855D01*
X121491619Y-100054358D01*
X121467551Y-100015248D01*
X121422878Y-100004612D01*
X121383768Y-100028679D01*
X121374007Y-100049958D01*
X121238604Y-100618644D01*
X121147491Y-100276966D01*
X121137162Y-100255957D01*
X121130084Y-100251859D01*
X121125986Y-100244780D01*
X121110913Y-100240760D01*
X121097420Y-100232949D01*
X121089518Y-100235055D01*
X121081614Y-100232948D01*
X121068115Y-100240763D01*
X121053048Y-100244781D01*
X121048950Y-100251858D01*
X121041872Y-100255957D01*
X121031543Y-100276966D01*
X120940429Y-100618643D01*
X120805028Y-100049958D01*
X120795267Y-100028679D01*
X120756157Y-100004611D01*
X120711484Y-100015248D01*
X120687416Y-100054358D01*
X120400405Y-100054358D01*
X120400137Y-100054179D01*
X120392541Y-100048284D01*
X120316351Y-100010189D01*
X120313452Y-100009395D01*
X120312479Y-100008422D01*
X120303046Y-100006545D01*
X120293771Y-100004006D01*
X120292465Y-100004441D01*
X120289518Y-100003855D01*
X120137137Y-100003855D01*
X120134189Y-100004441D01*
X120132884Y-100004006D01*
X120123610Y-100006545D01*
X120114176Y-100008422D01*
X120113202Y-100009395D01*
X120110305Y-100010189D01*
X120034113Y-100048284D01*
X120026507Y-100054186D01*
X120018520Y-100059524D01*
X119942330Y-100135714D01*
X119938720Y-100141116D01*
X119936547Y-100142420D01*
X119933407Y-100149066D01*
X119929323Y-100155179D01*
X119929323Y-100157713D01*
X119926548Y-100163588D01*
X119888452Y-100315969D01*
X119888094Y-100323309D01*
X119886660Y-100330521D01*
X119701899Y-100330521D01*
X119701899Y-100216236D01*
X119701312Y-100213288D01*
X119701748Y-100211982D01*
X119699208Y-100202711D01*
X119697332Y-100193275D01*
X119696357Y-100192300D01*
X119695564Y-100189403D01*
X119657468Y-100113212D01*
X119651575Y-100105618D01*
X119646229Y-100097618D01*
X119608134Y-100059524D01*
X119600142Y-100054184D01*
X119592541Y-100048284D01*
X119516351Y-100010189D01*
X119513452Y-100009395D01*
X119512479Y-100008422D01*
X119503046Y-100006545D01*
X119493771Y-100004006D01*
X119492465Y-100004441D01*
X119489518Y-100003855D01*
X119184756Y-100003855D01*
X119161795Y-100008422D01*
X119129323Y-100040894D01*
X119124756Y-100063855D01*
X118749518Y-100063855D01*
X118749518Y-100047664D01*
X118879994Y-100047664D01*
X118902955Y-100043097D01*
X118935427Y-100010625D01*
X118935427Y-99964703D01*
X123129323Y-99964703D01*
X123129323Y-100010625D01*
X123161795Y-100043097D01*
X123184756Y-100047664D01*
X123315232Y-100047664D01*
X123315232Y-101070521D01*
X123184756Y-101070521D01*
X123161795Y-101075088D01*
X123129323Y-101107560D01*
X123129323Y-101153482D01*
X123161795Y-101185954D01*
X123184756Y-101190521D01*
X123375232Y-101190521D01*
X123398193Y-101185954D01*
X123430665Y-101153482D01*
X123435232Y-101130521D01*
X123435232Y-99987664D01*
X123430665Y-99964703D01*
X123398193Y-99932231D01*
X123375232Y-99927664D01*
X123184756Y-99927664D01*
X123161795Y-99932231D01*
X123129323Y-99964703D01*
X118935427Y-99964703D01*
X118902955Y-99932231D01*
X118879994Y-99927664D01*
X118689518Y-99927664D01*
X118666557Y-99932231D01*
X118634085Y-99964703D01*
X118629518Y-99987664D01*
X118540629Y-99987664D01*
X118540629Y-99838775D01*
X123524121Y-99838775D01*
X123524121Y-101279410D01*
G37*
D10*
X126571160Y-141707216D02*
X127047350Y-141707216D01*
X126475922Y-141992931D02*
X126809255Y-140992931D01*
X126809255Y-140992931D02*
X127142588Y-141992931D01*
X127904493Y-141326264D02*
X127904493Y-142326264D01*
X127904493Y-141945312D02*
X127809255Y-141992931D01*
X127809255Y-141992931D02*
X127618779Y-141992931D01*
X127618779Y-141992931D02*
X127523541Y-141945312D01*
X127523541Y-141945312D02*
X127475922Y-141897692D01*
X127475922Y-141897692D02*
X127428303Y-141802454D01*
X127428303Y-141802454D02*
X127428303Y-141516740D01*
X127428303Y-141516740D02*
X127475922Y-141421502D01*
X127475922Y-141421502D02*
X127523541Y-141373883D01*
X127523541Y-141373883D02*
X127618779Y-141326264D01*
X127618779Y-141326264D02*
X127809255Y-141326264D01*
X127809255Y-141326264D02*
X127904493Y-141373883D01*
X128809255Y-141326264D02*
X128809255Y-141992931D01*
X128380684Y-141326264D02*
X128380684Y-141850073D01*
X128380684Y-141850073D02*
X128428303Y-141945312D01*
X128428303Y-141945312D02*
X128523541Y-141992931D01*
X128523541Y-141992931D02*
X128666398Y-141992931D01*
X128666398Y-141992931D02*
X128761636Y-141945312D01*
X128761636Y-141945312D02*
X128809255Y-141897692D01*
X129714017Y-141992931D02*
X129714017Y-141469121D01*
X129714017Y-141469121D02*
X129666398Y-141373883D01*
X129666398Y-141373883D02*
X129571160Y-141326264D01*
X129571160Y-141326264D02*
X129380684Y-141326264D01*
X129380684Y-141326264D02*
X129285446Y-141373883D01*
X129714017Y-141945312D02*
X129618779Y-141992931D01*
X129618779Y-141992931D02*
X129380684Y-141992931D01*
X129380684Y-141992931D02*
X129285446Y-141945312D01*
X129285446Y-141945312D02*
X129237827Y-141850073D01*
X129237827Y-141850073D02*
X129237827Y-141754835D01*
X129237827Y-141754835D02*
X129285446Y-141659597D01*
X129285446Y-141659597D02*
X129380684Y-141611978D01*
X129380684Y-141611978D02*
X129618779Y-141611978D01*
X129618779Y-141611978D02*
X129714017Y-141564359D01*
X130333065Y-141992931D02*
X130237827Y-141945312D01*
X130237827Y-141945312D02*
X130190208Y-141850073D01*
X130190208Y-141850073D02*
X130190208Y-140992931D01*
X130714018Y-141992931D02*
X130714018Y-141326264D01*
X130714018Y-140992931D02*
X130666399Y-141040550D01*
X130666399Y-141040550D02*
X130714018Y-141088169D01*
X130714018Y-141088169D02*
X130761637Y-141040550D01*
X130761637Y-141040550D02*
X130714018Y-140992931D01*
X130714018Y-140992931D02*
X130714018Y-141088169D01*
X131190208Y-141326264D02*
X131190208Y-141992931D01*
X131190208Y-141421502D02*
X131237827Y-141373883D01*
X131237827Y-141373883D02*
X131333065Y-141326264D01*
X131333065Y-141326264D02*
X131475922Y-141326264D01*
X131475922Y-141326264D02*
X131571160Y-141373883D01*
X131571160Y-141373883D02*
X131618779Y-141469121D01*
X131618779Y-141469121D02*
X131618779Y-141992931D01*
X132094970Y-141992931D02*
X132094970Y-140992931D01*
X132190208Y-141611978D02*
X132475922Y-141992931D01*
X132475922Y-141326264D02*
X132094970Y-141707216D01*
X132904494Y-141992931D02*
X132904494Y-140992931D01*
X132904494Y-140992931D02*
X133142589Y-140992931D01*
X133142589Y-140992931D02*
X133285446Y-141040550D01*
X133285446Y-141040550D02*
X133380684Y-141135788D01*
X133380684Y-141135788D02*
X133428303Y-141231026D01*
X133428303Y-141231026D02*
X133475922Y-141421502D01*
X133475922Y-141421502D02*
X133475922Y-141564359D01*
X133475922Y-141564359D02*
X133428303Y-141754835D01*
X133428303Y-141754835D02*
X133380684Y-141850073D01*
X133380684Y-141850073D02*
X133285446Y-141945312D01*
X133285446Y-141945312D02*
X133142589Y-141992931D01*
X133142589Y-141992931D02*
X132904494Y-141992931D01*
X134666399Y-141992931D02*
X134666399Y-140992931D01*
X135142589Y-141326264D02*
X135142589Y-141992931D01*
X135142589Y-141421502D02*
X135190208Y-141373883D01*
X135190208Y-141373883D02*
X135285446Y-141326264D01*
X135285446Y-141326264D02*
X135428303Y-141326264D01*
X135428303Y-141326264D02*
X135523541Y-141373883D01*
X135523541Y-141373883D02*
X135571160Y-141469121D01*
X135571160Y-141469121D02*
X135571160Y-141992931D01*
X135904494Y-141326264D02*
X136285446Y-141326264D01*
X136047351Y-140992931D02*
X136047351Y-141850073D01*
X136047351Y-141850073D02*
X136094970Y-141945312D01*
X136094970Y-141945312D02*
X136190208Y-141992931D01*
X136190208Y-141992931D02*
X136285446Y-141992931D01*
X136999732Y-141945312D02*
X136904494Y-141992931D01*
X136904494Y-141992931D02*
X136714018Y-141992931D01*
X136714018Y-141992931D02*
X136618780Y-141945312D01*
X136618780Y-141945312D02*
X136571161Y-141850073D01*
X136571161Y-141850073D02*
X136571161Y-141469121D01*
X136571161Y-141469121D02*
X136618780Y-141373883D01*
X136618780Y-141373883D02*
X136714018Y-141326264D01*
X136714018Y-141326264D02*
X136904494Y-141326264D01*
X136904494Y-141326264D02*
X136999732Y-141373883D01*
X136999732Y-141373883D02*
X137047351Y-141469121D01*
X137047351Y-141469121D02*
X137047351Y-141564359D01*
X137047351Y-141564359D02*
X136571161Y-141659597D01*
X137475923Y-141992931D02*
X137475923Y-141326264D01*
X137475923Y-141516740D02*
X137523542Y-141421502D01*
X137523542Y-141421502D02*
X137571161Y-141373883D01*
X137571161Y-141373883D02*
X137666399Y-141326264D01*
X137666399Y-141326264D02*
X137761637Y-141326264D01*
X137952114Y-141326264D02*
X138333066Y-141326264D01*
X138094971Y-141992931D02*
X138094971Y-141135788D01*
X138094971Y-141135788D02*
X138142590Y-141040550D01*
X138142590Y-141040550D02*
X138237828Y-140992931D01*
X138237828Y-140992931D02*
X138333066Y-140992931D01*
X139094971Y-141992931D02*
X139094971Y-141469121D01*
X139094971Y-141469121D02*
X139047352Y-141373883D01*
X139047352Y-141373883D02*
X138952114Y-141326264D01*
X138952114Y-141326264D02*
X138761638Y-141326264D01*
X138761638Y-141326264D02*
X138666400Y-141373883D01*
X139094971Y-141945312D02*
X138999733Y-141992931D01*
X138999733Y-141992931D02*
X138761638Y-141992931D01*
X138761638Y-141992931D02*
X138666400Y-141945312D01*
X138666400Y-141945312D02*
X138618781Y-141850073D01*
X138618781Y-141850073D02*
X138618781Y-141754835D01*
X138618781Y-141754835D02*
X138666400Y-141659597D01*
X138666400Y-141659597D02*
X138761638Y-141611978D01*
X138761638Y-141611978D02*
X138999733Y-141611978D01*
X138999733Y-141611978D02*
X139094971Y-141564359D01*
X139999733Y-141945312D02*
X139904495Y-141992931D01*
X139904495Y-141992931D02*
X139714019Y-141992931D01*
X139714019Y-141992931D02*
X139618781Y-141945312D01*
X139618781Y-141945312D02*
X139571162Y-141897692D01*
X139571162Y-141897692D02*
X139523543Y-141802454D01*
X139523543Y-141802454D02*
X139523543Y-141516740D01*
X139523543Y-141516740D02*
X139571162Y-141421502D01*
X139571162Y-141421502D02*
X139618781Y-141373883D01*
X139618781Y-141373883D02*
X139714019Y-141326264D01*
X139714019Y-141326264D02*
X139904495Y-141326264D01*
X139904495Y-141326264D02*
X139999733Y-141373883D01*
X140809257Y-141945312D02*
X140714019Y-141992931D01*
X140714019Y-141992931D02*
X140523543Y-141992931D01*
X140523543Y-141992931D02*
X140428305Y-141945312D01*
X140428305Y-141945312D02*
X140380686Y-141850073D01*
X140380686Y-141850073D02*
X140380686Y-141469121D01*
X140380686Y-141469121D02*
X140428305Y-141373883D01*
X140428305Y-141373883D02*
X140523543Y-141326264D01*
X140523543Y-141326264D02*
X140714019Y-141326264D01*
X140714019Y-141326264D02*
X140809257Y-141373883D01*
X140809257Y-141373883D02*
X140856876Y-141469121D01*
X140856876Y-141469121D02*
X140856876Y-141564359D01*
X140856876Y-141564359D02*
X140380686Y-141659597D01*
X142047353Y-141992931D02*
X142047353Y-140992931D01*
X142047353Y-140992931D02*
X142428305Y-140992931D01*
X142428305Y-140992931D02*
X142523543Y-141040550D01*
X142523543Y-141040550D02*
X142571162Y-141088169D01*
X142571162Y-141088169D02*
X142618781Y-141183407D01*
X142618781Y-141183407D02*
X142618781Y-141326264D01*
X142618781Y-141326264D02*
X142571162Y-141421502D01*
X142571162Y-141421502D02*
X142523543Y-141469121D01*
X142523543Y-141469121D02*
X142428305Y-141516740D01*
X142428305Y-141516740D02*
X142047353Y-141516740D01*
X143047353Y-141992931D02*
X143047353Y-141326264D01*
X143047353Y-140992931D02*
X142999734Y-141040550D01*
X142999734Y-141040550D02*
X143047353Y-141088169D01*
X143047353Y-141088169D02*
X143094972Y-141040550D01*
X143094972Y-141040550D02*
X143047353Y-140992931D01*
X143047353Y-140992931D02*
X143047353Y-141088169D01*
X143523543Y-141611978D02*
X144285448Y-141611978D01*
X144761638Y-141992931D02*
X144761638Y-140992931D01*
X144761638Y-141469121D02*
X145333066Y-141469121D01*
X145333066Y-141992931D02*
X145333066Y-140992931D01*
X145761638Y-141707216D02*
X146237828Y-141707216D01*
X145666400Y-141992931D02*
X145999733Y-140992931D01*
X145999733Y-140992931D02*
X146333066Y-141992931D01*
X146523543Y-140992931D02*
X147094971Y-140992931D01*
X146809257Y-141992931D02*
X146809257Y-140992931D01*
X148094972Y-141326264D02*
X148333067Y-141992931D01*
X148333067Y-141992931D02*
X148571162Y-141326264D01*
X148904496Y-141088169D02*
X148952115Y-141040550D01*
X148952115Y-141040550D02*
X149047353Y-140992931D01*
X149047353Y-140992931D02*
X149285448Y-140992931D01*
X149285448Y-140992931D02*
X149380686Y-141040550D01*
X149380686Y-141040550D02*
X149428305Y-141088169D01*
X149428305Y-141088169D02*
X149475924Y-141183407D01*
X149475924Y-141183407D02*
X149475924Y-141278645D01*
X149475924Y-141278645D02*
X149428305Y-141421502D01*
X149428305Y-141421502D02*
X148856877Y-141992931D01*
X148856877Y-141992931D02*
X149475924Y-141992931D01*
X149904496Y-141897692D02*
X149952115Y-141945312D01*
X149952115Y-141945312D02*
X149904496Y-141992931D01*
X149904496Y-141992931D02*
X149856877Y-141945312D01*
X149856877Y-141945312D02*
X149904496Y-141897692D01*
X149904496Y-141897692D02*
X149904496Y-141992931D01*
X150571162Y-140992931D02*
X150666400Y-140992931D01*
X150666400Y-140992931D02*
X150761638Y-141040550D01*
X150761638Y-141040550D02*
X150809257Y-141088169D01*
X150809257Y-141088169D02*
X150856876Y-141183407D01*
X150856876Y-141183407D02*
X150904495Y-141373883D01*
X150904495Y-141373883D02*
X150904495Y-141611978D01*
X150904495Y-141611978D02*
X150856876Y-141802454D01*
X150856876Y-141802454D02*
X150809257Y-141897692D01*
X150809257Y-141897692D02*
X150761638Y-141945312D01*
X150761638Y-141945312D02*
X150666400Y-141992931D01*
X150666400Y-141992931D02*
X150571162Y-141992931D01*
X150571162Y-141992931D02*
X150475924Y-141945312D01*
X150475924Y-141945312D02*
X150428305Y-141897692D01*
X150428305Y-141897692D02*
X150380686Y-141802454D01*
X150380686Y-141802454D02*
X150333067Y-141611978D01*
X150333067Y-141611978D02*
X150333067Y-141373883D01*
X150333067Y-141373883D02*
X150380686Y-141183407D01*
X150380686Y-141183407D02*
X150428305Y-141088169D01*
X150428305Y-141088169D02*
X150475924Y-141040550D01*
X150475924Y-141040550D02*
X150571162Y-140992931D01*
X127047350Y-143555256D02*
X126952112Y-143602875D01*
X126952112Y-143602875D02*
X126761636Y-143602875D01*
X126761636Y-143602875D02*
X126666398Y-143555256D01*
X126666398Y-143555256D02*
X126618779Y-143507636D01*
X126618779Y-143507636D02*
X126571160Y-143412398D01*
X126571160Y-143412398D02*
X126571160Y-143126684D01*
X126571160Y-143126684D02*
X126618779Y-143031446D01*
X126618779Y-143031446D02*
X126666398Y-142983827D01*
X126666398Y-142983827D02*
X126761636Y-142936208D01*
X126761636Y-142936208D02*
X126952112Y-142936208D01*
X126952112Y-142936208D02*
X127047350Y-142983827D01*
X127475922Y-143602875D02*
X127475922Y-142602875D01*
X127904493Y-143602875D02*
X127904493Y-143079065D01*
X127904493Y-143079065D02*
X127856874Y-142983827D01*
X127856874Y-142983827D02*
X127761636Y-142936208D01*
X127761636Y-142936208D02*
X127618779Y-142936208D01*
X127618779Y-142936208D02*
X127523541Y-142983827D01*
X127523541Y-142983827D02*
X127475922Y-143031446D01*
X128380684Y-143602875D02*
X128380684Y-142936208D01*
X128380684Y-143126684D02*
X128428303Y-143031446D01*
X128428303Y-143031446D02*
X128475922Y-142983827D01*
X128475922Y-142983827D02*
X128571160Y-142936208D01*
X128571160Y-142936208D02*
X128666398Y-142936208D01*
X128999732Y-143602875D02*
X128999732Y-142936208D01*
X128999732Y-142602875D02*
X128952113Y-142650494D01*
X128952113Y-142650494D02*
X128999732Y-142698113D01*
X128999732Y-142698113D02*
X129047351Y-142650494D01*
X129047351Y-142650494D02*
X128999732Y-142602875D01*
X128999732Y-142602875D02*
X128999732Y-142698113D01*
X129428303Y-143555256D02*
X129523541Y-143602875D01*
X129523541Y-143602875D02*
X129714017Y-143602875D01*
X129714017Y-143602875D02*
X129809255Y-143555256D01*
X129809255Y-143555256D02*
X129856874Y-143460017D01*
X129856874Y-143460017D02*
X129856874Y-143412398D01*
X129856874Y-143412398D02*
X129809255Y-143317160D01*
X129809255Y-143317160D02*
X129714017Y-143269541D01*
X129714017Y-143269541D02*
X129571160Y-143269541D01*
X129571160Y-143269541D02*
X129475922Y-143221922D01*
X129475922Y-143221922D02*
X129428303Y-143126684D01*
X129428303Y-143126684D02*
X129428303Y-143079065D01*
X129428303Y-143079065D02*
X129475922Y-142983827D01*
X129475922Y-142983827D02*
X129571160Y-142936208D01*
X129571160Y-142936208D02*
X129714017Y-142936208D01*
X129714017Y-142936208D02*
X129809255Y-142983827D01*
X130714017Y-143602875D02*
X130714017Y-142602875D01*
X130714017Y-143555256D02*
X130618779Y-143602875D01*
X130618779Y-143602875D02*
X130428303Y-143602875D01*
X130428303Y-143602875D02*
X130333065Y-143555256D01*
X130333065Y-143555256D02*
X130285446Y-143507636D01*
X130285446Y-143507636D02*
X130237827Y-143412398D01*
X130237827Y-143412398D02*
X130237827Y-143126684D01*
X130237827Y-143126684D02*
X130285446Y-143031446D01*
X130285446Y-143031446D02*
X130333065Y-142983827D01*
X130333065Y-142983827D02*
X130428303Y-142936208D01*
X130428303Y-142936208D02*
X130618779Y-142936208D01*
X130618779Y-142936208D02*
X130714017Y-142983827D01*
X131618779Y-143602875D02*
X131618779Y-143079065D01*
X131618779Y-143079065D02*
X131571160Y-142983827D01*
X131571160Y-142983827D02*
X131475922Y-142936208D01*
X131475922Y-142936208D02*
X131285446Y-142936208D01*
X131285446Y-142936208D02*
X131190208Y-142983827D01*
X131618779Y-143555256D02*
X131523541Y-143602875D01*
X131523541Y-143602875D02*
X131285446Y-143602875D01*
X131285446Y-143602875D02*
X131190208Y-143555256D01*
X131190208Y-143555256D02*
X131142589Y-143460017D01*
X131142589Y-143460017D02*
X131142589Y-143364779D01*
X131142589Y-143364779D02*
X131190208Y-143269541D01*
X131190208Y-143269541D02*
X131285446Y-143221922D01*
X131285446Y-143221922D02*
X131523541Y-143221922D01*
X131523541Y-143221922D02*
X131618779Y-143174303D01*
X132523541Y-142936208D02*
X132523541Y-143602875D01*
X132094970Y-142936208D02*
X132094970Y-143460017D01*
X132094970Y-143460017D02*
X132142589Y-143555256D01*
X132142589Y-143555256D02*
X132237827Y-143602875D01*
X132237827Y-143602875D02*
X132380684Y-143602875D01*
X132380684Y-143602875D02*
X132475922Y-143555256D01*
X132475922Y-143555256D02*
X132523541Y-143507636D01*
X132999732Y-142936208D02*
X132999732Y-143602875D01*
X132999732Y-143031446D02*
X133047351Y-142983827D01*
X133047351Y-142983827D02*
X133142589Y-142936208D01*
X133142589Y-142936208D02*
X133285446Y-142936208D01*
X133285446Y-142936208D02*
X133380684Y-142983827D01*
X133380684Y-142983827D02*
X133428303Y-143079065D01*
X133428303Y-143079065D02*
X133428303Y-143602875D01*
X134523541Y-143126684D02*
X134475922Y-143079065D01*
X134475922Y-143079065D02*
X134380684Y-143031446D01*
X134380684Y-143031446D02*
X134285446Y-143031446D01*
X134285446Y-143031446D02*
X134190208Y-143079065D01*
X134190208Y-143079065D02*
X134142589Y-143126684D01*
X134142589Y-143126684D02*
X134094970Y-143221922D01*
X134094970Y-143221922D02*
X134094970Y-143317160D01*
X134094970Y-143317160D02*
X134142589Y-143412398D01*
X134142589Y-143412398D02*
X134190208Y-143460017D01*
X134190208Y-143460017D02*
X134285446Y-143507636D01*
X134285446Y-143507636D02*
X134380684Y-143507636D01*
X134380684Y-143507636D02*
X134475922Y-143460017D01*
X134475922Y-143460017D02*
X134523541Y-143412398D01*
X134523541Y-143031446D02*
X134523541Y-143412398D01*
X134523541Y-143412398D02*
X134571160Y-143460017D01*
X134571160Y-143460017D02*
X134618779Y-143460017D01*
X134618779Y-143460017D02*
X134714018Y-143412398D01*
X134714018Y-143412398D02*
X134761637Y-143317160D01*
X134761637Y-143317160D02*
X134761637Y-143079065D01*
X134761637Y-143079065D02*
X134666399Y-142936208D01*
X134666399Y-142936208D02*
X134523541Y-142840970D01*
X134523541Y-142840970D02*
X134333065Y-142793351D01*
X134333065Y-142793351D02*
X134142589Y-142840970D01*
X134142589Y-142840970D02*
X133999732Y-142936208D01*
X133999732Y-142936208D02*
X133904494Y-143079065D01*
X133904494Y-143079065D02*
X133856875Y-143269541D01*
X133856875Y-143269541D02*
X133904494Y-143460017D01*
X133904494Y-143460017D02*
X133999732Y-143602875D01*
X133999732Y-143602875D02*
X134142589Y-143698113D01*
X134142589Y-143698113D02*
X134333065Y-143745732D01*
X134333065Y-143745732D02*
X134523541Y-143698113D01*
X134523541Y-143698113D02*
X134666399Y-143602875D01*
X135618779Y-142936208D02*
X135618779Y-143745732D01*
X135618779Y-143745732D02*
X135571160Y-143840970D01*
X135571160Y-143840970D02*
X135523541Y-143888589D01*
X135523541Y-143888589D02*
X135428303Y-143936208D01*
X135428303Y-143936208D02*
X135285446Y-143936208D01*
X135285446Y-143936208D02*
X135190208Y-143888589D01*
X135618779Y-143555256D02*
X135523541Y-143602875D01*
X135523541Y-143602875D02*
X135333065Y-143602875D01*
X135333065Y-143602875D02*
X135237827Y-143555256D01*
X135237827Y-143555256D02*
X135190208Y-143507636D01*
X135190208Y-143507636D02*
X135142589Y-143412398D01*
X135142589Y-143412398D02*
X135142589Y-143126684D01*
X135142589Y-143126684D02*
X135190208Y-143031446D01*
X135190208Y-143031446D02*
X135237827Y-142983827D01*
X135237827Y-142983827D02*
X135333065Y-142936208D01*
X135333065Y-142936208D02*
X135523541Y-142936208D01*
X135523541Y-142936208D02*
X135618779Y-142983827D01*
X136094970Y-143602875D02*
X136094970Y-142936208D01*
X136094970Y-143031446D02*
X136142589Y-142983827D01*
X136142589Y-142983827D02*
X136237827Y-142936208D01*
X136237827Y-142936208D02*
X136380684Y-142936208D01*
X136380684Y-142936208D02*
X136475922Y-142983827D01*
X136475922Y-142983827D02*
X136523541Y-143079065D01*
X136523541Y-143079065D02*
X136523541Y-143602875D01*
X136523541Y-143079065D02*
X136571160Y-142983827D01*
X136571160Y-142983827D02*
X136666398Y-142936208D01*
X136666398Y-142936208D02*
X136809255Y-142936208D01*
X136809255Y-142936208D02*
X136904494Y-142983827D01*
X136904494Y-142983827D02*
X136952113Y-143079065D01*
X136952113Y-143079065D02*
X136952113Y-143602875D01*
X137856874Y-143602875D02*
X137856874Y-143079065D01*
X137856874Y-143079065D02*
X137809255Y-142983827D01*
X137809255Y-142983827D02*
X137714017Y-142936208D01*
X137714017Y-142936208D02*
X137523541Y-142936208D01*
X137523541Y-142936208D02*
X137428303Y-142983827D01*
X137856874Y-143555256D02*
X137761636Y-143602875D01*
X137761636Y-143602875D02*
X137523541Y-143602875D01*
X137523541Y-143602875D02*
X137428303Y-143555256D01*
X137428303Y-143555256D02*
X137380684Y-143460017D01*
X137380684Y-143460017D02*
X137380684Y-143364779D01*
X137380684Y-143364779D02*
X137428303Y-143269541D01*
X137428303Y-143269541D02*
X137523541Y-143221922D01*
X137523541Y-143221922D02*
X137761636Y-143221922D01*
X137761636Y-143221922D02*
X137856874Y-143174303D01*
X138333065Y-143602875D02*
X138333065Y-142936208D01*
X138333065Y-142602875D02*
X138285446Y-142650494D01*
X138285446Y-142650494D02*
X138333065Y-142698113D01*
X138333065Y-142698113D02*
X138380684Y-142650494D01*
X138380684Y-142650494D02*
X138333065Y-142602875D01*
X138333065Y-142602875D02*
X138333065Y-142698113D01*
X138952112Y-143602875D02*
X138856874Y-143555256D01*
X138856874Y-143555256D02*
X138809255Y-143460017D01*
X138809255Y-143460017D02*
X138809255Y-142602875D01*
X139333065Y-143507636D02*
X139380684Y-143555256D01*
X139380684Y-143555256D02*
X139333065Y-143602875D01*
X139333065Y-143602875D02*
X139285446Y-143555256D01*
X139285446Y-143555256D02*
X139333065Y-143507636D01*
X139333065Y-143507636D02*
X139333065Y-143602875D01*
X140237826Y-143555256D02*
X140142588Y-143602875D01*
X140142588Y-143602875D02*
X139952112Y-143602875D01*
X139952112Y-143602875D02*
X139856874Y-143555256D01*
X139856874Y-143555256D02*
X139809255Y-143507636D01*
X139809255Y-143507636D02*
X139761636Y-143412398D01*
X139761636Y-143412398D02*
X139761636Y-143126684D01*
X139761636Y-143126684D02*
X139809255Y-143031446D01*
X139809255Y-143031446D02*
X139856874Y-142983827D01*
X139856874Y-142983827D02*
X139952112Y-142936208D01*
X139952112Y-142936208D02*
X140142588Y-142936208D01*
X140142588Y-142936208D02*
X140237826Y-142983827D01*
X140809255Y-143602875D02*
X140714017Y-143555256D01*
X140714017Y-143555256D02*
X140666398Y-143507636D01*
X140666398Y-143507636D02*
X140618779Y-143412398D01*
X140618779Y-143412398D02*
X140618779Y-143126684D01*
X140618779Y-143126684D02*
X140666398Y-143031446D01*
X140666398Y-143031446D02*
X140714017Y-142983827D01*
X140714017Y-142983827D02*
X140809255Y-142936208D01*
X140809255Y-142936208D02*
X140952112Y-142936208D01*
X140952112Y-142936208D02*
X141047350Y-142983827D01*
X141047350Y-142983827D02*
X141094969Y-143031446D01*
X141094969Y-143031446D02*
X141142588Y-143126684D01*
X141142588Y-143126684D02*
X141142588Y-143412398D01*
X141142588Y-143412398D02*
X141094969Y-143507636D01*
X141094969Y-143507636D02*
X141047350Y-143555256D01*
X141047350Y-143555256D02*
X140952112Y-143602875D01*
X140952112Y-143602875D02*
X140809255Y-143602875D01*
X141571160Y-143602875D02*
X141571160Y-142936208D01*
X141571160Y-143031446D02*
X141618779Y-142983827D01*
X141618779Y-142983827D02*
X141714017Y-142936208D01*
X141714017Y-142936208D02*
X141856874Y-142936208D01*
X141856874Y-142936208D02*
X141952112Y-142983827D01*
X141952112Y-142983827D02*
X141999731Y-143079065D01*
X141999731Y-143079065D02*
X141999731Y-143602875D01*
X141999731Y-143079065D02*
X142047350Y-142983827D01*
X142047350Y-142983827D02*
X142142588Y-142936208D01*
X142142588Y-142936208D02*
X142285445Y-142936208D01*
X142285445Y-142936208D02*
X142380684Y-142983827D01*
X142380684Y-142983827D02*
X142428303Y-143079065D01*
X142428303Y-143079065D02*
X142428303Y-143602875D01*
X126618779Y-145212819D02*
X126618779Y-144212819D01*
X127047350Y-145212819D02*
X127047350Y-144689009D01*
X127047350Y-144689009D02*
X126999731Y-144593771D01*
X126999731Y-144593771D02*
X126904493Y-144546152D01*
X126904493Y-144546152D02*
X126761636Y-144546152D01*
X126761636Y-144546152D02*
X126666398Y-144593771D01*
X126666398Y-144593771D02*
X126618779Y-144641390D01*
X127380684Y-144546152D02*
X127761636Y-144546152D01*
X127523541Y-144212819D02*
X127523541Y-145069961D01*
X127523541Y-145069961D02*
X127571160Y-145165200D01*
X127571160Y-145165200D02*
X127666398Y-145212819D01*
X127666398Y-145212819D02*
X127761636Y-145212819D01*
X127952113Y-144546152D02*
X128333065Y-144546152D01*
X128094970Y-144212819D02*
X128094970Y-145069961D01*
X128094970Y-145069961D02*
X128142589Y-145165200D01*
X128142589Y-145165200D02*
X128237827Y-145212819D01*
X128237827Y-145212819D02*
X128333065Y-145212819D01*
X128666399Y-144546152D02*
X128666399Y-145546152D01*
X128666399Y-144593771D02*
X128761637Y-144546152D01*
X128761637Y-144546152D02*
X128952113Y-144546152D01*
X128952113Y-144546152D02*
X129047351Y-144593771D01*
X129047351Y-144593771D02*
X129094970Y-144641390D01*
X129094970Y-144641390D02*
X129142589Y-144736628D01*
X129142589Y-144736628D02*
X129142589Y-145022342D01*
X129142589Y-145022342D02*
X129094970Y-145117580D01*
X129094970Y-145117580D02*
X129047351Y-145165200D01*
X129047351Y-145165200D02*
X128952113Y-145212819D01*
X128952113Y-145212819D02*
X128761637Y-145212819D01*
X128761637Y-145212819D02*
X128666399Y-145165200D01*
X129523542Y-145165200D02*
X129618780Y-145212819D01*
X129618780Y-145212819D02*
X129809256Y-145212819D01*
X129809256Y-145212819D02*
X129904494Y-145165200D01*
X129904494Y-145165200D02*
X129952113Y-145069961D01*
X129952113Y-145069961D02*
X129952113Y-145022342D01*
X129952113Y-145022342D02*
X129904494Y-144927104D01*
X129904494Y-144927104D02*
X129809256Y-144879485D01*
X129809256Y-144879485D02*
X129666399Y-144879485D01*
X129666399Y-144879485D02*
X129571161Y-144831866D01*
X129571161Y-144831866D02*
X129523542Y-144736628D01*
X129523542Y-144736628D02*
X129523542Y-144689009D01*
X129523542Y-144689009D02*
X129571161Y-144593771D01*
X129571161Y-144593771D02*
X129666399Y-144546152D01*
X129666399Y-144546152D02*
X129809256Y-144546152D01*
X129809256Y-144546152D02*
X129904494Y-144593771D01*
X130380685Y-145117580D02*
X130428304Y-145165200D01*
X130428304Y-145165200D02*
X130380685Y-145212819D01*
X130380685Y-145212819D02*
X130333066Y-145165200D01*
X130333066Y-145165200D02*
X130380685Y-145117580D01*
X130380685Y-145117580D02*
X130380685Y-145212819D01*
X130380685Y-144593771D02*
X130428304Y-144641390D01*
X130428304Y-144641390D02*
X130380685Y-144689009D01*
X130380685Y-144689009D02*
X130333066Y-144641390D01*
X130333066Y-144641390D02*
X130380685Y-144593771D01*
X130380685Y-144593771D02*
X130380685Y-144689009D01*
X131571160Y-144165200D02*
X130714018Y-145450914D01*
X132618779Y-144165200D02*
X131761637Y-145450914D01*
X133380684Y-144546152D02*
X133380684Y-145355676D01*
X133380684Y-145355676D02*
X133333065Y-145450914D01*
X133333065Y-145450914D02*
X133285446Y-145498533D01*
X133285446Y-145498533D02*
X133190208Y-145546152D01*
X133190208Y-145546152D02*
X133047351Y-145546152D01*
X133047351Y-145546152D02*
X132952113Y-145498533D01*
X133380684Y-145165200D02*
X133285446Y-145212819D01*
X133285446Y-145212819D02*
X133094970Y-145212819D01*
X133094970Y-145212819D02*
X132999732Y-145165200D01*
X132999732Y-145165200D02*
X132952113Y-145117580D01*
X132952113Y-145117580D02*
X132904494Y-145022342D01*
X132904494Y-145022342D02*
X132904494Y-144736628D01*
X132904494Y-144736628D02*
X132952113Y-144641390D01*
X132952113Y-144641390D02*
X132999732Y-144593771D01*
X132999732Y-144593771D02*
X133094970Y-144546152D01*
X133094970Y-144546152D02*
X133285446Y-144546152D01*
X133285446Y-144546152D02*
X133380684Y-144593771D01*
X133856875Y-145212819D02*
X133856875Y-144546152D01*
X133856875Y-144212819D02*
X133809256Y-144260438D01*
X133809256Y-144260438D02*
X133856875Y-144308057D01*
X133856875Y-144308057D02*
X133904494Y-144260438D01*
X133904494Y-144260438D02*
X133856875Y-144212819D01*
X133856875Y-144212819D02*
X133856875Y-144308057D01*
X134190208Y-144546152D02*
X134571160Y-144546152D01*
X134333065Y-144212819D02*
X134333065Y-145069961D01*
X134333065Y-145069961D02*
X134380684Y-145165200D01*
X134380684Y-145165200D02*
X134475922Y-145212819D01*
X134475922Y-145212819D02*
X134571160Y-145212819D01*
X134904494Y-145212819D02*
X134904494Y-144212819D01*
X135333065Y-145212819D02*
X135333065Y-144689009D01*
X135333065Y-144689009D02*
X135285446Y-144593771D01*
X135285446Y-144593771D02*
X135190208Y-144546152D01*
X135190208Y-144546152D02*
X135047351Y-144546152D01*
X135047351Y-144546152D02*
X134952113Y-144593771D01*
X134952113Y-144593771D02*
X134904494Y-144641390D01*
X136237827Y-144546152D02*
X136237827Y-145212819D01*
X135809256Y-144546152D02*
X135809256Y-145069961D01*
X135809256Y-145069961D02*
X135856875Y-145165200D01*
X135856875Y-145165200D02*
X135952113Y-145212819D01*
X135952113Y-145212819D02*
X136094970Y-145212819D01*
X136094970Y-145212819D02*
X136190208Y-145165200D01*
X136190208Y-145165200D02*
X136237827Y-145117580D01*
X136714018Y-145212819D02*
X136714018Y-144212819D01*
X136714018Y-144593771D02*
X136809256Y-144546152D01*
X136809256Y-144546152D02*
X136999732Y-144546152D01*
X136999732Y-144546152D02*
X137094970Y-144593771D01*
X137094970Y-144593771D02*
X137142589Y-144641390D01*
X137142589Y-144641390D02*
X137190208Y-144736628D01*
X137190208Y-144736628D02*
X137190208Y-145022342D01*
X137190208Y-145022342D02*
X137142589Y-145117580D01*
X137142589Y-145117580D02*
X137094970Y-145165200D01*
X137094970Y-145165200D02*
X136999732Y-145212819D01*
X136999732Y-145212819D02*
X136809256Y-145212819D01*
X136809256Y-145212819D02*
X136714018Y-145165200D01*
X137618780Y-145117580D02*
X137666399Y-145165200D01*
X137666399Y-145165200D02*
X137618780Y-145212819D01*
X137618780Y-145212819D02*
X137571161Y-145165200D01*
X137571161Y-145165200D02*
X137618780Y-145117580D01*
X137618780Y-145117580D02*
X137618780Y-145212819D01*
X138523541Y-145165200D02*
X138428303Y-145212819D01*
X138428303Y-145212819D02*
X138237827Y-145212819D01*
X138237827Y-145212819D02*
X138142589Y-145165200D01*
X138142589Y-145165200D02*
X138094970Y-145117580D01*
X138094970Y-145117580D02*
X138047351Y-145022342D01*
X138047351Y-145022342D02*
X138047351Y-144736628D01*
X138047351Y-144736628D02*
X138094970Y-144641390D01*
X138094970Y-144641390D02*
X138142589Y-144593771D01*
X138142589Y-144593771D02*
X138237827Y-144546152D01*
X138237827Y-144546152D02*
X138428303Y-144546152D01*
X138428303Y-144546152D02*
X138523541Y-144593771D01*
X139094970Y-145212819D02*
X138999732Y-145165200D01*
X138999732Y-145165200D02*
X138952113Y-145117580D01*
X138952113Y-145117580D02*
X138904494Y-145022342D01*
X138904494Y-145022342D02*
X138904494Y-144736628D01*
X138904494Y-144736628D02*
X138952113Y-144641390D01*
X138952113Y-144641390D02*
X138999732Y-144593771D01*
X138999732Y-144593771D02*
X139094970Y-144546152D01*
X139094970Y-144546152D02*
X139237827Y-144546152D01*
X139237827Y-144546152D02*
X139333065Y-144593771D01*
X139333065Y-144593771D02*
X139380684Y-144641390D01*
X139380684Y-144641390D02*
X139428303Y-144736628D01*
X139428303Y-144736628D02*
X139428303Y-145022342D01*
X139428303Y-145022342D02*
X139380684Y-145117580D01*
X139380684Y-145117580D02*
X139333065Y-145165200D01*
X139333065Y-145165200D02*
X139237827Y-145212819D01*
X139237827Y-145212819D02*
X139094970Y-145212819D01*
X139856875Y-145212819D02*
X139856875Y-144546152D01*
X139856875Y-144641390D02*
X139904494Y-144593771D01*
X139904494Y-144593771D02*
X139999732Y-144546152D01*
X139999732Y-144546152D02*
X140142589Y-144546152D01*
X140142589Y-144546152D02*
X140237827Y-144593771D01*
X140237827Y-144593771D02*
X140285446Y-144689009D01*
X140285446Y-144689009D02*
X140285446Y-145212819D01*
X140285446Y-144689009D02*
X140333065Y-144593771D01*
X140333065Y-144593771D02*
X140428303Y-144546152D01*
X140428303Y-144546152D02*
X140571160Y-144546152D01*
X140571160Y-144546152D02*
X140666399Y-144593771D01*
X140666399Y-144593771D02*
X140714018Y-144689009D01*
X140714018Y-144689009D02*
X140714018Y-145212819D01*
X141904493Y-144165200D02*
X141047351Y-145450914D01*
X142666398Y-145165200D02*
X142571160Y-145212819D01*
X142571160Y-145212819D02*
X142380684Y-145212819D01*
X142380684Y-145212819D02*
X142285446Y-145165200D01*
X142285446Y-145165200D02*
X142237827Y-145117580D01*
X142237827Y-145117580D02*
X142190208Y-145022342D01*
X142190208Y-145022342D02*
X142190208Y-144736628D01*
X142190208Y-144736628D02*
X142237827Y-144641390D01*
X142237827Y-144641390D02*
X142285446Y-144593771D01*
X142285446Y-144593771D02*
X142380684Y-144546152D01*
X142380684Y-144546152D02*
X142571160Y-144546152D01*
X142571160Y-144546152D02*
X142666398Y-144593771D01*
X143094970Y-145212819D02*
X143094970Y-144212819D01*
X143523541Y-145212819D02*
X143523541Y-144689009D01*
X143523541Y-144689009D02*
X143475922Y-144593771D01*
X143475922Y-144593771D02*
X143380684Y-144546152D01*
X143380684Y-144546152D02*
X143237827Y-144546152D01*
X143237827Y-144546152D02*
X143142589Y-144593771D01*
X143142589Y-144593771D02*
X143094970Y-144641390D01*
X143999732Y-145212819D02*
X143999732Y-144546152D01*
X143999732Y-144736628D02*
X144047351Y-144641390D01*
X144047351Y-144641390D02*
X144094970Y-144593771D01*
X144094970Y-144593771D02*
X144190208Y-144546152D01*
X144190208Y-144546152D02*
X144285446Y-144546152D01*
X144618780Y-145212819D02*
X144618780Y-144546152D01*
X144618780Y-144212819D02*
X144571161Y-144260438D01*
X144571161Y-144260438D02*
X144618780Y-144308057D01*
X144618780Y-144308057D02*
X144666399Y-144260438D01*
X144666399Y-144260438D02*
X144618780Y-144212819D01*
X144618780Y-144212819D02*
X144618780Y-144308057D01*
X145047351Y-145165200D02*
X145142589Y-145212819D01*
X145142589Y-145212819D02*
X145333065Y-145212819D01*
X145333065Y-145212819D02*
X145428303Y-145165200D01*
X145428303Y-145165200D02*
X145475922Y-145069961D01*
X145475922Y-145069961D02*
X145475922Y-145022342D01*
X145475922Y-145022342D02*
X145428303Y-144927104D01*
X145428303Y-144927104D02*
X145333065Y-144879485D01*
X145333065Y-144879485D02*
X145190208Y-144879485D01*
X145190208Y-144879485D02*
X145094970Y-144831866D01*
X145094970Y-144831866D02*
X145047351Y-144736628D01*
X145047351Y-144736628D02*
X145047351Y-144689009D01*
X145047351Y-144689009D02*
X145094970Y-144593771D01*
X145094970Y-144593771D02*
X145190208Y-144546152D01*
X145190208Y-144546152D02*
X145333065Y-144546152D01*
X145333065Y-144546152D02*
X145428303Y-144593771D01*
X146333065Y-145212819D02*
X146333065Y-144212819D01*
X146333065Y-145165200D02*
X146237827Y-145212819D01*
X146237827Y-145212819D02*
X146047351Y-145212819D01*
X146047351Y-145212819D02*
X145952113Y-145165200D01*
X145952113Y-145165200D02*
X145904494Y-145117580D01*
X145904494Y-145117580D02*
X145856875Y-145022342D01*
X145856875Y-145022342D02*
X145856875Y-144736628D01*
X145856875Y-144736628D02*
X145904494Y-144641390D01*
X145904494Y-144641390D02*
X145952113Y-144593771D01*
X145952113Y-144593771D02*
X146047351Y-144546152D01*
X146047351Y-144546152D02*
X146237827Y-144546152D01*
X146237827Y-144546152D02*
X146333065Y-144593771D01*
X147237827Y-145212819D02*
X147237827Y-144689009D01*
X147237827Y-144689009D02*
X147190208Y-144593771D01*
X147190208Y-144593771D02*
X147094970Y-144546152D01*
X147094970Y-144546152D02*
X146904494Y-144546152D01*
X146904494Y-144546152D02*
X146809256Y-144593771D01*
X147237827Y-145165200D02*
X147142589Y-145212819D01*
X147142589Y-145212819D02*
X146904494Y-145212819D01*
X146904494Y-145212819D02*
X146809256Y-145165200D01*
X146809256Y-145165200D02*
X146761637Y-145069961D01*
X146761637Y-145069961D02*
X146761637Y-144974723D01*
X146761637Y-144974723D02*
X146809256Y-144879485D01*
X146809256Y-144879485D02*
X146904494Y-144831866D01*
X146904494Y-144831866D02*
X147142589Y-144831866D01*
X147142589Y-144831866D02*
X147237827Y-144784247D01*
X148142589Y-144546152D02*
X148142589Y-145212819D01*
X147714018Y-144546152D02*
X147714018Y-145069961D01*
X147714018Y-145069961D02*
X147761637Y-145165200D01*
X147761637Y-145165200D02*
X147856875Y-145212819D01*
X147856875Y-145212819D02*
X147999732Y-145212819D01*
X147999732Y-145212819D02*
X148094970Y-145165200D01*
X148094970Y-145165200D02*
X148142589Y-145117580D01*
X148618780Y-144546152D02*
X148618780Y-145212819D01*
X148618780Y-144641390D02*
X148666399Y-144593771D01*
X148666399Y-144593771D02*
X148761637Y-144546152D01*
X148761637Y-144546152D02*
X148904494Y-144546152D01*
X148904494Y-144546152D02*
X148999732Y-144593771D01*
X148999732Y-144593771D02*
X149047351Y-144689009D01*
X149047351Y-144689009D02*
X149047351Y-145212819D01*
X150237827Y-144165200D02*
X149380685Y-145450914D01*
X150571161Y-144546152D02*
X150571161Y-145546152D01*
X150571161Y-144593771D02*
X150666399Y-144546152D01*
X150666399Y-144546152D02*
X150856875Y-144546152D01*
X150856875Y-144546152D02*
X150952113Y-144593771D01*
X150952113Y-144593771D02*
X150999732Y-144641390D01*
X150999732Y-144641390D02*
X151047351Y-144736628D01*
X151047351Y-144736628D02*
X151047351Y-145022342D01*
X151047351Y-145022342D02*
X150999732Y-145117580D01*
X150999732Y-145117580D02*
X150952113Y-145165200D01*
X150952113Y-145165200D02*
X150856875Y-145212819D01*
X150856875Y-145212819D02*
X150666399Y-145212819D01*
X150666399Y-145212819D02*
X150571161Y-145165200D01*
X151475923Y-145212819D02*
X151475923Y-144546152D01*
X151475923Y-144212819D02*
X151428304Y-144260438D01*
X151428304Y-144260438D02*
X151475923Y-144308057D01*
X151475923Y-144308057D02*
X151523542Y-144260438D01*
X151523542Y-144260438D02*
X151475923Y-144212819D01*
X151475923Y-144212819D02*
X151475923Y-144308057D01*
X151952113Y-144831866D02*
X152714018Y-144831866D01*
X153094970Y-144546152D02*
X153618779Y-144546152D01*
X153618779Y-144546152D02*
X153094970Y-145212819D01*
X153094970Y-145212819D02*
X153618779Y-145212819D01*
X154380684Y-145165200D02*
X154285446Y-145212819D01*
X154285446Y-145212819D02*
X154094970Y-145212819D01*
X154094970Y-145212819D02*
X153999732Y-145165200D01*
X153999732Y-145165200D02*
X153952113Y-145069961D01*
X153952113Y-145069961D02*
X153952113Y-144689009D01*
X153952113Y-144689009D02*
X153999732Y-144593771D01*
X153999732Y-144593771D02*
X154094970Y-144546152D01*
X154094970Y-144546152D02*
X154285446Y-144546152D01*
X154285446Y-144546152D02*
X154380684Y-144593771D01*
X154380684Y-144593771D02*
X154428303Y-144689009D01*
X154428303Y-144689009D02*
X154428303Y-144784247D01*
X154428303Y-144784247D02*
X153952113Y-144879485D01*
X154856875Y-145212819D02*
X154856875Y-144546152D01*
X154856875Y-144736628D02*
X154904494Y-144641390D01*
X154904494Y-144641390D02*
X154952113Y-144593771D01*
X154952113Y-144593771D02*
X155047351Y-144546152D01*
X155047351Y-144546152D02*
X155142589Y-144546152D01*
X155618780Y-145212819D02*
X155523542Y-145165200D01*
X155523542Y-145165200D02*
X155475923Y-145117580D01*
X155475923Y-145117580D02*
X155428304Y-145022342D01*
X155428304Y-145022342D02*
X155428304Y-144736628D01*
X155428304Y-144736628D02*
X155475923Y-144641390D01*
X155475923Y-144641390D02*
X155523542Y-144593771D01*
X155523542Y-144593771D02*
X155618780Y-144546152D01*
X155618780Y-144546152D02*
X155761637Y-144546152D01*
X155761637Y-144546152D02*
X155856875Y-144593771D01*
X155856875Y-144593771D02*
X155904494Y-144641390D01*
X155904494Y-144641390D02*
X155952113Y-144736628D01*
X155952113Y-144736628D02*
X155952113Y-145022342D01*
X155952113Y-145022342D02*
X155904494Y-145117580D01*
X155904494Y-145117580D02*
X155856875Y-145165200D01*
X155856875Y-145165200D02*
X155761637Y-145212819D01*
X155761637Y-145212819D02*
X155618780Y-145212819D01*
X156380685Y-144831866D02*
X157142590Y-144831866D01*
X157571161Y-145165200D02*
X157666399Y-145212819D01*
X157666399Y-145212819D02*
X157856875Y-145212819D01*
X157856875Y-145212819D02*
X157952113Y-145165200D01*
X157952113Y-145165200D02*
X157999732Y-145069961D01*
X157999732Y-145069961D02*
X157999732Y-145022342D01*
X157999732Y-145022342D02*
X157952113Y-144927104D01*
X157952113Y-144927104D02*
X157856875Y-144879485D01*
X157856875Y-144879485D02*
X157714018Y-144879485D01*
X157714018Y-144879485D02*
X157618780Y-144831866D01*
X157618780Y-144831866D02*
X157571161Y-144736628D01*
X157571161Y-144736628D02*
X157571161Y-144689009D01*
X157571161Y-144689009D02*
X157618780Y-144593771D01*
X157618780Y-144593771D02*
X157714018Y-144546152D01*
X157714018Y-144546152D02*
X157856875Y-144546152D01*
X157856875Y-144546152D02*
X157952113Y-144593771D01*
X158809256Y-145165200D02*
X158714018Y-145212819D01*
X158714018Y-145212819D02*
X158523542Y-145212819D01*
X158523542Y-145212819D02*
X158428304Y-145165200D01*
X158428304Y-145165200D02*
X158380685Y-145069961D01*
X158380685Y-145069961D02*
X158380685Y-144689009D01*
X158380685Y-144689009D02*
X158428304Y-144593771D01*
X158428304Y-144593771D02*
X158523542Y-144546152D01*
X158523542Y-144546152D02*
X158714018Y-144546152D01*
X158714018Y-144546152D02*
X158809256Y-144593771D01*
X158809256Y-144593771D02*
X158856875Y-144689009D01*
X158856875Y-144689009D02*
X158856875Y-144784247D01*
X158856875Y-144784247D02*
X158380685Y-144879485D01*
X159285447Y-145212819D02*
X159285447Y-144546152D01*
X159285447Y-144736628D02*
X159333066Y-144641390D01*
X159333066Y-144641390D02*
X159380685Y-144593771D01*
X159380685Y-144593771D02*
X159475923Y-144546152D01*
X159475923Y-144546152D02*
X159571161Y-144546152D01*
X159904495Y-145212819D02*
X159904495Y-144546152D01*
X159904495Y-144212819D02*
X159856876Y-144260438D01*
X159856876Y-144260438D02*
X159904495Y-144308057D01*
X159904495Y-144308057D02*
X159952114Y-144260438D01*
X159952114Y-144260438D02*
X159904495Y-144212819D01*
X159904495Y-144212819D02*
X159904495Y-144308057D01*
X160809256Y-145212819D02*
X160809256Y-144689009D01*
X160809256Y-144689009D02*
X160761637Y-144593771D01*
X160761637Y-144593771D02*
X160666399Y-144546152D01*
X160666399Y-144546152D02*
X160475923Y-144546152D01*
X160475923Y-144546152D02*
X160380685Y-144593771D01*
X160809256Y-145165200D02*
X160714018Y-145212819D01*
X160714018Y-145212819D02*
X160475923Y-145212819D01*
X160475923Y-145212819D02*
X160380685Y-145165200D01*
X160380685Y-145165200D02*
X160333066Y-145069961D01*
X160333066Y-145069961D02*
X160333066Y-144974723D01*
X160333066Y-144974723D02*
X160380685Y-144879485D01*
X160380685Y-144879485D02*
X160475923Y-144831866D01*
X160475923Y-144831866D02*
X160714018Y-144831866D01*
X160714018Y-144831866D02*
X160809256Y-144784247D01*
X161428304Y-145212819D02*
X161333066Y-145165200D01*
X161333066Y-145165200D02*
X161285447Y-145069961D01*
X161285447Y-145069961D02*
X161285447Y-144212819D01*
X161809257Y-144831866D02*
X162571162Y-144831866D01*
X163047352Y-145212819D02*
X163047352Y-144212819D01*
X163475923Y-145212819D02*
X163475923Y-144689009D01*
X163475923Y-144689009D02*
X163428304Y-144593771D01*
X163428304Y-144593771D02*
X163333066Y-144546152D01*
X163333066Y-144546152D02*
X163190209Y-144546152D01*
X163190209Y-144546152D02*
X163094971Y-144593771D01*
X163094971Y-144593771D02*
X163047352Y-144641390D01*
X164380685Y-145212819D02*
X164380685Y-144689009D01*
X164380685Y-144689009D02*
X164333066Y-144593771D01*
X164333066Y-144593771D02*
X164237828Y-144546152D01*
X164237828Y-144546152D02*
X164047352Y-144546152D01*
X164047352Y-144546152D02*
X163952114Y-144593771D01*
X164380685Y-145165200D02*
X164285447Y-145212819D01*
X164285447Y-145212819D02*
X164047352Y-145212819D01*
X164047352Y-145212819D02*
X163952114Y-145165200D01*
X163952114Y-145165200D02*
X163904495Y-145069961D01*
X163904495Y-145069961D02*
X163904495Y-144974723D01*
X163904495Y-144974723D02*
X163952114Y-144879485D01*
X163952114Y-144879485D02*
X164047352Y-144831866D01*
X164047352Y-144831866D02*
X164285447Y-144831866D01*
X164285447Y-144831866D02*
X164380685Y-144784247D01*
X164714019Y-144546152D02*
X165094971Y-144546152D01*
X164856876Y-144212819D02*
X164856876Y-145069961D01*
X164856876Y-145069961D02*
X164904495Y-145165200D01*
X164904495Y-145165200D02*
X164999733Y-145212819D01*
X164999733Y-145212819D02*
X165094971Y-145212819D01*
X166142590Y-144165200D02*
X165285448Y-145450914D01*
X166333067Y-144546152D02*
X166714019Y-144546152D01*
X166475924Y-144212819D02*
X166475924Y-145069961D01*
X166475924Y-145069961D02*
X166523543Y-145165200D01*
X166523543Y-145165200D02*
X166618781Y-145212819D01*
X166618781Y-145212819D02*
X166714019Y-145212819D01*
X167047353Y-145212819D02*
X167047353Y-144546152D01*
X167047353Y-144736628D02*
X167094972Y-144641390D01*
X167094972Y-144641390D02*
X167142591Y-144593771D01*
X167142591Y-144593771D02*
X167237829Y-144546152D01*
X167237829Y-144546152D02*
X167333067Y-144546152D01*
X168047353Y-145165200D02*
X167952115Y-145212819D01*
X167952115Y-145212819D02*
X167761639Y-145212819D01*
X167761639Y-145212819D02*
X167666401Y-145165200D01*
X167666401Y-145165200D02*
X167618782Y-145069961D01*
X167618782Y-145069961D02*
X167618782Y-144689009D01*
X167618782Y-144689009D02*
X167666401Y-144593771D01*
X167666401Y-144593771D02*
X167761639Y-144546152D01*
X167761639Y-144546152D02*
X167952115Y-144546152D01*
X167952115Y-144546152D02*
X168047353Y-144593771D01*
X168047353Y-144593771D02*
X168094972Y-144689009D01*
X168094972Y-144689009D02*
X168094972Y-144784247D01*
X168094972Y-144784247D02*
X167618782Y-144879485D01*
X168904496Y-145165200D02*
X168809258Y-145212819D01*
X168809258Y-145212819D02*
X168618782Y-145212819D01*
X168618782Y-145212819D02*
X168523544Y-145165200D01*
X168523544Y-145165200D02*
X168475925Y-145069961D01*
X168475925Y-145069961D02*
X168475925Y-144689009D01*
X168475925Y-144689009D02*
X168523544Y-144593771D01*
X168523544Y-144593771D02*
X168618782Y-144546152D01*
X168618782Y-144546152D02*
X168809258Y-144546152D01*
X168809258Y-144546152D02*
X168904496Y-144593771D01*
X168904496Y-144593771D02*
X168952115Y-144689009D01*
X168952115Y-144689009D02*
X168952115Y-144784247D01*
X168952115Y-144784247D02*
X168475925Y-144879485D01*
X170094972Y-144165200D02*
X169237830Y-145450914D01*
X170333068Y-144546152D02*
X170571163Y-145212819D01*
X170571163Y-145212819D02*
X170809258Y-144546152D01*
X171142592Y-144308057D02*
X171190211Y-144260438D01*
X171190211Y-144260438D02*
X171285449Y-144212819D01*
X171285449Y-144212819D02*
X171523544Y-144212819D01*
X171523544Y-144212819D02*
X171618782Y-144260438D01*
X171618782Y-144260438D02*
X171666401Y-144308057D01*
X171666401Y-144308057D02*
X171714020Y-144403295D01*
X171714020Y-144403295D02*
X171714020Y-144498533D01*
X171714020Y-144498533D02*
X171666401Y-144641390D01*
X171666401Y-144641390D02*
X171094973Y-145212819D01*
X171094973Y-145212819D02*
X171714020Y-145212819D01*
X172142592Y-145117580D02*
X172190211Y-145165200D01*
X172190211Y-145165200D02*
X172142592Y-145212819D01*
X172142592Y-145212819D02*
X172094973Y-145165200D01*
X172094973Y-145165200D02*
X172142592Y-145117580D01*
X172142592Y-145117580D02*
X172142592Y-145212819D01*
X172809258Y-144212819D02*
X172904496Y-144212819D01*
X172904496Y-144212819D02*
X172999734Y-144260438D01*
X172999734Y-144260438D02*
X173047353Y-144308057D01*
X173047353Y-144308057D02*
X173094972Y-144403295D01*
X173094972Y-144403295D02*
X173142591Y-144593771D01*
X173142591Y-144593771D02*
X173142591Y-144831866D01*
X173142591Y-144831866D02*
X173094972Y-145022342D01*
X173094972Y-145022342D02*
X173047353Y-145117580D01*
X173047353Y-145117580D02*
X172999734Y-145165200D01*
X172999734Y-145165200D02*
X172904496Y-145212819D01*
X172904496Y-145212819D02*
X172809258Y-145212819D01*
X172809258Y-145212819D02*
X172714020Y-145165200D01*
X172714020Y-145165200D02*
X172666401Y-145117580D01*
X172666401Y-145117580D02*
X172618782Y-145022342D01*
X172618782Y-145022342D02*
X172571163Y-144831866D01*
X172571163Y-144831866D02*
X172571163Y-144593771D01*
X172571163Y-144593771D02*
X172618782Y-144403295D01*
X172618782Y-144403295D02*
X172666401Y-144308057D01*
X172666401Y-144308057D02*
X172714020Y-144260438D01*
X172714020Y-144260438D02*
X172809258Y-144212819D01*
X152268779Y-100106866D02*
X153030684Y-100106866D01*
X152649731Y-100487819D02*
X152649731Y-99725914D01*
G36*
X180938344Y-103588097D02*
G01*
X180968751Y-103618504D01*
X181003009Y-103687020D01*
X181003009Y-103927648D01*
X180676819Y-103927648D01*
X180676819Y-103687020D01*
X180711077Y-103618504D01*
X180741484Y-103588097D01*
X180810000Y-103553839D01*
X180869828Y-103553839D01*
X180938344Y-103588097D01*
G37*
G36*
X181462153Y-103540478D02*
G01*
X181492561Y-103570885D01*
X181526819Y-103639401D01*
X181526819Y-103927648D01*
X181153009Y-103927648D01*
X181153009Y-103681485D01*
X181191180Y-103566971D01*
X181217674Y-103540478D01*
X181286190Y-103506220D01*
X181393637Y-103506220D01*
X181462153Y-103540478D01*
G37*
G36*
X182121263Y-105569712D02*
G01*
X180320469Y-105569712D01*
X180320469Y-105145506D01*
X180431580Y-105145506D01*
X180431580Y-105383601D01*
X180433021Y-105398233D01*
X180444220Y-105425269D01*
X180464912Y-105445961D01*
X180491948Y-105457160D01*
X180506580Y-105458601D01*
X181935152Y-105458601D01*
X181949784Y-105457160D01*
X181976820Y-105445961D01*
X181997512Y-105425269D01*
X182008711Y-105398233D01*
X182010152Y-105383601D01*
X182010152Y-105145506D01*
X182008711Y-105130874D01*
X181997512Y-105103838D01*
X181976820Y-105083146D01*
X181949784Y-105071947D01*
X181920520Y-105071947D01*
X181893484Y-105083146D01*
X181872792Y-105103838D01*
X181861593Y-105130874D01*
X181860152Y-105145506D01*
X181860152Y-105308601D01*
X180581580Y-105308601D01*
X180581580Y-105145506D01*
X180580139Y-105130874D01*
X180568940Y-105103838D01*
X180548248Y-105083146D01*
X180521212Y-105071947D01*
X180491948Y-105071947D01*
X180464912Y-105083146D01*
X180444220Y-105103838D01*
X180433021Y-105130874D01*
X180431580Y-105145506D01*
X180320469Y-105145506D01*
X180320469Y-103669315D01*
X180526819Y-103669315D01*
X180526819Y-104002648D01*
X180528260Y-104017280D01*
X180539459Y-104044316D01*
X180560151Y-104065008D01*
X180587187Y-104076207D01*
X180601819Y-104077648D01*
X181601819Y-104077648D01*
X181616451Y-104076207D01*
X181643487Y-104065008D01*
X181664179Y-104044316D01*
X181675378Y-104017280D01*
X181676819Y-104002648D01*
X181676819Y-103621696D01*
X181675378Y-103607064D01*
X181674347Y-103604575D01*
X181674156Y-103601886D01*
X181668901Y-103588155D01*
X181621282Y-103492917D01*
X181617317Y-103486617D01*
X181616560Y-103484790D01*
X181614872Y-103482733D01*
X181613450Y-103480474D01*
X181611950Y-103479173D01*
X181607232Y-103473424D01*
X181559612Y-103425805D01*
X181553863Y-103421087D01*
X181552564Y-103419589D01*
X181550305Y-103418167D01*
X181548247Y-103416478D01*
X181546417Y-103415720D01*
X181540121Y-103411757D01*
X181444883Y-103364138D01*
X181431151Y-103358883D01*
X181428463Y-103358692D01*
X181425974Y-103357661D01*
X181411342Y-103356220D01*
X181268485Y-103356220D01*
X181253853Y-103357661D01*
X181251364Y-103358691D01*
X181248675Y-103358883D01*
X181234944Y-103364138D01*
X181139706Y-103411757D01*
X181133406Y-103415721D01*
X181131579Y-103416479D01*
X181129522Y-103418167D01*
X181127263Y-103419589D01*
X181125963Y-103421087D01*
X181120214Y-103425806D01*
X181072595Y-103473425D01*
X181063268Y-103484790D01*
X181062236Y-103487280D01*
X181060471Y-103489316D01*
X181057762Y-103495383D01*
X181035804Y-103473425D01*
X181030054Y-103468706D01*
X181028755Y-103467208D01*
X181026495Y-103465786D01*
X181024439Y-103464098D01*
X181022611Y-103463340D01*
X181016312Y-103459376D01*
X180921074Y-103411757D01*
X180907342Y-103406502D01*
X180904654Y-103406311D01*
X180902165Y-103405280D01*
X180887533Y-103403839D01*
X180792295Y-103403839D01*
X180777663Y-103405280D01*
X180775174Y-103406310D01*
X180772485Y-103406502D01*
X180758754Y-103411757D01*
X180663516Y-103459376D01*
X180657216Y-103463340D01*
X180655389Y-103464098D01*
X180653332Y-103465786D01*
X180651073Y-103467208D01*
X180649773Y-103468706D01*
X180644024Y-103473425D01*
X180596405Y-103521044D01*
X180591686Y-103526793D01*
X180590188Y-103528093D01*
X180588766Y-103530352D01*
X180587078Y-103532409D01*
X180586320Y-103534236D01*
X180582356Y-103540536D01*
X180534737Y-103635774D01*
X180529482Y-103649506D01*
X180529291Y-103652193D01*
X180528260Y-103654683D01*
X180526819Y-103669315D01*
X180320469Y-103669315D01*
X180320469Y-102097886D01*
X180431580Y-102097886D01*
X180431580Y-102335981D01*
X180433021Y-102350613D01*
X180444220Y-102377649D01*
X180464912Y-102398341D01*
X180491948Y-102409540D01*
X180521212Y-102409540D01*
X180548248Y-102398341D01*
X180568940Y-102377649D01*
X180580139Y-102350613D01*
X180581580Y-102335981D01*
X180581580Y-102172886D01*
X181860152Y-102172886D01*
X181860152Y-102335981D01*
X181861593Y-102350613D01*
X181872792Y-102377649D01*
X181893484Y-102398341D01*
X181920520Y-102409540D01*
X181949784Y-102409540D01*
X181976820Y-102398341D01*
X181997512Y-102377649D01*
X182008711Y-102350613D01*
X182010152Y-102335981D01*
X182010152Y-102097886D01*
X182008711Y-102083254D01*
X181997512Y-102056218D01*
X181976820Y-102035526D01*
X181949784Y-102024327D01*
X181935152Y-102022886D01*
X180506580Y-102022886D01*
X180491948Y-102024327D01*
X180464912Y-102035526D01*
X180444220Y-102056218D01*
X180433021Y-102083254D01*
X180431580Y-102097886D01*
X180320469Y-102097886D01*
X180320469Y-101911775D01*
X182121263Y-101911775D01*
X182121263Y-105569712D01*
G37*
D11*
G36*
X181207664Y-108786758D02*
G01*
X180743116Y-108631909D01*
X181207664Y-108477059D01*
X181207664Y-108786758D01*
G37*
G36*
X182057823Y-110374449D02*
G01*
X180287029Y-110374449D01*
X180287029Y-109965243D01*
X180398140Y-109965243D01*
X180398140Y-110203338D01*
X180402707Y-110226299D01*
X180435179Y-110258771D01*
X180458140Y-110263338D01*
X181886712Y-110263338D01*
X181909673Y-110258771D01*
X181942145Y-110226299D01*
X181946712Y-110203338D01*
X181946712Y-109965243D01*
X181942145Y-109942282D01*
X181909673Y-109909810D01*
X181863751Y-109909810D01*
X181831279Y-109942282D01*
X181826712Y-109965243D01*
X181826712Y-110143338D01*
X180518140Y-110143338D01*
X180518140Y-109965243D01*
X180513573Y-109942282D01*
X180481101Y-109909810D01*
X180435179Y-109909810D01*
X180402707Y-109942282D01*
X180398140Y-109965243D01*
X180287029Y-109965243D01*
X180287029Y-108627656D01*
X180493530Y-108627656D01*
X180494947Y-108631909D01*
X180493530Y-108636162D01*
X180502036Y-108653175D01*
X180508052Y-108671221D01*
X180512062Y-108673226D01*
X180514067Y-108677236D01*
X180534405Y-108688830D01*
X181534405Y-109022163D01*
X181557632Y-109025091D01*
X181598706Y-109004554D01*
X181613228Y-108960989D01*
X181592691Y-108919914D01*
X181572352Y-108908321D01*
X181327664Y-108826758D01*
X181327664Y-108437059D01*
X181572352Y-108355497D01*
X181592691Y-108343904D01*
X181613228Y-108302829D01*
X181598706Y-108259264D01*
X181557632Y-108238727D01*
X181534405Y-108241655D01*
X180534405Y-108574988D01*
X180514067Y-108586582D01*
X180512062Y-108590592D01*
X180508052Y-108592597D01*
X180502036Y-108610642D01*
X180493530Y-108627656D01*
X180287029Y-108627656D01*
X180287029Y-107060480D01*
X180398140Y-107060480D01*
X180398140Y-107298575D01*
X180402707Y-107321536D01*
X180435179Y-107354008D01*
X180481101Y-107354008D01*
X180513573Y-107321536D01*
X180518140Y-107298575D01*
X180518140Y-107120480D01*
X181826712Y-107120480D01*
X181826712Y-107298575D01*
X181831279Y-107321536D01*
X181863751Y-107354008D01*
X181909673Y-107354008D01*
X181942145Y-107321536D01*
X181946712Y-107298575D01*
X181946712Y-107060480D01*
X181942145Y-107037519D01*
X181909673Y-107005047D01*
X181886712Y-107000480D01*
X180458140Y-107000480D01*
X180435179Y-107005047D01*
X180402707Y-107037519D01*
X180398140Y-107060480D01*
X180287029Y-107060480D01*
X180287029Y-106889369D01*
X182057823Y-106889369D01*
X182057823Y-110374449D01*
G37*
D10*
X143725922Y-112312819D02*
X144297350Y-112312819D01*
X144011636Y-113312819D02*
X144011636Y-112312819D01*
X144535446Y-112312819D02*
X145202112Y-113312819D01*
X145202112Y-112312819D02*
X144535446Y-113312819D01*
X145583065Y-113312819D02*
X145583065Y-112312819D01*
X145583065Y-112312819D02*
X145821160Y-112312819D01*
X145821160Y-112312819D02*
X145964017Y-112360438D01*
X145964017Y-112360438D02*
X146059255Y-112455676D01*
X146059255Y-112455676D02*
X146106874Y-112550914D01*
X146106874Y-112550914D02*
X146154493Y-112741390D01*
X146154493Y-112741390D02*
X146154493Y-112884247D01*
X146154493Y-112884247D02*
X146106874Y-113074723D01*
X146106874Y-113074723D02*
X146059255Y-113169961D01*
X146059255Y-113169961D02*
X145964017Y-113265200D01*
X145964017Y-113265200D02*
X145821160Y-113312819D01*
X145821160Y-113312819D02*
X145583065Y-113312819D01*
X137290207Y-108012819D02*
X136956874Y-107536628D01*
X136718779Y-108012819D02*
X136718779Y-107012819D01*
X136718779Y-107012819D02*
X137099731Y-107012819D01*
X137099731Y-107012819D02*
X137194969Y-107060438D01*
X137194969Y-107060438D02*
X137242588Y-107108057D01*
X137242588Y-107108057D02*
X137290207Y-107203295D01*
X137290207Y-107203295D02*
X137290207Y-107346152D01*
X137290207Y-107346152D02*
X137242588Y-107441390D01*
X137242588Y-107441390D02*
X137194969Y-107489009D01*
X137194969Y-107489009D02*
X137099731Y-107536628D01*
X137099731Y-107536628D02*
X136718779Y-107536628D01*
X137623541Y-107012819D02*
X138290207Y-108012819D01*
X138290207Y-107012819D02*
X137623541Y-108012819D01*
X138671160Y-108012819D02*
X138671160Y-107012819D01*
X138671160Y-107012819D02*
X138909255Y-107012819D01*
X138909255Y-107012819D02*
X139052112Y-107060438D01*
X139052112Y-107060438D02*
X139147350Y-107155676D01*
X139147350Y-107155676D02*
X139194969Y-107250914D01*
X139194969Y-107250914D02*
X139242588Y-107441390D01*
X139242588Y-107441390D02*
X139242588Y-107584247D01*
X139242588Y-107584247D02*
X139194969Y-107774723D01*
X139194969Y-107774723D02*
X139147350Y-107869961D01*
X139147350Y-107869961D02*
X139052112Y-107965200D01*
X139052112Y-107965200D02*
X138909255Y-108012819D01*
X138909255Y-108012819D02*
X138671160Y-108012819D01*
X151314142Y-135772819D02*
X150980809Y-135296628D01*
X150742714Y-135772819D02*
X150742714Y-134772819D01*
X150742714Y-134772819D02*
X151123666Y-134772819D01*
X151123666Y-134772819D02*
X151218904Y-134820438D01*
X151218904Y-134820438D02*
X151266523Y-134868057D01*
X151266523Y-134868057D02*
X151314142Y-134963295D01*
X151314142Y-134963295D02*
X151314142Y-135106152D01*
X151314142Y-135106152D02*
X151266523Y-135201390D01*
X151266523Y-135201390D02*
X151218904Y-135249009D01*
X151218904Y-135249009D02*
X151123666Y-135296628D01*
X151123666Y-135296628D02*
X150742714Y-135296628D01*
X152266523Y-135772819D02*
X151695095Y-135772819D01*
X151980809Y-135772819D02*
X151980809Y-134772819D01*
X151980809Y-134772819D02*
X151885571Y-134915676D01*
X151885571Y-134915676D02*
X151790333Y-135010914D01*
X151790333Y-135010914D02*
X151695095Y-135058533D01*
X153123666Y-135106152D02*
X153123666Y-135772819D01*
X152885571Y-134725200D02*
X152647476Y-135439485D01*
X152647476Y-135439485D02*
X153266523Y-135439485D01*
X163918905Y-115297819D02*
X163918905Y-114297819D01*
X163918905Y-114297819D02*
X164157000Y-114297819D01*
X164157000Y-114297819D02*
X164299857Y-114345438D01*
X164299857Y-114345438D02*
X164395095Y-114440676D01*
X164395095Y-114440676D02*
X164442714Y-114535914D01*
X164442714Y-114535914D02*
X164490333Y-114726390D01*
X164490333Y-114726390D02*
X164490333Y-114869247D01*
X164490333Y-114869247D02*
X164442714Y-115059723D01*
X164442714Y-115059723D02*
X164395095Y-115154961D01*
X164395095Y-115154961D02*
X164299857Y-115250200D01*
X164299857Y-115250200D02*
X164157000Y-115297819D01*
X164157000Y-115297819D02*
X163918905Y-115297819D01*
X164871286Y-114393057D02*
X164918905Y-114345438D01*
X164918905Y-114345438D02*
X165014143Y-114297819D01*
X165014143Y-114297819D02*
X165252238Y-114297819D01*
X165252238Y-114297819D02*
X165347476Y-114345438D01*
X165347476Y-114345438D02*
X165395095Y-114393057D01*
X165395095Y-114393057D02*
X165442714Y-114488295D01*
X165442714Y-114488295D02*
X165442714Y-114583533D01*
X165442714Y-114583533D02*
X165395095Y-114726390D01*
X165395095Y-114726390D02*
X164823667Y-115297819D01*
X164823667Y-115297819D02*
X165442714Y-115297819D01*
X122686761Y-112243057D02*
X122591523Y-112195438D01*
X122591523Y-112195438D02*
X122496285Y-112100200D01*
X122496285Y-112100200D02*
X122353428Y-111957342D01*
X122353428Y-111957342D02*
X122258190Y-111909723D01*
X122258190Y-111909723D02*
X122162952Y-111909723D01*
X122210571Y-112147819D02*
X122115333Y-112100200D01*
X122115333Y-112100200D02*
X122020095Y-112004961D01*
X122020095Y-112004961D02*
X121972476Y-111814485D01*
X121972476Y-111814485D02*
X121972476Y-111481152D01*
X121972476Y-111481152D02*
X122020095Y-111290676D01*
X122020095Y-111290676D02*
X122115333Y-111195438D01*
X122115333Y-111195438D02*
X122210571Y-111147819D01*
X122210571Y-111147819D02*
X122401047Y-111147819D01*
X122401047Y-111147819D02*
X122496285Y-111195438D01*
X122496285Y-111195438D02*
X122591523Y-111290676D01*
X122591523Y-111290676D02*
X122639142Y-111481152D01*
X122639142Y-111481152D02*
X122639142Y-111814485D01*
X122639142Y-111814485D02*
X122591523Y-112004961D01*
X122591523Y-112004961D02*
X122496285Y-112100200D01*
X122496285Y-112100200D02*
X122401047Y-112147819D01*
X122401047Y-112147819D02*
X122210571Y-112147819D01*
X123591523Y-112147819D02*
X123020095Y-112147819D01*
X123305809Y-112147819D02*
X123305809Y-111147819D01*
X123305809Y-111147819D02*
X123210571Y-111290676D01*
X123210571Y-111290676D02*
X123115333Y-111385914D01*
X123115333Y-111385914D02*
X123020095Y-111433533D01*
X159865333Y-109947819D02*
X159532000Y-109471628D01*
X159293905Y-109947819D02*
X159293905Y-108947819D01*
X159293905Y-108947819D02*
X159674857Y-108947819D01*
X159674857Y-108947819D02*
X159770095Y-108995438D01*
X159770095Y-108995438D02*
X159817714Y-109043057D01*
X159817714Y-109043057D02*
X159865333Y-109138295D01*
X159865333Y-109138295D02*
X159865333Y-109281152D01*
X159865333Y-109281152D02*
X159817714Y-109376390D01*
X159817714Y-109376390D02*
X159770095Y-109424009D01*
X159770095Y-109424009D02*
X159674857Y-109471628D01*
X159674857Y-109471628D02*
X159293905Y-109471628D01*
X160722476Y-109281152D02*
X160722476Y-109947819D01*
X160484381Y-108900200D02*
X160246286Y-109614485D01*
X160246286Y-109614485D02*
X160865333Y-109614485D01*
X170565333Y-108472819D02*
X170232000Y-107996628D01*
X169993905Y-108472819D02*
X169993905Y-107472819D01*
X169993905Y-107472819D02*
X170374857Y-107472819D01*
X170374857Y-107472819D02*
X170470095Y-107520438D01*
X170470095Y-107520438D02*
X170517714Y-107568057D01*
X170517714Y-107568057D02*
X170565333Y-107663295D01*
X170565333Y-107663295D02*
X170565333Y-107806152D01*
X170565333Y-107806152D02*
X170517714Y-107901390D01*
X170517714Y-107901390D02*
X170470095Y-107949009D01*
X170470095Y-107949009D02*
X170374857Y-107996628D01*
X170374857Y-107996628D02*
X169993905Y-107996628D01*
X171470095Y-107472819D02*
X170993905Y-107472819D01*
X170993905Y-107472819D02*
X170946286Y-107949009D01*
X170946286Y-107949009D02*
X170993905Y-107901390D01*
X170993905Y-107901390D02*
X171089143Y-107853771D01*
X171089143Y-107853771D02*
X171327238Y-107853771D01*
X171327238Y-107853771D02*
X171422476Y-107901390D01*
X171422476Y-107901390D02*
X171470095Y-107949009D01*
X171470095Y-107949009D02*
X171517714Y-108044247D01*
X171517714Y-108044247D02*
X171517714Y-108282342D01*
X171517714Y-108282342D02*
X171470095Y-108377580D01*
X171470095Y-108377580D02*
X171422476Y-108425200D01*
X171422476Y-108425200D02*
X171327238Y-108472819D01*
X171327238Y-108472819D02*
X171089143Y-108472819D01*
X171089143Y-108472819D02*
X170993905Y-108425200D01*
X170993905Y-108425200D02*
X170946286Y-108377580D01*
X127765333Y-125452580D02*
X127717714Y-125500200D01*
X127717714Y-125500200D02*
X127574857Y-125547819D01*
X127574857Y-125547819D02*
X127479619Y-125547819D01*
X127479619Y-125547819D02*
X127336762Y-125500200D01*
X127336762Y-125500200D02*
X127241524Y-125404961D01*
X127241524Y-125404961D02*
X127193905Y-125309723D01*
X127193905Y-125309723D02*
X127146286Y-125119247D01*
X127146286Y-125119247D02*
X127146286Y-124976390D01*
X127146286Y-124976390D02*
X127193905Y-124785914D01*
X127193905Y-124785914D02*
X127241524Y-124690676D01*
X127241524Y-124690676D02*
X127336762Y-124595438D01*
X127336762Y-124595438D02*
X127479619Y-124547819D01*
X127479619Y-124547819D02*
X127574857Y-124547819D01*
X127574857Y-124547819D02*
X127717714Y-124595438D01*
X127717714Y-124595438D02*
X127765333Y-124643057D01*
X128622476Y-124881152D02*
X128622476Y-125547819D01*
X128384381Y-124500200D02*
X128146286Y-125214485D01*
X128146286Y-125214485D02*
X128765333Y-125214485D01*
X120464142Y-105797819D02*
X120130809Y-105321628D01*
X119892714Y-105797819D02*
X119892714Y-104797819D01*
X119892714Y-104797819D02*
X120273666Y-104797819D01*
X120273666Y-104797819D02*
X120368904Y-104845438D01*
X120368904Y-104845438D02*
X120416523Y-104893057D01*
X120416523Y-104893057D02*
X120464142Y-104988295D01*
X120464142Y-104988295D02*
X120464142Y-105131152D01*
X120464142Y-105131152D02*
X120416523Y-105226390D01*
X120416523Y-105226390D02*
X120368904Y-105274009D01*
X120368904Y-105274009D02*
X120273666Y-105321628D01*
X120273666Y-105321628D02*
X119892714Y-105321628D01*
X121416523Y-105797819D02*
X120845095Y-105797819D01*
X121130809Y-105797819D02*
X121130809Y-104797819D01*
X121130809Y-104797819D02*
X121035571Y-104940676D01*
X121035571Y-104940676D02*
X120940333Y-105035914D01*
X120940333Y-105035914D02*
X120845095Y-105083533D01*
X122273666Y-104797819D02*
X122083190Y-104797819D01*
X122083190Y-104797819D02*
X121987952Y-104845438D01*
X121987952Y-104845438D02*
X121940333Y-104893057D01*
X121940333Y-104893057D02*
X121845095Y-105035914D01*
X121845095Y-105035914D02*
X121797476Y-105226390D01*
X121797476Y-105226390D02*
X121797476Y-105607342D01*
X121797476Y-105607342D02*
X121845095Y-105702580D01*
X121845095Y-105702580D02*
X121892714Y-105750200D01*
X121892714Y-105750200D02*
X121987952Y-105797819D01*
X121987952Y-105797819D02*
X122178428Y-105797819D01*
X122178428Y-105797819D02*
X122273666Y-105750200D01*
X122273666Y-105750200D02*
X122321285Y-105702580D01*
X122321285Y-105702580D02*
X122368904Y-105607342D01*
X122368904Y-105607342D02*
X122368904Y-105369247D01*
X122368904Y-105369247D02*
X122321285Y-105274009D01*
X122321285Y-105274009D02*
X122273666Y-105226390D01*
X122273666Y-105226390D02*
X122178428Y-105178771D01*
X122178428Y-105178771D02*
X121987952Y-105178771D01*
X121987952Y-105178771D02*
X121892714Y-105226390D01*
X121892714Y-105226390D02*
X121845095Y-105274009D01*
X121845095Y-105274009D02*
X121797476Y-105369247D01*
X175648666Y-99072819D02*
X175648666Y-99787104D01*
X175648666Y-99787104D02*
X175601047Y-99929961D01*
X175601047Y-99929961D02*
X175505809Y-100025200D01*
X175505809Y-100025200D02*
X175362952Y-100072819D01*
X175362952Y-100072819D02*
X175267714Y-100072819D01*
X176029619Y-99072819D02*
X176648666Y-99072819D01*
X176648666Y-99072819D02*
X176315333Y-99453771D01*
X176315333Y-99453771D02*
X176458190Y-99453771D01*
X176458190Y-99453771D02*
X176553428Y-99501390D01*
X176553428Y-99501390D02*
X176601047Y-99549009D01*
X176601047Y-99549009D02*
X176648666Y-99644247D01*
X176648666Y-99644247D02*
X176648666Y-99882342D01*
X176648666Y-99882342D02*
X176601047Y-99977580D01*
X176601047Y-99977580D02*
X176553428Y-100025200D01*
X176553428Y-100025200D02*
X176458190Y-100072819D01*
X176458190Y-100072819D02*
X176172476Y-100072819D01*
X176172476Y-100072819D02*
X176077238Y-100025200D01*
X176077238Y-100025200D02*
X176029619Y-99977580D01*
X150801642Y-114822819D02*
X150468309Y-114346628D01*
X150230214Y-114822819D02*
X150230214Y-113822819D01*
X150230214Y-113822819D02*
X150611166Y-113822819D01*
X150611166Y-113822819D02*
X150706404Y-113870438D01*
X150706404Y-113870438D02*
X150754023Y-113918057D01*
X150754023Y-113918057D02*
X150801642Y-114013295D01*
X150801642Y-114013295D02*
X150801642Y-114156152D01*
X150801642Y-114156152D02*
X150754023Y-114251390D01*
X150754023Y-114251390D02*
X150706404Y-114299009D01*
X150706404Y-114299009D02*
X150611166Y-114346628D01*
X150611166Y-114346628D02*
X150230214Y-114346628D01*
X151754023Y-114822819D02*
X151182595Y-114822819D01*
X151468309Y-114822819D02*
X151468309Y-113822819D01*
X151468309Y-113822819D02*
X151373071Y-113965676D01*
X151373071Y-113965676D02*
X151277833Y-114060914D01*
X151277833Y-114060914D02*
X151182595Y-114108533D01*
X152087357Y-113822819D02*
X152706404Y-113822819D01*
X152706404Y-113822819D02*
X152373071Y-114203771D01*
X152373071Y-114203771D02*
X152515928Y-114203771D01*
X152515928Y-114203771D02*
X152611166Y-114251390D01*
X152611166Y-114251390D02*
X152658785Y-114299009D01*
X152658785Y-114299009D02*
X152706404Y-114394247D01*
X152706404Y-114394247D02*
X152706404Y-114632342D01*
X152706404Y-114632342D02*
X152658785Y-114727580D01*
X152658785Y-114727580D02*
X152611166Y-114775200D01*
X152611166Y-114775200D02*
X152515928Y-114822819D01*
X152515928Y-114822819D02*
X152230214Y-114822819D01*
X152230214Y-114822819D02*
X152134976Y-114775200D01*
X152134976Y-114775200D02*
X152087357Y-114727580D01*
X157265333Y-102597819D02*
X156932000Y-102121628D01*
X156693905Y-102597819D02*
X156693905Y-101597819D01*
X156693905Y-101597819D02*
X157074857Y-101597819D01*
X157074857Y-101597819D02*
X157170095Y-101645438D01*
X157170095Y-101645438D02*
X157217714Y-101693057D01*
X157217714Y-101693057D02*
X157265333Y-101788295D01*
X157265333Y-101788295D02*
X157265333Y-101931152D01*
X157265333Y-101931152D02*
X157217714Y-102026390D01*
X157217714Y-102026390D02*
X157170095Y-102074009D01*
X157170095Y-102074009D02*
X157074857Y-102121628D01*
X157074857Y-102121628D02*
X156693905Y-102121628D01*
X158217714Y-102597819D02*
X157646286Y-102597819D01*
X157932000Y-102597819D02*
X157932000Y-101597819D01*
X157932000Y-101597819D02*
X157836762Y-101740676D01*
X157836762Y-101740676D02*
X157741524Y-101835914D01*
X157741524Y-101835914D02*
X157646286Y-101883533D01*
X147356405Y-114922819D02*
X147356405Y-113922819D01*
X147356405Y-113922819D02*
X147594500Y-113922819D01*
X147594500Y-113922819D02*
X147737357Y-113970438D01*
X147737357Y-113970438D02*
X147832595Y-114065676D01*
X147832595Y-114065676D02*
X147880214Y-114160914D01*
X147880214Y-114160914D02*
X147927833Y-114351390D01*
X147927833Y-114351390D02*
X147927833Y-114494247D01*
X147927833Y-114494247D02*
X147880214Y-114684723D01*
X147880214Y-114684723D02*
X147832595Y-114779961D01*
X147832595Y-114779961D02*
X147737357Y-114875200D01*
X147737357Y-114875200D02*
X147594500Y-114922819D01*
X147594500Y-114922819D02*
X147356405Y-114922819D01*
X148784976Y-114256152D02*
X148784976Y-114922819D01*
X148546881Y-113875200D02*
X148308786Y-114589485D01*
X148308786Y-114589485D02*
X148927833Y-114589485D01*
X132090333Y-109822819D02*
X131757000Y-109346628D01*
X131518905Y-109822819D02*
X131518905Y-108822819D01*
X131518905Y-108822819D02*
X131899857Y-108822819D01*
X131899857Y-108822819D02*
X131995095Y-108870438D01*
X131995095Y-108870438D02*
X132042714Y-108918057D01*
X132042714Y-108918057D02*
X132090333Y-109013295D01*
X132090333Y-109013295D02*
X132090333Y-109156152D01*
X132090333Y-109156152D02*
X132042714Y-109251390D01*
X132042714Y-109251390D02*
X131995095Y-109299009D01*
X131995095Y-109299009D02*
X131899857Y-109346628D01*
X131899857Y-109346628D02*
X131518905Y-109346628D01*
X132947476Y-108822819D02*
X132757000Y-108822819D01*
X132757000Y-108822819D02*
X132661762Y-108870438D01*
X132661762Y-108870438D02*
X132614143Y-108918057D01*
X132614143Y-108918057D02*
X132518905Y-109060914D01*
X132518905Y-109060914D02*
X132471286Y-109251390D01*
X132471286Y-109251390D02*
X132471286Y-109632342D01*
X132471286Y-109632342D02*
X132518905Y-109727580D01*
X132518905Y-109727580D02*
X132566524Y-109775200D01*
X132566524Y-109775200D02*
X132661762Y-109822819D01*
X132661762Y-109822819D02*
X132852238Y-109822819D01*
X132852238Y-109822819D02*
X132947476Y-109775200D01*
X132947476Y-109775200D02*
X132995095Y-109727580D01*
X132995095Y-109727580D02*
X133042714Y-109632342D01*
X133042714Y-109632342D02*
X133042714Y-109394247D01*
X133042714Y-109394247D02*
X132995095Y-109299009D01*
X132995095Y-109299009D02*
X132947476Y-109251390D01*
X132947476Y-109251390D02*
X132852238Y-109203771D01*
X132852238Y-109203771D02*
X132661762Y-109203771D01*
X132661762Y-109203771D02*
X132566524Y-109251390D01*
X132566524Y-109251390D02*
X132518905Y-109299009D01*
X132518905Y-109299009D02*
X132471286Y-109394247D01*
X175973666Y-133247819D02*
X175973666Y-133962104D01*
X175973666Y-133962104D02*
X175926047Y-134104961D01*
X175926047Y-134104961D02*
X175830809Y-134200200D01*
X175830809Y-134200200D02*
X175687952Y-134247819D01*
X175687952Y-134247819D02*
X175592714Y-134247819D01*
X176878428Y-133581152D02*
X176878428Y-134247819D01*
X176640333Y-133200200D02*
X176402238Y-133914485D01*
X176402238Y-133914485D02*
X177021285Y-133914485D01*
X157165333Y-110922819D02*
X156832000Y-110446628D01*
X156593905Y-110922819D02*
X156593905Y-109922819D01*
X156593905Y-109922819D02*
X156974857Y-109922819D01*
X156974857Y-109922819D02*
X157070095Y-109970438D01*
X157070095Y-109970438D02*
X157117714Y-110018057D01*
X157117714Y-110018057D02*
X157165333Y-110113295D01*
X157165333Y-110113295D02*
X157165333Y-110256152D01*
X157165333Y-110256152D02*
X157117714Y-110351390D01*
X157117714Y-110351390D02*
X157070095Y-110399009D01*
X157070095Y-110399009D02*
X156974857Y-110446628D01*
X156974857Y-110446628D02*
X156593905Y-110446628D01*
X157641524Y-110922819D02*
X157832000Y-110922819D01*
X157832000Y-110922819D02*
X157927238Y-110875200D01*
X157927238Y-110875200D02*
X157974857Y-110827580D01*
X157974857Y-110827580D02*
X158070095Y-110684723D01*
X158070095Y-110684723D02*
X158117714Y-110494247D01*
X158117714Y-110494247D02*
X158117714Y-110113295D01*
X158117714Y-110113295D02*
X158070095Y-110018057D01*
X158070095Y-110018057D02*
X158022476Y-109970438D01*
X158022476Y-109970438D02*
X157927238Y-109922819D01*
X157927238Y-109922819D02*
X157736762Y-109922819D01*
X157736762Y-109922819D02*
X157641524Y-109970438D01*
X157641524Y-109970438D02*
X157593905Y-110018057D01*
X157593905Y-110018057D02*
X157546286Y-110113295D01*
X157546286Y-110113295D02*
X157546286Y-110351390D01*
X157546286Y-110351390D02*
X157593905Y-110446628D01*
X157593905Y-110446628D02*
X157641524Y-110494247D01*
X157641524Y-110494247D02*
X157736762Y-110541866D01*
X157736762Y-110541866D02*
X157927238Y-110541866D01*
X157927238Y-110541866D02*
X158022476Y-110494247D01*
X158022476Y-110494247D02*
X158070095Y-110446628D01*
X158070095Y-110446628D02*
X158117714Y-110351390D01*
X131961761Y-112243057D02*
X131866523Y-112195438D01*
X131866523Y-112195438D02*
X131771285Y-112100200D01*
X131771285Y-112100200D02*
X131628428Y-111957342D01*
X131628428Y-111957342D02*
X131533190Y-111909723D01*
X131533190Y-111909723D02*
X131437952Y-111909723D01*
X131485571Y-112147819D02*
X131390333Y-112100200D01*
X131390333Y-112100200D02*
X131295095Y-112004961D01*
X131295095Y-112004961D02*
X131247476Y-111814485D01*
X131247476Y-111814485D02*
X131247476Y-111481152D01*
X131247476Y-111481152D02*
X131295095Y-111290676D01*
X131295095Y-111290676D02*
X131390333Y-111195438D01*
X131390333Y-111195438D02*
X131485571Y-111147819D01*
X131485571Y-111147819D02*
X131676047Y-111147819D01*
X131676047Y-111147819D02*
X131771285Y-111195438D01*
X131771285Y-111195438D02*
X131866523Y-111290676D01*
X131866523Y-111290676D02*
X131914142Y-111481152D01*
X131914142Y-111481152D02*
X131914142Y-111814485D01*
X131914142Y-111814485D02*
X131866523Y-112004961D01*
X131866523Y-112004961D02*
X131771285Y-112100200D01*
X131771285Y-112100200D02*
X131676047Y-112147819D01*
X131676047Y-112147819D02*
X131485571Y-112147819D01*
X132295095Y-111243057D02*
X132342714Y-111195438D01*
X132342714Y-111195438D02*
X132437952Y-111147819D01*
X132437952Y-111147819D02*
X132676047Y-111147819D01*
X132676047Y-111147819D02*
X132771285Y-111195438D01*
X132771285Y-111195438D02*
X132818904Y-111243057D01*
X132818904Y-111243057D02*
X132866523Y-111338295D01*
X132866523Y-111338295D02*
X132866523Y-111433533D01*
X132866523Y-111433533D02*
X132818904Y-111576390D01*
X132818904Y-111576390D02*
X132247476Y-112147819D01*
X132247476Y-112147819D02*
X132866523Y-112147819D01*
X158765333Y-100477580D02*
X158717714Y-100525200D01*
X158717714Y-100525200D02*
X158574857Y-100572819D01*
X158574857Y-100572819D02*
X158479619Y-100572819D01*
X158479619Y-100572819D02*
X158336762Y-100525200D01*
X158336762Y-100525200D02*
X158241524Y-100429961D01*
X158241524Y-100429961D02*
X158193905Y-100334723D01*
X158193905Y-100334723D02*
X158146286Y-100144247D01*
X158146286Y-100144247D02*
X158146286Y-100001390D01*
X158146286Y-100001390D02*
X158193905Y-99810914D01*
X158193905Y-99810914D02*
X158241524Y-99715676D01*
X158241524Y-99715676D02*
X158336762Y-99620438D01*
X158336762Y-99620438D02*
X158479619Y-99572819D01*
X158479619Y-99572819D02*
X158574857Y-99572819D01*
X158574857Y-99572819D02*
X158717714Y-99620438D01*
X158717714Y-99620438D02*
X158765333Y-99668057D01*
X159717714Y-100572819D02*
X159146286Y-100572819D01*
X159432000Y-100572819D02*
X159432000Y-99572819D01*
X159432000Y-99572819D02*
X159336762Y-99715676D01*
X159336762Y-99715676D02*
X159241524Y-99810914D01*
X159241524Y-99810914D02*
X159146286Y-99858533D01*
X146611580Y-126684666D02*
X146659200Y-126732285D01*
X146659200Y-126732285D02*
X146706819Y-126875142D01*
X146706819Y-126875142D02*
X146706819Y-126970380D01*
X146706819Y-126970380D02*
X146659200Y-127113237D01*
X146659200Y-127113237D02*
X146563961Y-127208475D01*
X146563961Y-127208475D02*
X146468723Y-127256094D01*
X146468723Y-127256094D02*
X146278247Y-127303713D01*
X146278247Y-127303713D02*
X146135390Y-127303713D01*
X146135390Y-127303713D02*
X145944914Y-127256094D01*
X145944914Y-127256094D02*
X145849676Y-127208475D01*
X145849676Y-127208475D02*
X145754438Y-127113237D01*
X145754438Y-127113237D02*
X145706819Y-126970380D01*
X145706819Y-126970380D02*
X145706819Y-126875142D01*
X145706819Y-126875142D02*
X145754438Y-126732285D01*
X145754438Y-126732285D02*
X145802057Y-126684666D01*
X145706819Y-126351332D02*
X145706819Y-125732285D01*
X145706819Y-125732285D02*
X146087771Y-126065618D01*
X146087771Y-126065618D02*
X146087771Y-125922761D01*
X146087771Y-125922761D02*
X146135390Y-125827523D01*
X146135390Y-125827523D02*
X146183009Y-125779904D01*
X146183009Y-125779904D02*
X146278247Y-125732285D01*
X146278247Y-125732285D02*
X146516342Y-125732285D01*
X146516342Y-125732285D02*
X146611580Y-125779904D01*
X146611580Y-125779904D02*
X146659200Y-125827523D01*
X146659200Y-125827523D02*
X146706819Y-125922761D01*
X146706819Y-125922761D02*
X146706819Y-126208475D01*
X146706819Y-126208475D02*
X146659200Y-126303713D01*
X146659200Y-126303713D02*
X146611580Y-126351332D01*
X159696580Y-129509666D02*
X159744200Y-129557285D01*
X159744200Y-129557285D02*
X159791819Y-129700142D01*
X159791819Y-129700142D02*
X159791819Y-129795380D01*
X159791819Y-129795380D02*
X159744200Y-129938237D01*
X159744200Y-129938237D02*
X159648961Y-130033475D01*
X159648961Y-130033475D02*
X159553723Y-130081094D01*
X159553723Y-130081094D02*
X159363247Y-130128713D01*
X159363247Y-130128713D02*
X159220390Y-130128713D01*
X159220390Y-130128713D02*
X159029914Y-130081094D01*
X159029914Y-130081094D02*
X158934676Y-130033475D01*
X158934676Y-130033475D02*
X158839438Y-129938237D01*
X158839438Y-129938237D02*
X158791819Y-129795380D01*
X158791819Y-129795380D02*
X158791819Y-129700142D01*
X158791819Y-129700142D02*
X158839438Y-129557285D01*
X158839438Y-129557285D02*
X158887057Y-129509666D01*
X159220390Y-128938237D02*
X159172771Y-129033475D01*
X159172771Y-129033475D02*
X159125152Y-129081094D01*
X159125152Y-129081094D02*
X159029914Y-129128713D01*
X159029914Y-129128713D02*
X158982295Y-129128713D01*
X158982295Y-129128713D02*
X158887057Y-129081094D01*
X158887057Y-129081094D02*
X158839438Y-129033475D01*
X158839438Y-129033475D02*
X158791819Y-128938237D01*
X158791819Y-128938237D02*
X158791819Y-128747761D01*
X158791819Y-128747761D02*
X158839438Y-128652523D01*
X158839438Y-128652523D02*
X158887057Y-128604904D01*
X158887057Y-128604904D02*
X158982295Y-128557285D01*
X158982295Y-128557285D02*
X159029914Y-128557285D01*
X159029914Y-128557285D02*
X159125152Y-128604904D01*
X159125152Y-128604904D02*
X159172771Y-128652523D01*
X159172771Y-128652523D02*
X159220390Y-128747761D01*
X159220390Y-128747761D02*
X159220390Y-128938237D01*
X159220390Y-128938237D02*
X159268009Y-129033475D01*
X159268009Y-129033475D02*
X159315628Y-129081094D01*
X159315628Y-129081094D02*
X159410866Y-129128713D01*
X159410866Y-129128713D02*
X159601342Y-129128713D01*
X159601342Y-129128713D02*
X159696580Y-129081094D01*
X159696580Y-129081094D02*
X159744200Y-129033475D01*
X159744200Y-129033475D02*
X159791819Y-128938237D01*
X159791819Y-128938237D02*
X159791819Y-128747761D01*
X159791819Y-128747761D02*
X159744200Y-128652523D01*
X159744200Y-128652523D02*
X159696580Y-128604904D01*
X159696580Y-128604904D02*
X159601342Y-128557285D01*
X159601342Y-128557285D02*
X159410866Y-128557285D01*
X159410866Y-128557285D02*
X159315628Y-128604904D01*
X159315628Y-128604904D02*
X159268009Y-128652523D01*
X159268009Y-128652523D02*
X159220390Y-128747761D01*
X130515333Y-105347819D02*
X130182000Y-104871628D01*
X129943905Y-105347819D02*
X129943905Y-104347819D01*
X129943905Y-104347819D02*
X130324857Y-104347819D01*
X130324857Y-104347819D02*
X130420095Y-104395438D01*
X130420095Y-104395438D02*
X130467714Y-104443057D01*
X130467714Y-104443057D02*
X130515333Y-104538295D01*
X130515333Y-104538295D02*
X130515333Y-104681152D01*
X130515333Y-104681152D02*
X130467714Y-104776390D01*
X130467714Y-104776390D02*
X130420095Y-104824009D01*
X130420095Y-104824009D02*
X130324857Y-104871628D01*
X130324857Y-104871628D02*
X129943905Y-104871628D01*
X130848667Y-104347819D02*
X131515333Y-104347819D01*
X131515333Y-104347819D02*
X131086762Y-105347819D01*
X145765333Y-102922819D02*
X145432000Y-102446628D01*
X145193905Y-102922819D02*
X145193905Y-101922819D01*
X145193905Y-101922819D02*
X145574857Y-101922819D01*
X145574857Y-101922819D02*
X145670095Y-101970438D01*
X145670095Y-101970438D02*
X145717714Y-102018057D01*
X145717714Y-102018057D02*
X145765333Y-102113295D01*
X145765333Y-102113295D02*
X145765333Y-102256152D01*
X145765333Y-102256152D02*
X145717714Y-102351390D01*
X145717714Y-102351390D02*
X145670095Y-102399009D01*
X145670095Y-102399009D02*
X145574857Y-102446628D01*
X145574857Y-102446628D02*
X145193905Y-102446628D01*
X146146286Y-102018057D02*
X146193905Y-101970438D01*
X146193905Y-101970438D02*
X146289143Y-101922819D01*
X146289143Y-101922819D02*
X146527238Y-101922819D01*
X146527238Y-101922819D02*
X146622476Y-101970438D01*
X146622476Y-101970438D02*
X146670095Y-102018057D01*
X146670095Y-102018057D02*
X146717714Y-102113295D01*
X146717714Y-102113295D02*
X146717714Y-102208533D01*
X146717714Y-102208533D02*
X146670095Y-102351390D01*
X146670095Y-102351390D02*
X146098667Y-102922819D01*
X146098667Y-102922819D02*
X146717714Y-102922819D01*
X122793905Y-102647819D02*
X122793905Y-101647819D01*
X122793905Y-101647819D02*
X123032000Y-101647819D01*
X123032000Y-101647819D02*
X123174857Y-101695438D01*
X123174857Y-101695438D02*
X123270095Y-101790676D01*
X123270095Y-101790676D02*
X123317714Y-101885914D01*
X123317714Y-101885914D02*
X123365333Y-102076390D01*
X123365333Y-102076390D02*
X123365333Y-102219247D01*
X123365333Y-102219247D02*
X123317714Y-102409723D01*
X123317714Y-102409723D02*
X123270095Y-102504961D01*
X123270095Y-102504961D02*
X123174857Y-102600200D01*
X123174857Y-102600200D02*
X123032000Y-102647819D01*
X123032000Y-102647819D02*
X122793905Y-102647819D01*
X124222476Y-101647819D02*
X124032000Y-101647819D01*
X124032000Y-101647819D02*
X123936762Y-101695438D01*
X123936762Y-101695438D02*
X123889143Y-101743057D01*
X123889143Y-101743057D02*
X123793905Y-101885914D01*
X123793905Y-101885914D02*
X123746286Y-102076390D01*
X123746286Y-102076390D02*
X123746286Y-102457342D01*
X123746286Y-102457342D02*
X123793905Y-102552580D01*
X123793905Y-102552580D02*
X123841524Y-102600200D01*
X123841524Y-102600200D02*
X123936762Y-102647819D01*
X123936762Y-102647819D02*
X124127238Y-102647819D01*
X124127238Y-102647819D02*
X124222476Y-102600200D01*
X124222476Y-102600200D02*
X124270095Y-102552580D01*
X124270095Y-102552580D02*
X124317714Y-102457342D01*
X124317714Y-102457342D02*
X124317714Y-102219247D01*
X124317714Y-102219247D02*
X124270095Y-102124009D01*
X124270095Y-102124009D02*
X124222476Y-102076390D01*
X124222476Y-102076390D02*
X124127238Y-102028771D01*
X124127238Y-102028771D02*
X123936762Y-102028771D01*
X123936762Y-102028771D02*
X123841524Y-102076390D01*
X123841524Y-102076390D02*
X123793905Y-102124009D01*
X123793905Y-102124009D02*
X123746286Y-102219247D01*
X154101642Y-109942819D02*
X153768309Y-109466628D01*
X153530214Y-109942819D02*
X153530214Y-108942819D01*
X153530214Y-108942819D02*
X153911166Y-108942819D01*
X153911166Y-108942819D02*
X154006404Y-108990438D01*
X154006404Y-108990438D02*
X154054023Y-109038057D01*
X154054023Y-109038057D02*
X154101642Y-109133295D01*
X154101642Y-109133295D02*
X154101642Y-109276152D01*
X154101642Y-109276152D02*
X154054023Y-109371390D01*
X154054023Y-109371390D02*
X154006404Y-109419009D01*
X154006404Y-109419009D02*
X153911166Y-109466628D01*
X153911166Y-109466628D02*
X153530214Y-109466628D01*
X155054023Y-109942819D02*
X154482595Y-109942819D01*
X154768309Y-109942819D02*
X154768309Y-108942819D01*
X154768309Y-108942819D02*
X154673071Y-109085676D01*
X154673071Y-109085676D02*
X154577833Y-109180914D01*
X154577833Y-109180914D02*
X154482595Y-109228533D01*
X156006404Y-109942819D02*
X155434976Y-109942819D01*
X155720690Y-109942819D02*
X155720690Y-108942819D01*
X155720690Y-108942819D02*
X155625452Y-109085676D01*
X155625452Y-109085676D02*
X155530214Y-109180914D01*
X155530214Y-109180914D02*
X155434976Y-109228533D01*
X122361761Y-107818057D02*
X122266523Y-107770438D01*
X122266523Y-107770438D02*
X122171285Y-107675200D01*
X122171285Y-107675200D02*
X122028428Y-107532342D01*
X122028428Y-107532342D02*
X121933190Y-107484723D01*
X121933190Y-107484723D02*
X121837952Y-107484723D01*
X121885571Y-107722819D02*
X121790333Y-107675200D01*
X121790333Y-107675200D02*
X121695095Y-107579961D01*
X121695095Y-107579961D02*
X121647476Y-107389485D01*
X121647476Y-107389485D02*
X121647476Y-107056152D01*
X121647476Y-107056152D02*
X121695095Y-106865676D01*
X121695095Y-106865676D02*
X121790333Y-106770438D01*
X121790333Y-106770438D02*
X121885571Y-106722819D01*
X121885571Y-106722819D02*
X122076047Y-106722819D01*
X122076047Y-106722819D02*
X122171285Y-106770438D01*
X122171285Y-106770438D02*
X122266523Y-106865676D01*
X122266523Y-106865676D02*
X122314142Y-107056152D01*
X122314142Y-107056152D02*
X122314142Y-107389485D01*
X122314142Y-107389485D02*
X122266523Y-107579961D01*
X122266523Y-107579961D02*
X122171285Y-107675200D01*
X122171285Y-107675200D02*
X122076047Y-107722819D01*
X122076047Y-107722819D02*
X121885571Y-107722819D01*
X122647476Y-106722819D02*
X123266523Y-106722819D01*
X123266523Y-106722819D02*
X122933190Y-107103771D01*
X122933190Y-107103771D02*
X123076047Y-107103771D01*
X123076047Y-107103771D02*
X123171285Y-107151390D01*
X123171285Y-107151390D02*
X123218904Y-107199009D01*
X123218904Y-107199009D02*
X123266523Y-107294247D01*
X123266523Y-107294247D02*
X123266523Y-107532342D01*
X123266523Y-107532342D02*
X123218904Y-107627580D01*
X123218904Y-107627580D02*
X123171285Y-107675200D01*
X123171285Y-107675200D02*
X123076047Y-107722819D01*
X123076047Y-107722819D02*
X122790333Y-107722819D01*
X122790333Y-107722819D02*
X122695095Y-107675200D01*
X122695095Y-107675200D02*
X122647476Y-107627580D01*
X127902833Y-134652580D02*
X127855214Y-134700200D01*
X127855214Y-134700200D02*
X127712357Y-134747819D01*
X127712357Y-134747819D02*
X127617119Y-134747819D01*
X127617119Y-134747819D02*
X127474262Y-134700200D01*
X127474262Y-134700200D02*
X127379024Y-134604961D01*
X127379024Y-134604961D02*
X127331405Y-134509723D01*
X127331405Y-134509723D02*
X127283786Y-134319247D01*
X127283786Y-134319247D02*
X127283786Y-134176390D01*
X127283786Y-134176390D02*
X127331405Y-133985914D01*
X127331405Y-133985914D02*
X127379024Y-133890676D01*
X127379024Y-133890676D02*
X127474262Y-133795438D01*
X127474262Y-133795438D02*
X127617119Y-133747819D01*
X127617119Y-133747819D02*
X127712357Y-133747819D01*
X127712357Y-133747819D02*
X127855214Y-133795438D01*
X127855214Y-133795438D02*
X127902833Y-133843057D01*
X128807595Y-133747819D02*
X128331405Y-133747819D01*
X128331405Y-133747819D02*
X128283786Y-134224009D01*
X128283786Y-134224009D02*
X128331405Y-134176390D01*
X128331405Y-134176390D02*
X128426643Y-134128771D01*
X128426643Y-134128771D02*
X128664738Y-134128771D01*
X128664738Y-134128771D02*
X128759976Y-134176390D01*
X128759976Y-134176390D02*
X128807595Y-134224009D01*
X128807595Y-134224009D02*
X128855214Y-134319247D01*
X128855214Y-134319247D02*
X128855214Y-134557342D01*
X128855214Y-134557342D02*
X128807595Y-134652580D01*
X128807595Y-134652580D02*
X128759976Y-134700200D01*
X128759976Y-134700200D02*
X128664738Y-134747819D01*
X128664738Y-134747819D02*
X128426643Y-134747819D01*
X128426643Y-134747819D02*
X128331405Y-134700200D01*
X128331405Y-134700200D02*
X128283786Y-134652580D01*
X170843905Y-116372819D02*
X170843905Y-115372819D01*
X170843905Y-115372819D02*
X171082000Y-115372819D01*
X171082000Y-115372819D02*
X171224857Y-115420438D01*
X171224857Y-115420438D02*
X171320095Y-115515676D01*
X171320095Y-115515676D02*
X171367714Y-115610914D01*
X171367714Y-115610914D02*
X171415333Y-115801390D01*
X171415333Y-115801390D02*
X171415333Y-115944247D01*
X171415333Y-115944247D02*
X171367714Y-116134723D01*
X171367714Y-116134723D02*
X171320095Y-116229961D01*
X171320095Y-116229961D02*
X171224857Y-116325200D01*
X171224857Y-116325200D02*
X171082000Y-116372819D01*
X171082000Y-116372819D02*
X170843905Y-116372819D01*
X171748667Y-115372819D02*
X172415333Y-115372819D01*
X172415333Y-115372819D02*
X171986762Y-116372819D01*
X166843905Y-99872819D02*
X166843905Y-98872819D01*
X166843905Y-98872819D02*
X167082000Y-98872819D01*
X167082000Y-98872819D02*
X167224857Y-98920438D01*
X167224857Y-98920438D02*
X167320095Y-99015676D01*
X167320095Y-99015676D02*
X167367714Y-99110914D01*
X167367714Y-99110914D02*
X167415333Y-99301390D01*
X167415333Y-99301390D02*
X167415333Y-99444247D01*
X167415333Y-99444247D02*
X167367714Y-99634723D01*
X167367714Y-99634723D02*
X167320095Y-99729961D01*
X167320095Y-99729961D02*
X167224857Y-99825200D01*
X167224857Y-99825200D02*
X167082000Y-99872819D01*
X167082000Y-99872819D02*
X166843905Y-99872819D01*
X168367714Y-99872819D02*
X167796286Y-99872819D01*
X168082000Y-99872819D02*
X168082000Y-98872819D01*
X168082000Y-98872819D02*
X167986762Y-99015676D01*
X167986762Y-99015676D02*
X167891524Y-99110914D01*
X167891524Y-99110914D02*
X167796286Y-99158533D01*
X147070095Y-128897819D02*
X147070095Y-129707342D01*
X147070095Y-129707342D02*
X147117714Y-129802580D01*
X147117714Y-129802580D02*
X147165333Y-129850200D01*
X147165333Y-129850200D02*
X147260571Y-129897819D01*
X147260571Y-129897819D02*
X147451047Y-129897819D01*
X147451047Y-129897819D02*
X147546285Y-129850200D01*
X147546285Y-129850200D02*
X147593904Y-129802580D01*
X147593904Y-129802580D02*
X147641523Y-129707342D01*
X147641523Y-129707342D02*
X147641523Y-128897819D01*
X148070095Y-128993057D02*
X148117714Y-128945438D01*
X148117714Y-128945438D02*
X148212952Y-128897819D01*
X148212952Y-128897819D02*
X148451047Y-128897819D01*
X148451047Y-128897819D02*
X148546285Y-128945438D01*
X148546285Y-128945438D02*
X148593904Y-128993057D01*
X148593904Y-128993057D02*
X148641523Y-129088295D01*
X148641523Y-129088295D02*
X148641523Y-129183533D01*
X148641523Y-129183533D02*
X148593904Y-129326390D01*
X148593904Y-129326390D02*
X148022476Y-129897819D01*
X148022476Y-129897819D02*
X148641523Y-129897819D01*
X154101642Y-114822819D02*
X153768309Y-114346628D01*
X153530214Y-114822819D02*
X153530214Y-113822819D01*
X153530214Y-113822819D02*
X153911166Y-113822819D01*
X153911166Y-113822819D02*
X154006404Y-113870438D01*
X154006404Y-113870438D02*
X154054023Y-113918057D01*
X154054023Y-113918057D02*
X154101642Y-114013295D01*
X154101642Y-114013295D02*
X154101642Y-114156152D01*
X154101642Y-114156152D02*
X154054023Y-114251390D01*
X154054023Y-114251390D02*
X154006404Y-114299009D01*
X154006404Y-114299009D02*
X153911166Y-114346628D01*
X153911166Y-114346628D02*
X153530214Y-114346628D01*
X155054023Y-114822819D02*
X154482595Y-114822819D01*
X154768309Y-114822819D02*
X154768309Y-113822819D01*
X154768309Y-113822819D02*
X154673071Y-113965676D01*
X154673071Y-113965676D02*
X154577833Y-114060914D01*
X154577833Y-114060914D02*
X154482595Y-114108533D01*
X155434976Y-113918057D02*
X155482595Y-113870438D01*
X155482595Y-113870438D02*
X155577833Y-113822819D01*
X155577833Y-113822819D02*
X155815928Y-113822819D01*
X155815928Y-113822819D02*
X155911166Y-113870438D01*
X155911166Y-113870438D02*
X155958785Y-113918057D01*
X155958785Y-113918057D02*
X156006404Y-114013295D01*
X156006404Y-114013295D02*
X156006404Y-114108533D01*
X156006404Y-114108533D02*
X155958785Y-114251390D01*
X155958785Y-114251390D02*
X155387357Y-114822819D01*
X155387357Y-114822819D02*
X156006404Y-114822819D01*
X143965333Y-108972819D02*
X143632000Y-108496628D01*
X143393905Y-108972819D02*
X143393905Y-107972819D01*
X143393905Y-107972819D02*
X143774857Y-107972819D01*
X143774857Y-107972819D02*
X143870095Y-108020438D01*
X143870095Y-108020438D02*
X143917714Y-108068057D01*
X143917714Y-108068057D02*
X143965333Y-108163295D01*
X143965333Y-108163295D02*
X143965333Y-108306152D01*
X143965333Y-108306152D02*
X143917714Y-108401390D01*
X143917714Y-108401390D02*
X143870095Y-108449009D01*
X143870095Y-108449009D02*
X143774857Y-108496628D01*
X143774857Y-108496628D02*
X143393905Y-108496628D01*
X144536762Y-108401390D02*
X144441524Y-108353771D01*
X144441524Y-108353771D02*
X144393905Y-108306152D01*
X144393905Y-108306152D02*
X144346286Y-108210914D01*
X144346286Y-108210914D02*
X144346286Y-108163295D01*
X144346286Y-108163295D02*
X144393905Y-108068057D01*
X144393905Y-108068057D02*
X144441524Y-108020438D01*
X144441524Y-108020438D02*
X144536762Y-107972819D01*
X144536762Y-107972819D02*
X144727238Y-107972819D01*
X144727238Y-107972819D02*
X144822476Y-108020438D01*
X144822476Y-108020438D02*
X144870095Y-108068057D01*
X144870095Y-108068057D02*
X144917714Y-108163295D01*
X144917714Y-108163295D02*
X144917714Y-108210914D01*
X144917714Y-108210914D02*
X144870095Y-108306152D01*
X144870095Y-108306152D02*
X144822476Y-108353771D01*
X144822476Y-108353771D02*
X144727238Y-108401390D01*
X144727238Y-108401390D02*
X144536762Y-108401390D01*
X144536762Y-108401390D02*
X144441524Y-108449009D01*
X144441524Y-108449009D02*
X144393905Y-108496628D01*
X144393905Y-108496628D02*
X144346286Y-108591866D01*
X144346286Y-108591866D02*
X144346286Y-108782342D01*
X144346286Y-108782342D02*
X144393905Y-108877580D01*
X144393905Y-108877580D02*
X144441524Y-108925200D01*
X144441524Y-108925200D02*
X144536762Y-108972819D01*
X144536762Y-108972819D02*
X144727238Y-108972819D01*
X144727238Y-108972819D02*
X144822476Y-108925200D01*
X144822476Y-108925200D02*
X144870095Y-108877580D01*
X144870095Y-108877580D02*
X144917714Y-108782342D01*
X144917714Y-108782342D02*
X144917714Y-108591866D01*
X144917714Y-108591866D02*
X144870095Y-108496628D01*
X144870095Y-108496628D02*
X144822476Y-108449009D01*
X144822476Y-108449009D02*
X144727238Y-108401390D01*
X170565333Y-104872819D02*
X170232000Y-104396628D01*
X169993905Y-104872819D02*
X169993905Y-103872819D01*
X169993905Y-103872819D02*
X170374857Y-103872819D01*
X170374857Y-103872819D02*
X170470095Y-103920438D01*
X170470095Y-103920438D02*
X170517714Y-103968057D01*
X170517714Y-103968057D02*
X170565333Y-104063295D01*
X170565333Y-104063295D02*
X170565333Y-104206152D01*
X170565333Y-104206152D02*
X170517714Y-104301390D01*
X170517714Y-104301390D02*
X170470095Y-104349009D01*
X170470095Y-104349009D02*
X170374857Y-104396628D01*
X170374857Y-104396628D02*
X169993905Y-104396628D01*
X170898667Y-103872819D02*
X171517714Y-103872819D01*
X171517714Y-103872819D02*
X171184381Y-104253771D01*
X171184381Y-104253771D02*
X171327238Y-104253771D01*
X171327238Y-104253771D02*
X171422476Y-104301390D01*
X171422476Y-104301390D02*
X171470095Y-104349009D01*
X171470095Y-104349009D02*
X171517714Y-104444247D01*
X171517714Y-104444247D02*
X171517714Y-104682342D01*
X171517714Y-104682342D02*
X171470095Y-104777580D01*
X171470095Y-104777580D02*
X171422476Y-104825200D01*
X171422476Y-104825200D02*
X171327238Y-104872819D01*
X171327238Y-104872819D02*
X171041524Y-104872819D01*
X171041524Y-104872819D02*
X170946286Y-104825200D01*
X170946286Y-104825200D02*
X170898667Y-104777580D01*
X169315333Y-122727580D02*
X169267714Y-122775200D01*
X169267714Y-122775200D02*
X169124857Y-122822819D01*
X169124857Y-122822819D02*
X169029619Y-122822819D01*
X169029619Y-122822819D02*
X168886762Y-122775200D01*
X168886762Y-122775200D02*
X168791524Y-122679961D01*
X168791524Y-122679961D02*
X168743905Y-122584723D01*
X168743905Y-122584723D02*
X168696286Y-122394247D01*
X168696286Y-122394247D02*
X168696286Y-122251390D01*
X168696286Y-122251390D02*
X168743905Y-122060914D01*
X168743905Y-122060914D02*
X168791524Y-121965676D01*
X168791524Y-121965676D02*
X168886762Y-121870438D01*
X168886762Y-121870438D02*
X169029619Y-121822819D01*
X169029619Y-121822819D02*
X169124857Y-121822819D01*
X169124857Y-121822819D02*
X169267714Y-121870438D01*
X169267714Y-121870438D02*
X169315333Y-121918057D01*
X169648667Y-121822819D02*
X170315333Y-121822819D01*
X170315333Y-121822819D02*
X169886762Y-122822819D01*
X148020095Y-102222819D02*
X148020095Y-103032342D01*
X148020095Y-103032342D02*
X148067714Y-103127580D01*
X148067714Y-103127580D02*
X148115333Y-103175200D01*
X148115333Y-103175200D02*
X148210571Y-103222819D01*
X148210571Y-103222819D02*
X148401047Y-103222819D01*
X148401047Y-103222819D02*
X148496285Y-103175200D01*
X148496285Y-103175200D02*
X148543904Y-103127580D01*
X148543904Y-103127580D02*
X148591523Y-103032342D01*
X148591523Y-103032342D02*
X148591523Y-102222819D01*
X149591523Y-103222819D02*
X149020095Y-103222819D01*
X149305809Y-103222819D02*
X149305809Y-102222819D01*
X149305809Y-102222819D02*
X149210571Y-102365676D01*
X149210571Y-102365676D02*
X149115333Y-102460914D01*
X149115333Y-102460914D02*
X149020095Y-102508533D01*
X144165333Y-119897819D02*
X143689143Y-119897819D01*
X143689143Y-119897819D02*
X143689143Y-118897819D01*
X145022476Y-119897819D02*
X144451048Y-119897819D01*
X144736762Y-119897819D02*
X144736762Y-118897819D01*
X144736762Y-118897819D02*
X144641524Y-119040676D01*
X144641524Y-119040676D02*
X144546286Y-119135914D01*
X144546286Y-119135914D02*
X144451048Y-119183533D01*
X127910333Y-130027580D02*
X127862714Y-130075200D01*
X127862714Y-130075200D02*
X127719857Y-130122819D01*
X127719857Y-130122819D02*
X127624619Y-130122819D01*
X127624619Y-130122819D02*
X127481762Y-130075200D01*
X127481762Y-130075200D02*
X127386524Y-129979961D01*
X127386524Y-129979961D02*
X127338905Y-129884723D01*
X127338905Y-129884723D02*
X127291286Y-129694247D01*
X127291286Y-129694247D02*
X127291286Y-129551390D01*
X127291286Y-129551390D02*
X127338905Y-129360914D01*
X127338905Y-129360914D02*
X127386524Y-129265676D01*
X127386524Y-129265676D02*
X127481762Y-129170438D01*
X127481762Y-129170438D02*
X127624619Y-129122819D01*
X127624619Y-129122819D02*
X127719857Y-129122819D01*
X127719857Y-129122819D02*
X127862714Y-129170438D01*
X127862714Y-129170438D02*
X127910333Y-129218057D01*
X128767476Y-129122819D02*
X128577000Y-129122819D01*
X128577000Y-129122819D02*
X128481762Y-129170438D01*
X128481762Y-129170438D02*
X128434143Y-129218057D01*
X128434143Y-129218057D02*
X128338905Y-129360914D01*
X128338905Y-129360914D02*
X128291286Y-129551390D01*
X128291286Y-129551390D02*
X128291286Y-129932342D01*
X128291286Y-129932342D02*
X128338905Y-130027580D01*
X128338905Y-130027580D02*
X128386524Y-130075200D01*
X128386524Y-130075200D02*
X128481762Y-130122819D01*
X128481762Y-130122819D02*
X128672238Y-130122819D01*
X128672238Y-130122819D02*
X128767476Y-130075200D01*
X128767476Y-130075200D02*
X128815095Y-130027580D01*
X128815095Y-130027580D02*
X128862714Y-129932342D01*
X128862714Y-129932342D02*
X128862714Y-129694247D01*
X128862714Y-129694247D02*
X128815095Y-129599009D01*
X128815095Y-129599009D02*
X128767476Y-129551390D01*
X128767476Y-129551390D02*
X128672238Y-129503771D01*
X128672238Y-129503771D02*
X128481762Y-129503771D01*
X128481762Y-129503771D02*
X128386524Y-129551390D01*
X128386524Y-129551390D02*
X128338905Y-129599009D01*
X128338905Y-129599009D02*
X128291286Y-129694247D01*
X140898666Y-109797819D02*
X140898666Y-110512104D01*
X140898666Y-110512104D02*
X140851047Y-110654961D01*
X140851047Y-110654961D02*
X140755809Y-110750200D01*
X140755809Y-110750200D02*
X140612952Y-110797819D01*
X140612952Y-110797819D02*
X140517714Y-110797819D01*
X141327238Y-109893057D02*
X141374857Y-109845438D01*
X141374857Y-109845438D02*
X141470095Y-109797819D01*
X141470095Y-109797819D02*
X141708190Y-109797819D01*
X141708190Y-109797819D02*
X141803428Y-109845438D01*
X141803428Y-109845438D02*
X141851047Y-109893057D01*
X141851047Y-109893057D02*
X141898666Y-109988295D01*
X141898666Y-109988295D02*
X141898666Y-110083533D01*
X141898666Y-110083533D02*
X141851047Y-110226390D01*
X141851047Y-110226390D02*
X141279619Y-110797819D01*
X141279619Y-110797819D02*
X141898666Y-110797819D01*
X147356405Y-109942819D02*
X147356405Y-108942819D01*
X147356405Y-108942819D02*
X147594500Y-108942819D01*
X147594500Y-108942819D02*
X147737357Y-108990438D01*
X147737357Y-108990438D02*
X147832595Y-109085676D01*
X147832595Y-109085676D02*
X147880214Y-109180914D01*
X147880214Y-109180914D02*
X147927833Y-109371390D01*
X147927833Y-109371390D02*
X147927833Y-109514247D01*
X147927833Y-109514247D02*
X147880214Y-109704723D01*
X147880214Y-109704723D02*
X147832595Y-109799961D01*
X147832595Y-109799961D02*
X147737357Y-109895200D01*
X147737357Y-109895200D02*
X147594500Y-109942819D01*
X147594500Y-109942819D02*
X147356405Y-109942819D01*
X148261167Y-108942819D02*
X148880214Y-108942819D01*
X148880214Y-108942819D02*
X148546881Y-109323771D01*
X148546881Y-109323771D02*
X148689738Y-109323771D01*
X148689738Y-109323771D02*
X148784976Y-109371390D01*
X148784976Y-109371390D02*
X148832595Y-109419009D01*
X148832595Y-109419009D02*
X148880214Y-109514247D01*
X148880214Y-109514247D02*
X148880214Y-109752342D01*
X148880214Y-109752342D02*
X148832595Y-109847580D01*
X148832595Y-109847580D02*
X148784976Y-109895200D01*
X148784976Y-109895200D02*
X148689738Y-109942819D01*
X148689738Y-109942819D02*
X148404024Y-109942819D01*
X148404024Y-109942819D02*
X148308786Y-109895200D01*
X148308786Y-109895200D02*
X148261167Y-109847580D01*
X156793905Y-124772819D02*
X156793905Y-123772819D01*
X156793905Y-123772819D02*
X157032000Y-123772819D01*
X157032000Y-123772819D02*
X157174857Y-123820438D01*
X157174857Y-123820438D02*
X157270095Y-123915676D01*
X157270095Y-123915676D02*
X157317714Y-124010914D01*
X157317714Y-124010914D02*
X157365333Y-124201390D01*
X157365333Y-124201390D02*
X157365333Y-124344247D01*
X157365333Y-124344247D02*
X157317714Y-124534723D01*
X157317714Y-124534723D02*
X157270095Y-124629961D01*
X157270095Y-124629961D02*
X157174857Y-124725200D01*
X157174857Y-124725200D02*
X157032000Y-124772819D01*
X157032000Y-124772819D02*
X156793905Y-124772819D01*
X158270095Y-123772819D02*
X157793905Y-123772819D01*
X157793905Y-123772819D02*
X157746286Y-124249009D01*
X157746286Y-124249009D02*
X157793905Y-124201390D01*
X157793905Y-124201390D02*
X157889143Y-124153771D01*
X157889143Y-124153771D02*
X158127238Y-124153771D01*
X158127238Y-124153771D02*
X158222476Y-124201390D01*
X158222476Y-124201390D02*
X158270095Y-124249009D01*
X158270095Y-124249009D02*
X158317714Y-124344247D01*
X158317714Y-124344247D02*
X158317714Y-124582342D01*
X158317714Y-124582342D02*
X158270095Y-124677580D01*
X158270095Y-124677580D02*
X158222476Y-124725200D01*
X158222476Y-124725200D02*
X158127238Y-124772819D01*
X158127238Y-124772819D02*
X157889143Y-124772819D01*
X157889143Y-124772819D02*
X157793905Y-124725200D01*
X157793905Y-124725200D02*
X157746286Y-124677580D01*
X152215333Y-102577580D02*
X152167714Y-102625200D01*
X152167714Y-102625200D02*
X152024857Y-102672819D01*
X152024857Y-102672819D02*
X151929619Y-102672819D01*
X151929619Y-102672819D02*
X151786762Y-102625200D01*
X151786762Y-102625200D02*
X151691524Y-102529961D01*
X151691524Y-102529961D02*
X151643905Y-102434723D01*
X151643905Y-102434723D02*
X151596286Y-102244247D01*
X151596286Y-102244247D02*
X151596286Y-102101390D01*
X151596286Y-102101390D02*
X151643905Y-101910914D01*
X151643905Y-101910914D02*
X151691524Y-101815676D01*
X151691524Y-101815676D02*
X151786762Y-101720438D01*
X151786762Y-101720438D02*
X151929619Y-101672819D01*
X151929619Y-101672819D02*
X152024857Y-101672819D01*
X152024857Y-101672819D02*
X152167714Y-101720438D01*
X152167714Y-101720438D02*
X152215333Y-101768057D01*
X152596286Y-101768057D02*
X152643905Y-101720438D01*
X152643905Y-101720438D02*
X152739143Y-101672819D01*
X152739143Y-101672819D02*
X152977238Y-101672819D01*
X152977238Y-101672819D02*
X153072476Y-101720438D01*
X153072476Y-101720438D02*
X153120095Y-101768057D01*
X153120095Y-101768057D02*
X153167714Y-101863295D01*
X153167714Y-101863295D02*
X153167714Y-101958533D01*
X153167714Y-101958533D02*
X153120095Y-102101390D01*
X153120095Y-102101390D02*
X152548667Y-102672819D01*
X152548667Y-102672819D02*
X153167714Y-102672819D01*
X146689142Y-133972819D02*
X146355809Y-133496628D01*
X146117714Y-133972819D02*
X146117714Y-132972819D01*
X146117714Y-132972819D02*
X146498666Y-132972819D01*
X146498666Y-132972819D02*
X146593904Y-133020438D01*
X146593904Y-133020438D02*
X146641523Y-133068057D01*
X146641523Y-133068057D02*
X146689142Y-133163295D01*
X146689142Y-133163295D02*
X146689142Y-133306152D01*
X146689142Y-133306152D02*
X146641523Y-133401390D01*
X146641523Y-133401390D02*
X146593904Y-133449009D01*
X146593904Y-133449009D02*
X146498666Y-133496628D01*
X146498666Y-133496628D02*
X146117714Y-133496628D01*
X147641523Y-133972819D02*
X147070095Y-133972819D01*
X147355809Y-133972819D02*
X147355809Y-132972819D01*
X147355809Y-132972819D02*
X147260571Y-133115676D01*
X147260571Y-133115676D02*
X147165333Y-133210914D01*
X147165333Y-133210914D02*
X147070095Y-133258533D01*
X148546285Y-132972819D02*
X148070095Y-132972819D01*
X148070095Y-132972819D02*
X148022476Y-133449009D01*
X148022476Y-133449009D02*
X148070095Y-133401390D01*
X148070095Y-133401390D02*
X148165333Y-133353771D01*
X148165333Y-133353771D02*
X148403428Y-133353771D01*
X148403428Y-133353771D02*
X148498666Y-133401390D01*
X148498666Y-133401390D02*
X148546285Y-133449009D01*
X148546285Y-133449009D02*
X148593904Y-133544247D01*
X148593904Y-133544247D02*
X148593904Y-133782342D01*
X148593904Y-133782342D02*
X148546285Y-133877580D01*
X148546285Y-133877580D02*
X148498666Y-133925200D01*
X148498666Y-133925200D02*
X148403428Y-133972819D01*
X148403428Y-133972819D02*
X148165333Y-133972819D01*
X148165333Y-133972819D02*
X148070095Y-133925200D01*
X148070095Y-133925200D02*
X148022476Y-133877580D01*
X150801642Y-109942819D02*
X150468309Y-109466628D01*
X150230214Y-109942819D02*
X150230214Y-108942819D01*
X150230214Y-108942819D02*
X150611166Y-108942819D01*
X150611166Y-108942819D02*
X150706404Y-108990438D01*
X150706404Y-108990438D02*
X150754023Y-109038057D01*
X150754023Y-109038057D02*
X150801642Y-109133295D01*
X150801642Y-109133295D02*
X150801642Y-109276152D01*
X150801642Y-109276152D02*
X150754023Y-109371390D01*
X150754023Y-109371390D02*
X150706404Y-109419009D01*
X150706404Y-109419009D02*
X150611166Y-109466628D01*
X150611166Y-109466628D02*
X150230214Y-109466628D01*
X151754023Y-109942819D02*
X151182595Y-109942819D01*
X151468309Y-109942819D02*
X151468309Y-108942819D01*
X151468309Y-108942819D02*
X151373071Y-109085676D01*
X151373071Y-109085676D02*
X151277833Y-109180914D01*
X151277833Y-109180914D02*
X151182595Y-109228533D01*
X152373071Y-108942819D02*
X152468309Y-108942819D01*
X152468309Y-108942819D02*
X152563547Y-108990438D01*
X152563547Y-108990438D02*
X152611166Y-109038057D01*
X152611166Y-109038057D02*
X152658785Y-109133295D01*
X152658785Y-109133295D02*
X152706404Y-109323771D01*
X152706404Y-109323771D02*
X152706404Y-109561866D01*
X152706404Y-109561866D02*
X152658785Y-109752342D01*
X152658785Y-109752342D02*
X152611166Y-109847580D01*
X152611166Y-109847580D02*
X152563547Y-109895200D01*
X152563547Y-109895200D02*
X152468309Y-109942819D01*
X152468309Y-109942819D02*
X152373071Y-109942819D01*
X152373071Y-109942819D02*
X152277833Y-109895200D01*
X152277833Y-109895200D02*
X152230214Y-109847580D01*
X152230214Y-109847580D02*
X152182595Y-109752342D01*
X152182595Y-109752342D02*
X152134976Y-109561866D01*
X152134976Y-109561866D02*
X152134976Y-109323771D01*
X152134976Y-109323771D02*
X152182595Y-109133295D01*
X152182595Y-109133295D02*
X152230214Y-109038057D01*
X152230214Y-109038057D02*
X152277833Y-108990438D01*
X152277833Y-108990438D02*
X152373071Y-108942819D01*
D11*
X148669742Y-134695500D02*
X149144258Y-134695500D01*
X148669742Y-135740500D02*
X149144258Y-135740500D01*
X162282000Y-106508000D02*
X162282000Y-112318000D01*
X166582000Y-106508000D02*
X162282000Y-106508000D01*
X166582000Y-106508000D02*
X166582000Y-112318000D01*
X123897000Y-111730500D02*
X123897000Y-111080500D01*
X123897000Y-111730500D02*
X123897000Y-112380500D01*
X127017000Y-111730500D02*
X127017000Y-111080500D01*
X127017000Y-111730500D02*
X127017000Y-112380500D01*
X127297000Y-110808000D02*
X126967000Y-110568000D01*
X127297000Y-110328000D01*
X127297000Y-110808000D01*
G36*
X127297000Y-110808000D02*
G01*
X126967000Y-110568000D01*
X127297000Y-110328000D01*
X127297000Y-110808000D01*
G37*
X159509500Y-107430258D02*
X159509500Y-106955742D01*
X160554500Y-107430258D02*
X160554500Y-106955742D01*
X167822000Y-108740936D02*
X167822000Y-110195064D01*
X169642000Y-108740936D02*
X169642000Y-110195064D01*
X126332000Y-124278000D02*
X130242000Y-124278000D01*
X130242000Y-122408000D02*
X126332000Y-122408000D01*
X130242000Y-124278000D02*
X130242000Y-122408000D01*
X121344258Y-103345500D02*
X120869742Y-103345500D01*
X121344258Y-104390500D02*
X120869742Y-104390500D01*
X172122000Y-101083000D02*
X179843000Y-101083000D01*
X172122000Y-111203000D02*
X172122000Y-101083000D01*
X172122000Y-111203000D02*
X179843000Y-111203000D01*
X173882000Y-111203000D02*
X173882000Y-101083000D01*
X175007000Y-102573000D02*
X175066000Y-102632000D01*
X175213000Y-102368000D02*
X175306000Y-102462000D01*
X177258000Y-104823000D02*
X177351000Y-104917000D01*
X177498000Y-104653000D02*
X177556000Y-104712000D01*
X178582000Y-111203000D02*
X178582000Y-101083000D01*
X179182000Y-111203000D02*
X179182000Y-101083000D01*
X179242000Y-111443000D02*
X180082000Y-111443000D01*
X179843000Y-111203000D02*
X179843000Y-101083000D01*
X180082000Y-111443000D02*
X180082000Y-110843000D01*
X174798047Y-109432089D02*
G75*
G02*
X174798000Y-107854000I1483948J789089D01*
G01*
X175492911Y-107159047D02*
G75*
G02*
X177071000Y-107159000I789089J-1483953D01*
G01*
X177071089Y-110126953D02*
G75*
G02*
X175493000Y-110127000I-789089J1483948D01*
G01*
X177765352Y-107854288D02*
G75*
G02*
X177962000Y-108643000I-1483352J-788712D01*
G01*
X177962450Y-108613617D02*
G75*
G02*
X177766000Y-109432000I-1680445J-29385D01*
G01*
X173832000Y-103643000D02*
G75*
G02*
X172732000Y-103643000I-550000J0D01*
G01*
X172732000Y-103643000D02*
G75*
G02*
X173832000Y-103643000I550000J0D01*
G01*
X173832000Y-108643000D02*
G75*
G02*
X172732000Y-108643000I-550000J0D01*
G01*
X172732000Y-108643000D02*
G75*
G02*
X173832000Y-108643000I550000J0D01*
G01*
X177962000Y-103643000D02*
G75*
G02*
X174602000Y-103643000I-1680000J0D01*
G01*
X174602000Y-103643000D02*
G75*
G02*
X177962000Y-103643000I1680000J0D01*
G01*
X151207242Y-112345500D02*
X151681758Y-112345500D01*
X151207242Y-113390500D02*
X151681758Y-113390500D01*
X156809500Y-104205742D02*
X156809500Y-104680258D01*
X157854500Y-104205742D02*
X157854500Y-104680258D01*
X146609500Y-112133000D02*
X146609500Y-113603000D01*
X146609500Y-113603000D02*
X148894500Y-113603000D01*
X148894500Y-112133000D02*
X146609500Y-112133000D01*
X130044258Y-105745500D02*
X129569742Y-105745500D01*
X130044258Y-106790500D02*
X129569742Y-106790500D01*
X172122000Y-121858000D02*
X179843000Y-121858000D01*
X172122000Y-131978000D02*
X172122000Y-121858000D01*
X172122000Y-131978000D02*
X179843000Y-131978000D01*
X173882000Y-131978000D02*
X173882000Y-121858000D01*
X175007000Y-123348000D02*
X175066000Y-123407000D01*
X175213000Y-123143000D02*
X175306000Y-123237000D01*
X177258000Y-125598000D02*
X177351000Y-125692000D01*
X177498000Y-125428000D02*
X177556000Y-125487000D01*
X178582000Y-131978000D02*
X178582000Y-121858000D01*
X179182000Y-131978000D02*
X179182000Y-121858000D01*
X179242000Y-132218000D02*
X180082000Y-132218000D01*
X179843000Y-131978000D02*
X179843000Y-121858000D01*
X180082000Y-132218000D02*
X180082000Y-131618000D01*
X174798047Y-130207089D02*
G75*
G02*
X174798000Y-128629000I1483948J789089D01*
G01*
X175492911Y-127934047D02*
G75*
G02*
X177071000Y-127934000I789089J-1483953D01*
G01*
X177071089Y-130901953D02*
G75*
G02*
X175493000Y-130902000I-789089J1483948D01*
G01*
X177765352Y-128629288D02*
G75*
G02*
X177962000Y-129418000I-1483352J-788712D01*
G01*
X177962450Y-129388617D02*
G75*
G02*
X177766000Y-130207000I-1680445J-29385D01*
G01*
X173832000Y-124418000D02*
G75*
G02*
X172732000Y-124418000I-550000J0D01*
G01*
X172732000Y-124418000D02*
G75*
G02*
X173832000Y-124418000I550000J0D01*
G01*
X173832000Y-129418000D02*
G75*
G02*
X172732000Y-129418000I-550000J0D01*
G01*
X172732000Y-129418000D02*
G75*
G02*
X173832000Y-129418000I550000J0D01*
G01*
X177962000Y-124418000D02*
G75*
G02*
X174602000Y-124418000I-1680000J0D01*
G01*
X174602000Y-124418000D02*
G75*
G02*
X177962000Y-124418000I1680000J0D01*
G01*
X156809500Y-108405258D02*
X156809500Y-107930742D01*
X157854500Y-108405258D02*
X157854500Y-107930742D01*
X127722000Y-111730500D02*
X127722000Y-111080500D01*
X127722000Y-111730500D02*
X127722000Y-112380500D01*
X130842000Y-111730500D02*
X130842000Y-111080500D01*
X130842000Y-111730500D02*
X130842000Y-112380500D01*
X131122000Y-110808000D02*
X130792000Y-110568000D01*
X131122000Y-110328000D01*
X131122000Y-110808000D01*
G36*
X131122000Y-110808000D02*
G01*
X130792000Y-110568000D01*
X131122000Y-110328000D01*
X131122000Y-110808000D01*
G37*
X153222000Y-99183000D02*
X153222000Y-101053000D01*
X153222000Y-101053000D02*
X157132000Y-101053000D01*
X157132000Y-99183000D02*
X153222000Y-99183000D01*
X147172000Y-126658580D02*
X147172000Y-126377420D01*
X148192000Y-126658580D02*
X148192000Y-126377420D01*
X157397000Y-129202420D02*
X157397000Y-129483580D01*
X158417000Y-129202420D02*
X158417000Y-129483580D01*
X129569742Y-107645500D02*
X130044258Y-107645500D01*
X129569742Y-108690500D02*
X130044258Y-108690500D01*
X145409500Y-104830258D02*
X145409500Y-104355742D01*
X146454500Y-104830258D02*
X146454500Y-104355742D01*
X119572000Y-101433000D02*
X119572000Y-102903000D01*
X119572000Y-102903000D02*
X121857000Y-102903000D01*
X121857000Y-101433000D02*
X119572000Y-101433000D01*
X154507242Y-110395500D02*
X154981758Y-110395500D01*
X154507242Y-111440500D02*
X154981758Y-111440500D01*
X125469500Y-105658000D02*
X124819500Y-105658000D01*
X125469500Y-105658000D02*
X126119500Y-105658000D01*
X125469500Y-108778000D02*
X124819500Y-108778000D01*
X125469500Y-108778000D02*
X126119500Y-108778000D01*
X126872000Y-109058000D02*
X126392000Y-109058000D01*
X126632000Y-108728000D01*
X126872000Y-109058000D01*
G36*
X126872000Y-109058000D02*
G01*
X126392000Y-109058000D01*
X126632000Y-108728000D01*
X126872000Y-109058000D01*
G37*
X126319500Y-133453000D02*
X130529500Y-133453000D01*
X130529500Y-130433000D02*
X126319500Y-130433000D01*
X130529500Y-133453000D02*
X130529500Y-130433000D01*
X168072000Y-116768000D02*
X168072000Y-120068000D01*
X168072000Y-116768000D02*
X173582000Y-116768000D01*
X168072000Y-120068000D02*
X173582000Y-120068000D01*
X162282000Y-105828000D02*
X162282000Y-100018000D01*
X162282000Y-105828000D02*
X166582000Y-105828000D01*
X166582000Y-105828000D02*
X166582000Y-100018000D01*
D10*
X150657000Y-126618000D02*
X154807000Y-126618000D01*
X150657000Y-131768000D02*
X154807000Y-131768000D01*
D11*
X150232000Y-126693000D02*
X149992000Y-126363000D01*
X150472000Y-126363000D01*
X150232000Y-126693000D01*
G36*
X150232000Y-126693000D02*
G01*
X149992000Y-126363000D01*
X150472000Y-126363000D01*
X150232000Y-126693000D01*
G37*
X154507242Y-112345500D02*
X154981758Y-112345500D01*
X154507242Y-113390500D02*
X154981758Y-113390500D01*
X145409500Y-107805742D02*
X145409500Y-108280258D01*
X146454500Y-107805742D02*
X146454500Y-108280258D01*
X167822000Y-103632564D02*
X167822000Y-102178436D01*
X169642000Y-103632564D02*
X169642000Y-102178436D01*
X161647000Y-124272437D02*
X161647000Y-131728000D01*
X161647000Y-131728000D02*
X164597000Y-131728000D01*
X162711437Y-123208000D02*
X161647000Y-124272437D01*
X162711437Y-123208000D02*
X164597000Y-123208000D01*
X169102563Y-123208000D02*
X167217000Y-123208000D01*
X169102563Y-123208000D02*
X170167000Y-124272437D01*
X170167000Y-124272437D02*
X170167000Y-131728000D01*
X170167000Y-131728000D02*
X167217000Y-131728000D01*
D12*
X149682000Y-103748000D02*
X153682000Y-103748000D01*
X149682000Y-108788000D02*
X153682000Y-108788000D01*
D13*
X147337000Y-103773000D02*
G75*
G02*
X147137000Y-103773000I-100000J0D01*
G01*
X147137000Y-103773000D02*
G75*
G02*
X147337000Y-103773000I100000J0D01*
G01*
D11*
X132197000Y-120283000D02*
X132197000Y-133303000D01*
X132197000Y-120283000D02*
X135747000Y-120283000D01*
X132197000Y-133303000D02*
X135747000Y-133303000D01*
X145217000Y-120283000D02*
X141667000Y-120283000D01*
X145217000Y-120283000D02*
X145217000Y-133303000D01*
X145217000Y-133303000D02*
X141667000Y-133303000D01*
X126327000Y-128828000D02*
X130537000Y-128828000D01*
X130537000Y-125808000D02*
X126327000Y-125808000D01*
X130537000Y-128828000D02*
X130537000Y-125808000D01*
X139902000Y-103688000D02*
X141232000Y-103688000D01*
X139902000Y-105018000D02*
X139902000Y-103688000D01*
X139902000Y-106288000D02*
X139902000Y-108888000D01*
X139902000Y-106288000D02*
X142562000Y-106288000D01*
X139902000Y-108888000D02*
X142562000Y-108888000D01*
X142562000Y-106288000D02*
X142562000Y-108888000D01*
X146609500Y-110183000D02*
X146609500Y-111653000D01*
X146609500Y-111653000D02*
X148894500Y-111653000D01*
X148894500Y-110183000D02*
X146609500Y-110183000D01*
X156442000Y-122543000D02*
X150932000Y-122543000D01*
X156442000Y-125843000D02*
X150932000Y-125843000D01*
X156442000Y-125843000D02*
X156442000Y-122543000D01*
X154791420Y-101708000D02*
X155072580Y-101708000D01*
X154791420Y-102728000D02*
X155072580Y-102728000D01*
X150319742Y-132970500D02*
X150794258Y-132970500D01*
X150319742Y-134015500D02*
X150794258Y-134015500D01*
X151207242Y-110395500D02*
X151681758Y-110395500D01*
X151207242Y-111440500D02*
X151681758Y-111440500D01*
M02*
