M48
; DRILL file {KiCad 8.0.7} date 2024-12-23T21:13:02-0800
; FORMAT={-:-/ absolute / inch / decimal}
; #@! TF.CreationDate,2024-12-23T21:13:02-08:00
; #@! TF.GenerationSoftware,Kicad,Pcbnew,8.0.7
; #@! TF.FileFunction,Plated,1,2,PTH
FMAT,2
INCH
; #@! TA.AperFunction,Plated,PTH,ComponentDrill
T1C0.0118
; #@! TA.AperFunction,Plated,PTH,ViaDrill
T2C0.0157
; #@! TA.AperFunction,Plated,PTH,ComponentDrill
T3C0.0394
; #@! TA.AperFunction,Plated,PTH,ComponentDrill
T4C0.0512
; #@! TA.AperFunction,Plated,PTH,ComponentDrill
T5C0.1181
%
G90
G05
T1
X5.9894Y-5.0155
X5.9894Y-5.0627
X5.9894Y-5.1139
X5.9894Y-5.1572
X6.0367Y-5.0155
X6.0367Y-5.0627
X6.0367Y-5.1139
X6.0367Y-5.1572
T2
X4.8467Y-4.0706
X4.9146Y-4.9987
X4.9146Y-5.0381
X4.9146Y-5.168
X4.9146Y-5.2074
X4.9186Y-4.8728
X5.1902Y-4.2487
X5.1922Y-4.2025
X5.4304Y-4.1828
X5.5328Y-4.0233
X5.5908Y-4.0165
X5.6627Y-4.0863
X5.6794Y-4.3186
X5.6853Y-4.0332
X5.8005Y-4.1562
X5.8005Y-4.2094
X5.8871Y-4.3137
X6.015Y-5.2527
X6.1391Y-4.2606
X6.2139Y-5.168
X6.2434Y-4.1857
X6.3005Y-4.1346
X6.3438Y-4.1424
X6.3497Y-4.1011
X6.5091Y-5.2901
X6.5446Y-5.2901
T3
X4.958Y-3.6739
X4.958Y-3.7739
X5.058Y-3.6739
X5.058Y-3.7739
X5.158Y-3.6739
X5.158Y-3.7739
X5.258Y-3.6739
X5.258Y-3.7739
X5.358Y-3.6739
X5.358Y-3.7739
X5.458Y-3.6739
X5.458Y-3.7739
X5.558Y-3.6739
X5.558Y-3.7739
X5.5603Y-4.1346
X5.5603Y-4.2346
X5.658Y-3.6739
X5.658Y-3.7739
X5.758Y-3.6739
X5.758Y-3.7739
X5.858Y-3.6739
X5.858Y-3.7739
X5.958Y-3.6739
X5.958Y-3.7739
X6.058Y-3.6739
X6.058Y-3.7739
X6.158Y-3.6739
X6.158Y-3.7739
X6.258Y-3.6739
X6.258Y-3.7739
X6.358Y-3.6739
X6.358Y-3.7739
X6.458Y-3.6739
X6.458Y-3.7739
X6.558Y-3.6739
X6.558Y-3.7739
X6.658Y-3.6739
X6.658Y-3.7739
X6.758Y-3.6739
X6.758Y-3.7739
X6.858Y-3.6739
X6.858Y-3.7739
T4
X6.9402Y-4.0804
X6.9402Y-4.2773
X6.9402Y-4.8983
X6.9402Y-5.0952
T5
X4.765Y-3.7231
X4.765Y-4.6287
X4.765Y-5.6523
X7.0485Y-3.7231
X7.0485Y-4.6287
X7.0485Y-5.6523
M30
