M48
; DRILL file {KiCad 8.0.7} date 2024-12-19T16:17:40-0800
; FORMAT={-:-/ absolute / inch / decimal}
; #@! TF.CreationDate,2024-12-19T16:17:40-08:00
; #@! TF.GenerationSoftware,Kicad,Pcbnew,8.0.7
; #@! TF.FileFunction,Plated,1,2,PTH
FMAT,2
INCH
; #@! TA.AperFunction,Plated,PTH,ViaDrill
T1C0.0157
; #@! TA.AperFunction,Plated,PTH,ComponentDrill
T2C0.0394
; #@! TA.AperFunction,Plated,PTH,ComponentDrill
T3C0.0512
; #@! TA.AperFunction,Plated,PTH,ComponentDrill
T4C0.1181
%
G90
G05
T1
X5.3457Y-4.4121
X5.6607Y-4.0578
X5.6607Y-4.0972
X5.6607Y-4.1365
X5.6607Y-4.1759
X5.7965Y-4.2743
X5.8083Y-5.0125
X5.8477Y-5.0125
X5.8871Y-4.796
X5.8871Y-4.8354
X5.9265Y-4.796
X5.9265Y-4.8354
X5.9658Y-4.796
X5.9658Y-4.8354
X5.9776Y-4.1208
X5.9855Y-4.4161
X6.1312Y-4.3649
X6.143Y-5.0519
X6.143Y-5.0913
X6.1824Y-5.0519
X6.1824Y-5.0913
X6.2217Y-5.0913
X6.2276Y-4.8491
X6.4422Y-5.3609
X6.458Y-4.9672
X6.5367Y-4.9672
X6.5741Y-5.2231
T2
X4.728Y-4.3609
X4.828Y-4.3609
X4.958Y-3.6739
X4.958Y-3.7739
X5.058Y-3.6739
X5.058Y-3.7739
X5.158Y-3.6739
X5.158Y-3.7739
X5.258Y-3.6739
X5.258Y-3.7739
X5.358Y-3.6739
X5.358Y-3.7739
X5.458Y-3.6739
X5.458Y-3.7739
X5.458Y-4.107
X5.558Y-3.6739
X5.558Y-3.7739
X5.558Y-4.107
X5.658Y-3.6739
X5.658Y-3.7739
X5.758Y-3.6739
X5.758Y-3.7739
X5.858Y-3.6739
X5.858Y-3.7739
X5.958Y-3.6739
X5.958Y-3.7739
X6.058Y-3.6739
X6.058Y-3.7739
X6.158Y-3.6739
X6.158Y-3.7739
X6.258Y-3.6739
X6.258Y-3.7739
X6.358Y-3.6739
X6.358Y-3.7739
X6.458Y-3.6739
X6.458Y-3.7739
X6.558Y-3.6739
X6.558Y-3.7739
X6.658Y-3.6739
X6.658Y-3.7739
X6.758Y-3.6739
X6.758Y-3.7739
X6.858Y-3.6739
X6.858Y-3.7739
T3
X6.9442Y-4.0814
X6.9442Y-4.2783
X6.9442Y-4.8944
X6.9442Y-5.0913
T4
X4.765Y-3.7231
X4.765Y-4.6287
X7.0485Y-3.7231
X7.0485Y-4.6287
M30
