G04 #@! TF.GenerationSoftware,KiCad,Pcbnew,8.0.7*
G04 #@! TF.CreationDate,2024-12-19T16:17:46-08:00*
G04 #@! TF.ProjectId,pi-zero-serial-hat,70692d7a-6572-46f2-9d73-657269616c2d,1.0*
G04 #@! TF.SameCoordinates,Original*
G04 #@! TF.FileFunction,Copper,L2,Bot*
G04 #@! TF.FilePolarity,Positive*
%FSLAX46Y46*%
G04 Gerber Fmt 4.6, Leading zero omitted, Abs format (unit mm)*
G04 Created by KiCad (PCBNEW 8.0.7) date 2024-12-19 16:17:46*
%MOMM*%
%LPD*%
G01*
G04 APERTURE LIST*
G04 #@! TA.AperFunction,ComponentPad*
%ADD10C,6.000000*%
G04 #@! TD*
G04 #@! TA.AperFunction,ComponentPad*
%ADD11R,2.500000X2.500000*%
G04 #@! TD*
G04 #@! TA.AperFunction,ComponentPad*
%ADD12C,2.500000*%
G04 #@! TD*
G04 #@! TA.AperFunction,ComponentPad*
%ADD13R,1.700000X1.700000*%
G04 #@! TD*
G04 #@! TA.AperFunction,ComponentPad*
%ADD14O,1.700000X1.700000*%
G04 #@! TD*
G04 #@! TA.AperFunction,ComponentPad*
%ADD15C,1.700000*%
G04 #@! TD*
G04 #@! TA.AperFunction,ViaPad*
%ADD16C,0.800000*%
G04 #@! TD*
G04 #@! TA.AperFunction,Conductor*
%ADD17C,0.500000*%
G04 #@! TD*
G04 APERTURE END LIST*
D10*
X121032000Y-94568000D03*
X179032000Y-94568000D03*
X179032000Y-117568000D03*
X121032000Y-117568000D03*
D11*
X176382000Y-129318000D03*
D12*
X176382000Y-124318000D03*
D13*
X122632000Y-110768000D03*
D14*
X120092000Y-110768000D03*
D13*
X138632000Y-104318000D03*
D14*
X141172000Y-104318000D03*
D11*
X176382000Y-108668000D03*
D12*
X176382000Y-103668000D03*
D15*
X125932000Y-95858000D03*
D13*
X125932000Y-93318000D03*
D14*
X128472000Y-95858000D03*
D13*
X128472000Y-93318000D03*
D14*
X131012000Y-95858000D03*
X131012000Y-93318000D03*
X133552000Y-95858000D03*
X133552000Y-93318000D03*
X136092000Y-95858000D03*
X136092000Y-93318000D03*
X138632000Y-95858000D03*
X138632000Y-93318000D03*
X141172000Y-95858000D03*
X141172000Y-93318000D03*
X143712000Y-95858000D03*
X143712000Y-93318000D03*
D15*
X146252000Y-95858000D03*
D14*
X146252000Y-93318000D03*
X148792000Y-95858000D03*
X148792000Y-93318000D03*
X151332000Y-95858000D03*
X151332000Y-93318000D03*
X153872000Y-95858000D03*
X153872000Y-93318000D03*
X156412000Y-95858000D03*
X156412000Y-93318000D03*
X158952000Y-95858000D03*
X158952000Y-93318000D03*
X161492000Y-95858000D03*
X161492000Y-93318000D03*
X164032000Y-95858000D03*
X164032000Y-93318000D03*
X166572000Y-95858000D03*
X166572000Y-93318000D03*
X169112000Y-95858000D03*
X169112000Y-93318000D03*
X171652000Y-95858000D03*
X171652000Y-93318000D03*
X174192000Y-95858000D03*
X174192000Y-93318000D03*
D16*
X150532000Y-122818000D03*
X163632000Y-136168000D03*
X143782000Y-105068000D03*
X157032000Y-128318000D03*
X157032000Y-129318000D03*
X148532000Y-127318000D03*
X151532000Y-121818000D03*
X164032000Y-126168000D03*
X151532000Y-122818000D03*
X156032000Y-128318000D03*
X150532000Y-121818000D03*
X158182000Y-123168000D03*
X149532000Y-121818000D03*
X135782000Y-112068000D03*
X143782000Y-106068000D03*
X143782000Y-104068000D03*
X166982000Y-132668000D03*
X155732000Y-110868000D03*
X166032000Y-126168000D03*
X152032000Y-112168000D03*
X158032000Y-129318000D03*
X156032000Y-129318000D03*
X143782000Y-103068000D03*
X147532000Y-127318000D03*
X149532000Y-122818000D03*
X151832000Y-104668000D03*
X147232000Y-108568000D03*
D17*
X128442000Y-93298000D02*
X125842000Y-93298000D01*
X124602000Y-97138000D02*
X126432000Y-98968000D01*
X125842000Y-93298000D02*
X124602000Y-94538000D01*
X124602000Y-94538000D02*
X124602000Y-97138000D01*
X149272000Y-98968000D02*
X151832000Y-101528000D01*
X126432000Y-98968000D02*
X149272000Y-98968000D01*
X151832000Y-101528000D02*
X151832000Y-104668000D01*
X151832000Y-104668000D02*
X148632000Y-104668000D01*
X148632000Y-104668000D02*
X147232000Y-106068000D01*
X147232000Y-106068000D02*
X147232000Y-108568000D01*
G04 #@! TA.AperFunction,Conductor*
G36*
X179535801Y-91568730D02*
G01*
X179565105Y-91570502D01*
X179825684Y-91586264D01*
X179840765Y-91588095D01*
X180122682Y-91639758D01*
X180137429Y-91643393D01*
X180411071Y-91728663D01*
X180425283Y-91734054D01*
X180686624Y-91851674D01*
X180700090Y-91858740D01*
X180945367Y-92007016D01*
X180957866Y-92015643D01*
X181183485Y-92192404D01*
X181194865Y-92202487D01*
X181397512Y-92405134D01*
X181407596Y-92416515D01*
X181584353Y-92642130D01*
X181592985Y-92654635D01*
X181733633Y-92887295D01*
X181741255Y-92899903D01*
X181748325Y-92913375D01*
X181865943Y-93174711D01*
X181871339Y-93188937D01*
X181956602Y-93462554D01*
X181960243Y-93477328D01*
X182011902Y-93759222D01*
X182013736Y-93774326D01*
X182030682Y-94054485D01*
X182031270Y-94064197D01*
X182031500Y-94071805D01*
X182031500Y-138064194D01*
X182031270Y-138071802D01*
X182013736Y-138361673D01*
X182011902Y-138376777D01*
X181960243Y-138658671D01*
X181956602Y-138673445D01*
X181871339Y-138947062D01*
X181865943Y-138961288D01*
X181748325Y-139222624D01*
X181741255Y-139236096D01*
X181592990Y-139481357D01*
X181584347Y-139493877D01*
X181464967Y-139646255D01*
X181407602Y-139719477D01*
X181397512Y-139730865D01*
X181194865Y-139933512D01*
X181183477Y-139943602D01*
X180957880Y-140120346D01*
X180945357Y-140128990D01*
X180700096Y-140277255D01*
X180686624Y-140284325D01*
X180425288Y-140401943D01*
X180411062Y-140407339D01*
X180137445Y-140492602D01*
X180122671Y-140496243D01*
X179840777Y-140547902D01*
X179825673Y-140549736D01*
X179535802Y-140567270D01*
X179528194Y-140567500D01*
X120535806Y-140567500D01*
X120528198Y-140567270D01*
X120238326Y-140549736D01*
X120223222Y-140547902D01*
X119941328Y-140496243D01*
X119926558Y-140492603D01*
X119652937Y-140407339D01*
X119638711Y-140401943D01*
X119377375Y-140284325D01*
X119363903Y-140277255D01*
X119118635Y-140128985D01*
X119106130Y-140120353D01*
X118880515Y-139943596D01*
X118869134Y-139933512D01*
X118666487Y-139730865D01*
X118656404Y-139719485D01*
X118479643Y-139493866D01*
X118471016Y-139481367D01*
X118322740Y-139236090D01*
X118315674Y-139222624D01*
X118198056Y-138961288D01*
X118192663Y-138947071D01*
X118107393Y-138673429D01*
X118103758Y-138658682D01*
X118052095Y-138376765D01*
X118050264Y-138361684D01*
X118032730Y-138071801D01*
X118032500Y-138064194D01*
X118032500Y-135768000D01*
X154232000Y-135768000D01*
X162232000Y-135768000D01*
X162232000Y-130168000D01*
X154232000Y-130168000D01*
X154232000Y-135768000D01*
X118032500Y-135768000D01*
X118032500Y-124318000D01*
X174618569Y-124318000D01*
X174638265Y-124580826D01*
X174638266Y-124580830D01*
X174696911Y-124837775D01*
X174793202Y-125083120D01*
X174793205Y-125083128D01*
X174924982Y-125311372D01*
X174924984Y-125311375D01*
X174924985Y-125311376D01*
X175089314Y-125517438D01*
X175282519Y-125696706D01*
X175282525Y-125696710D01*
X175500275Y-125845170D01*
X175500279Y-125845172D01*
X175500285Y-125845176D01*
X175737746Y-125959532D01*
X175737749Y-125959532D01*
X175737754Y-125959535D01*
X175989589Y-126037215D01*
X175989591Y-126037215D01*
X175989600Y-126037218D01*
X176250219Y-126076500D01*
X176250223Y-126076500D01*
X176513777Y-126076500D01*
X176513781Y-126076500D01*
X176774400Y-126037218D01*
X176774410Y-126037215D01*
X177026245Y-125959535D01*
X177026247Y-125959534D01*
X177026254Y-125959532D01*
X177263716Y-125845176D01*
X177481481Y-125696706D01*
X177674686Y-125517438D01*
X177839015Y-125311376D01*
X177970796Y-125083124D01*
X178067087Y-124837780D01*
X178125735Y-124580826D01*
X178145431Y-124318000D01*
X178125735Y-124055174D01*
X178067087Y-123798220D01*
X177970796Y-123552876D01*
X177970795Y-123552875D01*
X177970794Y-123552871D01*
X177839017Y-123324627D01*
X177839015Y-123324624D01*
X177674686Y-123118562D01*
X177481481Y-122939294D01*
X177481474Y-122939289D01*
X177263725Y-122790829D01*
X177263718Y-122790825D01*
X177026257Y-122676469D01*
X177026245Y-122676464D01*
X176774410Y-122598784D01*
X176774402Y-122598782D01*
X176774400Y-122598782D01*
X176513781Y-122559500D01*
X176250219Y-122559500D01*
X175989600Y-122598782D01*
X175989598Y-122598782D01*
X175989589Y-122598784D01*
X175737754Y-122676464D01*
X175737742Y-122676469D01*
X175500283Y-122790825D01*
X175500275Y-122790829D01*
X175282525Y-122939289D01*
X175282520Y-122939293D01*
X175089315Y-123118561D01*
X174924982Y-123324627D01*
X174793205Y-123552871D01*
X174793202Y-123552879D01*
X174696911Y-123798224D01*
X174638266Y-124055169D01*
X174638265Y-124055174D01*
X174618569Y-124318000D01*
X118032500Y-124318000D01*
X118032500Y-110768000D01*
X118728844Y-110768000D01*
X118747437Y-110992375D01*
X118802702Y-111210612D01*
X118802703Y-111210613D01*
X118893141Y-111416793D01*
X119016275Y-111605265D01*
X119016279Y-111605270D01*
X119168762Y-111770908D01*
X119223331Y-111813381D01*
X119346424Y-111909189D01*
X119544426Y-112016342D01*
X119544427Y-112016342D01*
X119544428Y-112016343D01*
X119656227Y-112054723D01*
X119757365Y-112089444D01*
X119979431Y-112126500D01*
X119979435Y-112126500D01*
X120204565Y-112126500D01*
X120204569Y-112126500D01*
X120426635Y-112089444D01*
X120639574Y-112016342D01*
X120837576Y-111909189D01*
X121015240Y-111770906D01*
X121076245Y-111704637D01*
X121137096Y-111668067D01*
X121208061Y-111670200D01*
X121266606Y-111710362D01*
X121287000Y-111745941D01*
X121331111Y-111864204D01*
X121331112Y-111864207D01*
X121418738Y-111981261D01*
X121535792Y-112068887D01*
X121535794Y-112068888D01*
X121535796Y-112068889D01*
X121590900Y-112089442D01*
X121672795Y-112119988D01*
X121672803Y-112119990D01*
X121733350Y-112126499D01*
X121733355Y-112126499D01*
X121733362Y-112126500D01*
X121733368Y-112126500D01*
X123530632Y-112126500D01*
X123530638Y-112126500D01*
X123530645Y-112126499D01*
X123530649Y-112126499D01*
X123591196Y-112119990D01*
X123591199Y-112119989D01*
X123591201Y-112119989D01*
X123728204Y-112068889D01*
X123798399Y-112016342D01*
X123845261Y-111981261D01*
X123932887Y-111864207D01*
X123932887Y-111864206D01*
X123932889Y-111864204D01*
X123983989Y-111727201D01*
X123985800Y-111710362D01*
X123990499Y-111666649D01*
X123990500Y-111666632D01*
X123990500Y-109869367D01*
X123990499Y-109869350D01*
X123983990Y-109808803D01*
X123983988Y-109808795D01*
X123932889Y-109671797D01*
X123932887Y-109671792D01*
X123845261Y-109554738D01*
X123728207Y-109467112D01*
X123728202Y-109467110D01*
X123591204Y-109416011D01*
X123591196Y-109416009D01*
X123530649Y-109409500D01*
X123530638Y-109409500D01*
X121733362Y-109409500D01*
X121733350Y-109409500D01*
X121672803Y-109416009D01*
X121672795Y-109416011D01*
X121535797Y-109467110D01*
X121535792Y-109467112D01*
X121418738Y-109554738D01*
X121331112Y-109671792D01*
X121331111Y-109671795D01*
X121287000Y-109790058D01*
X121244453Y-109846893D01*
X121177932Y-109871703D01*
X121108558Y-109856611D01*
X121076246Y-109831363D01*
X121015240Y-109765094D01*
X121015239Y-109765093D01*
X121015237Y-109765091D01*
X120895372Y-109671796D01*
X120837576Y-109626811D01*
X120639574Y-109519658D01*
X120639572Y-109519657D01*
X120639571Y-109519656D01*
X120426639Y-109446557D01*
X120426630Y-109446555D01*
X120368128Y-109436793D01*
X120204569Y-109409500D01*
X119979431Y-109409500D01*
X119831211Y-109434233D01*
X119757369Y-109446555D01*
X119757360Y-109446557D01*
X119544428Y-109519656D01*
X119544426Y-109519658D01*
X119346426Y-109626810D01*
X119346424Y-109626811D01*
X119168762Y-109765091D01*
X119016279Y-109930729D01*
X119016275Y-109930734D01*
X118893141Y-110119206D01*
X118802703Y-110325386D01*
X118802702Y-110325387D01*
X118747437Y-110543624D01*
X118728844Y-110768000D01*
X118032500Y-110768000D01*
X118032500Y-103419350D01*
X137273500Y-103419350D01*
X137273500Y-105216649D01*
X137280009Y-105277196D01*
X137280011Y-105277204D01*
X137331110Y-105414202D01*
X137331112Y-105414207D01*
X137418738Y-105531261D01*
X137535792Y-105618887D01*
X137535794Y-105618888D01*
X137535796Y-105618889D01*
X137590900Y-105639442D01*
X137672795Y-105669988D01*
X137672803Y-105669990D01*
X137733350Y-105676499D01*
X137733355Y-105676499D01*
X137733362Y-105676500D01*
X137733368Y-105676500D01*
X139530632Y-105676500D01*
X139530638Y-105676500D01*
X139530645Y-105676499D01*
X139530649Y-105676499D01*
X139591196Y-105669990D01*
X139591199Y-105669989D01*
X139591201Y-105669989D01*
X139728204Y-105618889D01*
X139798399Y-105566342D01*
X139845261Y-105531261D01*
X139932886Y-105414208D01*
X139932885Y-105414208D01*
X139932889Y-105414204D01*
X139976999Y-105295939D01*
X140019545Y-105239107D01*
X140086066Y-105214296D01*
X140155440Y-105229388D01*
X140187753Y-105254635D01*
X140238292Y-105309535D01*
X140248762Y-105320908D01*
X140282110Y-105346864D01*
X140426424Y-105459189D01*
X140624426Y-105566342D01*
X140624427Y-105566342D01*
X140624428Y-105566343D01*
X140736227Y-105604723D01*
X140837365Y-105639444D01*
X141059431Y-105676500D01*
X141059435Y-105676500D01*
X141284565Y-105676500D01*
X141284569Y-105676500D01*
X141506635Y-105639444D01*
X141719574Y-105566342D01*
X141917576Y-105459189D01*
X142095240Y-105320906D01*
X142247722Y-105155268D01*
X142370860Y-104966791D01*
X142461296Y-104760616D01*
X142516564Y-104542368D01*
X142535156Y-104318000D01*
X142516564Y-104093632D01*
X142473626Y-103924073D01*
X142461297Y-103875387D01*
X142461296Y-103875386D01*
X142461296Y-103875384D01*
X142370860Y-103669209D01*
X142353500Y-103642637D01*
X142247724Y-103480734D01*
X142247720Y-103480729D01*
X142095237Y-103315091D01*
X141975367Y-103221792D01*
X141917576Y-103176811D01*
X141719574Y-103069658D01*
X141719572Y-103069657D01*
X141719571Y-103069656D01*
X141506639Y-102996557D01*
X141506630Y-102996555D01*
X141462476Y-102989187D01*
X141284569Y-102959500D01*
X141059431Y-102959500D01*
X140911211Y-102984233D01*
X140837369Y-102996555D01*
X140837360Y-102996557D01*
X140624428Y-103069656D01*
X140624426Y-103069658D01*
X140426426Y-103176810D01*
X140426424Y-103176811D01*
X140248762Y-103315091D01*
X140187754Y-103381363D01*
X140126901Y-103417933D01*
X140055936Y-103415798D01*
X139997391Y-103375636D01*
X139976999Y-103340057D01*
X139932889Y-103221797D01*
X139932887Y-103221792D01*
X139845261Y-103104738D01*
X139728207Y-103017112D01*
X139728202Y-103017110D01*
X139591204Y-102966011D01*
X139591196Y-102966009D01*
X139530649Y-102959500D01*
X139530638Y-102959500D01*
X137733362Y-102959500D01*
X137733350Y-102959500D01*
X137672803Y-102966009D01*
X137672795Y-102966011D01*
X137535797Y-103017110D01*
X137535792Y-103017112D01*
X137418738Y-103104738D01*
X137331112Y-103221792D01*
X137331110Y-103221797D01*
X137280011Y-103358795D01*
X137280009Y-103358803D01*
X137273500Y-103419350D01*
X118032500Y-103419350D01*
X118032500Y-94463288D01*
X123843500Y-94463288D01*
X123843500Y-97212707D01*
X123872649Y-97359247D01*
X123929826Y-97497284D01*
X124012834Y-97621515D01*
X125948485Y-99557166D01*
X126072716Y-99640174D01*
X126210753Y-99697351D01*
X126284022Y-99711924D01*
X126284023Y-99711925D01*
X126298598Y-99714824D01*
X126357294Y-99726500D01*
X126357295Y-99726500D01*
X126506705Y-99726500D01*
X148905629Y-99726500D01*
X148973750Y-99746502D01*
X148994724Y-99763405D01*
X151036595Y-101805276D01*
X151070621Y-101867588D01*
X151073500Y-101894371D01*
X151073500Y-103783500D01*
X151053498Y-103851621D01*
X150999842Y-103898114D01*
X150947500Y-103909500D01*
X148557288Y-103909500D01*
X148484024Y-103924073D01*
X148484024Y-103924074D01*
X148410753Y-103938649D01*
X148410751Y-103938649D01*
X148410750Y-103938650D01*
X148272714Y-103995827D01*
X148148486Y-104078833D01*
X148148480Y-104078838D01*
X146642840Y-105584477D01*
X146642835Y-105584484D01*
X146642834Y-105584485D01*
X146585702Y-105669990D01*
X146581352Y-105676500D01*
X146559826Y-105708715D01*
X146502650Y-105846750D01*
X146502649Y-105846753D01*
X146473500Y-105993290D01*
X146473500Y-108030999D01*
X146456619Y-108093999D01*
X146397476Y-108196438D01*
X146397473Y-108196445D01*
X146338457Y-108378072D01*
X146318496Y-108568000D01*
X146338457Y-108757927D01*
X146368526Y-108850470D01*
X146397473Y-108939556D01*
X146397476Y-108939561D01*
X146492958Y-109104941D01*
X146492965Y-109104951D01*
X146620744Y-109246864D01*
X146620747Y-109246866D01*
X146775248Y-109359118D01*
X146949712Y-109436794D01*
X147136513Y-109476500D01*
X147327487Y-109476500D01*
X147514288Y-109436794D01*
X147688752Y-109359118D01*
X147843253Y-109246866D01*
X147971040Y-109104944D01*
X148066527Y-108939556D01*
X148125542Y-108757928D01*
X148145504Y-108568000D01*
X148125542Y-108378072D01*
X148066527Y-108196444D01*
X148007381Y-108093999D01*
X147990500Y-108030999D01*
X147990500Y-107369350D01*
X174623500Y-107369350D01*
X174623500Y-109966649D01*
X174630009Y-110027196D01*
X174630011Y-110027204D01*
X174681110Y-110164202D01*
X174681112Y-110164207D01*
X174768738Y-110281261D01*
X174885792Y-110368887D01*
X174885794Y-110368888D01*
X174885796Y-110368889D01*
X174944875Y-110390924D01*
X175022795Y-110419988D01*
X175022803Y-110419990D01*
X175083350Y-110426499D01*
X175083355Y-110426499D01*
X175083362Y-110426500D01*
X175083368Y-110426500D01*
X177680632Y-110426500D01*
X177680638Y-110426500D01*
X177680645Y-110426499D01*
X177680649Y-110426499D01*
X177741196Y-110419990D01*
X177741199Y-110419989D01*
X177741201Y-110419989D01*
X177878204Y-110368889D01*
X177995261Y-110281261D01*
X178082889Y-110164204D01*
X178133989Y-110027201D01*
X178140500Y-109966638D01*
X178140500Y-107369362D01*
X178140499Y-107369350D01*
X178133990Y-107308803D01*
X178133988Y-107308795D01*
X178082889Y-107171797D01*
X178082887Y-107171792D01*
X177995261Y-107054738D01*
X177878207Y-106967112D01*
X177878202Y-106967110D01*
X177741204Y-106916011D01*
X177741196Y-106916009D01*
X177680649Y-106909500D01*
X177680638Y-106909500D01*
X175083362Y-106909500D01*
X175083350Y-106909500D01*
X175022803Y-106916009D01*
X175022795Y-106916011D01*
X174885797Y-106967110D01*
X174885792Y-106967112D01*
X174768738Y-107054738D01*
X174681112Y-107171792D01*
X174681110Y-107171797D01*
X174630011Y-107308795D01*
X174630009Y-107308803D01*
X174623500Y-107369350D01*
X147990500Y-107369350D01*
X147990500Y-106434371D01*
X148010502Y-106366250D01*
X148027405Y-106345276D01*
X148909276Y-105463405D01*
X148971588Y-105429379D01*
X148998371Y-105426500D01*
X151289413Y-105426500D01*
X151357534Y-105446502D01*
X151363471Y-105450562D01*
X151375248Y-105459118D01*
X151549712Y-105536794D01*
X151736513Y-105576500D01*
X151927487Y-105576500D01*
X152114288Y-105536794D01*
X152288752Y-105459118D01*
X152443253Y-105346866D01*
X152466626Y-105320908D01*
X152571034Y-105204951D01*
X152571035Y-105204949D01*
X152571040Y-105204944D01*
X152666527Y-105039556D01*
X152725542Y-104857928D01*
X152745504Y-104668000D01*
X152725542Y-104478072D01*
X152666527Y-104296444D01*
X152607381Y-104193999D01*
X152590500Y-104130999D01*
X152590500Y-103668000D01*
X174618569Y-103668000D01*
X174638265Y-103930826D01*
X174638266Y-103930830D01*
X174696911Y-104187775D01*
X174793202Y-104433120D01*
X174793205Y-104433128D01*
X174924982Y-104661372D01*
X174924984Y-104661375D01*
X174924985Y-104661376D01*
X175089314Y-104867438D01*
X175282519Y-105046706D01*
X175282525Y-105046710D01*
X175500275Y-105195170D01*
X175500279Y-105195172D01*
X175500285Y-105195176D01*
X175737746Y-105309532D01*
X175737749Y-105309532D01*
X175737754Y-105309535D01*
X175989589Y-105387215D01*
X175989591Y-105387215D01*
X175989600Y-105387218D01*
X176250219Y-105426500D01*
X176250223Y-105426500D01*
X176513777Y-105426500D01*
X176513781Y-105426500D01*
X176774400Y-105387218D01*
X176774410Y-105387215D01*
X177026245Y-105309535D01*
X177026247Y-105309534D01*
X177026254Y-105309532D01*
X177263716Y-105195176D01*
X177481481Y-105046706D01*
X177674686Y-104867438D01*
X177839015Y-104661376D01*
X177907724Y-104542368D01*
X177970794Y-104433128D01*
X177970796Y-104433124D01*
X178067087Y-104187780D01*
X178125735Y-103930826D01*
X178145431Y-103668000D01*
X178125735Y-103405174D01*
X178067087Y-103148220D01*
X177970796Y-102902876D01*
X177970795Y-102902875D01*
X177970794Y-102902871D01*
X177839017Y-102674627D01*
X177839015Y-102674624D01*
X177674686Y-102468562D01*
X177481481Y-102289294D01*
X177481474Y-102289289D01*
X177263725Y-102140829D01*
X177263718Y-102140825D01*
X177026257Y-102026469D01*
X177026245Y-102026464D01*
X176774410Y-101948784D01*
X176774402Y-101948782D01*
X176774400Y-101948782D01*
X176513781Y-101909500D01*
X176250219Y-101909500D01*
X175989600Y-101948782D01*
X175989598Y-101948782D01*
X175989589Y-101948784D01*
X175737754Y-102026464D01*
X175737742Y-102026469D01*
X175500283Y-102140825D01*
X175500275Y-102140829D01*
X175282525Y-102289289D01*
X175282520Y-102289293D01*
X175089315Y-102468561D01*
X174924982Y-102674627D01*
X174793205Y-102902871D01*
X174793202Y-102902879D01*
X174696911Y-103148224D01*
X174638266Y-103405169D01*
X174638265Y-103405174D01*
X174618569Y-103668000D01*
X152590500Y-103668000D01*
X152590500Y-101453293D01*
X152590499Y-101453290D01*
X152561351Y-101306754D01*
X152504174Y-101168716D01*
X152421165Y-101044484D01*
X152315516Y-100938835D01*
X149755515Y-98378834D01*
X149631284Y-98295826D01*
X149493247Y-98238649D01*
X149419976Y-98224074D01*
X149419975Y-98224073D01*
X149346711Y-98209500D01*
X149346706Y-98209500D01*
X126798371Y-98209500D01*
X126730250Y-98189498D01*
X126709276Y-98172595D01*
X125967694Y-97431013D01*
X125933668Y-97368701D01*
X125938733Y-97297886D01*
X125981280Y-97241050D01*
X126039686Y-97218899D01*
X126039429Y-97217357D01*
X126044565Y-97216500D01*
X126044569Y-97216500D01*
X126266635Y-97179444D01*
X126479574Y-97106342D01*
X126677576Y-96999189D01*
X126855240Y-96860906D01*
X127007722Y-96695268D01*
X127096518Y-96559354D01*
X127150520Y-96513268D01*
X127220868Y-96503692D01*
X127285225Y-96533669D01*
X127307480Y-96559353D01*
X127340607Y-96610058D01*
X127396275Y-96695265D01*
X127396279Y-96695270D01*
X127548762Y-96860908D01*
X127603331Y-96903381D01*
X127726424Y-96999189D01*
X127924426Y-97106342D01*
X127924427Y-97106342D01*
X127924428Y-97106343D01*
X128036227Y-97144723D01*
X128137365Y-97179444D01*
X128359431Y-97216500D01*
X128359435Y-97216500D01*
X128584565Y-97216500D01*
X128584569Y-97216500D01*
X128806635Y-97179444D01*
X129019574Y-97106342D01*
X129217576Y-96999189D01*
X129395240Y-96860906D01*
X129547722Y-96695268D01*
X129636518Y-96559354D01*
X129690520Y-96513268D01*
X129760868Y-96503692D01*
X129825225Y-96533669D01*
X129847480Y-96559353D01*
X129880607Y-96610058D01*
X129936275Y-96695265D01*
X129936279Y-96695270D01*
X130088762Y-96860908D01*
X130143331Y-96903381D01*
X130266424Y-96999189D01*
X130464426Y-97106342D01*
X130464427Y-97106342D01*
X130464428Y-97106343D01*
X130576227Y-97144723D01*
X130677365Y-97179444D01*
X130899431Y-97216500D01*
X130899435Y-97216500D01*
X131124565Y-97216500D01*
X131124569Y-97216500D01*
X131346635Y-97179444D01*
X131559574Y-97106342D01*
X131757576Y-96999189D01*
X131935240Y-96860906D01*
X132087722Y-96695268D01*
X132176518Y-96559354D01*
X132230520Y-96513268D01*
X132300868Y-96503692D01*
X132365225Y-96533669D01*
X132387480Y-96559353D01*
X132420607Y-96610058D01*
X132476275Y-96695265D01*
X132476279Y-96695270D01*
X132628762Y-96860908D01*
X132683331Y-96903381D01*
X132806424Y-96999189D01*
X133004426Y-97106342D01*
X133004427Y-97106342D01*
X133004428Y-97106343D01*
X133116227Y-97144723D01*
X133217365Y-97179444D01*
X133439431Y-97216500D01*
X133439435Y-97216500D01*
X133664565Y-97216500D01*
X133664569Y-97216500D01*
X133886635Y-97179444D01*
X134099574Y-97106342D01*
X134297576Y-96999189D01*
X134475240Y-96860906D01*
X134627722Y-96695268D01*
X134750860Y-96506791D01*
X134841296Y-96300616D01*
X134896564Y-96082368D01*
X134915156Y-95858000D01*
X134896564Y-95633632D01*
X134841296Y-95415384D01*
X134750860Y-95209209D01*
X134744140Y-95198924D01*
X134627724Y-95020734D01*
X134627720Y-95020729D01*
X134475237Y-94855091D01*
X134367007Y-94770852D01*
X134297576Y-94716811D01*
X134264319Y-94698813D01*
X134213929Y-94648802D01*
X134198576Y-94579485D01*
X134223136Y-94512872D01*
X134264320Y-94477186D01*
X134297576Y-94459189D01*
X134475240Y-94320906D01*
X134627722Y-94155268D01*
X134716518Y-94019354D01*
X134770520Y-93973268D01*
X134840868Y-93963692D01*
X134905225Y-93993669D01*
X134927480Y-94019353D01*
X134950430Y-94054480D01*
X135016275Y-94155265D01*
X135016279Y-94155270D01*
X135168762Y-94320908D01*
X135223331Y-94363381D01*
X135346424Y-94459189D01*
X135544426Y-94566342D01*
X135544427Y-94566342D01*
X135544428Y-94566343D01*
X135632320Y-94596516D01*
X135757365Y-94639444D01*
X135979431Y-94676500D01*
X135979435Y-94676500D01*
X136204565Y-94676500D01*
X136204569Y-94676500D01*
X136426635Y-94639444D01*
X136639574Y-94566342D01*
X136837576Y-94459189D01*
X137015240Y-94320906D01*
X137167722Y-94155268D01*
X137256518Y-94019354D01*
X137310520Y-93973268D01*
X137380868Y-93963692D01*
X137445225Y-93993669D01*
X137467480Y-94019353D01*
X137490430Y-94054480D01*
X137556275Y-94155265D01*
X137556279Y-94155270D01*
X137708762Y-94320908D01*
X137763331Y-94363381D01*
X137886424Y-94459189D01*
X137919680Y-94477186D01*
X137970071Y-94527200D01*
X137985423Y-94596516D01*
X137960862Y-94663129D01*
X137919680Y-94698813D01*
X137886426Y-94716810D01*
X137886424Y-94716811D01*
X137708762Y-94855091D01*
X137556279Y-95020729D01*
X137556275Y-95020734D01*
X137433141Y-95209206D01*
X137342703Y-95415386D01*
X137342702Y-95415387D01*
X137287437Y-95633624D01*
X137268844Y-95858000D01*
X137287437Y-96082375D01*
X137342702Y-96300612D01*
X137342703Y-96300613D01*
X137433141Y-96506793D01*
X137556275Y-96695265D01*
X137556279Y-96695270D01*
X137708762Y-96860908D01*
X137763331Y-96903381D01*
X137886424Y-96999189D01*
X138084426Y-97106342D01*
X138084427Y-97106342D01*
X138084428Y-97106343D01*
X138196227Y-97144723D01*
X138297365Y-97179444D01*
X138519431Y-97216500D01*
X138519435Y-97216500D01*
X138744565Y-97216500D01*
X138744569Y-97216500D01*
X138966635Y-97179444D01*
X139179574Y-97106342D01*
X139377576Y-96999189D01*
X139555240Y-96860906D01*
X139707722Y-96695268D01*
X139796518Y-96559354D01*
X139850520Y-96513268D01*
X139920868Y-96503692D01*
X139985225Y-96533669D01*
X140007480Y-96559353D01*
X140040607Y-96610058D01*
X140096275Y-96695265D01*
X140096279Y-96695270D01*
X140248762Y-96860908D01*
X140303331Y-96903381D01*
X140426424Y-96999189D01*
X140624426Y-97106342D01*
X140624427Y-97106342D01*
X140624428Y-97106343D01*
X140736227Y-97144723D01*
X140837365Y-97179444D01*
X141059431Y-97216500D01*
X141059435Y-97216500D01*
X141284565Y-97216500D01*
X141284569Y-97216500D01*
X141506635Y-97179444D01*
X141719574Y-97106342D01*
X141917576Y-96999189D01*
X142095240Y-96860906D01*
X142247722Y-96695268D01*
X142336518Y-96559354D01*
X142390520Y-96513268D01*
X142460868Y-96503692D01*
X142525225Y-96533669D01*
X142547480Y-96559353D01*
X142580607Y-96610058D01*
X142636275Y-96695265D01*
X142636279Y-96695270D01*
X142788762Y-96860908D01*
X142843331Y-96903381D01*
X142966424Y-96999189D01*
X143164426Y-97106342D01*
X143164427Y-97106342D01*
X143164428Y-97106343D01*
X143276227Y-97144723D01*
X143377365Y-97179444D01*
X143599431Y-97216500D01*
X143599435Y-97216500D01*
X143824565Y-97216500D01*
X143824569Y-97216500D01*
X144046635Y-97179444D01*
X144259574Y-97106342D01*
X144457576Y-96999189D01*
X144635240Y-96860906D01*
X144787722Y-96695268D01*
X144876518Y-96559354D01*
X144930520Y-96513268D01*
X145000868Y-96503692D01*
X145065225Y-96533669D01*
X145087480Y-96559353D01*
X145120607Y-96610058D01*
X145176275Y-96695265D01*
X145176279Y-96695270D01*
X145328762Y-96860908D01*
X145383331Y-96903381D01*
X145506424Y-96999189D01*
X145704426Y-97106342D01*
X145704427Y-97106342D01*
X145704428Y-97106343D01*
X145816227Y-97144723D01*
X145917365Y-97179444D01*
X146139431Y-97216500D01*
X146139435Y-97216500D01*
X146364565Y-97216500D01*
X146364569Y-97216500D01*
X146586635Y-97179444D01*
X146799574Y-97106342D01*
X146997576Y-96999189D01*
X147175240Y-96860906D01*
X147327722Y-96695268D01*
X147416518Y-96559354D01*
X147470520Y-96513268D01*
X147540868Y-96503692D01*
X147605225Y-96533669D01*
X147627480Y-96559353D01*
X147660607Y-96610058D01*
X147716275Y-96695265D01*
X147716279Y-96695270D01*
X147868762Y-96860908D01*
X147923331Y-96903381D01*
X148046424Y-96999189D01*
X148244426Y-97106342D01*
X148244427Y-97106342D01*
X148244428Y-97106343D01*
X148356227Y-97144723D01*
X148457365Y-97179444D01*
X148679431Y-97216500D01*
X148679435Y-97216500D01*
X148904565Y-97216500D01*
X148904569Y-97216500D01*
X149126635Y-97179444D01*
X149339574Y-97106342D01*
X149537576Y-96999189D01*
X149715240Y-96860906D01*
X149867722Y-96695268D01*
X149956518Y-96559354D01*
X150010520Y-96513268D01*
X150080868Y-96503692D01*
X150145225Y-96533669D01*
X150167480Y-96559353D01*
X150200607Y-96610058D01*
X150256275Y-96695265D01*
X150256279Y-96695270D01*
X150408762Y-96860908D01*
X150463331Y-96903381D01*
X150586424Y-96999189D01*
X150784426Y-97106342D01*
X150784427Y-97106342D01*
X150784428Y-97106343D01*
X150896227Y-97144723D01*
X150997365Y-97179444D01*
X151219431Y-97216500D01*
X151219435Y-97216500D01*
X151444565Y-97216500D01*
X151444569Y-97216500D01*
X151666635Y-97179444D01*
X151879574Y-97106342D01*
X152077576Y-96999189D01*
X152255240Y-96860906D01*
X152407722Y-96695268D01*
X152496518Y-96559354D01*
X152550520Y-96513268D01*
X152620868Y-96503692D01*
X152685225Y-96533669D01*
X152707480Y-96559353D01*
X152740607Y-96610058D01*
X152796275Y-96695265D01*
X152796279Y-96695270D01*
X152948762Y-96860908D01*
X153003331Y-96903381D01*
X153126424Y-96999189D01*
X153324426Y-97106342D01*
X153324427Y-97106342D01*
X153324428Y-97106343D01*
X153436227Y-97144723D01*
X153537365Y-97179444D01*
X153759431Y-97216500D01*
X153759435Y-97216500D01*
X153984565Y-97216500D01*
X153984569Y-97216500D01*
X154206635Y-97179444D01*
X154419574Y-97106342D01*
X154617576Y-96999189D01*
X154795240Y-96860906D01*
X154947722Y-96695268D01*
X155070860Y-96506791D01*
X155161296Y-96300616D01*
X155216564Y-96082368D01*
X155235156Y-95858000D01*
X155216564Y-95633632D01*
X155161296Y-95415384D01*
X155070860Y-95209209D01*
X155064140Y-95198924D01*
X154947724Y-95020734D01*
X154947720Y-95020729D01*
X154795237Y-94855091D01*
X154687007Y-94770852D01*
X154617576Y-94716811D01*
X154584319Y-94698813D01*
X154533929Y-94648802D01*
X154518576Y-94579485D01*
X154543136Y-94512872D01*
X154584320Y-94477186D01*
X154617576Y-94459189D01*
X154795240Y-94320906D01*
X154947722Y-94155268D01*
X155036518Y-94019354D01*
X155090520Y-93973268D01*
X155160868Y-93963692D01*
X155225225Y-93993669D01*
X155247480Y-94019353D01*
X155270430Y-94054480D01*
X155336275Y-94155265D01*
X155336279Y-94155270D01*
X155488762Y-94320908D01*
X155543331Y-94363381D01*
X155666424Y-94459189D01*
X155864426Y-94566342D01*
X155864427Y-94566342D01*
X155864428Y-94566343D01*
X155952320Y-94596516D01*
X156077365Y-94639444D01*
X156299431Y-94676500D01*
X156299435Y-94676500D01*
X156524565Y-94676500D01*
X156524569Y-94676500D01*
X156746635Y-94639444D01*
X156959574Y-94566342D01*
X157157576Y-94459189D01*
X157335240Y-94320906D01*
X157487722Y-94155268D01*
X157576518Y-94019354D01*
X157630520Y-93973268D01*
X157700868Y-93963692D01*
X157765225Y-93993669D01*
X157787480Y-94019353D01*
X157810430Y-94054480D01*
X157876275Y-94155265D01*
X157876279Y-94155270D01*
X158028762Y-94320908D01*
X158083331Y-94363381D01*
X158206424Y-94459189D01*
X158239680Y-94477186D01*
X158290071Y-94527200D01*
X158305423Y-94596516D01*
X158280862Y-94663129D01*
X158239680Y-94698813D01*
X158206426Y-94716810D01*
X158206424Y-94716811D01*
X158028762Y-94855091D01*
X157876279Y-95020729D01*
X157876275Y-95020734D01*
X157753141Y-95209206D01*
X157662703Y-95415386D01*
X157662702Y-95415387D01*
X157607437Y-95633624D01*
X157588844Y-95858000D01*
X157607437Y-96082375D01*
X157662702Y-96300612D01*
X157662703Y-96300613D01*
X157753141Y-96506793D01*
X157876275Y-96695265D01*
X157876279Y-96695270D01*
X158028762Y-96860908D01*
X158083331Y-96903381D01*
X158206424Y-96999189D01*
X158404426Y-97106342D01*
X158404427Y-97106342D01*
X158404428Y-97106343D01*
X158516227Y-97144723D01*
X158617365Y-97179444D01*
X158839431Y-97216500D01*
X158839435Y-97216500D01*
X159064565Y-97216500D01*
X159064569Y-97216500D01*
X159286635Y-97179444D01*
X159499574Y-97106342D01*
X159697576Y-96999189D01*
X159875240Y-96860906D01*
X160027722Y-96695268D01*
X160116518Y-96559354D01*
X160170520Y-96513268D01*
X160240868Y-96503692D01*
X160305225Y-96533669D01*
X160327480Y-96559353D01*
X160360607Y-96610058D01*
X160416275Y-96695265D01*
X160416279Y-96695270D01*
X160568762Y-96860908D01*
X160623331Y-96903381D01*
X160746424Y-96999189D01*
X160944426Y-97106342D01*
X160944427Y-97106342D01*
X160944428Y-97106343D01*
X161056227Y-97144723D01*
X161157365Y-97179444D01*
X161379431Y-97216500D01*
X161379435Y-97216500D01*
X161604565Y-97216500D01*
X161604569Y-97216500D01*
X161826635Y-97179444D01*
X162039574Y-97106342D01*
X162237576Y-96999189D01*
X162415240Y-96860906D01*
X162567722Y-96695268D01*
X162656518Y-96559354D01*
X162710520Y-96513268D01*
X162780868Y-96503692D01*
X162845225Y-96533669D01*
X162867480Y-96559353D01*
X162900607Y-96610058D01*
X162956275Y-96695265D01*
X162956279Y-96695270D01*
X163108762Y-96860908D01*
X163163331Y-96903381D01*
X163286424Y-96999189D01*
X163484426Y-97106342D01*
X163484427Y-97106342D01*
X163484428Y-97106343D01*
X163596227Y-97144723D01*
X163697365Y-97179444D01*
X163919431Y-97216500D01*
X163919435Y-97216500D01*
X164144565Y-97216500D01*
X164144569Y-97216500D01*
X164366635Y-97179444D01*
X164579574Y-97106342D01*
X164777576Y-96999189D01*
X164955240Y-96860906D01*
X165107722Y-96695268D01*
X165196518Y-96559354D01*
X165250520Y-96513268D01*
X165320868Y-96503692D01*
X165385225Y-96533669D01*
X165407480Y-96559353D01*
X165440607Y-96610058D01*
X165496275Y-96695265D01*
X165496279Y-96695270D01*
X165648762Y-96860908D01*
X165703331Y-96903381D01*
X165826424Y-96999189D01*
X166024426Y-97106342D01*
X166024427Y-97106342D01*
X166024428Y-97106343D01*
X166136227Y-97144723D01*
X166237365Y-97179444D01*
X166459431Y-97216500D01*
X166459435Y-97216500D01*
X166684565Y-97216500D01*
X166684569Y-97216500D01*
X166906635Y-97179444D01*
X167119574Y-97106342D01*
X167317576Y-96999189D01*
X167495240Y-96860906D01*
X167647722Y-96695268D01*
X167736518Y-96559354D01*
X167790520Y-96513268D01*
X167860868Y-96503692D01*
X167925225Y-96533669D01*
X167947480Y-96559353D01*
X167980607Y-96610058D01*
X168036275Y-96695265D01*
X168036279Y-96695270D01*
X168188762Y-96860908D01*
X168243331Y-96903381D01*
X168366424Y-96999189D01*
X168564426Y-97106342D01*
X168564427Y-97106342D01*
X168564428Y-97106343D01*
X168676227Y-97144723D01*
X168777365Y-97179444D01*
X168999431Y-97216500D01*
X168999435Y-97216500D01*
X169224565Y-97216500D01*
X169224569Y-97216500D01*
X169446635Y-97179444D01*
X169659574Y-97106342D01*
X169857576Y-96999189D01*
X170035240Y-96860906D01*
X170187722Y-96695268D01*
X170276518Y-96559354D01*
X170330520Y-96513268D01*
X170400868Y-96503692D01*
X170465225Y-96533669D01*
X170487480Y-96559353D01*
X170520607Y-96610058D01*
X170576275Y-96695265D01*
X170576279Y-96695270D01*
X170728762Y-96860908D01*
X170783331Y-96903381D01*
X170906424Y-96999189D01*
X171104426Y-97106342D01*
X171104427Y-97106342D01*
X171104428Y-97106343D01*
X171216227Y-97144723D01*
X171317365Y-97179444D01*
X171539431Y-97216500D01*
X171539435Y-97216500D01*
X171764565Y-97216500D01*
X171764569Y-97216500D01*
X171986635Y-97179444D01*
X172199574Y-97106342D01*
X172397576Y-96999189D01*
X172575240Y-96860906D01*
X172727722Y-96695268D01*
X172850860Y-96506791D01*
X172941296Y-96300616D01*
X172996564Y-96082368D01*
X173015156Y-95858000D01*
X172996564Y-95633632D01*
X172941296Y-95415384D01*
X172850860Y-95209209D01*
X172844140Y-95198924D01*
X172727724Y-95020734D01*
X172727720Y-95020729D01*
X172575237Y-94855091D01*
X172467007Y-94770852D01*
X172397576Y-94716811D01*
X172364319Y-94698813D01*
X172313929Y-94648802D01*
X172298576Y-94579485D01*
X172323136Y-94512872D01*
X172364320Y-94477186D01*
X172397576Y-94459189D01*
X172575240Y-94320906D01*
X172727722Y-94155268D01*
X172816518Y-94019354D01*
X172870520Y-93973268D01*
X172940868Y-93963692D01*
X173005225Y-93993669D01*
X173027480Y-94019353D01*
X173050430Y-94054480D01*
X173116275Y-94155265D01*
X173116279Y-94155270D01*
X173268762Y-94320908D01*
X173323331Y-94363381D01*
X173446424Y-94459189D01*
X173644426Y-94566342D01*
X173644427Y-94566342D01*
X173644428Y-94566343D01*
X173732320Y-94596516D01*
X173857365Y-94639444D01*
X174079431Y-94676500D01*
X174079435Y-94676500D01*
X174304565Y-94676500D01*
X174304569Y-94676500D01*
X174526635Y-94639444D01*
X174739574Y-94566342D01*
X174937576Y-94459189D01*
X175115240Y-94320906D01*
X175267722Y-94155268D01*
X175390860Y-93966791D01*
X175481296Y-93760616D01*
X175536564Y-93542368D01*
X175555156Y-93318000D01*
X175536564Y-93093632D01*
X175490917Y-92913375D01*
X175481297Y-92875387D01*
X175481296Y-92875386D01*
X175481296Y-92875384D01*
X175390860Y-92669209D01*
X175377083Y-92648122D01*
X175267724Y-92480734D01*
X175267720Y-92480729D01*
X175115237Y-92315091D01*
X174995367Y-92221792D01*
X174937576Y-92176811D01*
X174739574Y-92069658D01*
X174739572Y-92069657D01*
X174739571Y-92069656D01*
X174526639Y-91996557D01*
X174526630Y-91996555D01*
X174482476Y-91989187D01*
X174304569Y-91959500D01*
X174079431Y-91959500D01*
X173931211Y-91984233D01*
X173857369Y-91996555D01*
X173857360Y-91996557D01*
X173644428Y-92069656D01*
X173644426Y-92069658D01*
X173446426Y-92176810D01*
X173446424Y-92176811D01*
X173268762Y-92315091D01*
X173116279Y-92480729D01*
X173027483Y-92616643D01*
X172973479Y-92662731D01*
X172903131Y-92672306D01*
X172838774Y-92642329D01*
X172816517Y-92616643D01*
X172727720Y-92480729D01*
X172575237Y-92315091D01*
X172455367Y-92221792D01*
X172397576Y-92176811D01*
X172199574Y-92069658D01*
X172199572Y-92069657D01*
X172199571Y-92069656D01*
X171986639Y-91996557D01*
X171986630Y-91996555D01*
X171942476Y-91989187D01*
X171764569Y-91959500D01*
X171539431Y-91959500D01*
X171391211Y-91984233D01*
X171317369Y-91996555D01*
X171317360Y-91996557D01*
X171104428Y-92069656D01*
X171104426Y-92069658D01*
X170906426Y-92176810D01*
X170906424Y-92176811D01*
X170728762Y-92315091D01*
X170576279Y-92480729D01*
X170487483Y-92616643D01*
X170433479Y-92662731D01*
X170363131Y-92672306D01*
X170298774Y-92642329D01*
X170276517Y-92616643D01*
X170187720Y-92480729D01*
X170035237Y-92315091D01*
X169915367Y-92221792D01*
X169857576Y-92176811D01*
X169659574Y-92069658D01*
X169659572Y-92069657D01*
X169659571Y-92069656D01*
X169446639Y-91996557D01*
X169446630Y-91996555D01*
X169402476Y-91989187D01*
X169224569Y-91959500D01*
X168999431Y-91959500D01*
X168851211Y-91984233D01*
X168777369Y-91996555D01*
X168777360Y-91996557D01*
X168564428Y-92069656D01*
X168564426Y-92069658D01*
X168366426Y-92176810D01*
X168366424Y-92176811D01*
X168188762Y-92315091D01*
X168036279Y-92480729D01*
X168036275Y-92480734D01*
X167913141Y-92669206D01*
X167822703Y-92875386D01*
X167822702Y-92875387D01*
X167767437Y-93093624D01*
X167767436Y-93093630D01*
X167767436Y-93093632D01*
X167748844Y-93318000D01*
X167766471Y-93530724D01*
X167767437Y-93542375D01*
X167822702Y-93760612D01*
X167822703Y-93760613D01*
X167913141Y-93966793D01*
X168036275Y-94155265D01*
X168036279Y-94155270D01*
X168188762Y-94320908D01*
X168243331Y-94363381D01*
X168366424Y-94459189D01*
X168399680Y-94477186D01*
X168450071Y-94527200D01*
X168465423Y-94596516D01*
X168440862Y-94663129D01*
X168399680Y-94698813D01*
X168366426Y-94716810D01*
X168366424Y-94716811D01*
X168188762Y-94855091D01*
X168036279Y-95020729D01*
X167947483Y-95156643D01*
X167893479Y-95202731D01*
X167823131Y-95212306D01*
X167758774Y-95182329D01*
X167736517Y-95156643D01*
X167647720Y-95020729D01*
X167495237Y-94855091D01*
X167387007Y-94770852D01*
X167317576Y-94716811D01*
X167119574Y-94609658D01*
X167119572Y-94609657D01*
X167119571Y-94609656D01*
X166906639Y-94536557D01*
X166906630Y-94536555D01*
X166850567Y-94527200D01*
X166684569Y-94499500D01*
X166459431Y-94499500D01*
X166311211Y-94524233D01*
X166237369Y-94536555D01*
X166237360Y-94536557D01*
X166024428Y-94609656D01*
X166024426Y-94609658D01*
X165826432Y-94716807D01*
X165826426Y-94716810D01*
X165826424Y-94716811D01*
X165648762Y-94855091D01*
X165496279Y-95020729D01*
X165407483Y-95156643D01*
X165353479Y-95202731D01*
X165283131Y-95212306D01*
X165218774Y-95182329D01*
X165196517Y-95156643D01*
X165107720Y-95020729D01*
X164955237Y-94855091D01*
X164847007Y-94770852D01*
X164777576Y-94716811D01*
X164744319Y-94698813D01*
X164693929Y-94648802D01*
X164678576Y-94579485D01*
X164703136Y-94512872D01*
X164744320Y-94477186D01*
X164777576Y-94459189D01*
X164955240Y-94320906D01*
X165107722Y-94155268D01*
X165230860Y-93966791D01*
X165321296Y-93760616D01*
X165376564Y-93542368D01*
X165395156Y-93318000D01*
X165376564Y-93093632D01*
X165330917Y-92913375D01*
X165321297Y-92875387D01*
X165321296Y-92875386D01*
X165321296Y-92875384D01*
X165230860Y-92669209D01*
X165217083Y-92648122D01*
X165107724Y-92480734D01*
X165107720Y-92480729D01*
X164955237Y-92315091D01*
X164835367Y-92221792D01*
X164777576Y-92176811D01*
X164579574Y-92069658D01*
X164579572Y-92069657D01*
X164579571Y-92069656D01*
X164366639Y-91996557D01*
X164366630Y-91996555D01*
X164322476Y-91989187D01*
X164144569Y-91959500D01*
X163919431Y-91959500D01*
X163771211Y-91984233D01*
X163697369Y-91996555D01*
X163697360Y-91996557D01*
X163484428Y-92069656D01*
X163484426Y-92069658D01*
X163286426Y-92176810D01*
X163286424Y-92176811D01*
X163108762Y-92315091D01*
X162956279Y-92480729D01*
X162956275Y-92480734D01*
X162833141Y-92669206D01*
X162742703Y-92875386D01*
X162742702Y-92875387D01*
X162687437Y-93093624D01*
X162687436Y-93093630D01*
X162687436Y-93093632D01*
X162668844Y-93318000D01*
X162686471Y-93530724D01*
X162687437Y-93542375D01*
X162742702Y-93760612D01*
X162742703Y-93760613D01*
X162833141Y-93966793D01*
X162956275Y-94155265D01*
X162956279Y-94155270D01*
X163108762Y-94320908D01*
X163163331Y-94363381D01*
X163286424Y-94459189D01*
X163319680Y-94477186D01*
X163370071Y-94527200D01*
X163385423Y-94596516D01*
X163360862Y-94663129D01*
X163319680Y-94698813D01*
X163286426Y-94716810D01*
X163286424Y-94716811D01*
X163108762Y-94855091D01*
X162956279Y-95020729D01*
X162867483Y-95156643D01*
X162813479Y-95202731D01*
X162743131Y-95212306D01*
X162678774Y-95182329D01*
X162656517Y-95156643D01*
X162567720Y-95020729D01*
X162415237Y-94855091D01*
X162307007Y-94770852D01*
X162237576Y-94716811D01*
X162039574Y-94609658D01*
X162039572Y-94609657D01*
X162039571Y-94609656D01*
X161826639Y-94536557D01*
X161826630Y-94536555D01*
X161770567Y-94527200D01*
X161604569Y-94499500D01*
X161379431Y-94499500D01*
X161231211Y-94524233D01*
X161157369Y-94536555D01*
X161157360Y-94536557D01*
X160944428Y-94609656D01*
X160944426Y-94609658D01*
X160746432Y-94716807D01*
X160746426Y-94716810D01*
X160746424Y-94716811D01*
X160568762Y-94855091D01*
X160416279Y-95020729D01*
X160327483Y-95156643D01*
X160273479Y-95202731D01*
X160203131Y-95212306D01*
X160138774Y-95182329D01*
X160116517Y-95156643D01*
X160027720Y-95020729D01*
X159875237Y-94855091D01*
X159767007Y-94770852D01*
X159697576Y-94716811D01*
X159664319Y-94698813D01*
X159613929Y-94648802D01*
X159598576Y-94579485D01*
X159623136Y-94512872D01*
X159664320Y-94477186D01*
X159697576Y-94459189D01*
X159875240Y-94320906D01*
X160027722Y-94155268D01*
X160150860Y-93966791D01*
X160241296Y-93760616D01*
X160296564Y-93542368D01*
X160315156Y-93318000D01*
X160296564Y-93093632D01*
X160250917Y-92913375D01*
X160241297Y-92875387D01*
X160241296Y-92875386D01*
X160241296Y-92875384D01*
X160150860Y-92669209D01*
X160137083Y-92648122D01*
X160027724Y-92480734D01*
X160027720Y-92480729D01*
X159875237Y-92315091D01*
X159755367Y-92221792D01*
X159697576Y-92176811D01*
X159499574Y-92069658D01*
X159499572Y-92069657D01*
X159499571Y-92069656D01*
X159286639Y-91996557D01*
X159286630Y-91996555D01*
X159242476Y-91989187D01*
X159064569Y-91959500D01*
X158839431Y-91959500D01*
X158691211Y-91984233D01*
X158617369Y-91996555D01*
X158617360Y-91996557D01*
X158404428Y-92069656D01*
X158404426Y-92069658D01*
X158206426Y-92176810D01*
X158206424Y-92176811D01*
X158028762Y-92315091D01*
X157876279Y-92480729D01*
X157787483Y-92616643D01*
X157733479Y-92662731D01*
X157663131Y-92672306D01*
X157598774Y-92642329D01*
X157576517Y-92616643D01*
X157487720Y-92480729D01*
X157335237Y-92315091D01*
X157215367Y-92221792D01*
X157157576Y-92176811D01*
X156959574Y-92069658D01*
X156959572Y-92069657D01*
X156959571Y-92069656D01*
X156746639Y-91996557D01*
X156746630Y-91996555D01*
X156702476Y-91989187D01*
X156524569Y-91959500D01*
X156299431Y-91959500D01*
X156151211Y-91984233D01*
X156077369Y-91996555D01*
X156077360Y-91996557D01*
X155864428Y-92069656D01*
X155864426Y-92069658D01*
X155666426Y-92176810D01*
X155666424Y-92176811D01*
X155488762Y-92315091D01*
X155336279Y-92480729D01*
X155247483Y-92616643D01*
X155193479Y-92662731D01*
X155123131Y-92672306D01*
X155058774Y-92642329D01*
X155036517Y-92616643D01*
X154947720Y-92480729D01*
X154795237Y-92315091D01*
X154675367Y-92221792D01*
X154617576Y-92176811D01*
X154419574Y-92069658D01*
X154419572Y-92069657D01*
X154419571Y-92069656D01*
X154206639Y-91996557D01*
X154206630Y-91996555D01*
X154162476Y-91989187D01*
X153984569Y-91959500D01*
X153759431Y-91959500D01*
X153611211Y-91984233D01*
X153537369Y-91996555D01*
X153537360Y-91996557D01*
X153324428Y-92069656D01*
X153324426Y-92069658D01*
X153126426Y-92176810D01*
X153126424Y-92176811D01*
X152948762Y-92315091D01*
X152796279Y-92480729D01*
X152707483Y-92616643D01*
X152653479Y-92662731D01*
X152583131Y-92672306D01*
X152518774Y-92642329D01*
X152496517Y-92616643D01*
X152407720Y-92480729D01*
X152255237Y-92315091D01*
X152135367Y-92221792D01*
X152077576Y-92176811D01*
X151879574Y-92069658D01*
X151879572Y-92069657D01*
X151879571Y-92069656D01*
X151666639Y-91996557D01*
X151666630Y-91996555D01*
X151622476Y-91989187D01*
X151444569Y-91959500D01*
X151219431Y-91959500D01*
X151071211Y-91984233D01*
X150997369Y-91996555D01*
X150997360Y-91996557D01*
X150784428Y-92069656D01*
X150784426Y-92069658D01*
X150586426Y-92176810D01*
X150586424Y-92176811D01*
X150408762Y-92315091D01*
X150256279Y-92480729D01*
X150256275Y-92480734D01*
X150133141Y-92669206D01*
X150042703Y-92875386D01*
X150042702Y-92875387D01*
X149987437Y-93093624D01*
X149987436Y-93093630D01*
X149987436Y-93093632D01*
X149968844Y-93318000D01*
X149986471Y-93530724D01*
X149987437Y-93542375D01*
X150042702Y-93760612D01*
X150042703Y-93760613D01*
X150133141Y-93966793D01*
X150256275Y-94155265D01*
X150256279Y-94155270D01*
X150408762Y-94320908D01*
X150463331Y-94363381D01*
X150586424Y-94459189D01*
X150619680Y-94477186D01*
X150670071Y-94527200D01*
X150685423Y-94596516D01*
X150660862Y-94663129D01*
X150619680Y-94698813D01*
X150586426Y-94716810D01*
X150586424Y-94716811D01*
X150408762Y-94855091D01*
X150256279Y-95020729D01*
X150167483Y-95156643D01*
X150113479Y-95202731D01*
X150043131Y-95212306D01*
X149978774Y-95182329D01*
X149956517Y-95156643D01*
X149867720Y-95020729D01*
X149715237Y-94855091D01*
X149607007Y-94770852D01*
X149537576Y-94716811D01*
X149339574Y-94609658D01*
X149339572Y-94609657D01*
X149339571Y-94609656D01*
X149126639Y-94536557D01*
X149126630Y-94536555D01*
X149070567Y-94527200D01*
X148904569Y-94499500D01*
X148679431Y-94499500D01*
X148531211Y-94524233D01*
X148457369Y-94536555D01*
X148457360Y-94536557D01*
X148244428Y-94609656D01*
X148244426Y-94609658D01*
X148046432Y-94716807D01*
X148046426Y-94716810D01*
X148046424Y-94716811D01*
X147868762Y-94855091D01*
X147716279Y-95020729D01*
X147627483Y-95156643D01*
X147573479Y-95202731D01*
X147503131Y-95212306D01*
X147438774Y-95182329D01*
X147416517Y-95156643D01*
X147327720Y-95020729D01*
X147175237Y-94855091D01*
X147067007Y-94770852D01*
X146997576Y-94716811D01*
X146964319Y-94698813D01*
X146913929Y-94648802D01*
X146898576Y-94579485D01*
X146923136Y-94512872D01*
X146964320Y-94477186D01*
X146997576Y-94459189D01*
X147175240Y-94320906D01*
X147327722Y-94155268D01*
X147450860Y-93966791D01*
X147541296Y-93760616D01*
X147596564Y-93542368D01*
X147615156Y-93318000D01*
X147596564Y-93093632D01*
X147550917Y-92913375D01*
X147541297Y-92875387D01*
X147541296Y-92875386D01*
X147541296Y-92875384D01*
X147450860Y-92669209D01*
X147437083Y-92648122D01*
X147327724Y-92480734D01*
X147327720Y-92480729D01*
X147175237Y-92315091D01*
X147055367Y-92221792D01*
X146997576Y-92176811D01*
X146799574Y-92069658D01*
X146799572Y-92069657D01*
X146799571Y-92069656D01*
X146586639Y-91996557D01*
X146586630Y-91996555D01*
X146542476Y-91989187D01*
X146364569Y-91959500D01*
X146139431Y-91959500D01*
X145991211Y-91984233D01*
X145917369Y-91996555D01*
X145917360Y-91996557D01*
X145704428Y-92069656D01*
X145704426Y-92069658D01*
X145506426Y-92176810D01*
X145506424Y-92176811D01*
X145328762Y-92315091D01*
X145176279Y-92480729D01*
X145087483Y-92616643D01*
X145033479Y-92662731D01*
X144963131Y-92672306D01*
X144898774Y-92642329D01*
X144876517Y-92616643D01*
X144787720Y-92480729D01*
X144635237Y-92315091D01*
X144515367Y-92221792D01*
X144457576Y-92176811D01*
X144259574Y-92069658D01*
X144259572Y-92069657D01*
X144259571Y-92069656D01*
X144046639Y-91996557D01*
X144046630Y-91996555D01*
X144002476Y-91989187D01*
X143824569Y-91959500D01*
X143599431Y-91959500D01*
X143451211Y-91984233D01*
X143377369Y-91996555D01*
X143377360Y-91996557D01*
X143164428Y-92069656D01*
X143164426Y-92069658D01*
X142966426Y-92176810D01*
X142966424Y-92176811D01*
X142788762Y-92315091D01*
X142636279Y-92480729D01*
X142636275Y-92480734D01*
X142513141Y-92669206D01*
X142422703Y-92875386D01*
X142422702Y-92875387D01*
X142367437Y-93093624D01*
X142367436Y-93093630D01*
X142367436Y-93093632D01*
X142348844Y-93318000D01*
X142366471Y-93530724D01*
X142367437Y-93542375D01*
X142422702Y-93760612D01*
X142422703Y-93760613D01*
X142513141Y-93966793D01*
X142636275Y-94155265D01*
X142636279Y-94155270D01*
X142788762Y-94320908D01*
X142843331Y-94363381D01*
X142966424Y-94459189D01*
X142999680Y-94477186D01*
X143050071Y-94527200D01*
X143065423Y-94596516D01*
X143040862Y-94663129D01*
X142999680Y-94698813D01*
X142966426Y-94716810D01*
X142966424Y-94716811D01*
X142788762Y-94855091D01*
X142636279Y-95020729D01*
X142547483Y-95156643D01*
X142493479Y-95202731D01*
X142423131Y-95212306D01*
X142358774Y-95182329D01*
X142336517Y-95156643D01*
X142247720Y-95020729D01*
X142095237Y-94855091D01*
X141987007Y-94770852D01*
X141917576Y-94716811D01*
X141719574Y-94609658D01*
X141719572Y-94609657D01*
X141719571Y-94609656D01*
X141506639Y-94536557D01*
X141506630Y-94536555D01*
X141450567Y-94527200D01*
X141284569Y-94499500D01*
X141059431Y-94499500D01*
X140911211Y-94524233D01*
X140837369Y-94536555D01*
X140837360Y-94536557D01*
X140624428Y-94609656D01*
X140624426Y-94609658D01*
X140426432Y-94716807D01*
X140426426Y-94716810D01*
X140426424Y-94716811D01*
X140248762Y-94855091D01*
X140096279Y-95020729D01*
X140007483Y-95156643D01*
X139953479Y-95202731D01*
X139883131Y-95212306D01*
X139818774Y-95182329D01*
X139796517Y-95156643D01*
X139707720Y-95020729D01*
X139555237Y-94855091D01*
X139447007Y-94770852D01*
X139377576Y-94716811D01*
X139344319Y-94698813D01*
X139293929Y-94648802D01*
X139278576Y-94579485D01*
X139303136Y-94512872D01*
X139344320Y-94477186D01*
X139377576Y-94459189D01*
X139555240Y-94320906D01*
X139707722Y-94155268D01*
X139830860Y-93966791D01*
X139921296Y-93760616D01*
X139976564Y-93542368D01*
X139995156Y-93318000D01*
X139976564Y-93093632D01*
X139930917Y-92913375D01*
X139921297Y-92875387D01*
X139921296Y-92875386D01*
X139921296Y-92875384D01*
X139830860Y-92669209D01*
X139817083Y-92648122D01*
X139707724Y-92480734D01*
X139707720Y-92480729D01*
X139555237Y-92315091D01*
X139435367Y-92221792D01*
X139377576Y-92176811D01*
X139179574Y-92069658D01*
X139179572Y-92069657D01*
X139179571Y-92069656D01*
X138966639Y-91996557D01*
X138966630Y-91996555D01*
X138922476Y-91989187D01*
X138744569Y-91959500D01*
X138519431Y-91959500D01*
X138371211Y-91984233D01*
X138297369Y-91996555D01*
X138297360Y-91996557D01*
X138084428Y-92069656D01*
X138084426Y-92069658D01*
X137886426Y-92176810D01*
X137886424Y-92176811D01*
X137708762Y-92315091D01*
X137556279Y-92480729D01*
X137467483Y-92616643D01*
X137413479Y-92662731D01*
X137343131Y-92672306D01*
X137278774Y-92642329D01*
X137256517Y-92616643D01*
X137167720Y-92480729D01*
X137015237Y-92315091D01*
X136895367Y-92221792D01*
X136837576Y-92176811D01*
X136639574Y-92069658D01*
X136639572Y-92069657D01*
X136639571Y-92069656D01*
X136426639Y-91996557D01*
X136426630Y-91996555D01*
X136382476Y-91989187D01*
X136204569Y-91959500D01*
X135979431Y-91959500D01*
X135831211Y-91984233D01*
X135757369Y-91996555D01*
X135757360Y-91996557D01*
X135544428Y-92069656D01*
X135544426Y-92069658D01*
X135346426Y-92176810D01*
X135346424Y-92176811D01*
X135168762Y-92315091D01*
X135016279Y-92480729D01*
X134927483Y-92616643D01*
X134873479Y-92662731D01*
X134803131Y-92672306D01*
X134738774Y-92642329D01*
X134716517Y-92616643D01*
X134627720Y-92480729D01*
X134475237Y-92315091D01*
X134355367Y-92221792D01*
X134297576Y-92176811D01*
X134099574Y-92069658D01*
X134099572Y-92069657D01*
X134099571Y-92069656D01*
X133886639Y-91996557D01*
X133886630Y-91996555D01*
X133842476Y-91989187D01*
X133664569Y-91959500D01*
X133439431Y-91959500D01*
X133291211Y-91984233D01*
X133217369Y-91996555D01*
X133217360Y-91996557D01*
X133004428Y-92069656D01*
X133004426Y-92069658D01*
X132806426Y-92176810D01*
X132806424Y-92176811D01*
X132628762Y-92315091D01*
X132476279Y-92480729D01*
X132476275Y-92480734D01*
X132353141Y-92669206D01*
X132262703Y-92875386D01*
X132262702Y-92875387D01*
X132207437Y-93093624D01*
X132207436Y-93093630D01*
X132207436Y-93093632D01*
X132188844Y-93318000D01*
X132206471Y-93530724D01*
X132207437Y-93542375D01*
X132262702Y-93760612D01*
X132262703Y-93760613D01*
X132353141Y-93966793D01*
X132476275Y-94155265D01*
X132476279Y-94155270D01*
X132628762Y-94320908D01*
X132683331Y-94363381D01*
X132806424Y-94459189D01*
X132839680Y-94477186D01*
X132890071Y-94527200D01*
X132905423Y-94596516D01*
X132880862Y-94663129D01*
X132839680Y-94698813D01*
X132806426Y-94716810D01*
X132806424Y-94716811D01*
X132628762Y-94855091D01*
X132476279Y-95020729D01*
X132387483Y-95156643D01*
X132333479Y-95202731D01*
X132263131Y-95212306D01*
X132198774Y-95182329D01*
X132176517Y-95156643D01*
X132087720Y-95020729D01*
X131935237Y-94855091D01*
X131827007Y-94770852D01*
X131757576Y-94716811D01*
X131559574Y-94609658D01*
X131559572Y-94609657D01*
X131559571Y-94609656D01*
X131346639Y-94536557D01*
X131346630Y-94536555D01*
X131290567Y-94527200D01*
X131124569Y-94499500D01*
X130899431Y-94499500D01*
X130751211Y-94524233D01*
X130677369Y-94536555D01*
X130677360Y-94536557D01*
X130464428Y-94609656D01*
X130464426Y-94609658D01*
X130266432Y-94716807D01*
X130266426Y-94716810D01*
X130266424Y-94716811D01*
X130088762Y-94855091D01*
X129936279Y-95020729D01*
X129847483Y-95156643D01*
X129793479Y-95202731D01*
X129723131Y-95212306D01*
X129658774Y-95182329D01*
X129636517Y-95156643D01*
X129547720Y-95020729D01*
X129404524Y-94865179D01*
X129373103Y-94801514D01*
X129381090Y-94730968D01*
X129425948Y-94675939D01*
X129453183Y-94661789D01*
X129568204Y-94618889D01*
X129620842Y-94579485D01*
X129685261Y-94531261D01*
X129772887Y-94414207D01*
X129772887Y-94414206D01*
X129772889Y-94414204D01*
X129823989Y-94277201D01*
X129830500Y-94216638D01*
X129830500Y-92419362D01*
X129829550Y-92410525D01*
X129823990Y-92358803D01*
X129823988Y-92358795D01*
X129772889Y-92221797D01*
X129772887Y-92221792D01*
X129685261Y-92104738D01*
X129568207Y-92017112D01*
X129568202Y-92017110D01*
X129431204Y-91966011D01*
X129431196Y-91966009D01*
X129370649Y-91959500D01*
X129370638Y-91959500D01*
X127573362Y-91959500D01*
X127573350Y-91959500D01*
X127512803Y-91966009D01*
X127512795Y-91966011D01*
X127375797Y-92017110D01*
X127375792Y-92017112D01*
X127277509Y-92090687D01*
X127210989Y-92115498D01*
X127141615Y-92100407D01*
X127126491Y-92090687D01*
X127028207Y-92017112D01*
X127028202Y-92017110D01*
X126891204Y-91966011D01*
X126891196Y-91966009D01*
X126830649Y-91959500D01*
X126830638Y-91959500D01*
X125033362Y-91959500D01*
X125033350Y-91959500D01*
X124972803Y-91966009D01*
X124972795Y-91966011D01*
X124835797Y-92017110D01*
X124835792Y-92017112D01*
X124718738Y-92104738D01*
X124631112Y-92221792D01*
X124631110Y-92221797D01*
X124580011Y-92358795D01*
X124580009Y-92358803D01*
X124573500Y-92419350D01*
X124573500Y-93441629D01*
X124553498Y-93509750D01*
X124536595Y-93530724D01*
X124012838Y-94054480D01*
X124012833Y-94054486D01*
X124003804Y-94068000D01*
X123929826Y-94178716D01*
X123872649Y-94316753D01*
X123858074Y-94390024D01*
X123858074Y-94390025D01*
X123843500Y-94463288D01*
X118032500Y-94463288D01*
X118032500Y-94071805D01*
X118032730Y-94064198D01*
X118033317Y-94054486D01*
X118050264Y-93774313D01*
X118052095Y-93759236D01*
X118103759Y-93477313D01*
X118107392Y-93462573D01*
X118192665Y-93188922D01*
X118198052Y-93174721D01*
X118315678Y-92913366D01*
X118322736Y-92899916D01*
X118471021Y-92654624D01*
X118479637Y-92642140D01*
X118656411Y-92416505D01*
X118666479Y-92405142D01*
X118869142Y-92202479D01*
X118880505Y-92192411D01*
X119106140Y-92015637D01*
X119118624Y-92007021D01*
X119363916Y-91858736D01*
X119377366Y-91851678D01*
X119638721Y-91734052D01*
X119652922Y-91728665D01*
X119926573Y-91643392D01*
X119941313Y-91639759D01*
X120223236Y-91588095D01*
X120238313Y-91586264D01*
X120500890Y-91570381D01*
X120528199Y-91568730D01*
X120535806Y-91568500D01*
X120597892Y-91568500D01*
X179466108Y-91568500D01*
X179528194Y-91568500D01*
X179535801Y-91568730D01*
G37*
G04 #@! TD.AperFunction*
M02*
