%TF.GenerationSoftware,KiCad,Pcbnew,8.0.7*%
%TF.CreationDate,2024-12-20T21:17:21-08:00*%
%TF.ProjectId,pi-zero-serial-hat,70692d7a-6572-46f2-9d73-657269616c2d,1.0*%
%TF.SameCoordinates,Original*%
%TF.FileFunction,Drillmap*%
%TF.FilePolarity,Positive*%
%FSLAX45Y45*%
G04 Gerber Fmt 4.5, Leading zero omitted, Abs format (unit mm)*
G04 Created by KiCad (PCBNEW 8.0.7) date 2024-12-20 21:17:21*
%MOMM*%
%LPD*%
G01*
G04 APERTURE LIST*
%ADD10C,0.150000*%
%ADD11C,0.200000*%
%ADD12C,0.100000*%
%ADD13C,0.130000*%
%ADD14C,0.300000*%
G04 APERTURE END LIST*
D10*
X12103200Y-14106800D02*
X17903200Y-14106800D01*
X17953200Y-9106800D02*
G75*
G02*
X18253200Y-9406800I0J-300000D01*
G01*
X18253200Y-13806800D02*
G75*
G02*
X17953200Y-14106800I-300000J0D01*
G01*
X12053200Y-14106800D02*
G75*
G02*
X11753200Y-13806800I0J300000D01*
G01*
X11753200Y-9406800D02*
G75*
G02*
X12053200Y-9106800I300000J0D01*
G01*
X11753200Y-11806800D02*
X11753200Y-9406800D01*
X12053200Y-9106800D02*
X17953200Y-9106800D01*
X18253200Y-9406800D02*
X18253200Y-11806800D01*
X11753200Y-13806800D02*
X11753200Y-11806800D01*
X12103200Y-14106800D02*
X12053200Y-14106800D01*
X18253200Y-11806800D02*
X18253200Y-13806800D01*
X17953200Y-14106800D02*
X17903200Y-14106800D01*
D11*
D12*
X15348200Y-12661300D02*
X15378200Y-12691300D01*
X15378200Y-12661300D02*
X15348200Y-12691300D01*
X15348200Y-12781300D02*
X15378200Y-12811300D01*
X15378200Y-12781300D02*
X15348200Y-12811300D01*
X15348200Y-12911300D02*
X15378200Y-12941300D01*
X15378200Y-12911300D02*
X15348200Y-12941300D01*
X15348200Y-13021300D02*
X15378200Y-13051300D01*
X15378200Y-13021300D02*
X15348200Y-13051300D01*
X15468200Y-12661300D02*
X15498200Y-12691300D01*
X15498200Y-12661300D02*
X15468200Y-12691300D01*
X15468200Y-12781300D02*
X15498200Y-12811300D01*
X15498200Y-12781300D02*
X15468200Y-12811300D01*
X15468200Y-12911300D02*
X15498200Y-12941300D01*
X15498200Y-12911300D02*
X15468200Y-12941300D01*
X15468200Y-13021300D02*
X15498200Y-13051300D01*
X15498200Y-13021300D02*
X15468200Y-13051300D01*
X14398200Y-10306800D02*
G75*
G02*
X14358200Y-10306800I-20000J0D01*
G01*
X14358200Y-10306800D02*
G75*
G02*
X14398200Y-10306800I20000J0D01*
G01*
X14398200Y-10406800D02*
G75*
G02*
X14358200Y-10406800I-20000J0D01*
G01*
X14358200Y-10406800D02*
G75*
G02*
X14398200Y-10406800I20000J0D01*
G01*
X14398200Y-10506800D02*
G75*
G02*
X14358200Y-10506800I-20000J0D01*
G01*
X14358200Y-10506800D02*
G75*
G02*
X14398200Y-10506800I20000J0D01*
G01*
X14398200Y-10606800D02*
G75*
G02*
X14358200Y-10606800I-20000J0D01*
G01*
X14358200Y-10606800D02*
G75*
G02*
X14398200Y-10606800I20000J0D01*
G01*
X14743200Y-10856800D02*
G75*
G02*
X14703200Y-10856800I-20000J0D01*
G01*
X14703200Y-10856800D02*
G75*
G02*
X14743200Y-10856800I20000J0D01*
G01*
X15203200Y-10466800D02*
G75*
G02*
X15163200Y-10466800I-20000J0D01*
G01*
X15163200Y-10466800D02*
G75*
G02*
X15203200Y-10466800I20000J0D01*
G01*
X15223200Y-11216800D02*
G75*
G02*
X15183200Y-11216800I-20000J0D01*
G01*
X15183200Y-11216800D02*
G75*
G02*
X15223200Y-11216800I20000J0D01*
G01*
X15593200Y-11086800D02*
G75*
G02*
X15553200Y-11086800I-20000J0D01*
G01*
X15553200Y-11086800D02*
G75*
G02*
X15593200Y-11086800I20000J0D01*
G01*
X12003200Y-11026800D02*
X12003200Y-11126800D01*
X11953200Y-11076800D02*
X12053200Y-11076800D01*
X12257200Y-11026800D02*
X12257200Y-11126800D01*
X12207200Y-11076800D02*
X12307200Y-11076800D01*
X12593200Y-9281800D02*
X12593200Y-9381800D01*
X12543200Y-9331800D02*
X12643200Y-9331800D01*
X12593200Y-9535800D02*
X12593200Y-9635800D01*
X12543200Y-9585800D02*
X12643200Y-9585800D01*
X12847200Y-9281800D02*
X12847200Y-9381800D01*
X12797200Y-9331800D02*
X12897200Y-9331800D01*
X12847200Y-9535800D02*
X12847200Y-9635800D01*
X12797200Y-9585800D02*
X12897200Y-9585800D01*
X13101200Y-9281800D02*
X13101200Y-9381800D01*
X13051200Y-9331800D02*
X13151200Y-9331800D01*
X13101200Y-9535800D02*
X13101200Y-9635800D01*
X13051200Y-9585800D02*
X13151200Y-9585800D01*
X13355200Y-9281800D02*
X13355200Y-9381800D01*
X13305200Y-9331800D02*
X13405200Y-9331800D01*
X13355200Y-9535800D02*
X13355200Y-9635800D01*
X13305200Y-9585800D02*
X13405200Y-9585800D01*
X13609200Y-9281800D02*
X13609200Y-9381800D01*
X13559200Y-9331800D02*
X13659200Y-9331800D01*
X13609200Y-9535800D02*
X13609200Y-9635800D01*
X13559200Y-9585800D02*
X13659200Y-9585800D01*
X13863200Y-9281800D02*
X13863200Y-9381800D01*
X13813200Y-9331800D02*
X13913200Y-9331800D01*
X13863200Y-9535800D02*
X13863200Y-9635800D01*
X13813200Y-9585800D02*
X13913200Y-9585800D01*
X13863200Y-10381800D02*
X13863200Y-10481800D01*
X13813200Y-10431800D02*
X13913200Y-10431800D01*
X14117200Y-9281800D02*
X14117200Y-9381800D01*
X14067200Y-9331800D02*
X14167200Y-9331800D01*
X14117200Y-9535800D02*
X14117200Y-9635800D01*
X14067200Y-9585800D02*
X14167200Y-9585800D01*
X14117200Y-10381800D02*
X14117200Y-10481800D01*
X14067200Y-10431800D02*
X14167200Y-10431800D01*
X14371200Y-9281800D02*
X14371200Y-9381800D01*
X14321200Y-9331800D02*
X14421200Y-9331800D01*
X14371200Y-9535800D02*
X14371200Y-9635800D01*
X14321200Y-9585800D02*
X14421200Y-9585800D01*
X14625200Y-9281800D02*
X14625200Y-9381800D01*
X14575200Y-9331800D02*
X14675200Y-9331800D01*
X14625200Y-9535800D02*
X14625200Y-9635800D01*
X14575200Y-9585800D02*
X14675200Y-9585800D01*
X14879200Y-9281800D02*
X14879200Y-9381800D01*
X14829200Y-9331800D02*
X14929200Y-9331800D01*
X14879200Y-9535800D02*
X14879200Y-9635800D01*
X14829200Y-9585800D02*
X14929200Y-9585800D01*
X15133200Y-9281800D02*
X15133200Y-9381800D01*
X15083200Y-9331800D02*
X15183200Y-9331800D01*
X15133200Y-9535800D02*
X15133200Y-9635800D01*
X15083200Y-9585800D02*
X15183200Y-9585800D01*
X15387200Y-9281800D02*
X15387200Y-9381800D01*
X15337200Y-9331800D02*
X15437200Y-9331800D01*
X15387200Y-9535800D02*
X15387200Y-9635800D01*
X15337200Y-9585800D02*
X15437200Y-9585800D01*
X15641200Y-9281800D02*
X15641200Y-9381800D01*
X15591200Y-9331800D02*
X15691200Y-9331800D01*
X15641200Y-9535800D02*
X15641200Y-9635800D01*
X15591200Y-9585800D02*
X15691200Y-9585800D01*
X15895200Y-9281800D02*
X15895200Y-9381800D01*
X15845200Y-9331800D02*
X15945200Y-9331800D01*
X15895200Y-9535800D02*
X15895200Y-9635800D01*
X15845200Y-9585800D02*
X15945200Y-9585800D01*
X16149200Y-9281800D02*
X16149200Y-9381800D01*
X16099200Y-9331800D02*
X16199200Y-9331800D01*
X16149200Y-9535800D02*
X16149200Y-9635800D01*
X16099200Y-9585800D02*
X16199200Y-9585800D01*
X16403200Y-9281800D02*
X16403200Y-9381800D01*
X16353200Y-9331800D02*
X16453200Y-9331800D01*
X16403200Y-9535800D02*
X16403200Y-9635800D01*
X16353200Y-9585800D02*
X16453200Y-9585800D01*
X16657200Y-9281800D02*
X16657200Y-9381800D01*
X16607200Y-9331800D02*
X16707200Y-9331800D01*
X16657200Y-9535800D02*
X16657200Y-9635800D01*
X16607200Y-9585800D02*
X16707200Y-9585800D01*
X16911200Y-9281800D02*
X16911200Y-9381800D01*
X16861200Y-9331800D02*
X16961200Y-9331800D01*
X16911200Y-9535800D02*
X16911200Y-9635800D01*
X16861200Y-9585800D02*
X16961200Y-9585800D01*
X17165200Y-9281800D02*
X17165200Y-9381800D01*
X17115200Y-9331800D02*
X17215200Y-9331800D01*
X17165200Y-9535800D02*
X17165200Y-9635800D01*
X17115200Y-9585800D02*
X17215200Y-9585800D01*
X17419200Y-9281800D02*
X17419200Y-9381800D01*
X17369200Y-9331800D02*
X17469200Y-9331800D01*
X17419200Y-9535800D02*
X17419200Y-9635800D01*
X17369200Y-9585800D02*
X17469200Y-9585800D01*
D13*
X17684162Y-10412762D02*
X17684162Y-10320838D01*
X17592238Y-10320838D01*
X17592238Y-10412762D01*
X17684162Y-10412762D01*
X17684162Y-10912762D02*
X17684162Y-10820838D01*
X17592238Y-10820838D01*
X17592238Y-10912762D01*
X17684162Y-10912762D01*
X17684162Y-12477762D02*
X17684162Y-12385838D01*
X17592238Y-12385838D01*
X17592238Y-12477762D01*
X17684162Y-12477762D01*
X17684162Y-12977762D02*
X17684162Y-12885838D01*
X17592238Y-12885838D01*
X17592238Y-12977762D01*
X17684162Y-12977762D01*
D14*
X12103200Y-9606800D02*
X12253200Y-9456800D01*
X12103200Y-9306800D01*
X11953200Y-9456800D01*
X12103200Y-9606800D01*
X12103200Y-11906800D02*
X12253200Y-11756800D01*
X12103200Y-11606800D01*
X11953200Y-11756800D01*
X12103200Y-11906800D01*
X17903200Y-9606800D02*
X18053200Y-9456800D01*
X17903200Y-9306800D01*
X17753200Y-9456800D01*
X17903200Y-9606800D01*
X17903200Y-11906800D02*
X18053200Y-11756800D01*
X17903200Y-11606800D01*
X17753200Y-11756800D01*
X17903200Y-11906800D01*
D11*
X12006477Y-14425784D02*
X12006477Y-14225784D01*
X12006477Y-14225784D02*
X12054096Y-14225784D01*
X12054096Y-14225784D02*
X12082667Y-14235308D01*
X12082667Y-14235308D02*
X12101715Y-14254355D01*
X12101715Y-14254355D02*
X12111239Y-14273403D01*
X12111239Y-14273403D02*
X12120762Y-14311498D01*
X12120762Y-14311498D02*
X12120762Y-14340069D01*
X12120762Y-14340069D02*
X12111239Y-14378165D01*
X12111239Y-14378165D02*
X12101715Y-14397212D01*
X12101715Y-14397212D02*
X12082667Y-14416260D01*
X12082667Y-14416260D02*
X12054096Y-14425784D01*
X12054096Y-14425784D02*
X12006477Y-14425784D01*
X12206477Y-14425784D02*
X12206477Y-14292450D01*
X12206477Y-14330546D02*
X12216001Y-14311498D01*
X12216001Y-14311498D02*
X12225524Y-14301974D01*
X12225524Y-14301974D02*
X12244572Y-14292450D01*
X12244572Y-14292450D02*
X12263620Y-14292450D01*
X12330286Y-14425784D02*
X12330286Y-14292450D01*
X12330286Y-14225784D02*
X12320762Y-14235308D01*
X12320762Y-14235308D02*
X12330286Y-14244831D01*
X12330286Y-14244831D02*
X12339810Y-14235308D01*
X12339810Y-14235308D02*
X12330286Y-14225784D01*
X12330286Y-14225784D02*
X12330286Y-14244831D01*
X12454096Y-14425784D02*
X12435048Y-14416260D01*
X12435048Y-14416260D02*
X12425524Y-14397212D01*
X12425524Y-14397212D02*
X12425524Y-14225784D01*
X12558858Y-14425784D02*
X12539810Y-14416260D01*
X12539810Y-14416260D02*
X12530286Y-14397212D01*
X12530286Y-14397212D02*
X12530286Y-14225784D01*
X12787429Y-14425784D02*
X12787429Y-14225784D01*
X12787429Y-14225784D02*
X12854096Y-14368641D01*
X12854096Y-14368641D02*
X12920762Y-14225784D01*
X12920762Y-14225784D02*
X12920762Y-14425784D01*
X13101715Y-14425784D02*
X13101715Y-14321022D01*
X13101715Y-14321022D02*
X13092191Y-14301974D01*
X13092191Y-14301974D02*
X13073143Y-14292450D01*
X13073143Y-14292450D02*
X13035048Y-14292450D01*
X13035048Y-14292450D02*
X13016001Y-14301974D01*
X13101715Y-14416260D02*
X13082667Y-14425784D01*
X13082667Y-14425784D02*
X13035048Y-14425784D01*
X13035048Y-14425784D02*
X13016001Y-14416260D01*
X13016001Y-14416260D02*
X13006477Y-14397212D01*
X13006477Y-14397212D02*
X13006477Y-14378165D01*
X13006477Y-14378165D02*
X13016001Y-14359117D01*
X13016001Y-14359117D02*
X13035048Y-14349593D01*
X13035048Y-14349593D02*
X13082667Y-14349593D01*
X13082667Y-14349593D02*
X13101715Y-14340069D01*
X13196953Y-14292450D02*
X13196953Y-14492450D01*
X13196953Y-14301974D02*
X13216001Y-14292450D01*
X13216001Y-14292450D02*
X13254096Y-14292450D01*
X13254096Y-14292450D02*
X13273143Y-14301974D01*
X13273143Y-14301974D02*
X13282667Y-14311498D01*
X13282667Y-14311498D02*
X13292191Y-14330546D01*
X13292191Y-14330546D02*
X13292191Y-14387688D01*
X13292191Y-14387688D02*
X13282667Y-14406736D01*
X13282667Y-14406736D02*
X13273143Y-14416260D01*
X13273143Y-14416260D02*
X13254096Y-14425784D01*
X13254096Y-14425784D02*
X13216001Y-14425784D01*
X13216001Y-14425784D02*
X13196953Y-14416260D01*
X13377905Y-14406736D02*
X13387429Y-14416260D01*
X13387429Y-14416260D02*
X13377905Y-14425784D01*
X13377905Y-14425784D02*
X13368382Y-14416260D01*
X13368382Y-14416260D02*
X13377905Y-14406736D01*
X13377905Y-14406736D02*
X13377905Y-14425784D01*
X13377905Y-14301974D02*
X13387429Y-14311498D01*
X13387429Y-14311498D02*
X13377905Y-14321022D01*
X13377905Y-14321022D02*
X13368382Y-14311498D01*
X13368382Y-14311498D02*
X13377905Y-14301974D01*
X13377905Y-14301974D02*
X13377905Y-14321022D01*
D12*
X11715700Y-14739300D02*
X11745700Y-14769300D01*
X11745700Y-14739300D02*
X11715700Y-14769300D01*
D11*
X12044572Y-14645784D02*
X12063620Y-14645784D01*
X12063620Y-14645784D02*
X12082667Y-14655308D01*
X12082667Y-14655308D02*
X12092191Y-14664831D01*
X12092191Y-14664831D02*
X12101715Y-14683879D01*
X12101715Y-14683879D02*
X12111239Y-14721974D01*
X12111239Y-14721974D02*
X12111239Y-14769593D01*
X12111239Y-14769593D02*
X12101715Y-14807688D01*
X12101715Y-14807688D02*
X12092191Y-14826736D01*
X12092191Y-14826736D02*
X12082667Y-14836260D01*
X12082667Y-14836260D02*
X12063620Y-14845784D01*
X12063620Y-14845784D02*
X12044572Y-14845784D01*
X12044572Y-14845784D02*
X12025524Y-14836260D01*
X12025524Y-14836260D02*
X12016001Y-14826736D01*
X12016001Y-14826736D02*
X12006477Y-14807688D01*
X12006477Y-14807688D02*
X11996953Y-14769593D01*
X11996953Y-14769593D02*
X11996953Y-14721974D01*
X11996953Y-14721974D02*
X12006477Y-14683879D01*
X12006477Y-14683879D02*
X12016001Y-14664831D01*
X12016001Y-14664831D02*
X12025524Y-14655308D01*
X12025524Y-14655308D02*
X12044572Y-14645784D01*
X12196953Y-14826736D02*
X12206477Y-14836260D01*
X12206477Y-14836260D02*
X12196953Y-14845784D01*
X12196953Y-14845784D02*
X12187429Y-14836260D01*
X12187429Y-14836260D02*
X12196953Y-14826736D01*
X12196953Y-14826736D02*
X12196953Y-14845784D01*
X12273143Y-14645784D02*
X12396953Y-14645784D01*
X12396953Y-14645784D02*
X12330286Y-14721974D01*
X12330286Y-14721974D02*
X12358858Y-14721974D01*
X12358858Y-14721974D02*
X12377905Y-14731498D01*
X12377905Y-14731498D02*
X12387429Y-14741022D01*
X12387429Y-14741022D02*
X12396953Y-14760069D01*
X12396953Y-14760069D02*
X12396953Y-14807688D01*
X12396953Y-14807688D02*
X12387429Y-14826736D01*
X12387429Y-14826736D02*
X12377905Y-14836260D01*
X12377905Y-14836260D02*
X12358858Y-14845784D01*
X12358858Y-14845784D02*
X12301715Y-14845784D01*
X12301715Y-14845784D02*
X12282667Y-14836260D01*
X12282667Y-14836260D02*
X12273143Y-14826736D01*
X12520762Y-14645784D02*
X12539810Y-14645784D01*
X12539810Y-14645784D02*
X12558858Y-14655308D01*
X12558858Y-14655308D02*
X12568382Y-14664831D01*
X12568382Y-14664831D02*
X12577905Y-14683879D01*
X12577905Y-14683879D02*
X12587429Y-14721974D01*
X12587429Y-14721974D02*
X12587429Y-14769593D01*
X12587429Y-14769593D02*
X12577905Y-14807688D01*
X12577905Y-14807688D02*
X12568382Y-14826736D01*
X12568382Y-14826736D02*
X12558858Y-14836260D01*
X12558858Y-14836260D02*
X12539810Y-14845784D01*
X12539810Y-14845784D02*
X12520762Y-14845784D01*
X12520762Y-14845784D02*
X12501715Y-14836260D01*
X12501715Y-14836260D02*
X12492191Y-14826736D01*
X12492191Y-14826736D02*
X12482667Y-14807688D01*
X12482667Y-14807688D02*
X12473143Y-14769593D01*
X12473143Y-14769593D02*
X12473143Y-14721974D01*
X12473143Y-14721974D02*
X12482667Y-14683879D01*
X12482667Y-14683879D02*
X12492191Y-14664831D01*
X12492191Y-14664831D02*
X12501715Y-14655308D01*
X12501715Y-14655308D02*
X12520762Y-14645784D01*
X12711239Y-14645784D02*
X12730286Y-14645784D01*
X12730286Y-14645784D02*
X12749334Y-14655308D01*
X12749334Y-14655308D02*
X12758858Y-14664831D01*
X12758858Y-14664831D02*
X12768382Y-14683879D01*
X12768382Y-14683879D02*
X12777905Y-14721974D01*
X12777905Y-14721974D02*
X12777905Y-14769593D01*
X12777905Y-14769593D02*
X12768382Y-14807688D01*
X12768382Y-14807688D02*
X12758858Y-14826736D01*
X12758858Y-14826736D02*
X12749334Y-14836260D01*
X12749334Y-14836260D02*
X12730286Y-14845784D01*
X12730286Y-14845784D02*
X12711239Y-14845784D01*
X12711239Y-14845784D02*
X12692191Y-14836260D01*
X12692191Y-14836260D02*
X12682667Y-14826736D01*
X12682667Y-14826736D02*
X12673143Y-14807688D01*
X12673143Y-14807688D02*
X12663620Y-14769593D01*
X12663620Y-14769593D02*
X12663620Y-14721974D01*
X12663620Y-14721974D02*
X12673143Y-14683879D01*
X12673143Y-14683879D02*
X12682667Y-14664831D01*
X12682667Y-14664831D02*
X12692191Y-14655308D01*
X12692191Y-14655308D02*
X12711239Y-14645784D01*
X12863620Y-14845784D02*
X12863620Y-14712450D01*
X12863620Y-14731498D02*
X12873143Y-14721974D01*
X12873143Y-14721974D02*
X12892191Y-14712450D01*
X12892191Y-14712450D02*
X12920763Y-14712450D01*
X12920763Y-14712450D02*
X12939810Y-14721974D01*
X12939810Y-14721974D02*
X12949334Y-14741022D01*
X12949334Y-14741022D02*
X12949334Y-14845784D01*
X12949334Y-14741022D02*
X12958858Y-14721974D01*
X12958858Y-14721974D02*
X12977905Y-14712450D01*
X12977905Y-14712450D02*
X13006477Y-14712450D01*
X13006477Y-14712450D02*
X13025524Y-14721974D01*
X13025524Y-14721974D02*
X13035048Y-14741022D01*
X13035048Y-14741022D02*
X13035048Y-14845784D01*
X13130286Y-14845784D02*
X13130286Y-14712450D01*
X13130286Y-14731498D02*
X13139810Y-14721974D01*
X13139810Y-14721974D02*
X13158858Y-14712450D01*
X13158858Y-14712450D02*
X13187429Y-14712450D01*
X13187429Y-14712450D02*
X13206477Y-14721974D01*
X13206477Y-14721974D02*
X13216001Y-14741022D01*
X13216001Y-14741022D02*
X13216001Y-14845784D01*
X13216001Y-14741022D02*
X13225524Y-14721974D01*
X13225524Y-14721974D02*
X13244572Y-14712450D01*
X13244572Y-14712450D02*
X13273143Y-14712450D01*
X13273143Y-14712450D02*
X13292191Y-14721974D01*
X13292191Y-14721974D02*
X13301715Y-14741022D01*
X13301715Y-14741022D02*
X13301715Y-14845784D01*
X13692191Y-14636260D02*
X13520763Y-14893403D01*
X13949334Y-14645784D02*
X13968382Y-14645784D01*
X13968382Y-14645784D02*
X13987429Y-14655308D01*
X13987429Y-14655308D02*
X13996953Y-14664831D01*
X13996953Y-14664831D02*
X14006477Y-14683879D01*
X14006477Y-14683879D02*
X14016001Y-14721974D01*
X14016001Y-14721974D02*
X14016001Y-14769593D01*
X14016001Y-14769593D02*
X14006477Y-14807688D01*
X14006477Y-14807688D02*
X13996953Y-14826736D01*
X13996953Y-14826736D02*
X13987429Y-14836260D01*
X13987429Y-14836260D02*
X13968382Y-14845784D01*
X13968382Y-14845784D02*
X13949334Y-14845784D01*
X13949334Y-14845784D02*
X13930286Y-14836260D01*
X13930286Y-14836260D02*
X13920763Y-14826736D01*
X13920763Y-14826736D02*
X13911239Y-14807688D01*
X13911239Y-14807688D02*
X13901715Y-14769593D01*
X13901715Y-14769593D02*
X13901715Y-14721974D01*
X13901715Y-14721974D02*
X13911239Y-14683879D01*
X13911239Y-14683879D02*
X13920763Y-14664831D01*
X13920763Y-14664831D02*
X13930286Y-14655308D01*
X13930286Y-14655308D02*
X13949334Y-14645784D01*
X14101715Y-14826736D02*
X14111239Y-14836260D01*
X14111239Y-14836260D02*
X14101715Y-14845784D01*
X14101715Y-14845784D02*
X14092191Y-14836260D01*
X14092191Y-14836260D02*
X14101715Y-14826736D01*
X14101715Y-14826736D02*
X14101715Y-14845784D01*
X14235048Y-14645784D02*
X14254096Y-14645784D01*
X14254096Y-14645784D02*
X14273144Y-14655308D01*
X14273144Y-14655308D02*
X14282667Y-14664831D01*
X14282667Y-14664831D02*
X14292191Y-14683879D01*
X14292191Y-14683879D02*
X14301715Y-14721974D01*
X14301715Y-14721974D02*
X14301715Y-14769593D01*
X14301715Y-14769593D02*
X14292191Y-14807688D01*
X14292191Y-14807688D02*
X14282667Y-14826736D01*
X14282667Y-14826736D02*
X14273144Y-14836260D01*
X14273144Y-14836260D02*
X14254096Y-14845784D01*
X14254096Y-14845784D02*
X14235048Y-14845784D01*
X14235048Y-14845784D02*
X14216001Y-14836260D01*
X14216001Y-14836260D02*
X14206477Y-14826736D01*
X14206477Y-14826736D02*
X14196953Y-14807688D01*
X14196953Y-14807688D02*
X14187429Y-14769593D01*
X14187429Y-14769593D02*
X14187429Y-14721974D01*
X14187429Y-14721974D02*
X14196953Y-14683879D01*
X14196953Y-14683879D02*
X14206477Y-14664831D01*
X14206477Y-14664831D02*
X14216001Y-14655308D01*
X14216001Y-14655308D02*
X14235048Y-14645784D01*
X14492191Y-14845784D02*
X14377906Y-14845784D01*
X14435048Y-14845784D02*
X14435048Y-14645784D01*
X14435048Y-14645784D02*
X14416001Y-14674355D01*
X14416001Y-14674355D02*
X14396953Y-14693403D01*
X14396953Y-14693403D02*
X14377906Y-14702927D01*
X14682667Y-14845784D02*
X14568382Y-14845784D01*
X14625525Y-14845784D02*
X14625525Y-14645784D01*
X14625525Y-14645784D02*
X14606477Y-14674355D01*
X14606477Y-14674355D02*
X14587429Y-14693403D01*
X14587429Y-14693403D02*
X14568382Y-14702927D01*
X14796953Y-14731498D02*
X14777906Y-14721974D01*
X14777906Y-14721974D02*
X14768382Y-14712450D01*
X14768382Y-14712450D02*
X14758858Y-14693403D01*
X14758858Y-14693403D02*
X14758858Y-14683879D01*
X14758858Y-14683879D02*
X14768382Y-14664831D01*
X14768382Y-14664831D02*
X14777906Y-14655308D01*
X14777906Y-14655308D02*
X14796953Y-14645784D01*
X14796953Y-14645784D02*
X14835048Y-14645784D01*
X14835048Y-14645784D02*
X14854096Y-14655308D01*
X14854096Y-14655308D02*
X14863620Y-14664831D01*
X14863620Y-14664831D02*
X14873144Y-14683879D01*
X14873144Y-14683879D02*
X14873144Y-14693403D01*
X14873144Y-14693403D02*
X14863620Y-14712450D01*
X14863620Y-14712450D02*
X14854096Y-14721974D01*
X14854096Y-14721974D02*
X14835048Y-14731498D01*
X14835048Y-14731498D02*
X14796953Y-14731498D01*
X14796953Y-14731498D02*
X14777906Y-14741022D01*
X14777906Y-14741022D02*
X14768382Y-14750546D01*
X14768382Y-14750546D02*
X14758858Y-14769593D01*
X14758858Y-14769593D02*
X14758858Y-14807688D01*
X14758858Y-14807688D02*
X14768382Y-14826736D01*
X14768382Y-14826736D02*
X14777906Y-14836260D01*
X14777906Y-14836260D02*
X14796953Y-14845784D01*
X14796953Y-14845784D02*
X14835048Y-14845784D01*
X14835048Y-14845784D02*
X14854096Y-14836260D01*
X14854096Y-14836260D02*
X14863620Y-14826736D01*
X14863620Y-14826736D02*
X14873144Y-14807688D01*
X14873144Y-14807688D02*
X14873144Y-14769593D01*
X14873144Y-14769593D02*
X14863620Y-14750546D01*
X14863620Y-14750546D02*
X14854096Y-14741022D01*
X14854096Y-14741022D02*
X14835048Y-14731498D01*
X14949334Y-14645784D02*
X14949334Y-14683879D01*
X15025525Y-14645784D02*
X15025525Y-14683879D01*
X15320763Y-14921974D02*
X15311239Y-14912450D01*
X15311239Y-14912450D02*
X15292191Y-14883879D01*
X15292191Y-14883879D02*
X15282668Y-14864831D01*
X15282668Y-14864831D02*
X15273144Y-14836260D01*
X15273144Y-14836260D02*
X15263620Y-14788641D01*
X15263620Y-14788641D02*
X15263620Y-14750546D01*
X15263620Y-14750546D02*
X15273144Y-14702927D01*
X15273144Y-14702927D02*
X15282668Y-14674355D01*
X15282668Y-14674355D02*
X15292191Y-14655308D01*
X15292191Y-14655308D02*
X15311239Y-14626736D01*
X15311239Y-14626736D02*
X15320763Y-14617212D01*
X15425525Y-14731498D02*
X15406477Y-14721974D01*
X15406477Y-14721974D02*
X15396953Y-14712450D01*
X15396953Y-14712450D02*
X15387429Y-14693403D01*
X15387429Y-14693403D02*
X15387429Y-14683879D01*
X15387429Y-14683879D02*
X15396953Y-14664831D01*
X15396953Y-14664831D02*
X15406477Y-14655308D01*
X15406477Y-14655308D02*
X15425525Y-14645784D01*
X15425525Y-14645784D02*
X15463620Y-14645784D01*
X15463620Y-14645784D02*
X15482668Y-14655308D01*
X15482668Y-14655308D02*
X15492191Y-14664831D01*
X15492191Y-14664831D02*
X15501715Y-14683879D01*
X15501715Y-14683879D02*
X15501715Y-14693403D01*
X15501715Y-14693403D02*
X15492191Y-14712450D01*
X15492191Y-14712450D02*
X15482668Y-14721974D01*
X15482668Y-14721974D02*
X15463620Y-14731498D01*
X15463620Y-14731498D02*
X15425525Y-14731498D01*
X15425525Y-14731498D02*
X15406477Y-14741022D01*
X15406477Y-14741022D02*
X15396953Y-14750546D01*
X15396953Y-14750546D02*
X15387429Y-14769593D01*
X15387429Y-14769593D02*
X15387429Y-14807688D01*
X15387429Y-14807688D02*
X15396953Y-14826736D01*
X15396953Y-14826736D02*
X15406477Y-14836260D01*
X15406477Y-14836260D02*
X15425525Y-14845784D01*
X15425525Y-14845784D02*
X15463620Y-14845784D01*
X15463620Y-14845784D02*
X15482668Y-14836260D01*
X15482668Y-14836260D02*
X15492191Y-14826736D01*
X15492191Y-14826736D02*
X15501715Y-14807688D01*
X15501715Y-14807688D02*
X15501715Y-14769593D01*
X15501715Y-14769593D02*
X15492191Y-14750546D01*
X15492191Y-14750546D02*
X15482668Y-14741022D01*
X15482668Y-14741022D02*
X15463620Y-14731498D01*
X15739810Y-14845784D02*
X15739810Y-14645784D01*
X15825525Y-14845784D02*
X15825525Y-14741022D01*
X15825525Y-14741022D02*
X15816001Y-14721974D01*
X15816001Y-14721974D02*
X15796953Y-14712450D01*
X15796953Y-14712450D02*
X15768382Y-14712450D01*
X15768382Y-14712450D02*
X15749334Y-14721974D01*
X15749334Y-14721974D02*
X15739810Y-14731498D01*
X15949334Y-14845784D02*
X15930287Y-14836260D01*
X15930287Y-14836260D02*
X15920763Y-14826736D01*
X15920763Y-14826736D02*
X15911239Y-14807688D01*
X15911239Y-14807688D02*
X15911239Y-14750546D01*
X15911239Y-14750546D02*
X15920763Y-14731498D01*
X15920763Y-14731498D02*
X15930287Y-14721974D01*
X15930287Y-14721974D02*
X15949334Y-14712450D01*
X15949334Y-14712450D02*
X15977906Y-14712450D01*
X15977906Y-14712450D02*
X15996953Y-14721974D01*
X15996953Y-14721974D02*
X16006477Y-14731498D01*
X16006477Y-14731498D02*
X16016001Y-14750546D01*
X16016001Y-14750546D02*
X16016001Y-14807688D01*
X16016001Y-14807688D02*
X16006477Y-14826736D01*
X16006477Y-14826736D02*
X15996953Y-14836260D01*
X15996953Y-14836260D02*
X15977906Y-14845784D01*
X15977906Y-14845784D02*
X15949334Y-14845784D01*
X16130287Y-14845784D02*
X16111239Y-14836260D01*
X16111239Y-14836260D02*
X16101715Y-14817212D01*
X16101715Y-14817212D02*
X16101715Y-14645784D01*
X16282668Y-14836260D02*
X16263620Y-14845784D01*
X16263620Y-14845784D02*
X16225525Y-14845784D01*
X16225525Y-14845784D02*
X16206477Y-14836260D01*
X16206477Y-14836260D02*
X16196953Y-14817212D01*
X16196953Y-14817212D02*
X16196953Y-14741022D01*
X16196953Y-14741022D02*
X16206477Y-14721974D01*
X16206477Y-14721974D02*
X16225525Y-14712450D01*
X16225525Y-14712450D02*
X16263620Y-14712450D01*
X16263620Y-14712450D02*
X16282668Y-14721974D01*
X16282668Y-14721974D02*
X16292191Y-14741022D01*
X16292191Y-14741022D02*
X16292191Y-14760069D01*
X16292191Y-14760069D02*
X16196953Y-14779117D01*
X16368382Y-14836260D02*
X16387430Y-14845784D01*
X16387430Y-14845784D02*
X16425525Y-14845784D01*
X16425525Y-14845784D02*
X16444572Y-14836260D01*
X16444572Y-14836260D02*
X16454096Y-14817212D01*
X16454096Y-14817212D02*
X16454096Y-14807688D01*
X16454096Y-14807688D02*
X16444572Y-14788641D01*
X16444572Y-14788641D02*
X16425525Y-14779117D01*
X16425525Y-14779117D02*
X16396953Y-14779117D01*
X16396953Y-14779117D02*
X16377906Y-14769593D01*
X16377906Y-14769593D02*
X16368382Y-14750546D01*
X16368382Y-14750546D02*
X16368382Y-14741022D01*
X16368382Y-14741022D02*
X16377906Y-14721974D01*
X16377906Y-14721974D02*
X16396953Y-14712450D01*
X16396953Y-14712450D02*
X16425525Y-14712450D01*
X16425525Y-14712450D02*
X16444572Y-14721974D01*
X16520763Y-14921974D02*
X16530287Y-14912450D01*
X16530287Y-14912450D02*
X16549334Y-14883879D01*
X16549334Y-14883879D02*
X16558858Y-14864831D01*
X16558858Y-14864831D02*
X16568382Y-14836260D01*
X16568382Y-14836260D02*
X16577906Y-14788641D01*
X16577906Y-14788641D02*
X16577906Y-14750546D01*
X16577906Y-14750546D02*
X16568382Y-14702927D01*
X16568382Y-14702927D02*
X16558858Y-14674355D01*
X16558858Y-14674355D02*
X16549334Y-14655308D01*
X16549334Y-14655308D02*
X16530287Y-14626736D01*
X16530287Y-14626736D02*
X16520763Y-14617212D01*
D12*
X11745700Y-15018300D02*
G75*
G02*
X11705700Y-15018300I-20000J0D01*
G01*
X11705700Y-15018300D02*
G75*
G02*
X11745700Y-15018300I20000J0D01*
G01*
D11*
X12044572Y-14909784D02*
X12063620Y-14909784D01*
X12063620Y-14909784D02*
X12082667Y-14919308D01*
X12082667Y-14919308D02*
X12092191Y-14928831D01*
X12092191Y-14928831D02*
X12101715Y-14947879D01*
X12101715Y-14947879D02*
X12111239Y-14985974D01*
X12111239Y-14985974D02*
X12111239Y-15033593D01*
X12111239Y-15033593D02*
X12101715Y-15071688D01*
X12101715Y-15071688D02*
X12092191Y-15090736D01*
X12092191Y-15090736D02*
X12082667Y-15100260D01*
X12082667Y-15100260D02*
X12063620Y-15109784D01*
X12063620Y-15109784D02*
X12044572Y-15109784D01*
X12044572Y-15109784D02*
X12025524Y-15100260D01*
X12025524Y-15100260D02*
X12016001Y-15090736D01*
X12016001Y-15090736D02*
X12006477Y-15071688D01*
X12006477Y-15071688D02*
X11996953Y-15033593D01*
X11996953Y-15033593D02*
X11996953Y-14985974D01*
X11996953Y-14985974D02*
X12006477Y-14947879D01*
X12006477Y-14947879D02*
X12016001Y-14928831D01*
X12016001Y-14928831D02*
X12025524Y-14919308D01*
X12025524Y-14919308D02*
X12044572Y-14909784D01*
X12196953Y-15090736D02*
X12206477Y-15100260D01*
X12206477Y-15100260D02*
X12196953Y-15109784D01*
X12196953Y-15109784D02*
X12187429Y-15100260D01*
X12187429Y-15100260D02*
X12196953Y-15090736D01*
X12196953Y-15090736D02*
X12196953Y-15109784D01*
X12377905Y-14976450D02*
X12377905Y-15109784D01*
X12330286Y-14900260D02*
X12282667Y-15043117D01*
X12282667Y-15043117D02*
X12406477Y-15043117D01*
X12520762Y-14909784D02*
X12539810Y-14909784D01*
X12539810Y-14909784D02*
X12558858Y-14919308D01*
X12558858Y-14919308D02*
X12568382Y-14928831D01*
X12568382Y-14928831D02*
X12577905Y-14947879D01*
X12577905Y-14947879D02*
X12587429Y-14985974D01*
X12587429Y-14985974D02*
X12587429Y-15033593D01*
X12587429Y-15033593D02*
X12577905Y-15071688D01*
X12577905Y-15071688D02*
X12568382Y-15090736D01*
X12568382Y-15090736D02*
X12558858Y-15100260D01*
X12558858Y-15100260D02*
X12539810Y-15109784D01*
X12539810Y-15109784D02*
X12520762Y-15109784D01*
X12520762Y-15109784D02*
X12501715Y-15100260D01*
X12501715Y-15100260D02*
X12492191Y-15090736D01*
X12492191Y-15090736D02*
X12482667Y-15071688D01*
X12482667Y-15071688D02*
X12473143Y-15033593D01*
X12473143Y-15033593D02*
X12473143Y-14985974D01*
X12473143Y-14985974D02*
X12482667Y-14947879D01*
X12482667Y-14947879D02*
X12492191Y-14928831D01*
X12492191Y-14928831D02*
X12501715Y-14919308D01*
X12501715Y-14919308D02*
X12520762Y-14909784D01*
X12711239Y-14909784D02*
X12730286Y-14909784D01*
X12730286Y-14909784D02*
X12749334Y-14919308D01*
X12749334Y-14919308D02*
X12758858Y-14928831D01*
X12758858Y-14928831D02*
X12768382Y-14947879D01*
X12768382Y-14947879D02*
X12777905Y-14985974D01*
X12777905Y-14985974D02*
X12777905Y-15033593D01*
X12777905Y-15033593D02*
X12768382Y-15071688D01*
X12768382Y-15071688D02*
X12758858Y-15090736D01*
X12758858Y-15090736D02*
X12749334Y-15100260D01*
X12749334Y-15100260D02*
X12730286Y-15109784D01*
X12730286Y-15109784D02*
X12711239Y-15109784D01*
X12711239Y-15109784D02*
X12692191Y-15100260D01*
X12692191Y-15100260D02*
X12682667Y-15090736D01*
X12682667Y-15090736D02*
X12673143Y-15071688D01*
X12673143Y-15071688D02*
X12663620Y-15033593D01*
X12663620Y-15033593D02*
X12663620Y-14985974D01*
X12663620Y-14985974D02*
X12673143Y-14947879D01*
X12673143Y-14947879D02*
X12682667Y-14928831D01*
X12682667Y-14928831D02*
X12692191Y-14919308D01*
X12692191Y-14919308D02*
X12711239Y-14909784D01*
X12863620Y-15109784D02*
X12863620Y-14976450D01*
X12863620Y-14995498D02*
X12873143Y-14985974D01*
X12873143Y-14985974D02*
X12892191Y-14976450D01*
X12892191Y-14976450D02*
X12920763Y-14976450D01*
X12920763Y-14976450D02*
X12939810Y-14985974D01*
X12939810Y-14985974D02*
X12949334Y-15005022D01*
X12949334Y-15005022D02*
X12949334Y-15109784D01*
X12949334Y-15005022D02*
X12958858Y-14985974D01*
X12958858Y-14985974D02*
X12977905Y-14976450D01*
X12977905Y-14976450D02*
X13006477Y-14976450D01*
X13006477Y-14976450D02*
X13025524Y-14985974D01*
X13025524Y-14985974D02*
X13035048Y-15005022D01*
X13035048Y-15005022D02*
X13035048Y-15109784D01*
X13130286Y-15109784D02*
X13130286Y-14976450D01*
X13130286Y-14995498D02*
X13139810Y-14985974D01*
X13139810Y-14985974D02*
X13158858Y-14976450D01*
X13158858Y-14976450D02*
X13187429Y-14976450D01*
X13187429Y-14976450D02*
X13206477Y-14985974D01*
X13206477Y-14985974D02*
X13216001Y-15005022D01*
X13216001Y-15005022D02*
X13216001Y-15109784D01*
X13216001Y-15005022D02*
X13225524Y-14985974D01*
X13225524Y-14985974D02*
X13244572Y-14976450D01*
X13244572Y-14976450D02*
X13273143Y-14976450D01*
X13273143Y-14976450D02*
X13292191Y-14985974D01*
X13292191Y-14985974D02*
X13301715Y-15005022D01*
X13301715Y-15005022D02*
X13301715Y-15109784D01*
X13692191Y-14900260D02*
X13520763Y-15157403D01*
X13949334Y-14909784D02*
X13968382Y-14909784D01*
X13968382Y-14909784D02*
X13987429Y-14919308D01*
X13987429Y-14919308D02*
X13996953Y-14928831D01*
X13996953Y-14928831D02*
X14006477Y-14947879D01*
X14006477Y-14947879D02*
X14016001Y-14985974D01*
X14016001Y-14985974D02*
X14016001Y-15033593D01*
X14016001Y-15033593D02*
X14006477Y-15071688D01*
X14006477Y-15071688D02*
X13996953Y-15090736D01*
X13996953Y-15090736D02*
X13987429Y-15100260D01*
X13987429Y-15100260D02*
X13968382Y-15109784D01*
X13968382Y-15109784D02*
X13949334Y-15109784D01*
X13949334Y-15109784D02*
X13930286Y-15100260D01*
X13930286Y-15100260D02*
X13920763Y-15090736D01*
X13920763Y-15090736D02*
X13911239Y-15071688D01*
X13911239Y-15071688D02*
X13901715Y-15033593D01*
X13901715Y-15033593D02*
X13901715Y-14985974D01*
X13901715Y-14985974D02*
X13911239Y-14947879D01*
X13911239Y-14947879D02*
X13920763Y-14928831D01*
X13920763Y-14928831D02*
X13930286Y-14919308D01*
X13930286Y-14919308D02*
X13949334Y-14909784D01*
X14101715Y-15090736D02*
X14111239Y-15100260D01*
X14111239Y-15100260D02*
X14101715Y-15109784D01*
X14101715Y-15109784D02*
X14092191Y-15100260D01*
X14092191Y-15100260D02*
X14101715Y-15090736D01*
X14101715Y-15090736D02*
X14101715Y-15109784D01*
X14235048Y-14909784D02*
X14254096Y-14909784D01*
X14254096Y-14909784D02*
X14273144Y-14919308D01*
X14273144Y-14919308D02*
X14282667Y-14928831D01*
X14282667Y-14928831D02*
X14292191Y-14947879D01*
X14292191Y-14947879D02*
X14301715Y-14985974D01*
X14301715Y-14985974D02*
X14301715Y-15033593D01*
X14301715Y-15033593D02*
X14292191Y-15071688D01*
X14292191Y-15071688D02*
X14282667Y-15090736D01*
X14282667Y-15090736D02*
X14273144Y-15100260D01*
X14273144Y-15100260D02*
X14254096Y-15109784D01*
X14254096Y-15109784D02*
X14235048Y-15109784D01*
X14235048Y-15109784D02*
X14216001Y-15100260D01*
X14216001Y-15100260D02*
X14206477Y-15090736D01*
X14206477Y-15090736D02*
X14196953Y-15071688D01*
X14196953Y-15071688D02*
X14187429Y-15033593D01*
X14187429Y-15033593D02*
X14187429Y-14985974D01*
X14187429Y-14985974D02*
X14196953Y-14947879D01*
X14196953Y-14947879D02*
X14206477Y-14928831D01*
X14206477Y-14928831D02*
X14216001Y-14919308D01*
X14216001Y-14919308D02*
X14235048Y-14909784D01*
X14492191Y-15109784D02*
X14377906Y-15109784D01*
X14435048Y-15109784D02*
X14435048Y-14909784D01*
X14435048Y-14909784D02*
X14416001Y-14938355D01*
X14416001Y-14938355D02*
X14396953Y-14957403D01*
X14396953Y-14957403D02*
X14377906Y-14966927D01*
X14673144Y-14909784D02*
X14577906Y-14909784D01*
X14577906Y-14909784D02*
X14568382Y-15005022D01*
X14568382Y-15005022D02*
X14577906Y-14995498D01*
X14577906Y-14995498D02*
X14596953Y-14985974D01*
X14596953Y-14985974D02*
X14644572Y-14985974D01*
X14644572Y-14985974D02*
X14663620Y-14995498D01*
X14663620Y-14995498D02*
X14673144Y-15005022D01*
X14673144Y-15005022D02*
X14682667Y-15024069D01*
X14682667Y-15024069D02*
X14682667Y-15071688D01*
X14682667Y-15071688D02*
X14673144Y-15090736D01*
X14673144Y-15090736D02*
X14663620Y-15100260D01*
X14663620Y-15100260D02*
X14644572Y-15109784D01*
X14644572Y-15109784D02*
X14596953Y-15109784D01*
X14596953Y-15109784D02*
X14577906Y-15100260D01*
X14577906Y-15100260D02*
X14568382Y-15090736D01*
X14749334Y-14909784D02*
X14882667Y-14909784D01*
X14882667Y-14909784D02*
X14796953Y-15109784D01*
X14949334Y-14909784D02*
X14949334Y-14947879D01*
X15025525Y-14909784D02*
X15025525Y-14947879D01*
X15320763Y-15185974D02*
X15311239Y-15176450D01*
X15311239Y-15176450D02*
X15292191Y-15147879D01*
X15292191Y-15147879D02*
X15282668Y-15128831D01*
X15282668Y-15128831D02*
X15273144Y-15100260D01*
X15273144Y-15100260D02*
X15263620Y-15052641D01*
X15263620Y-15052641D02*
X15263620Y-15014546D01*
X15263620Y-15014546D02*
X15273144Y-14966927D01*
X15273144Y-14966927D02*
X15282668Y-14938355D01*
X15282668Y-14938355D02*
X15292191Y-14919308D01*
X15292191Y-14919308D02*
X15311239Y-14890736D01*
X15311239Y-14890736D02*
X15320763Y-14881212D01*
X15425525Y-14995498D02*
X15406477Y-14985974D01*
X15406477Y-14985974D02*
X15396953Y-14976450D01*
X15396953Y-14976450D02*
X15387429Y-14957403D01*
X15387429Y-14957403D02*
X15387429Y-14947879D01*
X15387429Y-14947879D02*
X15396953Y-14928831D01*
X15396953Y-14928831D02*
X15406477Y-14919308D01*
X15406477Y-14919308D02*
X15425525Y-14909784D01*
X15425525Y-14909784D02*
X15463620Y-14909784D01*
X15463620Y-14909784D02*
X15482668Y-14919308D01*
X15482668Y-14919308D02*
X15492191Y-14928831D01*
X15492191Y-14928831D02*
X15501715Y-14947879D01*
X15501715Y-14947879D02*
X15501715Y-14957403D01*
X15501715Y-14957403D02*
X15492191Y-14976450D01*
X15492191Y-14976450D02*
X15482668Y-14985974D01*
X15482668Y-14985974D02*
X15463620Y-14995498D01*
X15463620Y-14995498D02*
X15425525Y-14995498D01*
X15425525Y-14995498D02*
X15406477Y-15005022D01*
X15406477Y-15005022D02*
X15396953Y-15014546D01*
X15396953Y-15014546D02*
X15387429Y-15033593D01*
X15387429Y-15033593D02*
X15387429Y-15071688D01*
X15387429Y-15071688D02*
X15396953Y-15090736D01*
X15396953Y-15090736D02*
X15406477Y-15100260D01*
X15406477Y-15100260D02*
X15425525Y-15109784D01*
X15425525Y-15109784D02*
X15463620Y-15109784D01*
X15463620Y-15109784D02*
X15482668Y-15100260D01*
X15482668Y-15100260D02*
X15492191Y-15090736D01*
X15492191Y-15090736D02*
X15501715Y-15071688D01*
X15501715Y-15071688D02*
X15501715Y-15033593D01*
X15501715Y-15033593D02*
X15492191Y-15014546D01*
X15492191Y-15014546D02*
X15482668Y-15005022D01*
X15482668Y-15005022D02*
X15463620Y-14995498D01*
X15739810Y-15109784D02*
X15739810Y-14909784D01*
X15825525Y-15109784D02*
X15825525Y-15005022D01*
X15825525Y-15005022D02*
X15816001Y-14985974D01*
X15816001Y-14985974D02*
X15796953Y-14976450D01*
X15796953Y-14976450D02*
X15768382Y-14976450D01*
X15768382Y-14976450D02*
X15749334Y-14985974D01*
X15749334Y-14985974D02*
X15739810Y-14995498D01*
X15949334Y-15109784D02*
X15930287Y-15100260D01*
X15930287Y-15100260D02*
X15920763Y-15090736D01*
X15920763Y-15090736D02*
X15911239Y-15071688D01*
X15911239Y-15071688D02*
X15911239Y-15014546D01*
X15911239Y-15014546D02*
X15920763Y-14995498D01*
X15920763Y-14995498D02*
X15930287Y-14985974D01*
X15930287Y-14985974D02*
X15949334Y-14976450D01*
X15949334Y-14976450D02*
X15977906Y-14976450D01*
X15977906Y-14976450D02*
X15996953Y-14985974D01*
X15996953Y-14985974D02*
X16006477Y-14995498D01*
X16006477Y-14995498D02*
X16016001Y-15014546D01*
X16016001Y-15014546D02*
X16016001Y-15071688D01*
X16016001Y-15071688D02*
X16006477Y-15090736D01*
X16006477Y-15090736D02*
X15996953Y-15100260D01*
X15996953Y-15100260D02*
X15977906Y-15109784D01*
X15977906Y-15109784D02*
X15949334Y-15109784D01*
X16130287Y-15109784D02*
X16111239Y-15100260D01*
X16111239Y-15100260D02*
X16101715Y-15081212D01*
X16101715Y-15081212D02*
X16101715Y-14909784D01*
X16282668Y-15100260D02*
X16263620Y-15109784D01*
X16263620Y-15109784D02*
X16225525Y-15109784D01*
X16225525Y-15109784D02*
X16206477Y-15100260D01*
X16206477Y-15100260D02*
X16196953Y-15081212D01*
X16196953Y-15081212D02*
X16196953Y-15005022D01*
X16196953Y-15005022D02*
X16206477Y-14985974D01*
X16206477Y-14985974D02*
X16225525Y-14976450D01*
X16225525Y-14976450D02*
X16263620Y-14976450D01*
X16263620Y-14976450D02*
X16282668Y-14985974D01*
X16282668Y-14985974D02*
X16292191Y-15005022D01*
X16292191Y-15005022D02*
X16292191Y-15024069D01*
X16292191Y-15024069D02*
X16196953Y-15043117D01*
X16368382Y-15100260D02*
X16387430Y-15109784D01*
X16387430Y-15109784D02*
X16425525Y-15109784D01*
X16425525Y-15109784D02*
X16444572Y-15100260D01*
X16444572Y-15100260D02*
X16454096Y-15081212D01*
X16454096Y-15081212D02*
X16454096Y-15071688D01*
X16454096Y-15071688D02*
X16444572Y-15052641D01*
X16444572Y-15052641D02*
X16425525Y-15043117D01*
X16425525Y-15043117D02*
X16396953Y-15043117D01*
X16396953Y-15043117D02*
X16377906Y-15033593D01*
X16377906Y-15033593D02*
X16368382Y-15014546D01*
X16368382Y-15014546D02*
X16368382Y-15005022D01*
X16368382Y-15005022D02*
X16377906Y-14985974D01*
X16377906Y-14985974D02*
X16396953Y-14976450D01*
X16396953Y-14976450D02*
X16425525Y-14976450D01*
X16425525Y-14976450D02*
X16444572Y-14985974D01*
X16520763Y-15185974D02*
X16530287Y-15176450D01*
X16530287Y-15176450D02*
X16549334Y-15147879D01*
X16549334Y-15147879D02*
X16558858Y-15128831D01*
X16558858Y-15128831D02*
X16568382Y-15100260D01*
X16568382Y-15100260D02*
X16577906Y-15052641D01*
X16577906Y-15052641D02*
X16577906Y-15014546D01*
X16577906Y-15014546D02*
X16568382Y-14966927D01*
X16568382Y-14966927D02*
X16558858Y-14938355D01*
X16558858Y-14938355D02*
X16549334Y-14919308D01*
X16549334Y-14919308D02*
X16530287Y-14890736D01*
X16530287Y-14890736D02*
X16520763Y-14881212D01*
D12*
X11695700Y-15232300D02*
X11695700Y-15332300D01*
X11645700Y-15282300D02*
X11745700Y-15282300D01*
D11*
X12111239Y-15373784D02*
X11996953Y-15373784D01*
X12054096Y-15373784D02*
X12054096Y-15173784D01*
X12054096Y-15173784D02*
X12035048Y-15202355D01*
X12035048Y-15202355D02*
X12016001Y-15221403D01*
X12016001Y-15221403D02*
X11996953Y-15230927D01*
X12196953Y-15354736D02*
X12206477Y-15364260D01*
X12206477Y-15364260D02*
X12196953Y-15373784D01*
X12196953Y-15373784D02*
X12187429Y-15364260D01*
X12187429Y-15364260D02*
X12196953Y-15354736D01*
X12196953Y-15354736D02*
X12196953Y-15373784D01*
X12330286Y-15173784D02*
X12349334Y-15173784D01*
X12349334Y-15173784D02*
X12368382Y-15183308D01*
X12368382Y-15183308D02*
X12377905Y-15192831D01*
X12377905Y-15192831D02*
X12387429Y-15211879D01*
X12387429Y-15211879D02*
X12396953Y-15249974D01*
X12396953Y-15249974D02*
X12396953Y-15297593D01*
X12396953Y-15297593D02*
X12387429Y-15335688D01*
X12387429Y-15335688D02*
X12377905Y-15354736D01*
X12377905Y-15354736D02*
X12368382Y-15364260D01*
X12368382Y-15364260D02*
X12349334Y-15373784D01*
X12349334Y-15373784D02*
X12330286Y-15373784D01*
X12330286Y-15373784D02*
X12311239Y-15364260D01*
X12311239Y-15364260D02*
X12301715Y-15354736D01*
X12301715Y-15354736D02*
X12292191Y-15335688D01*
X12292191Y-15335688D02*
X12282667Y-15297593D01*
X12282667Y-15297593D02*
X12282667Y-15249974D01*
X12282667Y-15249974D02*
X12292191Y-15211879D01*
X12292191Y-15211879D02*
X12301715Y-15192831D01*
X12301715Y-15192831D02*
X12311239Y-15183308D01*
X12311239Y-15183308D02*
X12330286Y-15173784D01*
X12520762Y-15173784D02*
X12539810Y-15173784D01*
X12539810Y-15173784D02*
X12558858Y-15183308D01*
X12558858Y-15183308D02*
X12568382Y-15192831D01*
X12568382Y-15192831D02*
X12577905Y-15211879D01*
X12577905Y-15211879D02*
X12587429Y-15249974D01*
X12587429Y-15249974D02*
X12587429Y-15297593D01*
X12587429Y-15297593D02*
X12577905Y-15335688D01*
X12577905Y-15335688D02*
X12568382Y-15354736D01*
X12568382Y-15354736D02*
X12558858Y-15364260D01*
X12558858Y-15364260D02*
X12539810Y-15373784D01*
X12539810Y-15373784D02*
X12520762Y-15373784D01*
X12520762Y-15373784D02*
X12501715Y-15364260D01*
X12501715Y-15364260D02*
X12492191Y-15354736D01*
X12492191Y-15354736D02*
X12482667Y-15335688D01*
X12482667Y-15335688D02*
X12473143Y-15297593D01*
X12473143Y-15297593D02*
X12473143Y-15249974D01*
X12473143Y-15249974D02*
X12482667Y-15211879D01*
X12482667Y-15211879D02*
X12492191Y-15192831D01*
X12492191Y-15192831D02*
X12501715Y-15183308D01*
X12501715Y-15183308D02*
X12520762Y-15173784D01*
X12711239Y-15173784D02*
X12730286Y-15173784D01*
X12730286Y-15173784D02*
X12749334Y-15183308D01*
X12749334Y-15183308D02*
X12758858Y-15192831D01*
X12758858Y-15192831D02*
X12768382Y-15211879D01*
X12768382Y-15211879D02*
X12777905Y-15249974D01*
X12777905Y-15249974D02*
X12777905Y-15297593D01*
X12777905Y-15297593D02*
X12768382Y-15335688D01*
X12768382Y-15335688D02*
X12758858Y-15354736D01*
X12758858Y-15354736D02*
X12749334Y-15364260D01*
X12749334Y-15364260D02*
X12730286Y-15373784D01*
X12730286Y-15373784D02*
X12711239Y-15373784D01*
X12711239Y-15373784D02*
X12692191Y-15364260D01*
X12692191Y-15364260D02*
X12682667Y-15354736D01*
X12682667Y-15354736D02*
X12673143Y-15335688D01*
X12673143Y-15335688D02*
X12663620Y-15297593D01*
X12663620Y-15297593D02*
X12663620Y-15249974D01*
X12663620Y-15249974D02*
X12673143Y-15211879D01*
X12673143Y-15211879D02*
X12682667Y-15192831D01*
X12682667Y-15192831D02*
X12692191Y-15183308D01*
X12692191Y-15183308D02*
X12711239Y-15173784D01*
X12863620Y-15373784D02*
X12863620Y-15240450D01*
X12863620Y-15259498D02*
X12873143Y-15249974D01*
X12873143Y-15249974D02*
X12892191Y-15240450D01*
X12892191Y-15240450D02*
X12920763Y-15240450D01*
X12920763Y-15240450D02*
X12939810Y-15249974D01*
X12939810Y-15249974D02*
X12949334Y-15269022D01*
X12949334Y-15269022D02*
X12949334Y-15373784D01*
X12949334Y-15269022D02*
X12958858Y-15249974D01*
X12958858Y-15249974D02*
X12977905Y-15240450D01*
X12977905Y-15240450D02*
X13006477Y-15240450D01*
X13006477Y-15240450D02*
X13025524Y-15249974D01*
X13025524Y-15249974D02*
X13035048Y-15269022D01*
X13035048Y-15269022D02*
X13035048Y-15373784D01*
X13130286Y-15373784D02*
X13130286Y-15240450D01*
X13130286Y-15259498D02*
X13139810Y-15249974D01*
X13139810Y-15249974D02*
X13158858Y-15240450D01*
X13158858Y-15240450D02*
X13187429Y-15240450D01*
X13187429Y-15240450D02*
X13206477Y-15249974D01*
X13206477Y-15249974D02*
X13216001Y-15269022D01*
X13216001Y-15269022D02*
X13216001Y-15373784D01*
X13216001Y-15269022D02*
X13225524Y-15249974D01*
X13225524Y-15249974D02*
X13244572Y-15240450D01*
X13244572Y-15240450D02*
X13273143Y-15240450D01*
X13273143Y-15240450D02*
X13292191Y-15249974D01*
X13292191Y-15249974D02*
X13301715Y-15269022D01*
X13301715Y-15269022D02*
X13301715Y-15373784D01*
X13692191Y-15164260D02*
X13520763Y-15421403D01*
X13949334Y-15173784D02*
X13968382Y-15173784D01*
X13968382Y-15173784D02*
X13987429Y-15183308D01*
X13987429Y-15183308D02*
X13996953Y-15192831D01*
X13996953Y-15192831D02*
X14006477Y-15211879D01*
X14006477Y-15211879D02*
X14016001Y-15249974D01*
X14016001Y-15249974D02*
X14016001Y-15297593D01*
X14016001Y-15297593D02*
X14006477Y-15335688D01*
X14006477Y-15335688D02*
X13996953Y-15354736D01*
X13996953Y-15354736D02*
X13987429Y-15364260D01*
X13987429Y-15364260D02*
X13968382Y-15373784D01*
X13968382Y-15373784D02*
X13949334Y-15373784D01*
X13949334Y-15373784D02*
X13930286Y-15364260D01*
X13930286Y-15364260D02*
X13920763Y-15354736D01*
X13920763Y-15354736D02*
X13911239Y-15335688D01*
X13911239Y-15335688D02*
X13901715Y-15297593D01*
X13901715Y-15297593D02*
X13901715Y-15249974D01*
X13901715Y-15249974D02*
X13911239Y-15211879D01*
X13911239Y-15211879D02*
X13920763Y-15192831D01*
X13920763Y-15192831D02*
X13930286Y-15183308D01*
X13930286Y-15183308D02*
X13949334Y-15173784D01*
X14101715Y-15354736D02*
X14111239Y-15364260D01*
X14111239Y-15364260D02*
X14101715Y-15373784D01*
X14101715Y-15373784D02*
X14092191Y-15364260D01*
X14092191Y-15364260D02*
X14101715Y-15354736D01*
X14101715Y-15354736D02*
X14101715Y-15373784D01*
X14235048Y-15173784D02*
X14254096Y-15173784D01*
X14254096Y-15173784D02*
X14273144Y-15183308D01*
X14273144Y-15183308D02*
X14282667Y-15192831D01*
X14282667Y-15192831D02*
X14292191Y-15211879D01*
X14292191Y-15211879D02*
X14301715Y-15249974D01*
X14301715Y-15249974D02*
X14301715Y-15297593D01*
X14301715Y-15297593D02*
X14292191Y-15335688D01*
X14292191Y-15335688D02*
X14282667Y-15354736D01*
X14282667Y-15354736D02*
X14273144Y-15364260D01*
X14273144Y-15364260D02*
X14254096Y-15373784D01*
X14254096Y-15373784D02*
X14235048Y-15373784D01*
X14235048Y-15373784D02*
X14216001Y-15364260D01*
X14216001Y-15364260D02*
X14206477Y-15354736D01*
X14206477Y-15354736D02*
X14196953Y-15335688D01*
X14196953Y-15335688D02*
X14187429Y-15297593D01*
X14187429Y-15297593D02*
X14187429Y-15249974D01*
X14187429Y-15249974D02*
X14196953Y-15211879D01*
X14196953Y-15211879D02*
X14206477Y-15192831D01*
X14206477Y-15192831D02*
X14216001Y-15183308D01*
X14216001Y-15183308D02*
X14235048Y-15173784D01*
X14368382Y-15173784D02*
X14492191Y-15173784D01*
X14492191Y-15173784D02*
X14425525Y-15249974D01*
X14425525Y-15249974D02*
X14454096Y-15249974D01*
X14454096Y-15249974D02*
X14473144Y-15259498D01*
X14473144Y-15259498D02*
X14482667Y-15269022D01*
X14482667Y-15269022D02*
X14492191Y-15288069D01*
X14492191Y-15288069D02*
X14492191Y-15335688D01*
X14492191Y-15335688D02*
X14482667Y-15354736D01*
X14482667Y-15354736D02*
X14473144Y-15364260D01*
X14473144Y-15364260D02*
X14454096Y-15373784D01*
X14454096Y-15373784D02*
X14396953Y-15373784D01*
X14396953Y-15373784D02*
X14377906Y-15364260D01*
X14377906Y-15364260D02*
X14368382Y-15354736D01*
X14587429Y-15373784D02*
X14625525Y-15373784D01*
X14625525Y-15373784D02*
X14644572Y-15364260D01*
X14644572Y-15364260D02*
X14654096Y-15354736D01*
X14654096Y-15354736D02*
X14673144Y-15326165D01*
X14673144Y-15326165D02*
X14682667Y-15288069D01*
X14682667Y-15288069D02*
X14682667Y-15211879D01*
X14682667Y-15211879D02*
X14673144Y-15192831D01*
X14673144Y-15192831D02*
X14663620Y-15183308D01*
X14663620Y-15183308D02*
X14644572Y-15173784D01*
X14644572Y-15173784D02*
X14606477Y-15173784D01*
X14606477Y-15173784D02*
X14587429Y-15183308D01*
X14587429Y-15183308D02*
X14577906Y-15192831D01*
X14577906Y-15192831D02*
X14568382Y-15211879D01*
X14568382Y-15211879D02*
X14568382Y-15259498D01*
X14568382Y-15259498D02*
X14577906Y-15278546D01*
X14577906Y-15278546D02*
X14587429Y-15288069D01*
X14587429Y-15288069D02*
X14606477Y-15297593D01*
X14606477Y-15297593D02*
X14644572Y-15297593D01*
X14644572Y-15297593D02*
X14663620Y-15288069D01*
X14663620Y-15288069D02*
X14673144Y-15278546D01*
X14673144Y-15278546D02*
X14682667Y-15259498D01*
X14854096Y-15240450D02*
X14854096Y-15373784D01*
X14806477Y-15164260D02*
X14758858Y-15307117D01*
X14758858Y-15307117D02*
X14882667Y-15307117D01*
X14949334Y-15173784D02*
X14949334Y-15211879D01*
X15025525Y-15173784D02*
X15025525Y-15211879D01*
X15320763Y-15449974D02*
X15311239Y-15440450D01*
X15311239Y-15440450D02*
X15292191Y-15411879D01*
X15292191Y-15411879D02*
X15282668Y-15392831D01*
X15282668Y-15392831D02*
X15273144Y-15364260D01*
X15273144Y-15364260D02*
X15263620Y-15316641D01*
X15263620Y-15316641D02*
X15263620Y-15278546D01*
X15263620Y-15278546D02*
X15273144Y-15230927D01*
X15273144Y-15230927D02*
X15282668Y-15202355D01*
X15282668Y-15202355D02*
X15292191Y-15183308D01*
X15292191Y-15183308D02*
X15311239Y-15154736D01*
X15311239Y-15154736D02*
X15320763Y-15145212D01*
X15482668Y-15240450D02*
X15482668Y-15373784D01*
X15435048Y-15164260D02*
X15387429Y-15307117D01*
X15387429Y-15307117D02*
X15511239Y-15307117D01*
X15673144Y-15240450D02*
X15673144Y-15373784D01*
X15625525Y-15164260D02*
X15577906Y-15307117D01*
X15577906Y-15307117D02*
X15701715Y-15307117D01*
X15930287Y-15373784D02*
X15930287Y-15173784D01*
X16016001Y-15373784D02*
X16016001Y-15269022D01*
X16016001Y-15269022D02*
X16006477Y-15249974D01*
X16006477Y-15249974D02*
X15987430Y-15240450D01*
X15987430Y-15240450D02*
X15958858Y-15240450D01*
X15958858Y-15240450D02*
X15939810Y-15249974D01*
X15939810Y-15249974D02*
X15930287Y-15259498D01*
X16139810Y-15373784D02*
X16120763Y-15364260D01*
X16120763Y-15364260D02*
X16111239Y-15354736D01*
X16111239Y-15354736D02*
X16101715Y-15335688D01*
X16101715Y-15335688D02*
X16101715Y-15278546D01*
X16101715Y-15278546D02*
X16111239Y-15259498D01*
X16111239Y-15259498D02*
X16120763Y-15249974D01*
X16120763Y-15249974D02*
X16139810Y-15240450D01*
X16139810Y-15240450D02*
X16168382Y-15240450D01*
X16168382Y-15240450D02*
X16187430Y-15249974D01*
X16187430Y-15249974D02*
X16196953Y-15259498D01*
X16196953Y-15259498D02*
X16206477Y-15278546D01*
X16206477Y-15278546D02*
X16206477Y-15335688D01*
X16206477Y-15335688D02*
X16196953Y-15354736D01*
X16196953Y-15354736D02*
X16187430Y-15364260D01*
X16187430Y-15364260D02*
X16168382Y-15373784D01*
X16168382Y-15373784D02*
X16139810Y-15373784D01*
X16320763Y-15373784D02*
X16301715Y-15364260D01*
X16301715Y-15364260D02*
X16292191Y-15345212D01*
X16292191Y-15345212D02*
X16292191Y-15173784D01*
X16473144Y-15364260D02*
X16454096Y-15373784D01*
X16454096Y-15373784D02*
X16416001Y-15373784D01*
X16416001Y-15373784D02*
X16396953Y-15364260D01*
X16396953Y-15364260D02*
X16387430Y-15345212D01*
X16387430Y-15345212D02*
X16387430Y-15269022D01*
X16387430Y-15269022D02*
X16396953Y-15249974D01*
X16396953Y-15249974D02*
X16416001Y-15240450D01*
X16416001Y-15240450D02*
X16454096Y-15240450D01*
X16454096Y-15240450D02*
X16473144Y-15249974D01*
X16473144Y-15249974D02*
X16482668Y-15269022D01*
X16482668Y-15269022D02*
X16482668Y-15288069D01*
X16482668Y-15288069D02*
X16387430Y-15307117D01*
X16558858Y-15364260D02*
X16577906Y-15373784D01*
X16577906Y-15373784D02*
X16616001Y-15373784D01*
X16616001Y-15373784D02*
X16635049Y-15364260D01*
X16635049Y-15364260D02*
X16644572Y-15345212D01*
X16644572Y-15345212D02*
X16644572Y-15335688D01*
X16644572Y-15335688D02*
X16635049Y-15316641D01*
X16635049Y-15316641D02*
X16616001Y-15307117D01*
X16616001Y-15307117D02*
X16587430Y-15307117D01*
X16587430Y-15307117D02*
X16568382Y-15297593D01*
X16568382Y-15297593D02*
X16558858Y-15278546D01*
X16558858Y-15278546D02*
X16558858Y-15269022D01*
X16558858Y-15269022D02*
X16568382Y-15249974D01*
X16568382Y-15249974D02*
X16587430Y-15240450D01*
X16587430Y-15240450D02*
X16616001Y-15240450D01*
X16616001Y-15240450D02*
X16635049Y-15249974D01*
X16711239Y-15449974D02*
X16720763Y-15440450D01*
X16720763Y-15440450D02*
X16739811Y-15411879D01*
X16739811Y-15411879D02*
X16749334Y-15392831D01*
X16749334Y-15392831D02*
X16758858Y-15364260D01*
X16758858Y-15364260D02*
X16768382Y-15316641D01*
X16768382Y-15316641D02*
X16768382Y-15278546D01*
X16768382Y-15278546D02*
X16758858Y-15230927D01*
X16758858Y-15230927D02*
X16749334Y-15202355D01*
X16749334Y-15202355D02*
X16739811Y-15183308D01*
X16739811Y-15183308D02*
X16720763Y-15154736D01*
X16720763Y-15154736D02*
X16711239Y-15145212D01*
D13*
X11726662Y-15592262D02*
X11726662Y-15500338D01*
X11634738Y-15500338D01*
X11634738Y-15592262D01*
X11726662Y-15592262D01*
D11*
X12111239Y-15637784D02*
X11996953Y-15637784D01*
X12054096Y-15637784D02*
X12054096Y-15437784D01*
X12054096Y-15437784D02*
X12035048Y-15466355D01*
X12035048Y-15466355D02*
X12016001Y-15485403D01*
X12016001Y-15485403D02*
X11996953Y-15494927D01*
X12196953Y-15618736D02*
X12206477Y-15628260D01*
X12206477Y-15628260D02*
X12196953Y-15637784D01*
X12196953Y-15637784D02*
X12187429Y-15628260D01*
X12187429Y-15628260D02*
X12196953Y-15618736D01*
X12196953Y-15618736D02*
X12196953Y-15637784D01*
X12273143Y-15437784D02*
X12396953Y-15437784D01*
X12396953Y-15437784D02*
X12330286Y-15513974D01*
X12330286Y-15513974D02*
X12358858Y-15513974D01*
X12358858Y-15513974D02*
X12377905Y-15523498D01*
X12377905Y-15523498D02*
X12387429Y-15533022D01*
X12387429Y-15533022D02*
X12396953Y-15552069D01*
X12396953Y-15552069D02*
X12396953Y-15599688D01*
X12396953Y-15599688D02*
X12387429Y-15618736D01*
X12387429Y-15618736D02*
X12377905Y-15628260D01*
X12377905Y-15628260D02*
X12358858Y-15637784D01*
X12358858Y-15637784D02*
X12301715Y-15637784D01*
X12301715Y-15637784D02*
X12282667Y-15628260D01*
X12282667Y-15628260D02*
X12273143Y-15618736D01*
X12520762Y-15437784D02*
X12539810Y-15437784D01*
X12539810Y-15437784D02*
X12558858Y-15447308D01*
X12558858Y-15447308D02*
X12568382Y-15456831D01*
X12568382Y-15456831D02*
X12577905Y-15475879D01*
X12577905Y-15475879D02*
X12587429Y-15513974D01*
X12587429Y-15513974D02*
X12587429Y-15561593D01*
X12587429Y-15561593D02*
X12577905Y-15599688D01*
X12577905Y-15599688D02*
X12568382Y-15618736D01*
X12568382Y-15618736D02*
X12558858Y-15628260D01*
X12558858Y-15628260D02*
X12539810Y-15637784D01*
X12539810Y-15637784D02*
X12520762Y-15637784D01*
X12520762Y-15637784D02*
X12501715Y-15628260D01*
X12501715Y-15628260D02*
X12492191Y-15618736D01*
X12492191Y-15618736D02*
X12482667Y-15599688D01*
X12482667Y-15599688D02*
X12473143Y-15561593D01*
X12473143Y-15561593D02*
X12473143Y-15513974D01*
X12473143Y-15513974D02*
X12482667Y-15475879D01*
X12482667Y-15475879D02*
X12492191Y-15456831D01*
X12492191Y-15456831D02*
X12501715Y-15447308D01*
X12501715Y-15447308D02*
X12520762Y-15437784D01*
X12711239Y-15437784D02*
X12730286Y-15437784D01*
X12730286Y-15437784D02*
X12749334Y-15447308D01*
X12749334Y-15447308D02*
X12758858Y-15456831D01*
X12758858Y-15456831D02*
X12768382Y-15475879D01*
X12768382Y-15475879D02*
X12777905Y-15513974D01*
X12777905Y-15513974D02*
X12777905Y-15561593D01*
X12777905Y-15561593D02*
X12768382Y-15599688D01*
X12768382Y-15599688D02*
X12758858Y-15618736D01*
X12758858Y-15618736D02*
X12749334Y-15628260D01*
X12749334Y-15628260D02*
X12730286Y-15637784D01*
X12730286Y-15637784D02*
X12711239Y-15637784D01*
X12711239Y-15637784D02*
X12692191Y-15628260D01*
X12692191Y-15628260D02*
X12682667Y-15618736D01*
X12682667Y-15618736D02*
X12673143Y-15599688D01*
X12673143Y-15599688D02*
X12663620Y-15561593D01*
X12663620Y-15561593D02*
X12663620Y-15513974D01*
X12663620Y-15513974D02*
X12673143Y-15475879D01*
X12673143Y-15475879D02*
X12682667Y-15456831D01*
X12682667Y-15456831D02*
X12692191Y-15447308D01*
X12692191Y-15447308D02*
X12711239Y-15437784D01*
X12863620Y-15637784D02*
X12863620Y-15504450D01*
X12863620Y-15523498D02*
X12873143Y-15513974D01*
X12873143Y-15513974D02*
X12892191Y-15504450D01*
X12892191Y-15504450D02*
X12920763Y-15504450D01*
X12920763Y-15504450D02*
X12939810Y-15513974D01*
X12939810Y-15513974D02*
X12949334Y-15533022D01*
X12949334Y-15533022D02*
X12949334Y-15637784D01*
X12949334Y-15533022D02*
X12958858Y-15513974D01*
X12958858Y-15513974D02*
X12977905Y-15504450D01*
X12977905Y-15504450D02*
X13006477Y-15504450D01*
X13006477Y-15504450D02*
X13025524Y-15513974D01*
X13025524Y-15513974D02*
X13035048Y-15533022D01*
X13035048Y-15533022D02*
X13035048Y-15637784D01*
X13130286Y-15637784D02*
X13130286Y-15504450D01*
X13130286Y-15523498D02*
X13139810Y-15513974D01*
X13139810Y-15513974D02*
X13158858Y-15504450D01*
X13158858Y-15504450D02*
X13187429Y-15504450D01*
X13187429Y-15504450D02*
X13206477Y-15513974D01*
X13206477Y-15513974D02*
X13216001Y-15533022D01*
X13216001Y-15533022D02*
X13216001Y-15637784D01*
X13216001Y-15533022D02*
X13225524Y-15513974D01*
X13225524Y-15513974D02*
X13244572Y-15504450D01*
X13244572Y-15504450D02*
X13273143Y-15504450D01*
X13273143Y-15504450D02*
X13292191Y-15513974D01*
X13292191Y-15513974D02*
X13301715Y-15533022D01*
X13301715Y-15533022D02*
X13301715Y-15637784D01*
X13692191Y-15428260D02*
X13520763Y-15685403D01*
X13949334Y-15437784D02*
X13968382Y-15437784D01*
X13968382Y-15437784D02*
X13987429Y-15447308D01*
X13987429Y-15447308D02*
X13996953Y-15456831D01*
X13996953Y-15456831D02*
X14006477Y-15475879D01*
X14006477Y-15475879D02*
X14016001Y-15513974D01*
X14016001Y-15513974D02*
X14016001Y-15561593D01*
X14016001Y-15561593D02*
X14006477Y-15599688D01*
X14006477Y-15599688D02*
X13996953Y-15618736D01*
X13996953Y-15618736D02*
X13987429Y-15628260D01*
X13987429Y-15628260D02*
X13968382Y-15637784D01*
X13968382Y-15637784D02*
X13949334Y-15637784D01*
X13949334Y-15637784D02*
X13930286Y-15628260D01*
X13930286Y-15628260D02*
X13920763Y-15618736D01*
X13920763Y-15618736D02*
X13911239Y-15599688D01*
X13911239Y-15599688D02*
X13901715Y-15561593D01*
X13901715Y-15561593D02*
X13901715Y-15513974D01*
X13901715Y-15513974D02*
X13911239Y-15475879D01*
X13911239Y-15475879D02*
X13920763Y-15456831D01*
X13920763Y-15456831D02*
X13930286Y-15447308D01*
X13930286Y-15447308D02*
X13949334Y-15437784D01*
X14101715Y-15618736D02*
X14111239Y-15628260D01*
X14111239Y-15628260D02*
X14101715Y-15637784D01*
X14101715Y-15637784D02*
X14092191Y-15628260D01*
X14092191Y-15628260D02*
X14101715Y-15618736D01*
X14101715Y-15618736D02*
X14101715Y-15637784D01*
X14235048Y-15437784D02*
X14254096Y-15437784D01*
X14254096Y-15437784D02*
X14273144Y-15447308D01*
X14273144Y-15447308D02*
X14282667Y-15456831D01*
X14282667Y-15456831D02*
X14292191Y-15475879D01*
X14292191Y-15475879D02*
X14301715Y-15513974D01*
X14301715Y-15513974D02*
X14301715Y-15561593D01*
X14301715Y-15561593D02*
X14292191Y-15599688D01*
X14292191Y-15599688D02*
X14282667Y-15618736D01*
X14282667Y-15618736D02*
X14273144Y-15628260D01*
X14273144Y-15628260D02*
X14254096Y-15637784D01*
X14254096Y-15637784D02*
X14235048Y-15637784D01*
X14235048Y-15637784D02*
X14216001Y-15628260D01*
X14216001Y-15628260D02*
X14206477Y-15618736D01*
X14206477Y-15618736D02*
X14196953Y-15599688D01*
X14196953Y-15599688D02*
X14187429Y-15561593D01*
X14187429Y-15561593D02*
X14187429Y-15513974D01*
X14187429Y-15513974D02*
X14196953Y-15475879D01*
X14196953Y-15475879D02*
X14206477Y-15456831D01*
X14206477Y-15456831D02*
X14216001Y-15447308D01*
X14216001Y-15447308D02*
X14235048Y-15437784D01*
X14482667Y-15437784D02*
X14387429Y-15437784D01*
X14387429Y-15437784D02*
X14377906Y-15533022D01*
X14377906Y-15533022D02*
X14387429Y-15523498D01*
X14387429Y-15523498D02*
X14406477Y-15513974D01*
X14406477Y-15513974D02*
X14454096Y-15513974D01*
X14454096Y-15513974D02*
X14473144Y-15523498D01*
X14473144Y-15523498D02*
X14482667Y-15533022D01*
X14482667Y-15533022D02*
X14492191Y-15552069D01*
X14492191Y-15552069D02*
X14492191Y-15599688D01*
X14492191Y-15599688D02*
X14482667Y-15618736D01*
X14482667Y-15618736D02*
X14473144Y-15628260D01*
X14473144Y-15628260D02*
X14454096Y-15637784D01*
X14454096Y-15637784D02*
X14406477Y-15637784D01*
X14406477Y-15637784D02*
X14387429Y-15628260D01*
X14387429Y-15628260D02*
X14377906Y-15618736D01*
X14682667Y-15637784D02*
X14568382Y-15637784D01*
X14625525Y-15637784D02*
X14625525Y-15437784D01*
X14625525Y-15437784D02*
X14606477Y-15466355D01*
X14606477Y-15466355D02*
X14587429Y-15485403D01*
X14587429Y-15485403D02*
X14568382Y-15494927D01*
X14758858Y-15456831D02*
X14768382Y-15447308D01*
X14768382Y-15447308D02*
X14787429Y-15437784D01*
X14787429Y-15437784D02*
X14835048Y-15437784D01*
X14835048Y-15437784D02*
X14854096Y-15447308D01*
X14854096Y-15447308D02*
X14863620Y-15456831D01*
X14863620Y-15456831D02*
X14873144Y-15475879D01*
X14873144Y-15475879D02*
X14873144Y-15494927D01*
X14873144Y-15494927D02*
X14863620Y-15523498D01*
X14863620Y-15523498D02*
X14749334Y-15637784D01*
X14749334Y-15637784D02*
X14873144Y-15637784D01*
X14949334Y-15437784D02*
X14949334Y-15475879D01*
X15025525Y-15437784D02*
X15025525Y-15475879D01*
X15320763Y-15713974D02*
X15311239Y-15704450D01*
X15311239Y-15704450D02*
X15292191Y-15675879D01*
X15292191Y-15675879D02*
X15282668Y-15656831D01*
X15282668Y-15656831D02*
X15273144Y-15628260D01*
X15273144Y-15628260D02*
X15263620Y-15580641D01*
X15263620Y-15580641D02*
X15263620Y-15542546D01*
X15263620Y-15542546D02*
X15273144Y-15494927D01*
X15273144Y-15494927D02*
X15282668Y-15466355D01*
X15282668Y-15466355D02*
X15292191Y-15447308D01*
X15292191Y-15447308D02*
X15311239Y-15418736D01*
X15311239Y-15418736D02*
X15320763Y-15409212D01*
X15482668Y-15504450D02*
X15482668Y-15637784D01*
X15435048Y-15428260D02*
X15387429Y-15571117D01*
X15387429Y-15571117D02*
X15511239Y-15571117D01*
X15739810Y-15637784D02*
X15739810Y-15437784D01*
X15825525Y-15637784D02*
X15825525Y-15533022D01*
X15825525Y-15533022D02*
X15816001Y-15513974D01*
X15816001Y-15513974D02*
X15796953Y-15504450D01*
X15796953Y-15504450D02*
X15768382Y-15504450D01*
X15768382Y-15504450D02*
X15749334Y-15513974D01*
X15749334Y-15513974D02*
X15739810Y-15523498D01*
X15949334Y-15637784D02*
X15930287Y-15628260D01*
X15930287Y-15628260D02*
X15920763Y-15618736D01*
X15920763Y-15618736D02*
X15911239Y-15599688D01*
X15911239Y-15599688D02*
X15911239Y-15542546D01*
X15911239Y-15542546D02*
X15920763Y-15523498D01*
X15920763Y-15523498D02*
X15930287Y-15513974D01*
X15930287Y-15513974D02*
X15949334Y-15504450D01*
X15949334Y-15504450D02*
X15977906Y-15504450D01*
X15977906Y-15504450D02*
X15996953Y-15513974D01*
X15996953Y-15513974D02*
X16006477Y-15523498D01*
X16006477Y-15523498D02*
X16016001Y-15542546D01*
X16016001Y-15542546D02*
X16016001Y-15599688D01*
X16016001Y-15599688D02*
X16006477Y-15618736D01*
X16006477Y-15618736D02*
X15996953Y-15628260D01*
X15996953Y-15628260D02*
X15977906Y-15637784D01*
X15977906Y-15637784D02*
X15949334Y-15637784D01*
X16130287Y-15637784D02*
X16111239Y-15628260D01*
X16111239Y-15628260D02*
X16101715Y-15609212D01*
X16101715Y-15609212D02*
X16101715Y-15437784D01*
X16282668Y-15628260D02*
X16263620Y-15637784D01*
X16263620Y-15637784D02*
X16225525Y-15637784D01*
X16225525Y-15637784D02*
X16206477Y-15628260D01*
X16206477Y-15628260D02*
X16196953Y-15609212D01*
X16196953Y-15609212D02*
X16196953Y-15533022D01*
X16196953Y-15533022D02*
X16206477Y-15513974D01*
X16206477Y-15513974D02*
X16225525Y-15504450D01*
X16225525Y-15504450D02*
X16263620Y-15504450D01*
X16263620Y-15504450D02*
X16282668Y-15513974D01*
X16282668Y-15513974D02*
X16292191Y-15533022D01*
X16292191Y-15533022D02*
X16292191Y-15552069D01*
X16292191Y-15552069D02*
X16196953Y-15571117D01*
X16368382Y-15628260D02*
X16387430Y-15637784D01*
X16387430Y-15637784D02*
X16425525Y-15637784D01*
X16425525Y-15637784D02*
X16444572Y-15628260D01*
X16444572Y-15628260D02*
X16454096Y-15609212D01*
X16454096Y-15609212D02*
X16454096Y-15599688D01*
X16454096Y-15599688D02*
X16444572Y-15580641D01*
X16444572Y-15580641D02*
X16425525Y-15571117D01*
X16425525Y-15571117D02*
X16396953Y-15571117D01*
X16396953Y-15571117D02*
X16377906Y-15561593D01*
X16377906Y-15561593D02*
X16368382Y-15542546D01*
X16368382Y-15542546D02*
X16368382Y-15533022D01*
X16368382Y-15533022D02*
X16377906Y-15513974D01*
X16377906Y-15513974D02*
X16396953Y-15504450D01*
X16396953Y-15504450D02*
X16425525Y-15504450D01*
X16425525Y-15504450D02*
X16444572Y-15513974D01*
X16520763Y-15713974D02*
X16530287Y-15704450D01*
X16530287Y-15704450D02*
X16549334Y-15675879D01*
X16549334Y-15675879D02*
X16558858Y-15656831D01*
X16558858Y-15656831D02*
X16568382Y-15628260D01*
X16568382Y-15628260D02*
X16577906Y-15580641D01*
X16577906Y-15580641D02*
X16577906Y-15542546D01*
X16577906Y-15542546D02*
X16568382Y-15494927D01*
X16568382Y-15494927D02*
X16558858Y-15466355D01*
X16558858Y-15466355D02*
X16549334Y-15447308D01*
X16549334Y-15447308D02*
X16530287Y-15418736D01*
X16530287Y-15418736D02*
X16520763Y-15409212D01*
X11645700Y-15910300D02*
X11745700Y-15810300D01*
X11645700Y-15710300D01*
X11545700Y-15810300D01*
X11645700Y-15910300D01*
X11987429Y-15701784D02*
X12111239Y-15701784D01*
X12111239Y-15701784D02*
X12044572Y-15777974D01*
X12044572Y-15777974D02*
X12073143Y-15777974D01*
X12073143Y-15777974D02*
X12092191Y-15787498D01*
X12092191Y-15787498D02*
X12101715Y-15797022D01*
X12101715Y-15797022D02*
X12111239Y-15816069D01*
X12111239Y-15816069D02*
X12111239Y-15863688D01*
X12111239Y-15863688D02*
X12101715Y-15882736D01*
X12101715Y-15882736D02*
X12092191Y-15892260D01*
X12092191Y-15892260D02*
X12073143Y-15901784D01*
X12073143Y-15901784D02*
X12016001Y-15901784D01*
X12016001Y-15901784D02*
X11996953Y-15892260D01*
X11996953Y-15892260D02*
X11987429Y-15882736D01*
X12196953Y-15882736D02*
X12206477Y-15892260D01*
X12206477Y-15892260D02*
X12196953Y-15901784D01*
X12196953Y-15901784D02*
X12187429Y-15892260D01*
X12187429Y-15892260D02*
X12196953Y-15882736D01*
X12196953Y-15882736D02*
X12196953Y-15901784D01*
X12330286Y-15701784D02*
X12349334Y-15701784D01*
X12349334Y-15701784D02*
X12368382Y-15711308D01*
X12368382Y-15711308D02*
X12377905Y-15720831D01*
X12377905Y-15720831D02*
X12387429Y-15739879D01*
X12387429Y-15739879D02*
X12396953Y-15777974D01*
X12396953Y-15777974D02*
X12396953Y-15825593D01*
X12396953Y-15825593D02*
X12387429Y-15863688D01*
X12387429Y-15863688D02*
X12377905Y-15882736D01*
X12377905Y-15882736D02*
X12368382Y-15892260D01*
X12368382Y-15892260D02*
X12349334Y-15901784D01*
X12349334Y-15901784D02*
X12330286Y-15901784D01*
X12330286Y-15901784D02*
X12311239Y-15892260D01*
X12311239Y-15892260D02*
X12301715Y-15882736D01*
X12301715Y-15882736D02*
X12292191Y-15863688D01*
X12292191Y-15863688D02*
X12282667Y-15825593D01*
X12282667Y-15825593D02*
X12282667Y-15777974D01*
X12282667Y-15777974D02*
X12292191Y-15739879D01*
X12292191Y-15739879D02*
X12301715Y-15720831D01*
X12301715Y-15720831D02*
X12311239Y-15711308D01*
X12311239Y-15711308D02*
X12330286Y-15701784D01*
X12520762Y-15701784D02*
X12539810Y-15701784D01*
X12539810Y-15701784D02*
X12558858Y-15711308D01*
X12558858Y-15711308D02*
X12568382Y-15720831D01*
X12568382Y-15720831D02*
X12577905Y-15739879D01*
X12577905Y-15739879D02*
X12587429Y-15777974D01*
X12587429Y-15777974D02*
X12587429Y-15825593D01*
X12587429Y-15825593D02*
X12577905Y-15863688D01*
X12577905Y-15863688D02*
X12568382Y-15882736D01*
X12568382Y-15882736D02*
X12558858Y-15892260D01*
X12558858Y-15892260D02*
X12539810Y-15901784D01*
X12539810Y-15901784D02*
X12520762Y-15901784D01*
X12520762Y-15901784D02*
X12501715Y-15892260D01*
X12501715Y-15892260D02*
X12492191Y-15882736D01*
X12492191Y-15882736D02*
X12482667Y-15863688D01*
X12482667Y-15863688D02*
X12473143Y-15825593D01*
X12473143Y-15825593D02*
X12473143Y-15777974D01*
X12473143Y-15777974D02*
X12482667Y-15739879D01*
X12482667Y-15739879D02*
X12492191Y-15720831D01*
X12492191Y-15720831D02*
X12501715Y-15711308D01*
X12501715Y-15711308D02*
X12520762Y-15701784D01*
X12711239Y-15701784D02*
X12730286Y-15701784D01*
X12730286Y-15701784D02*
X12749334Y-15711308D01*
X12749334Y-15711308D02*
X12758858Y-15720831D01*
X12758858Y-15720831D02*
X12768382Y-15739879D01*
X12768382Y-15739879D02*
X12777905Y-15777974D01*
X12777905Y-15777974D02*
X12777905Y-15825593D01*
X12777905Y-15825593D02*
X12768382Y-15863688D01*
X12768382Y-15863688D02*
X12758858Y-15882736D01*
X12758858Y-15882736D02*
X12749334Y-15892260D01*
X12749334Y-15892260D02*
X12730286Y-15901784D01*
X12730286Y-15901784D02*
X12711239Y-15901784D01*
X12711239Y-15901784D02*
X12692191Y-15892260D01*
X12692191Y-15892260D02*
X12682667Y-15882736D01*
X12682667Y-15882736D02*
X12673143Y-15863688D01*
X12673143Y-15863688D02*
X12663620Y-15825593D01*
X12663620Y-15825593D02*
X12663620Y-15777974D01*
X12663620Y-15777974D02*
X12673143Y-15739879D01*
X12673143Y-15739879D02*
X12682667Y-15720831D01*
X12682667Y-15720831D02*
X12692191Y-15711308D01*
X12692191Y-15711308D02*
X12711239Y-15701784D01*
X12863620Y-15901784D02*
X12863620Y-15768450D01*
X12863620Y-15787498D02*
X12873143Y-15777974D01*
X12873143Y-15777974D02*
X12892191Y-15768450D01*
X12892191Y-15768450D02*
X12920763Y-15768450D01*
X12920763Y-15768450D02*
X12939810Y-15777974D01*
X12939810Y-15777974D02*
X12949334Y-15797022D01*
X12949334Y-15797022D02*
X12949334Y-15901784D01*
X12949334Y-15797022D02*
X12958858Y-15777974D01*
X12958858Y-15777974D02*
X12977905Y-15768450D01*
X12977905Y-15768450D02*
X13006477Y-15768450D01*
X13006477Y-15768450D02*
X13025524Y-15777974D01*
X13025524Y-15777974D02*
X13035048Y-15797022D01*
X13035048Y-15797022D02*
X13035048Y-15901784D01*
X13130286Y-15901784D02*
X13130286Y-15768450D01*
X13130286Y-15787498D02*
X13139810Y-15777974D01*
X13139810Y-15777974D02*
X13158858Y-15768450D01*
X13158858Y-15768450D02*
X13187429Y-15768450D01*
X13187429Y-15768450D02*
X13206477Y-15777974D01*
X13206477Y-15777974D02*
X13216001Y-15797022D01*
X13216001Y-15797022D02*
X13216001Y-15901784D01*
X13216001Y-15797022D02*
X13225524Y-15777974D01*
X13225524Y-15777974D02*
X13244572Y-15768450D01*
X13244572Y-15768450D02*
X13273143Y-15768450D01*
X13273143Y-15768450D02*
X13292191Y-15777974D01*
X13292191Y-15777974D02*
X13301715Y-15797022D01*
X13301715Y-15797022D02*
X13301715Y-15901784D01*
X13692191Y-15692260D02*
X13520763Y-15949403D01*
X13949334Y-15701784D02*
X13968382Y-15701784D01*
X13968382Y-15701784D02*
X13987429Y-15711308D01*
X13987429Y-15711308D02*
X13996953Y-15720831D01*
X13996953Y-15720831D02*
X14006477Y-15739879D01*
X14006477Y-15739879D02*
X14016001Y-15777974D01*
X14016001Y-15777974D02*
X14016001Y-15825593D01*
X14016001Y-15825593D02*
X14006477Y-15863688D01*
X14006477Y-15863688D02*
X13996953Y-15882736D01*
X13996953Y-15882736D02*
X13987429Y-15892260D01*
X13987429Y-15892260D02*
X13968382Y-15901784D01*
X13968382Y-15901784D02*
X13949334Y-15901784D01*
X13949334Y-15901784D02*
X13930286Y-15892260D01*
X13930286Y-15892260D02*
X13920763Y-15882736D01*
X13920763Y-15882736D02*
X13911239Y-15863688D01*
X13911239Y-15863688D02*
X13901715Y-15825593D01*
X13901715Y-15825593D02*
X13901715Y-15777974D01*
X13901715Y-15777974D02*
X13911239Y-15739879D01*
X13911239Y-15739879D02*
X13920763Y-15720831D01*
X13920763Y-15720831D02*
X13930286Y-15711308D01*
X13930286Y-15711308D02*
X13949334Y-15701784D01*
X14101715Y-15882736D02*
X14111239Y-15892260D01*
X14111239Y-15892260D02*
X14101715Y-15901784D01*
X14101715Y-15901784D02*
X14092191Y-15892260D01*
X14092191Y-15892260D02*
X14101715Y-15882736D01*
X14101715Y-15882736D02*
X14101715Y-15901784D01*
X14301715Y-15901784D02*
X14187429Y-15901784D01*
X14244572Y-15901784D02*
X14244572Y-15701784D01*
X14244572Y-15701784D02*
X14225525Y-15730355D01*
X14225525Y-15730355D02*
X14206477Y-15749403D01*
X14206477Y-15749403D02*
X14187429Y-15758927D01*
X14492191Y-15901784D02*
X14377906Y-15901784D01*
X14435048Y-15901784D02*
X14435048Y-15701784D01*
X14435048Y-15701784D02*
X14416001Y-15730355D01*
X14416001Y-15730355D02*
X14396953Y-15749403D01*
X14396953Y-15749403D02*
X14377906Y-15758927D01*
X14606477Y-15787498D02*
X14587429Y-15777974D01*
X14587429Y-15777974D02*
X14577906Y-15768450D01*
X14577906Y-15768450D02*
X14568382Y-15749403D01*
X14568382Y-15749403D02*
X14568382Y-15739879D01*
X14568382Y-15739879D02*
X14577906Y-15720831D01*
X14577906Y-15720831D02*
X14587429Y-15711308D01*
X14587429Y-15711308D02*
X14606477Y-15701784D01*
X14606477Y-15701784D02*
X14644572Y-15701784D01*
X14644572Y-15701784D02*
X14663620Y-15711308D01*
X14663620Y-15711308D02*
X14673144Y-15720831D01*
X14673144Y-15720831D02*
X14682667Y-15739879D01*
X14682667Y-15739879D02*
X14682667Y-15749403D01*
X14682667Y-15749403D02*
X14673144Y-15768450D01*
X14673144Y-15768450D02*
X14663620Y-15777974D01*
X14663620Y-15777974D02*
X14644572Y-15787498D01*
X14644572Y-15787498D02*
X14606477Y-15787498D01*
X14606477Y-15787498D02*
X14587429Y-15797022D01*
X14587429Y-15797022D02*
X14577906Y-15806546D01*
X14577906Y-15806546D02*
X14568382Y-15825593D01*
X14568382Y-15825593D02*
X14568382Y-15863688D01*
X14568382Y-15863688D02*
X14577906Y-15882736D01*
X14577906Y-15882736D02*
X14587429Y-15892260D01*
X14587429Y-15892260D02*
X14606477Y-15901784D01*
X14606477Y-15901784D02*
X14644572Y-15901784D01*
X14644572Y-15901784D02*
X14663620Y-15892260D01*
X14663620Y-15892260D02*
X14673144Y-15882736D01*
X14673144Y-15882736D02*
X14682667Y-15863688D01*
X14682667Y-15863688D02*
X14682667Y-15825593D01*
X14682667Y-15825593D02*
X14673144Y-15806546D01*
X14673144Y-15806546D02*
X14663620Y-15797022D01*
X14663620Y-15797022D02*
X14644572Y-15787498D01*
X14873144Y-15901784D02*
X14758858Y-15901784D01*
X14816001Y-15901784D02*
X14816001Y-15701784D01*
X14816001Y-15701784D02*
X14796953Y-15730355D01*
X14796953Y-15730355D02*
X14777906Y-15749403D01*
X14777906Y-15749403D02*
X14758858Y-15758927D01*
X14949334Y-15701784D02*
X14949334Y-15739879D01*
X15025525Y-15701784D02*
X15025525Y-15739879D01*
X15320763Y-15977974D02*
X15311239Y-15968450D01*
X15311239Y-15968450D02*
X15292191Y-15939879D01*
X15292191Y-15939879D02*
X15282668Y-15920831D01*
X15282668Y-15920831D02*
X15273144Y-15892260D01*
X15273144Y-15892260D02*
X15263620Y-15844641D01*
X15263620Y-15844641D02*
X15263620Y-15806546D01*
X15263620Y-15806546D02*
X15273144Y-15758927D01*
X15273144Y-15758927D02*
X15282668Y-15730355D01*
X15282668Y-15730355D02*
X15292191Y-15711308D01*
X15292191Y-15711308D02*
X15311239Y-15682736D01*
X15311239Y-15682736D02*
X15320763Y-15673212D01*
X15482668Y-15768450D02*
X15482668Y-15901784D01*
X15435048Y-15692260D02*
X15387429Y-15835117D01*
X15387429Y-15835117D02*
X15511239Y-15835117D01*
X15739810Y-15901784D02*
X15739810Y-15701784D01*
X15825525Y-15901784D02*
X15825525Y-15797022D01*
X15825525Y-15797022D02*
X15816001Y-15777974D01*
X15816001Y-15777974D02*
X15796953Y-15768450D01*
X15796953Y-15768450D02*
X15768382Y-15768450D01*
X15768382Y-15768450D02*
X15749334Y-15777974D01*
X15749334Y-15777974D02*
X15739810Y-15787498D01*
X15949334Y-15901784D02*
X15930287Y-15892260D01*
X15930287Y-15892260D02*
X15920763Y-15882736D01*
X15920763Y-15882736D02*
X15911239Y-15863688D01*
X15911239Y-15863688D02*
X15911239Y-15806546D01*
X15911239Y-15806546D02*
X15920763Y-15787498D01*
X15920763Y-15787498D02*
X15930287Y-15777974D01*
X15930287Y-15777974D02*
X15949334Y-15768450D01*
X15949334Y-15768450D02*
X15977906Y-15768450D01*
X15977906Y-15768450D02*
X15996953Y-15777974D01*
X15996953Y-15777974D02*
X16006477Y-15787498D01*
X16006477Y-15787498D02*
X16016001Y-15806546D01*
X16016001Y-15806546D02*
X16016001Y-15863688D01*
X16016001Y-15863688D02*
X16006477Y-15882736D01*
X16006477Y-15882736D02*
X15996953Y-15892260D01*
X15996953Y-15892260D02*
X15977906Y-15901784D01*
X15977906Y-15901784D02*
X15949334Y-15901784D01*
X16130287Y-15901784D02*
X16111239Y-15892260D01*
X16111239Y-15892260D02*
X16101715Y-15873212D01*
X16101715Y-15873212D02*
X16101715Y-15701784D01*
X16282668Y-15892260D02*
X16263620Y-15901784D01*
X16263620Y-15901784D02*
X16225525Y-15901784D01*
X16225525Y-15901784D02*
X16206477Y-15892260D01*
X16206477Y-15892260D02*
X16196953Y-15873212D01*
X16196953Y-15873212D02*
X16196953Y-15797022D01*
X16196953Y-15797022D02*
X16206477Y-15777974D01*
X16206477Y-15777974D02*
X16225525Y-15768450D01*
X16225525Y-15768450D02*
X16263620Y-15768450D01*
X16263620Y-15768450D02*
X16282668Y-15777974D01*
X16282668Y-15777974D02*
X16292191Y-15797022D01*
X16292191Y-15797022D02*
X16292191Y-15816069D01*
X16292191Y-15816069D02*
X16196953Y-15835117D01*
X16368382Y-15892260D02*
X16387430Y-15901784D01*
X16387430Y-15901784D02*
X16425525Y-15901784D01*
X16425525Y-15901784D02*
X16444572Y-15892260D01*
X16444572Y-15892260D02*
X16454096Y-15873212D01*
X16454096Y-15873212D02*
X16454096Y-15863688D01*
X16454096Y-15863688D02*
X16444572Y-15844641D01*
X16444572Y-15844641D02*
X16425525Y-15835117D01*
X16425525Y-15835117D02*
X16396953Y-15835117D01*
X16396953Y-15835117D02*
X16377906Y-15825593D01*
X16377906Y-15825593D02*
X16368382Y-15806546D01*
X16368382Y-15806546D02*
X16368382Y-15797022D01*
X16368382Y-15797022D02*
X16377906Y-15777974D01*
X16377906Y-15777974D02*
X16396953Y-15768450D01*
X16396953Y-15768450D02*
X16425525Y-15768450D01*
X16425525Y-15768450D02*
X16444572Y-15777974D01*
X16520763Y-15977974D02*
X16530287Y-15968450D01*
X16530287Y-15968450D02*
X16549334Y-15939879D01*
X16549334Y-15939879D02*
X16558858Y-15920831D01*
X16558858Y-15920831D02*
X16568382Y-15892260D01*
X16568382Y-15892260D02*
X16577906Y-15844641D01*
X16577906Y-15844641D02*
X16577906Y-15806546D01*
X16577906Y-15806546D02*
X16568382Y-15758927D01*
X16568382Y-15758927D02*
X16558858Y-15730355D01*
X16558858Y-15730355D02*
X16549334Y-15711308D01*
X16549334Y-15711308D02*
X16530287Y-15682736D01*
X16530287Y-15682736D02*
X16520763Y-15673212D01*
M02*
