G04 #@! TF.GenerationSoftware,KiCad,Pcbnew,8.0.7*
G04 #@! TF.CreationDate,2024-12-20T21:26:08-08:00*
G04 #@! TF.ProjectId,pi-zero-serial-hat,70692d7a-6572-46f2-9d73-657269616c2d,1.0*
G04 #@! TF.SameCoordinates,Original*
G04 #@! TF.FileFunction,Copper,L1,Top*
G04 #@! TF.FilePolarity,Positive*
%FSLAX46Y46*%
G04 Gerber Fmt 4.6, Leading zero omitted, Abs format (unit mm)*
G04 Created by KiCad (PCBNEW 8.0.7) date 2024-12-20 21:26:08*
%MOMM*%
%LPD*%
G01*
G04 APERTURE LIST*
G04 Aperture macros list*
%AMRoundRect*
0 Rectangle with rounded corners*
0 $1 Rounding radius*
0 $2 $3 $4 $5 $6 $7 $8 $9 X,Y pos of 4 corners*
0 Add a 4 corners polygon primitive as box body*
4,1,4,$2,$3,$4,$5,$6,$7,$8,$9,$2,$3,0*
0 Add four circle primitives for the rounded corners*
1,1,$1+$1,$2,$3*
1,1,$1+$1,$4,$5*
1,1,$1+$1,$6,$7*
1,1,$1+$1,$8,$9*
0 Add four rect primitives between the rounded corners*
20,1,$1+$1,$2,$3,$4,$5,0*
20,1,$1+$1,$4,$5,$6,$7,0*
20,1,$1+$1,$6,$7,$8,$9,0*
20,1,$1+$1,$8,$9,$2,$3,0*%
%AMFreePoly0*
4,1,6,1.000000,0.000000,0.500000,-0.750000,-0.500000,-0.750000,-0.500000,0.750000,0.500000,0.750000,1.000000,0.000000,1.000000,0.000000,$1*%
%AMFreePoly1*
4,1,6,0.500000,-0.750000,-0.650000,-0.750000,-0.150000,0.000000,-0.650000,0.750000,0.500000,0.750000,0.500000,-0.750000,0.500000,-0.750000,$1*%
G04 Aperture macros list end*
G04 #@! TA.AperFunction,ComponentPad*
%ADD10C,6.000000*%
G04 #@! TD*
G04 #@! TA.AperFunction,SMDPad,CuDef*
%ADD11RoundRect,0.225000X0.250000X-0.225000X0.250000X0.225000X-0.250000X0.225000X-0.250000X-0.225000X0*%
G04 #@! TD*
G04 #@! TA.AperFunction,SMDPad,CuDef*
%ADD12R,1.550000X0.600000*%
G04 #@! TD*
G04 #@! TA.AperFunction,ComponentPad*
%ADD13C,0.600000*%
G04 #@! TD*
G04 #@! TA.AperFunction,SMDPad,CuDef*
%ADD14R,2.600000X3.100000*%
G04 #@! TD*
G04 #@! TA.AperFunction,SMDPad,CuDef*
%ADD15R,2.950000X4.500000*%
G04 #@! TD*
G04 #@! TA.AperFunction,SMDPad,CuDef*
%ADD16FreePoly0,270.000000*%
G04 #@! TD*
G04 #@! TA.AperFunction,SMDPad,CuDef*
%ADD17FreePoly1,270.000000*%
G04 #@! TD*
G04 #@! TA.AperFunction,SMDPad,CuDef*
%ADD18RoundRect,0.250000X0.412500X0.925000X-0.412500X0.925000X-0.412500X-0.925000X0.412500X-0.925000X0*%
G04 #@! TD*
G04 #@! TA.AperFunction,SMDPad,CuDef*
%ADD19RoundRect,0.250000X0.450000X0.425000X-0.450000X0.425000X-0.450000X-0.425000X0.450000X-0.425000X0*%
G04 #@! TD*
G04 #@! TA.AperFunction,SMDPad,CuDef*
%ADD20RoundRect,0.250000X0.900000X-1.000000X0.900000X1.000000X-0.900000X1.000000X-0.900000X-1.000000X0*%
G04 #@! TD*
G04 #@! TA.AperFunction,ComponentPad*
%ADD21R,2.500000X2.500000*%
G04 #@! TD*
G04 #@! TA.AperFunction,ComponentPad*
%ADD22C,2.500000*%
G04 #@! TD*
G04 #@! TA.AperFunction,ComponentPad*
%ADD23R,1.700000X1.700000*%
G04 #@! TD*
G04 #@! TA.AperFunction,ComponentPad*
%ADD24O,1.700000X1.700000*%
G04 #@! TD*
G04 #@! TA.AperFunction,SMDPad,CuDef*
%ADD25RoundRect,0.218750X-0.218750X-0.256250X0.218750X-0.256250X0.218750X0.256250X-0.218750X0.256250X0*%
G04 #@! TD*
G04 #@! TA.AperFunction,SMDPad,CuDef*
%ADD26RoundRect,0.250001X-0.799999X1.999999X-0.799999X-1.999999X0.799999X-1.999999X0.799999X1.999999X0*%
G04 #@! TD*
G04 #@! TA.AperFunction,SMDPad,CuDef*
%ADD27RoundRect,0.225000X0.225000X0.250000X-0.225000X0.250000X-0.225000X-0.250000X0.225000X-0.250000X0*%
G04 #@! TD*
G04 #@! TA.AperFunction,SMDPad,CuDef*
%ADD28RoundRect,0.250000X-1.000000X-0.900000X1.000000X-0.900000X1.000000X0.900000X-1.000000X0.900000X0*%
G04 #@! TD*
G04 #@! TA.AperFunction,SMDPad,CuDef*
%ADD29RoundRect,0.200000X-0.200000X-0.275000X0.200000X-0.275000X0.200000X0.275000X-0.200000X0.275000X0*%
G04 #@! TD*
G04 #@! TA.AperFunction,SMDPad,CuDef*
%ADD30RoundRect,0.200000X0.275000X-0.200000X0.275000X0.200000X-0.275000X0.200000X-0.275000X-0.200000X0*%
G04 #@! TD*
G04 #@! TA.AperFunction,SMDPad,CuDef*
%ADD31R,5.400000X2.900000*%
G04 #@! TD*
G04 #@! TA.AperFunction,SMDPad,CuDef*
%ADD32RoundRect,0.250000X-1.425000X0.362500X-1.425000X-0.362500X1.425000X-0.362500X1.425000X0.362500X0*%
G04 #@! TD*
G04 #@! TA.AperFunction,SMDPad,CuDef*
%ADD33RoundRect,0.250000X1.425000X-0.362500X1.425000X0.362500X-1.425000X0.362500X-1.425000X-0.362500X0*%
G04 #@! TD*
G04 #@! TA.AperFunction,SMDPad,CuDef*
%ADD34RoundRect,0.250000X-0.900000X1.000000X-0.900000X-1.000000X0.900000X-1.000000X0.900000X1.000000X0*%
G04 #@! TD*
G04 #@! TA.AperFunction,SMDPad,CuDef*
%ADD35RoundRect,0.250000X1.000000X0.650000X-1.000000X0.650000X-1.000000X-0.650000X1.000000X-0.650000X0*%
G04 #@! TD*
G04 #@! TA.AperFunction,SMDPad,CuDef*
%ADD36RoundRect,0.073750X-0.911250X-0.221250X0.911250X-0.221250X0.911250X0.221250X-0.911250X0.221250X0*%
G04 #@! TD*
G04 #@! TA.AperFunction,SMDPad,CuDef*
%ADD37RoundRect,0.200000X-0.275000X0.200000X-0.275000X-0.200000X0.275000X-0.200000X0.275000X0.200000X0*%
G04 #@! TD*
G04 #@! TA.AperFunction,SMDPad,CuDef*
%ADD38RoundRect,0.218750X0.256250X-0.218750X0.256250X0.218750X-0.256250X0.218750X-0.256250X-0.218750X0*%
G04 #@! TD*
G04 #@! TA.AperFunction,SMDPad,CuDef*
%ADD39RoundRect,0.225000X-0.250000X0.225000X-0.250000X-0.225000X0.250000X-0.225000X0.250000X0.225000X0*%
G04 #@! TD*
G04 #@! TA.AperFunction,ComponentPad*
%ADD40C,1.700000*%
G04 #@! TD*
G04 #@! TA.AperFunction,ViaPad*
%ADD41C,0.800000*%
G04 #@! TD*
G04 #@! TA.AperFunction,Conductor*
%ADD42C,0.500000*%
G04 #@! TD*
G04 #@! TA.AperFunction,Conductor*
%ADD43C,0.250000*%
G04 #@! TD*
G04 #@! TA.AperFunction,Conductor*
%ADD44C,0.200000*%
G04 #@! TD*
G04 APERTURE END LIST*
D10*
X121032000Y-94568000D03*
X179032000Y-94568000D03*
X179032000Y-117568000D03*
X121032000Y-117568000D03*
D11*
X149132000Y-126643000D03*
X149132000Y-125093000D03*
D12*
X151532000Y-126658000D03*
X151532000Y-127928000D03*
X151532000Y-129198000D03*
X151532000Y-130468000D03*
X156932000Y-130468000D03*
X156932000Y-129198000D03*
X156932000Y-127928000D03*
X156932000Y-126658000D03*
D13*
X153632000Y-126763000D03*
X153632000Y-127963000D03*
X153632000Y-129263000D03*
X153632000Y-130363000D03*
D14*
X154232000Y-128563000D03*
D15*
X154232000Y-128563000D03*
D13*
X154832000Y-126763000D03*
X154832000Y-127963000D03*
X154832000Y-129263000D03*
X154832000Y-130363000D03*
D16*
X138657000Y-100118000D03*
D17*
X138657000Y-101568000D03*
D18*
X132032000Y-131318000D03*
X128957000Y-131318000D03*
D19*
X147022000Y-100818000D03*
X144322000Y-100818000D03*
D16*
X141157000Y-100118000D03*
D17*
X141157000Y-101568000D03*
D20*
X162482000Y-113718000D03*
X162482000Y-109418000D03*
D21*
X176382000Y-129318000D03*
D22*
X176382000Y-124318000D03*
D23*
X120032000Y-110768000D03*
D24*
X122572000Y-110768000D03*
D25*
X146694500Y-116068000D03*
X148269500Y-116068000D03*
D16*
X158332000Y-108668000D03*
D17*
X158332000Y-110118000D03*
D23*
X138632000Y-104318000D03*
D24*
X141172000Y-104318000D03*
D26*
X165932000Y-123868000D03*
X165932000Y-131068000D03*
D25*
X146732000Y-113818000D03*
X148307000Y-113818000D03*
D27*
X132307000Y-123168000D03*
X130757000Y-123168000D03*
D28*
X169284500Y-118418000D03*
X173584500Y-118418000D03*
D29*
X157312000Y-112318000D03*
X158962000Y-112318000D03*
D30*
X121032000Y-107218000D03*
X121032000Y-105568000D03*
D31*
X140232000Y-121268000D03*
X140232000Y-131168000D03*
D29*
X153832000Y-116068000D03*
X155482000Y-116068000D03*
X150157000Y-116068000D03*
X151807000Y-116068000D03*
D32*
X167482000Y-100068000D03*
X167482000Y-105993000D03*
D33*
X167482000Y-114493000D03*
X167482000Y-108568000D03*
D29*
X157312000Y-106568000D03*
X158962000Y-106568000D03*
X155982000Y-133868000D03*
X157632000Y-133868000D03*
D30*
X145732000Y-107548000D03*
X145732000Y-105898000D03*
D34*
X162482000Y-100768000D03*
X162482000Y-105068000D03*
D35*
X158032000Y-123568000D03*
X154032000Y-123568000D03*
D29*
X153732000Y-113818000D03*
X155382000Y-113818000D03*
D36*
X149007000Y-106663000D03*
X149007000Y-107933000D03*
X149007000Y-109203000D03*
X149007000Y-110473000D03*
X153957000Y-110473000D03*
X153957000Y-109203000D03*
X153957000Y-107933000D03*
X153957000Y-106663000D03*
D21*
X176382000Y-108668000D03*
D22*
X176382000Y-103668000D03*
D29*
X157312000Y-103568000D03*
X158962000Y-103568000D03*
D37*
X145732000Y-109918000D03*
X145732000Y-111568000D03*
D29*
X150157000Y-113818000D03*
X151807000Y-113818000D03*
X150782000Y-133868000D03*
X152432000Y-133868000D03*
D18*
X132032000Y-126968000D03*
X128957000Y-126968000D03*
D38*
X121032000Y-103893000D03*
X121032000Y-102318000D03*
D27*
X147027000Y-103068000D03*
X145477000Y-103068000D03*
D39*
X159332000Y-127893000D03*
X159332000Y-129443000D03*
D40*
X125932000Y-95858000D03*
D23*
X125932000Y-93318000D03*
D24*
X128472000Y-95858000D03*
D23*
X128472000Y-93318000D03*
D24*
X131012000Y-95858000D03*
X131012000Y-93318000D03*
X133552000Y-95858000D03*
X133552000Y-93318000D03*
X136092000Y-95858000D03*
X136092000Y-93318000D03*
X138632000Y-95858000D03*
X138632000Y-93318000D03*
X141172000Y-95858000D03*
X141172000Y-93318000D03*
X143712000Y-95858000D03*
X143712000Y-93318000D03*
D40*
X146252000Y-95858000D03*
D24*
X146252000Y-93318000D03*
X148792000Y-95858000D03*
X148792000Y-93318000D03*
X151332000Y-95858000D03*
X151332000Y-93318000D03*
X153872000Y-95858000D03*
X153872000Y-93318000D03*
X156412000Y-95858000D03*
X156412000Y-93318000D03*
X158952000Y-95858000D03*
X158952000Y-93318000D03*
X161492000Y-95858000D03*
X161492000Y-93318000D03*
X164032000Y-95858000D03*
X164032000Y-93318000D03*
X166572000Y-95858000D03*
X166572000Y-93318000D03*
X169112000Y-95858000D03*
X169112000Y-93318000D03*
X171652000Y-95858000D03*
X171652000Y-93318000D03*
X174192000Y-95858000D03*
X174192000Y-93318000D03*
D41*
X151832000Y-104668000D03*
X147232000Y-108568000D03*
X143782000Y-105068000D03*
X143782000Y-106068000D03*
X143782000Y-104068000D03*
X155732000Y-110868000D03*
X152032000Y-112168000D03*
X143782000Y-103068000D03*
D42*
X132307000Y-123168000D02*
X132307000Y-114143000D01*
X132307000Y-114143000D02*
X128932000Y-110768000D01*
X128932000Y-110768000D02*
X122632000Y-110768000D01*
X120092000Y-110768000D02*
X124632000Y-106228000D01*
X124632000Y-106228000D02*
X124632000Y-102368000D01*
X132307000Y-123168000D02*
X132307000Y-126693000D01*
X132307000Y-126693000D02*
X132032000Y-126968000D01*
D43*
X121032000Y-102318000D02*
X124582000Y-102318000D01*
X124582000Y-102318000D02*
X124632000Y-102368000D01*
X165932000Y-123868000D02*
X161907000Y-127893000D01*
X161907000Y-127893000D02*
X159332000Y-127893000D01*
D42*
X149007000Y-107933000D02*
X149007000Y-109203000D01*
X150232000Y-103068000D02*
X147027000Y-103068000D01*
X147022000Y-100818000D02*
X147022000Y-103063000D01*
X125932000Y-93318000D02*
X128472000Y-93318000D01*
X155382000Y-113818000D02*
X155382000Y-112468000D01*
X151832000Y-104668000D02*
X150232000Y-103068000D01*
X151807000Y-116068000D02*
X153832000Y-116068000D01*
X132182000Y-131168000D02*
X132032000Y-131318000D01*
D43*
X155232000Y-113818000D02*
X155382000Y-113818000D01*
D42*
X135632000Y-137668000D02*
X132032000Y-134068000D01*
X146032000Y-137668000D02*
X135632000Y-137668000D01*
X153832000Y-116068000D02*
X153832000Y-115368000D01*
D43*
X121082000Y-102368000D02*
X121032000Y-102318000D01*
D42*
X125932000Y-93318000D02*
X124632000Y-94618000D01*
X151832000Y-106668000D02*
X151832000Y-104668000D01*
X149007000Y-109203000D02*
X147867000Y-109203000D01*
X153832000Y-115368000D02*
X155382000Y-113818000D01*
X150782000Y-133868000D02*
X149832000Y-133868000D01*
X147022000Y-103063000D02*
X147027000Y-103068000D01*
X155382000Y-112468000D02*
X155232000Y-112318000D01*
X147867000Y-109203000D02*
X147232000Y-108568000D01*
X132032000Y-134068000D02*
X132032000Y-131318000D01*
X140232000Y-131168000D02*
X132182000Y-131168000D01*
X151837000Y-106663000D02*
X151832000Y-106668000D01*
X155232000Y-112318000D02*
X157312000Y-112318000D01*
X132032000Y-131318000D02*
X132032000Y-126968000D01*
X151832000Y-110418000D02*
X151832000Y-106668000D01*
X149832000Y-133868000D02*
X146032000Y-137668000D01*
X124632000Y-94618000D02*
X124632000Y-102368000D01*
X155232000Y-112318000D02*
X153732000Y-112318000D01*
X153957000Y-106663000D02*
X151837000Y-106663000D01*
X153732000Y-112318000D02*
X151832000Y-110418000D01*
D43*
X153032000Y-129763000D02*
X154232000Y-128563000D01*
X154332000Y-128463000D02*
X154232000Y-128563000D01*
X159087000Y-129198000D02*
X159332000Y-129443000D01*
X156932000Y-129198000D02*
X154867000Y-129198000D01*
X156932000Y-129198000D02*
X159087000Y-129198000D01*
X154867000Y-129198000D02*
X154232000Y-128563000D01*
X149007000Y-110473000D02*
X148852000Y-110318000D01*
X149007000Y-110473000D02*
X146827000Y-110473000D01*
X146827000Y-110473000D02*
X145732000Y-111568000D01*
X148269500Y-116068000D02*
X150157000Y-116068000D01*
X151707000Y-113818000D02*
X153817000Y-113818000D01*
X149007000Y-106663000D02*
X149577000Y-106663000D01*
X150982000Y-108068000D02*
X150982000Y-111318000D01*
X146497000Y-106663000D02*
X149007000Y-106663000D01*
X150982000Y-111318000D02*
X150232000Y-112068000D01*
X145732000Y-105898000D02*
X146497000Y-106663000D01*
X149577000Y-106663000D02*
X150982000Y-108068000D01*
X148482000Y-112068000D02*
X146732000Y-113818000D01*
X150232000Y-112068000D02*
X148482000Y-112068000D01*
X148307000Y-113818000D02*
X150157000Y-113818000D01*
X148317000Y-113818000D02*
X148317000Y-113783001D01*
D42*
X169807000Y-103668000D02*
X167482000Y-105993000D01*
X176382000Y-103668000D02*
X169807000Y-103668000D01*
X167482000Y-114493000D02*
X163257000Y-114493000D01*
D43*
X161082000Y-112318000D02*
X162482000Y-113718000D01*
X156882000Y-110118000D02*
X158332000Y-110118000D01*
X154072000Y-109318000D02*
X153957000Y-109203000D01*
D42*
X163257000Y-114493000D02*
X162482000Y-113718000D01*
D43*
X153957000Y-109203000D02*
X155967000Y-109203000D01*
X155967000Y-109203000D02*
X156882000Y-110118000D01*
X158332000Y-110118000D02*
X158332000Y-111688000D01*
X158332000Y-111688000D02*
X158962000Y-112318000D01*
X158650812Y-112318000D02*
X161082000Y-112318000D01*
X154022000Y-109268000D02*
X153957000Y-109203000D01*
D42*
X167482000Y-100068000D02*
X163182000Y-100068000D01*
D43*
X155947000Y-107933000D02*
X157312000Y-106568000D01*
X158962000Y-103568000D02*
X159682000Y-103568000D01*
D42*
X163182000Y-100068000D02*
X162482000Y-100768000D01*
D43*
X159682000Y-103568000D02*
X162482000Y-100768000D01*
X157312000Y-105218000D02*
X158962000Y-103568000D01*
X162482000Y-100768000D02*
X162782000Y-100768000D01*
X157312000Y-106568000D02*
X157312000Y-105218000D01*
X153957000Y-107933000D02*
X155947000Y-107933000D01*
X162782000Y-100768000D02*
X163482000Y-100068000D01*
X141157000Y-100118000D02*
X141172000Y-100103000D01*
D42*
X141157000Y-95873000D02*
X141172000Y-95858000D01*
D43*
X141172000Y-100103000D02*
X141172000Y-95858000D01*
X141272000Y-95858000D02*
X141172000Y-95858000D01*
D44*
X138657000Y-95883000D02*
X138632000Y-95858000D01*
X138657000Y-100118000D02*
X138657000Y-95883000D01*
D43*
X138772000Y-95858000D02*
X138632000Y-95858000D01*
X156932000Y-124668000D02*
X158032000Y-123568000D01*
X156932000Y-126658000D02*
X156932000Y-124668000D01*
X151532000Y-126658000D02*
X149147000Y-126658000D01*
X149272000Y-126658000D02*
X149132000Y-126518000D01*
X149147000Y-126658000D02*
X149132000Y-126643000D01*
X149632000Y-131168000D02*
X149632000Y-132068000D01*
X152732000Y-132268000D02*
X154332000Y-133868000D01*
X152432000Y-133868000D02*
X154332000Y-133868000D01*
X149632000Y-132068000D02*
X149832000Y-132268000D01*
X151532000Y-130468000D02*
X150332000Y-130468000D01*
X154332000Y-133868000D02*
X155982000Y-133868000D01*
X150332000Y-130468000D02*
X149632000Y-131168000D01*
X149832000Y-132268000D02*
X152732000Y-132268000D01*
X169284500Y-118418000D02*
X166982000Y-118418000D01*
X165932000Y-119468000D02*
X165932000Y-123868000D01*
X159297000Y-127928000D02*
X159332000Y-127893000D01*
X156932000Y-127928000D02*
X159297000Y-127928000D01*
X166982000Y-118418000D02*
X165932000Y-119468000D01*
X121032000Y-105568000D02*
X121032000Y-103893000D01*
X158332000Y-107198000D02*
X158962000Y-106568000D01*
X158332000Y-108668000D02*
X158332000Y-107198000D01*
D42*
X138652097Y-101572903D02*
X138657000Y-101572903D01*
X138632000Y-101593000D02*
X138652097Y-101572903D01*
D43*
X144932000Y-110718000D02*
X145732000Y-109918000D01*
X145019499Y-109918000D02*
X145732000Y-109918000D01*
X143297000Y-108983000D02*
X144084499Y-108983000D01*
X138632000Y-104318000D02*
X143297000Y-108983000D01*
D44*
X138657000Y-101568000D02*
X138657000Y-104293000D01*
D43*
X146694500Y-116068000D02*
X144932000Y-114305500D01*
X144084499Y-108983000D02*
X145019499Y-109918000D01*
D44*
X138657000Y-104293000D02*
X138632000Y-104318000D01*
D43*
X139322000Y-101583000D02*
X139307000Y-101568000D01*
X144932000Y-114305500D02*
X144932000Y-110718000D01*
D42*
X138632000Y-104467950D02*
X138632000Y-104318000D01*
D43*
X144084499Y-108483000D02*
X145019499Y-107548000D01*
D44*
X145657000Y-107548000D02*
X145732000Y-107548000D01*
D43*
X141172000Y-104318000D02*
X141172000Y-101583000D01*
X141157000Y-104303000D02*
X141172000Y-104318000D01*
X143504107Y-108483000D02*
X144084499Y-108483000D01*
D42*
X141172000Y-101587903D02*
X141157000Y-101572903D01*
D43*
X145019499Y-107548000D02*
X145732000Y-107548000D01*
X141172000Y-104318000D02*
X141172000Y-106150893D01*
X141172000Y-106150893D02*
X143504107Y-108483000D01*
X141172000Y-101583000D02*
X141157000Y-101568000D01*
D42*
X167482000Y-108568000D02*
X176282000Y-108568000D01*
X176282000Y-108568000D02*
X176382000Y-108668000D01*
G04 #@! TA.AperFunction,Conductor*
G36*
X159275039Y-119787685D02*
G01*
X159320794Y-119840489D01*
X159332000Y-119892000D01*
X159332000Y-124631138D01*
X159312315Y-124698177D01*
X159311864Y-124698875D01*
X157868693Y-126911737D01*
X157815583Y-126957137D01*
X157764829Y-126968000D01*
X156339500Y-126968000D01*
X156272461Y-126948315D01*
X156226706Y-126895511D01*
X156215500Y-126844000D01*
X156215500Y-126264362D01*
X156215499Y-126264345D01*
X156212157Y-126233270D01*
X156208989Y-126203799D01*
X156157889Y-126066796D01*
X156070261Y-125949739D01*
X156070259Y-125949737D01*
X156070258Y-125949736D01*
X156068319Y-125947797D01*
X156067004Y-125945390D01*
X156064946Y-125942640D01*
X156065341Y-125942343D01*
X156034834Y-125886474D01*
X156032000Y-125860116D01*
X156032000Y-122468000D01*
X155706045Y-122468000D01*
X155639006Y-122448315D01*
X155618364Y-122431682D01*
X155505652Y-122318970D01*
X155354738Y-122225885D01*
X155354735Y-122225884D01*
X155186427Y-122170113D01*
X155082545Y-122159500D01*
X152981462Y-122159500D01*
X152981446Y-122159501D01*
X152877572Y-122170113D01*
X152709264Y-122225884D01*
X152709259Y-122225886D01*
X152558349Y-122318969D01*
X152445636Y-122431682D01*
X152384313Y-122465166D01*
X152357955Y-122468000D01*
X152331999Y-122468000D01*
X150824358Y-124631138D01*
X150083044Y-125694764D01*
X150069008Y-125714902D01*
X150014527Y-125758646D01*
X149967279Y-125768000D01*
X149760561Y-125768000D01*
X149700954Y-125751096D01*
X149700649Y-125751752D01*
X149696586Y-125749857D01*
X149695466Y-125749540D01*
X149694101Y-125748698D01*
X149531336Y-125694764D01*
X149430879Y-125684500D01*
X149430872Y-125684500D01*
X148833128Y-125684500D01*
X148833120Y-125684500D01*
X148732663Y-125694764D01*
X148569901Y-125748697D01*
X148569894Y-125748701D01*
X148568534Y-125749540D01*
X148567413Y-125749857D01*
X148563351Y-125751752D01*
X148563045Y-125751096D01*
X148503439Y-125768000D01*
X148248359Y-125768000D01*
X148216202Y-125763758D01*
X137523843Y-122892661D01*
X137464202Y-122856264D01*
X137433706Y-122793401D01*
X137432000Y-122772903D01*
X137432000Y-119892000D01*
X137451685Y-119824961D01*
X137504489Y-119779206D01*
X137556000Y-119768000D01*
X159208000Y-119768000D01*
X159275039Y-119787685D01*
G37*
G04 #@! TD.AperFunction*
G04 #@! TA.AperFunction,Conductor*
G36*
X151773783Y-111437998D02*
G01*
X151798583Y-111457264D01*
X153121878Y-112780559D01*
X153155904Y-112842871D01*
X153150839Y-112913686D01*
X153108292Y-112970522D01*
X153097969Y-112977482D01*
X153091841Y-112981186D01*
X152970189Y-113102838D01*
X152970179Y-113102851D01*
X152957585Y-113123685D01*
X152905226Y-113171633D01*
X152849757Y-113184500D01*
X152689243Y-113184500D01*
X152621122Y-113164498D01*
X152581415Y-113123685D01*
X152568820Y-113102851D01*
X152568818Y-113102848D01*
X152568816Y-113102845D01*
X152568813Y-113102842D01*
X152568810Y-113102838D01*
X152447160Y-112981188D01*
X152447155Y-112981184D01*
X152329422Y-112910012D01*
X152299913Y-112892173D01*
X152299912Y-112892172D01*
X152299911Y-112892172D01*
X152299906Y-112892170D01*
X152135646Y-112840986D01*
X152083723Y-112836268D01*
X152064265Y-112834500D01*
X152064262Y-112834500D01*
X151549738Y-112834500D01*
X151478353Y-112840986D01*
X151478352Y-112840986D01*
X151314093Y-112892170D01*
X151314088Y-112892172D01*
X151166844Y-112981184D01*
X151166839Y-112981188D01*
X151071095Y-113076933D01*
X151008783Y-113110959D01*
X150937968Y-113105894D01*
X150892905Y-113076933D01*
X150797160Y-112981188D01*
X150797155Y-112981184D01*
X150679422Y-112910012D01*
X150649913Y-112892173D01*
X150649912Y-112892172D01*
X150649911Y-112892172D01*
X150649906Y-112892170D01*
X150552256Y-112861742D01*
X150493170Y-112822380D01*
X150464744Y-112757323D01*
X150476004Y-112687224D01*
X150523374Y-112634342D01*
X150530346Y-112630324D01*
X150532066Y-112629403D01*
X150532075Y-112629400D01*
X150635833Y-112560071D01*
X151474071Y-111721833D01*
X151543400Y-111618075D01*
X151591155Y-111502785D01*
X151591155Y-111502784D01*
X151593079Y-111498140D01*
X151637628Y-111442860D01*
X151704991Y-111420439D01*
X151773783Y-111437998D01*
G37*
G04 #@! TD.AperFunction*
G04 #@! TA.AperFunction,Conductor*
G36*
X155720527Y-109856502D02*
G01*
X155741501Y-109873405D01*
X156478167Y-110610071D01*
X156581925Y-110679400D01*
X156697215Y-110727155D01*
X156819606Y-110751500D01*
X156944393Y-110751500D01*
X156997478Y-110751500D01*
X157065599Y-110771502D01*
X157112092Y-110825158D01*
X157112092Y-110825159D01*
X157114902Y-110831314D01*
X157156229Y-110895619D01*
X157193923Y-110954271D01*
X157304381Y-111049984D01*
X157400515Y-111093887D01*
X157454170Y-111140379D01*
X157474172Y-111208500D01*
X157454170Y-111276620D01*
X157400515Y-111323113D01*
X157348172Y-111334500D01*
X157054738Y-111334500D01*
X156983353Y-111340986D01*
X156983352Y-111340986D01*
X156819093Y-111392170D01*
X156819088Y-111392172D01*
X156671844Y-111481184D01*
X156654889Y-111498140D01*
X156630432Y-111522596D01*
X156568124Y-111556620D01*
X156541339Y-111559500D01*
X154098371Y-111559500D01*
X154030250Y-111539498D01*
X154009276Y-111522595D01*
X152632261Y-110145580D01*
X152598235Y-110083268D01*
X152603300Y-110012453D01*
X152645847Y-109955617D01*
X152712367Y-109930806D01*
X152769571Y-109940075D01*
X152893752Y-109991513D01*
X153007589Y-110006500D01*
X154906410Y-110006499D01*
X155020248Y-109991513D01*
X155161887Y-109932844D01*
X155253512Y-109862537D01*
X155319731Y-109836937D01*
X155330215Y-109836500D01*
X155652406Y-109836500D01*
X155720527Y-109856502D01*
G37*
G04 #@! TD.AperFunction*
G04 #@! TA.AperFunction,Conductor*
G36*
X179535801Y-91568730D02*
G01*
X179565105Y-91570502D01*
X179825684Y-91586264D01*
X179840765Y-91588095D01*
X180122682Y-91639758D01*
X180137429Y-91643393D01*
X180411071Y-91728663D01*
X180425283Y-91734054D01*
X180686624Y-91851674D01*
X180700090Y-91858740D01*
X180945367Y-92007016D01*
X180957866Y-92015643D01*
X181183485Y-92192404D01*
X181194865Y-92202487D01*
X181397512Y-92405134D01*
X181407596Y-92416515D01*
X181584353Y-92642130D01*
X181592985Y-92654635D01*
X181733633Y-92887295D01*
X181741255Y-92899903D01*
X181748325Y-92913375D01*
X181865943Y-93174711D01*
X181871339Y-93188937D01*
X181956602Y-93462554D01*
X181960243Y-93477328D01*
X182011902Y-93759222D01*
X182013736Y-93774326D01*
X182031270Y-94064197D01*
X182031500Y-94071805D01*
X182031500Y-138064194D01*
X182031270Y-138071802D01*
X182013736Y-138361673D01*
X182011902Y-138376777D01*
X181960243Y-138658671D01*
X181956602Y-138673445D01*
X181871339Y-138947062D01*
X181865943Y-138961288D01*
X181748325Y-139222624D01*
X181741255Y-139236096D01*
X181592990Y-139481357D01*
X181584347Y-139493877D01*
X181464967Y-139646255D01*
X181407602Y-139719477D01*
X181397512Y-139730865D01*
X181194865Y-139933512D01*
X181183477Y-139943602D01*
X180957880Y-140120346D01*
X180945357Y-140128990D01*
X180700096Y-140277255D01*
X180686624Y-140284325D01*
X180425288Y-140401943D01*
X180411062Y-140407339D01*
X180137445Y-140492602D01*
X180122671Y-140496243D01*
X179840777Y-140547902D01*
X179825673Y-140549736D01*
X179535802Y-140567270D01*
X179528194Y-140567500D01*
X120535806Y-140567500D01*
X120528198Y-140567270D01*
X120238326Y-140549736D01*
X120223222Y-140547902D01*
X119941328Y-140496243D01*
X119926558Y-140492603D01*
X119652937Y-140407339D01*
X119638711Y-140401943D01*
X119377375Y-140284325D01*
X119363903Y-140277255D01*
X119118635Y-140128985D01*
X119106130Y-140120353D01*
X118880515Y-139943596D01*
X118869134Y-139933512D01*
X118666487Y-139730865D01*
X118656404Y-139719485D01*
X118479643Y-139493866D01*
X118471016Y-139481367D01*
X118322740Y-139236090D01*
X118315674Y-139222624D01*
X118198056Y-138961288D01*
X118192663Y-138947071D01*
X118107393Y-138673429D01*
X118103758Y-138658682D01*
X118052095Y-138376765D01*
X118050264Y-138361684D01*
X118032730Y-138071801D01*
X118032500Y-138064194D01*
X118032500Y-109869350D01*
X118673500Y-109869350D01*
X118673500Y-111666649D01*
X118680009Y-111727196D01*
X118680011Y-111727204D01*
X118731110Y-111864202D01*
X118731112Y-111864207D01*
X118818738Y-111981261D01*
X118935792Y-112068887D01*
X118935794Y-112068888D01*
X118935796Y-112068889D01*
X118990900Y-112089442D01*
X119072795Y-112119988D01*
X119072803Y-112119990D01*
X119133350Y-112126499D01*
X119133355Y-112126499D01*
X119133362Y-112126500D01*
X119133368Y-112126500D01*
X120930632Y-112126500D01*
X120930638Y-112126500D01*
X120930645Y-112126499D01*
X120930649Y-112126499D01*
X120991196Y-112119990D01*
X120991199Y-112119989D01*
X120991201Y-112119989D01*
X121128204Y-112068889D01*
X121138862Y-112060911D01*
X121245261Y-111981261D01*
X121332886Y-111864208D01*
X121332885Y-111864208D01*
X121332889Y-111864204D01*
X121376999Y-111745939D01*
X121419545Y-111689107D01*
X121486066Y-111664296D01*
X121555440Y-111679388D01*
X121587753Y-111704635D01*
X121635591Y-111756601D01*
X121648762Y-111770908D01*
X121703331Y-111813381D01*
X121826424Y-111909189D01*
X122024426Y-112016342D01*
X122024427Y-112016342D01*
X122024428Y-112016343D01*
X122136227Y-112054723D01*
X122237365Y-112089444D01*
X122459431Y-112126500D01*
X122459435Y-112126500D01*
X122684565Y-112126500D01*
X122684569Y-112126500D01*
X122906635Y-112089444D01*
X123119574Y-112016342D01*
X123317576Y-111909189D01*
X123495240Y-111770906D01*
X123647722Y-111605268D01*
X123661890Y-111583583D01*
X123715895Y-111537495D01*
X123767372Y-111526500D01*
X128565629Y-111526500D01*
X128633750Y-111546502D01*
X128654724Y-111563405D01*
X131511595Y-114420276D01*
X131545621Y-114482588D01*
X131548500Y-114509371D01*
X131548500Y-122361984D01*
X131528498Y-122430105D01*
X131511595Y-122451079D01*
X131502720Y-122459953D01*
X131502715Y-122459959D01*
X131412698Y-122605899D01*
X131358763Y-122768666D01*
X131348500Y-122869119D01*
X131348500Y-123466880D01*
X131348499Y-123466880D01*
X131358763Y-123567333D01*
X131358764Y-123567336D01*
X131412698Y-123730101D01*
X131502715Y-123876040D01*
X131511593Y-123884918D01*
X131545620Y-123947227D01*
X131548500Y-123974015D01*
X131548500Y-125176483D01*
X131528498Y-125244604D01*
X131474842Y-125291097D01*
X131462132Y-125296088D01*
X131296762Y-125350885D01*
X131145847Y-125443970D01*
X131145841Y-125443975D01*
X131020475Y-125569341D01*
X131020470Y-125569347D01*
X130927385Y-125720262D01*
X130871613Y-125888572D01*
X130871612Y-125888579D01*
X130861000Y-125992446D01*
X130861000Y-127943544D01*
X130871612Y-128047425D01*
X130927385Y-128215738D01*
X131020470Y-128366652D01*
X131020475Y-128366658D01*
X131145841Y-128492024D01*
X131145845Y-128492027D01*
X131145848Y-128492030D01*
X131163014Y-128502618D01*
X131213646Y-128533848D01*
X131261125Y-128586633D01*
X131273500Y-128641089D01*
X131273500Y-129644910D01*
X131253498Y-129713031D01*
X131213647Y-129752150D01*
X131145853Y-129793966D01*
X131145841Y-129793975D01*
X131020475Y-129919341D01*
X131020470Y-129919347D01*
X130927385Y-130070262D01*
X130871613Y-130238572D01*
X130871612Y-130238579D01*
X130861000Y-130342446D01*
X130861000Y-132293544D01*
X130871612Y-132397425D01*
X130927385Y-132565738D01*
X131020470Y-132716652D01*
X131020475Y-132716658D01*
X131145841Y-132842024D01*
X131145845Y-132842027D01*
X131145848Y-132842030D01*
X131145850Y-132842031D01*
X131213646Y-132883848D01*
X131261125Y-132936633D01*
X131273500Y-132991089D01*
X131273500Y-134142707D01*
X131302649Y-134289247D01*
X131359826Y-134427284D01*
X131442834Y-134551515D01*
X135148485Y-138257166D01*
X135272716Y-138340174D01*
X135410753Y-138397351D01*
X135484022Y-138411924D01*
X135484023Y-138411925D01*
X135498598Y-138414824D01*
X135557294Y-138426500D01*
X135557295Y-138426500D01*
X135557299Y-138426500D01*
X146106701Y-138426500D01*
X146106705Y-138426500D01*
X146106706Y-138426500D01*
X146179976Y-138411925D01*
X146253247Y-138397351D01*
X146391284Y-138340174D01*
X146515515Y-138257166D01*
X150025938Y-134746742D01*
X150088248Y-134712718D01*
X150159063Y-134717783D01*
X150180206Y-134728006D01*
X150289087Y-134793827D01*
X150453351Y-134845013D01*
X150524735Y-134851500D01*
X151039264Y-134851499D01*
X151110649Y-134845013D01*
X151274913Y-134793827D01*
X151422155Y-134704816D01*
X151459145Y-134667826D01*
X151517905Y-134609067D01*
X151580217Y-134575041D01*
X151651032Y-134580106D01*
X151696095Y-134609067D01*
X151791839Y-134704811D01*
X151791844Y-134704815D01*
X151791845Y-134704816D01*
X151939087Y-134793827D01*
X152103351Y-134845013D01*
X152174735Y-134851500D01*
X152689264Y-134851499D01*
X152760649Y-134845013D01*
X152924913Y-134793827D01*
X153072155Y-134704816D01*
X153193816Y-134583155D01*
X153198721Y-134575041D01*
X153206415Y-134562315D01*
X153258774Y-134514367D01*
X153314243Y-134501500D01*
X154269606Y-134501500D01*
X154269607Y-134501500D01*
X154394394Y-134501500D01*
X155099757Y-134501500D01*
X155167878Y-134521502D01*
X155207585Y-134562315D01*
X155220179Y-134583148D01*
X155220189Y-134583161D01*
X155341839Y-134704811D01*
X155341844Y-134704815D01*
X155341845Y-134704816D01*
X155489087Y-134793827D01*
X155653351Y-134845013D01*
X155724735Y-134851500D01*
X156239264Y-134851499D01*
X156310649Y-134845013D01*
X156474913Y-134793827D01*
X156622155Y-134704816D01*
X156743816Y-134583155D01*
X156832827Y-134435913D01*
X156884013Y-134271649D01*
X156890500Y-134200265D01*
X156890499Y-133535736D01*
X156884013Y-133464351D01*
X156832827Y-133300087D01*
X156743816Y-133152845D01*
X156743815Y-133152844D01*
X156743811Y-133152839D01*
X156622160Y-133031188D01*
X156622155Y-133031184D01*
X156474911Y-132942172D01*
X156474906Y-132942170D01*
X156310646Y-132890986D01*
X156258723Y-132886268D01*
X156239265Y-132884500D01*
X156239262Y-132884500D01*
X155724738Y-132884500D01*
X155653353Y-132890986D01*
X155653352Y-132890986D01*
X155489093Y-132942170D01*
X155489088Y-132942172D01*
X155341844Y-133031184D01*
X155341839Y-133031188D01*
X155220189Y-133152838D01*
X155220179Y-133152851D01*
X155207585Y-133173685D01*
X155155226Y-133221633D01*
X155099757Y-133234500D01*
X154646595Y-133234500D01*
X154578474Y-133214498D01*
X154557500Y-133197595D01*
X153135835Y-131775931D01*
X153135833Y-131775929D01*
X153032075Y-131706600D01*
X152916785Y-131658845D01*
X152843086Y-131644185D01*
X152794396Y-131634500D01*
X152794394Y-131634500D01*
X150391500Y-131634500D01*
X150323379Y-131614498D01*
X150276886Y-131560842D01*
X150265500Y-131508500D01*
X150265500Y-131482594D01*
X150285502Y-131414473D01*
X150302400Y-131393503D01*
X150428934Y-131266968D01*
X150491244Y-131232945D01*
X150562057Y-131238008D01*
X150647799Y-131269989D01*
X150647801Y-131269989D01*
X150647803Y-131269990D01*
X150708350Y-131276499D01*
X150708355Y-131276499D01*
X150708362Y-131276500D01*
X150708368Y-131276500D01*
X152355632Y-131276500D01*
X152355638Y-131276500D01*
X152355645Y-131276499D01*
X152355649Y-131276499D01*
X152416196Y-131269990D01*
X152416199Y-131269989D01*
X152416201Y-131269989D01*
X152553204Y-131218889D01*
X152572525Y-131204426D01*
X152670261Y-131131261D01*
X152757887Y-131014207D01*
X152757887Y-131014206D01*
X152757889Y-131014204D01*
X152808989Y-130877201D01*
X152809987Y-130867925D01*
X152815499Y-130816649D01*
X152815500Y-130816632D01*
X152815500Y-130119367D01*
X152815499Y-130119350D01*
X155648500Y-130119350D01*
X155648500Y-130816649D01*
X155655009Y-130877196D01*
X155655011Y-130877204D01*
X155706110Y-131014202D01*
X155706112Y-131014207D01*
X155793738Y-131131261D01*
X155910792Y-131218887D01*
X155910794Y-131218888D01*
X155910796Y-131218889D01*
X155962058Y-131238009D01*
X156047795Y-131269988D01*
X156047803Y-131269990D01*
X156108350Y-131276499D01*
X156108355Y-131276499D01*
X156108362Y-131276500D01*
X156108368Y-131276500D01*
X157755632Y-131276500D01*
X157755638Y-131276500D01*
X157755645Y-131276499D01*
X157755649Y-131276499D01*
X157816196Y-131269990D01*
X157816199Y-131269989D01*
X157816201Y-131269989D01*
X157953204Y-131218889D01*
X157972525Y-131204426D01*
X158070261Y-131131261D01*
X158157887Y-131014207D01*
X158157887Y-131014206D01*
X158157889Y-131014204D01*
X158208989Y-130877201D01*
X158209987Y-130867925D01*
X158215499Y-130816649D01*
X158215500Y-130816632D01*
X158215500Y-130119367D01*
X158215499Y-130119350D01*
X158208990Y-130058803D01*
X158208988Y-130058795D01*
X158179924Y-129980875D01*
X158157889Y-129921796D01*
X158157888Y-129921794D01*
X158157887Y-129921792D01*
X158070261Y-129804738D01*
X157953207Y-129717112D01*
X157953202Y-129717110D01*
X157816204Y-129666011D01*
X157816196Y-129666009D01*
X157755649Y-129659500D01*
X157755638Y-129659500D01*
X156108362Y-129659500D01*
X156108350Y-129659500D01*
X156047803Y-129666009D01*
X156047795Y-129666011D01*
X155910797Y-129717110D01*
X155910792Y-129717112D01*
X155793738Y-129804738D01*
X155706112Y-129921792D01*
X155706110Y-129921797D01*
X155655011Y-130058795D01*
X155655009Y-130058803D01*
X155648500Y-130119350D01*
X152815499Y-130119350D01*
X152808990Y-130058803D01*
X152808989Y-130058799D01*
X152757889Y-129921796D01*
X152747943Y-129908510D01*
X152723131Y-129841992D01*
X152738221Y-129772618D01*
X152747940Y-129757493D01*
X152757889Y-129744204D01*
X152808989Y-129607201D01*
X152808989Y-129607197D01*
X152808990Y-129607196D01*
X152815499Y-129546649D01*
X152815500Y-129546632D01*
X152815500Y-128849367D01*
X152815499Y-128849350D01*
X152808990Y-128788803D01*
X152808989Y-128788799D01*
X152757889Y-128651796D01*
X152747943Y-128638510D01*
X152723131Y-128571992D01*
X152738221Y-128502618D01*
X152747942Y-128487491D01*
X152757889Y-128474204D01*
X152808989Y-128337201D01*
X152815500Y-128276638D01*
X152815500Y-127579362D01*
X152815499Y-127579350D01*
X152808990Y-127518803D01*
X152808989Y-127518799D01*
X152757889Y-127381796D01*
X152747943Y-127368510D01*
X152723131Y-127301992D01*
X152738221Y-127232618D01*
X152747942Y-127217491D01*
X152757889Y-127204204D01*
X152808989Y-127067201D01*
X152809881Y-127058912D01*
X152815499Y-127006649D01*
X152815500Y-127006632D01*
X152815500Y-126309367D01*
X152815499Y-126309350D01*
X152808990Y-126248803D01*
X152808988Y-126248795D01*
X152770585Y-126145836D01*
X152757889Y-126111796D01*
X152757888Y-126111794D01*
X152757887Y-126111792D01*
X152670261Y-125994738D01*
X152553207Y-125907112D01*
X152553202Y-125907110D01*
X152416204Y-125856011D01*
X152416196Y-125856009D01*
X152355649Y-125849500D01*
X152355638Y-125849500D01*
X150842514Y-125849500D01*
X150774393Y-125829498D01*
X150727900Y-125775842D01*
X150717796Y-125705568D01*
X150739144Y-125651454D01*
X150796370Y-125569348D01*
X151245633Y-124924753D01*
X152638257Y-122926636D01*
X152681248Y-122888093D01*
X152691725Y-122882373D01*
X152691730Y-122882370D01*
X152808735Y-122794781D01*
X152868596Y-122734918D01*
X152891535Y-122716780D01*
X152915222Y-122702169D01*
X152941725Y-122689811D01*
X152972611Y-122679576D01*
X152999481Y-122673831D01*
X153000786Y-122673697D01*
X153001285Y-122673647D01*
X153014036Y-122673000D01*
X155049962Y-122673000D01*
X155062694Y-122673644D01*
X155064510Y-122673830D01*
X155091388Y-122679577D01*
X155122268Y-122689809D01*
X155148778Y-122702172D01*
X155172465Y-122716783D01*
X155195407Y-122734923D01*
X155229148Y-122768664D01*
X155255266Y-122794782D01*
X155278324Y-122815493D01*
X155296175Y-122831527D01*
X155316817Y-122848160D01*
X155361384Y-122880297D01*
X155444844Y-122918413D01*
X155498498Y-122964904D01*
X155518500Y-123033025D01*
X155518500Y-125860128D01*
X155521441Y-125914990D01*
X155521444Y-125915022D01*
X155524274Y-125941348D01*
X155524274Y-125941350D01*
X155533068Y-125995629D01*
X155584141Y-126132556D01*
X155584145Y-126132567D01*
X155584147Y-126132570D01*
X155591367Y-126145793D01*
X155591376Y-126145836D01*
X155619420Y-126197167D01*
X155619433Y-126197191D01*
X155634886Y-126225491D01*
X155649977Y-126294865D01*
X155649577Y-126299337D01*
X155648500Y-126309351D01*
X155648500Y-127006649D01*
X155655009Y-127067196D01*
X155655011Y-127067204D01*
X155706110Y-127204202D01*
X155706112Y-127204207D01*
X155716057Y-127217491D01*
X155740868Y-127284011D01*
X155725777Y-127353385D01*
X155716057Y-127368509D01*
X155706112Y-127381792D01*
X155706110Y-127381797D01*
X155655011Y-127518795D01*
X155655009Y-127518803D01*
X155648500Y-127579350D01*
X155648500Y-128276649D01*
X155655009Y-128337196D01*
X155655011Y-128337204D01*
X155706110Y-128474202D01*
X155706112Y-128474207D01*
X155793738Y-128591261D01*
X155910792Y-128678887D01*
X155910794Y-128678888D01*
X155910796Y-128678889D01*
X155960117Y-128697285D01*
X156047795Y-128729988D01*
X156047803Y-128729990D01*
X156108350Y-128736499D01*
X156108355Y-128736499D01*
X156108362Y-128736500D01*
X156108368Y-128736500D01*
X157755632Y-128736500D01*
X157755638Y-128736500D01*
X157755645Y-128736499D01*
X157755649Y-128736499D01*
X157816196Y-128729990D01*
X157816199Y-128729989D01*
X157816201Y-128729989D01*
X157953204Y-128678889D01*
X157989396Y-128651796D01*
X158076445Y-128586632D01*
X158142965Y-128561821D01*
X158151954Y-128561500D01*
X158435984Y-128561500D01*
X158504105Y-128581502D01*
X158525079Y-128598405D01*
X158623953Y-128697279D01*
X158623959Y-128697284D01*
X158623960Y-128697285D01*
X158769899Y-128787302D01*
X158932664Y-128841236D01*
X158952756Y-128843288D01*
X159033120Y-128851500D01*
X159033128Y-128851500D01*
X159630880Y-128851500D01*
X159703936Y-128844035D01*
X159731336Y-128841236D01*
X159894101Y-128787302D01*
X160040040Y-128697285D01*
X160161285Y-128576040D01*
X160161288Y-128576034D01*
X160162617Y-128574355D01*
X160163830Y-128573495D01*
X160166475Y-128570851D01*
X160166926Y-128571302D01*
X160220556Y-128533323D01*
X160261457Y-128526500D01*
X161969393Y-128526500D01*
X161969394Y-128526500D01*
X162091785Y-128502155D01*
X162207075Y-128454400D01*
X162310833Y-128385071D01*
X164354518Y-126341384D01*
X164416827Y-126307362D01*
X164487642Y-126312426D01*
X164532705Y-126341387D01*
X164658342Y-126467024D01*
X164658348Y-126467029D01*
X164658349Y-126467030D01*
X164809262Y-126560115D01*
X164977575Y-126615887D01*
X165005906Y-126618781D01*
X165081448Y-126626500D01*
X165081456Y-126626500D01*
X166782552Y-126626500D01*
X166851798Y-126619424D01*
X166886425Y-126615887D01*
X167054738Y-126560115D01*
X167205651Y-126467030D01*
X167331030Y-126341651D01*
X167424115Y-126190738D01*
X167479887Y-126022425D01*
X167483424Y-125987798D01*
X167490500Y-125918552D01*
X167490500Y-121817447D01*
X167479887Y-121713578D01*
X167479887Y-121713575D01*
X167424115Y-121545262D01*
X167331030Y-121394349D01*
X167331029Y-121394348D01*
X167331024Y-121394342D01*
X167205657Y-121268975D01*
X167205651Y-121268970D01*
X167082759Y-121193169D01*
X167054738Y-121175885D01*
X166886425Y-121120113D01*
X166886423Y-121120112D01*
X166886421Y-121120112D01*
X166782552Y-121109500D01*
X166782544Y-121109500D01*
X166691500Y-121109500D01*
X166623379Y-121089498D01*
X166576886Y-121035842D01*
X166565500Y-120983500D01*
X166565500Y-119782594D01*
X166585502Y-119714473D01*
X166602405Y-119693499D01*
X167207499Y-119088405D01*
X167269811Y-119054379D01*
X167296594Y-119051500D01*
X167400001Y-119051500D01*
X167468122Y-119071502D01*
X167514615Y-119125158D01*
X167526001Y-119177500D01*
X167526001Y-119368544D01*
X167536612Y-119472425D01*
X167592385Y-119640738D01*
X167685470Y-119791652D01*
X167685475Y-119791658D01*
X167810841Y-119917024D01*
X167810847Y-119917029D01*
X167810848Y-119917030D01*
X167961762Y-120010115D01*
X168130074Y-120065887D01*
X168233955Y-120076500D01*
X170335044Y-120076499D01*
X170438926Y-120065887D01*
X170607238Y-120010115D01*
X170758152Y-119917030D01*
X170883530Y-119791652D01*
X170976615Y-119640738D01*
X171032387Y-119472426D01*
X171043000Y-119368545D01*
X171042999Y-117467456D01*
X171032387Y-117363574D01*
X171008671Y-117292003D01*
X171718500Y-117292003D01*
X171718500Y-126644007D01*
X171730237Y-126753164D01*
X171741441Y-126804667D01*
X171776109Y-126908825D01*
X171776110Y-126908827D01*
X171815619Y-126970304D01*
X171855130Y-127031784D01*
X171855131Y-127031786D01*
X171900880Y-127084582D01*
X171900882Y-127084583D01*
X171900884Y-127084586D01*
X172011339Y-127180297D01*
X172076277Y-127209954D01*
X172144284Y-127241013D01*
X172144286Y-127241013D01*
X172144287Y-127241014D01*
X172211326Y-127260699D01*
X172211330Y-127260700D01*
X172356000Y-127281500D01*
X172356004Y-127281500D01*
X178707995Y-127281500D01*
X178708000Y-127281500D01*
X178817157Y-127269764D01*
X178868668Y-127258558D01*
X178972827Y-127223890D01*
X179095782Y-127144871D01*
X179095784Y-127144868D01*
X179095786Y-127144868D01*
X179122184Y-127121993D01*
X179148586Y-127099116D01*
X179244297Y-126988661D01*
X179305014Y-126855713D01*
X179324699Y-126788674D01*
X179324700Y-126788670D01*
X179345500Y-126644000D01*
X179345500Y-122858514D01*
X179344597Y-122828074D01*
X179343725Y-122813390D01*
X179343724Y-122813373D01*
X179341015Y-122783021D01*
X179341014Y-122783018D01*
X179303231Y-122641839D01*
X179303229Y-122641836D01*
X179303229Y-122641833D01*
X179275744Y-122577596D01*
X179199714Y-122452775D01*
X179174792Y-122430105D01*
X179091596Y-122354427D01*
X179033751Y-122315250D01*
X179033745Y-122315247D01*
X179033720Y-122315234D01*
X178902289Y-122251340D01*
X176781150Y-121572577D01*
X175683098Y-121221200D01*
X175624315Y-121181388D01*
X175596387Y-121116116D01*
X175595500Y-121101195D01*
X175595500Y-117292004D01*
X175595499Y-117291992D01*
X175583764Y-117182843D01*
X175572558Y-117131332D01*
X175537890Y-117027173D01*
X175458871Y-116904218D01*
X175458870Y-116904217D01*
X175458869Y-116904215D01*
X175458868Y-116904213D01*
X175413119Y-116851417D01*
X175404699Y-116844121D01*
X175302661Y-116755703D01*
X175169715Y-116694986D01*
X175102679Y-116675302D01*
X175102675Y-116675301D01*
X175102672Y-116675300D01*
X175102670Y-116675300D01*
X174958000Y-116654500D01*
X172356000Y-116654500D01*
X172355992Y-116654500D01*
X172262104Y-116664595D01*
X172246843Y-116666236D01*
X172246841Y-116666236D01*
X172246835Y-116666237D01*
X172195332Y-116677441D01*
X172091174Y-116712109D01*
X171968215Y-116791130D01*
X171968213Y-116791131D01*
X171915417Y-116836880D01*
X171819704Y-116947337D01*
X171819703Y-116947338D01*
X171758986Y-117080284D01*
X171739302Y-117147320D01*
X171739301Y-117147324D01*
X171739301Y-117147326D01*
X171739300Y-117147330D01*
X171718502Y-117291992D01*
X171718500Y-117292003D01*
X171008671Y-117292003D01*
X170976615Y-117195262D01*
X170883530Y-117044348D01*
X170883529Y-117044347D01*
X170883524Y-117044341D01*
X170758158Y-116918975D01*
X170758152Y-116918970D01*
X170725127Y-116898600D01*
X170607238Y-116825885D01*
X170523082Y-116797999D01*
X170438927Y-116770113D01*
X170438920Y-116770112D01*
X170335053Y-116759500D01*
X168233955Y-116759500D01*
X168130074Y-116770112D01*
X167961761Y-116825885D01*
X167810847Y-116918970D01*
X167810841Y-116918975D01*
X167685475Y-117044341D01*
X167685470Y-117044347D01*
X167592385Y-117195262D01*
X167536613Y-117363572D01*
X167536612Y-117363579D01*
X167526000Y-117467446D01*
X167526000Y-117658500D01*
X167505998Y-117726621D01*
X167452342Y-117773114D01*
X167400000Y-117784500D01*
X166919603Y-117784500D01*
X166846568Y-117799028D01*
X166797215Y-117808845D01*
X166797213Y-117808845D01*
X166797212Y-117808846D01*
X166681923Y-117856601D01*
X166578171Y-117925926D01*
X166578164Y-117925931D01*
X165439931Y-119064164D01*
X165439926Y-119064171D01*
X165370601Y-119167923D01*
X165325237Y-119277441D01*
X165322845Y-119283215D01*
X165313028Y-119332568D01*
X165298500Y-119405603D01*
X165298500Y-120983500D01*
X165278498Y-121051621D01*
X165224842Y-121098114D01*
X165172500Y-121109500D01*
X165081448Y-121109500D01*
X164977578Y-121120112D01*
X164809262Y-121175885D01*
X164809260Y-121175886D01*
X164658348Y-121268970D01*
X164658342Y-121268975D01*
X164532975Y-121394342D01*
X164532970Y-121394348D01*
X164439886Y-121545260D01*
X164439885Y-121545262D01*
X164384112Y-121713578D01*
X164373500Y-121817447D01*
X164373500Y-124478405D01*
X164353498Y-124546526D01*
X164336595Y-124567500D01*
X161681501Y-127222595D01*
X161619189Y-127256621D01*
X161592406Y-127259500D01*
X160261457Y-127259500D01*
X160193336Y-127239498D01*
X160166478Y-127215145D01*
X160166475Y-127215149D01*
X160166411Y-127215085D01*
X160162617Y-127211645D01*
X160161280Y-127209954D01*
X160040046Y-127088720D01*
X160040040Y-127088715D01*
X160022099Y-127077649D01*
X159894101Y-126998698D01*
X159731336Y-126944764D01*
X159731333Y-126944763D01*
X159630880Y-126934500D01*
X159630872Y-126934500D01*
X159033128Y-126934500D01*
X159033120Y-126934500D01*
X158932666Y-126944763D01*
X158769897Y-126998698D01*
X158672276Y-127058912D01*
X158603797Y-127077649D01*
X158536058Y-127056390D01*
X158490567Y-127001882D01*
X158481766Y-126931433D01*
X158500589Y-126882844D01*
X159741977Y-124979384D01*
X159743166Y-124977553D01*
X159743617Y-124976855D01*
X159744297Y-124975799D01*
X159805014Y-124842851D01*
X159824699Y-124775812D01*
X159824700Y-124775808D01*
X159845500Y-124631138D01*
X159845500Y-119892000D01*
X159833764Y-119782843D01*
X159822558Y-119731332D01*
X159787890Y-119627173D01*
X159708871Y-119504218D01*
X159708870Y-119504217D01*
X159708869Y-119504215D01*
X159708868Y-119504213D01*
X159663119Y-119451417D01*
X159646347Y-119436884D01*
X159552661Y-119355703D01*
X159419715Y-119294986D01*
X159352679Y-119275302D01*
X159352675Y-119275301D01*
X159352672Y-119275300D01*
X159352670Y-119275300D01*
X159208000Y-119254500D01*
X137556000Y-119254500D01*
X137555992Y-119254500D01*
X137462104Y-119264595D01*
X137446843Y-119266236D01*
X137446841Y-119266236D01*
X137446835Y-119266237D01*
X137395332Y-119277441D01*
X137291174Y-119312109D01*
X137168215Y-119391130D01*
X137168213Y-119391131D01*
X137115417Y-119436880D01*
X137019704Y-119547337D01*
X137019703Y-119547338D01*
X136958986Y-119680284D01*
X136939302Y-119747320D01*
X136939301Y-119747324D01*
X136939301Y-119747326D01*
X136939300Y-119747330D01*
X136918502Y-119891992D01*
X136918500Y-119892003D01*
X136918500Y-122772914D01*
X136920267Y-122815480D01*
X136921974Y-122835988D01*
X136927270Y-122878283D01*
X136927272Y-122878292D01*
X136971698Y-123017524D01*
X136971703Y-123017535D01*
X137002195Y-123080390D01*
X137084053Y-123201472D01*
X137196704Y-123294587D01*
X137196711Y-123294592D01*
X137233854Y-123317258D01*
X137256348Y-123330986D01*
X137256350Y-123330987D01*
X137390676Y-123388593D01*
X137390681Y-123388594D01*
X137390683Y-123388595D01*
X139205995Y-123876040D01*
X148055176Y-126252209D01*
X148115779Y-126289192D01*
X148146767Y-126353069D01*
X148148500Y-126373898D01*
X148148500Y-126916880D01*
X148148499Y-126916880D01*
X148158763Y-127017333D01*
X148158764Y-127017336D01*
X148212698Y-127180101D01*
X148268002Y-127269762D01*
X148302715Y-127326040D01*
X148302720Y-127326046D01*
X148423953Y-127447279D01*
X148423959Y-127447284D01*
X148423960Y-127447285D01*
X148569899Y-127537302D01*
X148732664Y-127591236D01*
X148752756Y-127593288D01*
X148833120Y-127601500D01*
X148833128Y-127601500D01*
X149430880Y-127601500D01*
X149503936Y-127594035D01*
X149531336Y-127591236D01*
X149694101Y-127537302D01*
X149840040Y-127447285D01*
X149958921Y-127328403D01*
X150021231Y-127294380D01*
X150048015Y-127291500D01*
X150158315Y-127291500D01*
X150226436Y-127311502D01*
X150272929Y-127365158D01*
X150283033Y-127435432D01*
X150276370Y-127461533D01*
X150255011Y-127518795D01*
X150255009Y-127518803D01*
X150248500Y-127579350D01*
X150248500Y-128276649D01*
X150255009Y-128337196D01*
X150255011Y-128337204D01*
X150306110Y-128474202D01*
X150306112Y-128474207D01*
X150316057Y-128487491D01*
X150340868Y-128554011D01*
X150325777Y-128623385D01*
X150316057Y-128638509D01*
X150306112Y-128651792D01*
X150306110Y-128651797D01*
X150255011Y-128788795D01*
X150255009Y-128788803D01*
X150248500Y-128849350D01*
X150248500Y-129546649D01*
X150255009Y-129607196D01*
X150255010Y-129607197D01*
X150255010Y-129607199D01*
X150255011Y-129607201D01*
X150278192Y-129669350D01*
X150283200Y-129682777D01*
X150288265Y-129753593D01*
X150254240Y-129815905D01*
X150191927Y-129849930D01*
X150189740Y-129850386D01*
X150147215Y-129858845D01*
X150147214Y-129858845D01*
X150147211Y-129858846D01*
X150031923Y-129906601D01*
X149928171Y-129975926D01*
X149928164Y-129975931D01*
X149139931Y-130764164D01*
X149139926Y-130764171D01*
X149104862Y-130816649D01*
X149070600Y-130867925D01*
X149050821Y-130915675D01*
X149022846Y-130983212D01*
X148998500Y-131105603D01*
X148998500Y-131105606D01*
X148998500Y-132005606D01*
X148998500Y-132130394D01*
X149022845Y-132252785D01*
X149070600Y-132368075D01*
X149139929Y-132471833D01*
X149428167Y-132760072D01*
X149531925Y-132829401D01*
X149613447Y-132863168D01*
X149647215Y-132877155D01*
X149665020Y-132880696D01*
X149727929Y-132913603D01*
X149763062Y-132975297D01*
X149759262Y-133046192D01*
X149717737Y-133103779D01*
X149665022Y-133127854D01*
X149610751Y-133138649D01*
X149610750Y-133138650D01*
X149472716Y-133195826D01*
X149348486Y-133278833D01*
X149348480Y-133278838D01*
X145754724Y-136872595D01*
X145692412Y-136906621D01*
X145665629Y-136909500D01*
X135998371Y-136909500D01*
X135930250Y-136889498D01*
X135909276Y-136872595D01*
X132827405Y-133790724D01*
X132793379Y-133728412D01*
X132790500Y-133701629D01*
X132790500Y-132991089D01*
X132810502Y-132922968D01*
X132850354Y-132883848D01*
X132882197Y-132864207D01*
X132918152Y-132842030D01*
X133043530Y-132716652D01*
X133136615Y-132565738D01*
X133192387Y-132397426D01*
X133196935Y-132352905D01*
X133203000Y-132293553D01*
X133203000Y-132052500D01*
X133223002Y-131984379D01*
X133276658Y-131937886D01*
X133329000Y-131926500D01*
X136897500Y-131926500D01*
X136965621Y-131946502D01*
X137012114Y-132000158D01*
X137023500Y-132052500D01*
X137023500Y-132666649D01*
X137030009Y-132727196D01*
X137030011Y-132727204D01*
X137081110Y-132864202D01*
X137081112Y-132864207D01*
X137168738Y-132981261D01*
X137285792Y-133068887D01*
X137285794Y-133068888D01*
X137285796Y-133068889D01*
X137344875Y-133090924D01*
X137422795Y-133119988D01*
X137422803Y-133119990D01*
X137483350Y-133126499D01*
X137483355Y-133126499D01*
X137483362Y-133126500D01*
X137483368Y-133126500D01*
X142980632Y-133126500D01*
X142980638Y-133126500D01*
X142980645Y-133126499D01*
X142980649Y-133126499D01*
X143041196Y-133119990D01*
X143041199Y-133119989D01*
X143041201Y-133119989D01*
X143178204Y-133068889D01*
X143295261Y-132981261D01*
X143345909Y-132913603D01*
X143382887Y-132864207D01*
X143382887Y-132864206D01*
X143382889Y-132864204D01*
X143433989Y-132727201D01*
X143435123Y-132716658D01*
X143440499Y-132666649D01*
X143440500Y-132666632D01*
X143440500Y-129669367D01*
X143440499Y-129669350D01*
X143433990Y-129608803D01*
X143433988Y-129608795D01*
X143382889Y-129471797D01*
X143382887Y-129471792D01*
X143295261Y-129354738D01*
X143178207Y-129267112D01*
X143178202Y-129267110D01*
X143041204Y-129216011D01*
X143041196Y-129216009D01*
X142980649Y-129209500D01*
X142980638Y-129209500D01*
X137483362Y-129209500D01*
X137483350Y-129209500D01*
X137422803Y-129216009D01*
X137422795Y-129216011D01*
X137285797Y-129267110D01*
X137285792Y-129267112D01*
X137168738Y-129354738D01*
X137081112Y-129471792D01*
X137081110Y-129471797D01*
X137030011Y-129608795D01*
X137030009Y-129608803D01*
X137023500Y-129669350D01*
X137023500Y-130283500D01*
X137003498Y-130351621D01*
X136949842Y-130398114D01*
X136897500Y-130409500D01*
X133323633Y-130409500D01*
X133255512Y-130389498D01*
X133209019Y-130335842D01*
X133198285Y-130296306D01*
X133192387Y-130238574D01*
X133152886Y-130119367D01*
X133136615Y-130070262D01*
X133043530Y-129919348D01*
X133043529Y-129919347D01*
X133043524Y-129919341D01*
X132918158Y-129793975D01*
X132918154Y-129793972D01*
X132918152Y-129793970D01*
X132918146Y-129793966D01*
X132850353Y-129752150D01*
X132802875Y-129699364D01*
X132790500Y-129644910D01*
X132790500Y-128641089D01*
X132810502Y-128572968D01*
X132850354Y-128533848D01*
X132862267Y-128526500D01*
X132918152Y-128492030D01*
X133043530Y-128366652D01*
X133136615Y-128215738D01*
X133192387Y-128047426D01*
X133203000Y-127943545D01*
X133202999Y-125992456D01*
X133192387Y-125888574D01*
X133192386Y-125888570D01*
X133192386Y-125888568D01*
X133155032Y-125775842D01*
X133136615Y-125720262D01*
X133084259Y-125635379D01*
X133065500Y-125569232D01*
X133065500Y-123974015D01*
X133085502Y-123905894D01*
X133102403Y-123884921D01*
X133111285Y-123876040D01*
X133201302Y-123730101D01*
X133255236Y-123567336D01*
X133258035Y-123539936D01*
X133265500Y-123466880D01*
X133265500Y-122869119D01*
X133255236Y-122768666D01*
X133255236Y-122768664D01*
X133201302Y-122605899D01*
X133111285Y-122459960D01*
X133111284Y-122459959D01*
X133111279Y-122459953D01*
X133102405Y-122451079D01*
X133068379Y-122388767D01*
X133065500Y-122361984D01*
X133065500Y-114068293D01*
X133065499Y-114068290D01*
X133036351Y-113921754D01*
X132979174Y-113783716D01*
X132960392Y-113755606D01*
X132960392Y-113755605D01*
X132906296Y-113674646D01*
X132896166Y-113659485D01*
X129415515Y-110178834D01*
X129291284Y-110095826D01*
X129153247Y-110038649D01*
X129079976Y-110024074D01*
X129079975Y-110024073D01*
X129006711Y-110009500D01*
X129006706Y-110009500D01*
X123767372Y-110009500D01*
X123699251Y-109989498D01*
X123661890Y-109952417D01*
X123653827Y-109940076D01*
X123647722Y-109930732D01*
X123495240Y-109765094D01*
X123495239Y-109765093D01*
X123495237Y-109765091D01*
X123413382Y-109701381D01*
X123317576Y-109626811D01*
X123119574Y-109519658D01*
X123119572Y-109519657D01*
X123119571Y-109519656D01*
X122906639Y-109446557D01*
X122906632Y-109446555D01*
X122807655Y-109430039D01*
X122787702Y-109426709D01*
X122723804Y-109395768D01*
X122686776Y-109335192D01*
X122688377Y-109264213D01*
X122719345Y-109213335D01*
X125221166Y-106711515D01*
X125304174Y-106587284D01*
X125361351Y-106449246D01*
X125369944Y-106406045D01*
X125390500Y-106302706D01*
X125390500Y-102293294D01*
X125390500Y-97284900D01*
X125410502Y-97216779D01*
X125464158Y-97170286D01*
X125534432Y-97160182D01*
X125557406Y-97165726D01*
X125597365Y-97179444D01*
X125819431Y-97216500D01*
X125819435Y-97216500D01*
X126044565Y-97216500D01*
X126044569Y-97216500D01*
X126266635Y-97179444D01*
X126479574Y-97106342D01*
X126677576Y-96999189D01*
X126855240Y-96860906D01*
X127007722Y-96695268D01*
X127096518Y-96559354D01*
X127150520Y-96513268D01*
X127220868Y-96503692D01*
X127285225Y-96533669D01*
X127307480Y-96559353D01*
X127340607Y-96610058D01*
X127396275Y-96695265D01*
X127396279Y-96695270D01*
X127548762Y-96860908D01*
X127603331Y-96903381D01*
X127726424Y-96999189D01*
X127924426Y-97106342D01*
X127924427Y-97106342D01*
X127924428Y-97106343D01*
X127930499Y-97108427D01*
X128137365Y-97179444D01*
X128359431Y-97216500D01*
X128359435Y-97216500D01*
X128584565Y-97216500D01*
X128584569Y-97216500D01*
X128806635Y-97179444D01*
X129019574Y-97106342D01*
X129217576Y-96999189D01*
X129395240Y-96860906D01*
X129547722Y-96695268D01*
X129636518Y-96559354D01*
X129690520Y-96513268D01*
X129760868Y-96503692D01*
X129825225Y-96533669D01*
X129847480Y-96559353D01*
X129880607Y-96610058D01*
X129936275Y-96695265D01*
X129936279Y-96695270D01*
X130088762Y-96860908D01*
X130143331Y-96903381D01*
X130266424Y-96999189D01*
X130464426Y-97106342D01*
X130464427Y-97106342D01*
X130464428Y-97106343D01*
X130470499Y-97108427D01*
X130677365Y-97179444D01*
X130899431Y-97216500D01*
X130899435Y-97216500D01*
X131124565Y-97216500D01*
X131124569Y-97216500D01*
X131346635Y-97179444D01*
X131559574Y-97106342D01*
X131757576Y-96999189D01*
X131935240Y-96860906D01*
X132087722Y-96695268D01*
X132176518Y-96559354D01*
X132230520Y-96513268D01*
X132300868Y-96503692D01*
X132365225Y-96533669D01*
X132387480Y-96559353D01*
X132420607Y-96610058D01*
X132476275Y-96695265D01*
X132476279Y-96695270D01*
X132628762Y-96860908D01*
X132683331Y-96903381D01*
X132806424Y-96999189D01*
X133004426Y-97106342D01*
X133004427Y-97106342D01*
X133004428Y-97106343D01*
X133010499Y-97108427D01*
X133217365Y-97179444D01*
X133439431Y-97216500D01*
X133439435Y-97216500D01*
X133664565Y-97216500D01*
X133664569Y-97216500D01*
X133886635Y-97179444D01*
X134099574Y-97106342D01*
X134297576Y-96999189D01*
X134475240Y-96860906D01*
X134627722Y-96695268D01*
X134750860Y-96506791D01*
X134841296Y-96300616D01*
X134896564Y-96082368D01*
X134915156Y-95858000D01*
X134896564Y-95633632D01*
X134841296Y-95415384D01*
X134750860Y-95209209D01*
X134744140Y-95198924D01*
X134627724Y-95020734D01*
X134627720Y-95020729D01*
X134475237Y-94855091D01*
X134367007Y-94770852D01*
X134297576Y-94716811D01*
X134264319Y-94698813D01*
X134213929Y-94648802D01*
X134198576Y-94579485D01*
X134223136Y-94512872D01*
X134264320Y-94477186D01*
X134297576Y-94459189D01*
X134475240Y-94320906D01*
X134627722Y-94155268D01*
X134716518Y-94019354D01*
X134770520Y-93973268D01*
X134840868Y-93963692D01*
X134905225Y-93993669D01*
X134927480Y-94019353D01*
X134956778Y-94064197D01*
X135016275Y-94155265D01*
X135016279Y-94155270D01*
X135168762Y-94320908D01*
X135223331Y-94363381D01*
X135346424Y-94459189D01*
X135544426Y-94566342D01*
X135544427Y-94566342D01*
X135544428Y-94566343D01*
X135632320Y-94596516D01*
X135757365Y-94639444D01*
X135979431Y-94676500D01*
X135979435Y-94676500D01*
X136204565Y-94676500D01*
X136204569Y-94676500D01*
X136426635Y-94639444D01*
X136639574Y-94566342D01*
X136837576Y-94459189D01*
X137015240Y-94320906D01*
X137167722Y-94155268D01*
X137256518Y-94019354D01*
X137310520Y-93973268D01*
X137380868Y-93963692D01*
X137445225Y-93993669D01*
X137467480Y-94019353D01*
X137496778Y-94064197D01*
X137556275Y-94155265D01*
X137556279Y-94155270D01*
X137708762Y-94320908D01*
X137763331Y-94363381D01*
X137886424Y-94459189D01*
X137919680Y-94477186D01*
X137970071Y-94527200D01*
X137985423Y-94596516D01*
X137960862Y-94663129D01*
X137919680Y-94698813D01*
X137886426Y-94716810D01*
X137886424Y-94716811D01*
X137708762Y-94855091D01*
X137556279Y-95020729D01*
X137556275Y-95020734D01*
X137433141Y-95209206D01*
X137342703Y-95415386D01*
X137342702Y-95415387D01*
X137287437Y-95633624D01*
X137268844Y-95858000D01*
X137287437Y-96082375D01*
X137342702Y-96300612D01*
X137342703Y-96300613D01*
X137433141Y-96506793D01*
X137556275Y-96695265D01*
X137556279Y-96695270D01*
X137708762Y-96860908D01*
X137773232Y-96911087D01*
X137886424Y-96999189D01*
X137886428Y-96999191D01*
X137886432Y-96999194D01*
X137982468Y-97051165D01*
X138032859Y-97101178D01*
X138048500Y-97161979D01*
X138048500Y-98978500D01*
X138028498Y-99046621D01*
X137974842Y-99093114D01*
X137922500Y-99104500D01*
X137907000Y-99104500D01*
X137858280Y-99107984D01*
X137833918Y-99109727D01*
X137693686Y-99150903D01*
X137693682Y-99150905D01*
X137570729Y-99229922D01*
X137475016Y-99340380D01*
X137445649Y-99404686D01*
X137414300Y-99473330D01*
X137394137Y-99613574D01*
X137393500Y-99618002D01*
X137393500Y-100618001D01*
X137397569Y-100682527D01*
X137410155Y-100728214D01*
X137413397Y-100779605D01*
X137393500Y-100918000D01*
X137393500Y-102068000D01*
X137397420Y-102122809D01*
X137398727Y-102141081D01*
X137428259Y-102241658D01*
X137439904Y-102281316D01*
X137463000Y-102317254D01*
X137513495Y-102395826D01*
X137518923Y-102404271D01*
X137629381Y-102499984D01*
X137762330Y-102560700D01*
X137907000Y-102581500D01*
X137922500Y-102581500D01*
X137990621Y-102601502D01*
X138037114Y-102655158D01*
X138048500Y-102707500D01*
X138048500Y-102833500D01*
X138028498Y-102901621D01*
X137974842Y-102948114D01*
X137922500Y-102959500D01*
X137733350Y-102959500D01*
X137672803Y-102966009D01*
X137672795Y-102966011D01*
X137535797Y-103017110D01*
X137535792Y-103017112D01*
X137418738Y-103104738D01*
X137331112Y-103221792D01*
X137331110Y-103221797D01*
X137280011Y-103358795D01*
X137280009Y-103358803D01*
X137273500Y-103419350D01*
X137273500Y-105216649D01*
X137280009Y-105277196D01*
X137280011Y-105277204D01*
X137331110Y-105414202D01*
X137331112Y-105414207D01*
X137418738Y-105531261D01*
X137535792Y-105618887D01*
X137535794Y-105618888D01*
X137535796Y-105618889D01*
X137594367Y-105640735D01*
X137672795Y-105669988D01*
X137672803Y-105669990D01*
X137733350Y-105676499D01*
X137733355Y-105676499D01*
X137733362Y-105676500D01*
X139042406Y-105676500D01*
X139110527Y-105696502D01*
X139131501Y-105713405D01*
X142893167Y-109475071D01*
X142996925Y-109544400D01*
X143112215Y-109592155D01*
X143234606Y-109616500D01*
X143359393Y-109616500D01*
X143769905Y-109616500D01*
X143838026Y-109636502D01*
X143859000Y-109653405D01*
X144398787Y-110193192D01*
X144432813Y-110255504D01*
X144427748Y-110326319D01*
X144414458Y-110352286D01*
X144370600Y-110417925D01*
X144369745Y-110419989D01*
X144322846Y-110533212D01*
X144298500Y-110655603D01*
X144298500Y-110655606D01*
X144298500Y-114243106D01*
X144298500Y-114367894D01*
X144322845Y-114490285D01*
X144370600Y-114605575D01*
X144439929Y-114709333D01*
X144439931Y-114709335D01*
X145711595Y-115980999D01*
X145745621Y-116043311D01*
X145748500Y-116070094D01*
X145748500Y-116372710D01*
X145758608Y-116471649D01*
X145758676Y-116472314D01*
X145812151Y-116633692D01*
X145901400Y-116778387D01*
X145901405Y-116778393D01*
X146021606Y-116898594D01*
X146021612Y-116898599D01*
X146021613Y-116898600D01*
X146166308Y-116987849D01*
X146327686Y-117041324D01*
X146427289Y-117051500D01*
X146961710Y-117051499D01*
X147061314Y-117041324D01*
X147222692Y-116987849D01*
X147367387Y-116898600D01*
X147392905Y-116873081D01*
X147455215Y-116839057D01*
X147526031Y-116844121D01*
X147571094Y-116873081D01*
X147596613Y-116898600D01*
X147741308Y-116987849D01*
X147902686Y-117041324D01*
X148002289Y-117051500D01*
X148536710Y-117051499D01*
X148636314Y-117041324D01*
X148797692Y-116987849D01*
X148942387Y-116898600D01*
X149062600Y-116778387D01*
X149073106Y-116761354D01*
X149125891Y-116713875D01*
X149180347Y-116701500D01*
X149274757Y-116701500D01*
X149342878Y-116721502D01*
X149382585Y-116762315D01*
X149395179Y-116783148D01*
X149395189Y-116783161D01*
X149516839Y-116904811D01*
X149516844Y-116904815D01*
X149516845Y-116904816D01*
X149664087Y-116993827D01*
X149828351Y-117045013D01*
X149899735Y-117051500D01*
X150414264Y-117051499D01*
X150485649Y-117045013D01*
X150649913Y-116993827D01*
X150797155Y-116904816D01*
X150838566Y-116863405D01*
X150892905Y-116809067D01*
X150955217Y-116775041D01*
X151026032Y-116780106D01*
X151071095Y-116809067D01*
X151166839Y-116904811D01*
X151166844Y-116904815D01*
X151166845Y-116904816D01*
X151314087Y-116993827D01*
X151478351Y-117045013D01*
X151549735Y-117051500D01*
X152064264Y-117051499D01*
X152135649Y-117045013D01*
X152299913Y-116993827D01*
X152447155Y-116904816D01*
X152488567Y-116863403D01*
X152550876Y-116829380D01*
X152577661Y-116826500D01*
X153061339Y-116826500D01*
X153129460Y-116846502D01*
X153150429Y-116863400D01*
X153191845Y-116904816D01*
X153339087Y-116993827D01*
X153503351Y-117045013D01*
X153574735Y-117051500D01*
X154089264Y-117051499D01*
X154160649Y-117045013D01*
X154324913Y-116993827D01*
X154472155Y-116904816D01*
X154593816Y-116783155D01*
X154682827Y-116635913D01*
X154734013Y-116471649D01*
X154740500Y-116400265D01*
X154740499Y-115735736D01*
X154734013Y-115664351D01*
X154726812Y-115641245D01*
X154725644Y-115570259D01*
X154758010Y-115514669D01*
X155434278Y-114838401D01*
X155496588Y-114804378D01*
X155523371Y-114801499D01*
X155639262Y-114801499D01*
X155639264Y-114801499D01*
X155710649Y-114795013D01*
X155874913Y-114743827D01*
X156022155Y-114654816D01*
X156143816Y-114533155D01*
X156232827Y-114385913D01*
X156284013Y-114221649D01*
X156290500Y-114150265D01*
X156290499Y-113485736D01*
X156284013Y-113414351D01*
X156248848Y-113301500D01*
X156230560Y-113242809D01*
X156233006Y-113242046D01*
X156224963Y-113183905D01*
X156254799Y-113119482D01*
X156314729Y-113081417D01*
X156349583Y-113076500D01*
X156541339Y-113076500D01*
X156609460Y-113096502D01*
X156630429Y-113113400D01*
X156671845Y-113154816D01*
X156819087Y-113243827D01*
X156983351Y-113295013D01*
X157054735Y-113301500D01*
X157569264Y-113301499D01*
X157640649Y-113295013D01*
X157804913Y-113243827D01*
X157952155Y-113154816D01*
X157999365Y-113107606D01*
X158047905Y-113059067D01*
X158110217Y-113025041D01*
X158181032Y-113030106D01*
X158226095Y-113059067D01*
X158321839Y-113154811D01*
X158321844Y-113154815D01*
X158321845Y-113154816D01*
X158469087Y-113243827D01*
X158633351Y-113295013D01*
X158704735Y-113301500D01*
X159219264Y-113301499D01*
X159290649Y-113295013D01*
X159454913Y-113243827D01*
X159602155Y-113154816D01*
X159723816Y-113033155D01*
X159726584Y-113028575D01*
X159736415Y-113012315D01*
X159788774Y-112964367D01*
X159844243Y-112951500D01*
X160697500Y-112951500D01*
X160765621Y-112971502D01*
X160812114Y-113025158D01*
X160823500Y-113077500D01*
X160823500Y-114768544D01*
X160834112Y-114872425D01*
X160889885Y-115040738D01*
X160982970Y-115191652D01*
X160982975Y-115191658D01*
X161108341Y-115317024D01*
X161108347Y-115317029D01*
X161108348Y-115317030D01*
X161259262Y-115410115D01*
X161427574Y-115465887D01*
X161531455Y-115476500D01*
X163432544Y-115476499D01*
X163536426Y-115465887D01*
X163704738Y-115410115D01*
X163855652Y-115317030D01*
X163866559Y-115306123D01*
X163884278Y-115288405D01*
X163946590Y-115254379D01*
X163973373Y-115251500D01*
X165339751Y-115251500D01*
X165407872Y-115271502D01*
X165446992Y-115311354D01*
X165457968Y-115329149D01*
X165457975Y-115329158D01*
X165583341Y-115454524D01*
X165583347Y-115454529D01*
X165583348Y-115454530D01*
X165734262Y-115547615D01*
X165902574Y-115603387D01*
X166006455Y-115614000D01*
X168957544Y-115613999D01*
X169061426Y-115603387D01*
X169229738Y-115547615D01*
X169380652Y-115454530D01*
X169506030Y-115329152D01*
X169599115Y-115178238D01*
X169654887Y-115009926D01*
X169665500Y-114906045D01*
X169665499Y-114079956D01*
X169654887Y-113976074D01*
X169599115Y-113807762D01*
X169506030Y-113656848D01*
X169506029Y-113656847D01*
X169506024Y-113656841D01*
X169380658Y-113531475D01*
X169380652Y-113531470D01*
X169306509Y-113485738D01*
X169229738Y-113438385D01*
X169145582Y-113410499D01*
X169061427Y-113382613D01*
X169061420Y-113382612D01*
X168957553Y-113372000D01*
X166006455Y-113372000D01*
X165902574Y-113382612D01*
X165734261Y-113438385D01*
X165583347Y-113531470D01*
X165583341Y-113531475D01*
X165457975Y-113656841D01*
X165457968Y-113656850D01*
X165446992Y-113674646D01*
X165394206Y-113722125D01*
X165339751Y-113734500D01*
X164266500Y-113734500D01*
X164198379Y-113714498D01*
X164151886Y-113660842D01*
X164140500Y-113608500D01*
X164140499Y-112667455D01*
X164129887Y-112563574D01*
X164128725Y-112560068D01*
X164074115Y-112395262D01*
X163981030Y-112244348D01*
X163981029Y-112244347D01*
X163981024Y-112244341D01*
X163855658Y-112118975D01*
X163855652Y-112118970D01*
X163807783Y-112089444D01*
X163704738Y-112025885D01*
X163620582Y-111997999D01*
X163536427Y-111970113D01*
X163536420Y-111970112D01*
X163432553Y-111959500D01*
X163432545Y-111959500D01*
X161671594Y-111959500D01*
X161603473Y-111939498D01*
X161582499Y-111922595D01*
X161485835Y-111825931D01*
X161485833Y-111825929D01*
X161382075Y-111756600D01*
X161266785Y-111708845D01*
X161193086Y-111694185D01*
X161144396Y-111684500D01*
X161144394Y-111684500D01*
X159844243Y-111684500D01*
X159776122Y-111664498D01*
X159736415Y-111623685D01*
X159723820Y-111602851D01*
X159723818Y-111602848D01*
X159723816Y-111602845D01*
X159723813Y-111602842D01*
X159723810Y-111602838D01*
X159602160Y-111481188D01*
X159602155Y-111481184D01*
X159565202Y-111458845D01*
X159454913Y-111392173D01*
X159454912Y-111392172D01*
X159454911Y-111392172D01*
X159454906Y-111392170D01*
X159290643Y-111340985D01*
X159287868Y-111340733D01*
X159286339Y-111340128D01*
X159284103Y-111339684D01*
X159284183Y-111339277D01*
X159221839Y-111314645D01*
X159180395Y-111256999D01*
X159176697Y-111186099D01*
X159211917Y-111124455D01*
X159263777Y-111094356D01*
X159295316Y-111085096D01*
X159418271Y-111006077D01*
X159513984Y-110895619D01*
X159574700Y-110762670D01*
X159595500Y-110618000D01*
X159595500Y-109468000D01*
X159588974Y-109386391D01*
X159580441Y-109359039D01*
X159576006Y-109303584D01*
X159581667Y-109264213D01*
X159595500Y-109168000D01*
X159595500Y-108168000D01*
X159594566Y-108154946D01*
X165298500Y-108154946D01*
X165298500Y-108981044D01*
X165309112Y-109084925D01*
X165364885Y-109253238D01*
X165457970Y-109404152D01*
X165457975Y-109404158D01*
X165583341Y-109529524D01*
X165583347Y-109529529D01*
X165583348Y-109529530D01*
X165734262Y-109622615D01*
X165902574Y-109678387D01*
X166006455Y-109689000D01*
X168957544Y-109688999D01*
X169061426Y-109678387D01*
X169229738Y-109622615D01*
X169380652Y-109529530D01*
X169506030Y-109404152D01*
X169517008Y-109386354D01*
X169569794Y-109338875D01*
X169624249Y-109326500D01*
X174497500Y-109326500D01*
X174565621Y-109346502D01*
X174612114Y-109400158D01*
X174623500Y-109452500D01*
X174623500Y-109966649D01*
X174630009Y-110027196D01*
X174630011Y-110027204D01*
X174681110Y-110164202D01*
X174681112Y-110164207D01*
X174768738Y-110281261D01*
X174885792Y-110368887D01*
X174885794Y-110368888D01*
X174885796Y-110368889D01*
X174944875Y-110390924D01*
X175022795Y-110419988D01*
X175022803Y-110419990D01*
X175083350Y-110426499D01*
X175083355Y-110426499D01*
X175083362Y-110426500D01*
X175083368Y-110426500D01*
X177680632Y-110426500D01*
X177680638Y-110426500D01*
X177680645Y-110426499D01*
X177680649Y-110426499D01*
X177741196Y-110419990D01*
X177741199Y-110419989D01*
X177741201Y-110419989D01*
X177878204Y-110368889D01*
X177995261Y-110281261D01*
X178000509Y-110274250D01*
X178082887Y-110164207D01*
X178082887Y-110164206D01*
X178082889Y-110164204D01*
X178133989Y-110027201D01*
X178134326Y-110024074D01*
X178140499Y-109966649D01*
X178140500Y-109966632D01*
X178140500Y-107369367D01*
X178140499Y-107369350D01*
X178133990Y-107308803D01*
X178133988Y-107308795D01*
X178082889Y-107171797D01*
X178082887Y-107171792D01*
X177995261Y-107054738D01*
X177878207Y-106967112D01*
X177878202Y-106967110D01*
X177741204Y-106916011D01*
X177741196Y-106916009D01*
X177680649Y-106909500D01*
X177680638Y-106909500D01*
X175083362Y-106909500D01*
X175083350Y-106909500D01*
X175022803Y-106916009D01*
X175022795Y-106916011D01*
X174885797Y-106967110D01*
X174885792Y-106967112D01*
X174768738Y-107054738D01*
X174681112Y-107171792D01*
X174681110Y-107171797D01*
X174630011Y-107308795D01*
X174630009Y-107308803D01*
X174623500Y-107369350D01*
X174623500Y-107683500D01*
X174603498Y-107751621D01*
X174549842Y-107798114D01*
X174497500Y-107809500D01*
X169624249Y-107809500D01*
X169556128Y-107789498D01*
X169517008Y-107749646D01*
X169506031Y-107731850D01*
X169506030Y-107731848D01*
X169506027Y-107731845D01*
X169506024Y-107731841D01*
X169380658Y-107606475D01*
X169380652Y-107606470D01*
X169229738Y-107513385D01*
X169145582Y-107485499D01*
X169061427Y-107457613D01*
X169061420Y-107457612D01*
X168957553Y-107447000D01*
X166006455Y-107447000D01*
X165902574Y-107457612D01*
X165734261Y-107513385D01*
X165583347Y-107606470D01*
X165583341Y-107606475D01*
X165457975Y-107731841D01*
X165457970Y-107731847D01*
X165364885Y-107882762D01*
X165309113Y-108051072D01*
X165309112Y-108051079D01*
X165298500Y-108154946D01*
X159594566Y-108154946D01*
X159590273Y-108094921D01*
X159549096Y-107954684D01*
X159470077Y-107831729D01*
X159439536Y-107805265D01*
X159352808Y-107730114D01*
X159354643Y-107727995D01*
X159317581Y-107685222D01*
X159307478Y-107614948D01*
X159336971Y-107550368D01*
X159394708Y-107512587D01*
X159454913Y-107493827D01*
X159602155Y-107404816D01*
X159723816Y-107283155D01*
X159812827Y-107135913D01*
X159864013Y-106971649D01*
X159870500Y-106900265D01*
X159870499Y-106235736D01*
X159864013Y-106164351D01*
X159812827Y-106000087D01*
X159723816Y-105852845D01*
X159723815Y-105852844D01*
X159723811Y-105852839D01*
X159602160Y-105731188D01*
X159602155Y-105731184D01*
X159500926Y-105669989D01*
X159454913Y-105642173D01*
X159454912Y-105642172D01*
X159454911Y-105642172D01*
X159454906Y-105642170D01*
X159290646Y-105590986D01*
X159238723Y-105586268D01*
X159219265Y-105584500D01*
X159219262Y-105584500D01*
X158704738Y-105584500D01*
X158633353Y-105590986D01*
X158633352Y-105590986D01*
X158469093Y-105642170D01*
X158469088Y-105642172D01*
X158321844Y-105731184D01*
X158226094Y-105826934D01*
X158163782Y-105860959D01*
X158092966Y-105855893D01*
X158047905Y-105826934D01*
X157982404Y-105761433D01*
X157948379Y-105699120D01*
X157945500Y-105672338D01*
X157945500Y-105579946D01*
X165298500Y-105579946D01*
X165298500Y-106406044D01*
X165309112Y-106509925D01*
X165364885Y-106678238D01*
X165457970Y-106829152D01*
X165457975Y-106829158D01*
X165583341Y-106954524D01*
X165583347Y-106954529D01*
X165583348Y-106954530D01*
X165734262Y-107047615D01*
X165902574Y-107103387D01*
X166006455Y-107114000D01*
X168957544Y-107113999D01*
X169061426Y-107103387D01*
X169229738Y-107047615D01*
X169380652Y-106954530D01*
X169506030Y-106829152D01*
X169599115Y-106678238D01*
X169654887Y-106509926D01*
X169661086Y-106449251D01*
X169665500Y-106406053D01*
X169665500Y-106406045D01*
X169665499Y-105579955D01*
X169654887Y-105476074D01*
X169638460Y-105426500D01*
X169599115Y-105307762D01*
X169514383Y-105170391D01*
X169495647Y-105101912D01*
X169516906Y-105034174D01*
X169532524Y-105015155D01*
X170084277Y-104463404D01*
X170146589Y-104429379D01*
X170173372Y-104426500D01*
X174716633Y-104426500D01*
X174784754Y-104446502D01*
X174825752Y-104489500D01*
X174924982Y-104661372D01*
X174924984Y-104661375D01*
X174924985Y-104661376D01*
X175089314Y-104867438D01*
X175282519Y-105046706D01*
X175283204Y-105047173D01*
X175500275Y-105195170D01*
X175500279Y-105195172D01*
X175500285Y-105195176D01*
X175737746Y-105309532D01*
X175737749Y-105309532D01*
X175737754Y-105309535D01*
X175989589Y-105387215D01*
X175989591Y-105387215D01*
X175989600Y-105387218D01*
X176250219Y-105426500D01*
X176250223Y-105426500D01*
X176513777Y-105426500D01*
X176513781Y-105426500D01*
X176774400Y-105387218D01*
X176989374Y-105320908D01*
X177026245Y-105309535D01*
X177026247Y-105309534D01*
X177026254Y-105309532D01*
X177263716Y-105195176D01*
X177481481Y-105046706D01*
X177674686Y-104867438D01*
X177839015Y-104661376D01*
X177935749Y-104493827D01*
X177970794Y-104433128D01*
X177970796Y-104433124D01*
X178067087Y-104187780D01*
X178125735Y-103930826D01*
X178145431Y-103668000D01*
X178125735Y-103405174D01*
X178067925Y-103151891D01*
X178067088Y-103148224D01*
X178067087Y-103148223D01*
X178067087Y-103148220D01*
X177970796Y-102902876D01*
X177970795Y-102902875D01*
X177970794Y-102902871D01*
X177839017Y-102674627D01*
X177834691Y-102669202D01*
X177674686Y-102468562D01*
X177481481Y-102289294D01*
X177469781Y-102281317D01*
X177263725Y-102140829D01*
X177263718Y-102140825D01*
X177026257Y-102026469D01*
X177026245Y-102026464D01*
X176774410Y-101948784D01*
X176774402Y-101948782D01*
X176774400Y-101948782D01*
X176513781Y-101909500D01*
X176250219Y-101909500D01*
X175989600Y-101948782D01*
X175989598Y-101948782D01*
X175989589Y-101948784D01*
X175737754Y-102026464D01*
X175737742Y-102026469D01*
X175500283Y-102140825D01*
X175500275Y-102140829D01*
X175282525Y-102289289D01*
X175282520Y-102289293D01*
X175198741Y-102367029D01*
X175089314Y-102468562D01*
X175081119Y-102478838D01*
X174924982Y-102674627D01*
X174825752Y-102846500D01*
X174774370Y-102895493D01*
X174716633Y-102909500D01*
X169732290Y-102909500D01*
X169606613Y-102934499D01*
X169606612Y-102934500D01*
X169585754Y-102938649D01*
X169585753Y-102938649D01*
X169585750Y-102938650D01*
X169447716Y-102995826D01*
X169323483Y-103078835D01*
X169323477Y-103078840D01*
X167567222Y-104835095D01*
X167504910Y-104869121D01*
X167478127Y-104872000D01*
X166006455Y-104872000D01*
X165902574Y-104882612D01*
X165734261Y-104938385D01*
X165583347Y-105031470D01*
X165583341Y-105031475D01*
X165457975Y-105156841D01*
X165457970Y-105156847D01*
X165364885Y-105307762D01*
X165309113Y-105476072D01*
X165309112Y-105476079D01*
X165298500Y-105579946D01*
X157945500Y-105579946D01*
X157945500Y-105532594D01*
X157965502Y-105464473D01*
X157982405Y-105443499D01*
X158837500Y-104588404D01*
X158899812Y-104554378D01*
X158926595Y-104551499D01*
X159219262Y-104551499D01*
X159219264Y-104551499D01*
X159290649Y-104545013D01*
X159454913Y-104493827D01*
X159602155Y-104404816D01*
X159723816Y-104283155D01*
X159748365Y-104242545D01*
X159800721Y-104194597D01*
X159831610Y-104184151D01*
X159866785Y-104177155D01*
X159982075Y-104129400D01*
X160085833Y-104060071D01*
X161582500Y-102563402D01*
X161644811Y-102529379D01*
X161671594Y-102526499D01*
X163432544Y-102526499D01*
X163536426Y-102515887D01*
X163704738Y-102460115D01*
X163855652Y-102367030D01*
X163981030Y-102241652D01*
X164074115Y-102090738D01*
X164129887Y-101922426D01*
X164138101Y-101842030D01*
X164140500Y-101818553D01*
X164140500Y-100952500D01*
X164160502Y-100884379D01*
X164214158Y-100837886D01*
X164266500Y-100826500D01*
X165339751Y-100826500D01*
X165407872Y-100846502D01*
X165446992Y-100886354D01*
X165457968Y-100904149D01*
X165457975Y-100904158D01*
X165583341Y-101029524D01*
X165583347Y-101029529D01*
X165583348Y-101029530D01*
X165734262Y-101122615D01*
X165902574Y-101178387D01*
X166006455Y-101189000D01*
X168957544Y-101188999D01*
X169061426Y-101178387D01*
X169229738Y-101122615D01*
X169380652Y-101029530D01*
X169506030Y-100904152D01*
X169599115Y-100753238D01*
X169654887Y-100584926D01*
X169665500Y-100481045D01*
X169665499Y-99654956D01*
X169664493Y-99645113D01*
X169654887Y-99551074D01*
X169644313Y-99519164D01*
X169599115Y-99382762D01*
X169506030Y-99231848D01*
X169506029Y-99231847D01*
X169506024Y-99231841D01*
X169380658Y-99106475D01*
X169380652Y-99106470D01*
X169377458Y-99104500D01*
X169229738Y-99013385D01*
X169124460Y-98978500D01*
X169061427Y-98957613D01*
X169061420Y-98957612D01*
X168957553Y-98947000D01*
X166006455Y-98947000D01*
X165902574Y-98957612D01*
X165734261Y-99013385D01*
X165583347Y-99106470D01*
X165583341Y-99106475D01*
X165457975Y-99231841D01*
X165457968Y-99231850D01*
X165446992Y-99249646D01*
X165394206Y-99297125D01*
X165339751Y-99309500D01*
X164048373Y-99309500D01*
X163980252Y-99289498D01*
X163959278Y-99272595D01*
X163855658Y-99168975D01*
X163855652Y-99168970D01*
X163826364Y-99150905D01*
X163704738Y-99075885D01*
X163568805Y-99030842D01*
X163536427Y-99020113D01*
X163536420Y-99020112D01*
X163432553Y-99009500D01*
X161531455Y-99009500D01*
X161427574Y-99020112D01*
X161259261Y-99075885D01*
X161108347Y-99168970D01*
X161108341Y-99168975D01*
X160982975Y-99294341D01*
X160982970Y-99294347D01*
X160889885Y-99445262D01*
X160834113Y-99613572D01*
X160834112Y-99613579D01*
X160823500Y-99717446D01*
X160823500Y-101478405D01*
X160803498Y-101546526D01*
X160786595Y-101567500D01*
X159684892Y-102669202D01*
X159622580Y-102703228D01*
X159551764Y-102698163D01*
X159530614Y-102687936D01*
X159454913Y-102642173D01*
X159454912Y-102642172D01*
X159454911Y-102642172D01*
X159454906Y-102642170D01*
X159290646Y-102590986D01*
X159238723Y-102586268D01*
X159219265Y-102584500D01*
X159219262Y-102584500D01*
X158704738Y-102584500D01*
X158633353Y-102590986D01*
X158633352Y-102590986D01*
X158469093Y-102642170D01*
X158469088Y-102642172D01*
X158321844Y-102731184D01*
X158321839Y-102731188D01*
X158200188Y-102852839D01*
X158200184Y-102852844D01*
X158111172Y-103000088D01*
X158111170Y-103000093D01*
X158059986Y-103164353D01*
X158053500Y-103235737D01*
X158053500Y-103528405D01*
X158033498Y-103596526D01*
X158016595Y-103617500D01*
X156908167Y-104725929D01*
X156819931Y-104814164D01*
X156819926Y-104814171D01*
X156774195Y-104882613D01*
X156750600Y-104917925D01*
X156746491Y-104927845D01*
X156703566Y-105031475D01*
X156702845Y-105033215D01*
X156700161Y-105046710D01*
X156678500Y-105155603D01*
X156678500Y-105672338D01*
X156658498Y-105740459D01*
X156641595Y-105761433D01*
X156550188Y-105852839D01*
X156550184Y-105852844D01*
X156461172Y-106000088D01*
X156461170Y-106000093D01*
X156409986Y-106164353D01*
X156403500Y-106235737D01*
X156403500Y-106528403D01*
X156383498Y-106596524D01*
X156366596Y-106617498D01*
X156197911Y-106786184D01*
X155870096Y-107114000D01*
X155721501Y-107262595D01*
X155659188Y-107296620D01*
X155632405Y-107299500D01*
X155515042Y-107299500D01*
X155446921Y-107279498D01*
X155400428Y-107225842D01*
X155390324Y-107155568D01*
X155398630Y-107125289D01*
X155435513Y-107036248D01*
X155450500Y-106922411D01*
X155450499Y-106403590D01*
X155435513Y-106289752D01*
X155376844Y-106148113D01*
X155309933Y-106060913D01*
X155283515Y-106026484D01*
X155161893Y-105933160D01*
X155161885Y-105933155D01*
X155020246Y-105874486D01*
X154946138Y-105864730D01*
X154906411Y-105859500D01*
X154906408Y-105859500D01*
X153007590Y-105859500D01*
X153007581Y-105859501D01*
X152905135Y-105872988D01*
X152893752Y-105874487D01*
X152893750Y-105874487D01*
X152893749Y-105874488D01*
X152844448Y-105894909D01*
X152796231Y-105904500D01*
X152716500Y-105904500D01*
X152648379Y-105884498D01*
X152601886Y-105830842D01*
X152590500Y-105778500D01*
X152590500Y-105204999D01*
X152607380Y-105142000D01*
X152666527Y-105039556D01*
X152725542Y-104857928D01*
X152745504Y-104668000D01*
X152725542Y-104478072D01*
X152666527Y-104296444D01*
X152571040Y-104131056D01*
X152571038Y-104131054D01*
X152571034Y-104131048D01*
X152443255Y-103989135D01*
X152288752Y-103876882D01*
X152114288Y-103799206D01*
X152051227Y-103785801D01*
X151988754Y-103752072D01*
X151988331Y-103751650D01*
X150715519Y-102478838D01*
X150715515Y-102478834D01*
X150591284Y-102395826D01*
X150453247Y-102338649D01*
X150345687Y-102317254D01*
X150345685Y-102317253D01*
X150345684Y-102317253D01*
X150306708Y-102309500D01*
X150306706Y-102309500D01*
X147906500Y-102309500D01*
X147838379Y-102289498D01*
X147791886Y-102235842D01*
X147780500Y-102183500D01*
X147780500Y-102014219D01*
X147800502Y-101946098D01*
X147840352Y-101906979D01*
X147945652Y-101842030D01*
X148071030Y-101716652D01*
X148164115Y-101565738D01*
X148219887Y-101397426D01*
X148230500Y-101293545D01*
X148230499Y-100342456D01*
X148219887Y-100238574D01*
X148164115Y-100070262D01*
X148071030Y-99919348D01*
X148071029Y-99919347D01*
X148071024Y-99919341D01*
X147945658Y-99793975D01*
X147945652Y-99793970D01*
X147794738Y-99700885D01*
X147656128Y-99654955D01*
X147626427Y-99645113D01*
X147626420Y-99645112D01*
X147522553Y-99634500D01*
X146521455Y-99634500D01*
X146417574Y-99645112D01*
X146249261Y-99700885D01*
X146098347Y-99793970D01*
X146098341Y-99793975D01*
X145972975Y-99919341D01*
X145972970Y-99919347D01*
X145879885Y-100070262D01*
X145824113Y-100238572D01*
X145824112Y-100238579D01*
X145813500Y-100342446D01*
X145813500Y-101293544D01*
X145824112Y-101397425D01*
X145879885Y-101565738D01*
X145972970Y-101716652D01*
X145972975Y-101716658D01*
X146098341Y-101842024D01*
X146098345Y-101842027D01*
X146098348Y-101842030D01*
X146203647Y-101906979D01*
X146251125Y-101959763D01*
X146263500Y-102014219D01*
X146263500Y-102266984D01*
X146243498Y-102335105D01*
X146226595Y-102356079D01*
X146222720Y-102359953D01*
X146222715Y-102359959D01*
X146132698Y-102505899D01*
X146078763Y-102668666D01*
X146068500Y-102769119D01*
X146068500Y-103366880D01*
X146068499Y-103366880D01*
X146078763Y-103467333D01*
X146078764Y-103467336D01*
X146132698Y-103630101D01*
X146207671Y-103751650D01*
X146222715Y-103776040D01*
X146222720Y-103776046D01*
X146343953Y-103897279D01*
X146343959Y-103897284D01*
X146343960Y-103897285D01*
X146489899Y-103987302D01*
X146652664Y-104041236D01*
X146672756Y-104043288D01*
X146753120Y-104051500D01*
X146753128Y-104051500D01*
X147300880Y-104051500D01*
X147373936Y-104044035D01*
X147401336Y-104041236D01*
X147564101Y-103987302D01*
X147710040Y-103897285D01*
X147743920Y-103863404D01*
X147806230Y-103829380D01*
X147833015Y-103826500D01*
X149865629Y-103826500D01*
X149933750Y-103846502D01*
X149954724Y-103863405D01*
X150911874Y-104820555D01*
X150942612Y-104870713D01*
X150997473Y-105039556D01*
X151056619Y-105142000D01*
X151073500Y-105204999D01*
X151073500Y-106959406D01*
X151053498Y-107027527D01*
X150999842Y-107074020D01*
X150929568Y-107084124D01*
X150864988Y-107054630D01*
X150858405Y-107048501D01*
X150537404Y-106727500D01*
X150503378Y-106665188D01*
X150500499Y-106638405D01*
X150500499Y-106403590D01*
X150500498Y-106403581D01*
X150498394Y-106387602D01*
X150485513Y-106289752D01*
X150426844Y-106148113D01*
X150359933Y-106060913D01*
X150333515Y-106026484D01*
X150211893Y-105933160D01*
X150211885Y-105933155D01*
X150070246Y-105874486D01*
X149996138Y-105864730D01*
X149956411Y-105859500D01*
X149956408Y-105859500D01*
X148057590Y-105859500D01*
X148057581Y-105859501D01*
X147955135Y-105872988D01*
X147943752Y-105874487D01*
X147802114Y-105933155D01*
X147802110Y-105933158D01*
X147779218Y-105950724D01*
X147710487Y-106003462D01*
X147644269Y-106029063D01*
X147633785Y-106029500D01*
X146841499Y-106029500D01*
X146773378Y-106009498D01*
X146726885Y-105955842D01*
X146715499Y-105903500D01*
X146715499Y-105640738D01*
X146710390Y-105584501D01*
X146709013Y-105569351D01*
X146672925Y-105453539D01*
X146657829Y-105405093D01*
X146657827Y-105405088D01*
X146657827Y-105405087D01*
X146568816Y-105257845D01*
X146568815Y-105257844D01*
X146568811Y-105257839D01*
X146447160Y-105136188D01*
X146447155Y-105136184D01*
X146299911Y-105047172D01*
X146299906Y-105047170D01*
X146135646Y-104995986D01*
X146083723Y-104991268D01*
X146064265Y-104989500D01*
X146064262Y-104989500D01*
X145399738Y-104989500D01*
X145328353Y-104995986D01*
X145328352Y-104995986D01*
X145164093Y-105047170D01*
X145164088Y-105047172D01*
X145016844Y-105136184D01*
X145016839Y-105136188D01*
X144895188Y-105257839D01*
X144895184Y-105257844D01*
X144806172Y-105405088D01*
X144806170Y-105405093D01*
X144754986Y-105569353D01*
X144748500Y-105640737D01*
X144748500Y-106155261D01*
X144754986Y-106226646D01*
X144754986Y-106226647D01*
X144806170Y-106390906D01*
X144806172Y-106390911D01*
X144806173Y-106390913D01*
X144823048Y-106418827D01*
X144895184Y-106538155D01*
X144895188Y-106538160D01*
X144990933Y-106633905D01*
X145024959Y-106696217D01*
X145019894Y-106767032D01*
X144990933Y-106812096D01*
X144898527Y-106904501D01*
X144840394Y-106936244D01*
X144840638Y-106937048D01*
X144836776Y-106938219D01*
X144836215Y-106938526D01*
X144834785Y-106938823D01*
X144834711Y-106938845D01*
X144800946Y-106952830D01*
X144800946Y-106952831D01*
X144755516Y-106971649D01*
X144719424Y-106986599D01*
X144615666Y-107055927D01*
X144615660Y-107055932D01*
X143883397Y-107788196D01*
X143821085Y-107822222D01*
X143750270Y-107817157D01*
X143705207Y-107788196D01*
X141842405Y-105925394D01*
X141808379Y-105863082D01*
X141805500Y-105836299D01*
X141805500Y-105594920D01*
X141825502Y-105526799D01*
X141871527Y-105484108D01*
X141917576Y-105459189D01*
X142095240Y-105320906D01*
X142247722Y-105155268D01*
X142370860Y-104966791D01*
X142461296Y-104760616D01*
X142516564Y-104542368D01*
X142535156Y-104318000D01*
X142516564Y-104093632D01*
X142490102Y-103989135D01*
X142461297Y-103875387D01*
X142461296Y-103875386D01*
X142461296Y-103875384D01*
X142370860Y-103669209D01*
X142342492Y-103625789D01*
X142247724Y-103480734D01*
X142247720Y-103480729D01*
X142095237Y-103315091D01*
X141993283Y-103235737D01*
X141917576Y-103176811D01*
X141889620Y-103161681D01*
X141871529Y-103151891D01*
X141821139Y-103101877D01*
X141805500Y-103041078D01*
X141805500Y-102706069D01*
X141825502Y-102637948D01*
X141879158Y-102591455D01*
X141922509Y-102580390D01*
X141980079Y-102576273D01*
X142120316Y-102535096D01*
X142243271Y-102456077D01*
X142338984Y-102345619D01*
X142399700Y-102212670D01*
X142420500Y-102068000D01*
X142420500Y-100918000D01*
X142413974Y-100836391D01*
X142405441Y-100809039D01*
X142401006Y-100753584D01*
X142404654Y-100728214D01*
X142420500Y-100618000D01*
X142420500Y-99618000D01*
X142415273Y-99544921D01*
X142374096Y-99404684D01*
X142295077Y-99281729D01*
X142184619Y-99186016D01*
X142051670Y-99125300D01*
X142051668Y-99125299D01*
X142051667Y-99125299D01*
X141913568Y-99105443D01*
X141848987Y-99075950D01*
X141810604Y-99016224D01*
X141805500Y-98980726D01*
X141805500Y-97134920D01*
X141825502Y-97066799D01*
X141871527Y-97024108D01*
X141917576Y-96999189D01*
X142095240Y-96860906D01*
X142247722Y-96695268D01*
X142336518Y-96559354D01*
X142390520Y-96513268D01*
X142460868Y-96503692D01*
X142525225Y-96533669D01*
X142547480Y-96559353D01*
X142580607Y-96610058D01*
X142636275Y-96695265D01*
X142636279Y-96695270D01*
X142788762Y-96860908D01*
X142843331Y-96903381D01*
X142966424Y-96999189D01*
X143164426Y-97106342D01*
X143164427Y-97106342D01*
X143164428Y-97106343D01*
X143170499Y-97108427D01*
X143377365Y-97179444D01*
X143599431Y-97216500D01*
X143599435Y-97216500D01*
X143824565Y-97216500D01*
X143824569Y-97216500D01*
X144046635Y-97179444D01*
X144259574Y-97106342D01*
X144457576Y-96999189D01*
X144635240Y-96860906D01*
X144787722Y-96695268D01*
X144876518Y-96559354D01*
X144930520Y-96513268D01*
X145000868Y-96503692D01*
X145065225Y-96533669D01*
X145087480Y-96559353D01*
X145120607Y-96610058D01*
X145176275Y-96695265D01*
X145176279Y-96695270D01*
X145328762Y-96860908D01*
X145383331Y-96903381D01*
X145506424Y-96999189D01*
X145704426Y-97106342D01*
X145704427Y-97106342D01*
X145704428Y-97106343D01*
X145710499Y-97108427D01*
X145917365Y-97179444D01*
X146139431Y-97216500D01*
X146139435Y-97216500D01*
X146364565Y-97216500D01*
X146364569Y-97216500D01*
X146586635Y-97179444D01*
X146799574Y-97106342D01*
X146997576Y-96999189D01*
X147175240Y-96860906D01*
X147327722Y-96695268D01*
X147416518Y-96559354D01*
X147470520Y-96513268D01*
X147540868Y-96503692D01*
X147605225Y-96533669D01*
X147627480Y-96559353D01*
X147660607Y-96610058D01*
X147716275Y-96695265D01*
X147716279Y-96695270D01*
X147868762Y-96860908D01*
X147923331Y-96903381D01*
X148046424Y-96999189D01*
X148244426Y-97106342D01*
X148244427Y-97106342D01*
X148244428Y-97106343D01*
X148250499Y-97108427D01*
X148457365Y-97179444D01*
X148679431Y-97216500D01*
X148679435Y-97216500D01*
X148904565Y-97216500D01*
X148904569Y-97216500D01*
X149126635Y-97179444D01*
X149339574Y-97106342D01*
X149537576Y-96999189D01*
X149715240Y-96860906D01*
X149867722Y-96695268D01*
X149956518Y-96559354D01*
X150010520Y-96513268D01*
X150080868Y-96503692D01*
X150145225Y-96533669D01*
X150167480Y-96559353D01*
X150200607Y-96610058D01*
X150256275Y-96695265D01*
X150256279Y-96695270D01*
X150408762Y-96860908D01*
X150463331Y-96903381D01*
X150586424Y-96999189D01*
X150784426Y-97106342D01*
X150784427Y-97106342D01*
X150784428Y-97106343D01*
X150790499Y-97108427D01*
X150997365Y-97179444D01*
X151219431Y-97216500D01*
X151219435Y-97216500D01*
X151444565Y-97216500D01*
X151444569Y-97216500D01*
X151666635Y-97179444D01*
X151879574Y-97106342D01*
X152077576Y-96999189D01*
X152255240Y-96860906D01*
X152407722Y-96695268D01*
X152496518Y-96559354D01*
X152550520Y-96513268D01*
X152620868Y-96503692D01*
X152685225Y-96533669D01*
X152707480Y-96559353D01*
X152740607Y-96610058D01*
X152796275Y-96695265D01*
X152796279Y-96695270D01*
X152948762Y-96860908D01*
X153003331Y-96903381D01*
X153126424Y-96999189D01*
X153324426Y-97106342D01*
X153324427Y-97106342D01*
X153324428Y-97106343D01*
X153330499Y-97108427D01*
X153537365Y-97179444D01*
X153759431Y-97216500D01*
X153759435Y-97216500D01*
X153984565Y-97216500D01*
X153984569Y-97216500D01*
X154206635Y-97179444D01*
X154419574Y-97106342D01*
X154617576Y-96999189D01*
X154795240Y-96860906D01*
X154947722Y-96695268D01*
X155070860Y-96506791D01*
X155161296Y-96300616D01*
X155216564Y-96082368D01*
X155235156Y-95858000D01*
X155216564Y-95633632D01*
X155161296Y-95415384D01*
X155070860Y-95209209D01*
X155064140Y-95198924D01*
X154947724Y-95020734D01*
X154947720Y-95020729D01*
X154795237Y-94855091D01*
X154687007Y-94770852D01*
X154617576Y-94716811D01*
X154584319Y-94698813D01*
X154533929Y-94648802D01*
X154518576Y-94579485D01*
X154543136Y-94512872D01*
X154584320Y-94477186D01*
X154617576Y-94459189D01*
X154795240Y-94320906D01*
X154947722Y-94155268D01*
X155036518Y-94019354D01*
X155090520Y-93973268D01*
X155160868Y-93963692D01*
X155225225Y-93993669D01*
X155247480Y-94019353D01*
X155276778Y-94064197D01*
X155336275Y-94155265D01*
X155336279Y-94155270D01*
X155488762Y-94320908D01*
X155543331Y-94363381D01*
X155666424Y-94459189D01*
X155864426Y-94566342D01*
X155864427Y-94566342D01*
X155864428Y-94566343D01*
X155952320Y-94596516D01*
X156077365Y-94639444D01*
X156299431Y-94676500D01*
X156299435Y-94676500D01*
X156524565Y-94676500D01*
X156524569Y-94676500D01*
X156746635Y-94639444D01*
X156959574Y-94566342D01*
X157157576Y-94459189D01*
X157335240Y-94320906D01*
X157487722Y-94155268D01*
X157576518Y-94019354D01*
X157630520Y-93973268D01*
X157700868Y-93963692D01*
X157765225Y-93993669D01*
X157787480Y-94019353D01*
X157816778Y-94064197D01*
X157876275Y-94155265D01*
X157876279Y-94155270D01*
X158028762Y-94320908D01*
X158083331Y-94363381D01*
X158206424Y-94459189D01*
X158239680Y-94477186D01*
X158290071Y-94527200D01*
X158305423Y-94596516D01*
X158280862Y-94663129D01*
X158239680Y-94698813D01*
X158206426Y-94716810D01*
X158206424Y-94716811D01*
X158028762Y-94855091D01*
X157876279Y-95020729D01*
X157876275Y-95020734D01*
X157753141Y-95209206D01*
X157662703Y-95415386D01*
X157662702Y-95415387D01*
X157607437Y-95633624D01*
X157588844Y-95858000D01*
X157607437Y-96082375D01*
X157662702Y-96300612D01*
X157662703Y-96300613D01*
X157753141Y-96506793D01*
X157876275Y-96695265D01*
X157876279Y-96695270D01*
X158028762Y-96860908D01*
X158083331Y-96903381D01*
X158206424Y-96999189D01*
X158404426Y-97106342D01*
X158404427Y-97106342D01*
X158404428Y-97106343D01*
X158410499Y-97108427D01*
X158617365Y-97179444D01*
X158839431Y-97216500D01*
X158839435Y-97216500D01*
X159064565Y-97216500D01*
X159064569Y-97216500D01*
X159286635Y-97179444D01*
X159499574Y-97106342D01*
X159697576Y-96999189D01*
X159875240Y-96860906D01*
X160027722Y-96695268D01*
X160116518Y-96559354D01*
X160170520Y-96513268D01*
X160240868Y-96503692D01*
X160305225Y-96533669D01*
X160327480Y-96559353D01*
X160360607Y-96610058D01*
X160416275Y-96695265D01*
X160416279Y-96695270D01*
X160568762Y-96860908D01*
X160623331Y-96903381D01*
X160746424Y-96999189D01*
X160944426Y-97106342D01*
X160944427Y-97106342D01*
X160944428Y-97106343D01*
X160950499Y-97108427D01*
X161157365Y-97179444D01*
X161379431Y-97216500D01*
X161379435Y-97216500D01*
X161604565Y-97216500D01*
X161604569Y-97216500D01*
X161826635Y-97179444D01*
X162039574Y-97106342D01*
X162237576Y-96999189D01*
X162415240Y-96860906D01*
X162567722Y-96695268D01*
X162656518Y-96559354D01*
X162710520Y-96513268D01*
X162780868Y-96503692D01*
X162845225Y-96533669D01*
X162867480Y-96559353D01*
X162900607Y-96610058D01*
X162956275Y-96695265D01*
X162956279Y-96695270D01*
X163108762Y-96860908D01*
X163163331Y-96903381D01*
X163286424Y-96999189D01*
X163484426Y-97106342D01*
X163484427Y-97106342D01*
X163484428Y-97106343D01*
X163490499Y-97108427D01*
X163697365Y-97179444D01*
X163919431Y-97216500D01*
X163919435Y-97216500D01*
X164144565Y-97216500D01*
X164144569Y-97216500D01*
X164366635Y-97179444D01*
X164579574Y-97106342D01*
X164777576Y-96999189D01*
X164955240Y-96860906D01*
X165107722Y-96695268D01*
X165196518Y-96559354D01*
X165250520Y-96513268D01*
X165320868Y-96503692D01*
X165385225Y-96533669D01*
X165407480Y-96559353D01*
X165440607Y-96610058D01*
X165496275Y-96695265D01*
X165496279Y-96695270D01*
X165648762Y-96860908D01*
X165703331Y-96903381D01*
X165826424Y-96999189D01*
X166024426Y-97106342D01*
X166024427Y-97106342D01*
X166024428Y-97106343D01*
X166030499Y-97108427D01*
X166237365Y-97179444D01*
X166459431Y-97216500D01*
X166459435Y-97216500D01*
X166684565Y-97216500D01*
X166684569Y-97216500D01*
X166906635Y-97179444D01*
X167119574Y-97106342D01*
X167317576Y-96999189D01*
X167495240Y-96860906D01*
X167647722Y-96695268D01*
X167736518Y-96559354D01*
X167790520Y-96513268D01*
X167860868Y-96503692D01*
X167925225Y-96533669D01*
X167947480Y-96559353D01*
X167980607Y-96610058D01*
X168036275Y-96695265D01*
X168036279Y-96695270D01*
X168188762Y-96860908D01*
X168243331Y-96903381D01*
X168366424Y-96999189D01*
X168564426Y-97106342D01*
X168564427Y-97106342D01*
X168564428Y-97106343D01*
X168570499Y-97108427D01*
X168777365Y-97179444D01*
X168999431Y-97216500D01*
X168999435Y-97216500D01*
X169224565Y-97216500D01*
X169224569Y-97216500D01*
X169446635Y-97179444D01*
X169659574Y-97106342D01*
X169857576Y-96999189D01*
X170035240Y-96860906D01*
X170187722Y-96695268D01*
X170276518Y-96559354D01*
X170330520Y-96513268D01*
X170400868Y-96503692D01*
X170465225Y-96533669D01*
X170487480Y-96559353D01*
X170520607Y-96610058D01*
X170576275Y-96695265D01*
X170576279Y-96695270D01*
X170728762Y-96860908D01*
X170783331Y-96903381D01*
X170906424Y-96999189D01*
X171104426Y-97106342D01*
X171104427Y-97106342D01*
X171104428Y-97106343D01*
X171110499Y-97108427D01*
X171317365Y-97179444D01*
X171539431Y-97216500D01*
X171539435Y-97216500D01*
X171764565Y-97216500D01*
X171764569Y-97216500D01*
X171986635Y-97179444D01*
X172199574Y-97106342D01*
X172397576Y-96999189D01*
X172575240Y-96860906D01*
X172727722Y-96695268D01*
X172850860Y-96506791D01*
X172941296Y-96300616D01*
X172996564Y-96082368D01*
X173015156Y-95858000D01*
X172996564Y-95633632D01*
X172941296Y-95415384D01*
X172850860Y-95209209D01*
X172844140Y-95198924D01*
X172727724Y-95020734D01*
X172727720Y-95020729D01*
X172575237Y-94855091D01*
X172467007Y-94770852D01*
X172397576Y-94716811D01*
X172364319Y-94698813D01*
X172313929Y-94648802D01*
X172298576Y-94579485D01*
X172323136Y-94512872D01*
X172364320Y-94477186D01*
X172397576Y-94459189D01*
X172575240Y-94320906D01*
X172727722Y-94155268D01*
X172816518Y-94019354D01*
X172870520Y-93973268D01*
X172940868Y-93963692D01*
X173005225Y-93993669D01*
X173027480Y-94019353D01*
X173056778Y-94064197D01*
X173116275Y-94155265D01*
X173116279Y-94155270D01*
X173268762Y-94320908D01*
X173323331Y-94363381D01*
X173446424Y-94459189D01*
X173644426Y-94566342D01*
X173644427Y-94566342D01*
X173644428Y-94566343D01*
X173732320Y-94596516D01*
X173857365Y-94639444D01*
X174079431Y-94676500D01*
X174079435Y-94676500D01*
X174304565Y-94676500D01*
X174304569Y-94676500D01*
X174526635Y-94639444D01*
X174739574Y-94566342D01*
X174937576Y-94459189D01*
X175115240Y-94320906D01*
X175267722Y-94155268D01*
X175390860Y-93966791D01*
X175481296Y-93760616D01*
X175536564Y-93542368D01*
X175555156Y-93318000D01*
X175536564Y-93093632D01*
X175490917Y-92913375D01*
X175481297Y-92875387D01*
X175481296Y-92875386D01*
X175481296Y-92875384D01*
X175390860Y-92669209D01*
X175377083Y-92648122D01*
X175267724Y-92480734D01*
X175267720Y-92480729D01*
X175115237Y-92315091D01*
X174995367Y-92221792D01*
X174937576Y-92176811D01*
X174739574Y-92069658D01*
X174739572Y-92069657D01*
X174739571Y-92069656D01*
X174526639Y-91996557D01*
X174526630Y-91996555D01*
X174482476Y-91989187D01*
X174304569Y-91959500D01*
X174079431Y-91959500D01*
X173931211Y-91984233D01*
X173857369Y-91996555D01*
X173857360Y-91996557D01*
X173644428Y-92069656D01*
X173644426Y-92069658D01*
X173446426Y-92176810D01*
X173446424Y-92176811D01*
X173268762Y-92315091D01*
X173116279Y-92480729D01*
X173027483Y-92616643D01*
X172973479Y-92662731D01*
X172903131Y-92672306D01*
X172838774Y-92642329D01*
X172816517Y-92616643D01*
X172727720Y-92480729D01*
X172575237Y-92315091D01*
X172455367Y-92221792D01*
X172397576Y-92176811D01*
X172199574Y-92069658D01*
X172199572Y-92069657D01*
X172199571Y-92069656D01*
X171986639Y-91996557D01*
X171986630Y-91996555D01*
X171942476Y-91989187D01*
X171764569Y-91959500D01*
X171539431Y-91959500D01*
X171391211Y-91984233D01*
X171317369Y-91996555D01*
X171317360Y-91996557D01*
X171104428Y-92069656D01*
X171104426Y-92069658D01*
X170906426Y-92176810D01*
X170906424Y-92176811D01*
X170728762Y-92315091D01*
X170576279Y-92480729D01*
X170487483Y-92616643D01*
X170433479Y-92662731D01*
X170363131Y-92672306D01*
X170298774Y-92642329D01*
X170276517Y-92616643D01*
X170187720Y-92480729D01*
X170035237Y-92315091D01*
X169915367Y-92221792D01*
X169857576Y-92176811D01*
X169659574Y-92069658D01*
X169659572Y-92069657D01*
X169659571Y-92069656D01*
X169446639Y-91996557D01*
X169446630Y-91996555D01*
X169402476Y-91989187D01*
X169224569Y-91959500D01*
X168999431Y-91959500D01*
X168851211Y-91984233D01*
X168777369Y-91996555D01*
X168777360Y-91996557D01*
X168564428Y-92069656D01*
X168564426Y-92069658D01*
X168366426Y-92176810D01*
X168366424Y-92176811D01*
X168188762Y-92315091D01*
X168036279Y-92480729D01*
X168036275Y-92480734D01*
X167913141Y-92669206D01*
X167822703Y-92875386D01*
X167822702Y-92875387D01*
X167767437Y-93093624D01*
X167767436Y-93093630D01*
X167767436Y-93093632D01*
X167748844Y-93318000D01*
X167761425Y-93469830D01*
X167767437Y-93542375D01*
X167822702Y-93760612D01*
X167822703Y-93760613D01*
X167913141Y-93966793D01*
X168036275Y-94155265D01*
X168036279Y-94155270D01*
X168188762Y-94320908D01*
X168243331Y-94363381D01*
X168366424Y-94459189D01*
X168399680Y-94477186D01*
X168450071Y-94527200D01*
X168465423Y-94596516D01*
X168440862Y-94663129D01*
X168399680Y-94698813D01*
X168366426Y-94716810D01*
X168366424Y-94716811D01*
X168188762Y-94855091D01*
X168036279Y-95020729D01*
X167947483Y-95156643D01*
X167893479Y-95202731D01*
X167823131Y-95212306D01*
X167758774Y-95182329D01*
X167736517Y-95156643D01*
X167647720Y-95020729D01*
X167495237Y-94855091D01*
X167387007Y-94770852D01*
X167317576Y-94716811D01*
X167119574Y-94609658D01*
X167119572Y-94609657D01*
X167119571Y-94609656D01*
X166906639Y-94536557D01*
X166906630Y-94536555D01*
X166850567Y-94527200D01*
X166684569Y-94499500D01*
X166459431Y-94499500D01*
X166311211Y-94524233D01*
X166237369Y-94536555D01*
X166237360Y-94536557D01*
X166024428Y-94609656D01*
X166024426Y-94609658D01*
X165826432Y-94716807D01*
X165826426Y-94716810D01*
X165826424Y-94716811D01*
X165648762Y-94855091D01*
X165496279Y-95020729D01*
X165407483Y-95156643D01*
X165353479Y-95202731D01*
X165283131Y-95212306D01*
X165218774Y-95182329D01*
X165196517Y-95156643D01*
X165107720Y-95020729D01*
X164955237Y-94855091D01*
X164847007Y-94770852D01*
X164777576Y-94716811D01*
X164744319Y-94698813D01*
X164693929Y-94648802D01*
X164678576Y-94579485D01*
X164703136Y-94512872D01*
X164744320Y-94477186D01*
X164777576Y-94459189D01*
X164955240Y-94320906D01*
X165107722Y-94155268D01*
X165230860Y-93966791D01*
X165321296Y-93760616D01*
X165376564Y-93542368D01*
X165395156Y-93318000D01*
X165376564Y-93093632D01*
X165330917Y-92913375D01*
X165321297Y-92875387D01*
X165321296Y-92875386D01*
X165321296Y-92875384D01*
X165230860Y-92669209D01*
X165217083Y-92648122D01*
X165107724Y-92480734D01*
X165107720Y-92480729D01*
X164955237Y-92315091D01*
X164835367Y-92221792D01*
X164777576Y-92176811D01*
X164579574Y-92069658D01*
X164579572Y-92069657D01*
X164579571Y-92069656D01*
X164366639Y-91996557D01*
X164366630Y-91996555D01*
X164322476Y-91989187D01*
X164144569Y-91959500D01*
X163919431Y-91959500D01*
X163771211Y-91984233D01*
X163697369Y-91996555D01*
X163697360Y-91996557D01*
X163484428Y-92069656D01*
X163484426Y-92069658D01*
X163286426Y-92176810D01*
X163286424Y-92176811D01*
X163108762Y-92315091D01*
X162956279Y-92480729D01*
X162956275Y-92480734D01*
X162833141Y-92669206D01*
X162742703Y-92875386D01*
X162742702Y-92875387D01*
X162687437Y-93093624D01*
X162687436Y-93093630D01*
X162687436Y-93093632D01*
X162668844Y-93318000D01*
X162681425Y-93469830D01*
X162687437Y-93542375D01*
X162742702Y-93760612D01*
X162742703Y-93760613D01*
X162833141Y-93966793D01*
X162956275Y-94155265D01*
X162956279Y-94155270D01*
X163108762Y-94320908D01*
X163163331Y-94363381D01*
X163286424Y-94459189D01*
X163319680Y-94477186D01*
X163370071Y-94527200D01*
X163385423Y-94596516D01*
X163360862Y-94663129D01*
X163319680Y-94698813D01*
X163286426Y-94716810D01*
X163286424Y-94716811D01*
X163108762Y-94855091D01*
X162956279Y-95020729D01*
X162867483Y-95156643D01*
X162813479Y-95202731D01*
X162743131Y-95212306D01*
X162678774Y-95182329D01*
X162656517Y-95156643D01*
X162567720Y-95020729D01*
X162415237Y-94855091D01*
X162307007Y-94770852D01*
X162237576Y-94716811D01*
X162039574Y-94609658D01*
X162039572Y-94609657D01*
X162039571Y-94609656D01*
X161826639Y-94536557D01*
X161826630Y-94536555D01*
X161770567Y-94527200D01*
X161604569Y-94499500D01*
X161379431Y-94499500D01*
X161231211Y-94524233D01*
X161157369Y-94536555D01*
X161157360Y-94536557D01*
X160944428Y-94609656D01*
X160944426Y-94609658D01*
X160746432Y-94716807D01*
X160746426Y-94716810D01*
X160746424Y-94716811D01*
X160568762Y-94855091D01*
X160416279Y-95020729D01*
X160327483Y-95156643D01*
X160273479Y-95202731D01*
X160203131Y-95212306D01*
X160138774Y-95182329D01*
X160116517Y-95156643D01*
X160027720Y-95020729D01*
X159875237Y-94855091D01*
X159767007Y-94770852D01*
X159697576Y-94716811D01*
X159664319Y-94698813D01*
X159613929Y-94648802D01*
X159598576Y-94579485D01*
X159623136Y-94512872D01*
X159664320Y-94477186D01*
X159697576Y-94459189D01*
X159875240Y-94320906D01*
X160027722Y-94155268D01*
X160150860Y-93966791D01*
X160241296Y-93760616D01*
X160296564Y-93542368D01*
X160315156Y-93318000D01*
X160296564Y-93093632D01*
X160250917Y-92913375D01*
X160241297Y-92875387D01*
X160241296Y-92875386D01*
X160241296Y-92875384D01*
X160150860Y-92669209D01*
X160137083Y-92648122D01*
X160027724Y-92480734D01*
X160027720Y-92480729D01*
X159875237Y-92315091D01*
X159755367Y-92221792D01*
X159697576Y-92176811D01*
X159499574Y-92069658D01*
X159499572Y-92069657D01*
X159499571Y-92069656D01*
X159286639Y-91996557D01*
X159286630Y-91996555D01*
X159242476Y-91989187D01*
X159064569Y-91959500D01*
X158839431Y-91959500D01*
X158691211Y-91984233D01*
X158617369Y-91996555D01*
X158617360Y-91996557D01*
X158404428Y-92069656D01*
X158404426Y-92069658D01*
X158206426Y-92176810D01*
X158206424Y-92176811D01*
X158028762Y-92315091D01*
X157876279Y-92480729D01*
X157787483Y-92616643D01*
X157733479Y-92662731D01*
X157663131Y-92672306D01*
X157598774Y-92642329D01*
X157576517Y-92616643D01*
X157487720Y-92480729D01*
X157335237Y-92315091D01*
X157215367Y-92221792D01*
X157157576Y-92176811D01*
X156959574Y-92069658D01*
X156959572Y-92069657D01*
X156959571Y-92069656D01*
X156746639Y-91996557D01*
X156746630Y-91996555D01*
X156702476Y-91989187D01*
X156524569Y-91959500D01*
X156299431Y-91959500D01*
X156151211Y-91984233D01*
X156077369Y-91996555D01*
X156077360Y-91996557D01*
X155864428Y-92069656D01*
X155864426Y-92069658D01*
X155666426Y-92176810D01*
X155666424Y-92176811D01*
X155488762Y-92315091D01*
X155336279Y-92480729D01*
X155247483Y-92616643D01*
X155193479Y-92662731D01*
X155123131Y-92672306D01*
X155058774Y-92642329D01*
X155036517Y-92616643D01*
X154947720Y-92480729D01*
X154795237Y-92315091D01*
X154675367Y-92221792D01*
X154617576Y-92176811D01*
X154419574Y-92069658D01*
X154419572Y-92069657D01*
X154419571Y-92069656D01*
X154206639Y-91996557D01*
X154206630Y-91996555D01*
X154162476Y-91989187D01*
X153984569Y-91959500D01*
X153759431Y-91959500D01*
X153611211Y-91984233D01*
X153537369Y-91996555D01*
X153537360Y-91996557D01*
X153324428Y-92069656D01*
X153324426Y-92069658D01*
X153126426Y-92176810D01*
X153126424Y-92176811D01*
X152948762Y-92315091D01*
X152796279Y-92480729D01*
X152707483Y-92616643D01*
X152653479Y-92662731D01*
X152583131Y-92672306D01*
X152518774Y-92642329D01*
X152496517Y-92616643D01*
X152407720Y-92480729D01*
X152255237Y-92315091D01*
X152135367Y-92221792D01*
X152077576Y-92176811D01*
X151879574Y-92069658D01*
X151879572Y-92069657D01*
X151879571Y-92069656D01*
X151666639Y-91996557D01*
X151666630Y-91996555D01*
X151622476Y-91989187D01*
X151444569Y-91959500D01*
X151219431Y-91959500D01*
X151071211Y-91984233D01*
X150997369Y-91996555D01*
X150997360Y-91996557D01*
X150784428Y-92069656D01*
X150784426Y-92069658D01*
X150586426Y-92176810D01*
X150586424Y-92176811D01*
X150408762Y-92315091D01*
X150256279Y-92480729D01*
X150256275Y-92480734D01*
X150133141Y-92669206D01*
X150042703Y-92875386D01*
X150042702Y-92875387D01*
X149987437Y-93093624D01*
X149987436Y-93093630D01*
X149987436Y-93093632D01*
X149968844Y-93318000D01*
X149981425Y-93469830D01*
X149987437Y-93542375D01*
X150042702Y-93760612D01*
X150042703Y-93760613D01*
X150133141Y-93966793D01*
X150256275Y-94155265D01*
X150256279Y-94155270D01*
X150408762Y-94320908D01*
X150463331Y-94363381D01*
X150586424Y-94459189D01*
X150619680Y-94477186D01*
X150670071Y-94527200D01*
X150685423Y-94596516D01*
X150660862Y-94663129D01*
X150619680Y-94698813D01*
X150586426Y-94716810D01*
X150586424Y-94716811D01*
X150408762Y-94855091D01*
X150256279Y-95020729D01*
X150167483Y-95156643D01*
X150113479Y-95202731D01*
X150043131Y-95212306D01*
X149978774Y-95182329D01*
X149956517Y-95156643D01*
X149867720Y-95020729D01*
X149715237Y-94855091D01*
X149607007Y-94770852D01*
X149537576Y-94716811D01*
X149339574Y-94609658D01*
X149339572Y-94609657D01*
X149339571Y-94609656D01*
X149126639Y-94536557D01*
X149126630Y-94536555D01*
X149070567Y-94527200D01*
X148904569Y-94499500D01*
X148679431Y-94499500D01*
X148531211Y-94524233D01*
X148457369Y-94536555D01*
X148457360Y-94536557D01*
X148244428Y-94609656D01*
X148244426Y-94609658D01*
X148046432Y-94716807D01*
X148046426Y-94716810D01*
X148046424Y-94716811D01*
X147868762Y-94855091D01*
X147716279Y-95020729D01*
X147627483Y-95156643D01*
X147573479Y-95202731D01*
X147503131Y-95212306D01*
X147438774Y-95182329D01*
X147416517Y-95156643D01*
X147327720Y-95020729D01*
X147175237Y-94855091D01*
X147067007Y-94770852D01*
X146997576Y-94716811D01*
X146964319Y-94698813D01*
X146913929Y-94648802D01*
X146898576Y-94579485D01*
X146923136Y-94512872D01*
X146964320Y-94477186D01*
X146997576Y-94459189D01*
X147175240Y-94320906D01*
X147327722Y-94155268D01*
X147450860Y-93966791D01*
X147541296Y-93760616D01*
X147596564Y-93542368D01*
X147615156Y-93318000D01*
X147596564Y-93093632D01*
X147550917Y-92913375D01*
X147541297Y-92875387D01*
X147541296Y-92875386D01*
X147541296Y-92875384D01*
X147450860Y-92669209D01*
X147437083Y-92648122D01*
X147327724Y-92480734D01*
X147327720Y-92480729D01*
X147175237Y-92315091D01*
X147055367Y-92221792D01*
X146997576Y-92176811D01*
X146799574Y-92069658D01*
X146799572Y-92069657D01*
X146799571Y-92069656D01*
X146586639Y-91996557D01*
X146586630Y-91996555D01*
X146542476Y-91989187D01*
X146364569Y-91959500D01*
X146139431Y-91959500D01*
X145991211Y-91984233D01*
X145917369Y-91996555D01*
X145917360Y-91996557D01*
X145704428Y-92069656D01*
X145704426Y-92069658D01*
X145506426Y-92176810D01*
X145506424Y-92176811D01*
X145328762Y-92315091D01*
X145176279Y-92480729D01*
X145087483Y-92616643D01*
X145033479Y-92662731D01*
X144963131Y-92672306D01*
X144898774Y-92642329D01*
X144876517Y-92616643D01*
X144787720Y-92480729D01*
X144635237Y-92315091D01*
X144515367Y-92221792D01*
X144457576Y-92176811D01*
X144259574Y-92069658D01*
X144259572Y-92069657D01*
X144259571Y-92069656D01*
X144046639Y-91996557D01*
X144046630Y-91996555D01*
X144002476Y-91989187D01*
X143824569Y-91959500D01*
X143599431Y-91959500D01*
X143451211Y-91984233D01*
X143377369Y-91996555D01*
X143377360Y-91996557D01*
X143164428Y-92069656D01*
X143164426Y-92069658D01*
X142966426Y-92176810D01*
X142966424Y-92176811D01*
X142788762Y-92315091D01*
X142636279Y-92480729D01*
X142636275Y-92480734D01*
X142513141Y-92669206D01*
X142422703Y-92875386D01*
X142422702Y-92875387D01*
X142367437Y-93093624D01*
X142367436Y-93093630D01*
X142367436Y-93093632D01*
X142348844Y-93318000D01*
X142361425Y-93469830D01*
X142367437Y-93542375D01*
X142422702Y-93760612D01*
X142422703Y-93760613D01*
X142513141Y-93966793D01*
X142636275Y-94155265D01*
X142636279Y-94155270D01*
X142788762Y-94320908D01*
X142843331Y-94363381D01*
X142966424Y-94459189D01*
X142999680Y-94477186D01*
X143050071Y-94527200D01*
X143065423Y-94596516D01*
X143040862Y-94663129D01*
X142999680Y-94698813D01*
X142966426Y-94716810D01*
X142966424Y-94716811D01*
X142788762Y-94855091D01*
X142636279Y-95020729D01*
X142547483Y-95156643D01*
X142493479Y-95202731D01*
X142423131Y-95212306D01*
X142358774Y-95182329D01*
X142336517Y-95156643D01*
X142247720Y-95020729D01*
X142095237Y-94855091D01*
X141987007Y-94770852D01*
X141917576Y-94716811D01*
X141719574Y-94609658D01*
X141719572Y-94609657D01*
X141719571Y-94609656D01*
X141506639Y-94536557D01*
X141506630Y-94536555D01*
X141450567Y-94527200D01*
X141284569Y-94499500D01*
X141059431Y-94499500D01*
X140911211Y-94524233D01*
X140837369Y-94536555D01*
X140837360Y-94536557D01*
X140624428Y-94609656D01*
X140624426Y-94609658D01*
X140426432Y-94716807D01*
X140426426Y-94716810D01*
X140426424Y-94716811D01*
X140248762Y-94855091D01*
X140096279Y-95020729D01*
X140007483Y-95156643D01*
X139953479Y-95202731D01*
X139883131Y-95212306D01*
X139818774Y-95182329D01*
X139796517Y-95156643D01*
X139707720Y-95020729D01*
X139555237Y-94855091D01*
X139447007Y-94770852D01*
X139377576Y-94716811D01*
X139344319Y-94698813D01*
X139293929Y-94648802D01*
X139278576Y-94579485D01*
X139303136Y-94512872D01*
X139344320Y-94477186D01*
X139377576Y-94459189D01*
X139555240Y-94320906D01*
X139707722Y-94155268D01*
X139830860Y-93966791D01*
X139921296Y-93760616D01*
X139976564Y-93542368D01*
X139995156Y-93318000D01*
X139976564Y-93093632D01*
X139930917Y-92913375D01*
X139921297Y-92875387D01*
X139921296Y-92875386D01*
X139921296Y-92875384D01*
X139830860Y-92669209D01*
X139817083Y-92648122D01*
X139707724Y-92480734D01*
X139707720Y-92480729D01*
X139555237Y-92315091D01*
X139435367Y-92221792D01*
X139377576Y-92176811D01*
X139179574Y-92069658D01*
X139179572Y-92069657D01*
X139179571Y-92069656D01*
X138966639Y-91996557D01*
X138966630Y-91996555D01*
X138922476Y-91989187D01*
X138744569Y-91959500D01*
X138519431Y-91959500D01*
X138371211Y-91984233D01*
X138297369Y-91996555D01*
X138297360Y-91996557D01*
X138084428Y-92069656D01*
X138084426Y-92069658D01*
X137886426Y-92176810D01*
X137886424Y-92176811D01*
X137708762Y-92315091D01*
X137556279Y-92480729D01*
X137467483Y-92616643D01*
X137413479Y-92662731D01*
X137343131Y-92672306D01*
X137278774Y-92642329D01*
X137256517Y-92616643D01*
X137167720Y-92480729D01*
X137015237Y-92315091D01*
X136895367Y-92221792D01*
X136837576Y-92176811D01*
X136639574Y-92069658D01*
X136639572Y-92069657D01*
X136639571Y-92069656D01*
X136426639Y-91996557D01*
X136426630Y-91996555D01*
X136382476Y-91989187D01*
X136204569Y-91959500D01*
X135979431Y-91959500D01*
X135831211Y-91984233D01*
X135757369Y-91996555D01*
X135757360Y-91996557D01*
X135544428Y-92069656D01*
X135544426Y-92069658D01*
X135346426Y-92176810D01*
X135346424Y-92176811D01*
X135168762Y-92315091D01*
X135016279Y-92480729D01*
X134927483Y-92616643D01*
X134873479Y-92662731D01*
X134803131Y-92672306D01*
X134738774Y-92642329D01*
X134716517Y-92616643D01*
X134627720Y-92480729D01*
X134475237Y-92315091D01*
X134355367Y-92221792D01*
X134297576Y-92176811D01*
X134099574Y-92069658D01*
X134099572Y-92069657D01*
X134099571Y-92069656D01*
X133886639Y-91996557D01*
X133886630Y-91996555D01*
X133842476Y-91989187D01*
X133664569Y-91959500D01*
X133439431Y-91959500D01*
X133291211Y-91984233D01*
X133217369Y-91996555D01*
X133217360Y-91996557D01*
X133004428Y-92069656D01*
X133004426Y-92069658D01*
X132806426Y-92176810D01*
X132806424Y-92176811D01*
X132628762Y-92315091D01*
X132476279Y-92480729D01*
X132476275Y-92480734D01*
X132353141Y-92669206D01*
X132262703Y-92875386D01*
X132262702Y-92875387D01*
X132207437Y-93093624D01*
X132207436Y-93093630D01*
X132207436Y-93093632D01*
X132188844Y-93318000D01*
X132201425Y-93469830D01*
X132207437Y-93542375D01*
X132262702Y-93760612D01*
X132262703Y-93760613D01*
X132353141Y-93966793D01*
X132476275Y-94155265D01*
X132476279Y-94155270D01*
X132628762Y-94320908D01*
X132683331Y-94363381D01*
X132806424Y-94459189D01*
X132839680Y-94477186D01*
X132890071Y-94527200D01*
X132905423Y-94596516D01*
X132880862Y-94663129D01*
X132839680Y-94698813D01*
X132806426Y-94716810D01*
X132806424Y-94716811D01*
X132628762Y-94855091D01*
X132476279Y-95020729D01*
X132387483Y-95156643D01*
X132333479Y-95202731D01*
X132263131Y-95212306D01*
X132198774Y-95182329D01*
X132176517Y-95156643D01*
X132087720Y-95020729D01*
X131935237Y-94855091D01*
X131827007Y-94770852D01*
X131757576Y-94716811D01*
X131559574Y-94609658D01*
X131559572Y-94609657D01*
X131559571Y-94609656D01*
X131346639Y-94536557D01*
X131346630Y-94536555D01*
X131290567Y-94527200D01*
X131124569Y-94499500D01*
X130899431Y-94499500D01*
X130751211Y-94524233D01*
X130677369Y-94536555D01*
X130677360Y-94536557D01*
X130464428Y-94609656D01*
X130464426Y-94609658D01*
X130266432Y-94716807D01*
X130266426Y-94716810D01*
X130266424Y-94716811D01*
X130088762Y-94855091D01*
X129936279Y-95020729D01*
X129847483Y-95156643D01*
X129793479Y-95202731D01*
X129723131Y-95212306D01*
X129658774Y-95182329D01*
X129636517Y-95156643D01*
X129547720Y-95020729D01*
X129404524Y-94865179D01*
X129373103Y-94801514D01*
X129381090Y-94730968D01*
X129425948Y-94675939D01*
X129453183Y-94661789D01*
X129568204Y-94618889D01*
X129620842Y-94579485D01*
X129685261Y-94531261D01*
X129772887Y-94414207D01*
X129772887Y-94414206D01*
X129772889Y-94414204D01*
X129823989Y-94277201D01*
X129825977Y-94258716D01*
X129830499Y-94216649D01*
X129830500Y-94216632D01*
X129830500Y-92419367D01*
X129830499Y-92419350D01*
X129823990Y-92358803D01*
X129823988Y-92358795D01*
X129772889Y-92221797D01*
X129772887Y-92221792D01*
X129685261Y-92104738D01*
X129568207Y-92017112D01*
X129568202Y-92017110D01*
X129431204Y-91966011D01*
X129431196Y-91966009D01*
X129370649Y-91959500D01*
X129370638Y-91959500D01*
X127573362Y-91959500D01*
X127573350Y-91959500D01*
X127512803Y-91966009D01*
X127512795Y-91966011D01*
X127375797Y-92017110D01*
X127375792Y-92017112D01*
X127277509Y-92090687D01*
X127210989Y-92115498D01*
X127141615Y-92100407D01*
X127126491Y-92090687D01*
X127028207Y-92017112D01*
X127028202Y-92017110D01*
X126891204Y-91966011D01*
X126891196Y-91966009D01*
X126830649Y-91959500D01*
X126830638Y-91959500D01*
X125033362Y-91959500D01*
X125033350Y-91959500D01*
X124972803Y-91966009D01*
X124972795Y-91966011D01*
X124835797Y-92017110D01*
X124835792Y-92017112D01*
X124718738Y-92104738D01*
X124631112Y-92221792D01*
X124631110Y-92221797D01*
X124580011Y-92358795D01*
X124580009Y-92358803D01*
X124573500Y-92419350D01*
X124573500Y-93551629D01*
X124553498Y-93619750D01*
X124536595Y-93640724D01*
X124042838Y-94134480D01*
X124042833Y-94134486D01*
X123959826Y-94258715D01*
X123911530Y-94375314D01*
X123902650Y-94396750D01*
X123902649Y-94396754D01*
X123873500Y-94543290D01*
X123873500Y-101558500D01*
X123853498Y-101626621D01*
X123799842Y-101673114D01*
X123747500Y-101684500D01*
X121954178Y-101684500D01*
X121886057Y-101664498D01*
X121865083Y-101647595D01*
X121742393Y-101524905D01*
X121742387Y-101524900D01*
X121597692Y-101435651D01*
X121436314Y-101382176D01*
X121436311Y-101382175D01*
X121436309Y-101382175D01*
X121336719Y-101372000D01*
X120727289Y-101372000D01*
X120627690Y-101382175D01*
X120627687Y-101382175D01*
X120627686Y-101382176D01*
X120547723Y-101408672D01*
X120466307Y-101435651D01*
X120321612Y-101524900D01*
X120321606Y-101524905D01*
X120201405Y-101645106D01*
X120201400Y-101645112D01*
X120112151Y-101789807D01*
X120102626Y-101818553D01*
X120062439Y-101939832D01*
X120058675Y-101951190D01*
X120048500Y-102050780D01*
X120048500Y-102585210D01*
X120057026Y-102668664D01*
X120058676Y-102684814D01*
X120086612Y-102769119D01*
X120112151Y-102846192D01*
X120201400Y-102990887D01*
X120201405Y-102990893D01*
X120226917Y-103016405D01*
X120260943Y-103078717D01*
X120255878Y-103149532D01*
X120226917Y-103194595D01*
X120201405Y-103220106D01*
X120201400Y-103220112D01*
X120112151Y-103364807D01*
X120058675Y-103526190D01*
X120048500Y-103625780D01*
X120048500Y-104160210D01*
X120056912Y-104242547D01*
X120058676Y-104259814D01*
X120077957Y-104318000D01*
X120112151Y-104421192D01*
X120201400Y-104565887D01*
X120201405Y-104565893D01*
X120290175Y-104654663D01*
X120324201Y-104716975D01*
X120319136Y-104787790D01*
X120290175Y-104832853D01*
X120195188Y-104927839D01*
X120195184Y-104927844D01*
X120106172Y-105075088D01*
X120106170Y-105075093D01*
X120054986Y-105239353D01*
X120048500Y-105310737D01*
X120048500Y-105825261D01*
X120054986Y-105896646D01*
X120054986Y-105896647D01*
X120106170Y-106060906D01*
X120106172Y-106060911D01*
X120195184Y-106208155D01*
X120195188Y-106208160D01*
X120316839Y-106329811D01*
X120316844Y-106329815D01*
X120316845Y-106329816D01*
X120464087Y-106418827D01*
X120628351Y-106470013D01*
X120699735Y-106476500D01*
X121364264Y-106476499D01*
X121435649Y-106470013D01*
X121599913Y-106418827D01*
X121747155Y-106329816D01*
X121868816Y-106208155D01*
X121957827Y-106060913D01*
X122009013Y-105896649D01*
X122015500Y-105825265D01*
X122015499Y-105310736D01*
X122009013Y-105239351D01*
X121957827Y-105075087D01*
X121868816Y-104927845D01*
X121868815Y-104927844D01*
X121868811Y-104927839D01*
X121773825Y-104832853D01*
X121739799Y-104770541D01*
X121744864Y-104699726D01*
X121773825Y-104654663D01*
X121862594Y-104565893D01*
X121862600Y-104565887D01*
X121951849Y-104421192D01*
X122005324Y-104259814D01*
X122015500Y-104160211D01*
X122015499Y-103625790D01*
X122005324Y-103526186D01*
X121951849Y-103364808D01*
X121862600Y-103220113D01*
X121837081Y-103194594D01*
X121803057Y-103132285D01*
X121808121Y-103061469D01*
X121837081Y-103016405D01*
X121862600Y-102990887D01*
X121862600Y-102990886D01*
X121865084Y-102988403D01*
X121927397Y-102954379D01*
X121954178Y-102951500D01*
X123747500Y-102951500D01*
X123815621Y-102971502D01*
X123862114Y-103025158D01*
X123873500Y-103077500D01*
X123873500Y-105861629D01*
X123853498Y-105929750D01*
X123836595Y-105950724D01*
X120414724Y-109372595D01*
X120352412Y-109406621D01*
X120325629Y-109409500D01*
X119133350Y-109409500D01*
X119072803Y-109416009D01*
X119072795Y-109416011D01*
X118935797Y-109467110D01*
X118935792Y-109467112D01*
X118818738Y-109554738D01*
X118731112Y-109671792D01*
X118731110Y-109671797D01*
X118680011Y-109808795D01*
X118680009Y-109808803D01*
X118673500Y-109869350D01*
X118032500Y-109869350D01*
X118032500Y-94071805D01*
X118032730Y-94064198D01*
X118048432Y-93804606D01*
X118050264Y-93774313D01*
X118052095Y-93759236D01*
X118103759Y-93477313D01*
X118107392Y-93462573D01*
X118192665Y-93188922D01*
X118198052Y-93174721D01*
X118315678Y-92913366D01*
X118322736Y-92899916D01*
X118471021Y-92654624D01*
X118479637Y-92642140D01*
X118656411Y-92416505D01*
X118666479Y-92405142D01*
X118869142Y-92202479D01*
X118880505Y-92192411D01*
X119106140Y-92015637D01*
X119118624Y-92007021D01*
X119363916Y-91858736D01*
X119377366Y-91851678D01*
X119638721Y-91734052D01*
X119652922Y-91728665D01*
X119926573Y-91643392D01*
X119941313Y-91639759D01*
X120223236Y-91588095D01*
X120238313Y-91586264D01*
X120500890Y-91570381D01*
X120528199Y-91568730D01*
X120535806Y-91568500D01*
X120597892Y-91568500D01*
X179466108Y-91568500D01*
X179528194Y-91568500D01*
X179535801Y-91568730D01*
G37*
G04 #@! TD.AperFunction*
G04 #@! TA.AperFunction,Conductor*
G36*
X175025039Y-117187685D02*
G01*
X175070794Y-117240489D01*
X175082000Y-117292000D01*
X175082000Y-121568000D01*
X175081999Y-121568000D01*
X176624648Y-122061647D01*
X178745793Y-122740413D01*
X178803643Y-122779593D01*
X178831128Y-122843830D01*
X178832000Y-122858514D01*
X178832000Y-126644000D01*
X178812315Y-126711039D01*
X178759511Y-126756794D01*
X178708000Y-126768000D01*
X172356000Y-126768000D01*
X172288961Y-126748315D01*
X172243206Y-126695511D01*
X172232000Y-126644000D01*
X172232000Y-117292000D01*
X172251685Y-117224961D01*
X172304489Y-117179206D01*
X172356000Y-117168000D01*
X174958000Y-117168000D01*
X175025039Y-117187685D01*
G37*
G04 #@! TD.AperFunction*
M02*
