G04 #@! TF.GenerationSoftware,KiCad,Pcbnew,8.0.6*
G04 #@! TF.CreationDate,2024-11-30T08:29:55-08:00*
G04 #@! TF.ProjectId,pi-zero-serial-hat,70692d7a-6572-46f2-9d73-657269616c2d,1.0*
G04 #@! TF.SameCoordinates,Original*
G04 #@! TF.FileFunction,Legend,Top*
G04 #@! TF.FilePolarity,Positive*
%FSLAX46Y46*%
G04 Gerber Fmt 4.6, Leading zero omitted, Abs format (unit mm)*
G04 Created by KiCad (PCBNEW 8.0.6) date 2024-11-30 08:29:55*
%MOMM*%
%LPD*%
G01*
G04 APERTURE LIST*
%ADD10C,0.120000*%
%ADD11C,0.150000*%
%ADD12C,0.125000*%
%ADD13C,0.100000*%
%ADD14C,0.152400*%
%ADD15C,0.127000*%
%ADD16C,0.200000*%
G04 APERTURE END LIST*
D10*
G36*
X121330915Y-113235343D02*
G01*
X121352111Y-113256540D01*
X121379518Y-113311353D01*
X121379518Y-113397309D01*
X121352111Y-113452121D01*
X121327785Y-113476448D01*
X121272972Y-113503855D01*
X121042375Y-113503855D01*
X121042375Y-113204807D01*
X121239304Y-113204807D01*
X121330915Y-113235343D01*
G37*
G36*
X121289691Y-112851262D02*
G01*
X121314014Y-112875585D01*
X121341422Y-112930400D01*
X121341422Y-112978261D01*
X121314014Y-113033076D01*
X121289691Y-113057399D01*
X121234876Y-113084807D01*
X121042375Y-113084807D01*
X121042375Y-112823855D01*
X121234876Y-112823855D01*
X121289691Y-112851262D01*
G37*
G36*
X120556272Y-113275283D02*
G01*
X120341811Y-113275283D01*
X120449041Y-112953592D01*
X120556272Y-113275283D01*
G37*
G36*
X125397931Y-113979410D02*
G01*
X118090629Y-113979410D01*
X118090629Y-112687664D01*
X118179518Y-112687664D01*
X118179518Y-113830521D01*
X118184085Y-113853482D01*
X118216557Y-113885954D01*
X118239518Y-113890521D01*
X118429994Y-113890521D01*
X118452955Y-113885954D01*
X118485427Y-113853482D01*
X118485427Y-113807560D01*
X118452955Y-113775088D01*
X118429994Y-113770521D01*
X118299518Y-113770521D01*
X118299518Y-112763855D01*
X118674756Y-112763855D01*
X118674756Y-113563855D01*
X118679323Y-113586816D01*
X118711795Y-113619288D01*
X118734756Y-113623855D01*
X119115708Y-113623855D01*
X119138669Y-113619288D01*
X119171141Y-113586816D01*
X119171141Y-113540894D01*
X119138669Y-113508422D01*
X119115708Y-113503855D01*
X118794756Y-113503855D01*
X118794756Y-113204807D01*
X119001422Y-113204807D01*
X119024383Y-113200240D01*
X119056855Y-113167768D01*
X119056855Y-113121846D01*
X119024383Y-113089374D01*
X119001422Y-113084807D01*
X118794756Y-113084807D01*
X118794756Y-112823855D01*
X119115708Y-112823855D01*
X119138669Y-112819288D01*
X119171141Y-112786816D01*
X119171141Y-112763855D01*
X119398566Y-112763855D01*
X119398566Y-113563855D01*
X119403133Y-113586816D01*
X119435605Y-113619288D01*
X119481527Y-113619288D01*
X119513999Y-113586816D01*
X119518566Y-113563855D01*
X119518566Y-112989789D01*
X119863614Y-113593623D01*
X119878972Y-113611293D01*
X119886920Y-113613460D01*
X119892748Y-113619288D01*
X119908287Y-113619288D01*
X119923276Y-113623376D01*
X119930430Y-113619288D01*
X119938670Y-113619288D01*
X119949656Y-113608301D01*
X119963147Y-113600593D01*
X119965315Y-113592642D01*
X119971142Y-113586816D01*
X119974863Y-113568108D01*
X120122526Y-113568108D01*
X120143063Y-113609182D01*
X120186628Y-113623704D01*
X120227702Y-113603167D01*
X120239296Y-113582829D01*
X120301811Y-113395283D01*
X120596272Y-113395283D01*
X120658787Y-113582829D01*
X120670381Y-113603167D01*
X120711455Y-113623704D01*
X120755020Y-113609183D01*
X120775557Y-113568108D01*
X120772629Y-113544882D01*
X120512288Y-112763855D01*
X120922375Y-112763855D01*
X120922375Y-113563855D01*
X120926942Y-113586816D01*
X120959414Y-113619288D01*
X120982375Y-113623855D01*
X121287137Y-113623855D01*
X121290084Y-113623268D01*
X121291390Y-113623704D01*
X121300665Y-113621164D01*
X121310098Y-113619288D01*
X121311071Y-113618314D01*
X121313970Y-113617521D01*
X121390160Y-113579426D01*
X121397755Y-113573530D01*
X121405754Y-113568186D01*
X121443849Y-113530090D01*
X121449193Y-113522090D01*
X121455087Y-113514497D01*
X121493183Y-113438308D01*
X121493976Y-113435409D01*
X121494951Y-113434435D01*
X121496827Y-113425000D01*
X121499367Y-113415728D01*
X121498931Y-113414421D01*
X121499518Y-113411474D01*
X121499518Y-113297188D01*
X121498931Y-113294240D01*
X121499367Y-113292934D01*
X121496827Y-113283661D01*
X121494951Y-113274227D01*
X121493976Y-113273252D01*
X121493183Y-113270354D01*
X121455087Y-113194165D01*
X121449193Y-113186571D01*
X121443849Y-113178572D01*
X121405754Y-113140476D01*
X121403255Y-113138806D01*
X121402639Y-113137574D01*
X121394284Y-113132811D01*
X121388110Y-113128686D01*
X121405753Y-113111044D01*
X121411095Y-113103049D01*
X121416993Y-113095450D01*
X121455088Y-113019258D01*
X121455881Y-113016360D01*
X121456855Y-113015387D01*
X121458731Y-113005952D01*
X121461271Y-112996679D01*
X121460835Y-112995373D01*
X121461422Y-112992426D01*
X121461422Y-112916236D01*
X121460835Y-112913288D01*
X121461271Y-112911983D01*
X121458731Y-112902709D01*
X121456855Y-112893275D01*
X121455881Y-112892301D01*
X121455088Y-112889404D01*
X121416993Y-112813212D01*
X121411095Y-112805612D01*
X121405753Y-112797618D01*
X121371989Y-112763855D01*
X121722375Y-112763855D01*
X121722375Y-113563855D01*
X121726942Y-113586816D01*
X121759414Y-113619288D01*
X121782375Y-113623855D01*
X122163327Y-113623855D01*
X122186288Y-113619288D01*
X122218760Y-113586816D01*
X122218760Y-113540894D01*
X122186288Y-113508422D01*
X122163327Y-113503855D01*
X121842375Y-113503855D01*
X121842375Y-112763855D01*
X122369994Y-112763855D01*
X122369994Y-113563855D01*
X122374561Y-113586816D01*
X122407033Y-113619288D01*
X122429994Y-113623855D01*
X122810946Y-113623855D01*
X122833907Y-113619288D01*
X122866379Y-113586816D01*
X122866379Y-113540894D01*
X122833907Y-113508422D01*
X122810946Y-113503855D01*
X122489994Y-113503855D01*
X122489994Y-113204807D01*
X122696660Y-113204807D01*
X122719621Y-113200240D01*
X122752093Y-113167768D01*
X122752093Y-113138837D01*
X123665530Y-113138837D01*
X123667789Y-113162138D01*
X123669799Y-113164594D01*
X123669799Y-113167767D01*
X123684079Y-113182047D01*
X123696869Y-113197680D01*
X123700025Y-113197995D01*
X123702270Y-113200240D01*
X123722466Y-113200240D01*
X123742563Y-113202250D01*
X123745020Y-113200240D01*
X123748192Y-113200240D01*
X123767658Y-113187234D01*
X123798868Y-113156024D01*
X123853683Y-113128617D01*
X124015829Y-113128617D01*
X124070644Y-113156024D01*
X124094967Y-113180347D01*
X124122375Y-113235162D01*
X124122375Y-113397309D01*
X124094967Y-113452123D01*
X124070642Y-113476448D01*
X124015829Y-113503855D01*
X123853683Y-113503855D01*
X123798867Y-113476447D01*
X123767658Y-113445238D01*
X123748193Y-113432231D01*
X123702271Y-113432231D01*
X123669799Y-113464703D01*
X123669799Y-113510625D01*
X123682806Y-113530090D01*
X123720902Y-113568186D01*
X123728893Y-113573525D01*
X123736495Y-113579426D01*
X123812685Y-113617521D01*
X123815583Y-113618314D01*
X123816557Y-113619288D01*
X123825989Y-113621164D01*
X123835265Y-113623704D01*
X123836570Y-113623268D01*
X123839518Y-113623855D01*
X124029994Y-113623855D01*
X124032941Y-113623268D01*
X124034247Y-113623704D01*
X124043522Y-113621164D01*
X124052955Y-113619288D01*
X124053928Y-113618314D01*
X124056827Y-113617521D01*
X124133018Y-113579426D01*
X124140617Y-113573528D01*
X124148612Y-113568186D01*
X124186707Y-113530090D01*
X124192050Y-113522093D01*
X124197946Y-113514497D01*
X124236041Y-113438307D01*
X124236834Y-113435408D01*
X124237808Y-113434435D01*
X124239684Y-113425002D01*
X124242224Y-113415727D01*
X124241788Y-113414421D01*
X124242375Y-113411474D01*
X124242375Y-113220998D01*
X124241788Y-113218050D01*
X124242224Y-113216745D01*
X124239684Y-113207471D01*
X124237808Y-113198037D01*
X124236834Y-113197063D01*
X124236041Y-113194166D01*
X124197946Y-113117974D01*
X124192048Y-113110374D01*
X124186706Y-113102380D01*
X124148611Y-113064286D01*
X124140623Y-113058948D01*
X124133018Y-113053046D01*
X124082009Y-113027542D01*
X124389116Y-113027542D01*
X124392537Y-113050701D01*
X124583013Y-113584035D01*
X124595037Y-113604122D01*
X124597895Y-113605475D01*
X124599250Y-113608336D01*
X124618282Y-113615133D01*
X124636539Y-113623781D01*
X124639517Y-113622717D01*
X124642497Y-113623781D01*
X124660758Y-113615131D01*
X124679785Y-113608336D01*
X124681138Y-113605477D01*
X124683999Y-113604123D01*
X124696022Y-113584035D01*
X124886499Y-113050702D01*
X124889921Y-113027542D01*
X124870262Y-112986040D01*
X124827016Y-112970595D01*
X124785514Y-112990254D01*
X124773490Y-113010341D01*
X124639518Y-113385462D01*
X124505547Y-113010341D01*
X124493523Y-112990254D01*
X124452021Y-112970595D01*
X124408775Y-112986040D01*
X124389116Y-113027542D01*
X124082009Y-113027542D01*
X124056827Y-113014951D01*
X124053928Y-113014157D01*
X124052955Y-113013184D01*
X124043522Y-113011307D01*
X124034247Y-113008768D01*
X124032941Y-113009203D01*
X124029994Y-113008617D01*
X123839518Y-113008617D01*
X123836570Y-113009203D01*
X123835265Y-113008768D01*
X123825989Y-113011307D01*
X123816557Y-113013184D01*
X123815583Y-113014157D01*
X123812685Y-113014951D01*
X123797771Y-113022407D01*
X123817627Y-112823855D01*
X124144280Y-112823855D01*
X124167241Y-112819288D01*
X124199713Y-112786816D01*
X124199713Y-112740894D01*
X124167241Y-112708422D01*
X124144280Y-112703855D01*
X123763328Y-112703855D01*
X123748975Y-112706709D01*
X123745997Y-112706412D01*
X123744559Y-112707588D01*
X123740367Y-112708422D01*
X123726086Y-112722702D01*
X123710455Y-112735492D01*
X123709208Y-112739580D01*
X123707895Y-112740894D01*
X123707895Y-112743886D01*
X123703626Y-112757885D01*
X123665530Y-113138837D01*
X122752093Y-113138837D01*
X122752093Y-113121846D01*
X122719621Y-113089374D01*
X122696660Y-113084807D01*
X122489994Y-113084807D01*
X122489994Y-112823855D01*
X122810946Y-112823855D01*
X122833907Y-112819288D01*
X122866379Y-112786816D01*
X122866379Y-112740894D01*
X122833907Y-112708422D01*
X122810946Y-112703855D01*
X122429994Y-112703855D01*
X122407033Y-112708422D01*
X122374561Y-112740894D01*
X122369994Y-112763855D01*
X121842375Y-112763855D01*
X121837808Y-112740894D01*
X121805336Y-112708422D01*
X121759414Y-112708422D01*
X121726942Y-112740894D01*
X121722375Y-112763855D01*
X121371989Y-112763855D01*
X121367658Y-112759524D01*
X121359670Y-112754186D01*
X121352065Y-112748284D01*
X121275874Y-112710189D01*
X121272975Y-112709395D01*
X121272002Y-112708422D01*
X121262569Y-112706545D01*
X121253294Y-112704006D01*
X121251988Y-112704441D01*
X121249041Y-112703855D01*
X120982375Y-112703855D01*
X120959414Y-112708422D01*
X120926942Y-112740894D01*
X120922375Y-112763855D01*
X120512288Y-112763855D01*
X120505963Y-112744881D01*
X120494369Y-112724543D01*
X120490359Y-112722538D01*
X120488354Y-112718528D01*
X120470308Y-112712512D01*
X120453295Y-112704006D01*
X120449042Y-112705423D01*
X120444789Y-112704006D01*
X120427775Y-112712512D01*
X120409730Y-112718528D01*
X120407725Y-112722538D01*
X120403715Y-112724543D01*
X120392121Y-112744881D01*
X120125454Y-113544881D01*
X120122526Y-113568108D01*
X119974863Y-113568108D01*
X119975709Y-113563855D01*
X119975709Y-112763855D01*
X119971142Y-112740894D01*
X119938670Y-112708422D01*
X119892748Y-112708422D01*
X119860276Y-112740894D01*
X119855709Y-112763855D01*
X119855709Y-113337920D01*
X119510661Y-112734087D01*
X119495303Y-112716417D01*
X119487354Y-112714249D01*
X119481527Y-112708422D01*
X119465988Y-112708422D01*
X119450999Y-112704334D01*
X119443845Y-112708422D01*
X119435605Y-112708422D01*
X119424617Y-112719409D01*
X119411128Y-112727118D01*
X119408960Y-112735066D01*
X119403133Y-112740894D01*
X119398566Y-112763855D01*
X119171141Y-112763855D01*
X119171141Y-112740894D01*
X119138669Y-112708422D01*
X119115708Y-112703855D01*
X118734756Y-112703855D01*
X118711795Y-112708422D01*
X118679323Y-112740894D01*
X118674756Y-112763855D01*
X118299518Y-112763855D01*
X118299518Y-112747664D01*
X118429994Y-112747664D01*
X118452955Y-112743097D01*
X118485427Y-112710625D01*
X118485427Y-112664703D01*
X125003133Y-112664703D01*
X125003133Y-112710625D01*
X125035605Y-112743097D01*
X125058566Y-112747664D01*
X125189042Y-112747664D01*
X125189042Y-113770521D01*
X125058566Y-113770521D01*
X125035605Y-113775088D01*
X125003133Y-113807560D01*
X125003133Y-113853482D01*
X125035605Y-113885954D01*
X125058566Y-113890521D01*
X125249042Y-113890521D01*
X125272003Y-113885954D01*
X125304475Y-113853482D01*
X125309042Y-113830521D01*
X125309042Y-112687664D01*
X125304475Y-112664703D01*
X125272003Y-112632231D01*
X125249042Y-112627664D01*
X125058566Y-112627664D01*
X125035605Y-112632231D01*
X125003133Y-112664703D01*
X118485427Y-112664703D01*
X118452955Y-112632231D01*
X118429994Y-112627664D01*
X118239518Y-112627664D01*
X118216557Y-112632231D01*
X118184085Y-112664703D01*
X118179518Y-112687664D01*
X118090629Y-112687664D01*
X118090629Y-112538775D01*
X125397931Y-112538775D01*
X125397931Y-113979410D01*
G37*
D11*
X142432000Y-98968000D02*
X137332000Y-98968000D01*
X137332000Y-98968000D02*
X137332000Y-96568000D01*
X142432000Y-96568000D02*
X142432000Y-98968000D01*
X139932000Y-96568000D02*
X139932000Y-97768000D01*
D12*
X140290426Y-106263595D02*
X140747569Y-106263595D01*
X140518997Y-107063595D02*
X140518997Y-106263595D01*
X140938045Y-106263595D02*
X141471379Y-107063595D01*
X141471379Y-106263595D02*
X140938045Y-107063595D01*
X141776141Y-107063595D02*
X141776141Y-106263595D01*
X141776141Y-106263595D02*
X141966617Y-106263595D01*
X141966617Y-106263595D02*
X142080903Y-106301690D01*
X142080903Y-106301690D02*
X142157093Y-106377880D01*
X142157093Y-106377880D02*
X142195188Y-106454071D01*
X142195188Y-106454071D02*
X142233284Y-106606452D01*
X142233284Y-106606452D02*
X142233284Y-106720738D01*
X142233284Y-106720738D02*
X142195188Y-106873119D01*
X142195188Y-106873119D02*
X142157093Y-106949309D01*
X142157093Y-106949309D02*
X142080903Y-107025500D01*
X142080903Y-107025500D02*
X141966617Y-107063595D01*
X141966617Y-107063595D02*
X141776141Y-107063595D01*
D11*
G36*
X182171263Y-126969712D02*
G01*
X180370469Y-126969712D01*
X180370469Y-126545506D01*
X180481580Y-126545506D01*
X180481580Y-126783601D01*
X180483021Y-126798233D01*
X180494220Y-126825269D01*
X180514912Y-126845961D01*
X180541948Y-126857160D01*
X180556580Y-126858601D01*
X181985152Y-126858601D01*
X181999784Y-126857160D01*
X182026820Y-126845961D01*
X182047512Y-126825269D01*
X182058711Y-126798233D01*
X182060152Y-126783601D01*
X182060152Y-126545506D01*
X182058711Y-126530874D01*
X182047512Y-126503838D01*
X182026820Y-126483146D01*
X181999784Y-126471947D01*
X181970520Y-126471947D01*
X181943484Y-126483146D01*
X181922792Y-126503838D01*
X181911593Y-126530874D01*
X181910152Y-126545506D01*
X181910152Y-126708601D01*
X180631580Y-126708601D01*
X180631580Y-126545506D01*
X180630139Y-126530874D01*
X180618940Y-126503838D01*
X180598248Y-126483146D01*
X180571212Y-126471947D01*
X180541948Y-126471947D01*
X180514912Y-126483146D01*
X180494220Y-126503838D01*
X180483021Y-126530874D01*
X180481580Y-126545506D01*
X180370469Y-126545506D01*
X180370469Y-125768969D01*
X180816355Y-125768969D01*
X180816355Y-125798233D01*
X180827554Y-125825269D01*
X180848246Y-125845961D01*
X180875282Y-125857160D01*
X180889914Y-125858601D01*
X181195866Y-125858601D01*
X181195866Y-126164553D01*
X181197307Y-126179185D01*
X181208506Y-126206221D01*
X181229198Y-126226913D01*
X181256234Y-126238112D01*
X181285498Y-126238112D01*
X181312534Y-126226913D01*
X181333226Y-126206221D01*
X181344425Y-126179185D01*
X181345866Y-126164553D01*
X181345866Y-125858601D01*
X181651819Y-125858601D01*
X181666451Y-125857160D01*
X181693487Y-125845961D01*
X181714179Y-125825269D01*
X181725378Y-125798233D01*
X181725378Y-125768969D01*
X181714179Y-125741933D01*
X181693487Y-125721241D01*
X181666451Y-125710042D01*
X181651819Y-125708601D01*
X181345866Y-125708601D01*
X181345866Y-125402649D01*
X181344425Y-125388017D01*
X181333226Y-125360981D01*
X181312534Y-125340289D01*
X181285498Y-125329090D01*
X181256234Y-125329090D01*
X181229198Y-125340289D01*
X181208506Y-125360981D01*
X181197307Y-125388017D01*
X181195866Y-125402649D01*
X181195866Y-125708601D01*
X180889914Y-125708601D01*
X180875282Y-125710042D01*
X180848246Y-125721241D01*
X180827554Y-125741933D01*
X180816355Y-125768969D01*
X180370469Y-125768969D01*
X180370469Y-124593125D01*
X180576819Y-124593125D01*
X180576819Y-124831220D01*
X180578260Y-124845852D01*
X180579291Y-124848341D01*
X180579482Y-124851029D01*
X180584737Y-124864761D01*
X180632356Y-124959999D01*
X180636320Y-124966298D01*
X180637078Y-124968126D01*
X180638766Y-124970182D01*
X180640188Y-124972442D01*
X180641686Y-124973741D01*
X180646405Y-124979491D01*
X180694024Y-125027110D01*
X180705389Y-125036437D01*
X180732425Y-125047636D01*
X180761688Y-125047636D01*
X180788724Y-125036437D01*
X180809417Y-125015744D01*
X180820616Y-124988708D01*
X180820616Y-124959445D01*
X180809417Y-124932409D01*
X180800090Y-124921044D01*
X180761077Y-124882031D01*
X180726819Y-124813515D01*
X180726819Y-124610830D01*
X180761077Y-124542314D01*
X180791484Y-124511907D01*
X180860000Y-124477649D01*
X180925363Y-124477649D01*
X181039876Y-124515820D01*
X181598786Y-125074729D01*
X181610151Y-125084057D01*
X181629268Y-125091975D01*
X181637187Y-125095255D01*
X181637188Y-125095255D01*
X181666451Y-125095255D01*
X181693487Y-125084056D01*
X181714180Y-125063364D01*
X181722098Y-125044246D01*
X181725378Y-125036328D01*
X181726819Y-125021696D01*
X181726819Y-124402649D01*
X181725378Y-124388017D01*
X181714179Y-124360981D01*
X181693487Y-124340289D01*
X181666451Y-124329090D01*
X181637187Y-124329090D01*
X181610151Y-124340289D01*
X181589459Y-124360981D01*
X181578260Y-124388017D01*
X181576819Y-124402649D01*
X181576819Y-124840630D01*
X181133423Y-124397235D01*
X181122058Y-124387908D01*
X181119567Y-124386876D01*
X181117532Y-124385111D01*
X181104107Y-124379117D01*
X180961250Y-124331498D01*
X180953996Y-124329848D01*
X180952165Y-124329090D01*
X180949510Y-124328828D01*
X180946913Y-124328238D01*
X180944938Y-124328378D01*
X180937533Y-124327649D01*
X180842295Y-124327649D01*
X180827663Y-124329090D01*
X180825174Y-124330120D01*
X180822485Y-124330312D01*
X180808754Y-124335567D01*
X180713516Y-124383186D01*
X180707216Y-124387150D01*
X180705389Y-124387908D01*
X180703332Y-124389596D01*
X180701073Y-124391018D01*
X180699773Y-124392516D01*
X180694024Y-124397235D01*
X180646405Y-124444854D01*
X180641686Y-124450603D01*
X180640188Y-124451903D01*
X180638766Y-124454162D01*
X180637078Y-124456219D01*
X180636320Y-124458046D01*
X180632356Y-124464346D01*
X180584737Y-124559584D01*
X180579482Y-124573316D01*
X180579291Y-124576003D01*
X180578260Y-124578493D01*
X180576819Y-124593125D01*
X180370469Y-124593125D01*
X180370469Y-123774221D01*
X180529789Y-123774221D01*
X180531864Y-123803411D01*
X180544950Y-123829584D01*
X180567057Y-123848758D01*
X180580483Y-123854752D01*
X181294767Y-124092847D01*
X181302022Y-124094496D01*
X181303853Y-124095255D01*
X181305357Y-124095255D01*
X181309104Y-124096107D01*
X181321089Y-124095255D01*
X181333117Y-124095255D01*
X181335608Y-124094222D01*
X181338294Y-124094032D01*
X181349041Y-124088658D01*
X181360153Y-124084056D01*
X181362058Y-124082150D01*
X181364468Y-124080946D01*
X181372342Y-124071866D01*
X181380845Y-124063364D01*
X181381876Y-124060873D01*
X181383642Y-124058838D01*
X181387442Y-124047437D01*
X181392044Y-124036328D01*
X181392420Y-124032501D01*
X181392896Y-124031076D01*
X181392755Y-124029101D01*
X181393485Y-124021696D01*
X181393485Y-123620506D01*
X181651819Y-123620506D01*
X181666451Y-123619065D01*
X181693487Y-123607866D01*
X181714179Y-123587174D01*
X181725378Y-123560138D01*
X181725378Y-123530874D01*
X181714179Y-123503838D01*
X181693487Y-123483146D01*
X181666451Y-123471947D01*
X181651819Y-123470506D01*
X181393485Y-123470506D01*
X181393485Y-123402649D01*
X181392044Y-123388017D01*
X181380845Y-123360981D01*
X181360153Y-123340289D01*
X181333117Y-123329090D01*
X181303853Y-123329090D01*
X181276817Y-123340289D01*
X181256125Y-123360981D01*
X181244926Y-123388017D01*
X181243485Y-123402649D01*
X181243485Y-123470506D01*
X180985152Y-123470506D01*
X180970520Y-123471947D01*
X180943484Y-123483146D01*
X180922792Y-123503838D01*
X180911593Y-123530874D01*
X180911593Y-123560138D01*
X180922792Y-123587174D01*
X180943484Y-123607866D01*
X180970520Y-123619065D01*
X180985152Y-123620506D01*
X181243485Y-123620506D01*
X181243485Y-123917639D01*
X180627917Y-123712450D01*
X180613580Y-123709190D01*
X180584390Y-123711265D01*
X180558217Y-123724351D01*
X180539043Y-123746458D01*
X180529789Y-123774221D01*
X180370469Y-123774221D01*
X180370469Y-122629783D01*
X180910957Y-122629783D01*
X180912411Y-122659011D01*
X180924938Y-122685457D01*
X180946632Y-122705096D01*
X180959927Y-122711375D01*
X181428826Y-122878839D01*
X180959927Y-123046303D01*
X180946632Y-123052582D01*
X180924938Y-123072221D01*
X180912411Y-123098667D01*
X180910957Y-123127895D01*
X180920800Y-123155454D01*
X180940439Y-123177148D01*
X180966885Y-123189675D01*
X180996113Y-123191129D01*
X181010377Y-123187565D01*
X181677044Y-122949470D01*
X181690339Y-122943191D01*
X181693130Y-122940663D01*
X181696531Y-122939053D01*
X181703893Y-122930920D01*
X181712033Y-122923552D01*
X181713644Y-122920149D01*
X181716171Y-122917359D01*
X181719862Y-122907021D01*
X181724560Y-122897106D01*
X181724746Y-122893347D01*
X181726014Y-122889800D01*
X181725468Y-122878839D01*
X181726014Y-122867878D01*
X181724746Y-122864330D01*
X181724560Y-122860572D01*
X181719862Y-122850656D01*
X181716171Y-122840319D01*
X181713644Y-122837528D01*
X181712033Y-122834126D01*
X181703893Y-122826757D01*
X181696531Y-122818625D01*
X181693130Y-122817014D01*
X181690339Y-122814487D01*
X181677044Y-122808208D01*
X181010377Y-122570113D01*
X180996113Y-122566549D01*
X180966885Y-122568003D01*
X180940439Y-122580530D01*
X180920800Y-122602224D01*
X180910957Y-122629783D01*
X180370469Y-122629783D01*
X180370469Y-122116934D01*
X180481580Y-122116934D01*
X180481580Y-122355029D01*
X180483021Y-122369661D01*
X180494220Y-122396697D01*
X180514912Y-122417389D01*
X180541948Y-122428588D01*
X180571212Y-122428588D01*
X180598248Y-122417389D01*
X180618940Y-122396697D01*
X180630139Y-122369661D01*
X180631580Y-122355029D01*
X180631580Y-122191934D01*
X181910152Y-122191934D01*
X181910152Y-122355029D01*
X181911593Y-122369661D01*
X181922792Y-122396697D01*
X181943484Y-122417389D01*
X181970520Y-122428588D01*
X181999784Y-122428588D01*
X182026820Y-122417389D01*
X182047512Y-122396697D01*
X182058711Y-122369661D01*
X182060152Y-122355029D01*
X182060152Y-122116934D01*
X182058711Y-122102302D01*
X182047512Y-122075266D01*
X182026820Y-122054574D01*
X181999784Y-122043375D01*
X181985152Y-122041934D01*
X180556580Y-122041934D01*
X180541948Y-122043375D01*
X180514912Y-122054574D01*
X180494220Y-122075266D01*
X180483021Y-122102302D01*
X180481580Y-122116934D01*
X180370469Y-122116934D01*
X180370469Y-121930823D01*
X182171263Y-121930823D01*
X182171263Y-126969712D01*
G37*
D12*
X144161855Y-116463595D02*
X143895188Y-116082642D01*
X143704712Y-116463595D02*
X143704712Y-115663595D01*
X143704712Y-115663595D02*
X144009474Y-115663595D01*
X144009474Y-115663595D02*
X144085664Y-115701690D01*
X144085664Y-115701690D02*
X144123759Y-115739785D01*
X144123759Y-115739785D02*
X144161855Y-115815976D01*
X144161855Y-115815976D02*
X144161855Y-115930261D01*
X144161855Y-115930261D02*
X144123759Y-116006452D01*
X144123759Y-116006452D02*
X144085664Y-116044547D01*
X144085664Y-116044547D02*
X144009474Y-116082642D01*
X144009474Y-116082642D02*
X143704712Y-116082642D01*
X144428521Y-115663595D02*
X144961855Y-116463595D01*
X144961855Y-115663595D02*
X144428521Y-116463595D01*
X145266617Y-116463595D02*
X145266617Y-115663595D01*
X145266617Y-115663595D02*
X145457093Y-115663595D01*
X145457093Y-115663595D02*
X145571379Y-115701690D01*
X145571379Y-115701690D02*
X145647569Y-115777880D01*
X145647569Y-115777880D02*
X145685664Y-115854071D01*
X145685664Y-115854071D02*
X145723760Y-116006452D01*
X145723760Y-116006452D02*
X145723760Y-116120738D01*
X145723760Y-116120738D02*
X145685664Y-116273119D01*
X145685664Y-116273119D02*
X145647569Y-116349309D01*
X145647569Y-116349309D02*
X145571379Y-116425500D01*
X145571379Y-116425500D02*
X145457093Y-116463595D01*
X145457093Y-116463595D02*
X145266617Y-116463595D01*
D11*
G36*
X181387547Y-128663889D02*
G01*
X181464534Y-128702383D01*
X181538648Y-128776496D01*
X181576819Y-128891009D01*
X181576819Y-129041934D01*
X180726819Y-129041934D01*
X180726819Y-128891009D01*
X180764990Y-128776495D01*
X180839103Y-128702383D01*
X180916090Y-128663889D01*
X181089624Y-128620506D01*
X181214013Y-128620506D01*
X181387547Y-128663889D01*
G37*
G36*
X182171263Y-131969712D02*
G01*
X180370469Y-131969712D01*
X180370469Y-131545506D01*
X180481580Y-131545506D01*
X180481580Y-131783601D01*
X180483021Y-131798233D01*
X180494220Y-131825269D01*
X180514912Y-131845961D01*
X180541948Y-131857160D01*
X180556580Y-131858601D01*
X181985152Y-131858601D01*
X181999784Y-131857160D01*
X182026820Y-131845961D01*
X182047512Y-131825269D01*
X182058711Y-131798233D01*
X182060152Y-131783601D01*
X182060152Y-131545506D01*
X182058711Y-131530874D01*
X182047512Y-131503838D01*
X182026820Y-131483146D01*
X181999784Y-131471947D01*
X181970520Y-131471947D01*
X181943484Y-131483146D01*
X181922792Y-131503838D01*
X181911593Y-131530874D01*
X181910152Y-131545506D01*
X181910152Y-131708601D01*
X180631580Y-131708601D01*
X180631580Y-131545506D01*
X180630139Y-131530874D01*
X180618940Y-131503838D01*
X180598248Y-131483146D01*
X180571212Y-131471947D01*
X180541948Y-131471947D01*
X180514912Y-131483146D01*
X180494220Y-131503838D01*
X180483021Y-131530874D01*
X180481580Y-131545506D01*
X180370469Y-131545506D01*
X180370469Y-130735982D01*
X180576819Y-130735982D01*
X180576819Y-130878839D01*
X180577548Y-130886244D01*
X180577408Y-130888219D01*
X180577998Y-130890816D01*
X180578260Y-130893471D01*
X180579018Y-130895302D01*
X180580668Y-130902556D01*
X180628287Y-131045413D01*
X180634281Y-131058838D01*
X180636046Y-131060873D01*
X180637078Y-131063364D01*
X180646405Y-131074729D01*
X180741643Y-131169967D01*
X180747393Y-131174687D01*
X180748692Y-131176184D01*
X180750946Y-131177603D01*
X180753008Y-131179295D01*
X180754840Y-131180053D01*
X180761135Y-131184016D01*
X180856373Y-131231635D01*
X180857442Y-131232044D01*
X180857878Y-131232367D01*
X180864014Y-131234559D01*
X180870104Y-131236890D01*
X180870644Y-131236928D01*
X180871724Y-131237314D01*
X181062200Y-131284933D01*
X181064736Y-131285308D01*
X181065758Y-131285731D01*
X181071270Y-131286273D01*
X181076744Y-131287083D01*
X181077836Y-131286920D01*
X181080390Y-131287172D01*
X181223247Y-131287172D01*
X181225800Y-131286920D01*
X181226893Y-131287083D01*
X181232366Y-131286273D01*
X181237879Y-131285731D01*
X181238900Y-131285308D01*
X181241437Y-131284933D01*
X181431913Y-131237314D01*
X181432992Y-131236928D01*
X181433532Y-131236890D01*
X181439613Y-131234562D01*
X181445759Y-131232367D01*
X181446194Y-131232044D01*
X181447264Y-131231635D01*
X181542502Y-131184016D01*
X181548798Y-131180052D01*
X181550628Y-131179295D01*
X181552686Y-131177605D01*
X181554945Y-131176184D01*
X181556244Y-131174685D01*
X181561994Y-131169967D01*
X181657233Y-131074729D01*
X181666561Y-131063364D01*
X181667592Y-131060873D01*
X181669357Y-131058839D01*
X181675351Y-131045413D01*
X181722970Y-130902557D01*
X181724619Y-130895301D01*
X181725378Y-130893471D01*
X181725639Y-130890817D01*
X181726230Y-130888220D01*
X181726089Y-130886245D01*
X181726819Y-130878839D01*
X181726819Y-130783601D01*
X181726089Y-130776194D01*
X181726230Y-130774220D01*
X181725639Y-130771622D01*
X181725378Y-130768969D01*
X181724619Y-130767138D01*
X181722970Y-130759883D01*
X181675351Y-130617027D01*
X181669357Y-130603601D01*
X181667590Y-130601564D01*
X181666560Y-130599076D01*
X181657232Y-130587710D01*
X181609612Y-130540091D01*
X181598247Y-130530764D01*
X181582410Y-130524204D01*
X181571212Y-130519566D01*
X181556580Y-130518125D01*
X181223247Y-130518125D01*
X181208615Y-130519566D01*
X181181579Y-130530765D01*
X181160887Y-130551457D01*
X181149688Y-130578493D01*
X181148247Y-130593125D01*
X181148247Y-130783601D01*
X181149688Y-130798233D01*
X181160887Y-130825269D01*
X181181579Y-130845961D01*
X181208615Y-130857160D01*
X181237879Y-130857160D01*
X181264915Y-130845961D01*
X181285607Y-130825269D01*
X181296806Y-130798233D01*
X181298247Y-130783601D01*
X181298247Y-130668125D01*
X181525514Y-130668125D01*
X181538648Y-130681258D01*
X181576819Y-130795771D01*
X181576819Y-130866669D01*
X181538648Y-130981181D01*
X181464534Y-131055294D01*
X181387547Y-131093788D01*
X181214013Y-131137172D01*
X181089624Y-131137172D01*
X180916090Y-131093788D01*
X180839103Y-131055295D01*
X180764990Y-130981182D01*
X180726819Y-130866668D01*
X180726819Y-130753687D01*
X180766520Y-130674285D01*
X180771775Y-130660554D01*
X180773849Y-130631364D01*
X180764595Y-130603602D01*
X180745422Y-130581495D01*
X180719247Y-130568407D01*
X180690057Y-130566333D01*
X180662296Y-130575587D01*
X180640188Y-130594760D01*
X180632356Y-130607203D01*
X180584737Y-130702441D01*
X180579482Y-130716173D01*
X180579291Y-130718860D01*
X180578260Y-130721350D01*
X180576819Y-130735982D01*
X180370469Y-130735982D01*
X180370469Y-130159314D01*
X180577002Y-130159314D01*
X180578260Y-130169210D01*
X180578260Y-130179185D01*
X180580089Y-130183600D01*
X180580692Y-130188344D01*
X180585642Y-130197008D01*
X180589459Y-130206221D01*
X180592837Y-130209599D01*
X180595211Y-130213753D01*
X180603100Y-130219862D01*
X180610151Y-130226913D01*
X180614567Y-130228742D01*
X180618348Y-130231670D01*
X180627971Y-130234294D01*
X180637187Y-130238112D01*
X180644669Y-130238848D01*
X180646580Y-130239370D01*
X180648055Y-130239182D01*
X180651819Y-130239553D01*
X181651819Y-130239553D01*
X181666451Y-130238112D01*
X181693487Y-130226913D01*
X181714179Y-130206221D01*
X181725378Y-130179185D01*
X181725378Y-130149921D01*
X181714179Y-130122885D01*
X181693487Y-130102193D01*
X181666451Y-130090994D01*
X181651819Y-130089553D01*
X180934236Y-130089553D01*
X181689030Y-129658243D01*
X181692114Y-129656053D01*
X181693487Y-129655485D01*
X181694884Y-129654087D01*
X181701019Y-129649733D01*
X181707127Y-129641844D01*
X181714179Y-129634793D01*
X181716009Y-129630374D01*
X181718936Y-129626595D01*
X181721560Y-129616973D01*
X181725378Y-129607757D01*
X181725378Y-129602976D01*
X181726636Y-129598364D01*
X181725378Y-129588467D01*
X181725378Y-129578493D01*
X181723548Y-129574077D01*
X181722946Y-129569334D01*
X181717995Y-129560669D01*
X181714179Y-129551457D01*
X181710800Y-129548078D01*
X181708427Y-129543925D01*
X181700537Y-129537815D01*
X181693487Y-129530765D01*
X181689070Y-129528935D01*
X181685290Y-129526008D01*
X181675666Y-129523383D01*
X181666451Y-129519566D01*
X181658968Y-129518829D01*
X181657058Y-129518308D01*
X181655582Y-129518495D01*
X181651819Y-129518125D01*
X180651819Y-129518125D01*
X180637187Y-129519566D01*
X180610151Y-129530765D01*
X180589459Y-129551457D01*
X180578260Y-129578493D01*
X180578260Y-129607757D01*
X180589459Y-129634793D01*
X180610151Y-129655485D01*
X180637187Y-129666684D01*
X180651819Y-129668125D01*
X181369402Y-129668125D01*
X180614609Y-130099435D01*
X180611525Y-130101623D01*
X180610151Y-130102193D01*
X180608751Y-130103592D01*
X180602619Y-130107945D01*
X180596509Y-130115834D01*
X180589459Y-130122885D01*
X180587629Y-130127301D01*
X180584702Y-130131082D01*
X180582077Y-130140705D01*
X180578260Y-130149921D01*
X180578260Y-130154701D01*
X180577002Y-130159314D01*
X180370469Y-130159314D01*
X180370469Y-128878839D01*
X180576819Y-128878839D01*
X180576819Y-129116934D01*
X180578260Y-129131566D01*
X180589459Y-129158602D01*
X180610151Y-129179294D01*
X180637187Y-129190493D01*
X180651819Y-129191934D01*
X181651819Y-129191934D01*
X181666451Y-129190493D01*
X181693487Y-129179294D01*
X181714179Y-129158602D01*
X181725378Y-129131566D01*
X181726819Y-129116934D01*
X181726819Y-128878839D01*
X181726089Y-128871432D01*
X181726230Y-128869458D01*
X181725639Y-128866860D01*
X181725378Y-128864207D01*
X181724619Y-128862376D01*
X181722970Y-128855121D01*
X181675351Y-128712265D01*
X181669357Y-128698839D01*
X181667592Y-128696804D01*
X181666561Y-128694314D01*
X181657233Y-128682949D01*
X181561994Y-128587711D01*
X181556244Y-128582992D01*
X181554945Y-128581494D01*
X181552686Y-128580072D01*
X181550628Y-128578383D01*
X181548798Y-128577625D01*
X181542502Y-128573662D01*
X181447264Y-128526043D01*
X181446194Y-128525633D01*
X181445759Y-128525311D01*
X181439613Y-128523115D01*
X181433532Y-128520788D01*
X181432992Y-128520749D01*
X181431913Y-128520364D01*
X181241437Y-128472745D01*
X181238900Y-128472369D01*
X181237879Y-128471947D01*
X181232366Y-128471404D01*
X181226893Y-128470595D01*
X181225800Y-128470757D01*
X181223247Y-128470506D01*
X181080390Y-128470506D01*
X181077836Y-128470757D01*
X181076744Y-128470595D01*
X181071270Y-128471404D01*
X181065758Y-128471947D01*
X181064736Y-128472369D01*
X181062200Y-128472745D01*
X180871724Y-128520364D01*
X180870644Y-128520749D01*
X180870104Y-128520788D01*
X180864014Y-128523118D01*
X180857878Y-128525311D01*
X180857442Y-128525633D01*
X180856373Y-128526043D01*
X180761135Y-128573662D01*
X180754840Y-128577624D01*
X180753008Y-128578383D01*
X180750946Y-128580074D01*
X180748692Y-128581494D01*
X180747393Y-128582990D01*
X180741643Y-128587711D01*
X180646405Y-128682949D01*
X180637078Y-128694314D01*
X180636046Y-128696804D01*
X180634281Y-128698840D01*
X180628287Y-128712265D01*
X180580668Y-128855122D01*
X180579018Y-128862375D01*
X180578260Y-128864207D01*
X180577998Y-128866861D01*
X180577408Y-128869459D01*
X180577548Y-128871433D01*
X180576819Y-128878839D01*
X180370469Y-128878839D01*
X180370469Y-127974077D01*
X180481580Y-127974077D01*
X180481580Y-128212172D01*
X180483021Y-128226804D01*
X180494220Y-128253840D01*
X180514912Y-128274532D01*
X180541948Y-128285731D01*
X180571212Y-128285731D01*
X180598248Y-128274532D01*
X180618940Y-128253840D01*
X180630139Y-128226804D01*
X180631580Y-128212172D01*
X180631580Y-128049077D01*
X181910152Y-128049077D01*
X181910152Y-128212172D01*
X181911593Y-128226804D01*
X181922792Y-128253840D01*
X181943484Y-128274532D01*
X181970520Y-128285731D01*
X181999784Y-128285731D01*
X182026820Y-128274532D01*
X182047512Y-128253840D01*
X182058711Y-128226804D01*
X182060152Y-128212172D01*
X182060152Y-127974077D01*
X182058711Y-127959445D01*
X182047512Y-127932409D01*
X182026820Y-127911717D01*
X181999784Y-127900518D01*
X181985152Y-127899077D01*
X180556580Y-127899077D01*
X180541948Y-127900518D01*
X180514912Y-127911717D01*
X180494220Y-127932409D01*
X180483021Y-127959445D01*
X180481580Y-127974077D01*
X180370469Y-127974077D01*
X180370469Y-127787966D01*
X182171263Y-127787966D01*
X182171263Y-131969712D01*
G37*
D12*
X138833283Y-98100309D02*
X138833283Y-98505071D01*
X138833283Y-98505071D02*
X138857093Y-98552690D01*
X138857093Y-98552690D02*
X138880902Y-98576500D01*
X138880902Y-98576500D02*
X138928521Y-98600309D01*
X138928521Y-98600309D02*
X139023759Y-98600309D01*
X139023759Y-98600309D02*
X139071378Y-98576500D01*
X139071378Y-98576500D02*
X139095188Y-98552690D01*
X139095188Y-98552690D02*
X139118997Y-98505071D01*
X139118997Y-98505071D02*
X139118997Y-98100309D01*
X139333284Y-98457452D02*
X139571379Y-98457452D01*
X139285665Y-98600309D02*
X139452331Y-98100309D01*
X139452331Y-98100309D02*
X139618998Y-98600309D01*
X140071378Y-98600309D02*
X139904712Y-98362214D01*
X139785664Y-98600309D02*
X139785664Y-98100309D01*
X139785664Y-98100309D02*
X139976140Y-98100309D01*
X139976140Y-98100309D02*
X140023759Y-98124119D01*
X140023759Y-98124119D02*
X140047569Y-98147928D01*
X140047569Y-98147928D02*
X140071378Y-98195547D01*
X140071378Y-98195547D02*
X140071378Y-98266976D01*
X140071378Y-98266976D02*
X140047569Y-98314595D01*
X140047569Y-98314595D02*
X140023759Y-98338404D01*
X140023759Y-98338404D02*
X139976140Y-98362214D01*
X139976140Y-98362214D02*
X139785664Y-98362214D01*
X140214236Y-98100309D02*
X140499950Y-98100309D01*
X140357093Y-98600309D02*
X140357093Y-98100309D01*
X140904711Y-98100309D02*
X140666616Y-98100309D01*
X140666616Y-98100309D02*
X140642807Y-98338404D01*
X140642807Y-98338404D02*
X140666616Y-98314595D01*
X140666616Y-98314595D02*
X140714235Y-98290785D01*
X140714235Y-98290785D02*
X140833283Y-98290785D01*
X140833283Y-98290785D02*
X140880902Y-98314595D01*
X140880902Y-98314595D02*
X140904711Y-98338404D01*
X140904711Y-98338404D02*
X140928521Y-98386023D01*
X140928521Y-98386023D02*
X140928521Y-98505071D01*
X140928521Y-98505071D02*
X140904711Y-98552690D01*
X140904711Y-98552690D02*
X140880902Y-98576500D01*
X140880902Y-98576500D02*
X140833283Y-98600309D01*
X140833283Y-98600309D02*
X140714235Y-98600309D01*
X140714235Y-98600309D02*
X140666616Y-98576500D01*
X140666616Y-98576500D02*
X140642807Y-98552690D01*
D10*
G36*
X120780167Y-100151262D02*
G01*
X120837720Y-100208814D01*
X120869994Y-100337905D01*
X120869994Y-100589803D01*
X120837720Y-100718894D01*
X120780168Y-100776447D01*
X120725353Y-100803855D01*
X120601302Y-100803855D01*
X120546487Y-100776447D01*
X120488934Y-100718894D01*
X120456660Y-100589803D01*
X120456660Y-100337905D01*
X120488934Y-100208813D01*
X120546484Y-100151263D01*
X120601302Y-100123855D01*
X120725353Y-100123855D01*
X120780167Y-100151262D01*
G37*
G36*
X123256359Y-100151262D02*
G01*
X123280683Y-100175587D01*
X123308090Y-100230400D01*
X123308090Y-100316356D01*
X123280683Y-100371169D01*
X123256359Y-100395494D01*
X123201544Y-100422902D01*
X122970947Y-100422902D01*
X122970947Y-100123855D01*
X123201544Y-100123855D01*
X123256359Y-100151262D01*
G37*
G36*
X119980168Y-100151262D02*
G01*
X120004492Y-100175587D01*
X120031899Y-100230400D01*
X120031899Y-100316356D01*
X120004492Y-100371169D01*
X119980168Y-100395494D01*
X119925353Y-100422902D01*
X119694756Y-100422902D01*
X119694756Y-100123855D01*
X119925353Y-100123855D01*
X119980168Y-100151262D01*
G37*
G36*
X123974121Y-101279410D02*
G01*
X118990629Y-101279410D01*
X118990629Y-99987664D01*
X119079518Y-99987664D01*
X119079518Y-101130521D01*
X119084085Y-101153482D01*
X119116557Y-101185954D01*
X119139518Y-101190521D01*
X119329994Y-101190521D01*
X119352955Y-101185954D01*
X119385427Y-101153482D01*
X119385427Y-101107560D01*
X119352955Y-101075088D01*
X119329994Y-101070521D01*
X119199518Y-101070521D01*
X119199518Y-100063855D01*
X119574756Y-100063855D01*
X119574756Y-100863855D01*
X119579323Y-100886816D01*
X119611795Y-100919288D01*
X119657717Y-100919288D01*
X119690189Y-100886816D01*
X119694756Y-100863855D01*
X119694756Y-100542902D01*
X119939518Y-100542902D01*
X119942465Y-100542315D01*
X119943771Y-100542751D01*
X119953046Y-100540211D01*
X119962479Y-100538335D01*
X119963452Y-100537361D01*
X119966351Y-100536568D01*
X120042541Y-100498473D01*
X120050142Y-100492572D01*
X120058134Y-100487233D01*
X120096229Y-100449139D01*
X120101575Y-100441138D01*
X120107468Y-100433545D01*
X120145564Y-100357354D01*
X120146357Y-100354456D01*
X120147332Y-100353482D01*
X120149208Y-100344045D01*
X120151748Y-100334775D01*
X120151312Y-100333468D01*
X120151899Y-100330521D01*
X120336660Y-100330521D01*
X120336660Y-100597188D01*
X120338094Y-100604399D01*
X120338452Y-100611740D01*
X120376548Y-100764121D01*
X120379323Y-100769995D01*
X120379323Y-100772530D01*
X120383407Y-100778643D01*
X120386547Y-100785289D01*
X120388718Y-100786592D01*
X120392329Y-100791995D01*
X120468520Y-100868186D01*
X120476507Y-100873523D01*
X120484113Y-100879426D01*
X120560305Y-100917521D01*
X120563202Y-100918314D01*
X120564176Y-100919288D01*
X120573610Y-100921164D01*
X120582884Y-100923704D01*
X120584189Y-100923268D01*
X120587137Y-100923855D01*
X120739518Y-100923855D01*
X120742465Y-100923268D01*
X120743771Y-100923704D01*
X120753046Y-100921164D01*
X120762479Y-100919288D01*
X120763452Y-100918314D01*
X120766351Y-100917521D01*
X120842541Y-100879426D01*
X120850142Y-100873525D01*
X120858134Y-100868186D01*
X120934325Y-100791996D01*
X120937935Y-100786592D01*
X120940108Y-100785289D01*
X120943248Y-100778641D01*
X120947332Y-100772530D01*
X120947332Y-100769997D01*
X120950108Y-100764121D01*
X120988203Y-100611740D01*
X120988560Y-100604395D01*
X120989994Y-100597188D01*
X120989994Y-100330521D01*
X120988560Y-100323313D01*
X120988203Y-100315969D01*
X120950108Y-100163588D01*
X120947332Y-100157711D01*
X120947332Y-100155179D01*
X120943248Y-100149068D01*
X120940108Y-100142420D01*
X120937934Y-100141116D01*
X120934325Y-100135714D01*
X120858134Y-100059523D01*
X120850405Y-100054358D01*
X121137416Y-100054358D01*
X121138292Y-100077752D01*
X121328768Y-100877752D01*
X121338529Y-100899031D01*
X121346170Y-100903733D01*
X121350667Y-100911500D01*
X121365002Y-100915322D01*
X121377639Y-100923099D01*
X121386369Y-100921020D01*
X121395039Y-100923332D01*
X121407878Y-100915898D01*
X121422312Y-100912462D01*
X121427014Y-100904820D01*
X121434781Y-100900324D01*
X121445110Y-100879315D01*
X121539516Y-100525288D01*
X121633924Y-100879315D01*
X121644253Y-100900324D01*
X121652019Y-100904820D01*
X121656722Y-100912462D01*
X121671153Y-100915898D01*
X121683995Y-100923333D01*
X121692666Y-100921020D01*
X121701395Y-100923099D01*
X121714028Y-100915324D01*
X121728367Y-100911501D01*
X121732864Y-100903733D01*
X121740505Y-100899031D01*
X121750266Y-100877752D01*
X121940743Y-100077753D01*
X121941263Y-100063855D01*
X122127137Y-100063855D01*
X122127137Y-100863855D01*
X122131704Y-100886816D01*
X122164176Y-100919288D01*
X122187137Y-100923855D01*
X122568089Y-100923855D01*
X122591050Y-100919288D01*
X122623522Y-100886816D01*
X122623522Y-100840894D01*
X122591050Y-100808422D01*
X122568089Y-100803855D01*
X122247137Y-100803855D01*
X122247137Y-100504807D01*
X122453803Y-100504807D01*
X122476764Y-100500240D01*
X122509236Y-100467768D01*
X122509236Y-100421846D01*
X122476764Y-100389374D01*
X122453803Y-100384807D01*
X122247137Y-100384807D01*
X122247137Y-100123855D01*
X122568089Y-100123855D01*
X122591050Y-100119288D01*
X122623522Y-100086816D01*
X122623522Y-100063855D01*
X122850947Y-100063855D01*
X122850947Y-100863855D01*
X122855514Y-100886816D01*
X122887986Y-100919288D01*
X122933908Y-100919288D01*
X122966380Y-100886816D01*
X122970947Y-100863855D01*
X122970947Y-100542902D01*
X123070183Y-100542902D01*
X123318936Y-100898262D01*
X123335845Y-100914454D01*
X123381068Y-100922434D01*
X123418689Y-100896100D01*
X123426670Y-100850876D01*
X123417244Y-100829447D01*
X123216546Y-100542735D01*
X123218656Y-100542315D01*
X123219962Y-100542751D01*
X123229237Y-100540211D01*
X123238670Y-100538335D01*
X123239643Y-100537361D01*
X123242542Y-100536568D01*
X123318732Y-100498473D01*
X123326333Y-100492572D01*
X123334325Y-100487233D01*
X123372420Y-100449139D01*
X123377766Y-100441138D01*
X123383659Y-100433545D01*
X123421755Y-100357354D01*
X123422548Y-100354456D01*
X123423523Y-100353482D01*
X123425399Y-100344045D01*
X123427939Y-100334775D01*
X123427503Y-100333468D01*
X123428090Y-100330521D01*
X123428090Y-100216236D01*
X123427503Y-100213288D01*
X123427939Y-100211982D01*
X123425399Y-100202711D01*
X123423523Y-100193275D01*
X123422548Y-100192300D01*
X123421755Y-100189403D01*
X123383659Y-100113212D01*
X123377766Y-100105618D01*
X123372420Y-100097618D01*
X123334325Y-100059524D01*
X123326333Y-100054184D01*
X123318732Y-100048284D01*
X123242542Y-100010189D01*
X123239643Y-100009395D01*
X123238670Y-100008422D01*
X123229237Y-100006545D01*
X123219962Y-100004006D01*
X123218656Y-100004441D01*
X123215709Y-100003855D01*
X122910947Y-100003855D01*
X122887986Y-100008422D01*
X122855514Y-100040894D01*
X122850947Y-100063855D01*
X122623522Y-100063855D01*
X122623522Y-100040894D01*
X122591050Y-100008422D01*
X122568089Y-100003855D01*
X122187137Y-100003855D01*
X122164176Y-100008422D01*
X122131704Y-100040894D01*
X122127137Y-100063855D01*
X121941263Y-100063855D01*
X121941619Y-100054358D01*
X121917551Y-100015248D01*
X121872878Y-100004612D01*
X121833768Y-100028679D01*
X121824007Y-100049958D01*
X121688604Y-100618644D01*
X121597491Y-100276966D01*
X121587162Y-100255957D01*
X121580084Y-100251859D01*
X121575986Y-100244780D01*
X121560913Y-100240760D01*
X121547420Y-100232949D01*
X121539518Y-100235055D01*
X121531614Y-100232948D01*
X121518115Y-100240763D01*
X121503048Y-100244781D01*
X121498950Y-100251858D01*
X121491872Y-100255957D01*
X121481543Y-100276966D01*
X121390429Y-100618643D01*
X121255028Y-100049958D01*
X121245267Y-100028679D01*
X121206157Y-100004611D01*
X121161484Y-100015248D01*
X121137416Y-100054358D01*
X120850405Y-100054358D01*
X120850137Y-100054179D01*
X120842541Y-100048284D01*
X120766351Y-100010189D01*
X120763452Y-100009395D01*
X120762479Y-100008422D01*
X120753046Y-100006545D01*
X120743771Y-100004006D01*
X120742465Y-100004441D01*
X120739518Y-100003855D01*
X120587137Y-100003855D01*
X120584189Y-100004441D01*
X120582884Y-100004006D01*
X120573610Y-100006545D01*
X120564176Y-100008422D01*
X120563202Y-100009395D01*
X120560305Y-100010189D01*
X120484113Y-100048284D01*
X120476507Y-100054186D01*
X120468520Y-100059524D01*
X120392330Y-100135714D01*
X120388720Y-100141116D01*
X120386547Y-100142420D01*
X120383407Y-100149066D01*
X120379323Y-100155179D01*
X120379323Y-100157713D01*
X120376548Y-100163588D01*
X120338452Y-100315969D01*
X120338094Y-100323309D01*
X120336660Y-100330521D01*
X120151899Y-100330521D01*
X120151899Y-100216236D01*
X120151312Y-100213288D01*
X120151748Y-100211982D01*
X120149208Y-100202711D01*
X120147332Y-100193275D01*
X120146357Y-100192300D01*
X120145564Y-100189403D01*
X120107468Y-100113212D01*
X120101575Y-100105618D01*
X120096229Y-100097618D01*
X120058134Y-100059524D01*
X120050142Y-100054184D01*
X120042541Y-100048284D01*
X119966351Y-100010189D01*
X119963452Y-100009395D01*
X119962479Y-100008422D01*
X119953046Y-100006545D01*
X119943771Y-100004006D01*
X119942465Y-100004441D01*
X119939518Y-100003855D01*
X119634756Y-100003855D01*
X119611795Y-100008422D01*
X119579323Y-100040894D01*
X119574756Y-100063855D01*
X119199518Y-100063855D01*
X119199518Y-100047664D01*
X119329994Y-100047664D01*
X119352955Y-100043097D01*
X119385427Y-100010625D01*
X119385427Y-99964703D01*
X123579323Y-99964703D01*
X123579323Y-100010625D01*
X123611795Y-100043097D01*
X123634756Y-100047664D01*
X123765232Y-100047664D01*
X123765232Y-101070521D01*
X123634756Y-101070521D01*
X123611795Y-101075088D01*
X123579323Y-101107560D01*
X123579323Y-101153482D01*
X123611795Y-101185954D01*
X123634756Y-101190521D01*
X123825232Y-101190521D01*
X123848193Y-101185954D01*
X123880665Y-101153482D01*
X123885232Y-101130521D01*
X123885232Y-99987664D01*
X123880665Y-99964703D01*
X123848193Y-99932231D01*
X123825232Y-99927664D01*
X123634756Y-99927664D01*
X123611795Y-99932231D01*
X123579323Y-99964703D01*
X119385427Y-99964703D01*
X119352955Y-99932231D01*
X119329994Y-99927664D01*
X119139518Y-99927664D01*
X119116557Y-99932231D01*
X119084085Y-99964703D01*
X119079518Y-99987664D01*
X118990629Y-99987664D01*
X118990629Y-99838775D01*
X123974121Y-99838775D01*
X123974121Y-101279410D01*
G37*
D11*
X122321160Y-136742160D02*
X122797350Y-136742160D01*
X122225922Y-137027875D02*
X122559255Y-136027875D01*
X122559255Y-136027875D02*
X122892588Y-137027875D01*
X123654493Y-136361208D02*
X123654493Y-137361208D01*
X123654493Y-136980256D02*
X123559255Y-137027875D01*
X123559255Y-137027875D02*
X123368779Y-137027875D01*
X123368779Y-137027875D02*
X123273541Y-136980256D01*
X123273541Y-136980256D02*
X123225922Y-136932636D01*
X123225922Y-136932636D02*
X123178303Y-136837398D01*
X123178303Y-136837398D02*
X123178303Y-136551684D01*
X123178303Y-136551684D02*
X123225922Y-136456446D01*
X123225922Y-136456446D02*
X123273541Y-136408827D01*
X123273541Y-136408827D02*
X123368779Y-136361208D01*
X123368779Y-136361208D02*
X123559255Y-136361208D01*
X123559255Y-136361208D02*
X123654493Y-136408827D01*
X124559255Y-136361208D02*
X124559255Y-137027875D01*
X124130684Y-136361208D02*
X124130684Y-136885017D01*
X124130684Y-136885017D02*
X124178303Y-136980256D01*
X124178303Y-136980256D02*
X124273541Y-137027875D01*
X124273541Y-137027875D02*
X124416398Y-137027875D01*
X124416398Y-137027875D02*
X124511636Y-136980256D01*
X124511636Y-136980256D02*
X124559255Y-136932636D01*
X125464017Y-137027875D02*
X125464017Y-136504065D01*
X125464017Y-136504065D02*
X125416398Y-136408827D01*
X125416398Y-136408827D02*
X125321160Y-136361208D01*
X125321160Y-136361208D02*
X125130684Y-136361208D01*
X125130684Y-136361208D02*
X125035446Y-136408827D01*
X125464017Y-136980256D02*
X125368779Y-137027875D01*
X125368779Y-137027875D02*
X125130684Y-137027875D01*
X125130684Y-137027875D02*
X125035446Y-136980256D01*
X125035446Y-136980256D02*
X124987827Y-136885017D01*
X124987827Y-136885017D02*
X124987827Y-136789779D01*
X124987827Y-136789779D02*
X125035446Y-136694541D01*
X125035446Y-136694541D02*
X125130684Y-136646922D01*
X125130684Y-136646922D02*
X125368779Y-136646922D01*
X125368779Y-136646922D02*
X125464017Y-136599303D01*
X126083065Y-137027875D02*
X125987827Y-136980256D01*
X125987827Y-136980256D02*
X125940208Y-136885017D01*
X125940208Y-136885017D02*
X125940208Y-136027875D01*
X126464018Y-137027875D02*
X126464018Y-136361208D01*
X126464018Y-136027875D02*
X126416399Y-136075494D01*
X126416399Y-136075494D02*
X126464018Y-136123113D01*
X126464018Y-136123113D02*
X126511637Y-136075494D01*
X126511637Y-136075494D02*
X126464018Y-136027875D01*
X126464018Y-136027875D02*
X126464018Y-136123113D01*
X126940208Y-136361208D02*
X126940208Y-137027875D01*
X126940208Y-136456446D02*
X126987827Y-136408827D01*
X126987827Y-136408827D02*
X127083065Y-136361208D01*
X127083065Y-136361208D02*
X127225922Y-136361208D01*
X127225922Y-136361208D02*
X127321160Y-136408827D01*
X127321160Y-136408827D02*
X127368779Y-136504065D01*
X127368779Y-136504065D02*
X127368779Y-137027875D01*
X127844970Y-137027875D02*
X127844970Y-136027875D01*
X127940208Y-136646922D02*
X128225922Y-137027875D01*
X128225922Y-136361208D02*
X127844970Y-136742160D01*
X128654494Y-137027875D02*
X128654494Y-136027875D01*
X128654494Y-136027875D02*
X128892589Y-136027875D01*
X128892589Y-136027875D02*
X129035446Y-136075494D01*
X129035446Y-136075494D02*
X129130684Y-136170732D01*
X129130684Y-136170732D02*
X129178303Y-136265970D01*
X129178303Y-136265970D02*
X129225922Y-136456446D01*
X129225922Y-136456446D02*
X129225922Y-136599303D01*
X129225922Y-136599303D02*
X129178303Y-136789779D01*
X129178303Y-136789779D02*
X129130684Y-136885017D01*
X129130684Y-136885017D02*
X129035446Y-136980256D01*
X129035446Y-136980256D02*
X128892589Y-137027875D01*
X128892589Y-137027875D02*
X128654494Y-137027875D01*
X130416399Y-137027875D02*
X130416399Y-136027875D01*
X130892589Y-136361208D02*
X130892589Y-137027875D01*
X130892589Y-136456446D02*
X130940208Y-136408827D01*
X130940208Y-136408827D02*
X131035446Y-136361208D01*
X131035446Y-136361208D02*
X131178303Y-136361208D01*
X131178303Y-136361208D02*
X131273541Y-136408827D01*
X131273541Y-136408827D02*
X131321160Y-136504065D01*
X131321160Y-136504065D02*
X131321160Y-137027875D01*
X131654494Y-136361208D02*
X132035446Y-136361208D01*
X131797351Y-136027875D02*
X131797351Y-136885017D01*
X131797351Y-136885017D02*
X131844970Y-136980256D01*
X131844970Y-136980256D02*
X131940208Y-137027875D01*
X131940208Y-137027875D02*
X132035446Y-137027875D01*
X132749732Y-136980256D02*
X132654494Y-137027875D01*
X132654494Y-137027875D02*
X132464018Y-137027875D01*
X132464018Y-137027875D02*
X132368780Y-136980256D01*
X132368780Y-136980256D02*
X132321161Y-136885017D01*
X132321161Y-136885017D02*
X132321161Y-136504065D01*
X132321161Y-136504065D02*
X132368780Y-136408827D01*
X132368780Y-136408827D02*
X132464018Y-136361208D01*
X132464018Y-136361208D02*
X132654494Y-136361208D01*
X132654494Y-136361208D02*
X132749732Y-136408827D01*
X132749732Y-136408827D02*
X132797351Y-136504065D01*
X132797351Y-136504065D02*
X132797351Y-136599303D01*
X132797351Y-136599303D02*
X132321161Y-136694541D01*
X133225923Y-137027875D02*
X133225923Y-136361208D01*
X133225923Y-136551684D02*
X133273542Y-136456446D01*
X133273542Y-136456446D02*
X133321161Y-136408827D01*
X133321161Y-136408827D02*
X133416399Y-136361208D01*
X133416399Y-136361208D02*
X133511637Y-136361208D01*
X133702114Y-136361208D02*
X134083066Y-136361208D01*
X133844971Y-137027875D02*
X133844971Y-136170732D01*
X133844971Y-136170732D02*
X133892590Y-136075494D01*
X133892590Y-136075494D02*
X133987828Y-136027875D01*
X133987828Y-136027875D02*
X134083066Y-136027875D01*
X134844971Y-137027875D02*
X134844971Y-136504065D01*
X134844971Y-136504065D02*
X134797352Y-136408827D01*
X134797352Y-136408827D02*
X134702114Y-136361208D01*
X134702114Y-136361208D02*
X134511638Y-136361208D01*
X134511638Y-136361208D02*
X134416400Y-136408827D01*
X134844971Y-136980256D02*
X134749733Y-137027875D01*
X134749733Y-137027875D02*
X134511638Y-137027875D01*
X134511638Y-137027875D02*
X134416400Y-136980256D01*
X134416400Y-136980256D02*
X134368781Y-136885017D01*
X134368781Y-136885017D02*
X134368781Y-136789779D01*
X134368781Y-136789779D02*
X134416400Y-136694541D01*
X134416400Y-136694541D02*
X134511638Y-136646922D01*
X134511638Y-136646922D02*
X134749733Y-136646922D01*
X134749733Y-136646922D02*
X134844971Y-136599303D01*
X135749733Y-136980256D02*
X135654495Y-137027875D01*
X135654495Y-137027875D02*
X135464019Y-137027875D01*
X135464019Y-137027875D02*
X135368781Y-136980256D01*
X135368781Y-136980256D02*
X135321162Y-136932636D01*
X135321162Y-136932636D02*
X135273543Y-136837398D01*
X135273543Y-136837398D02*
X135273543Y-136551684D01*
X135273543Y-136551684D02*
X135321162Y-136456446D01*
X135321162Y-136456446D02*
X135368781Y-136408827D01*
X135368781Y-136408827D02*
X135464019Y-136361208D01*
X135464019Y-136361208D02*
X135654495Y-136361208D01*
X135654495Y-136361208D02*
X135749733Y-136408827D01*
X136559257Y-136980256D02*
X136464019Y-137027875D01*
X136464019Y-137027875D02*
X136273543Y-137027875D01*
X136273543Y-137027875D02*
X136178305Y-136980256D01*
X136178305Y-136980256D02*
X136130686Y-136885017D01*
X136130686Y-136885017D02*
X136130686Y-136504065D01*
X136130686Y-136504065D02*
X136178305Y-136408827D01*
X136178305Y-136408827D02*
X136273543Y-136361208D01*
X136273543Y-136361208D02*
X136464019Y-136361208D01*
X136464019Y-136361208D02*
X136559257Y-136408827D01*
X136559257Y-136408827D02*
X136606876Y-136504065D01*
X136606876Y-136504065D02*
X136606876Y-136599303D01*
X136606876Y-136599303D02*
X136130686Y-136694541D01*
X137797353Y-137027875D02*
X137797353Y-136027875D01*
X137797353Y-136027875D02*
X138178305Y-136027875D01*
X138178305Y-136027875D02*
X138273543Y-136075494D01*
X138273543Y-136075494D02*
X138321162Y-136123113D01*
X138321162Y-136123113D02*
X138368781Y-136218351D01*
X138368781Y-136218351D02*
X138368781Y-136361208D01*
X138368781Y-136361208D02*
X138321162Y-136456446D01*
X138321162Y-136456446D02*
X138273543Y-136504065D01*
X138273543Y-136504065D02*
X138178305Y-136551684D01*
X138178305Y-136551684D02*
X137797353Y-136551684D01*
X138797353Y-137027875D02*
X138797353Y-136361208D01*
X138797353Y-136027875D02*
X138749734Y-136075494D01*
X138749734Y-136075494D02*
X138797353Y-136123113D01*
X138797353Y-136123113D02*
X138844972Y-136075494D01*
X138844972Y-136075494D02*
X138797353Y-136027875D01*
X138797353Y-136027875D02*
X138797353Y-136123113D01*
X139273543Y-136646922D02*
X140035448Y-136646922D01*
X140511638Y-137027875D02*
X140511638Y-136027875D01*
X140511638Y-136504065D02*
X141083066Y-136504065D01*
X141083066Y-137027875D02*
X141083066Y-136027875D01*
X141511638Y-136742160D02*
X141987828Y-136742160D01*
X141416400Y-137027875D02*
X141749733Y-136027875D01*
X141749733Y-136027875D02*
X142083066Y-137027875D01*
X142273543Y-136027875D02*
X142844971Y-136027875D01*
X142559257Y-137027875D02*
X142559257Y-136027875D01*
X143844972Y-136361208D02*
X144083067Y-137027875D01*
X144083067Y-137027875D02*
X144321162Y-136361208D01*
X145225924Y-137027875D02*
X144654496Y-137027875D01*
X144940210Y-137027875D02*
X144940210Y-136027875D01*
X144940210Y-136027875D02*
X144844972Y-136170732D01*
X144844972Y-136170732D02*
X144749734Y-136265970D01*
X144749734Y-136265970D02*
X144654496Y-136313589D01*
X145654496Y-136932636D02*
X145702115Y-136980256D01*
X145702115Y-136980256D02*
X145654496Y-137027875D01*
X145654496Y-137027875D02*
X145606877Y-136980256D01*
X145606877Y-136980256D02*
X145654496Y-136932636D01*
X145654496Y-136932636D02*
X145654496Y-137027875D01*
X146321162Y-136027875D02*
X146416400Y-136027875D01*
X146416400Y-136027875D02*
X146511638Y-136075494D01*
X146511638Y-136075494D02*
X146559257Y-136123113D01*
X146559257Y-136123113D02*
X146606876Y-136218351D01*
X146606876Y-136218351D02*
X146654495Y-136408827D01*
X146654495Y-136408827D02*
X146654495Y-136646922D01*
X146654495Y-136646922D02*
X146606876Y-136837398D01*
X146606876Y-136837398D02*
X146559257Y-136932636D01*
X146559257Y-136932636D02*
X146511638Y-136980256D01*
X146511638Y-136980256D02*
X146416400Y-137027875D01*
X146416400Y-137027875D02*
X146321162Y-137027875D01*
X146321162Y-137027875D02*
X146225924Y-136980256D01*
X146225924Y-136980256D02*
X146178305Y-136932636D01*
X146178305Y-136932636D02*
X146130686Y-136837398D01*
X146130686Y-136837398D02*
X146083067Y-136646922D01*
X146083067Y-136646922D02*
X146083067Y-136408827D01*
X146083067Y-136408827D02*
X146130686Y-136218351D01*
X146130686Y-136218351D02*
X146178305Y-136123113D01*
X146178305Y-136123113D02*
X146225924Y-136075494D01*
X146225924Y-136075494D02*
X146321162Y-136027875D01*
X122797350Y-138590200D02*
X122702112Y-138637819D01*
X122702112Y-138637819D02*
X122511636Y-138637819D01*
X122511636Y-138637819D02*
X122416398Y-138590200D01*
X122416398Y-138590200D02*
X122368779Y-138542580D01*
X122368779Y-138542580D02*
X122321160Y-138447342D01*
X122321160Y-138447342D02*
X122321160Y-138161628D01*
X122321160Y-138161628D02*
X122368779Y-138066390D01*
X122368779Y-138066390D02*
X122416398Y-138018771D01*
X122416398Y-138018771D02*
X122511636Y-137971152D01*
X122511636Y-137971152D02*
X122702112Y-137971152D01*
X122702112Y-137971152D02*
X122797350Y-138018771D01*
X123225922Y-138637819D02*
X123225922Y-137637819D01*
X123654493Y-138637819D02*
X123654493Y-138114009D01*
X123654493Y-138114009D02*
X123606874Y-138018771D01*
X123606874Y-138018771D02*
X123511636Y-137971152D01*
X123511636Y-137971152D02*
X123368779Y-137971152D01*
X123368779Y-137971152D02*
X123273541Y-138018771D01*
X123273541Y-138018771D02*
X123225922Y-138066390D01*
X124130684Y-138637819D02*
X124130684Y-137971152D01*
X124130684Y-138161628D02*
X124178303Y-138066390D01*
X124178303Y-138066390D02*
X124225922Y-138018771D01*
X124225922Y-138018771D02*
X124321160Y-137971152D01*
X124321160Y-137971152D02*
X124416398Y-137971152D01*
X124749732Y-138637819D02*
X124749732Y-137971152D01*
X124749732Y-137637819D02*
X124702113Y-137685438D01*
X124702113Y-137685438D02*
X124749732Y-137733057D01*
X124749732Y-137733057D02*
X124797351Y-137685438D01*
X124797351Y-137685438D02*
X124749732Y-137637819D01*
X124749732Y-137637819D02*
X124749732Y-137733057D01*
X125178303Y-138590200D02*
X125273541Y-138637819D01*
X125273541Y-138637819D02*
X125464017Y-138637819D01*
X125464017Y-138637819D02*
X125559255Y-138590200D01*
X125559255Y-138590200D02*
X125606874Y-138494961D01*
X125606874Y-138494961D02*
X125606874Y-138447342D01*
X125606874Y-138447342D02*
X125559255Y-138352104D01*
X125559255Y-138352104D02*
X125464017Y-138304485D01*
X125464017Y-138304485D02*
X125321160Y-138304485D01*
X125321160Y-138304485D02*
X125225922Y-138256866D01*
X125225922Y-138256866D02*
X125178303Y-138161628D01*
X125178303Y-138161628D02*
X125178303Y-138114009D01*
X125178303Y-138114009D02*
X125225922Y-138018771D01*
X125225922Y-138018771D02*
X125321160Y-137971152D01*
X125321160Y-137971152D02*
X125464017Y-137971152D01*
X125464017Y-137971152D02*
X125559255Y-138018771D01*
X126464017Y-138637819D02*
X126464017Y-137637819D01*
X126464017Y-138590200D02*
X126368779Y-138637819D01*
X126368779Y-138637819D02*
X126178303Y-138637819D01*
X126178303Y-138637819D02*
X126083065Y-138590200D01*
X126083065Y-138590200D02*
X126035446Y-138542580D01*
X126035446Y-138542580D02*
X125987827Y-138447342D01*
X125987827Y-138447342D02*
X125987827Y-138161628D01*
X125987827Y-138161628D02*
X126035446Y-138066390D01*
X126035446Y-138066390D02*
X126083065Y-138018771D01*
X126083065Y-138018771D02*
X126178303Y-137971152D01*
X126178303Y-137971152D02*
X126368779Y-137971152D01*
X126368779Y-137971152D02*
X126464017Y-138018771D01*
X127368779Y-138637819D02*
X127368779Y-138114009D01*
X127368779Y-138114009D02*
X127321160Y-138018771D01*
X127321160Y-138018771D02*
X127225922Y-137971152D01*
X127225922Y-137971152D02*
X127035446Y-137971152D01*
X127035446Y-137971152D02*
X126940208Y-138018771D01*
X127368779Y-138590200D02*
X127273541Y-138637819D01*
X127273541Y-138637819D02*
X127035446Y-138637819D01*
X127035446Y-138637819D02*
X126940208Y-138590200D01*
X126940208Y-138590200D02*
X126892589Y-138494961D01*
X126892589Y-138494961D02*
X126892589Y-138399723D01*
X126892589Y-138399723D02*
X126940208Y-138304485D01*
X126940208Y-138304485D02*
X127035446Y-138256866D01*
X127035446Y-138256866D02*
X127273541Y-138256866D01*
X127273541Y-138256866D02*
X127368779Y-138209247D01*
X128273541Y-137971152D02*
X128273541Y-138637819D01*
X127844970Y-137971152D02*
X127844970Y-138494961D01*
X127844970Y-138494961D02*
X127892589Y-138590200D01*
X127892589Y-138590200D02*
X127987827Y-138637819D01*
X127987827Y-138637819D02*
X128130684Y-138637819D01*
X128130684Y-138637819D02*
X128225922Y-138590200D01*
X128225922Y-138590200D02*
X128273541Y-138542580D01*
X128749732Y-137971152D02*
X128749732Y-138637819D01*
X128749732Y-138066390D02*
X128797351Y-138018771D01*
X128797351Y-138018771D02*
X128892589Y-137971152D01*
X128892589Y-137971152D02*
X129035446Y-137971152D01*
X129035446Y-137971152D02*
X129130684Y-138018771D01*
X129130684Y-138018771D02*
X129178303Y-138114009D01*
X129178303Y-138114009D02*
X129178303Y-138637819D01*
X130273541Y-138161628D02*
X130225922Y-138114009D01*
X130225922Y-138114009D02*
X130130684Y-138066390D01*
X130130684Y-138066390D02*
X130035446Y-138066390D01*
X130035446Y-138066390D02*
X129940208Y-138114009D01*
X129940208Y-138114009D02*
X129892589Y-138161628D01*
X129892589Y-138161628D02*
X129844970Y-138256866D01*
X129844970Y-138256866D02*
X129844970Y-138352104D01*
X129844970Y-138352104D02*
X129892589Y-138447342D01*
X129892589Y-138447342D02*
X129940208Y-138494961D01*
X129940208Y-138494961D02*
X130035446Y-138542580D01*
X130035446Y-138542580D02*
X130130684Y-138542580D01*
X130130684Y-138542580D02*
X130225922Y-138494961D01*
X130225922Y-138494961D02*
X130273541Y-138447342D01*
X130273541Y-138066390D02*
X130273541Y-138447342D01*
X130273541Y-138447342D02*
X130321160Y-138494961D01*
X130321160Y-138494961D02*
X130368779Y-138494961D01*
X130368779Y-138494961D02*
X130464018Y-138447342D01*
X130464018Y-138447342D02*
X130511637Y-138352104D01*
X130511637Y-138352104D02*
X130511637Y-138114009D01*
X130511637Y-138114009D02*
X130416399Y-137971152D01*
X130416399Y-137971152D02*
X130273541Y-137875914D01*
X130273541Y-137875914D02*
X130083065Y-137828295D01*
X130083065Y-137828295D02*
X129892589Y-137875914D01*
X129892589Y-137875914D02*
X129749732Y-137971152D01*
X129749732Y-137971152D02*
X129654494Y-138114009D01*
X129654494Y-138114009D02*
X129606875Y-138304485D01*
X129606875Y-138304485D02*
X129654494Y-138494961D01*
X129654494Y-138494961D02*
X129749732Y-138637819D01*
X129749732Y-138637819D02*
X129892589Y-138733057D01*
X129892589Y-138733057D02*
X130083065Y-138780676D01*
X130083065Y-138780676D02*
X130273541Y-138733057D01*
X130273541Y-138733057D02*
X130416399Y-138637819D01*
X131368779Y-137971152D02*
X131368779Y-138780676D01*
X131368779Y-138780676D02*
X131321160Y-138875914D01*
X131321160Y-138875914D02*
X131273541Y-138923533D01*
X131273541Y-138923533D02*
X131178303Y-138971152D01*
X131178303Y-138971152D02*
X131035446Y-138971152D01*
X131035446Y-138971152D02*
X130940208Y-138923533D01*
X131368779Y-138590200D02*
X131273541Y-138637819D01*
X131273541Y-138637819D02*
X131083065Y-138637819D01*
X131083065Y-138637819D02*
X130987827Y-138590200D01*
X130987827Y-138590200D02*
X130940208Y-138542580D01*
X130940208Y-138542580D02*
X130892589Y-138447342D01*
X130892589Y-138447342D02*
X130892589Y-138161628D01*
X130892589Y-138161628D02*
X130940208Y-138066390D01*
X130940208Y-138066390D02*
X130987827Y-138018771D01*
X130987827Y-138018771D02*
X131083065Y-137971152D01*
X131083065Y-137971152D02*
X131273541Y-137971152D01*
X131273541Y-137971152D02*
X131368779Y-138018771D01*
X131844970Y-138637819D02*
X131844970Y-137971152D01*
X131844970Y-138066390D02*
X131892589Y-138018771D01*
X131892589Y-138018771D02*
X131987827Y-137971152D01*
X131987827Y-137971152D02*
X132130684Y-137971152D01*
X132130684Y-137971152D02*
X132225922Y-138018771D01*
X132225922Y-138018771D02*
X132273541Y-138114009D01*
X132273541Y-138114009D02*
X132273541Y-138637819D01*
X132273541Y-138114009D02*
X132321160Y-138018771D01*
X132321160Y-138018771D02*
X132416398Y-137971152D01*
X132416398Y-137971152D02*
X132559255Y-137971152D01*
X132559255Y-137971152D02*
X132654494Y-138018771D01*
X132654494Y-138018771D02*
X132702113Y-138114009D01*
X132702113Y-138114009D02*
X132702113Y-138637819D01*
X133606874Y-138637819D02*
X133606874Y-138114009D01*
X133606874Y-138114009D02*
X133559255Y-138018771D01*
X133559255Y-138018771D02*
X133464017Y-137971152D01*
X133464017Y-137971152D02*
X133273541Y-137971152D01*
X133273541Y-137971152D02*
X133178303Y-138018771D01*
X133606874Y-138590200D02*
X133511636Y-138637819D01*
X133511636Y-138637819D02*
X133273541Y-138637819D01*
X133273541Y-138637819D02*
X133178303Y-138590200D01*
X133178303Y-138590200D02*
X133130684Y-138494961D01*
X133130684Y-138494961D02*
X133130684Y-138399723D01*
X133130684Y-138399723D02*
X133178303Y-138304485D01*
X133178303Y-138304485D02*
X133273541Y-138256866D01*
X133273541Y-138256866D02*
X133511636Y-138256866D01*
X133511636Y-138256866D02*
X133606874Y-138209247D01*
X134083065Y-138637819D02*
X134083065Y-137971152D01*
X134083065Y-137637819D02*
X134035446Y-137685438D01*
X134035446Y-137685438D02*
X134083065Y-137733057D01*
X134083065Y-137733057D02*
X134130684Y-137685438D01*
X134130684Y-137685438D02*
X134083065Y-137637819D01*
X134083065Y-137637819D02*
X134083065Y-137733057D01*
X134702112Y-138637819D02*
X134606874Y-138590200D01*
X134606874Y-138590200D02*
X134559255Y-138494961D01*
X134559255Y-138494961D02*
X134559255Y-137637819D01*
X135083065Y-138542580D02*
X135130684Y-138590200D01*
X135130684Y-138590200D02*
X135083065Y-138637819D01*
X135083065Y-138637819D02*
X135035446Y-138590200D01*
X135035446Y-138590200D02*
X135083065Y-138542580D01*
X135083065Y-138542580D02*
X135083065Y-138637819D01*
X135987826Y-138590200D02*
X135892588Y-138637819D01*
X135892588Y-138637819D02*
X135702112Y-138637819D01*
X135702112Y-138637819D02*
X135606874Y-138590200D01*
X135606874Y-138590200D02*
X135559255Y-138542580D01*
X135559255Y-138542580D02*
X135511636Y-138447342D01*
X135511636Y-138447342D02*
X135511636Y-138161628D01*
X135511636Y-138161628D02*
X135559255Y-138066390D01*
X135559255Y-138066390D02*
X135606874Y-138018771D01*
X135606874Y-138018771D02*
X135702112Y-137971152D01*
X135702112Y-137971152D02*
X135892588Y-137971152D01*
X135892588Y-137971152D02*
X135987826Y-138018771D01*
X136559255Y-138637819D02*
X136464017Y-138590200D01*
X136464017Y-138590200D02*
X136416398Y-138542580D01*
X136416398Y-138542580D02*
X136368779Y-138447342D01*
X136368779Y-138447342D02*
X136368779Y-138161628D01*
X136368779Y-138161628D02*
X136416398Y-138066390D01*
X136416398Y-138066390D02*
X136464017Y-138018771D01*
X136464017Y-138018771D02*
X136559255Y-137971152D01*
X136559255Y-137971152D02*
X136702112Y-137971152D01*
X136702112Y-137971152D02*
X136797350Y-138018771D01*
X136797350Y-138018771D02*
X136844969Y-138066390D01*
X136844969Y-138066390D02*
X136892588Y-138161628D01*
X136892588Y-138161628D02*
X136892588Y-138447342D01*
X136892588Y-138447342D02*
X136844969Y-138542580D01*
X136844969Y-138542580D02*
X136797350Y-138590200D01*
X136797350Y-138590200D02*
X136702112Y-138637819D01*
X136702112Y-138637819D02*
X136559255Y-138637819D01*
X137321160Y-138637819D02*
X137321160Y-137971152D01*
X137321160Y-138066390D02*
X137368779Y-138018771D01*
X137368779Y-138018771D02*
X137464017Y-137971152D01*
X137464017Y-137971152D02*
X137606874Y-137971152D01*
X137606874Y-137971152D02*
X137702112Y-138018771D01*
X137702112Y-138018771D02*
X137749731Y-138114009D01*
X137749731Y-138114009D02*
X137749731Y-138637819D01*
X137749731Y-138114009D02*
X137797350Y-138018771D01*
X137797350Y-138018771D02*
X137892588Y-137971152D01*
X137892588Y-137971152D02*
X138035445Y-137971152D01*
X138035445Y-137971152D02*
X138130684Y-138018771D01*
X138130684Y-138018771D02*
X138178303Y-138114009D01*
X138178303Y-138114009D02*
X138178303Y-138637819D01*
D12*
X141118997Y-97800309D02*
X140952331Y-97562214D01*
X140833283Y-97800309D02*
X140833283Y-97300309D01*
X140833283Y-97300309D02*
X141023759Y-97300309D01*
X141023759Y-97300309D02*
X141071378Y-97324119D01*
X141071378Y-97324119D02*
X141095188Y-97347928D01*
X141095188Y-97347928D02*
X141118997Y-97395547D01*
X141118997Y-97395547D02*
X141118997Y-97466976D01*
X141118997Y-97466976D02*
X141095188Y-97514595D01*
X141095188Y-97514595D02*
X141071378Y-97538404D01*
X141071378Y-97538404D02*
X141023759Y-97562214D01*
X141023759Y-97562214D02*
X140833283Y-97562214D01*
X141285664Y-97300309D02*
X141618997Y-97800309D01*
X141618997Y-97300309D02*
X141285664Y-97800309D01*
D11*
X148368779Y-100806866D02*
X149130684Y-100806866D01*
X148749731Y-101187819D02*
X148749731Y-100425914D01*
G36*
X180938344Y-103588097D02*
G01*
X180968751Y-103618504D01*
X181003009Y-103687020D01*
X181003009Y-103927648D01*
X180676819Y-103927648D01*
X180676819Y-103687020D01*
X180711077Y-103618504D01*
X180741484Y-103588097D01*
X180810000Y-103553839D01*
X180869828Y-103553839D01*
X180938344Y-103588097D01*
G37*
G36*
X181462153Y-103540478D02*
G01*
X181492561Y-103570885D01*
X181526819Y-103639401D01*
X181526819Y-103927648D01*
X181153009Y-103927648D01*
X181153009Y-103681485D01*
X181191180Y-103566971D01*
X181217674Y-103540478D01*
X181286190Y-103506220D01*
X181393637Y-103506220D01*
X181462153Y-103540478D01*
G37*
G36*
X182121263Y-105569712D02*
G01*
X180320469Y-105569712D01*
X180320469Y-105145506D01*
X180431580Y-105145506D01*
X180431580Y-105383601D01*
X180433021Y-105398233D01*
X180444220Y-105425269D01*
X180464912Y-105445961D01*
X180491948Y-105457160D01*
X180506580Y-105458601D01*
X181935152Y-105458601D01*
X181949784Y-105457160D01*
X181976820Y-105445961D01*
X181997512Y-105425269D01*
X182008711Y-105398233D01*
X182010152Y-105383601D01*
X182010152Y-105145506D01*
X182008711Y-105130874D01*
X181997512Y-105103838D01*
X181976820Y-105083146D01*
X181949784Y-105071947D01*
X181920520Y-105071947D01*
X181893484Y-105083146D01*
X181872792Y-105103838D01*
X181861593Y-105130874D01*
X181860152Y-105145506D01*
X181860152Y-105308601D01*
X180581580Y-105308601D01*
X180581580Y-105145506D01*
X180580139Y-105130874D01*
X180568940Y-105103838D01*
X180548248Y-105083146D01*
X180521212Y-105071947D01*
X180491948Y-105071947D01*
X180464912Y-105083146D01*
X180444220Y-105103838D01*
X180433021Y-105130874D01*
X180431580Y-105145506D01*
X180320469Y-105145506D01*
X180320469Y-103669315D01*
X180526819Y-103669315D01*
X180526819Y-104002648D01*
X180528260Y-104017280D01*
X180539459Y-104044316D01*
X180560151Y-104065008D01*
X180587187Y-104076207D01*
X180601819Y-104077648D01*
X181601819Y-104077648D01*
X181616451Y-104076207D01*
X181643487Y-104065008D01*
X181664179Y-104044316D01*
X181675378Y-104017280D01*
X181676819Y-104002648D01*
X181676819Y-103621696D01*
X181675378Y-103607064D01*
X181674347Y-103604575D01*
X181674156Y-103601886D01*
X181668901Y-103588155D01*
X181621282Y-103492917D01*
X181617317Y-103486617D01*
X181616560Y-103484790D01*
X181614872Y-103482733D01*
X181613450Y-103480474D01*
X181611950Y-103479173D01*
X181607232Y-103473424D01*
X181559612Y-103425805D01*
X181553863Y-103421087D01*
X181552564Y-103419589D01*
X181550305Y-103418167D01*
X181548247Y-103416478D01*
X181546417Y-103415720D01*
X181540121Y-103411757D01*
X181444883Y-103364138D01*
X181431151Y-103358883D01*
X181428463Y-103358692D01*
X181425974Y-103357661D01*
X181411342Y-103356220D01*
X181268485Y-103356220D01*
X181253853Y-103357661D01*
X181251364Y-103358691D01*
X181248675Y-103358883D01*
X181234944Y-103364138D01*
X181139706Y-103411757D01*
X181133406Y-103415721D01*
X181131579Y-103416479D01*
X181129522Y-103418167D01*
X181127263Y-103419589D01*
X181125963Y-103421087D01*
X181120214Y-103425806D01*
X181072595Y-103473425D01*
X181063268Y-103484790D01*
X181062236Y-103487280D01*
X181060471Y-103489316D01*
X181057762Y-103495383D01*
X181035804Y-103473425D01*
X181030054Y-103468706D01*
X181028755Y-103467208D01*
X181026495Y-103465786D01*
X181024439Y-103464098D01*
X181022611Y-103463340D01*
X181016312Y-103459376D01*
X180921074Y-103411757D01*
X180907342Y-103406502D01*
X180904654Y-103406311D01*
X180902165Y-103405280D01*
X180887533Y-103403839D01*
X180792295Y-103403839D01*
X180777663Y-103405280D01*
X180775174Y-103406310D01*
X180772485Y-103406502D01*
X180758754Y-103411757D01*
X180663516Y-103459376D01*
X180657216Y-103463340D01*
X180655389Y-103464098D01*
X180653332Y-103465786D01*
X180651073Y-103467208D01*
X180649773Y-103468706D01*
X180644024Y-103473425D01*
X180596405Y-103521044D01*
X180591686Y-103526793D01*
X180590188Y-103528093D01*
X180588766Y-103530352D01*
X180587078Y-103532409D01*
X180586320Y-103534236D01*
X180582356Y-103540536D01*
X180534737Y-103635774D01*
X180529482Y-103649506D01*
X180529291Y-103652193D01*
X180528260Y-103654683D01*
X180526819Y-103669315D01*
X180320469Y-103669315D01*
X180320469Y-102097886D01*
X180431580Y-102097886D01*
X180431580Y-102335981D01*
X180433021Y-102350613D01*
X180444220Y-102377649D01*
X180464912Y-102398341D01*
X180491948Y-102409540D01*
X180521212Y-102409540D01*
X180548248Y-102398341D01*
X180568940Y-102377649D01*
X180580139Y-102350613D01*
X180581580Y-102335981D01*
X180581580Y-102172886D01*
X181860152Y-102172886D01*
X181860152Y-102335981D01*
X181861593Y-102350613D01*
X181872792Y-102377649D01*
X181893484Y-102398341D01*
X181920520Y-102409540D01*
X181949784Y-102409540D01*
X181976820Y-102398341D01*
X181997512Y-102377649D01*
X182008711Y-102350613D01*
X182010152Y-102335981D01*
X182010152Y-102097886D01*
X182008711Y-102083254D01*
X181997512Y-102056218D01*
X181976820Y-102035526D01*
X181949784Y-102024327D01*
X181935152Y-102022886D01*
X180506580Y-102022886D01*
X180491948Y-102024327D01*
X180464912Y-102035526D01*
X180444220Y-102056218D01*
X180433021Y-102083254D01*
X180431580Y-102097886D01*
X180320469Y-102097886D01*
X180320469Y-101911775D01*
X182121263Y-101911775D01*
X182121263Y-105569712D01*
G37*
D10*
G36*
X181207664Y-108786758D02*
G01*
X180743116Y-108631909D01*
X181207664Y-108477059D01*
X181207664Y-108786758D01*
G37*
G36*
X182057823Y-110374449D02*
G01*
X180287029Y-110374449D01*
X180287029Y-109965243D01*
X180398140Y-109965243D01*
X180398140Y-110203338D01*
X180402707Y-110226299D01*
X180435179Y-110258771D01*
X180458140Y-110263338D01*
X181886712Y-110263338D01*
X181909673Y-110258771D01*
X181942145Y-110226299D01*
X181946712Y-110203338D01*
X181946712Y-109965243D01*
X181942145Y-109942282D01*
X181909673Y-109909810D01*
X181863751Y-109909810D01*
X181831279Y-109942282D01*
X181826712Y-109965243D01*
X181826712Y-110143338D01*
X180518140Y-110143338D01*
X180518140Y-109965243D01*
X180513573Y-109942282D01*
X180481101Y-109909810D01*
X180435179Y-109909810D01*
X180402707Y-109942282D01*
X180398140Y-109965243D01*
X180287029Y-109965243D01*
X180287029Y-108627656D01*
X180493530Y-108627656D01*
X180494947Y-108631909D01*
X180493530Y-108636162D01*
X180502036Y-108653175D01*
X180508052Y-108671221D01*
X180512062Y-108673226D01*
X180514067Y-108677236D01*
X180534405Y-108688830D01*
X181534405Y-109022163D01*
X181557632Y-109025091D01*
X181598706Y-109004554D01*
X181613228Y-108960989D01*
X181592691Y-108919914D01*
X181572352Y-108908321D01*
X181327664Y-108826758D01*
X181327664Y-108437059D01*
X181572352Y-108355497D01*
X181592691Y-108343904D01*
X181613228Y-108302829D01*
X181598706Y-108259264D01*
X181557632Y-108238727D01*
X181534405Y-108241655D01*
X180534405Y-108574988D01*
X180514067Y-108586582D01*
X180512062Y-108590592D01*
X180508052Y-108592597D01*
X180502036Y-108610642D01*
X180493530Y-108627656D01*
X180287029Y-108627656D01*
X180287029Y-107060480D01*
X180398140Y-107060480D01*
X180398140Y-107298575D01*
X180402707Y-107321536D01*
X180435179Y-107354008D01*
X180481101Y-107354008D01*
X180513573Y-107321536D01*
X180518140Y-107298575D01*
X180518140Y-107120480D01*
X181826712Y-107120480D01*
X181826712Y-107298575D01*
X181831279Y-107321536D01*
X181863751Y-107354008D01*
X181909673Y-107354008D01*
X181942145Y-107321536D01*
X181946712Y-107298575D01*
X181946712Y-107060480D01*
X181942145Y-107037519D01*
X181909673Y-107005047D01*
X181886712Y-107000480D01*
X180458140Y-107000480D01*
X180435179Y-107005047D01*
X180402707Y-107037519D01*
X180398140Y-107060480D01*
X180287029Y-107060480D01*
X180287029Y-106889369D01*
X182057823Y-106889369D01*
X182057823Y-110374449D01*
G37*
D11*
G36*
X157978701Y-99157263D02*
G01*
X149130287Y-99157263D01*
X149130287Y-97542580D01*
X149241398Y-97542580D01*
X149241398Y-98971152D01*
X149242839Y-98985784D01*
X149254038Y-99012820D01*
X149274730Y-99033512D01*
X149301766Y-99044711D01*
X149316398Y-99046152D01*
X149554493Y-99046152D01*
X149569125Y-99044711D01*
X149596161Y-99033512D01*
X149616853Y-99012820D01*
X149628052Y-98985784D01*
X149628052Y-98956520D01*
X149616853Y-98929484D01*
X149596161Y-98908792D01*
X149569125Y-98897593D01*
X149554493Y-98896152D01*
X149391398Y-98896152D01*
X149391398Y-98121249D01*
X150575082Y-98121249D01*
X150576173Y-98124864D01*
X150576173Y-98128640D01*
X150580367Y-98138765D01*
X150583535Y-98149265D01*
X150585926Y-98152188D01*
X150587372Y-98155677D01*
X150595125Y-98163430D01*
X150602066Y-98171913D01*
X150605392Y-98173697D01*
X150608064Y-98176369D01*
X150618191Y-98180564D01*
X150627853Y-98185747D01*
X150631612Y-98186122D01*
X150635101Y-98187568D01*
X150646062Y-98187568D01*
X150656972Y-98188659D01*
X150660588Y-98187568D01*
X150664363Y-98187568D01*
X150674488Y-98183373D01*
X150684988Y-98180206D01*
X150687911Y-98177814D01*
X150691400Y-98176369D01*
X150702765Y-98167042D01*
X150741778Y-98128029D01*
X150810294Y-98093771D01*
X151012979Y-98093771D01*
X151081495Y-98128029D01*
X151111902Y-98158436D01*
X151146160Y-98226952D01*
X151146160Y-98429637D01*
X151111901Y-98498153D01*
X151081494Y-98528561D01*
X151012979Y-98562819D01*
X150810294Y-98562819D01*
X150741778Y-98528561D01*
X150702766Y-98489548D01*
X150691400Y-98480220D01*
X150664364Y-98469021D01*
X150635101Y-98469021D01*
X150608065Y-98480219D01*
X150587372Y-98500912D01*
X150576173Y-98527948D01*
X150576173Y-98557211D01*
X150587371Y-98584247D01*
X150596698Y-98595612D01*
X150644317Y-98643232D01*
X150650066Y-98647950D01*
X150651367Y-98649450D01*
X150653626Y-98650872D01*
X150655683Y-98652560D01*
X150657510Y-98653317D01*
X150663810Y-98657282D01*
X150759048Y-98704901D01*
X150772779Y-98710156D01*
X150775468Y-98710347D01*
X150777957Y-98711378D01*
X150792589Y-98712819D01*
X151030684Y-98712819D01*
X151045316Y-98711378D01*
X151047805Y-98710346D01*
X151050493Y-98710156D01*
X151064225Y-98704901D01*
X151159463Y-98657282D01*
X151165762Y-98653317D01*
X151167590Y-98652560D01*
X151169646Y-98650872D01*
X151171906Y-98649450D01*
X151173206Y-98647950D01*
X151178956Y-98643232D01*
X151226574Y-98595613D01*
X151231292Y-98589863D01*
X151232791Y-98588564D01*
X151234212Y-98586305D01*
X151235902Y-98584247D01*
X151236659Y-98582417D01*
X151240623Y-98576121D01*
X151288242Y-98480883D01*
X151293497Y-98467152D01*
X151293688Y-98464462D01*
X151294719Y-98461974D01*
X151296160Y-98447342D01*
X151296160Y-98209247D01*
X151294719Y-98194615D01*
X151293688Y-98192126D01*
X151293497Y-98189437D01*
X151288242Y-98175706D01*
X151240623Y-98080468D01*
X151236658Y-98074168D01*
X151235901Y-98072341D01*
X151234212Y-98070284D01*
X151232791Y-98068025D01*
X151231292Y-98066725D01*
X151226574Y-98060976D01*
X151178955Y-98013357D01*
X151173205Y-98008638D01*
X151171906Y-98007140D01*
X151169646Y-98005718D01*
X151167590Y-98004030D01*
X151165762Y-98003272D01*
X151159463Y-97999308D01*
X151125073Y-97982113D01*
X151480299Y-97982113D01*
X151483863Y-97996377D01*
X151721958Y-98663044D01*
X151728237Y-98676339D01*
X151730763Y-98679129D01*
X151732375Y-98682532D01*
X151740510Y-98689897D01*
X151747876Y-98698033D01*
X151751278Y-98699644D01*
X151754069Y-98702171D01*
X151764406Y-98705862D01*
X151774322Y-98710560D01*
X151778080Y-98710746D01*
X151781628Y-98712014D01*
X151792589Y-98711468D01*
X151803550Y-98712014D01*
X151807097Y-98710746D01*
X151810856Y-98710560D01*
X151820771Y-98705862D01*
X151831109Y-98702171D01*
X151833899Y-98699644D01*
X151837302Y-98698033D01*
X151844670Y-98689893D01*
X151852803Y-98682531D01*
X151854413Y-98679130D01*
X151856941Y-98676339D01*
X151863220Y-98663044D01*
X152101315Y-97996377D01*
X152104879Y-97982113D01*
X152103425Y-97952886D01*
X152090898Y-97926440D01*
X152069204Y-97906800D01*
X152041645Y-97896957D01*
X152012417Y-97898411D01*
X151985971Y-97910938D01*
X151966332Y-97932632D01*
X151960053Y-97945927D01*
X151792589Y-98414826D01*
X151625125Y-97945927D01*
X151618846Y-97932632D01*
X151599207Y-97910938D01*
X151572761Y-97898411D01*
X151543533Y-97896957D01*
X151515974Y-97906800D01*
X151494280Y-97926439D01*
X151481753Y-97952885D01*
X151480299Y-97982113D01*
X151125073Y-97982113D01*
X151064225Y-97951689D01*
X151050493Y-97946434D01*
X151047805Y-97946243D01*
X151045316Y-97945212D01*
X151030684Y-97943771D01*
X150792589Y-97943771D01*
X150777957Y-97945212D01*
X150775468Y-97946242D01*
X150772779Y-97946434D01*
X150759048Y-97951689D01*
X150740406Y-97961009D01*
X150765225Y-97712819D01*
X151173541Y-97712819D01*
X151188173Y-97711378D01*
X151215209Y-97700179D01*
X151235901Y-97679487D01*
X151247100Y-97652451D01*
X151247100Y-97623187D01*
X151235901Y-97596151D01*
X151215209Y-97575459D01*
X151188173Y-97564260D01*
X151173541Y-97562819D01*
X150697351Y-97562819D01*
X150691939Y-97563351D01*
X150690111Y-97563169D01*
X150688324Y-97563707D01*
X150682719Y-97564260D01*
X150672592Y-97568454D01*
X150662095Y-97571622D01*
X150659171Y-97574013D01*
X150655683Y-97575459D01*
X150647929Y-97583212D01*
X150639447Y-97590153D01*
X150637662Y-97593479D01*
X150634991Y-97596151D01*
X150630795Y-97606280D01*
X150625613Y-97615940D01*
X150624505Y-97621464D01*
X150623792Y-97623187D01*
X150623792Y-97625023D01*
X150622723Y-97630356D01*
X150575104Y-98106546D01*
X150575082Y-98121249D01*
X149391398Y-98121249D01*
X149391398Y-97617580D01*
X149554493Y-97617580D01*
X149569125Y-97616139D01*
X149596161Y-97604940D01*
X149616853Y-97584248D01*
X149628052Y-97557212D01*
X149628052Y-97527948D01*
X153004745Y-97527948D01*
X153004745Y-97557212D01*
X153015944Y-97584248D01*
X153036636Y-97604940D01*
X153063672Y-97616139D01*
X153078304Y-97617580D01*
X153241399Y-97617580D01*
X153241399Y-98896152D01*
X153078304Y-98896152D01*
X153063672Y-98897593D01*
X153036636Y-98908792D01*
X153015944Y-98929484D01*
X153004745Y-98956520D01*
X153004745Y-98985784D01*
X153015944Y-99012820D01*
X153036636Y-99033512D01*
X153063672Y-99044711D01*
X153078304Y-99046152D01*
X153316399Y-99046152D01*
X153331031Y-99044711D01*
X153358067Y-99033512D01*
X153378759Y-99012820D01*
X153389958Y-98985784D01*
X153391399Y-98971152D01*
X153391399Y-97542580D01*
X153812828Y-97542580D01*
X153812828Y-98971152D01*
X153814269Y-98985784D01*
X153825468Y-99012820D01*
X153846160Y-99033512D01*
X153873196Y-99044711D01*
X153887828Y-99046152D01*
X154125923Y-99046152D01*
X154140555Y-99044711D01*
X154167591Y-99033512D01*
X154188283Y-99012820D01*
X154199482Y-98985784D01*
X154199482Y-98956520D01*
X154188283Y-98929484D01*
X154167591Y-98908792D01*
X154140555Y-98897593D01*
X154125923Y-98896152D01*
X153962828Y-98896152D01*
X153962828Y-97623187D01*
X154338079Y-97623187D01*
X154338079Y-97652451D01*
X154349278Y-97679487D01*
X154369970Y-97700179D01*
X154397006Y-97711378D01*
X154411638Y-97712819D01*
X154865403Y-97712819D01*
X154640909Y-97969383D01*
X154636387Y-97975707D01*
X154634992Y-97977103D01*
X154634443Y-97978426D01*
X154632358Y-97981344D01*
X154628456Y-97992881D01*
X154623793Y-98004139D01*
X154623793Y-98006669D01*
X154622983Y-98009065D01*
X154623793Y-98021218D01*
X154623793Y-98033403D01*
X154624760Y-98035739D01*
X154624929Y-98038263D01*
X154630331Y-98049188D01*
X154634992Y-98060439D01*
X154636778Y-98062225D01*
X154637901Y-98064495D01*
X154647073Y-98072520D01*
X154655684Y-98081131D01*
X154658020Y-98082099D01*
X154659925Y-98083765D01*
X154671462Y-98087666D01*
X154682720Y-98092330D01*
X154686290Y-98092681D01*
X154687646Y-98093140D01*
X154689613Y-98093008D01*
X154697352Y-98093771D01*
X154822504Y-98093771D01*
X154891020Y-98128029D01*
X154921427Y-98158436D01*
X154955685Y-98226952D01*
X154955685Y-98429637D01*
X154921426Y-98498153D01*
X154891019Y-98528561D01*
X154822504Y-98562819D01*
X154572200Y-98562819D01*
X154503684Y-98528561D01*
X154464672Y-98489548D01*
X154453306Y-98480220D01*
X154426270Y-98469021D01*
X154397007Y-98469021D01*
X154369971Y-98480219D01*
X154349278Y-98500912D01*
X154338079Y-98527948D01*
X154338079Y-98557211D01*
X154349277Y-98584247D01*
X154358604Y-98595612D01*
X154406223Y-98643232D01*
X154411972Y-98647950D01*
X154413273Y-98649450D01*
X154415532Y-98650872D01*
X154417589Y-98652560D01*
X154419416Y-98653317D01*
X154425716Y-98657282D01*
X154520954Y-98704901D01*
X154534685Y-98710156D01*
X154537374Y-98710347D01*
X154539863Y-98711378D01*
X154554495Y-98712819D01*
X154840209Y-98712819D01*
X154854841Y-98711378D01*
X154857330Y-98710346D01*
X154860018Y-98710156D01*
X154873750Y-98704901D01*
X154968988Y-98657282D01*
X154975287Y-98653317D01*
X154977115Y-98652560D01*
X154979171Y-98650872D01*
X154981431Y-98649450D01*
X154982731Y-98647950D01*
X154988481Y-98643232D01*
X155036099Y-98595613D01*
X155040817Y-98589863D01*
X155042316Y-98588564D01*
X155043737Y-98586305D01*
X155045427Y-98584247D01*
X155046184Y-98582417D01*
X155050148Y-98576121D01*
X155050424Y-98575569D01*
X155338079Y-98575569D01*
X155338079Y-98604832D01*
X155343116Y-98616991D01*
X155349278Y-98631868D01*
X155358605Y-98643233D01*
X155406224Y-98690852D01*
X155417589Y-98700179D01*
X155444625Y-98711378D01*
X155444626Y-98711378D01*
X155473888Y-98711378D01*
X155473889Y-98711378D01*
X155500925Y-98700179D01*
X155512290Y-98690852D01*
X155559909Y-98643233D01*
X155569236Y-98631868D01*
X155580435Y-98604832D01*
X155580435Y-98575569D01*
X155580389Y-98575459D01*
X155569237Y-98548533D01*
X155559909Y-98537167D01*
X155512291Y-98489548D01*
X155500925Y-98480220D01*
X155500924Y-98480219D01*
X155485087Y-98473659D01*
X155473889Y-98469021D01*
X155473888Y-98469021D01*
X155444625Y-98469021D01*
X155433427Y-98473659D01*
X155417590Y-98480219D01*
X155417589Y-98480220D01*
X155406223Y-98489548D01*
X155358604Y-98537168D01*
X155349277Y-98548533D01*
X155338079Y-98575569D01*
X155050424Y-98575569D01*
X155097767Y-98480883D01*
X155103022Y-98467152D01*
X155103213Y-98464462D01*
X155104244Y-98461974D01*
X155105685Y-98447342D01*
X155105685Y-98209247D01*
X155104244Y-98194615D01*
X155103213Y-98192126D01*
X155103022Y-98189437D01*
X155097767Y-98175706D01*
X155050148Y-98080468D01*
X155046183Y-98074168D01*
X155045426Y-98072341D01*
X155043737Y-98070284D01*
X155042316Y-98068025D01*
X155040817Y-98066725D01*
X155036099Y-98060976D01*
X154988480Y-98013357D01*
X154982730Y-98008638D01*
X154981431Y-98007140D01*
X154979171Y-98005718D01*
X154977115Y-98004030D01*
X154975287Y-98003272D01*
X154968988Y-97999308D01*
X154873750Y-97951689D01*
X154860232Y-97946516D01*
X155087128Y-97687207D01*
X155091649Y-97680882D01*
X155093045Y-97679487D01*
X155093593Y-97678163D01*
X155095679Y-97675246D01*
X155099580Y-97663708D01*
X155104244Y-97652451D01*
X155104244Y-97649920D01*
X155105054Y-97647525D01*
X155104244Y-97635371D01*
X155104244Y-97623187D01*
X155766650Y-97623187D01*
X155766650Y-97652451D01*
X155777849Y-97679487D01*
X155798541Y-97700179D01*
X155825577Y-97711378D01*
X155840209Y-97712819D01*
X156293974Y-97712819D01*
X156069480Y-97969383D01*
X156064958Y-97975707D01*
X156063563Y-97977103D01*
X156063014Y-97978426D01*
X156060929Y-97981344D01*
X156057027Y-97992881D01*
X156052364Y-98004139D01*
X156052364Y-98006669D01*
X156051554Y-98009065D01*
X156052364Y-98021218D01*
X156052364Y-98033403D01*
X156053331Y-98035739D01*
X156053500Y-98038263D01*
X156058902Y-98049188D01*
X156063563Y-98060439D01*
X156065349Y-98062225D01*
X156066472Y-98064495D01*
X156075644Y-98072520D01*
X156084255Y-98081131D01*
X156086591Y-98082099D01*
X156088496Y-98083765D01*
X156100033Y-98087666D01*
X156111291Y-98092330D01*
X156114861Y-98092681D01*
X156116217Y-98093140D01*
X156118184Y-98093008D01*
X156125923Y-98093771D01*
X156251075Y-98093771D01*
X156319591Y-98128029D01*
X156349998Y-98158436D01*
X156384256Y-98226952D01*
X156384256Y-98429637D01*
X156349997Y-98498153D01*
X156319590Y-98528561D01*
X156251075Y-98562819D01*
X156000771Y-98562819D01*
X155932255Y-98528561D01*
X155893243Y-98489548D01*
X155881877Y-98480220D01*
X155854841Y-98469021D01*
X155825578Y-98469021D01*
X155798542Y-98480219D01*
X155777849Y-98500912D01*
X155766650Y-98527948D01*
X155766650Y-98557211D01*
X155777848Y-98584247D01*
X155787175Y-98595612D01*
X155834794Y-98643232D01*
X155840543Y-98647950D01*
X155841844Y-98649450D01*
X155844103Y-98650872D01*
X155846160Y-98652560D01*
X155847987Y-98653317D01*
X155854287Y-98657282D01*
X155949525Y-98704901D01*
X155963256Y-98710156D01*
X155965945Y-98710347D01*
X155968434Y-98711378D01*
X155983066Y-98712819D01*
X156268780Y-98712819D01*
X156283412Y-98711378D01*
X156285901Y-98710346D01*
X156288589Y-98710156D01*
X156302321Y-98704901D01*
X156397559Y-98657282D01*
X156403858Y-98653317D01*
X156405686Y-98652560D01*
X156407742Y-98650872D01*
X156410002Y-98649450D01*
X156411302Y-98647950D01*
X156417052Y-98643232D01*
X156464670Y-98595613D01*
X156469388Y-98589863D01*
X156470887Y-98588564D01*
X156472308Y-98586305D01*
X156473998Y-98584247D01*
X156474755Y-98582417D01*
X156478719Y-98576121D01*
X156526338Y-98480883D01*
X156531593Y-98467152D01*
X156531784Y-98464462D01*
X156532815Y-98461974D01*
X156534256Y-98447342D01*
X156534256Y-98209247D01*
X156532815Y-98194615D01*
X156531784Y-98192126D01*
X156531593Y-98189437D01*
X156526338Y-98175706D01*
X156478719Y-98080468D01*
X156474754Y-98074168D01*
X156473997Y-98072341D01*
X156472308Y-98070284D01*
X156470887Y-98068025D01*
X156469388Y-98066725D01*
X156464670Y-98060976D01*
X156417051Y-98013357D01*
X156411301Y-98008638D01*
X156410002Y-98007140D01*
X156407742Y-98005718D01*
X156405686Y-98004030D01*
X156403858Y-98003272D01*
X156397559Y-97999308D01*
X156363169Y-97982113D01*
X156718395Y-97982113D01*
X156721959Y-97996377D01*
X156960054Y-98663044D01*
X156966333Y-98676339D01*
X156968859Y-98679129D01*
X156970471Y-98682532D01*
X156978606Y-98689897D01*
X156985972Y-98698033D01*
X156989374Y-98699644D01*
X156992165Y-98702171D01*
X157002502Y-98705862D01*
X157012418Y-98710560D01*
X157016176Y-98710746D01*
X157019724Y-98712014D01*
X157030685Y-98711468D01*
X157041646Y-98712014D01*
X157045193Y-98710746D01*
X157048952Y-98710560D01*
X157058867Y-98705862D01*
X157069205Y-98702171D01*
X157071995Y-98699644D01*
X157075398Y-98698033D01*
X157082766Y-98689893D01*
X157090899Y-98682531D01*
X157092509Y-98679130D01*
X157095037Y-98676339D01*
X157101316Y-98663044D01*
X157339411Y-97996377D01*
X157342975Y-97982113D01*
X157341521Y-97952886D01*
X157328994Y-97926440D01*
X157307300Y-97906800D01*
X157279741Y-97896957D01*
X157250513Y-97898411D01*
X157224067Y-97910938D01*
X157204428Y-97932632D01*
X157198149Y-97945927D01*
X157030685Y-98414826D01*
X156863221Y-97945927D01*
X156856942Y-97932632D01*
X156837303Y-97910938D01*
X156810857Y-97898411D01*
X156781629Y-97896957D01*
X156754070Y-97906800D01*
X156732376Y-97926439D01*
X156719849Y-97952885D01*
X156718395Y-97982113D01*
X156363169Y-97982113D01*
X156302321Y-97951689D01*
X156288803Y-97946516D01*
X156515699Y-97687207D01*
X156520220Y-97680882D01*
X156521616Y-97679487D01*
X156522164Y-97678163D01*
X156524250Y-97675246D01*
X156528151Y-97663708D01*
X156532815Y-97652451D01*
X156532815Y-97649920D01*
X156533625Y-97647525D01*
X156532815Y-97635371D01*
X156532815Y-97623187D01*
X156531847Y-97620850D01*
X156531679Y-97618327D01*
X156526276Y-97607401D01*
X156521616Y-97596151D01*
X156519829Y-97594364D01*
X156518707Y-97592095D01*
X156509534Y-97584069D01*
X156500924Y-97575459D01*
X156498587Y-97574490D01*
X156496683Y-97572825D01*
X156485145Y-97568923D01*
X156473888Y-97564260D01*
X156470317Y-97563908D01*
X156468962Y-97563450D01*
X156466994Y-97563581D01*
X156459256Y-97562819D01*
X155840209Y-97562819D01*
X155825577Y-97564260D01*
X155798541Y-97575459D01*
X155777849Y-97596151D01*
X155766650Y-97623187D01*
X155104244Y-97623187D01*
X155103276Y-97620850D01*
X155103108Y-97618327D01*
X155097705Y-97607401D01*
X155093045Y-97596151D01*
X155091258Y-97594364D01*
X155090136Y-97592095D01*
X155080963Y-97584069D01*
X155072353Y-97575459D01*
X155070016Y-97574490D01*
X155068112Y-97572825D01*
X155056574Y-97568923D01*
X155045317Y-97564260D01*
X155041746Y-97563908D01*
X155040391Y-97563450D01*
X155038423Y-97563581D01*
X155030685Y-97562819D01*
X154411638Y-97562819D01*
X154397006Y-97564260D01*
X154369970Y-97575459D01*
X154349278Y-97596151D01*
X154338079Y-97623187D01*
X153962828Y-97623187D01*
X153962828Y-97617580D01*
X154125923Y-97617580D01*
X154140555Y-97616139D01*
X154167591Y-97604940D01*
X154188283Y-97584248D01*
X154199482Y-97557212D01*
X154199482Y-97527948D01*
X157480936Y-97527948D01*
X157480936Y-97557212D01*
X157492135Y-97584248D01*
X157512827Y-97604940D01*
X157539863Y-97616139D01*
X157554495Y-97617580D01*
X157717590Y-97617580D01*
X157717590Y-98896152D01*
X157554495Y-98896152D01*
X157539863Y-98897593D01*
X157512827Y-98908792D01*
X157492135Y-98929484D01*
X157480936Y-98956520D01*
X157480936Y-98985784D01*
X157492135Y-99012820D01*
X157512827Y-99033512D01*
X157539863Y-99044711D01*
X157554495Y-99046152D01*
X157792590Y-99046152D01*
X157807222Y-99044711D01*
X157834258Y-99033512D01*
X157854950Y-99012820D01*
X157866149Y-98985784D01*
X157867590Y-98971152D01*
X157867590Y-97542580D01*
X157866149Y-97527948D01*
X157854950Y-97500912D01*
X157834258Y-97480220D01*
X157807222Y-97469021D01*
X157792590Y-97467580D01*
X157554495Y-97467580D01*
X157539863Y-97469021D01*
X157512827Y-97480220D01*
X157492135Y-97500912D01*
X157480936Y-97527948D01*
X154199482Y-97527948D01*
X154188283Y-97500912D01*
X154167591Y-97480220D01*
X154140555Y-97469021D01*
X154125923Y-97467580D01*
X153887828Y-97467580D01*
X153873196Y-97469021D01*
X153846160Y-97480220D01*
X153825468Y-97500912D01*
X153814269Y-97527948D01*
X153812828Y-97542580D01*
X153391399Y-97542580D01*
X153389958Y-97527948D01*
X153378759Y-97500912D01*
X153358067Y-97480220D01*
X153331031Y-97469021D01*
X153316399Y-97467580D01*
X153078304Y-97467580D01*
X153063672Y-97469021D01*
X153036636Y-97480220D01*
X153015944Y-97500912D01*
X153004745Y-97527948D01*
X149628052Y-97527948D01*
X149616853Y-97500912D01*
X149596161Y-97480220D01*
X149569125Y-97469021D01*
X149554493Y-97467580D01*
X149316398Y-97467580D01*
X149301766Y-97469021D01*
X149274730Y-97480220D01*
X149254038Y-97500912D01*
X149242839Y-97527948D01*
X149241398Y-97542580D01*
X149130287Y-97542580D01*
X149130287Y-97356469D01*
X157978701Y-97356469D01*
X157978701Y-99157263D01*
G37*
D12*
X143790426Y-113363595D02*
X144247569Y-113363595D01*
X144018997Y-114163595D02*
X144018997Y-113363595D01*
X144438045Y-113363595D02*
X144971379Y-114163595D01*
X144971379Y-113363595D02*
X144438045Y-114163595D01*
X145276141Y-114163595D02*
X145276141Y-113363595D01*
X145276141Y-113363595D02*
X145466617Y-113363595D01*
X145466617Y-113363595D02*
X145580903Y-113401690D01*
X145580903Y-113401690D02*
X145657093Y-113477880D01*
X145657093Y-113477880D02*
X145695188Y-113554071D01*
X145695188Y-113554071D02*
X145733284Y-113706452D01*
X145733284Y-113706452D02*
X145733284Y-113820738D01*
X145733284Y-113820738D02*
X145695188Y-113973119D01*
X145695188Y-113973119D02*
X145657093Y-114049309D01*
X145657093Y-114049309D02*
X145580903Y-114125500D01*
X145580903Y-114125500D02*
X145466617Y-114163595D01*
X145466617Y-114163595D02*
X145276141Y-114163595D01*
X138161855Y-107063595D02*
X137895188Y-106682642D01*
X137704712Y-107063595D02*
X137704712Y-106263595D01*
X137704712Y-106263595D02*
X138009474Y-106263595D01*
X138009474Y-106263595D02*
X138085664Y-106301690D01*
X138085664Y-106301690D02*
X138123759Y-106339785D01*
X138123759Y-106339785D02*
X138161855Y-106415976D01*
X138161855Y-106415976D02*
X138161855Y-106530261D01*
X138161855Y-106530261D02*
X138123759Y-106606452D01*
X138123759Y-106606452D02*
X138085664Y-106644547D01*
X138085664Y-106644547D02*
X138009474Y-106682642D01*
X138009474Y-106682642D02*
X137704712Y-106682642D01*
X138428521Y-106263595D02*
X138961855Y-107063595D01*
X138961855Y-106263595D02*
X138428521Y-107063595D01*
X139266617Y-107063595D02*
X139266617Y-106263595D01*
X139266617Y-106263595D02*
X139457093Y-106263595D01*
X139457093Y-106263595D02*
X139571379Y-106301690D01*
X139571379Y-106301690D02*
X139647569Y-106377880D01*
X139647569Y-106377880D02*
X139685664Y-106454071D01*
X139685664Y-106454071D02*
X139723760Y-106606452D01*
X139723760Y-106606452D02*
X139723760Y-106720738D01*
X139723760Y-106720738D02*
X139685664Y-106873119D01*
X139685664Y-106873119D02*
X139647569Y-106949309D01*
X139647569Y-106949309D02*
X139571379Y-107025500D01*
X139571379Y-107025500D02*
X139457093Y-107063595D01*
X139457093Y-107063595D02*
X139266617Y-107063595D01*
X138161855Y-97300309D02*
X138447569Y-97300309D01*
X138304712Y-97800309D02*
X138304712Y-97300309D01*
X138566616Y-97300309D02*
X138899949Y-97800309D01*
X138899949Y-97300309D02*
X138566616Y-97800309D01*
D11*
X124628666Y-110222819D02*
X124628666Y-110937104D01*
X124628666Y-110937104D02*
X124581047Y-111079961D01*
X124581047Y-111079961D02*
X124485809Y-111175200D01*
X124485809Y-111175200D02*
X124342952Y-111222819D01*
X124342952Y-111222819D02*
X124247714Y-111222819D01*
X125533428Y-110556152D02*
X125533428Y-111222819D01*
X125295333Y-110175200D02*
X125057238Y-110889485D01*
X125057238Y-110889485D02*
X125676285Y-110889485D01*
D12*
X157517714Y-111031595D02*
X157251047Y-110650642D01*
X157060571Y-111031595D02*
X157060571Y-110231595D01*
X157060571Y-110231595D02*
X157365333Y-110231595D01*
X157365333Y-110231595D02*
X157441523Y-110269690D01*
X157441523Y-110269690D02*
X157479618Y-110307785D01*
X157479618Y-110307785D02*
X157517714Y-110383976D01*
X157517714Y-110383976D02*
X157517714Y-110498261D01*
X157517714Y-110498261D02*
X157479618Y-110574452D01*
X157479618Y-110574452D02*
X157441523Y-110612547D01*
X157441523Y-110612547D02*
X157365333Y-110650642D01*
X157365333Y-110650642D02*
X157060571Y-110650642D01*
X158279618Y-111031595D02*
X157822475Y-111031595D01*
X158051047Y-111031595D02*
X158051047Y-110231595D01*
X158051047Y-110231595D02*
X157974856Y-110345880D01*
X157974856Y-110345880D02*
X157898666Y-110422071D01*
X157898666Y-110422071D02*
X157822475Y-110460166D01*
X158965333Y-110231595D02*
X158812952Y-110231595D01*
X158812952Y-110231595D02*
X158736761Y-110269690D01*
X158736761Y-110269690D02*
X158698666Y-110307785D01*
X158698666Y-110307785D02*
X158622476Y-110422071D01*
X158622476Y-110422071D02*
X158584380Y-110574452D01*
X158584380Y-110574452D02*
X158584380Y-110879214D01*
X158584380Y-110879214D02*
X158622476Y-110955404D01*
X158622476Y-110955404D02*
X158660571Y-110993500D01*
X158660571Y-110993500D02*
X158736761Y-111031595D01*
X158736761Y-111031595D02*
X158889142Y-111031595D01*
X158889142Y-111031595D02*
X158965333Y-110993500D01*
X158965333Y-110993500D02*
X159003428Y-110955404D01*
X159003428Y-110955404D02*
X159041523Y-110879214D01*
X159041523Y-110879214D02*
X159041523Y-110688738D01*
X159041523Y-110688738D02*
X159003428Y-110612547D01*
X159003428Y-110612547D02*
X158965333Y-110574452D01*
X158965333Y-110574452D02*
X158889142Y-110536357D01*
X158889142Y-110536357D02*
X158736761Y-110536357D01*
X158736761Y-110536357D02*
X158660571Y-110574452D01*
X158660571Y-110574452D02*
X158622476Y-110612547D01*
X158622476Y-110612547D02*
X158584380Y-110688738D01*
D11*
X155298845Y-129799069D02*
X155298845Y-130608592D01*
X155298845Y-130608592D02*
X155346464Y-130703830D01*
X155346464Y-130703830D02*
X155394083Y-130751450D01*
X155394083Y-130751450D02*
X155489321Y-130799069D01*
X155489321Y-130799069D02*
X155679797Y-130799069D01*
X155679797Y-130799069D02*
X155775035Y-130751450D01*
X155775035Y-130751450D02*
X155822654Y-130703830D01*
X155822654Y-130703830D02*
X155870273Y-130608592D01*
X155870273Y-130608592D02*
X155870273Y-129799069D01*
X156298845Y-129894307D02*
X156346464Y-129846688D01*
X156346464Y-129846688D02*
X156441702Y-129799069D01*
X156441702Y-129799069D02*
X156679797Y-129799069D01*
X156679797Y-129799069D02*
X156775035Y-129846688D01*
X156775035Y-129846688D02*
X156822654Y-129894307D01*
X156822654Y-129894307D02*
X156870273Y-129989545D01*
X156870273Y-129989545D02*
X156870273Y-130084783D01*
X156870273Y-130084783D02*
X156822654Y-130227640D01*
X156822654Y-130227640D02*
X156251226Y-130799069D01*
X156251226Y-130799069D02*
X156870273Y-130799069D01*
X147578190Y-131374069D02*
X147244857Y-130897878D01*
X147006762Y-131374069D02*
X147006762Y-130374069D01*
X147006762Y-130374069D02*
X147387714Y-130374069D01*
X147387714Y-130374069D02*
X147482952Y-130421688D01*
X147482952Y-130421688D02*
X147530571Y-130469307D01*
X147530571Y-130469307D02*
X147578190Y-130564545D01*
X147578190Y-130564545D02*
X147578190Y-130707402D01*
X147578190Y-130707402D02*
X147530571Y-130802640D01*
X147530571Y-130802640D02*
X147482952Y-130850259D01*
X147482952Y-130850259D02*
X147387714Y-130897878D01*
X147387714Y-130897878D02*
X147006762Y-130897878D01*
X148435333Y-130707402D02*
X148435333Y-131374069D01*
X148197238Y-130326450D02*
X147959143Y-131040735D01*
X147959143Y-131040735D02*
X148578190Y-131040735D01*
X148721048Y-131469307D02*
X149482952Y-131469307D01*
X149673429Y-130469307D02*
X149721048Y-130421688D01*
X149721048Y-130421688D02*
X149816286Y-130374069D01*
X149816286Y-130374069D02*
X150054381Y-130374069D01*
X150054381Y-130374069D02*
X150149619Y-130421688D01*
X150149619Y-130421688D02*
X150197238Y-130469307D01*
X150197238Y-130469307D02*
X150244857Y-130564545D01*
X150244857Y-130564545D02*
X150244857Y-130659783D01*
X150244857Y-130659783D02*
X150197238Y-130802640D01*
X150197238Y-130802640D02*
X149625810Y-131374069D01*
X149625810Y-131374069D02*
X150244857Y-131374069D01*
D12*
X136395595Y-101434666D02*
X136967023Y-101434666D01*
X136967023Y-101434666D02*
X137081309Y-101472761D01*
X137081309Y-101472761D02*
X137157500Y-101548952D01*
X137157500Y-101548952D02*
X137195595Y-101663237D01*
X137195595Y-101663237D02*
X137195595Y-101739428D01*
X137195595Y-101053713D02*
X136395595Y-101053713D01*
X136395595Y-101053713D02*
X136395595Y-100748951D01*
X136395595Y-100748951D02*
X136433690Y-100672761D01*
X136433690Y-100672761D02*
X136471785Y-100634666D01*
X136471785Y-100634666D02*
X136547976Y-100596570D01*
X136547976Y-100596570D02*
X136662261Y-100596570D01*
X136662261Y-100596570D02*
X136738452Y-100634666D01*
X136738452Y-100634666D02*
X136776547Y-100672761D01*
X136776547Y-100672761D02*
X136814642Y-100748951D01*
X136814642Y-100748951D02*
X136814642Y-101053713D01*
X136471785Y-100291809D02*
X136433690Y-100253713D01*
X136433690Y-100253713D02*
X136395595Y-100177523D01*
X136395595Y-100177523D02*
X136395595Y-99987047D01*
X136395595Y-99987047D02*
X136433690Y-99910856D01*
X136433690Y-99910856D02*
X136471785Y-99872761D01*
X136471785Y-99872761D02*
X136547976Y-99834666D01*
X136547976Y-99834666D02*
X136624166Y-99834666D01*
X136624166Y-99834666D02*
X136738452Y-99872761D01*
X136738452Y-99872761D02*
X137195595Y-100329904D01*
X137195595Y-100329904D02*
X137195595Y-99834666D01*
D11*
X122567714Y-105679104D02*
X122529618Y-105717200D01*
X122529618Y-105717200D02*
X122415333Y-105755295D01*
X122415333Y-105755295D02*
X122339142Y-105755295D01*
X122339142Y-105755295D02*
X122224856Y-105717200D01*
X122224856Y-105717200D02*
X122148666Y-105641009D01*
X122148666Y-105641009D02*
X122110571Y-105564819D01*
X122110571Y-105564819D02*
X122072475Y-105412438D01*
X122072475Y-105412438D02*
X122072475Y-105298152D01*
X122072475Y-105298152D02*
X122110571Y-105145771D01*
X122110571Y-105145771D02*
X122148666Y-105069580D01*
X122148666Y-105069580D02*
X122224856Y-104993390D01*
X122224856Y-104993390D02*
X122339142Y-104955295D01*
X122339142Y-104955295D02*
X122415333Y-104955295D01*
X122415333Y-104955295D02*
X122529618Y-104993390D01*
X122529618Y-104993390D02*
X122567714Y-105031485D01*
X123329618Y-105755295D02*
X122872475Y-105755295D01*
X123101047Y-105755295D02*
X123101047Y-104955295D01*
X123101047Y-104955295D02*
X123024856Y-105069580D01*
X123024856Y-105069580D02*
X122948666Y-105145771D01*
X122948666Y-105145771D02*
X122872475Y-105183866D01*
X124091523Y-105755295D02*
X123634380Y-105755295D01*
X123862952Y-105755295D02*
X123862952Y-104955295D01*
X123862952Y-104955295D02*
X123786761Y-105069580D01*
X123786761Y-105069580D02*
X123710571Y-105145771D01*
X123710571Y-105145771D02*
X123634380Y-105183866D01*
D12*
X145638667Y-99355404D02*
X145600571Y-99393500D01*
X145600571Y-99393500D02*
X145486286Y-99431595D01*
X145486286Y-99431595D02*
X145410095Y-99431595D01*
X145410095Y-99431595D02*
X145295809Y-99393500D01*
X145295809Y-99393500D02*
X145219619Y-99317309D01*
X145219619Y-99317309D02*
X145181524Y-99241119D01*
X145181524Y-99241119D02*
X145143428Y-99088738D01*
X145143428Y-99088738D02*
X145143428Y-98974452D01*
X145143428Y-98974452D02*
X145181524Y-98822071D01*
X145181524Y-98822071D02*
X145219619Y-98745880D01*
X145219619Y-98745880D02*
X145295809Y-98669690D01*
X145295809Y-98669690D02*
X145410095Y-98631595D01*
X145410095Y-98631595D02*
X145486286Y-98631595D01*
X145486286Y-98631595D02*
X145600571Y-98669690D01*
X145600571Y-98669690D02*
X145638667Y-98707785D01*
X146400571Y-99431595D02*
X145943428Y-99431595D01*
X146172000Y-99431595D02*
X146172000Y-98631595D01*
X146172000Y-98631595D02*
X146095809Y-98745880D01*
X146095809Y-98745880D02*
X146019619Y-98822071D01*
X146019619Y-98822071D02*
X145943428Y-98860166D01*
D11*
X163832000Y-127530295D02*
X163565333Y-127149342D01*
X163374857Y-127530295D02*
X163374857Y-126730295D01*
X163374857Y-126730295D02*
X163679619Y-126730295D01*
X163679619Y-126730295D02*
X163755809Y-126768390D01*
X163755809Y-126768390D02*
X163793904Y-126806485D01*
X163793904Y-126806485D02*
X163832000Y-126882676D01*
X163832000Y-126882676D02*
X163832000Y-126996961D01*
X163832000Y-126996961D02*
X163793904Y-127073152D01*
X163793904Y-127073152D02*
X163755809Y-127111247D01*
X163755809Y-127111247D02*
X163679619Y-127149342D01*
X163679619Y-127149342D02*
X163374857Y-127149342D01*
X164593904Y-127530295D02*
X164136761Y-127530295D01*
X164365333Y-127530295D02*
X164365333Y-126730295D01*
X164365333Y-126730295D02*
X164289142Y-126844580D01*
X164289142Y-126844580D02*
X164212952Y-126920771D01*
X164212952Y-126920771D02*
X164136761Y-126958866D01*
X165317714Y-126730295D02*
X164936762Y-126730295D01*
X164936762Y-126730295D02*
X164898666Y-127111247D01*
X164898666Y-127111247D02*
X164936762Y-127073152D01*
X164936762Y-127073152D02*
X165012952Y-127035057D01*
X165012952Y-127035057D02*
X165203428Y-127035057D01*
X165203428Y-127035057D02*
X165279619Y-127073152D01*
X165279619Y-127073152D02*
X165317714Y-127111247D01*
X165317714Y-127111247D02*
X165355809Y-127187438D01*
X165355809Y-127187438D02*
X165355809Y-127377914D01*
X165355809Y-127377914D02*
X165317714Y-127454104D01*
X165317714Y-127454104D02*
X165279619Y-127492200D01*
X165279619Y-127492200D02*
X165203428Y-127530295D01*
X165203428Y-127530295D02*
X165012952Y-127530295D01*
X165012952Y-127530295D02*
X164936762Y-127492200D01*
X164936762Y-127492200D02*
X164898666Y-127454104D01*
X165508191Y-127606485D02*
X166117714Y-127606485D01*
X166727238Y-127530295D02*
X166270095Y-127530295D01*
X166498667Y-127530295D02*
X166498667Y-126730295D01*
X166498667Y-126730295D02*
X166422476Y-126844580D01*
X166422476Y-126844580D02*
X166346286Y-126920771D01*
X166346286Y-126920771D02*
X166270095Y-126958866D01*
D12*
X142595595Y-101334666D02*
X143167023Y-101334666D01*
X143167023Y-101334666D02*
X143281309Y-101372761D01*
X143281309Y-101372761D02*
X143357500Y-101448952D01*
X143357500Y-101448952D02*
X143395595Y-101563237D01*
X143395595Y-101563237D02*
X143395595Y-101639428D01*
X143395595Y-100953713D02*
X142595595Y-100953713D01*
X142595595Y-100953713D02*
X142595595Y-100648951D01*
X142595595Y-100648951D02*
X142633690Y-100572761D01*
X142633690Y-100572761D02*
X142671785Y-100534666D01*
X142671785Y-100534666D02*
X142747976Y-100496570D01*
X142747976Y-100496570D02*
X142862261Y-100496570D01*
X142862261Y-100496570D02*
X142938452Y-100534666D01*
X142938452Y-100534666D02*
X142976547Y-100572761D01*
X142976547Y-100572761D02*
X143014642Y-100648951D01*
X143014642Y-100648951D02*
X143014642Y-100953713D01*
X143395595Y-99734666D02*
X143395595Y-100191809D01*
X143395595Y-99963237D02*
X142595595Y-99963237D01*
X142595595Y-99963237D02*
X142709880Y-100039428D01*
X142709880Y-100039428D02*
X142786071Y-100115618D01*
X142786071Y-100115618D02*
X142824166Y-100191809D01*
X161841524Y-107731595D02*
X161841524Y-106931595D01*
X161841524Y-106931595D02*
X162032000Y-106931595D01*
X162032000Y-106931595D02*
X162146286Y-106969690D01*
X162146286Y-106969690D02*
X162222476Y-107045880D01*
X162222476Y-107045880D02*
X162260571Y-107122071D01*
X162260571Y-107122071D02*
X162298667Y-107274452D01*
X162298667Y-107274452D02*
X162298667Y-107388738D01*
X162298667Y-107388738D02*
X162260571Y-107541119D01*
X162260571Y-107541119D02*
X162222476Y-107617309D01*
X162222476Y-107617309D02*
X162146286Y-107693500D01*
X162146286Y-107693500D02*
X162032000Y-107731595D01*
X162032000Y-107731595D02*
X161841524Y-107731595D01*
X162984381Y-106931595D02*
X162832000Y-106931595D01*
X162832000Y-106931595D02*
X162755809Y-106969690D01*
X162755809Y-106969690D02*
X162717714Y-107007785D01*
X162717714Y-107007785D02*
X162641524Y-107122071D01*
X162641524Y-107122071D02*
X162603428Y-107274452D01*
X162603428Y-107274452D02*
X162603428Y-107579214D01*
X162603428Y-107579214D02*
X162641524Y-107655404D01*
X162641524Y-107655404D02*
X162679619Y-107693500D01*
X162679619Y-107693500D02*
X162755809Y-107731595D01*
X162755809Y-107731595D02*
X162908190Y-107731595D01*
X162908190Y-107731595D02*
X162984381Y-107693500D01*
X162984381Y-107693500D02*
X163022476Y-107655404D01*
X163022476Y-107655404D02*
X163060571Y-107579214D01*
X163060571Y-107579214D02*
X163060571Y-107388738D01*
X163060571Y-107388738D02*
X163022476Y-107312547D01*
X163022476Y-107312547D02*
X162984381Y-107274452D01*
X162984381Y-107274452D02*
X162908190Y-107236357D01*
X162908190Y-107236357D02*
X162755809Y-107236357D01*
X162755809Y-107236357D02*
X162679619Y-107274452D01*
X162679619Y-107274452D02*
X162641524Y-107312547D01*
X162641524Y-107312547D02*
X162603428Y-107388738D01*
D11*
X172448666Y-132772819D02*
X172448666Y-133487104D01*
X172448666Y-133487104D02*
X172401047Y-133629961D01*
X172401047Y-133629961D02*
X172305809Y-133725200D01*
X172305809Y-133725200D02*
X172162952Y-133772819D01*
X172162952Y-133772819D02*
X172067714Y-133772819D01*
X173401047Y-132772819D02*
X172924857Y-132772819D01*
X172924857Y-132772819D02*
X172877238Y-133249009D01*
X172877238Y-133249009D02*
X172924857Y-133201390D01*
X172924857Y-133201390D02*
X173020095Y-133153771D01*
X173020095Y-133153771D02*
X173258190Y-133153771D01*
X173258190Y-133153771D02*
X173353428Y-133201390D01*
X173353428Y-133201390D02*
X173401047Y-133249009D01*
X173401047Y-133249009D02*
X173448666Y-133344247D01*
X173448666Y-133344247D02*
X173448666Y-133582342D01*
X173448666Y-133582342D02*
X173401047Y-133677580D01*
X173401047Y-133677580D02*
X173353428Y-133725200D01*
X173353428Y-133725200D02*
X173258190Y-133772819D01*
X173258190Y-133772819D02*
X173020095Y-133772819D01*
X173020095Y-133772819D02*
X172924857Y-133725200D01*
X172924857Y-133725200D02*
X172877238Y-133677580D01*
X161117714Y-127454104D02*
X161079618Y-127492200D01*
X161079618Y-127492200D02*
X160965333Y-127530295D01*
X160965333Y-127530295D02*
X160889142Y-127530295D01*
X160889142Y-127530295D02*
X160774856Y-127492200D01*
X160774856Y-127492200D02*
X160698666Y-127416009D01*
X160698666Y-127416009D02*
X160660571Y-127339819D01*
X160660571Y-127339819D02*
X160622475Y-127187438D01*
X160622475Y-127187438D02*
X160622475Y-127073152D01*
X160622475Y-127073152D02*
X160660571Y-126920771D01*
X160660571Y-126920771D02*
X160698666Y-126844580D01*
X160698666Y-126844580D02*
X160774856Y-126768390D01*
X160774856Y-126768390D02*
X160889142Y-126730295D01*
X160889142Y-126730295D02*
X160965333Y-126730295D01*
X160965333Y-126730295D02*
X161079618Y-126768390D01*
X161079618Y-126768390D02*
X161117714Y-126806485D01*
X161879618Y-127530295D02*
X161422475Y-127530295D01*
X161651047Y-127530295D02*
X161651047Y-126730295D01*
X161651047Y-126730295D02*
X161574856Y-126844580D01*
X161574856Y-126844580D02*
X161498666Y-126920771D01*
X161498666Y-126920771D02*
X161422475Y-126958866D01*
X162184380Y-126806485D02*
X162222476Y-126768390D01*
X162222476Y-126768390D02*
X162298666Y-126730295D01*
X162298666Y-126730295D02*
X162489142Y-126730295D01*
X162489142Y-126730295D02*
X162565333Y-126768390D01*
X162565333Y-126768390D02*
X162603428Y-126806485D01*
X162603428Y-126806485D02*
X162641523Y-126882676D01*
X162641523Y-126882676D02*
X162641523Y-126958866D01*
X162641523Y-126958866D02*
X162603428Y-127073152D01*
X162603428Y-127073152D02*
X162146285Y-127530295D01*
X162146285Y-127530295D02*
X162641523Y-127530295D01*
X140081999Y-129422819D02*
X139748666Y-128946628D01*
X139510571Y-129422819D02*
X139510571Y-128422819D01*
X139510571Y-128422819D02*
X139891523Y-128422819D01*
X139891523Y-128422819D02*
X139986761Y-128470438D01*
X139986761Y-128470438D02*
X140034380Y-128518057D01*
X140034380Y-128518057D02*
X140081999Y-128613295D01*
X140081999Y-128613295D02*
X140081999Y-128756152D01*
X140081999Y-128756152D02*
X140034380Y-128851390D01*
X140034380Y-128851390D02*
X139986761Y-128899009D01*
X139986761Y-128899009D02*
X139891523Y-128946628D01*
X139891523Y-128946628D02*
X139510571Y-128946628D01*
X141034380Y-129422819D02*
X140462952Y-129422819D01*
X140748666Y-129422819D02*
X140748666Y-128422819D01*
X140748666Y-128422819D02*
X140653428Y-128565676D01*
X140653428Y-128565676D02*
X140558190Y-128660914D01*
X140558190Y-128660914D02*
X140462952Y-128708533D01*
X141367714Y-128422819D02*
X141986761Y-128422819D01*
X141986761Y-128422819D02*
X141653428Y-128803771D01*
X141653428Y-128803771D02*
X141796285Y-128803771D01*
X141796285Y-128803771D02*
X141891523Y-128851390D01*
X141891523Y-128851390D02*
X141939142Y-128899009D01*
X141939142Y-128899009D02*
X141986761Y-128994247D01*
X141986761Y-128994247D02*
X141986761Y-129232342D01*
X141986761Y-129232342D02*
X141939142Y-129327580D01*
X141939142Y-129327580D02*
X141891523Y-129375200D01*
X141891523Y-129375200D02*
X141796285Y-129422819D01*
X141796285Y-129422819D02*
X141510571Y-129422819D01*
X141510571Y-129422819D02*
X141415333Y-129375200D01*
X141415333Y-129375200D02*
X141367714Y-129327580D01*
X142177238Y-129518057D02*
X142939142Y-129518057D01*
X143701047Y-129422819D02*
X143129619Y-129422819D01*
X143415333Y-129422819D02*
X143415333Y-128422819D01*
X143415333Y-128422819D02*
X143320095Y-128565676D01*
X143320095Y-128565676D02*
X143224857Y-128660914D01*
X143224857Y-128660914D02*
X143129619Y-128708533D01*
D12*
X146891524Y-117931595D02*
X146891524Y-117131595D01*
X146891524Y-117131595D02*
X147082000Y-117131595D01*
X147082000Y-117131595D02*
X147196286Y-117169690D01*
X147196286Y-117169690D02*
X147272476Y-117245880D01*
X147272476Y-117245880D02*
X147310571Y-117322071D01*
X147310571Y-117322071D02*
X147348667Y-117474452D01*
X147348667Y-117474452D02*
X147348667Y-117588738D01*
X147348667Y-117588738D02*
X147310571Y-117741119D01*
X147310571Y-117741119D02*
X147272476Y-117817309D01*
X147272476Y-117817309D02*
X147196286Y-117893500D01*
X147196286Y-117893500D02*
X147082000Y-117931595D01*
X147082000Y-117931595D02*
X146891524Y-117931595D01*
X148072476Y-117131595D02*
X147691524Y-117131595D01*
X147691524Y-117131595D02*
X147653428Y-117512547D01*
X147653428Y-117512547D02*
X147691524Y-117474452D01*
X147691524Y-117474452D02*
X147767714Y-117436357D01*
X147767714Y-117436357D02*
X147958190Y-117436357D01*
X147958190Y-117436357D02*
X148034381Y-117474452D01*
X148034381Y-117474452D02*
X148072476Y-117512547D01*
X148072476Y-117512547D02*
X148110571Y-117588738D01*
X148110571Y-117588738D02*
X148110571Y-117779214D01*
X148110571Y-117779214D02*
X148072476Y-117855404D01*
X148072476Y-117855404D02*
X148034381Y-117893500D01*
X148034381Y-117893500D02*
X147958190Y-117931595D01*
X147958190Y-117931595D02*
X147767714Y-117931595D01*
X147767714Y-117931595D02*
X147691524Y-117893500D01*
X147691524Y-117893500D02*
X147653428Y-117855404D01*
D11*
X153585333Y-137897580D02*
X153537714Y-137945200D01*
X153537714Y-137945200D02*
X153394857Y-137992819D01*
X153394857Y-137992819D02*
X153299619Y-137992819D01*
X153299619Y-137992819D02*
X153156762Y-137945200D01*
X153156762Y-137945200D02*
X153061524Y-137849961D01*
X153061524Y-137849961D02*
X153013905Y-137754723D01*
X153013905Y-137754723D02*
X152966286Y-137564247D01*
X152966286Y-137564247D02*
X152966286Y-137421390D01*
X152966286Y-137421390D02*
X153013905Y-137230914D01*
X153013905Y-137230914D02*
X153061524Y-137135676D01*
X153061524Y-137135676D02*
X153156762Y-137040438D01*
X153156762Y-137040438D02*
X153299619Y-136992819D01*
X153299619Y-136992819D02*
X153394857Y-136992819D01*
X153394857Y-136992819D02*
X153537714Y-137040438D01*
X153537714Y-137040438D02*
X153585333Y-137088057D01*
X154156762Y-137421390D02*
X154061524Y-137373771D01*
X154061524Y-137373771D02*
X154013905Y-137326152D01*
X154013905Y-137326152D02*
X153966286Y-137230914D01*
X153966286Y-137230914D02*
X153966286Y-137183295D01*
X153966286Y-137183295D02*
X154013905Y-137088057D01*
X154013905Y-137088057D02*
X154061524Y-137040438D01*
X154061524Y-137040438D02*
X154156762Y-136992819D01*
X154156762Y-136992819D02*
X154347238Y-136992819D01*
X154347238Y-136992819D02*
X154442476Y-137040438D01*
X154442476Y-137040438D02*
X154490095Y-137088057D01*
X154490095Y-137088057D02*
X154537714Y-137183295D01*
X154537714Y-137183295D02*
X154537714Y-137230914D01*
X154537714Y-137230914D02*
X154490095Y-137326152D01*
X154490095Y-137326152D02*
X154442476Y-137373771D01*
X154442476Y-137373771D02*
X154347238Y-137421390D01*
X154347238Y-137421390D02*
X154156762Y-137421390D01*
X154156762Y-137421390D02*
X154061524Y-137469009D01*
X154061524Y-137469009D02*
X154013905Y-137516628D01*
X154013905Y-137516628D02*
X153966286Y-137611866D01*
X153966286Y-137611866D02*
X153966286Y-137802342D01*
X153966286Y-137802342D02*
X154013905Y-137897580D01*
X154013905Y-137897580D02*
X154061524Y-137945200D01*
X154061524Y-137945200D02*
X154156762Y-137992819D01*
X154156762Y-137992819D02*
X154347238Y-137992819D01*
X154347238Y-137992819D02*
X154442476Y-137945200D01*
X154442476Y-137945200D02*
X154490095Y-137897580D01*
X154490095Y-137897580D02*
X154537714Y-137802342D01*
X154537714Y-137802342D02*
X154537714Y-137611866D01*
X154537714Y-137611866D02*
X154490095Y-137516628D01*
X154490095Y-137516628D02*
X154442476Y-137469009D01*
X154442476Y-137469009D02*
X154347238Y-137421390D01*
X149235333Y-134224069D02*
X148902000Y-133747878D01*
X148663905Y-134224069D02*
X148663905Y-133224069D01*
X148663905Y-133224069D02*
X149044857Y-133224069D01*
X149044857Y-133224069D02*
X149140095Y-133271688D01*
X149140095Y-133271688D02*
X149187714Y-133319307D01*
X149187714Y-133319307D02*
X149235333Y-133414545D01*
X149235333Y-133414545D02*
X149235333Y-133557402D01*
X149235333Y-133557402D02*
X149187714Y-133652640D01*
X149187714Y-133652640D02*
X149140095Y-133700259D01*
X149140095Y-133700259D02*
X149044857Y-133747878D01*
X149044857Y-133747878D02*
X148663905Y-133747878D01*
X149568667Y-133224069D02*
X150187714Y-133224069D01*
X150187714Y-133224069D02*
X149854381Y-133605021D01*
X149854381Y-133605021D02*
X149997238Y-133605021D01*
X149997238Y-133605021D02*
X150092476Y-133652640D01*
X150092476Y-133652640D02*
X150140095Y-133700259D01*
X150140095Y-133700259D02*
X150187714Y-133795497D01*
X150187714Y-133795497D02*
X150187714Y-134033592D01*
X150187714Y-134033592D02*
X150140095Y-134128830D01*
X150140095Y-134128830D02*
X150092476Y-134176450D01*
X150092476Y-134176450D02*
X149997238Y-134224069D01*
X149997238Y-134224069D02*
X149711524Y-134224069D01*
X149711524Y-134224069D02*
X149616286Y-134176450D01*
X149616286Y-134176450D02*
X149568667Y-134128830D01*
X159194295Y-130167999D02*
X158813342Y-130434666D01*
X159194295Y-130625142D02*
X158394295Y-130625142D01*
X158394295Y-130625142D02*
X158394295Y-130320380D01*
X158394295Y-130320380D02*
X158432390Y-130244190D01*
X158432390Y-130244190D02*
X158470485Y-130206095D01*
X158470485Y-130206095D02*
X158546676Y-130167999D01*
X158546676Y-130167999D02*
X158660961Y-130167999D01*
X158660961Y-130167999D02*
X158737152Y-130206095D01*
X158737152Y-130206095D02*
X158775247Y-130244190D01*
X158775247Y-130244190D02*
X158813342Y-130320380D01*
X158813342Y-130320380D02*
X158813342Y-130625142D01*
X159194295Y-129406095D02*
X159194295Y-129863238D01*
X159194295Y-129634666D02*
X158394295Y-129634666D01*
X158394295Y-129634666D02*
X158508580Y-129710857D01*
X158508580Y-129710857D02*
X158584771Y-129787047D01*
X158584771Y-129787047D02*
X158622866Y-129863238D01*
X158660961Y-128720380D02*
X159194295Y-128720380D01*
X158356200Y-128910856D02*
X158927628Y-129101333D01*
X158927628Y-129101333D02*
X158927628Y-128606094D01*
X159270485Y-128491809D02*
X159270485Y-127882285D01*
X159194295Y-127272761D02*
X159194295Y-127729904D01*
X159194295Y-127501332D02*
X158394295Y-127501332D01*
X158394295Y-127501332D02*
X158508580Y-127577523D01*
X158508580Y-127577523D02*
X158584771Y-127653713D01*
X158584771Y-127653713D02*
X158622866Y-127729904D01*
D12*
X135865333Y-103881595D02*
X135865333Y-104453023D01*
X135865333Y-104453023D02*
X135827238Y-104567309D01*
X135827238Y-104567309D02*
X135751047Y-104643500D01*
X135751047Y-104643500D02*
X135636762Y-104681595D01*
X135636762Y-104681595D02*
X135560571Y-104681595D01*
X136170095Y-103881595D02*
X136665333Y-103881595D01*
X136665333Y-103881595D02*
X136398667Y-104186357D01*
X136398667Y-104186357D02*
X136512952Y-104186357D01*
X136512952Y-104186357D02*
X136589143Y-104224452D01*
X136589143Y-104224452D02*
X136627238Y-104262547D01*
X136627238Y-104262547D02*
X136665333Y-104338738D01*
X136665333Y-104338738D02*
X136665333Y-104529214D01*
X136665333Y-104529214D02*
X136627238Y-104605404D01*
X136627238Y-104605404D02*
X136589143Y-104643500D01*
X136589143Y-104643500D02*
X136512952Y-104681595D01*
X136512952Y-104681595D02*
X136284381Y-104681595D01*
X136284381Y-104681595D02*
X136208190Y-104643500D01*
X136208190Y-104643500D02*
X136170095Y-104605404D01*
D11*
X158465333Y-136627580D02*
X158417714Y-136675200D01*
X158417714Y-136675200D02*
X158274857Y-136722819D01*
X158274857Y-136722819D02*
X158179619Y-136722819D01*
X158179619Y-136722819D02*
X158036762Y-136675200D01*
X158036762Y-136675200D02*
X157941524Y-136579961D01*
X157941524Y-136579961D02*
X157893905Y-136484723D01*
X157893905Y-136484723D02*
X157846286Y-136294247D01*
X157846286Y-136294247D02*
X157846286Y-136151390D01*
X157846286Y-136151390D02*
X157893905Y-135960914D01*
X157893905Y-135960914D02*
X157941524Y-135865676D01*
X157941524Y-135865676D02*
X158036762Y-135770438D01*
X158036762Y-135770438D02*
X158179619Y-135722819D01*
X158179619Y-135722819D02*
X158274857Y-135722819D01*
X158274857Y-135722819D02*
X158417714Y-135770438D01*
X158417714Y-135770438D02*
X158465333Y-135818057D01*
X159370095Y-135722819D02*
X158893905Y-135722819D01*
X158893905Y-135722819D02*
X158846286Y-136199009D01*
X158846286Y-136199009D02*
X158893905Y-136151390D01*
X158893905Y-136151390D02*
X158989143Y-136103771D01*
X158989143Y-136103771D02*
X159227238Y-136103771D01*
X159227238Y-136103771D02*
X159322476Y-136151390D01*
X159322476Y-136151390D02*
X159370095Y-136199009D01*
X159370095Y-136199009D02*
X159417714Y-136294247D01*
X159417714Y-136294247D02*
X159417714Y-136532342D01*
X159417714Y-136532342D02*
X159370095Y-136627580D01*
X159370095Y-136627580D02*
X159322476Y-136675200D01*
X159322476Y-136675200D02*
X159227238Y-136722819D01*
X159227238Y-136722819D02*
X158989143Y-136722819D01*
X158989143Y-136722819D02*
X158893905Y-136675200D01*
X158893905Y-136675200D02*
X158846286Y-136627580D01*
D12*
X146929024Y-112751595D02*
X146929024Y-111951595D01*
X146929024Y-111951595D02*
X147119500Y-111951595D01*
X147119500Y-111951595D02*
X147233786Y-111989690D01*
X147233786Y-111989690D02*
X147309976Y-112065880D01*
X147309976Y-112065880D02*
X147348071Y-112142071D01*
X147348071Y-112142071D02*
X147386167Y-112294452D01*
X147386167Y-112294452D02*
X147386167Y-112408738D01*
X147386167Y-112408738D02*
X147348071Y-112561119D01*
X147348071Y-112561119D02*
X147309976Y-112637309D01*
X147309976Y-112637309D02*
X147233786Y-112713500D01*
X147233786Y-112713500D02*
X147119500Y-112751595D01*
X147119500Y-112751595D02*
X146929024Y-112751595D01*
X148071881Y-112218261D02*
X148071881Y-112751595D01*
X147881405Y-111913500D02*
X147690928Y-112484928D01*
X147690928Y-112484928D02*
X148186167Y-112484928D01*
D11*
X158565333Y-138622819D02*
X158232000Y-138146628D01*
X157993905Y-138622819D02*
X157993905Y-137622819D01*
X157993905Y-137622819D02*
X158374857Y-137622819D01*
X158374857Y-137622819D02*
X158470095Y-137670438D01*
X158470095Y-137670438D02*
X158517714Y-137718057D01*
X158517714Y-137718057D02*
X158565333Y-137813295D01*
X158565333Y-137813295D02*
X158565333Y-137956152D01*
X158565333Y-137956152D02*
X158517714Y-138051390D01*
X158517714Y-138051390D02*
X158470095Y-138099009D01*
X158470095Y-138099009D02*
X158374857Y-138146628D01*
X158374857Y-138146628D02*
X157993905Y-138146628D01*
X159517714Y-138622819D02*
X158946286Y-138622819D01*
X159232000Y-138622819D02*
X159232000Y-137622819D01*
X159232000Y-137622819D02*
X159136762Y-137765676D01*
X159136762Y-137765676D02*
X159041524Y-137860914D01*
X159041524Y-137860914D02*
X158946286Y-137908533D01*
X136336761Y-131518057D02*
X136241523Y-131470438D01*
X136241523Y-131470438D02*
X136146285Y-131375200D01*
X136146285Y-131375200D02*
X136003428Y-131232342D01*
X136003428Y-131232342D02*
X135908190Y-131184723D01*
X135908190Y-131184723D02*
X135812952Y-131184723D01*
X135860571Y-131422819D02*
X135765333Y-131375200D01*
X135765333Y-131375200D02*
X135670095Y-131279961D01*
X135670095Y-131279961D02*
X135622476Y-131089485D01*
X135622476Y-131089485D02*
X135622476Y-130756152D01*
X135622476Y-130756152D02*
X135670095Y-130565676D01*
X135670095Y-130565676D02*
X135765333Y-130470438D01*
X135765333Y-130470438D02*
X135860571Y-130422819D01*
X135860571Y-130422819D02*
X136051047Y-130422819D01*
X136051047Y-130422819D02*
X136146285Y-130470438D01*
X136146285Y-130470438D02*
X136241523Y-130565676D01*
X136241523Y-130565676D02*
X136289142Y-130756152D01*
X136289142Y-130756152D02*
X136289142Y-131089485D01*
X136289142Y-131089485D02*
X136241523Y-131279961D01*
X136241523Y-131279961D02*
X136146285Y-131375200D01*
X136146285Y-131375200D02*
X136051047Y-131422819D01*
X136051047Y-131422819D02*
X135860571Y-131422819D01*
X137241523Y-131422819D02*
X136670095Y-131422819D01*
X136955809Y-131422819D02*
X136955809Y-130422819D01*
X136955809Y-130422819D02*
X136860571Y-130565676D01*
X136860571Y-130565676D02*
X136765333Y-130660914D01*
X136765333Y-130660914D02*
X136670095Y-130708533D01*
X170844024Y-115780295D02*
X170844024Y-114980295D01*
X170844024Y-114980295D02*
X171034500Y-114980295D01*
X171034500Y-114980295D02*
X171148786Y-115018390D01*
X171148786Y-115018390D02*
X171224976Y-115094580D01*
X171224976Y-115094580D02*
X171263071Y-115170771D01*
X171263071Y-115170771D02*
X171301167Y-115323152D01*
X171301167Y-115323152D02*
X171301167Y-115437438D01*
X171301167Y-115437438D02*
X171263071Y-115589819D01*
X171263071Y-115589819D02*
X171224976Y-115666009D01*
X171224976Y-115666009D02*
X171148786Y-115742200D01*
X171148786Y-115742200D02*
X171034500Y-115780295D01*
X171034500Y-115780295D02*
X170844024Y-115780295D01*
X172063071Y-115780295D02*
X171605928Y-115780295D01*
X171834500Y-115780295D02*
X171834500Y-114980295D01*
X171834500Y-114980295D02*
X171758309Y-115094580D01*
X171758309Y-115094580D02*
X171682119Y-115170771D01*
X171682119Y-115170771D02*
X171605928Y-115208866D01*
X158508666Y-100022819D02*
X158508666Y-100737104D01*
X158508666Y-100737104D02*
X158461047Y-100879961D01*
X158461047Y-100879961D02*
X158365809Y-100975200D01*
X158365809Y-100975200D02*
X158222952Y-101022819D01*
X158222952Y-101022819D02*
X158127714Y-101022819D01*
X159413428Y-100022819D02*
X159222952Y-100022819D01*
X159222952Y-100022819D02*
X159127714Y-100070438D01*
X159127714Y-100070438D02*
X159080095Y-100118057D01*
X159080095Y-100118057D02*
X158984857Y-100260914D01*
X158984857Y-100260914D02*
X158937238Y-100451390D01*
X158937238Y-100451390D02*
X158937238Y-100832342D01*
X158937238Y-100832342D02*
X158984857Y-100927580D01*
X158984857Y-100927580D02*
X159032476Y-100975200D01*
X159032476Y-100975200D02*
X159127714Y-101022819D01*
X159127714Y-101022819D02*
X159318190Y-101022819D01*
X159318190Y-101022819D02*
X159413428Y-100975200D01*
X159413428Y-100975200D02*
X159461047Y-100927580D01*
X159461047Y-100927580D02*
X159508666Y-100832342D01*
X159508666Y-100832342D02*
X159508666Y-100594247D01*
X159508666Y-100594247D02*
X159461047Y-100499009D01*
X159461047Y-100499009D02*
X159413428Y-100451390D01*
X159413428Y-100451390D02*
X159318190Y-100403771D01*
X159318190Y-100403771D02*
X159127714Y-100403771D01*
X159127714Y-100403771D02*
X159032476Y-100451390D01*
X159032476Y-100451390D02*
X158984857Y-100499009D01*
X158984857Y-100499009D02*
X158937238Y-100594247D01*
D12*
X158003667Y-114131595D02*
X157737000Y-113750642D01*
X157546524Y-114131595D02*
X157546524Y-113331595D01*
X157546524Y-113331595D02*
X157851286Y-113331595D01*
X157851286Y-113331595D02*
X157927476Y-113369690D01*
X157927476Y-113369690D02*
X157965571Y-113407785D01*
X157965571Y-113407785D02*
X158003667Y-113483976D01*
X158003667Y-113483976D02*
X158003667Y-113598261D01*
X158003667Y-113598261D02*
X157965571Y-113674452D01*
X157965571Y-113674452D02*
X157927476Y-113712547D01*
X157927476Y-113712547D02*
X157851286Y-113750642D01*
X157851286Y-113750642D02*
X157546524Y-113750642D01*
X158689381Y-113598261D02*
X158689381Y-114131595D01*
X158498905Y-113293500D02*
X158308428Y-113864928D01*
X158308428Y-113864928D02*
X158803667Y-113864928D01*
D11*
X120132000Y-108730295D02*
X119865333Y-108349342D01*
X119674857Y-108730295D02*
X119674857Y-107930295D01*
X119674857Y-107930295D02*
X119979619Y-107930295D01*
X119979619Y-107930295D02*
X120055809Y-107968390D01*
X120055809Y-107968390D02*
X120093904Y-108006485D01*
X120093904Y-108006485D02*
X120132000Y-108082676D01*
X120132000Y-108082676D02*
X120132000Y-108196961D01*
X120132000Y-108196961D02*
X120093904Y-108273152D01*
X120093904Y-108273152D02*
X120055809Y-108311247D01*
X120055809Y-108311247D02*
X119979619Y-108349342D01*
X119979619Y-108349342D02*
X119674857Y-108349342D01*
X120893904Y-108730295D02*
X120436761Y-108730295D01*
X120665333Y-108730295D02*
X120665333Y-107930295D01*
X120665333Y-107930295D02*
X120589142Y-108044580D01*
X120589142Y-108044580D02*
X120512952Y-108120771D01*
X120512952Y-108120771D02*
X120436761Y-108158866D01*
X121198666Y-108006485D02*
X121236762Y-107968390D01*
X121236762Y-107968390D02*
X121312952Y-107930295D01*
X121312952Y-107930295D02*
X121503428Y-107930295D01*
X121503428Y-107930295D02*
X121579619Y-107968390D01*
X121579619Y-107968390D02*
X121617714Y-108006485D01*
X121617714Y-108006485D02*
X121655809Y-108082676D01*
X121655809Y-108082676D02*
X121655809Y-108158866D01*
X121655809Y-108158866D02*
X121617714Y-108273152D01*
X121617714Y-108273152D02*
X121160571Y-108730295D01*
X121160571Y-108730295D02*
X121655809Y-108730295D01*
X121808191Y-108806485D02*
X122417714Y-108806485D01*
X123027238Y-108730295D02*
X122570095Y-108730295D01*
X122798667Y-108730295D02*
X122798667Y-107930295D01*
X122798667Y-107930295D02*
X122722476Y-108044580D01*
X122722476Y-108044580D02*
X122646286Y-108120771D01*
X122646286Y-108120771D02*
X122570095Y-108158866D01*
X144858190Y-129377580D02*
X144810571Y-129425200D01*
X144810571Y-129425200D02*
X144667714Y-129472819D01*
X144667714Y-129472819D02*
X144572476Y-129472819D01*
X144572476Y-129472819D02*
X144429619Y-129425200D01*
X144429619Y-129425200D02*
X144334381Y-129329961D01*
X144334381Y-129329961D02*
X144286762Y-129234723D01*
X144286762Y-129234723D02*
X144239143Y-129044247D01*
X144239143Y-129044247D02*
X144239143Y-128901390D01*
X144239143Y-128901390D02*
X144286762Y-128710914D01*
X144286762Y-128710914D02*
X144334381Y-128615676D01*
X144334381Y-128615676D02*
X144429619Y-128520438D01*
X144429619Y-128520438D02*
X144572476Y-128472819D01*
X144572476Y-128472819D02*
X144667714Y-128472819D01*
X144667714Y-128472819D02*
X144810571Y-128520438D01*
X144810571Y-128520438D02*
X144858190Y-128568057D01*
X145334381Y-129472819D02*
X145524857Y-129472819D01*
X145524857Y-129472819D02*
X145620095Y-129425200D01*
X145620095Y-129425200D02*
X145667714Y-129377580D01*
X145667714Y-129377580D02*
X145762952Y-129234723D01*
X145762952Y-129234723D02*
X145810571Y-129044247D01*
X145810571Y-129044247D02*
X145810571Y-128663295D01*
X145810571Y-128663295D02*
X145762952Y-128568057D01*
X145762952Y-128568057D02*
X145715333Y-128520438D01*
X145715333Y-128520438D02*
X145620095Y-128472819D01*
X145620095Y-128472819D02*
X145429619Y-128472819D01*
X145429619Y-128472819D02*
X145334381Y-128520438D01*
X145334381Y-128520438D02*
X145286762Y-128568057D01*
X145286762Y-128568057D02*
X145239143Y-128663295D01*
X145239143Y-128663295D02*
X145239143Y-128901390D01*
X145239143Y-128901390D02*
X145286762Y-128996628D01*
X145286762Y-128996628D02*
X145334381Y-129044247D01*
X145334381Y-129044247D02*
X145429619Y-129091866D01*
X145429619Y-129091866D02*
X145620095Y-129091866D01*
X145620095Y-129091866D02*
X145715333Y-129044247D01*
X145715333Y-129044247D02*
X145762952Y-128996628D01*
X145762952Y-128996628D02*
X145810571Y-128901390D01*
X146001048Y-129568057D02*
X146762952Y-129568057D01*
X147524857Y-129472819D02*
X146953429Y-129472819D01*
X147239143Y-129472819D02*
X147239143Y-128472819D01*
X147239143Y-128472819D02*
X147143905Y-128615676D01*
X147143905Y-128615676D02*
X147048667Y-128710914D01*
X147048667Y-128710914D02*
X146953429Y-128758533D01*
D12*
X154142714Y-117931595D02*
X153876047Y-117550642D01*
X153685571Y-117931595D02*
X153685571Y-117131595D01*
X153685571Y-117131595D02*
X153990333Y-117131595D01*
X153990333Y-117131595D02*
X154066523Y-117169690D01*
X154066523Y-117169690D02*
X154104618Y-117207785D01*
X154104618Y-117207785D02*
X154142714Y-117283976D01*
X154142714Y-117283976D02*
X154142714Y-117398261D01*
X154142714Y-117398261D02*
X154104618Y-117474452D01*
X154104618Y-117474452D02*
X154066523Y-117512547D01*
X154066523Y-117512547D02*
X153990333Y-117550642D01*
X153990333Y-117550642D02*
X153685571Y-117550642D01*
X154904618Y-117931595D02*
X154447475Y-117931595D01*
X154676047Y-117931595D02*
X154676047Y-117131595D01*
X154676047Y-117131595D02*
X154599856Y-117245880D01*
X154599856Y-117245880D02*
X154523666Y-117322071D01*
X154523666Y-117322071D02*
X154447475Y-117360166D01*
X155628428Y-117131595D02*
X155247476Y-117131595D01*
X155247476Y-117131595D02*
X155209380Y-117512547D01*
X155209380Y-117512547D02*
X155247476Y-117474452D01*
X155247476Y-117474452D02*
X155323666Y-117436357D01*
X155323666Y-117436357D02*
X155514142Y-117436357D01*
X155514142Y-117436357D02*
X155590333Y-117474452D01*
X155590333Y-117474452D02*
X155628428Y-117512547D01*
X155628428Y-117512547D02*
X155666523Y-117588738D01*
X155666523Y-117588738D02*
X155666523Y-117779214D01*
X155666523Y-117779214D02*
X155628428Y-117855404D01*
X155628428Y-117855404D02*
X155590333Y-117893500D01*
X155590333Y-117893500D02*
X155514142Y-117931595D01*
X155514142Y-117931595D02*
X155323666Y-117931595D01*
X155323666Y-117931595D02*
X155247476Y-117893500D01*
X155247476Y-117893500D02*
X155209380Y-117855404D01*
X150848667Y-117931595D02*
X150582000Y-117550642D01*
X150391524Y-117931595D02*
X150391524Y-117131595D01*
X150391524Y-117131595D02*
X150696286Y-117131595D01*
X150696286Y-117131595D02*
X150772476Y-117169690D01*
X150772476Y-117169690D02*
X150810571Y-117207785D01*
X150810571Y-117207785D02*
X150848667Y-117283976D01*
X150848667Y-117283976D02*
X150848667Y-117398261D01*
X150848667Y-117398261D02*
X150810571Y-117474452D01*
X150810571Y-117474452D02*
X150772476Y-117512547D01*
X150772476Y-117512547D02*
X150696286Y-117550642D01*
X150696286Y-117550642D02*
X150391524Y-117550642D01*
X151229619Y-117931595D02*
X151382000Y-117931595D01*
X151382000Y-117931595D02*
X151458190Y-117893500D01*
X151458190Y-117893500D02*
X151496286Y-117855404D01*
X151496286Y-117855404D02*
X151572476Y-117741119D01*
X151572476Y-117741119D02*
X151610571Y-117588738D01*
X151610571Y-117588738D02*
X151610571Y-117283976D01*
X151610571Y-117283976D02*
X151572476Y-117207785D01*
X151572476Y-117207785D02*
X151534381Y-117169690D01*
X151534381Y-117169690D02*
X151458190Y-117131595D01*
X151458190Y-117131595D02*
X151305809Y-117131595D01*
X151305809Y-117131595D02*
X151229619Y-117169690D01*
X151229619Y-117169690D02*
X151191524Y-117207785D01*
X151191524Y-117207785D02*
X151153428Y-117283976D01*
X151153428Y-117283976D02*
X151153428Y-117474452D01*
X151153428Y-117474452D02*
X151191524Y-117550642D01*
X151191524Y-117550642D02*
X151229619Y-117588738D01*
X151229619Y-117588738D02*
X151305809Y-117626833D01*
X151305809Y-117626833D02*
X151458190Y-117626833D01*
X151458190Y-117626833D02*
X151534381Y-117588738D01*
X151534381Y-117588738D02*
X151572476Y-117550642D01*
X151572476Y-117550642D02*
X151610571Y-117474452D01*
D11*
X137865333Y-112822819D02*
X137389143Y-112822819D01*
X137389143Y-112822819D02*
X137389143Y-111822819D01*
X138722476Y-112822819D02*
X138151048Y-112822819D01*
X138436762Y-112822819D02*
X138436762Y-111822819D01*
X138436762Y-111822819D02*
X138341524Y-111965676D01*
X138341524Y-111965676D02*
X138246286Y-112060914D01*
X138246286Y-112060914D02*
X138151048Y-112108533D01*
D12*
X170395595Y-103482285D02*
X170014642Y-103748952D01*
X170395595Y-103939428D02*
X169595595Y-103939428D01*
X169595595Y-103939428D02*
X169595595Y-103634666D01*
X169595595Y-103634666D02*
X169633690Y-103558476D01*
X169633690Y-103558476D02*
X169671785Y-103520381D01*
X169671785Y-103520381D02*
X169747976Y-103482285D01*
X169747976Y-103482285D02*
X169862261Y-103482285D01*
X169862261Y-103482285D02*
X169938452Y-103520381D01*
X169938452Y-103520381D02*
X169976547Y-103558476D01*
X169976547Y-103558476D02*
X170014642Y-103634666D01*
X170014642Y-103634666D02*
X170014642Y-103939428D01*
X170395595Y-102720381D02*
X170395595Y-103177524D01*
X170395595Y-102948952D02*
X169595595Y-102948952D01*
X169595595Y-102948952D02*
X169709880Y-103025143D01*
X169709880Y-103025143D02*
X169786071Y-103101333D01*
X169786071Y-103101333D02*
X169824166Y-103177524D01*
X169671785Y-102415619D02*
X169633690Y-102377523D01*
X169633690Y-102377523D02*
X169595595Y-102301333D01*
X169595595Y-102301333D02*
X169595595Y-102110857D01*
X169595595Y-102110857D02*
X169633690Y-102034666D01*
X169633690Y-102034666D02*
X169671785Y-101996571D01*
X169671785Y-101996571D02*
X169747976Y-101958476D01*
X169747976Y-101958476D02*
X169824166Y-101958476D01*
X169824166Y-101958476D02*
X169938452Y-101996571D01*
X169938452Y-101996571D02*
X170395595Y-102453714D01*
X170395595Y-102453714D02*
X170395595Y-101958476D01*
X170395595Y-112282285D02*
X170014642Y-112548952D01*
X170395595Y-112739428D02*
X169595595Y-112739428D01*
X169595595Y-112739428D02*
X169595595Y-112434666D01*
X169595595Y-112434666D02*
X169633690Y-112358476D01*
X169633690Y-112358476D02*
X169671785Y-112320381D01*
X169671785Y-112320381D02*
X169747976Y-112282285D01*
X169747976Y-112282285D02*
X169862261Y-112282285D01*
X169862261Y-112282285D02*
X169938452Y-112320381D01*
X169938452Y-112320381D02*
X169976547Y-112358476D01*
X169976547Y-112358476D02*
X170014642Y-112434666D01*
X170014642Y-112434666D02*
X170014642Y-112739428D01*
X170395595Y-111520381D02*
X170395595Y-111977524D01*
X170395595Y-111748952D02*
X169595595Y-111748952D01*
X169595595Y-111748952D02*
X169709880Y-111825143D01*
X169709880Y-111825143D02*
X169786071Y-111901333D01*
X169786071Y-111901333D02*
X169824166Y-111977524D01*
X169595595Y-111253714D02*
X169595595Y-110758476D01*
X169595595Y-110758476D02*
X169900357Y-111025142D01*
X169900357Y-111025142D02*
X169900357Y-110910857D01*
X169900357Y-110910857D02*
X169938452Y-110834666D01*
X169938452Y-110834666D02*
X169976547Y-110796571D01*
X169976547Y-110796571D02*
X170052738Y-110758476D01*
X170052738Y-110758476D02*
X170243214Y-110758476D01*
X170243214Y-110758476D02*
X170319404Y-110796571D01*
X170319404Y-110796571D02*
X170357500Y-110834666D01*
X170357500Y-110834666D02*
X170395595Y-110910857D01*
X170395595Y-110910857D02*
X170395595Y-111139428D01*
X170395595Y-111139428D02*
X170357500Y-111215619D01*
X170357500Y-111215619D02*
X170319404Y-111253714D01*
X157617714Y-108331595D02*
X157351047Y-107950642D01*
X157160571Y-108331595D02*
X157160571Y-107531595D01*
X157160571Y-107531595D02*
X157465333Y-107531595D01*
X157465333Y-107531595D02*
X157541523Y-107569690D01*
X157541523Y-107569690D02*
X157579618Y-107607785D01*
X157579618Y-107607785D02*
X157617714Y-107683976D01*
X157617714Y-107683976D02*
X157617714Y-107798261D01*
X157617714Y-107798261D02*
X157579618Y-107874452D01*
X157579618Y-107874452D02*
X157541523Y-107912547D01*
X157541523Y-107912547D02*
X157465333Y-107950642D01*
X157465333Y-107950642D02*
X157160571Y-107950642D01*
X158379618Y-108331595D02*
X157922475Y-108331595D01*
X158151047Y-108331595D02*
X158151047Y-107531595D01*
X158151047Y-107531595D02*
X158074856Y-107645880D01*
X158074856Y-107645880D02*
X157998666Y-107722071D01*
X157998666Y-107722071D02*
X157922475Y-107760166D01*
X158646285Y-107531595D02*
X159179619Y-107531595D01*
X159179619Y-107531595D02*
X158836761Y-108331595D01*
D11*
X150336761Y-123118057D02*
X150241523Y-123070438D01*
X150241523Y-123070438D02*
X150146285Y-122975200D01*
X150146285Y-122975200D02*
X150003428Y-122832342D01*
X150003428Y-122832342D02*
X149908190Y-122784723D01*
X149908190Y-122784723D02*
X149812952Y-122784723D01*
X149860571Y-123022819D02*
X149765333Y-122975200D01*
X149765333Y-122975200D02*
X149670095Y-122879961D01*
X149670095Y-122879961D02*
X149622476Y-122689485D01*
X149622476Y-122689485D02*
X149622476Y-122356152D01*
X149622476Y-122356152D02*
X149670095Y-122165676D01*
X149670095Y-122165676D02*
X149765333Y-122070438D01*
X149765333Y-122070438D02*
X149860571Y-122022819D01*
X149860571Y-122022819D02*
X150051047Y-122022819D01*
X150051047Y-122022819D02*
X150146285Y-122070438D01*
X150146285Y-122070438D02*
X150241523Y-122165676D01*
X150241523Y-122165676D02*
X150289142Y-122356152D01*
X150289142Y-122356152D02*
X150289142Y-122689485D01*
X150289142Y-122689485D02*
X150241523Y-122879961D01*
X150241523Y-122879961D02*
X150146285Y-122975200D01*
X150146285Y-122975200D02*
X150051047Y-123022819D01*
X150051047Y-123022819D02*
X149860571Y-123022819D01*
X150670095Y-122118057D02*
X150717714Y-122070438D01*
X150717714Y-122070438D02*
X150812952Y-122022819D01*
X150812952Y-122022819D02*
X151051047Y-122022819D01*
X151051047Y-122022819D02*
X151146285Y-122070438D01*
X151146285Y-122070438D02*
X151193904Y-122118057D01*
X151193904Y-122118057D02*
X151241523Y-122213295D01*
X151241523Y-122213295D02*
X151241523Y-122308533D01*
X151241523Y-122308533D02*
X151193904Y-122451390D01*
X151193904Y-122451390D02*
X150622476Y-123022819D01*
X150622476Y-123022819D02*
X151241523Y-123022819D01*
D13*
X144796895Y-107282285D02*
X144415942Y-107548952D01*
X144796895Y-107739428D02*
X143996895Y-107739428D01*
X143996895Y-107739428D02*
X143996895Y-107434666D01*
X143996895Y-107434666D02*
X144034990Y-107358476D01*
X144034990Y-107358476D02*
X144073085Y-107320381D01*
X144073085Y-107320381D02*
X144149276Y-107282285D01*
X144149276Y-107282285D02*
X144263561Y-107282285D01*
X144263561Y-107282285D02*
X144339752Y-107320381D01*
X144339752Y-107320381D02*
X144377847Y-107358476D01*
X144377847Y-107358476D02*
X144415942Y-107434666D01*
X144415942Y-107434666D02*
X144415942Y-107739428D01*
X144796895Y-106520381D02*
X144796895Y-106977524D01*
X144796895Y-106748952D02*
X143996895Y-106748952D01*
X143996895Y-106748952D02*
X144111180Y-106825143D01*
X144111180Y-106825143D02*
X144187371Y-106901333D01*
X144187371Y-106901333D02*
X144225466Y-106977524D01*
X143996895Y-106025142D02*
X143996895Y-105948952D01*
X143996895Y-105948952D02*
X144034990Y-105872761D01*
X144034990Y-105872761D02*
X144073085Y-105834666D01*
X144073085Y-105834666D02*
X144149276Y-105796571D01*
X144149276Y-105796571D02*
X144301657Y-105758476D01*
X144301657Y-105758476D02*
X144492133Y-105758476D01*
X144492133Y-105758476D02*
X144644514Y-105796571D01*
X144644514Y-105796571D02*
X144720704Y-105834666D01*
X144720704Y-105834666D02*
X144758800Y-105872761D01*
X144758800Y-105872761D02*
X144796895Y-105948952D01*
X144796895Y-105948952D02*
X144796895Y-106025142D01*
X144796895Y-106025142D02*
X144758800Y-106101333D01*
X144758800Y-106101333D02*
X144720704Y-106139428D01*
X144720704Y-106139428D02*
X144644514Y-106177523D01*
X144644514Y-106177523D02*
X144492133Y-106215619D01*
X144492133Y-106215619D02*
X144301657Y-106215619D01*
X144301657Y-106215619D02*
X144149276Y-106177523D01*
X144149276Y-106177523D02*
X144073085Y-106139428D01*
X144073085Y-106139428D02*
X144034990Y-106101333D01*
X144034990Y-106101333D02*
X143996895Y-106025142D01*
D11*
X166012952Y-124754104D02*
X165974856Y-124792200D01*
X165974856Y-124792200D02*
X165860571Y-124830295D01*
X165860571Y-124830295D02*
X165784380Y-124830295D01*
X165784380Y-124830295D02*
X165670094Y-124792200D01*
X165670094Y-124792200D02*
X165593904Y-124716009D01*
X165593904Y-124716009D02*
X165555809Y-124639819D01*
X165555809Y-124639819D02*
X165517713Y-124487438D01*
X165517713Y-124487438D02*
X165517713Y-124373152D01*
X165517713Y-124373152D02*
X165555809Y-124220771D01*
X165555809Y-124220771D02*
X165593904Y-124144580D01*
X165593904Y-124144580D02*
X165670094Y-124068390D01*
X165670094Y-124068390D02*
X165784380Y-124030295D01*
X165784380Y-124030295D02*
X165860571Y-124030295D01*
X165860571Y-124030295D02*
X165974856Y-124068390D01*
X165974856Y-124068390D02*
X166012952Y-124106485D01*
X166774856Y-124830295D02*
X166317713Y-124830295D01*
X166546285Y-124830295D02*
X166546285Y-124030295D01*
X166546285Y-124030295D02*
X166470094Y-124144580D01*
X166470094Y-124144580D02*
X166393904Y-124220771D01*
X166393904Y-124220771D02*
X166317713Y-124258866D01*
X166927238Y-124906485D02*
X167536761Y-124906485D01*
X168146285Y-124830295D02*
X167689142Y-124830295D01*
X167917714Y-124830295D02*
X167917714Y-124030295D01*
X167917714Y-124030295D02*
X167841523Y-124144580D01*
X167841523Y-124144580D02*
X167765333Y-124220771D01*
X167765333Y-124220771D02*
X167689142Y-124258866D01*
D12*
X161891524Y-98681595D02*
X161891524Y-97881595D01*
X161891524Y-97881595D02*
X162082000Y-97881595D01*
X162082000Y-97881595D02*
X162196286Y-97919690D01*
X162196286Y-97919690D02*
X162272476Y-97995880D01*
X162272476Y-97995880D02*
X162310571Y-98072071D01*
X162310571Y-98072071D02*
X162348667Y-98224452D01*
X162348667Y-98224452D02*
X162348667Y-98338738D01*
X162348667Y-98338738D02*
X162310571Y-98491119D01*
X162310571Y-98491119D02*
X162272476Y-98567309D01*
X162272476Y-98567309D02*
X162196286Y-98643500D01*
X162196286Y-98643500D02*
X162082000Y-98681595D01*
X162082000Y-98681595D02*
X161891524Y-98681595D01*
X162615333Y-97881595D02*
X163148667Y-97881595D01*
X163148667Y-97881595D02*
X162805809Y-98681595D01*
X154042714Y-112751595D02*
X153776047Y-112370642D01*
X153585571Y-112751595D02*
X153585571Y-111951595D01*
X153585571Y-111951595D02*
X153890333Y-111951595D01*
X153890333Y-111951595D02*
X153966523Y-111989690D01*
X153966523Y-111989690D02*
X154004618Y-112027785D01*
X154004618Y-112027785D02*
X154042714Y-112103976D01*
X154042714Y-112103976D02*
X154042714Y-112218261D01*
X154042714Y-112218261D02*
X154004618Y-112294452D01*
X154004618Y-112294452D02*
X153966523Y-112332547D01*
X153966523Y-112332547D02*
X153890333Y-112370642D01*
X153890333Y-112370642D02*
X153585571Y-112370642D01*
X154804618Y-112751595D02*
X154347475Y-112751595D01*
X154576047Y-112751595D02*
X154576047Y-111951595D01*
X154576047Y-111951595D02*
X154499856Y-112065880D01*
X154499856Y-112065880D02*
X154423666Y-112142071D01*
X154423666Y-112142071D02*
X154347475Y-112180166D01*
X155490333Y-112218261D02*
X155490333Y-112751595D01*
X155299857Y-111913500D02*
X155109380Y-112484928D01*
X155109380Y-112484928D02*
X155604619Y-112484928D01*
D11*
X154629440Y-128472819D02*
X154296107Y-127996628D01*
X154058012Y-128472819D02*
X154058012Y-127472819D01*
X154058012Y-127472819D02*
X154438964Y-127472819D01*
X154438964Y-127472819D02*
X154534202Y-127520438D01*
X154534202Y-127520438D02*
X154581821Y-127568057D01*
X154581821Y-127568057D02*
X154629440Y-127663295D01*
X154629440Y-127663295D02*
X154629440Y-127806152D01*
X154629440Y-127806152D02*
X154581821Y-127901390D01*
X154581821Y-127901390D02*
X154534202Y-127949009D01*
X154534202Y-127949009D02*
X154438964Y-127996628D01*
X154438964Y-127996628D02*
X154058012Y-127996628D01*
X155105631Y-128472819D02*
X155296107Y-128472819D01*
X155296107Y-128472819D02*
X155391345Y-128425200D01*
X155391345Y-128425200D02*
X155438964Y-128377580D01*
X155438964Y-128377580D02*
X155534202Y-128234723D01*
X155534202Y-128234723D02*
X155581821Y-128044247D01*
X155581821Y-128044247D02*
X155581821Y-127663295D01*
X155581821Y-127663295D02*
X155534202Y-127568057D01*
X155534202Y-127568057D02*
X155486583Y-127520438D01*
X155486583Y-127520438D02*
X155391345Y-127472819D01*
X155391345Y-127472819D02*
X155200869Y-127472819D01*
X155200869Y-127472819D02*
X155105631Y-127520438D01*
X155105631Y-127520438D02*
X155058012Y-127568057D01*
X155058012Y-127568057D02*
X155010393Y-127663295D01*
X155010393Y-127663295D02*
X155010393Y-127901390D01*
X155010393Y-127901390D02*
X155058012Y-127996628D01*
X155058012Y-127996628D02*
X155105631Y-128044247D01*
X155105631Y-128044247D02*
X155200869Y-128091866D01*
X155200869Y-128091866D02*
X155391345Y-128091866D01*
X155391345Y-128091866D02*
X155486583Y-128044247D01*
X155486583Y-128044247D02*
X155534202Y-127996628D01*
X155534202Y-127996628D02*
X155581821Y-127901390D01*
X155772298Y-128568057D02*
X156534202Y-128568057D01*
X157296107Y-128472819D02*
X156724679Y-128472819D01*
X157010393Y-128472819D02*
X157010393Y-127472819D01*
X157010393Y-127472819D02*
X156915155Y-127615676D01*
X156915155Y-127615676D02*
X156819917Y-127710914D01*
X156819917Y-127710914D02*
X156724679Y-127758533D01*
D12*
X147722476Y-104931595D02*
X147722476Y-105579214D01*
X147722476Y-105579214D02*
X147760571Y-105655404D01*
X147760571Y-105655404D02*
X147798666Y-105693500D01*
X147798666Y-105693500D02*
X147874857Y-105731595D01*
X147874857Y-105731595D02*
X148027238Y-105731595D01*
X148027238Y-105731595D02*
X148103428Y-105693500D01*
X148103428Y-105693500D02*
X148141523Y-105655404D01*
X148141523Y-105655404D02*
X148179619Y-105579214D01*
X148179619Y-105579214D02*
X148179619Y-104931595D01*
X148979618Y-105731595D02*
X148522475Y-105731595D01*
X148751047Y-105731595D02*
X148751047Y-104931595D01*
X148751047Y-104931595D02*
X148674856Y-105045880D01*
X148674856Y-105045880D02*
X148598666Y-105122071D01*
X148598666Y-105122071D02*
X148522475Y-105160166D01*
D11*
X172498666Y-112022819D02*
X172498666Y-112737104D01*
X172498666Y-112737104D02*
X172451047Y-112879961D01*
X172451047Y-112879961D02*
X172355809Y-112975200D01*
X172355809Y-112975200D02*
X172212952Y-113022819D01*
X172212952Y-113022819D02*
X172117714Y-113022819D01*
X172927238Y-112118057D02*
X172974857Y-112070438D01*
X172974857Y-112070438D02*
X173070095Y-112022819D01*
X173070095Y-112022819D02*
X173308190Y-112022819D01*
X173308190Y-112022819D02*
X173403428Y-112070438D01*
X173403428Y-112070438D02*
X173451047Y-112118057D01*
X173451047Y-112118057D02*
X173498666Y-112213295D01*
X173498666Y-112213295D02*
X173498666Y-112308533D01*
X173498666Y-112308533D02*
X173451047Y-112451390D01*
X173451047Y-112451390D02*
X172879619Y-113022819D01*
X172879619Y-113022819D02*
X173498666Y-113022819D01*
X163298667Y-131730295D02*
X163032000Y-131349342D01*
X162841524Y-131730295D02*
X162841524Y-130930295D01*
X162841524Y-130930295D02*
X163146286Y-130930295D01*
X163146286Y-130930295D02*
X163222476Y-130968390D01*
X163222476Y-130968390D02*
X163260571Y-131006485D01*
X163260571Y-131006485D02*
X163298667Y-131082676D01*
X163298667Y-131082676D02*
X163298667Y-131196961D01*
X163298667Y-131196961D02*
X163260571Y-131273152D01*
X163260571Y-131273152D02*
X163222476Y-131311247D01*
X163222476Y-131311247D02*
X163146286Y-131349342D01*
X163146286Y-131349342D02*
X162841524Y-131349342D01*
X163603428Y-131006485D02*
X163641524Y-130968390D01*
X163641524Y-130968390D02*
X163717714Y-130930295D01*
X163717714Y-130930295D02*
X163908190Y-130930295D01*
X163908190Y-130930295D02*
X163984381Y-130968390D01*
X163984381Y-130968390D02*
X164022476Y-131006485D01*
X164022476Y-131006485D02*
X164060571Y-131082676D01*
X164060571Y-131082676D02*
X164060571Y-131158866D01*
X164060571Y-131158866D02*
X164022476Y-131273152D01*
X164022476Y-131273152D02*
X163565333Y-131730295D01*
X163565333Y-131730295D02*
X164060571Y-131730295D01*
X135220333Y-111252580D02*
X135172714Y-111300200D01*
X135172714Y-111300200D02*
X135029857Y-111347819D01*
X135029857Y-111347819D02*
X134934619Y-111347819D01*
X134934619Y-111347819D02*
X134791762Y-111300200D01*
X134791762Y-111300200D02*
X134696524Y-111204961D01*
X134696524Y-111204961D02*
X134648905Y-111109723D01*
X134648905Y-111109723D02*
X134601286Y-110919247D01*
X134601286Y-110919247D02*
X134601286Y-110776390D01*
X134601286Y-110776390D02*
X134648905Y-110585914D01*
X134648905Y-110585914D02*
X134696524Y-110490676D01*
X134696524Y-110490676D02*
X134791762Y-110395438D01*
X134791762Y-110395438D02*
X134934619Y-110347819D01*
X134934619Y-110347819D02*
X135029857Y-110347819D01*
X135029857Y-110347819D02*
X135172714Y-110395438D01*
X135172714Y-110395438D02*
X135220333Y-110443057D01*
X135696524Y-111347819D02*
X135887000Y-111347819D01*
X135887000Y-111347819D02*
X135982238Y-111300200D01*
X135982238Y-111300200D02*
X136029857Y-111252580D01*
X136029857Y-111252580D02*
X136125095Y-111109723D01*
X136125095Y-111109723D02*
X136172714Y-110919247D01*
X136172714Y-110919247D02*
X136172714Y-110538295D01*
X136172714Y-110538295D02*
X136125095Y-110443057D01*
X136125095Y-110443057D02*
X136077476Y-110395438D01*
X136077476Y-110395438D02*
X135982238Y-110347819D01*
X135982238Y-110347819D02*
X135791762Y-110347819D01*
X135791762Y-110347819D02*
X135696524Y-110395438D01*
X135696524Y-110395438D02*
X135648905Y-110443057D01*
X135648905Y-110443057D02*
X135601286Y-110538295D01*
X135601286Y-110538295D02*
X135601286Y-110776390D01*
X135601286Y-110776390D02*
X135648905Y-110871628D01*
X135648905Y-110871628D02*
X135696524Y-110919247D01*
X135696524Y-110919247D02*
X135791762Y-110966866D01*
X135791762Y-110966866D02*
X135982238Y-110966866D01*
X135982238Y-110966866D02*
X136077476Y-110919247D01*
X136077476Y-110919247D02*
X136125095Y-110871628D01*
X136125095Y-110871628D02*
X136172714Y-110776390D01*
D12*
X157998667Y-105331595D02*
X157732000Y-104950642D01*
X157541524Y-105331595D02*
X157541524Y-104531595D01*
X157541524Y-104531595D02*
X157846286Y-104531595D01*
X157846286Y-104531595D02*
X157922476Y-104569690D01*
X157922476Y-104569690D02*
X157960571Y-104607785D01*
X157960571Y-104607785D02*
X157998667Y-104683976D01*
X157998667Y-104683976D02*
X157998667Y-104798261D01*
X157998667Y-104798261D02*
X157960571Y-104874452D01*
X157960571Y-104874452D02*
X157922476Y-104912547D01*
X157922476Y-104912547D02*
X157846286Y-104950642D01*
X157846286Y-104950642D02*
X157541524Y-104950642D01*
X158722476Y-104531595D02*
X158341524Y-104531595D01*
X158341524Y-104531595D02*
X158303428Y-104912547D01*
X158303428Y-104912547D02*
X158341524Y-104874452D01*
X158341524Y-104874452D02*
X158417714Y-104836357D01*
X158417714Y-104836357D02*
X158608190Y-104836357D01*
X158608190Y-104836357D02*
X158684381Y-104874452D01*
X158684381Y-104874452D02*
X158722476Y-104912547D01*
X158722476Y-104912547D02*
X158760571Y-104988738D01*
X158760571Y-104988738D02*
X158760571Y-105179214D01*
X158760571Y-105179214D02*
X158722476Y-105255404D01*
X158722476Y-105255404D02*
X158684381Y-105293500D01*
X158684381Y-105293500D02*
X158608190Y-105331595D01*
X158608190Y-105331595D02*
X158417714Y-105331595D01*
X158417714Y-105331595D02*
X158341524Y-105293500D01*
X158341524Y-105293500D02*
X158303428Y-105255404D01*
D13*
X144696895Y-111182285D02*
X144315942Y-111448952D01*
X144696895Y-111639428D02*
X143896895Y-111639428D01*
X143896895Y-111639428D02*
X143896895Y-111334666D01*
X143896895Y-111334666D02*
X143934990Y-111258476D01*
X143934990Y-111258476D02*
X143973085Y-111220381D01*
X143973085Y-111220381D02*
X144049276Y-111182285D01*
X144049276Y-111182285D02*
X144163561Y-111182285D01*
X144163561Y-111182285D02*
X144239752Y-111220381D01*
X144239752Y-111220381D02*
X144277847Y-111258476D01*
X144277847Y-111258476D02*
X144315942Y-111334666D01*
X144315942Y-111334666D02*
X144315942Y-111639428D01*
X144696895Y-110420381D02*
X144696895Y-110877524D01*
X144696895Y-110648952D02*
X143896895Y-110648952D01*
X143896895Y-110648952D02*
X144011180Y-110725143D01*
X144011180Y-110725143D02*
X144087371Y-110801333D01*
X144087371Y-110801333D02*
X144125466Y-110877524D01*
X144696895Y-109658476D02*
X144696895Y-110115619D01*
X144696895Y-109887047D02*
X143896895Y-109887047D01*
X143896895Y-109887047D02*
X144011180Y-109963238D01*
X144011180Y-109963238D02*
X144087371Y-110039428D01*
X144087371Y-110039428D02*
X144125466Y-110115619D01*
D12*
X150848667Y-112751595D02*
X150582000Y-112370642D01*
X150391524Y-112751595D02*
X150391524Y-111951595D01*
X150391524Y-111951595D02*
X150696286Y-111951595D01*
X150696286Y-111951595D02*
X150772476Y-111989690D01*
X150772476Y-111989690D02*
X150810571Y-112027785D01*
X150810571Y-112027785D02*
X150848667Y-112103976D01*
X150848667Y-112103976D02*
X150848667Y-112218261D01*
X150848667Y-112218261D02*
X150810571Y-112294452D01*
X150810571Y-112294452D02*
X150772476Y-112332547D01*
X150772476Y-112332547D02*
X150696286Y-112370642D01*
X150696286Y-112370642D02*
X150391524Y-112370642D01*
X151305809Y-112294452D02*
X151229619Y-112256357D01*
X151229619Y-112256357D02*
X151191524Y-112218261D01*
X151191524Y-112218261D02*
X151153428Y-112142071D01*
X151153428Y-112142071D02*
X151153428Y-112103976D01*
X151153428Y-112103976D02*
X151191524Y-112027785D01*
X151191524Y-112027785D02*
X151229619Y-111989690D01*
X151229619Y-111989690D02*
X151305809Y-111951595D01*
X151305809Y-111951595D02*
X151458190Y-111951595D01*
X151458190Y-111951595D02*
X151534381Y-111989690D01*
X151534381Y-111989690D02*
X151572476Y-112027785D01*
X151572476Y-112027785D02*
X151610571Y-112103976D01*
X151610571Y-112103976D02*
X151610571Y-112142071D01*
X151610571Y-112142071D02*
X151572476Y-112218261D01*
X151572476Y-112218261D02*
X151534381Y-112256357D01*
X151534381Y-112256357D02*
X151458190Y-112294452D01*
X151458190Y-112294452D02*
X151305809Y-112294452D01*
X151305809Y-112294452D02*
X151229619Y-112332547D01*
X151229619Y-112332547D02*
X151191524Y-112370642D01*
X151191524Y-112370642D02*
X151153428Y-112446833D01*
X151153428Y-112446833D02*
X151153428Y-112599214D01*
X151153428Y-112599214D02*
X151191524Y-112675404D01*
X151191524Y-112675404D02*
X151229619Y-112713500D01*
X151229619Y-112713500D02*
X151305809Y-112751595D01*
X151305809Y-112751595D02*
X151458190Y-112751595D01*
X151458190Y-112751595D02*
X151534381Y-112713500D01*
X151534381Y-112713500D02*
X151572476Y-112675404D01*
X151572476Y-112675404D02*
X151610571Y-112599214D01*
X151610571Y-112599214D02*
X151610571Y-112446833D01*
X151610571Y-112446833D02*
X151572476Y-112370642D01*
X151572476Y-112370642D02*
X151534381Y-112332547D01*
X151534381Y-112332547D02*
X151458190Y-112294452D01*
D11*
X118691524Y-103430295D02*
X118691524Y-102630295D01*
X118691524Y-102630295D02*
X118882000Y-102630295D01*
X118882000Y-102630295D02*
X118996286Y-102668390D01*
X118996286Y-102668390D02*
X119072476Y-102744580D01*
X119072476Y-102744580D02*
X119110571Y-102820771D01*
X119110571Y-102820771D02*
X119148667Y-102973152D01*
X119148667Y-102973152D02*
X119148667Y-103087438D01*
X119148667Y-103087438D02*
X119110571Y-103239819D01*
X119110571Y-103239819D02*
X119072476Y-103316009D01*
X119072476Y-103316009D02*
X118996286Y-103392200D01*
X118996286Y-103392200D02*
X118882000Y-103430295D01*
X118882000Y-103430295D02*
X118691524Y-103430295D01*
X119453428Y-102706485D02*
X119491524Y-102668390D01*
X119491524Y-102668390D02*
X119567714Y-102630295D01*
X119567714Y-102630295D02*
X119758190Y-102630295D01*
X119758190Y-102630295D02*
X119834381Y-102668390D01*
X119834381Y-102668390D02*
X119872476Y-102706485D01*
X119872476Y-102706485D02*
X119910571Y-102782676D01*
X119910571Y-102782676D02*
X119910571Y-102858866D01*
X119910571Y-102858866D02*
X119872476Y-102973152D01*
X119872476Y-102973152D02*
X119415333Y-103430295D01*
X119415333Y-103430295D02*
X119910571Y-103430295D01*
X165098667Y-135857854D02*
X165060571Y-135895950D01*
X165060571Y-135895950D02*
X164946286Y-135934045D01*
X164946286Y-135934045D02*
X164870095Y-135934045D01*
X164870095Y-135934045D02*
X164755809Y-135895950D01*
X164755809Y-135895950D02*
X164679619Y-135819759D01*
X164679619Y-135819759D02*
X164641524Y-135743569D01*
X164641524Y-135743569D02*
X164603428Y-135591188D01*
X164603428Y-135591188D02*
X164603428Y-135476902D01*
X164603428Y-135476902D02*
X164641524Y-135324521D01*
X164641524Y-135324521D02*
X164679619Y-135248330D01*
X164679619Y-135248330D02*
X164755809Y-135172140D01*
X164755809Y-135172140D02*
X164870095Y-135134045D01*
X164870095Y-135134045D02*
X164946286Y-135134045D01*
X164946286Y-135134045D02*
X165060571Y-135172140D01*
X165060571Y-135172140D02*
X165098667Y-135210235D01*
X165784381Y-135134045D02*
X165632000Y-135134045D01*
X165632000Y-135134045D02*
X165555809Y-135172140D01*
X165555809Y-135172140D02*
X165517714Y-135210235D01*
X165517714Y-135210235D02*
X165441524Y-135324521D01*
X165441524Y-135324521D02*
X165403428Y-135476902D01*
X165403428Y-135476902D02*
X165403428Y-135781664D01*
X165403428Y-135781664D02*
X165441524Y-135857854D01*
X165441524Y-135857854D02*
X165479619Y-135895950D01*
X165479619Y-135895950D02*
X165555809Y-135934045D01*
X165555809Y-135934045D02*
X165708190Y-135934045D01*
X165708190Y-135934045D02*
X165784381Y-135895950D01*
X165784381Y-135895950D02*
X165822476Y-135857854D01*
X165822476Y-135857854D02*
X165860571Y-135781664D01*
X165860571Y-135781664D02*
X165860571Y-135591188D01*
X165860571Y-135591188D02*
X165822476Y-135514997D01*
X165822476Y-135514997D02*
X165784381Y-135476902D01*
X165784381Y-135476902D02*
X165708190Y-135438807D01*
X165708190Y-135438807D02*
X165555809Y-135438807D01*
X165555809Y-135438807D02*
X165479619Y-135476902D01*
X165479619Y-135476902D02*
X165441524Y-135514997D01*
X165441524Y-135514997D02*
X165403428Y-135591188D01*
X167709354Y-129987047D02*
X167747450Y-130025143D01*
X167747450Y-130025143D02*
X167785545Y-130139428D01*
X167785545Y-130139428D02*
X167785545Y-130215619D01*
X167785545Y-130215619D02*
X167747450Y-130329905D01*
X167747450Y-130329905D02*
X167671259Y-130406095D01*
X167671259Y-130406095D02*
X167595069Y-130444190D01*
X167595069Y-130444190D02*
X167442688Y-130482286D01*
X167442688Y-130482286D02*
X167328402Y-130482286D01*
X167328402Y-130482286D02*
X167176021Y-130444190D01*
X167176021Y-130444190D02*
X167099830Y-130406095D01*
X167099830Y-130406095D02*
X167023640Y-130329905D01*
X167023640Y-130329905D02*
X166985545Y-130215619D01*
X166985545Y-130215619D02*
X166985545Y-130139428D01*
X166985545Y-130139428D02*
X167023640Y-130025143D01*
X167023640Y-130025143D02*
X167061735Y-129987047D01*
X166985545Y-129720381D02*
X166985545Y-129187047D01*
X166985545Y-129187047D02*
X167785545Y-129529905D01*
X167861735Y-129072762D02*
X167861735Y-128463238D01*
X167785545Y-127853714D02*
X167785545Y-128310857D01*
X167785545Y-128082285D02*
X166985545Y-128082285D01*
X166985545Y-128082285D02*
X167099830Y-128158476D01*
X167099830Y-128158476D02*
X167176021Y-128234666D01*
X167176021Y-128234666D02*
X167214116Y-128310857D01*
D12*
X146118667Y-104785404D02*
X146080571Y-104823500D01*
X146080571Y-104823500D02*
X145966286Y-104861595D01*
X145966286Y-104861595D02*
X145890095Y-104861595D01*
X145890095Y-104861595D02*
X145775809Y-104823500D01*
X145775809Y-104823500D02*
X145699619Y-104747309D01*
X145699619Y-104747309D02*
X145661524Y-104671119D01*
X145661524Y-104671119D02*
X145623428Y-104518738D01*
X145623428Y-104518738D02*
X145623428Y-104404452D01*
X145623428Y-104404452D02*
X145661524Y-104252071D01*
X145661524Y-104252071D02*
X145699619Y-104175880D01*
X145699619Y-104175880D02*
X145775809Y-104099690D01*
X145775809Y-104099690D02*
X145890095Y-104061595D01*
X145890095Y-104061595D02*
X145966286Y-104061595D01*
X145966286Y-104061595D02*
X146080571Y-104099690D01*
X146080571Y-104099690D02*
X146118667Y-104137785D01*
X146423428Y-104137785D02*
X146461524Y-104099690D01*
X146461524Y-104099690D02*
X146537714Y-104061595D01*
X146537714Y-104061595D02*
X146728190Y-104061595D01*
X146728190Y-104061595D02*
X146804381Y-104099690D01*
X146804381Y-104099690D02*
X146842476Y-104137785D01*
X146842476Y-104137785D02*
X146880571Y-104213976D01*
X146880571Y-104213976D02*
X146880571Y-104290166D01*
X146880571Y-104290166D02*
X146842476Y-104404452D01*
X146842476Y-104404452D02*
X146385333Y-104861595D01*
X146385333Y-104861595D02*
X146880571Y-104861595D01*
D10*
X121362000Y-112098000D02*
X118762000Y-112098000D01*
X118762000Y-109438000D02*
X118762000Y-112098000D01*
X121362000Y-109438000D02*
X121362000Y-112098000D01*
X121362000Y-109438000D02*
X118762000Y-109438000D01*
X122632000Y-109438000D02*
X123962000Y-109438000D01*
X123962000Y-109438000D02*
X123962000Y-110768000D01*
X157899742Y-108745500D02*
X158374258Y-108745500D01*
X157899742Y-109790500D02*
X158374258Y-109790500D01*
D11*
X156655750Y-131349250D02*
X156655750Y-131574250D01*
X156655750Y-134599250D02*
X156655750Y-134374250D01*
X159905750Y-131349250D02*
X156655750Y-131349250D01*
X159905750Y-131349250D02*
X159905750Y-131574250D01*
X159905750Y-134599250D02*
X156655750Y-134599250D01*
X159905750Y-134599250D02*
X159905750Y-134374250D01*
D10*
X160620750Y-134704250D02*
X160140750Y-134704250D01*
X160380750Y-134374250D01*
X160620750Y-134704250D01*
G36*
X160620750Y-134704250D02*
G01*
X160140750Y-134704250D01*
X160380750Y-134374250D01*
X160620750Y-134704250D01*
G37*
X152389258Y-130396750D02*
X151914742Y-130396750D01*
X152389258Y-131441750D02*
X151914742Y-131441750D01*
X137657000Y-99443000D02*
X139657000Y-99443000D01*
X137657000Y-102243000D02*
X137657000Y-99443000D01*
X139657000Y-99443000D02*
X139657000Y-102243000D01*
X139657000Y-102243000D02*
X137657000Y-102243000D01*
X122572000Y-103002420D02*
X122572000Y-103283580D01*
X123592000Y-103002420D02*
X123592000Y-103283580D01*
X144072000Y-101753000D02*
X147982000Y-101753000D01*
X147982000Y-99883000D02*
X144072000Y-99883000D01*
X147982000Y-101753000D02*
X147982000Y-99883000D01*
X163529500Y-129491508D02*
X163529500Y-129016992D01*
X164574500Y-129491508D02*
X164574500Y-129016992D01*
X140157000Y-99443000D02*
X142157000Y-99443000D01*
X140157000Y-102243000D02*
X140157000Y-99443000D01*
X142157000Y-99443000D02*
X142157000Y-102243000D01*
X142157000Y-102243000D02*
X140157000Y-102243000D01*
X160332000Y-115228000D02*
X160332000Y-109418000D01*
X160332000Y-115228000D02*
X164632000Y-115228000D01*
X164632000Y-115228000D02*
X164632000Y-109418000D01*
X172222000Y-121758000D02*
X179943000Y-121758000D01*
X172222000Y-131878000D02*
X172222000Y-121758000D01*
X172222000Y-131878000D02*
X179943000Y-131878000D01*
X173982000Y-131878000D02*
X173982000Y-121758000D01*
X175107000Y-123248000D02*
X175166000Y-123307000D01*
X175313000Y-123043000D02*
X175406000Y-123137000D01*
X177358000Y-125498000D02*
X177451000Y-125592000D01*
X177598000Y-125328000D02*
X177656000Y-125387000D01*
X178682000Y-131878000D02*
X178682000Y-121758000D01*
X179282000Y-131878000D02*
X179282000Y-121758000D01*
X179342000Y-132118000D02*
X180182000Y-132118000D01*
X179943000Y-131878000D02*
X179943000Y-121758000D01*
X180182000Y-132118000D02*
X180182000Y-131518000D01*
X174898047Y-130107089D02*
G75*
G02*
X174898000Y-128529000I1483948J789089D01*
G01*
X175592911Y-127834047D02*
G75*
G02*
X177171000Y-127834000I789089J-1483953D01*
G01*
X177171089Y-130801953D02*
G75*
G02*
X175593000Y-130802000I-789089J1483948D01*
G01*
X177865352Y-128529288D02*
G75*
G02*
X178062000Y-129318000I-1483352J-788712D01*
G01*
X178062450Y-129288617D02*
G75*
G02*
X177866000Y-130107000I-1680445J-29385D01*
G01*
X173932000Y-124318000D02*
G75*
G02*
X172832000Y-124318000I-550000J0D01*
G01*
X172832000Y-124318000D02*
G75*
G02*
X173932000Y-124318000I550000J0D01*
G01*
X173932000Y-129318000D02*
G75*
G02*
X172832000Y-129318000I-550000J0D01*
G01*
X172832000Y-129318000D02*
G75*
G02*
X173932000Y-129318000I550000J0D01*
G01*
X178062000Y-124318000D02*
G75*
G02*
X174702000Y-124318000I-1680000J0D01*
G01*
X174702000Y-124318000D02*
G75*
G02*
X178062000Y-124318000I1680000J0D01*
G01*
X161610750Y-129108670D02*
X161610750Y-129389830D01*
X162630750Y-129108670D02*
X162630750Y-129389830D01*
X142594258Y-126945500D02*
X142119742Y-126945500D01*
X142594258Y-127990500D02*
X142119742Y-127990500D01*
X145997000Y-115333000D02*
X145997000Y-116803000D01*
X145997000Y-116803000D02*
X148282000Y-116803000D01*
X148282000Y-115333000D02*
X145997000Y-115333000D01*
X153696420Y-135478000D02*
X153977580Y-135478000D01*
X153696420Y-136498000D02*
X153977580Y-136498000D01*
X152464258Y-133201750D02*
X151989742Y-133201750D01*
X152464258Y-134246750D02*
X151989742Y-134246750D01*
X159708250Y-129031992D02*
X159708250Y-129506508D01*
X160753250Y-129031992D02*
X160753250Y-129506508D01*
X137302000Y-105648000D02*
X137302000Y-104318000D01*
X138632000Y-105648000D02*
X137302000Y-105648000D01*
X139902000Y-102988000D02*
X142502000Y-102988000D01*
X139902000Y-105648000D02*
X139902000Y-102988000D01*
X139902000Y-105648000D02*
X142502000Y-105648000D01*
X142502000Y-105648000D02*
X142502000Y-102988000D01*
X161347580Y-135658000D02*
X161066420Y-135658000D01*
X161347580Y-136678000D02*
X161066420Y-136678000D01*
X146034500Y-113083000D02*
X146034500Y-114553000D01*
X146034500Y-114553000D02*
X148319500Y-114553000D01*
X148319500Y-113083000D02*
X146034500Y-113083000D01*
X160994742Y-137745500D02*
X161469258Y-137745500D01*
X160994742Y-138790500D02*
X161469258Y-138790500D01*
X128457000Y-127443000D02*
X134877000Y-127443000D01*
X128457000Y-134343000D02*
X134877000Y-134343000D01*
X134877000Y-127443000D02*
X134877000Y-127713000D01*
X134877000Y-134343000D02*
X134877000Y-134073000D01*
X136537000Y-134363000D02*
X136057000Y-134363000D01*
X136297000Y-134033000D01*
X136537000Y-134363000D01*
G36*
X136537000Y-134363000D02*
G01*
X136057000Y-134363000D01*
X136297000Y-134033000D01*
X136537000Y-134363000D01*
G37*
X167774500Y-116268000D02*
X167774500Y-120568000D01*
X167774500Y-116268000D02*
X173584500Y-116268000D01*
X167774500Y-120568000D02*
X173584500Y-120568000D01*
X149732000Y-102088000D02*
X149732000Y-100758000D01*
X151062000Y-102088000D02*
X149732000Y-102088000D01*
X152332000Y-99428000D02*
X157472000Y-99428000D01*
X152332000Y-102088000D02*
X152332000Y-99428000D01*
X152332000Y-102088000D02*
X157472000Y-102088000D01*
X157472000Y-102088000D02*
X157472000Y-99428000D01*
X157899742Y-111795500D02*
X158374258Y-111795500D01*
X157899742Y-112840500D02*
X158374258Y-112840500D01*
X120509500Y-106630258D02*
X120509500Y-106155742D01*
X121554500Y-106630258D02*
X121554500Y-106155742D01*
X145822580Y-126958000D02*
X145541420Y-126958000D01*
X145822580Y-127978000D02*
X145541420Y-127978000D01*
X154419742Y-115545500D02*
X154894258Y-115545500D01*
X154419742Y-116590500D02*
X154894258Y-116590500D01*
X150744742Y-115545500D02*
X151219258Y-115545500D01*
X150744742Y-116590500D02*
X151219258Y-116590500D01*
D14*
X126093700Y-113338600D02*
X126093700Y-116130060D01*
X126093700Y-123805940D02*
X126093700Y-126597400D01*
X126093700Y-126597400D02*
X139352500Y-126597400D01*
X139352500Y-113338600D02*
X126093700Y-113338600D01*
X139352500Y-116130060D02*
X139352500Y-113338600D01*
X139352500Y-126597400D02*
X139352500Y-123805940D01*
D10*
X165772000Y-100853436D02*
X165772000Y-105207564D01*
X169192000Y-100853436D02*
X169192000Y-105207564D01*
X165772000Y-113707564D02*
X165772000Y-109353436D01*
X169192000Y-113707564D02*
X169192000Y-109353436D01*
X157899742Y-106045500D02*
X158374258Y-106045500D01*
X157899742Y-107090500D02*
X158374258Y-107090500D01*
X142357000Y-119243000D02*
X148777000Y-119243000D01*
X142357000Y-126143000D02*
X148777000Y-126143000D01*
X148777000Y-119243000D02*
X148777000Y-119513000D01*
X148777000Y-126143000D02*
X148777000Y-125873000D01*
X150437000Y-126163000D02*
X149957000Y-126163000D01*
X150197000Y-125833000D01*
X150437000Y-126163000D01*
G36*
X150437000Y-126163000D02*
G01*
X149957000Y-126163000D01*
X150197000Y-125833000D01*
X150437000Y-126163000D01*
G37*
X145209500Y-106960258D02*
X145209500Y-106485742D01*
X146254500Y-106960258D02*
X146254500Y-106485742D01*
X156772000Y-115958000D02*
X156772000Y-118808000D01*
X156772000Y-124678000D02*
X156772000Y-121828000D01*
X164427563Y-115958000D02*
X156772000Y-115958000D01*
X164427563Y-124678000D02*
X156772000Y-124678000D01*
X165492000Y-117022437D02*
X164427563Y-115958000D01*
X165492000Y-117022437D02*
X165492000Y-118808000D01*
X165492000Y-123613563D02*
X164427563Y-124678000D01*
X165492000Y-123613563D02*
X165492000Y-121828000D01*
X166232000Y-123328000D02*
X166232000Y-122328000D01*
X166732000Y-122828000D02*
X165732000Y-122828000D01*
X160332000Y-99258000D02*
X160332000Y-105068000D01*
X164632000Y-99258000D02*
X160332000Y-99258000D01*
X164632000Y-99258000D02*
X164632000Y-105068000D01*
X154319742Y-113295500D02*
X154794258Y-113295500D01*
X154319742Y-114340500D02*
X154794258Y-114340500D01*
X152464258Y-127451750D02*
X151989742Y-127451750D01*
X152464258Y-128496750D02*
X151989742Y-128496750D01*
D15*
X149482000Y-106048000D02*
X153482000Y-106048000D01*
X149482000Y-111088000D02*
X153482000Y-111088000D01*
D16*
X147137000Y-106073000D02*
G75*
G02*
X146937000Y-106073000I-100000J0D01*
G01*
X146937000Y-106073000D02*
G75*
G02*
X147137000Y-106073000I100000J0D01*
G01*
D10*
X172222000Y-101108000D02*
X179943000Y-101108000D01*
X172222000Y-111228000D02*
X172222000Y-101108000D01*
X172222000Y-111228000D02*
X179943000Y-111228000D01*
X173982000Y-111228000D02*
X173982000Y-101108000D01*
X175107000Y-102598000D02*
X175166000Y-102657000D01*
X175313000Y-102393000D02*
X175406000Y-102487000D01*
X177358000Y-104848000D02*
X177451000Y-104942000D01*
X177598000Y-104678000D02*
X177656000Y-104737000D01*
X178682000Y-111228000D02*
X178682000Y-101108000D01*
X179282000Y-111228000D02*
X179282000Y-101108000D01*
X179342000Y-111468000D02*
X180182000Y-111468000D01*
X179943000Y-111228000D02*
X179943000Y-101108000D01*
X180182000Y-111468000D02*
X180182000Y-110868000D01*
X174898047Y-109457089D02*
G75*
G02*
X174898000Y-107879000I1483948J789089D01*
G01*
X175592911Y-107184047D02*
G75*
G02*
X177171000Y-107184000I789089J-1483953D01*
G01*
X177171089Y-110151953D02*
G75*
G02*
X175593000Y-110152000I-789089J1483948D01*
G01*
X177865352Y-107879288D02*
G75*
G02*
X178062000Y-108668000I-1483352J-788712D01*
G01*
X178062450Y-108638617D02*
G75*
G02*
X177866000Y-109457000I-1680445J-29385D01*
G01*
X173932000Y-103668000D02*
G75*
G02*
X172832000Y-103668000I-550000J0D01*
G01*
X172832000Y-103668000D02*
G75*
G02*
X173932000Y-103668000I550000J0D01*
G01*
X173932000Y-108668000D02*
G75*
G02*
X172832000Y-108668000I-550000J0D01*
G01*
X172832000Y-108668000D02*
G75*
G02*
X173932000Y-108668000I550000J0D01*
G01*
X178062000Y-103668000D02*
G75*
G02*
X174702000Y-103668000I-1680000J0D01*
G01*
X174702000Y-103668000D02*
G75*
G02*
X178062000Y-103668000I1680000J0D01*
G01*
X162909500Y-133605258D02*
X162909500Y-133130742D01*
X163954500Y-133605258D02*
X163954500Y-133130742D01*
X126272000Y-101758000D02*
X129122000Y-101758000D01*
X126272000Y-109413563D02*
X126272000Y-101758000D01*
X127336437Y-110478000D02*
X126272000Y-109413563D01*
X127336437Y-110478000D02*
X129122000Y-110478000D01*
X127622000Y-111218000D02*
X128622000Y-111218000D01*
X128122000Y-111718000D02*
X128122000Y-110718000D01*
X133927563Y-110478000D02*
X132142000Y-110478000D01*
X133927563Y-110478000D02*
X134992000Y-109413563D01*
X134992000Y-101758000D02*
X132142000Y-101758000D01*
X134992000Y-109413563D02*
X134992000Y-101758000D01*
X157899742Y-103045500D02*
X158374258Y-103045500D01*
X157899742Y-104090500D02*
X158374258Y-104090500D01*
X145209500Y-110505742D02*
X145209500Y-110980258D01*
X146254500Y-110505742D02*
X146254500Y-110980258D01*
X150744742Y-113295500D02*
X151219258Y-113295500D01*
X150744742Y-114340500D02*
X151219258Y-114340500D01*
X120297000Y-102305500D02*
X120297000Y-104590500D01*
X120297000Y-104590500D02*
X121767000Y-104590500D01*
X121767000Y-104590500D02*
X121767000Y-102305500D01*
X164783250Y-133558580D02*
X164783250Y-133277420D01*
X165803250Y-133558580D02*
X165803250Y-133277420D01*
X165522000Y-129389830D02*
X165522000Y-129108670D01*
X166542000Y-129389830D02*
X166542000Y-129108670D01*
X146392580Y-102558000D02*
X146111420Y-102558000D01*
X146392580Y-103578000D02*
X146111420Y-103578000D01*
M02*
