%TF.GenerationSoftware,KiCad,Pcbnew,8.0.6*%
%TF.CreationDate,2024-11-30T08:29:52-08:00*%
%TF.ProjectId,pi-zero-serial-hat,70692d7a-6572-46f2-9d73-657269616c2d,1.0*%
%TF.SameCoordinates,Original*%
%TF.FileFunction,Drillmap*%
%TF.FilePolarity,Positive*%
%FSLAX45Y45*%
G04 Gerber Fmt 4.5, Leading zero omitted, Abs format (unit mm)*
G04 Created by KiCad (PCBNEW 8.0.6) date 2024-11-30 08:29:52*
%MOMM*%
%LPD*%
G01*
G04 APERTURE LIST*
%ADD10C,0.150000*%
%ADD11C,0.200000*%
%ADD12C,0.100000*%
%ADD13C,0.130000*%
%ADD14C,0.300000*%
G04 APERTURE END LIST*
D10*
X12103200Y-14106800D02*
X17903200Y-14106800D01*
X17953200Y-9106800D02*
G75*
G02*
X18253200Y-9406800I0J-300000D01*
G01*
X18253200Y-13806800D02*
G75*
G02*
X17953200Y-14106800I-300000J0D01*
G01*
X12053200Y-14106800D02*
G75*
G02*
X11753200Y-13806800I0J300000D01*
G01*
X11753200Y-9406800D02*
G75*
G02*
X12053200Y-9106800I300000J0D01*
G01*
X11753200Y-11806800D02*
X11753200Y-9406800D01*
X12053200Y-9106800D02*
X17953200Y-9106800D01*
X18253200Y-9406800D02*
X18253200Y-11806800D01*
X11753200Y-13806800D02*
X11753200Y-11806800D01*
X12103200Y-14106800D02*
X12053200Y-14106800D01*
X18253200Y-11806800D02*
X18253200Y-13806800D01*
X17953200Y-14106800D02*
X17903200Y-14106800D01*
D11*
D12*
X13558200Y-11186800D02*
X13598200Y-11226800D01*
X13598200Y-11186800D02*
X13558200Y-11226800D01*
X14358200Y-10286800D02*
X14398200Y-10326800D01*
X14398200Y-10286800D02*
X14358200Y-10326800D01*
X14358200Y-10386800D02*
X14398200Y-10426800D01*
X14398200Y-10386800D02*
X14358200Y-10426800D01*
X14358200Y-10486800D02*
X14398200Y-10526800D01*
X14398200Y-10486800D02*
X14358200Y-10526800D01*
X14358200Y-10586800D02*
X14398200Y-10626800D01*
X14398200Y-10586800D02*
X14358200Y-10626800D01*
X14703200Y-10836800D02*
X14743200Y-10876800D01*
X14743200Y-10836800D02*
X14703200Y-10876800D01*
X14733200Y-12711800D02*
X14773200Y-12751800D01*
X14773200Y-12711800D02*
X14733200Y-12751800D01*
X14833200Y-12711800D02*
X14873200Y-12751800D01*
X14873200Y-12711800D02*
X14833200Y-12751800D01*
X14933200Y-12161800D02*
X14973200Y-12201800D01*
X14973200Y-12161800D02*
X14933200Y-12201800D01*
X14933200Y-12261800D02*
X14973200Y-12301800D01*
X14973200Y-12261800D02*
X14933200Y-12301800D01*
X15033200Y-12161800D02*
X15073200Y-12201800D01*
X15073200Y-12161800D02*
X15033200Y-12201800D01*
X15033200Y-12261800D02*
X15073200Y-12301800D01*
X15073200Y-12261800D02*
X15033200Y-12301800D01*
X15133200Y-12161800D02*
X15173200Y-12201800D01*
X15173200Y-12161800D02*
X15133200Y-12201800D01*
X15133200Y-12261800D02*
X15173200Y-12301800D01*
X15173200Y-12261800D02*
X15133200Y-12301800D01*
X15163200Y-10446800D02*
X15203200Y-10486800D01*
X15203200Y-10446800D02*
X15163200Y-10486800D01*
X15183200Y-11196800D02*
X15223200Y-11236800D01*
X15223200Y-11196800D02*
X15183200Y-11236800D01*
X15583200Y-12811800D02*
X15623200Y-12851800D01*
X15623200Y-12811800D02*
X15583200Y-12851800D01*
X15583200Y-12911800D02*
X15623200Y-12951800D01*
X15623200Y-12911800D02*
X15583200Y-12951800D01*
X15593200Y-11066800D02*
X15633200Y-11106800D01*
X15633200Y-11066800D02*
X15593200Y-11106800D01*
X15683200Y-12811800D02*
X15723200Y-12851800D01*
X15723200Y-12811800D02*
X15683200Y-12851800D01*
X15683200Y-12911800D02*
X15723200Y-12951800D01*
X15723200Y-12911800D02*
X15683200Y-12951800D01*
X15783200Y-12911800D02*
X15823200Y-12951800D01*
X15823200Y-12911800D02*
X15783200Y-12951800D01*
X15798200Y-12296800D02*
X15838200Y-12336800D01*
X15838200Y-12296800D02*
X15798200Y-12336800D01*
X16343200Y-13596800D02*
X16383200Y-13636800D01*
X16383200Y-13596800D02*
X16343200Y-13636800D01*
X16383200Y-12596800D02*
X16423200Y-12636800D01*
X16423200Y-12596800D02*
X16383200Y-12636800D01*
X16583200Y-12596800D02*
X16623200Y-12636800D01*
X16623200Y-12596800D02*
X16583200Y-12636800D01*
X16678200Y-13246800D02*
X16718200Y-13286800D01*
X16718200Y-13246800D02*
X16678200Y-13286800D01*
X12059200Y-11076800D02*
G75*
G02*
X11959200Y-11076800I-50000J0D01*
G01*
X11959200Y-11076800D02*
G75*
G02*
X12059200Y-11076800I50000J0D01*
G01*
X12313200Y-11076800D02*
G75*
G02*
X12213200Y-11076800I-50000J0D01*
G01*
X12213200Y-11076800D02*
G75*
G02*
X12313200Y-11076800I50000J0D01*
G01*
X12643200Y-9331800D02*
G75*
G02*
X12543200Y-9331800I-50000J0D01*
G01*
X12543200Y-9331800D02*
G75*
G02*
X12643200Y-9331800I50000J0D01*
G01*
X12643200Y-9585800D02*
G75*
G02*
X12543200Y-9585800I-50000J0D01*
G01*
X12543200Y-9585800D02*
G75*
G02*
X12643200Y-9585800I50000J0D01*
G01*
X12897200Y-9331800D02*
G75*
G02*
X12797200Y-9331800I-50000J0D01*
G01*
X12797200Y-9331800D02*
G75*
G02*
X12897200Y-9331800I50000J0D01*
G01*
X12897200Y-9585800D02*
G75*
G02*
X12797200Y-9585800I-50000J0D01*
G01*
X12797200Y-9585800D02*
G75*
G02*
X12897200Y-9585800I50000J0D01*
G01*
X13151200Y-9331800D02*
G75*
G02*
X13051200Y-9331800I-50000J0D01*
G01*
X13051200Y-9331800D02*
G75*
G02*
X13151200Y-9331800I50000J0D01*
G01*
X13151200Y-9585800D02*
G75*
G02*
X13051200Y-9585800I-50000J0D01*
G01*
X13051200Y-9585800D02*
G75*
G02*
X13151200Y-9585800I50000J0D01*
G01*
X13405200Y-9331800D02*
G75*
G02*
X13305200Y-9331800I-50000J0D01*
G01*
X13305200Y-9331800D02*
G75*
G02*
X13405200Y-9331800I50000J0D01*
G01*
X13405200Y-9585800D02*
G75*
G02*
X13305200Y-9585800I-50000J0D01*
G01*
X13305200Y-9585800D02*
G75*
G02*
X13405200Y-9585800I50000J0D01*
G01*
X13659200Y-9331800D02*
G75*
G02*
X13559200Y-9331800I-50000J0D01*
G01*
X13559200Y-9331800D02*
G75*
G02*
X13659200Y-9331800I50000J0D01*
G01*
X13659200Y-9585800D02*
G75*
G02*
X13559200Y-9585800I-50000J0D01*
G01*
X13559200Y-9585800D02*
G75*
G02*
X13659200Y-9585800I50000J0D01*
G01*
X13913200Y-9331800D02*
G75*
G02*
X13813200Y-9331800I-50000J0D01*
G01*
X13813200Y-9331800D02*
G75*
G02*
X13913200Y-9331800I50000J0D01*
G01*
X13913200Y-9585800D02*
G75*
G02*
X13813200Y-9585800I-50000J0D01*
G01*
X13813200Y-9585800D02*
G75*
G02*
X13913200Y-9585800I50000J0D01*
G01*
X13913200Y-10431800D02*
G75*
G02*
X13813200Y-10431800I-50000J0D01*
G01*
X13813200Y-10431800D02*
G75*
G02*
X13913200Y-10431800I50000J0D01*
G01*
X14167200Y-9331800D02*
G75*
G02*
X14067200Y-9331800I-50000J0D01*
G01*
X14067200Y-9331800D02*
G75*
G02*
X14167200Y-9331800I50000J0D01*
G01*
X14167200Y-9585800D02*
G75*
G02*
X14067200Y-9585800I-50000J0D01*
G01*
X14067200Y-9585800D02*
G75*
G02*
X14167200Y-9585800I50000J0D01*
G01*
X14167200Y-10431800D02*
G75*
G02*
X14067200Y-10431800I-50000J0D01*
G01*
X14067200Y-10431800D02*
G75*
G02*
X14167200Y-10431800I50000J0D01*
G01*
X14421200Y-9331800D02*
G75*
G02*
X14321200Y-9331800I-50000J0D01*
G01*
X14321200Y-9331800D02*
G75*
G02*
X14421200Y-9331800I50000J0D01*
G01*
X14421200Y-9585800D02*
G75*
G02*
X14321200Y-9585800I-50000J0D01*
G01*
X14321200Y-9585800D02*
G75*
G02*
X14421200Y-9585800I50000J0D01*
G01*
X14675200Y-9331800D02*
G75*
G02*
X14575200Y-9331800I-50000J0D01*
G01*
X14575200Y-9331800D02*
G75*
G02*
X14675200Y-9331800I50000J0D01*
G01*
X14675200Y-9585800D02*
G75*
G02*
X14575200Y-9585800I-50000J0D01*
G01*
X14575200Y-9585800D02*
G75*
G02*
X14675200Y-9585800I50000J0D01*
G01*
X14929200Y-9331800D02*
G75*
G02*
X14829200Y-9331800I-50000J0D01*
G01*
X14829200Y-9331800D02*
G75*
G02*
X14929200Y-9331800I50000J0D01*
G01*
X14929200Y-9585800D02*
G75*
G02*
X14829200Y-9585800I-50000J0D01*
G01*
X14829200Y-9585800D02*
G75*
G02*
X14929200Y-9585800I50000J0D01*
G01*
X15156200Y-10075800D02*
G75*
G02*
X15056200Y-10075800I-50000J0D01*
G01*
X15056200Y-10075800D02*
G75*
G02*
X15156200Y-10075800I50000J0D01*
G01*
X15183200Y-9331800D02*
G75*
G02*
X15083200Y-9331800I-50000J0D01*
G01*
X15083200Y-9331800D02*
G75*
G02*
X15183200Y-9331800I50000J0D01*
G01*
X15183200Y-9585800D02*
G75*
G02*
X15083200Y-9585800I-50000J0D01*
G01*
X15083200Y-9585800D02*
G75*
G02*
X15183200Y-9585800I50000J0D01*
G01*
X15410200Y-10075800D02*
G75*
G02*
X15310200Y-10075800I-50000J0D01*
G01*
X15310200Y-10075800D02*
G75*
G02*
X15410200Y-10075800I50000J0D01*
G01*
X15437200Y-9331800D02*
G75*
G02*
X15337200Y-9331800I-50000J0D01*
G01*
X15337200Y-9331800D02*
G75*
G02*
X15437200Y-9331800I50000J0D01*
G01*
X15437200Y-9585800D02*
G75*
G02*
X15337200Y-9585800I-50000J0D01*
G01*
X15337200Y-9585800D02*
G75*
G02*
X15437200Y-9585800I50000J0D01*
G01*
X15664200Y-10075800D02*
G75*
G02*
X15564200Y-10075800I-50000J0D01*
G01*
X15564200Y-10075800D02*
G75*
G02*
X15664200Y-10075800I50000J0D01*
G01*
X15691200Y-9331800D02*
G75*
G02*
X15591200Y-9331800I-50000J0D01*
G01*
X15591200Y-9331800D02*
G75*
G02*
X15691200Y-9331800I50000J0D01*
G01*
X15691200Y-9585800D02*
G75*
G02*
X15591200Y-9585800I-50000J0D01*
G01*
X15591200Y-9585800D02*
G75*
G02*
X15691200Y-9585800I50000J0D01*
G01*
X15945200Y-9331800D02*
G75*
G02*
X15845200Y-9331800I-50000J0D01*
G01*
X15845200Y-9331800D02*
G75*
G02*
X15945200Y-9331800I50000J0D01*
G01*
X15945200Y-9585800D02*
G75*
G02*
X15845200Y-9585800I-50000J0D01*
G01*
X15845200Y-9585800D02*
G75*
G02*
X15945200Y-9585800I50000J0D01*
G01*
X16199200Y-9331800D02*
G75*
G02*
X16099200Y-9331800I-50000J0D01*
G01*
X16099200Y-9331800D02*
G75*
G02*
X16199200Y-9331800I50000J0D01*
G01*
X16199200Y-9585800D02*
G75*
G02*
X16099200Y-9585800I-50000J0D01*
G01*
X16099200Y-9585800D02*
G75*
G02*
X16199200Y-9585800I50000J0D01*
G01*
X16453200Y-9331800D02*
G75*
G02*
X16353200Y-9331800I-50000J0D01*
G01*
X16353200Y-9331800D02*
G75*
G02*
X16453200Y-9331800I50000J0D01*
G01*
X16453200Y-9585800D02*
G75*
G02*
X16353200Y-9585800I-50000J0D01*
G01*
X16353200Y-9585800D02*
G75*
G02*
X16453200Y-9585800I50000J0D01*
G01*
X16707200Y-9331800D02*
G75*
G02*
X16607200Y-9331800I-50000J0D01*
G01*
X16607200Y-9331800D02*
G75*
G02*
X16707200Y-9331800I50000J0D01*
G01*
X16707200Y-9585800D02*
G75*
G02*
X16607200Y-9585800I-50000J0D01*
G01*
X16607200Y-9585800D02*
G75*
G02*
X16707200Y-9585800I50000J0D01*
G01*
X16961200Y-9331800D02*
G75*
G02*
X16861200Y-9331800I-50000J0D01*
G01*
X16861200Y-9331800D02*
G75*
G02*
X16961200Y-9331800I50000J0D01*
G01*
X16961200Y-9585800D02*
G75*
G02*
X16861200Y-9585800I-50000J0D01*
G01*
X16861200Y-9585800D02*
G75*
G02*
X16961200Y-9585800I50000J0D01*
G01*
X17215200Y-9331800D02*
G75*
G02*
X17115200Y-9331800I-50000J0D01*
G01*
X17115200Y-9331800D02*
G75*
G02*
X17215200Y-9331800I50000J0D01*
G01*
X17215200Y-9585800D02*
G75*
G02*
X17115200Y-9585800I-50000J0D01*
G01*
X17115200Y-9585800D02*
G75*
G02*
X17215200Y-9585800I50000J0D01*
G01*
X17469200Y-9331800D02*
G75*
G02*
X17369200Y-9331800I-50000J0D01*
G01*
X17369200Y-9331800D02*
G75*
G02*
X17469200Y-9331800I50000J0D01*
G01*
X17469200Y-9585800D02*
G75*
G02*
X17369200Y-9585800I-50000J0D01*
G01*
X17369200Y-9585800D02*
G75*
G02*
X17469200Y-9585800I50000J0D01*
G01*
D13*
X17638200Y-10301800D02*
X17638200Y-10431800D01*
X17573200Y-10366800D02*
X17703200Y-10366800D01*
X17638200Y-10801800D02*
X17638200Y-10931800D01*
X17573200Y-10866800D02*
X17703200Y-10866800D01*
X17638200Y-12366800D02*
X17638200Y-12496800D01*
X17573200Y-12431800D02*
X17703200Y-12431800D01*
X17638200Y-12866800D02*
X17638200Y-12996800D01*
X17573200Y-12931800D02*
X17703200Y-12931800D01*
D14*
X12209267Y-9562867D02*
X12209267Y-9350733D01*
X11997133Y-9350733D01*
X11997133Y-9562867D01*
X12209267Y-9562867D01*
X12209267Y-11862867D02*
X12209267Y-11650733D01*
X11997133Y-11650733D01*
X11997133Y-11862867D01*
X12209267Y-11862867D01*
X18009267Y-9562867D02*
X18009267Y-9350733D01*
X17797133Y-9350733D01*
X17797133Y-9562867D01*
X18009267Y-9562867D01*
X18009267Y-11862867D02*
X18009267Y-11650733D01*
X17797133Y-11650733D01*
X17797133Y-11862867D01*
X18009267Y-11862867D01*
D11*
X12006477Y-14425784D02*
X12006477Y-14225784D01*
X12006477Y-14225784D02*
X12054096Y-14225784D01*
X12054096Y-14225784D02*
X12082667Y-14235308D01*
X12082667Y-14235308D02*
X12101715Y-14254355D01*
X12101715Y-14254355D02*
X12111239Y-14273403D01*
X12111239Y-14273403D02*
X12120762Y-14311498D01*
X12120762Y-14311498D02*
X12120762Y-14340069D01*
X12120762Y-14340069D02*
X12111239Y-14378165D01*
X12111239Y-14378165D02*
X12101715Y-14397212D01*
X12101715Y-14397212D02*
X12082667Y-14416260D01*
X12082667Y-14416260D02*
X12054096Y-14425784D01*
X12054096Y-14425784D02*
X12006477Y-14425784D01*
X12206477Y-14425784D02*
X12206477Y-14292450D01*
X12206477Y-14330546D02*
X12216001Y-14311498D01*
X12216001Y-14311498D02*
X12225524Y-14301974D01*
X12225524Y-14301974D02*
X12244572Y-14292450D01*
X12244572Y-14292450D02*
X12263620Y-14292450D01*
X12330286Y-14425784D02*
X12330286Y-14292450D01*
X12330286Y-14225784D02*
X12320762Y-14235308D01*
X12320762Y-14235308D02*
X12330286Y-14244831D01*
X12330286Y-14244831D02*
X12339810Y-14235308D01*
X12339810Y-14235308D02*
X12330286Y-14225784D01*
X12330286Y-14225784D02*
X12330286Y-14244831D01*
X12454096Y-14425784D02*
X12435048Y-14416260D01*
X12435048Y-14416260D02*
X12425524Y-14397212D01*
X12425524Y-14397212D02*
X12425524Y-14225784D01*
X12558858Y-14425784D02*
X12539810Y-14416260D01*
X12539810Y-14416260D02*
X12530286Y-14397212D01*
X12530286Y-14397212D02*
X12530286Y-14225784D01*
X12787429Y-14425784D02*
X12787429Y-14225784D01*
X12787429Y-14225784D02*
X12854096Y-14368641D01*
X12854096Y-14368641D02*
X12920762Y-14225784D01*
X12920762Y-14225784D02*
X12920762Y-14425784D01*
X13101715Y-14425784D02*
X13101715Y-14321022D01*
X13101715Y-14321022D02*
X13092191Y-14301974D01*
X13092191Y-14301974D02*
X13073143Y-14292450D01*
X13073143Y-14292450D02*
X13035048Y-14292450D01*
X13035048Y-14292450D02*
X13016001Y-14301974D01*
X13101715Y-14416260D02*
X13082667Y-14425784D01*
X13082667Y-14425784D02*
X13035048Y-14425784D01*
X13035048Y-14425784D02*
X13016001Y-14416260D01*
X13016001Y-14416260D02*
X13006477Y-14397212D01*
X13006477Y-14397212D02*
X13006477Y-14378165D01*
X13006477Y-14378165D02*
X13016001Y-14359117D01*
X13016001Y-14359117D02*
X13035048Y-14349593D01*
X13035048Y-14349593D02*
X13082667Y-14349593D01*
X13082667Y-14349593D02*
X13101715Y-14340069D01*
X13196953Y-14292450D02*
X13196953Y-14492450D01*
X13196953Y-14301974D02*
X13216001Y-14292450D01*
X13216001Y-14292450D02*
X13254096Y-14292450D01*
X13254096Y-14292450D02*
X13273143Y-14301974D01*
X13273143Y-14301974D02*
X13282667Y-14311498D01*
X13282667Y-14311498D02*
X13292191Y-14330546D01*
X13292191Y-14330546D02*
X13292191Y-14387688D01*
X13292191Y-14387688D02*
X13282667Y-14406736D01*
X13282667Y-14406736D02*
X13273143Y-14416260D01*
X13273143Y-14416260D02*
X13254096Y-14425784D01*
X13254096Y-14425784D02*
X13216001Y-14425784D01*
X13216001Y-14425784D02*
X13196953Y-14416260D01*
X13377905Y-14406736D02*
X13387429Y-14416260D01*
X13387429Y-14416260D02*
X13377905Y-14425784D01*
X13377905Y-14425784D02*
X13368382Y-14416260D01*
X13368382Y-14416260D02*
X13377905Y-14406736D01*
X13377905Y-14406736D02*
X13377905Y-14425784D01*
X13377905Y-14301974D02*
X13387429Y-14311498D01*
X13387429Y-14311498D02*
X13377905Y-14321022D01*
X13377905Y-14321022D02*
X13368382Y-14311498D01*
X13368382Y-14311498D02*
X13377905Y-14301974D01*
X13377905Y-14301974D02*
X13377905Y-14321022D01*
D12*
X11705700Y-14734300D02*
X11745700Y-14774300D01*
X11745700Y-14734300D02*
X11705700Y-14774300D01*
D11*
X12044572Y-14645784D02*
X12063620Y-14645784D01*
X12063620Y-14645784D02*
X12082667Y-14655308D01*
X12082667Y-14655308D02*
X12092191Y-14664831D01*
X12092191Y-14664831D02*
X12101715Y-14683879D01*
X12101715Y-14683879D02*
X12111239Y-14721974D01*
X12111239Y-14721974D02*
X12111239Y-14769593D01*
X12111239Y-14769593D02*
X12101715Y-14807688D01*
X12101715Y-14807688D02*
X12092191Y-14826736D01*
X12092191Y-14826736D02*
X12082667Y-14836260D01*
X12082667Y-14836260D02*
X12063620Y-14845784D01*
X12063620Y-14845784D02*
X12044572Y-14845784D01*
X12044572Y-14845784D02*
X12025524Y-14836260D01*
X12025524Y-14836260D02*
X12016001Y-14826736D01*
X12016001Y-14826736D02*
X12006477Y-14807688D01*
X12006477Y-14807688D02*
X11996953Y-14769593D01*
X11996953Y-14769593D02*
X11996953Y-14721974D01*
X11996953Y-14721974D02*
X12006477Y-14683879D01*
X12006477Y-14683879D02*
X12016001Y-14664831D01*
X12016001Y-14664831D02*
X12025524Y-14655308D01*
X12025524Y-14655308D02*
X12044572Y-14645784D01*
X12196953Y-14826736D02*
X12206477Y-14836260D01*
X12206477Y-14836260D02*
X12196953Y-14845784D01*
X12196953Y-14845784D02*
X12187429Y-14836260D01*
X12187429Y-14836260D02*
X12196953Y-14826736D01*
X12196953Y-14826736D02*
X12196953Y-14845784D01*
X12377905Y-14712450D02*
X12377905Y-14845784D01*
X12330286Y-14636260D02*
X12282667Y-14779117D01*
X12282667Y-14779117D02*
X12406477Y-14779117D01*
X12520762Y-14645784D02*
X12539810Y-14645784D01*
X12539810Y-14645784D02*
X12558858Y-14655308D01*
X12558858Y-14655308D02*
X12568382Y-14664831D01*
X12568382Y-14664831D02*
X12577905Y-14683879D01*
X12577905Y-14683879D02*
X12587429Y-14721974D01*
X12587429Y-14721974D02*
X12587429Y-14769593D01*
X12587429Y-14769593D02*
X12577905Y-14807688D01*
X12577905Y-14807688D02*
X12568382Y-14826736D01*
X12568382Y-14826736D02*
X12558858Y-14836260D01*
X12558858Y-14836260D02*
X12539810Y-14845784D01*
X12539810Y-14845784D02*
X12520762Y-14845784D01*
X12520762Y-14845784D02*
X12501715Y-14836260D01*
X12501715Y-14836260D02*
X12492191Y-14826736D01*
X12492191Y-14826736D02*
X12482667Y-14807688D01*
X12482667Y-14807688D02*
X12473143Y-14769593D01*
X12473143Y-14769593D02*
X12473143Y-14721974D01*
X12473143Y-14721974D02*
X12482667Y-14683879D01*
X12482667Y-14683879D02*
X12492191Y-14664831D01*
X12492191Y-14664831D02*
X12501715Y-14655308D01*
X12501715Y-14655308D02*
X12520762Y-14645784D01*
X12711239Y-14645784D02*
X12730286Y-14645784D01*
X12730286Y-14645784D02*
X12749334Y-14655308D01*
X12749334Y-14655308D02*
X12758858Y-14664831D01*
X12758858Y-14664831D02*
X12768382Y-14683879D01*
X12768382Y-14683879D02*
X12777905Y-14721974D01*
X12777905Y-14721974D02*
X12777905Y-14769593D01*
X12777905Y-14769593D02*
X12768382Y-14807688D01*
X12768382Y-14807688D02*
X12758858Y-14826736D01*
X12758858Y-14826736D02*
X12749334Y-14836260D01*
X12749334Y-14836260D02*
X12730286Y-14845784D01*
X12730286Y-14845784D02*
X12711239Y-14845784D01*
X12711239Y-14845784D02*
X12692191Y-14836260D01*
X12692191Y-14836260D02*
X12682667Y-14826736D01*
X12682667Y-14826736D02*
X12673143Y-14807688D01*
X12673143Y-14807688D02*
X12663620Y-14769593D01*
X12663620Y-14769593D02*
X12663620Y-14721974D01*
X12663620Y-14721974D02*
X12673143Y-14683879D01*
X12673143Y-14683879D02*
X12682667Y-14664831D01*
X12682667Y-14664831D02*
X12692191Y-14655308D01*
X12692191Y-14655308D02*
X12711239Y-14645784D01*
X12863620Y-14845784D02*
X12863620Y-14712450D01*
X12863620Y-14731498D02*
X12873143Y-14721974D01*
X12873143Y-14721974D02*
X12892191Y-14712450D01*
X12892191Y-14712450D02*
X12920763Y-14712450D01*
X12920763Y-14712450D02*
X12939810Y-14721974D01*
X12939810Y-14721974D02*
X12949334Y-14741022D01*
X12949334Y-14741022D02*
X12949334Y-14845784D01*
X12949334Y-14741022D02*
X12958858Y-14721974D01*
X12958858Y-14721974D02*
X12977905Y-14712450D01*
X12977905Y-14712450D02*
X13006477Y-14712450D01*
X13006477Y-14712450D02*
X13025524Y-14721974D01*
X13025524Y-14721974D02*
X13035048Y-14741022D01*
X13035048Y-14741022D02*
X13035048Y-14845784D01*
X13130286Y-14845784D02*
X13130286Y-14712450D01*
X13130286Y-14731498D02*
X13139810Y-14721974D01*
X13139810Y-14721974D02*
X13158858Y-14712450D01*
X13158858Y-14712450D02*
X13187429Y-14712450D01*
X13187429Y-14712450D02*
X13206477Y-14721974D01*
X13206477Y-14721974D02*
X13216001Y-14741022D01*
X13216001Y-14741022D02*
X13216001Y-14845784D01*
X13216001Y-14741022D02*
X13225524Y-14721974D01*
X13225524Y-14721974D02*
X13244572Y-14712450D01*
X13244572Y-14712450D02*
X13273143Y-14712450D01*
X13273143Y-14712450D02*
X13292191Y-14721974D01*
X13292191Y-14721974D02*
X13301715Y-14741022D01*
X13301715Y-14741022D02*
X13301715Y-14845784D01*
X13692191Y-14636260D02*
X13520763Y-14893403D01*
X13949334Y-14645784D02*
X13968382Y-14645784D01*
X13968382Y-14645784D02*
X13987429Y-14655308D01*
X13987429Y-14655308D02*
X13996953Y-14664831D01*
X13996953Y-14664831D02*
X14006477Y-14683879D01*
X14006477Y-14683879D02*
X14016001Y-14721974D01*
X14016001Y-14721974D02*
X14016001Y-14769593D01*
X14016001Y-14769593D02*
X14006477Y-14807688D01*
X14006477Y-14807688D02*
X13996953Y-14826736D01*
X13996953Y-14826736D02*
X13987429Y-14836260D01*
X13987429Y-14836260D02*
X13968382Y-14845784D01*
X13968382Y-14845784D02*
X13949334Y-14845784D01*
X13949334Y-14845784D02*
X13930286Y-14836260D01*
X13930286Y-14836260D02*
X13920763Y-14826736D01*
X13920763Y-14826736D02*
X13911239Y-14807688D01*
X13911239Y-14807688D02*
X13901715Y-14769593D01*
X13901715Y-14769593D02*
X13901715Y-14721974D01*
X13901715Y-14721974D02*
X13911239Y-14683879D01*
X13911239Y-14683879D02*
X13920763Y-14664831D01*
X13920763Y-14664831D02*
X13930286Y-14655308D01*
X13930286Y-14655308D02*
X13949334Y-14645784D01*
X14101715Y-14826736D02*
X14111239Y-14836260D01*
X14111239Y-14836260D02*
X14101715Y-14845784D01*
X14101715Y-14845784D02*
X14092191Y-14836260D01*
X14092191Y-14836260D02*
X14101715Y-14826736D01*
X14101715Y-14826736D02*
X14101715Y-14845784D01*
X14235048Y-14645784D02*
X14254096Y-14645784D01*
X14254096Y-14645784D02*
X14273144Y-14655308D01*
X14273144Y-14655308D02*
X14282667Y-14664831D01*
X14282667Y-14664831D02*
X14292191Y-14683879D01*
X14292191Y-14683879D02*
X14301715Y-14721974D01*
X14301715Y-14721974D02*
X14301715Y-14769593D01*
X14301715Y-14769593D02*
X14292191Y-14807688D01*
X14292191Y-14807688D02*
X14282667Y-14826736D01*
X14282667Y-14826736D02*
X14273144Y-14836260D01*
X14273144Y-14836260D02*
X14254096Y-14845784D01*
X14254096Y-14845784D02*
X14235048Y-14845784D01*
X14235048Y-14845784D02*
X14216001Y-14836260D01*
X14216001Y-14836260D02*
X14206477Y-14826736D01*
X14206477Y-14826736D02*
X14196953Y-14807688D01*
X14196953Y-14807688D02*
X14187429Y-14769593D01*
X14187429Y-14769593D02*
X14187429Y-14721974D01*
X14187429Y-14721974D02*
X14196953Y-14683879D01*
X14196953Y-14683879D02*
X14206477Y-14664831D01*
X14206477Y-14664831D02*
X14216001Y-14655308D01*
X14216001Y-14655308D02*
X14235048Y-14645784D01*
X14492191Y-14845784D02*
X14377906Y-14845784D01*
X14435048Y-14845784D02*
X14435048Y-14645784D01*
X14435048Y-14645784D02*
X14416001Y-14674355D01*
X14416001Y-14674355D02*
X14396953Y-14693403D01*
X14396953Y-14693403D02*
X14377906Y-14702927D01*
X14673144Y-14645784D02*
X14577906Y-14645784D01*
X14577906Y-14645784D02*
X14568382Y-14741022D01*
X14568382Y-14741022D02*
X14577906Y-14731498D01*
X14577906Y-14731498D02*
X14596953Y-14721974D01*
X14596953Y-14721974D02*
X14644572Y-14721974D01*
X14644572Y-14721974D02*
X14663620Y-14731498D01*
X14663620Y-14731498D02*
X14673144Y-14741022D01*
X14673144Y-14741022D02*
X14682667Y-14760069D01*
X14682667Y-14760069D02*
X14682667Y-14807688D01*
X14682667Y-14807688D02*
X14673144Y-14826736D01*
X14673144Y-14826736D02*
X14663620Y-14836260D01*
X14663620Y-14836260D02*
X14644572Y-14845784D01*
X14644572Y-14845784D02*
X14596953Y-14845784D01*
X14596953Y-14845784D02*
X14577906Y-14836260D01*
X14577906Y-14836260D02*
X14568382Y-14826736D01*
X14749334Y-14645784D02*
X14882667Y-14645784D01*
X14882667Y-14645784D02*
X14796953Y-14845784D01*
X14949334Y-14645784D02*
X14949334Y-14683879D01*
X15025525Y-14645784D02*
X15025525Y-14683879D01*
X15320763Y-14921974D02*
X15311239Y-14912450D01*
X15311239Y-14912450D02*
X15292191Y-14883879D01*
X15292191Y-14883879D02*
X15282668Y-14864831D01*
X15282668Y-14864831D02*
X15273144Y-14836260D01*
X15273144Y-14836260D02*
X15263620Y-14788641D01*
X15263620Y-14788641D02*
X15263620Y-14750546D01*
X15263620Y-14750546D02*
X15273144Y-14702927D01*
X15273144Y-14702927D02*
X15282668Y-14674355D01*
X15282668Y-14674355D02*
X15292191Y-14655308D01*
X15292191Y-14655308D02*
X15311239Y-14626736D01*
X15311239Y-14626736D02*
X15320763Y-14617212D01*
X15387429Y-14664831D02*
X15396953Y-14655308D01*
X15396953Y-14655308D02*
X15416001Y-14645784D01*
X15416001Y-14645784D02*
X15463620Y-14645784D01*
X15463620Y-14645784D02*
X15482668Y-14655308D01*
X15482668Y-14655308D02*
X15492191Y-14664831D01*
X15492191Y-14664831D02*
X15501715Y-14683879D01*
X15501715Y-14683879D02*
X15501715Y-14702927D01*
X15501715Y-14702927D02*
X15492191Y-14731498D01*
X15492191Y-14731498D02*
X15377906Y-14845784D01*
X15377906Y-14845784D02*
X15501715Y-14845784D01*
X15568382Y-14645784D02*
X15701715Y-14645784D01*
X15701715Y-14645784D02*
X15616001Y-14845784D01*
X15930287Y-14845784D02*
X15930287Y-14645784D01*
X16016001Y-14845784D02*
X16016001Y-14741022D01*
X16016001Y-14741022D02*
X16006477Y-14721974D01*
X16006477Y-14721974D02*
X15987430Y-14712450D01*
X15987430Y-14712450D02*
X15958858Y-14712450D01*
X15958858Y-14712450D02*
X15939810Y-14721974D01*
X15939810Y-14721974D02*
X15930287Y-14731498D01*
X16139810Y-14845784D02*
X16120763Y-14836260D01*
X16120763Y-14836260D02*
X16111239Y-14826736D01*
X16111239Y-14826736D02*
X16101715Y-14807688D01*
X16101715Y-14807688D02*
X16101715Y-14750546D01*
X16101715Y-14750546D02*
X16111239Y-14731498D01*
X16111239Y-14731498D02*
X16120763Y-14721974D01*
X16120763Y-14721974D02*
X16139810Y-14712450D01*
X16139810Y-14712450D02*
X16168382Y-14712450D01*
X16168382Y-14712450D02*
X16187430Y-14721974D01*
X16187430Y-14721974D02*
X16196953Y-14731498D01*
X16196953Y-14731498D02*
X16206477Y-14750546D01*
X16206477Y-14750546D02*
X16206477Y-14807688D01*
X16206477Y-14807688D02*
X16196953Y-14826736D01*
X16196953Y-14826736D02*
X16187430Y-14836260D01*
X16187430Y-14836260D02*
X16168382Y-14845784D01*
X16168382Y-14845784D02*
X16139810Y-14845784D01*
X16320763Y-14845784D02*
X16301715Y-14836260D01*
X16301715Y-14836260D02*
X16292191Y-14817212D01*
X16292191Y-14817212D02*
X16292191Y-14645784D01*
X16473144Y-14836260D02*
X16454096Y-14845784D01*
X16454096Y-14845784D02*
X16416001Y-14845784D01*
X16416001Y-14845784D02*
X16396953Y-14836260D01*
X16396953Y-14836260D02*
X16387430Y-14817212D01*
X16387430Y-14817212D02*
X16387430Y-14741022D01*
X16387430Y-14741022D02*
X16396953Y-14721974D01*
X16396953Y-14721974D02*
X16416001Y-14712450D01*
X16416001Y-14712450D02*
X16454096Y-14712450D01*
X16454096Y-14712450D02*
X16473144Y-14721974D01*
X16473144Y-14721974D02*
X16482668Y-14741022D01*
X16482668Y-14741022D02*
X16482668Y-14760069D01*
X16482668Y-14760069D02*
X16387430Y-14779117D01*
X16558858Y-14836260D02*
X16577906Y-14845784D01*
X16577906Y-14845784D02*
X16616001Y-14845784D01*
X16616001Y-14845784D02*
X16635049Y-14836260D01*
X16635049Y-14836260D02*
X16644572Y-14817212D01*
X16644572Y-14817212D02*
X16644572Y-14807688D01*
X16644572Y-14807688D02*
X16635049Y-14788641D01*
X16635049Y-14788641D02*
X16616001Y-14779117D01*
X16616001Y-14779117D02*
X16587430Y-14779117D01*
X16587430Y-14779117D02*
X16568382Y-14769593D01*
X16568382Y-14769593D02*
X16558858Y-14750546D01*
X16558858Y-14750546D02*
X16558858Y-14741022D01*
X16558858Y-14741022D02*
X16568382Y-14721974D01*
X16568382Y-14721974D02*
X16587430Y-14712450D01*
X16587430Y-14712450D02*
X16616001Y-14712450D01*
X16616001Y-14712450D02*
X16635049Y-14721974D01*
X16711239Y-14921974D02*
X16720763Y-14912450D01*
X16720763Y-14912450D02*
X16739811Y-14883879D01*
X16739811Y-14883879D02*
X16749334Y-14864831D01*
X16749334Y-14864831D02*
X16758858Y-14836260D01*
X16758858Y-14836260D02*
X16768382Y-14788641D01*
X16768382Y-14788641D02*
X16768382Y-14750546D01*
X16768382Y-14750546D02*
X16758858Y-14702927D01*
X16758858Y-14702927D02*
X16749334Y-14674355D01*
X16749334Y-14674355D02*
X16739811Y-14655308D01*
X16739811Y-14655308D02*
X16720763Y-14626736D01*
X16720763Y-14626736D02*
X16711239Y-14617212D01*
D12*
X11745700Y-15018300D02*
G75*
G02*
X11645700Y-15018300I-50000J0D01*
G01*
X11645700Y-15018300D02*
G75*
G02*
X11745700Y-15018300I50000J0D01*
G01*
D11*
X12111239Y-15109784D02*
X11996953Y-15109784D01*
X12054096Y-15109784D02*
X12054096Y-14909784D01*
X12054096Y-14909784D02*
X12035048Y-14938355D01*
X12035048Y-14938355D02*
X12016001Y-14957403D01*
X12016001Y-14957403D02*
X11996953Y-14966927D01*
X12196953Y-15090736D02*
X12206477Y-15100260D01*
X12206477Y-15100260D02*
X12196953Y-15109784D01*
X12196953Y-15109784D02*
X12187429Y-15100260D01*
X12187429Y-15100260D02*
X12196953Y-15090736D01*
X12196953Y-15090736D02*
X12196953Y-15109784D01*
X12330286Y-14909784D02*
X12349334Y-14909784D01*
X12349334Y-14909784D02*
X12368382Y-14919308D01*
X12368382Y-14919308D02*
X12377905Y-14928831D01*
X12377905Y-14928831D02*
X12387429Y-14947879D01*
X12387429Y-14947879D02*
X12396953Y-14985974D01*
X12396953Y-14985974D02*
X12396953Y-15033593D01*
X12396953Y-15033593D02*
X12387429Y-15071688D01*
X12387429Y-15071688D02*
X12377905Y-15090736D01*
X12377905Y-15090736D02*
X12368382Y-15100260D01*
X12368382Y-15100260D02*
X12349334Y-15109784D01*
X12349334Y-15109784D02*
X12330286Y-15109784D01*
X12330286Y-15109784D02*
X12311239Y-15100260D01*
X12311239Y-15100260D02*
X12301715Y-15090736D01*
X12301715Y-15090736D02*
X12292191Y-15071688D01*
X12292191Y-15071688D02*
X12282667Y-15033593D01*
X12282667Y-15033593D02*
X12282667Y-14985974D01*
X12282667Y-14985974D02*
X12292191Y-14947879D01*
X12292191Y-14947879D02*
X12301715Y-14928831D01*
X12301715Y-14928831D02*
X12311239Y-14919308D01*
X12311239Y-14919308D02*
X12330286Y-14909784D01*
X12520762Y-14909784D02*
X12539810Y-14909784D01*
X12539810Y-14909784D02*
X12558858Y-14919308D01*
X12558858Y-14919308D02*
X12568382Y-14928831D01*
X12568382Y-14928831D02*
X12577905Y-14947879D01*
X12577905Y-14947879D02*
X12587429Y-14985974D01*
X12587429Y-14985974D02*
X12587429Y-15033593D01*
X12587429Y-15033593D02*
X12577905Y-15071688D01*
X12577905Y-15071688D02*
X12568382Y-15090736D01*
X12568382Y-15090736D02*
X12558858Y-15100260D01*
X12558858Y-15100260D02*
X12539810Y-15109784D01*
X12539810Y-15109784D02*
X12520762Y-15109784D01*
X12520762Y-15109784D02*
X12501715Y-15100260D01*
X12501715Y-15100260D02*
X12492191Y-15090736D01*
X12492191Y-15090736D02*
X12482667Y-15071688D01*
X12482667Y-15071688D02*
X12473143Y-15033593D01*
X12473143Y-15033593D02*
X12473143Y-14985974D01*
X12473143Y-14985974D02*
X12482667Y-14947879D01*
X12482667Y-14947879D02*
X12492191Y-14928831D01*
X12492191Y-14928831D02*
X12501715Y-14919308D01*
X12501715Y-14919308D02*
X12520762Y-14909784D01*
X12711239Y-14909784D02*
X12730286Y-14909784D01*
X12730286Y-14909784D02*
X12749334Y-14919308D01*
X12749334Y-14919308D02*
X12758858Y-14928831D01*
X12758858Y-14928831D02*
X12768382Y-14947879D01*
X12768382Y-14947879D02*
X12777905Y-14985974D01*
X12777905Y-14985974D02*
X12777905Y-15033593D01*
X12777905Y-15033593D02*
X12768382Y-15071688D01*
X12768382Y-15071688D02*
X12758858Y-15090736D01*
X12758858Y-15090736D02*
X12749334Y-15100260D01*
X12749334Y-15100260D02*
X12730286Y-15109784D01*
X12730286Y-15109784D02*
X12711239Y-15109784D01*
X12711239Y-15109784D02*
X12692191Y-15100260D01*
X12692191Y-15100260D02*
X12682667Y-15090736D01*
X12682667Y-15090736D02*
X12673143Y-15071688D01*
X12673143Y-15071688D02*
X12663620Y-15033593D01*
X12663620Y-15033593D02*
X12663620Y-14985974D01*
X12663620Y-14985974D02*
X12673143Y-14947879D01*
X12673143Y-14947879D02*
X12682667Y-14928831D01*
X12682667Y-14928831D02*
X12692191Y-14919308D01*
X12692191Y-14919308D02*
X12711239Y-14909784D01*
X12863620Y-15109784D02*
X12863620Y-14976450D01*
X12863620Y-14995498D02*
X12873143Y-14985974D01*
X12873143Y-14985974D02*
X12892191Y-14976450D01*
X12892191Y-14976450D02*
X12920763Y-14976450D01*
X12920763Y-14976450D02*
X12939810Y-14985974D01*
X12939810Y-14985974D02*
X12949334Y-15005022D01*
X12949334Y-15005022D02*
X12949334Y-15109784D01*
X12949334Y-15005022D02*
X12958858Y-14985974D01*
X12958858Y-14985974D02*
X12977905Y-14976450D01*
X12977905Y-14976450D02*
X13006477Y-14976450D01*
X13006477Y-14976450D02*
X13025524Y-14985974D01*
X13025524Y-14985974D02*
X13035048Y-15005022D01*
X13035048Y-15005022D02*
X13035048Y-15109784D01*
X13130286Y-15109784D02*
X13130286Y-14976450D01*
X13130286Y-14995498D02*
X13139810Y-14985974D01*
X13139810Y-14985974D02*
X13158858Y-14976450D01*
X13158858Y-14976450D02*
X13187429Y-14976450D01*
X13187429Y-14976450D02*
X13206477Y-14985974D01*
X13206477Y-14985974D02*
X13216001Y-15005022D01*
X13216001Y-15005022D02*
X13216001Y-15109784D01*
X13216001Y-15005022D02*
X13225524Y-14985974D01*
X13225524Y-14985974D02*
X13244572Y-14976450D01*
X13244572Y-14976450D02*
X13273143Y-14976450D01*
X13273143Y-14976450D02*
X13292191Y-14985974D01*
X13292191Y-14985974D02*
X13301715Y-15005022D01*
X13301715Y-15005022D02*
X13301715Y-15109784D01*
X13692191Y-14900260D02*
X13520763Y-15157403D01*
X13949334Y-14909784D02*
X13968382Y-14909784D01*
X13968382Y-14909784D02*
X13987429Y-14919308D01*
X13987429Y-14919308D02*
X13996953Y-14928831D01*
X13996953Y-14928831D02*
X14006477Y-14947879D01*
X14006477Y-14947879D02*
X14016001Y-14985974D01*
X14016001Y-14985974D02*
X14016001Y-15033593D01*
X14016001Y-15033593D02*
X14006477Y-15071688D01*
X14006477Y-15071688D02*
X13996953Y-15090736D01*
X13996953Y-15090736D02*
X13987429Y-15100260D01*
X13987429Y-15100260D02*
X13968382Y-15109784D01*
X13968382Y-15109784D02*
X13949334Y-15109784D01*
X13949334Y-15109784D02*
X13930286Y-15100260D01*
X13930286Y-15100260D02*
X13920763Y-15090736D01*
X13920763Y-15090736D02*
X13911239Y-15071688D01*
X13911239Y-15071688D02*
X13901715Y-15033593D01*
X13901715Y-15033593D02*
X13901715Y-14985974D01*
X13901715Y-14985974D02*
X13911239Y-14947879D01*
X13911239Y-14947879D02*
X13920763Y-14928831D01*
X13920763Y-14928831D02*
X13930286Y-14919308D01*
X13930286Y-14919308D02*
X13949334Y-14909784D01*
X14101715Y-15090736D02*
X14111239Y-15100260D01*
X14111239Y-15100260D02*
X14101715Y-15109784D01*
X14101715Y-15109784D02*
X14092191Y-15100260D01*
X14092191Y-15100260D02*
X14101715Y-15090736D01*
X14101715Y-15090736D02*
X14101715Y-15109784D01*
X14235048Y-14909784D02*
X14254096Y-14909784D01*
X14254096Y-14909784D02*
X14273144Y-14919308D01*
X14273144Y-14919308D02*
X14282667Y-14928831D01*
X14282667Y-14928831D02*
X14292191Y-14947879D01*
X14292191Y-14947879D02*
X14301715Y-14985974D01*
X14301715Y-14985974D02*
X14301715Y-15033593D01*
X14301715Y-15033593D02*
X14292191Y-15071688D01*
X14292191Y-15071688D02*
X14282667Y-15090736D01*
X14282667Y-15090736D02*
X14273144Y-15100260D01*
X14273144Y-15100260D02*
X14254096Y-15109784D01*
X14254096Y-15109784D02*
X14235048Y-15109784D01*
X14235048Y-15109784D02*
X14216001Y-15100260D01*
X14216001Y-15100260D02*
X14206477Y-15090736D01*
X14206477Y-15090736D02*
X14196953Y-15071688D01*
X14196953Y-15071688D02*
X14187429Y-15033593D01*
X14187429Y-15033593D02*
X14187429Y-14985974D01*
X14187429Y-14985974D02*
X14196953Y-14947879D01*
X14196953Y-14947879D02*
X14206477Y-14928831D01*
X14206477Y-14928831D02*
X14216001Y-14919308D01*
X14216001Y-14919308D02*
X14235048Y-14909784D01*
X14368382Y-14909784D02*
X14492191Y-14909784D01*
X14492191Y-14909784D02*
X14425525Y-14985974D01*
X14425525Y-14985974D02*
X14454096Y-14985974D01*
X14454096Y-14985974D02*
X14473144Y-14995498D01*
X14473144Y-14995498D02*
X14482667Y-15005022D01*
X14482667Y-15005022D02*
X14492191Y-15024069D01*
X14492191Y-15024069D02*
X14492191Y-15071688D01*
X14492191Y-15071688D02*
X14482667Y-15090736D01*
X14482667Y-15090736D02*
X14473144Y-15100260D01*
X14473144Y-15100260D02*
X14454096Y-15109784D01*
X14454096Y-15109784D02*
X14396953Y-15109784D01*
X14396953Y-15109784D02*
X14377906Y-15100260D01*
X14377906Y-15100260D02*
X14368382Y-15090736D01*
X14587429Y-15109784D02*
X14625525Y-15109784D01*
X14625525Y-15109784D02*
X14644572Y-15100260D01*
X14644572Y-15100260D02*
X14654096Y-15090736D01*
X14654096Y-15090736D02*
X14673144Y-15062165D01*
X14673144Y-15062165D02*
X14682667Y-15024069D01*
X14682667Y-15024069D02*
X14682667Y-14947879D01*
X14682667Y-14947879D02*
X14673144Y-14928831D01*
X14673144Y-14928831D02*
X14663620Y-14919308D01*
X14663620Y-14919308D02*
X14644572Y-14909784D01*
X14644572Y-14909784D02*
X14606477Y-14909784D01*
X14606477Y-14909784D02*
X14587429Y-14919308D01*
X14587429Y-14919308D02*
X14577906Y-14928831D01*
X14577906Y-14928831D02*
X14568382Y-14947879D01*
X14568382Y-14947879D02*
X14568382Y-14995498D01*
X14568382Y-14995498D02*
X14577906Y-15014546D01*
X14577906Y-15014546D02*
X14587429Y-15024069D01*
X14587429Y-15024069D02*
X14606477Y-15033593D01*
X14606477Y-15033593D02*
X14644572Y-15033593D01*
X14644572Y-15033593D02*
X14663620Y-15024069D01*
X14663620Y-15024069D02*
X14673144Y-15014546D01*
X14673144Y-15014546D02*
X14682667Y-14995498D01*
X14854096Y-14976450D02*
X14854096Y-15109784D01*
X14806477Y-14900260D02*
X14758858Y-15043117D01*
X14758858Y-15043117D02*
X14882667Y-15043117D01*
X14949334Y-14909784D02*
X14949334Y-14947879D01*
X15025525Y-14909784D02*
X15025525Y-14947879D01*
X15320763Y-15185974D02*
X15311239Y-15176450D01*
X15311239Y-15176450D02*
X15292191Y-15147879D01*
X15292191Y-15147879D02*
X15282668Y-15128831D01*
X15282668Y-15128831D02*
X15273144Y-15100260D01*
X15273144Y-15100260D02*
X15263620Y-15052641D01*
X15263620Y-15052641D02*
X15263620Y-15014546D01*
X15263620Y-15014546D02*
X15273144Y-14966927D01*
X15273144Y-14966927D02*
X15282668Y-14938355D01*
X15282668Y-14938355D02*
X15292191Y-14919308D01*
X15292191Y-14919308D02*
X15311239Y-14890736D01*
X15311239Y-14890736D02*
X15320763Y-14881212D01*
X15482668Y-14976450D02*
X15482668Y-15109784D01*
X15435048Y-14900260D02*
X15387429Y-15043117D01*
X15387429Y-15043117D02*
X15511239Y-15043117D01*
X15568382Y-14909784D02*
X15701715Y-14909784D01*
X15701715Y-14909784D02*
X15616001Y-15109784D01*
X15930287Y-15109784D02*
X15930287Y-14909784D01*
X16016001Y-15109784D02*
X16016001Y-15005022D01*
X16016001Y-15005022D02*
X16006477Y-14985974D01*
X16006477Y-14985974D02*
X15987430Y-14976450D01*
X15987430Y-14976450D02*
X15958858Y-14976450D01*
X15958858Y-14976450D02*
X15939810Y-14985974D01*
X15939810Y-14985974D02*
X15930287Y-14995498D01*
X16139810Y-15109784D02*
X16120763Y-15100260D01*
X16120763Y-15100260D02*
X16111239Y-15090736D01*
X16111239Y-15090736D02*
X16101715Y-15071688D01*
X16101715Y-15071688D02*
X16101715Y-15014546D01*
X16101715Y-15014546D02*
X16111239Y-14995498D01*
X16111239Y-14995498D02*
X16120763Y-14985974D01*
X16120763Y-14985974D02*
X16139810Y-14976450D01*
X16139810Y-14976450D02*
X16168382Y-14976450D01*
X16168382Y-14976450D02*
X16187430Y-14985974D01*
X16187430Y-14985974D02*
X16196953Y-14995498D01*
X16196953Y-14995498D02*
X16206477Y-15014546D01*
X16206477Y-15014546D02*
X16206477Y-15071688D01*
X16206477Y-15071688D02*
X16196953Y-15090736D01*
X16196953Y-15090736D02*
X16187430Y-15100260D01*
X16187430Y-15100260D02*
X16168382Y-15109784D01*
X16168382Y-15109784D02*
X16139810Y-15109784D01*
X16320763Y-15109784D02*
X16301715Y-15100260D01*
X16301715Y-15100260D02*
X16292191Y-15081212D01*
X16292191Y-15081212D02*
X16292191Y-14909784D01*
X16473144Y-15100260D02*
X16454096Y-15109784D01*
X16454096Y-15109784D02*
X16416001Y-15109784D01*
X16416001Y-15109784D02*
X16396953Y-15100260D01*
X16396953Y-15100260D02*
X16387430Y-15081212D01*
X16387430Y-15081212D02*
X16387430Y-15005022D01*
X16387430Y-15005022D02*
X16396953Y-14985974D01*
X16396953Y-14985974D02*
X16416001Y-14976450D01*
X16416001Y-14976450D02*
X16454096Y-14976450D01*
X16454096Y-14976450D02*
X16473144Y-14985974D01*
X16473144Y-14985974D02*
X16482668Y-15005022D01*
X16482668Y-15005022D02*
X16482668Y-15024069D01*
X16482668Y-15024069D02*
X16387430Y-15043117D01*
X16558858Y-15100260D02*
X16577906Y-15109784D01*
X16577906Y-15109784D02*
X16616001Y-15109784D01*
X16616001Y-15109784D02*
X16635049Y-15100260D01*
X16635049Y-15100260D02*
X16644572Y-15081212D01*
X16644572Y-15081212D02*
X16644572Y-15071688D01*
X16644572Y-15071688D02*
X16635049Y-15052641D01*
X16635049Y-15052641D02*
X16616001Y-15043117D01*
X16616001Y-15043117D02*
X16587430Y-15043117D01*
X16587430Y-15043117D02*
X16568382Y-15033593D01*
X16568382Y-15033593D02*
X16558858Y-15014546D01*
X16558858Y-15014546D02*
X16558858Y-15005022D01*
X16558858Y-15005022D02*
X16568382Y-14985974D01*
X16568382Y-14985974D02*
X16587430Y-14976450D01*
X16587430Y-14976450D02*
X16616001Y-14976450D01*
X16616001Y-14976450D02*
X16635049Y-14985974D01*
X16711239Y-15185974D02*
X16720763Y-15176450D01*
X16720763Y-15176450D02*
X16739811Y-15147879D01*
X16739811Y-15147879D02*
X16749334Y-15128831D01*
X16749334Y-15128831D02*
X16758858Y-15100260D01*
X16758858Y-15100260D02*
X16768382Y-15052641D01*
X16768382Y-15052641D02*
X16768382Y-15014546D01*
X16768382Y-15014546D02*
X16758858Y-14966927D01*
X16758858Y-14966927D02*
X16749334Y-14938355D01*
X16749334Y-14938355D02*
X16739811Y-14919308D01*
X16739811Y-14919308D02*
X16720763Y-14890736D01*
X16720763Y-14890736D02*
X16711239Y-14881212D01*
D13*
X11680700Y-15217300D02*
X11680700Y-15347300D01*
X11615700Y-15282300D02*
X11745700Y-15282300D01*
D11*
X12111239Y-15373784D02*
X11996953Y-15373784D01*
X12054096Y-15373784D02*
X12054096Y-15173784D01*
X12054096Y-15173784D02*
X12035048Y-15202355D01*
X12035048Y-15202355D02*
X12016001Y-15221403D01*
X12016001Y-15221403D02*
X11996953Y-15230927D01*
X12196953Y-15354736D02*
X12206477Y-15364260D01*
X12206477Y-15364260D02*
X12196953Y-15373784D01*
X12196953Y-15373784D02*
X12187429Y-15364260D01*
X12187429Y-15364260D02*
X12196953Y-15354736D01*
X12196953Y-15354736D02*
X12196953Y-15373784D01*
X12273143Y-15173784D02*
X12396953Y-15173784D01*
X12396953Y-15173784D02*
X12330286Y-15249974D01*
X12330286Y-15249974D02*
X12358858Y-15249974D01*
X12358858Y-15249974D02*
X12377905Y-15259498D01*
X12377905Y-15259498D02*
X12387429Y-15269022D01*
X12387429Y-15269022D02*
X12396953Y-15288069D01*
X12396953Y-15288069D02*
X12396953Y-15335688D01*
X12396953Y-15335688D02*
X12387429Y-15354736D01*
X12387429Y-15354736D02*
X12377905Y-15364260D01*
X12377905Y-15364260D02*
X12358858Y-15373784D01*
X12358858Y-15373784D02*
X12301715Y-15373784D01*
X12301715Y-15373784D02*
X12282667Y-15364260D01*
X12282667Y-15364260D02*
X12273143Y-15354736D01*
X12520762Y-15173784D02*
X12539810Y-15173784D01*
X12539810Y-15173784D02*
X12558858Y-15183308D01*
X12558858Y-15183308D02*
X12568382Y-15192831D01*
X12568382Y-15192831D02*
X12577905Y-15211879D01*
X12577905Y-15211879D02*
X12587429Y-15249974D01*
X12587429Y-15249974D02*
X12587429Y-15297593D01*
X12587429Y-15297593D02*
X12577905Y-15335688D01*
X12577905Y-15335688D02*
X12568382Y-15354736D01*
X12568382Y-15354736D02*
X12558858Y-15364260D01*
X12558858Y-15364260D02*
X12539810Y-15373784D01*
X12539810Y-15373784D02*
X12520762Y-15373784D01*
X12520762Y-15373784D02*
X12501715Y-15364260D01*
X12501715Y-15364260D02*
X12492191Y-15354736D01*
X12492191Y-15354736D02*
X12482667Y-15335688D01*
X12482667Y-15335688D02*
X12473143Y-15297593D01*
X12473143Y-15297593D02*
X12473143Y-15249974D01*
X12473143Y-15249974D02*
X12482667Y-15211879D01*
X12482667Y-15211879D02*
X12492191Y-15192831D01*
X12492191Y-15192831D02*
X12501715Y-15183308D01*
X12501715Y-15183308D02*
X12520762Y-15173784D01*
X12711239Y-15173784D02*
X12730286Y-15173784D01*
X12730286Y-15173784D02*
X12749334Y-15183308D01*
X12749334Y-15183308D02*
X12758858Y-15192831D01*
X12758858Y-15192831D02*
X12768382Y-15211879D01*
X12768382Y-15211879D02*
X12777905Y-15249974D01*
X12777905Y-15249974D02*
X12777905Y-15297593D01*
X12777905Y-15297593D02*
X12768382Y-15335688D01*
X12768382Y-15335688D02*
X12758858Y-15354736D01*
X12758858Y-15354736D02*
X12749334Y-15364260D01*
X12749334Y-15364260D02*
X12730286Y-15373784D01*
X12730286Y-15373784D02*
X12711239Y-15373784D01*
X12711239Y-15373784D02*
X12692191Y-15364260D01*
X12692191Y-15364260D02*
X12682667Y-15354736D01*
X12682667Y-15354736D02*
X12673143Y-15335688D01*
X12673143Y-15335688D02*
X12663620Y-15297593D01*
X12663620Y-15297593D02*
X12663620Y-15249974D01*
X12663620Y-15249974D02*
X12673143Y-15211879D01*
X12673143Y-15211879D02*
X12682667Y-15192831D01*
X12682667Y-15192831D02*
X12692191Y-15183308D01*
X12692191Y-15183308D02*
X12711239Y-15173784D01*
X12863620Y-15373784D02*
X12863620Y-15240450D01*
X12863620Y-15259498D02*
X12873143Y-15249974D01*
X12873143Y-15249974D02*
X12892191Y-15240450D01*
X12892191Y-15240450D02*
X12920763Y-15240450D01*
X12920763Y-15240450D02*
X12939810Y-15249974D01*
X12939810Y-15249974D02*
X12949334Y-15269022D01*
X12949334Y-15269022D02*
X12949334Y-15373784D01*
X12949334Y-15269022D02*
X12958858Y-15249974D01*
X12958858Y-15249974D02*
X12977905Y-15240450D01*
X12977905Y-15240450D02*
X13006477Y-15240450D01*
X13006477Y-15240450D02*
X13025524Y-15249974D01*
X13025524Y-15249974D02*
X13035048Y-15269022D01*
X13035048Y-15269022D02*
X13035048Y-15373784D01*
X13130286Y-15373784D02*
X13130286Y-15240450D01*
X13130286Y-15259498D02*
X13139810Y-15249974D01*
X13139810Y-15249974D02*
X13158858Y-15240450D01*
X13158858Y-15240450D02*
X13187429Y-15240450D01*
X13187429Y-15240450D02*
X13206477Y-15249974D01*
X13206477Y-15249974D02*
X13216001Y-15269022D01*
X13216001Y-15269022D02*
X13216001Y-15373784D01*
X13216001Y-15269022D02*
X13225524Y-15249974D01*
X13225524Y-15249974D02*
X13244572Y-15240450D01*
X13244572Y-15240450D02*
X13273143Y-15240450D01*
X13273143Y-15240450D02*
X13292191Y-15249974D01*
X13292191Y-15249974D02*
X13301715Y-15269022D01*
X13301715Y-15269022D02*
X13301715Y-15373784D01*
X13692191Y-15164260D02*
X13520763Y-15421403D01*
X13949334Y-15173784D02*
X13968382Y-15173784D01*
X13968382Y-15173784D02*
X13987429Y-15183308D01*
X13987429Y-15183308D02*
X13996953Y-15192831D01*
X13996953Y-15192831D02*
X14006477Y-15211879D01*
X14006477Y-15211879D02*
X14016001Y-15249974D01*
X14016001Y-15249974D02*
X14016001Y-15297593D01*
X14016001Y-15297593D02*
X14006477Y-15335688D01*
X14006477Y-15335688D02*
X13996953Y-15354736D01*
X13996953Y-15354736D02*
X13987429Y-15364260D01*
X13987429Y-15364260D02*
X13968382Y-15373784D01*
X13968382Y-15373784D02*
X13949334Y-15373784D01*
X13949334Y-15373784D02*
X13930286Y-15364260D01*
X13930286Y-15364260D02*
X13920763Y-15354736D01*
X13920763Y-15354736D02*
X13911239Y-15335688D01*
X13911239Y-15335688D02*
X13901715Y-15297593D01*
X13901715Y-15297593D02*
X13901715Y-15249974D01*
X13901715Y-15249974D02*
X13911239Y-15211879D01*
X13911239Y-15211879D02*
X13920763Y-15192831D01*
X13920763Y-15192831D02*
X13930286Y-15183308D01*
X13930286Y-15183308D02*
X13949334Y-15173784D01*
X14101715Y-15354736D02*
X14111239Y-15364260D01*
X14111239Y-15364260D02*
X14101715Y-15373784D01*
X14101715Y-15373784D02*
X14092191Y-15364260D01*
X14092191Y-15364260D02*
X14101715Y-15354736D01*
X14101715Y-15354736D02*
X14101715Y-15373784D01*
X14235048Y-15173784D02*
X14254096Y-15173784D01*
X14254096Y-15173784D02*
X14273144Y-15183308D01*
X14273144Y-15183308D02*
X14282667Y-15192831D01*
X14282667Y-15192831D02*
X14292191Y-15211879D01*
X14292191Y-15211879D02*
X14301715Y-15249974D01*
X14301715Y-15249974D02*
X14301715Y-15297593D01*
X14301715Y-15297593D02*
X14292191Y-15335688D01*
X14292191Y-15335688D02*
X14282667Y-15354736D01*
X14282667Y-15354736D02*
X14273144Y-15364260D01*
X14273144Y-15364260D02*
X14254096Y-15373784D01*
X14254096Y-15373784D02*
X14235048Y-15373784D01*
X14235048Y-15373784D02*
X14216001Y-15364260D01*
X14216001Y-15364260D02*
X14206477Y-15354736D01*
X14206477Y-15354736D02*
X14196953Y-15335688D01*
X14196953Y-15335688D02*
X14187429Y-15297593D01*
X14187429Y-15297593D02*
X14187429Y-15249974D01*
X14187429Y-15249974D02*
X14196953Y-15211879D01*
X14196953Y-15211879D02*
X14206477Y-15192831D01*
X14206477Y-15192831D02*
X14216001Y-15183308D01*
X14216001Y-15183308D02*
X14235048Y-15173784D01*
X14482667Y-15173784D02*
X14387429Y-15173784D01*
X14387429Y-15173784D02*
X14377906Y-15269022D01*
X14377906Y-15269022D02*
X14387429Y-15259498D01*
X14387429Y-15259498D02*
X14406477Y-15249974D01*
X14406477Y-15249974D02*
X14454096Y-15249974D01*
X14454096Y-15249974D02*
X14473144Y-15259498D01*
X14473144Y-15259498D02*
X14482667Y-15269022D01*
X14482667Y-15269022D02*
X14492191Y-15288069D01*
X14492191Y-15288069D02*
X14492191Y-15335688D01*
X14492191Y-15335688D02*
X14482667Y-15354736D01*
X14482667Y-15354736D02*
X14473144Y-15364260D01*
X14473144Y-15364260D02*
X14454096Y-15373784D01*
X14454096Y-15373784D02*
X14406477Y-15373784D01*
X14406477Y-15373784D02*
X14387429Y-15364260D01*
X14387429Y-15364260D02*
X14377906Y-15354736D01*
X14682667Y-15373784D02*
X14568382Y-15373784D01*
X14625525Y-15373784D02*
X14625525Y-15173784D01*
X14625525Y-15173784D02*
X14606477Y-15202355D01*
X14606477Y-15202355D02*
X14587429Y-15221403D01*
X14587429Y-15221403D02*
X14568382Y-15230927D01*
X14758858Y-15192831D02*
X14768382Y-15183308D01*
X14768382Y-15183308D02*
X14787429Y-15173784D01*
X14787429Y-15173784D02*
X14835048Y-15173784D01*
X14835048Y-15173784D02*
X14854096Y-15183308D01*
X14854096Y-15183308D02*
X14863620Y-15192831D01*
X14863620Y-15192831D02*
X14873144Y-15211879D01*
X14873144Y-15211879D02*
X14873144Y-15230927D01*
X14873144Y-15230927D02*
X14863620Y-15259498D01*
X14863620Y-15259498D02*
X14749334Y-15373784D01*
X14749334Y-15373784D02*
X14873144Y-15373784D01*
X14949334Y-15173784D02*
X14949334Y-15211879D01*
X15025525Y-15173784D02*
X15025525Y-15211879D01*
X15320763Y-15449974D02*
X15311239Y-15440450D01*
X15311239Y-15440450D02*
X15292191Y-15411879D01*
X15292191Y-15411879D02*
X15282668Y-15392831D01*
X15282668Y-15392831D02*
X15273144Y-15364260D01*
X15273144Y-15364260D02*
X15263620Y-15316641D01*
X15263620Y-15316641D02*
X15263620Y-15278546D01*
X15263620Y-15278546D02*
X15273144Y-15230927D01*
X15273144Y-15230927D02*
X15282668Y-15202355D01*
X15282668Y-15202355D02*
X15292191Y-15183308D01*
X15292191Y-15183308D02*
X15311239Y-15154736D01*
X15311239Y-15154736D02*
X15320763Y-15145212D01*
X15482668Y-15240450D02*
X15482668Y-15373784D01*
X15435048Y-15164260D02*
X15387429Y-15307117D01*
X15387429Y-15307117D02*
X15511239Y-15307117D01*
X15739810Y-15373784D02*
X15739810Y-15173784D01*
X15825525Y-15373784D02*
X15825525Y-15269022D01*
X15825525Y-15269022D02*
X15816001Y-15249974D01*
X15816001Y-15249974D02*
X15796953Y-15240450D01*
X15796953Y-15240450D02*
X15768382Y-15240450D01*
X15768382Y-15240450D02*
X15749334Y-15249974D01*
X15749334Y-15249974D02*
X15739810Y-15259498D01*
X15949334Y-15373784D02*
X15930287Y-15364260D01*
X15930287Y-15364260D02*
X15920763Y-15354736D01*
X15920763Y-15354736D02*
X15911239Y-15335688D01*
X15911239Y-15335688D02*
X15911239Y-15278546D01*
X15911239Y-15278546D02*
X15920763Y-15259498D01*
X15920763Y-15259498D02*
X15930287Y-15249974D01*
X15930287Y-15249974D02*
X15949334Y-15240450D01*
X15949334Y-15240450D02*
X15977906Y-15240450D01*
X15977906Y-15240450D02*
X15996953Y-15249974D01*
X15996953Y-15249974D02*
X16006477Y-15259498D01*
X16006477Y-15259498D02*
X16016001Y-15278546D01*
X16016001Y-15278546D02*
X16016001Y-15335688D01*
X16016001Y-15335688D02*
X16006477Y-15354736D01*
X16006477Y-15354736D02*
X15996953Y-15364260D01*
X15996953Y-15364260D02*
X15977906Y-15373784D01*
X15977906Y-15373784D02*
X15949334Y-15373784D01*
X16130287Y-15373784D02*
X16111239Y-15364260D01*
X16111239Y-15364260D02*
X16101715Y-15345212D01*
X16101715Y-15345212D02*
X16101715Y-15173784D01*
X16282668Y-15364260D02*
X16263620Y-15373784D01*
X16263620Y-15373784D02*
X16225525Y-15373784D01*
X16225525Y-15373784D02*
X16206477Y-15364260D01*
X16206477Y-15364260D02*
X16196953Y-15345212D01*
X16196953Y-15345212D02*
X16196953Y-15269022D01*
X16196953Y-15269022D02*
X16206477Y-15249974D01*
X16206477Y-15249974D02*
X16225525Y-15240450D01*
X16225525Y-15240450D02*
X16263620Y-15240450D01*
X16263620Y-15240450D02*
X16282668Y-15249974D01*
X16282668Y-15249974D02*
X16292191Y-15269022D01*
X16292191Y-15269022D02*
X16292191Y-15288069D01*
X16292191Y-15288069D02*
X16196953Y-15307117D01*
X16368382Y-15364260D02*
X16387430Y-15373784D01*
X16387430Y-15373784D02*
X16425525Y-15373784D01*
X16425525Y-15373784D02*
X16444572Y-15364260D01*
X16444572Y-15364260D02*
X16454096Y-15345212D01*
X16454096Y-15345212D02*
X16454096Y-15335688D01*
X16454096Y-15335688D02*
X16444572Y-15316641D01*
X16444572Y-15316641D02*
X16425525Y-15307117D01*
X16425525Y-15307117D02*
X16396953Y-15307117D01*
X16396953Y-15307117D02*
X16377906Y-15297593D01*
X16377906Y-15297593D02*
X16368382Y-15278546D01*
X16368382Y-15278546D02*
X16368382Y-15269022D01*
X16368382Y-15269022D02*
X16377906Y-15249974D01*
X16377906Y-15249974D02*
X16396953Y-15240450D01*
X16396953Y-15240450D02*
X16425525Y-15240450D01*
X16425525Y-15240450D02*
X16444572Y-15249974D01*
X16520763Y-15449974D02*
X16530287Y-15440450D01*
X16530287Y-15440450D02*
X16549334Y-15411879D01*
X16549334Y-15411879D02*
X16558858Y-15392831D01*
X16558858Y-15392831D02*
X16568382Y-15364260D01*
X16568382Y-15364260D02*
X16577906Y-15316641D01*
X16577906Y-15316641D02*
X16577906Y-15278546D01*
X16577906Y-15278546D02*
X16568382Y-15230927D01*
X16568382Y-15230927D02*
X16558858Y-15202355D01*
X16558858Y-15202355D02*
X16549334Y-15183308D01*
X16549334Y-15183308D02*
X16530287Y-15154736D01*
X16530287Y-15154736D02*
X16520763Y-15145212D01*
X11716411Y-15617011D02*
X11716411Y-15475589D01*
X11574989Y-15475589D01*
X11574989Y-15617011D01*
X11716411Y-15617011D01*
X11987429Y-15437784D02*
X12111239Y-15437784D01*
X12111239Y-15437784D02*
X12044572Y-15513974D01*
X12044572Y-15513974D02*
X12073143Y-15513974D01*
X12073143Y-15513974D02*
X12092191Y-15523498D01*
X12092191Y-15523498D02*
X12101715Y-15533022D01*
X12101715Y-15533022D02*
X12111239Y-15552069D01*
X12111239Y-15552069D02*
X12111239Y-15599688D01*
X12111239Y-15599688D02*
X12101715Y-15618736D01*
X12101715Y-15618736D02*
X12092191Y-15628260D01*
X12092191Y-15628260D02*
X12073143Y-15637784D01*
X12073143Y-15637784D02*
X12016001Y-15637784D01*
X12016001Y-15637784D02*
X11996953Y-15628260D01*
X11996953Y-15628260D02*
X11987429Y-15618736D01*
X12196953Y-15618736D02*
X12206477Y-15628260D01*
X12206477Y-15628260D02*
X12196953Y-15637784D01*
X12196953Y-15637784D02*
X12187429Y-15628260D01*
X12187429Y-15628260D02*
X12196953Y-15618736D01*
X12196953Y-15618736D02*
X12196953Y-15637784D01*
X12330286Y-15437784D02*
X12349334Y-15437784D01*
X12349334Y-15437784D02*
X12368382Y-15447308D01*
X12368382Y-15447308D02*
X12377905Y-15456831D01*
X12377905Y-15456831D02*
X12387429Y-15475879D01*
X12387429Y-15475879D02*
X12396953Y-15513974D01*
X12396953Y-15513974D02*
X12396953Y-15561593D01*
X12396953Y-15561593D02*
X12387429Y-15599688D01*
X12387429Y-15599688D02*
X12377905Y-15618736D01*
X12377905Y-15618736D02*
X12368382Y-15628260D01*
X12368382Y-15628260D02*
X12349334Y-15637784D01*
X12349334Y-15637784D02*
X12330286Y-15637784D01*
X12330286Y-15637784D02*
X12311239Y-15628260D01*
X12311239Y-15628260D02*
X12301715Y-15618736D01*
X12301715Y-15618736D02*
X12292191Y-15599688D01*
X12292191Y-15599688D02*
X12282667Y-15561593D01*
X12282667Y-15561593D02*
X12282667Y-15513974D01*
X12282667Y-15513974D02*
X12292191Y-15475879D01*
X12292191Y-15475879D02*
X12301715Y-15456831D01*
X12301715Y-15456831D02*
X12311239Y-15447308D01*
X12311239Y-15447308D02*
X12330286Y-15437784D01*
X12520762Y-15437784D02*
X12539810Y-15437784D01*
X12539810Y-15437784D02*
X12558858Y-15447308D01*
X12558858Y-15447308D02*
X12568382Y-15456831D01*
X12568382Y-15456831D02*
X12577905Y-15475879D01*
X12577905Y-15475879D02*
X12587429Y-15513974D01*
X12587429Y-15513974D02*
X12587429Y-15561593D01*
X12587429Y-15561593D02*
X12577905Y-15599688D01*
X12577905Y-15599688D02*
X12568382Y-15618736D01*
X12568382Y-15618736D02*
X12558858Y-15628260D01*
X12558858Y-15628260D02*
X12539810Y-15637784D01*
X12539810Y-15637784D02*
X12520762Y-15637784D01*
X12520762Y-15637784D02*
X12501715Y-15628260D01*
X12501715Y-15628260D02*
X12492191Y-15618736D01*
X12492191Y-15618736D02*
X12482667Y-15599688D01*
X12482667Y-15599688D02*
X12473143Y-15561593D01*
X12473143Y-15561593D02*
X12473143Y-15513974D01*
X12473143Y-15513974D02*
X12482667Y-15475879D01*
X12482667Y-15475879D02*
X12492191Y-15456831D01*
X12492191Y-15456831D02*
X12501715Y-15447308D01*
X12501715Y-15447308D02*
X12520762Y-15437784D01*
X12711239Y-15437784D02*
X12730286Y-15437784D01*
X12730286Y-15437784D02*
X12749334Y-15447308D01*
X12749334Y-15447308D02*
X12758858Y-15456831D01*
X12758858Y-15456831D02*
X12768382Y-15475879D01*
X12768382Y-15475879D02*
X12777905Y-15513974D01*
X12777905Y-15513974D02*
X12777905Y-15561593D01*
X12777905Y-15561593D02*
X12768382Y-15599688D01*
X12768382Y-15599688D02*
X12758858Y-15618736D01*
X12758858Y-15618736D02*
X12749334Y-15628260D01*
X12749334Y-15628260D02*
X12730286Y-15637784D01*
X12730286Y-15637784D02*
X12711239Y-15637784D01*
X12711239Y-15637784D02*
X12692191Y-15628260D01*
X12692191Y-15628260D02*
X12682667Y-15618736D01*
X12682667Y-15618736D02*
X12673143Y-15599688D01*
X12673143Y-15599688D02*
X12663620Y-15561593D01*
X12663620Y-15561593D02*
X12663620Y-15513974D01*
X12663620Y-15513974D02*
X12673143Y-15475879D01*
X12673143Y-15475879D02*
X12682667Y-15456831D01*
X12682667Y-15456831D02*
X12692191Y-15447308D01*
X12692191Y-15447308D02*
X12711239Y-15437784D01*
X12863620Y-15637784D02*
X12863620Y-15504450D01*
X12863620Y-15523498D02*
X12873143Y-15513974D01*
X12873143Y-15513974D02*
X12892191Y-15504450D01*
X12892191Y-15504450D02*
X12920763Y-15504450D01*
X12920763Y-15504450D02*
X12939810Y-15513974D01*
X12939810Y-15513974D02*
X12949334Y-15533022D01*
X12949334Y-15533022D02*
X12949334Y-15637784D01*
X12949334Y-15533022D02*
X12958858Y-15513974D01*
X12958858Y-15513974D02*
X12977905Y-15504450D01*
X12977905Y-15504450D02*
X13006477Y-15504450D01*
X13006477Y-15504450D02*
X13025524Y-15513974D01*
X13025524Y-15513974D02*
X13035048Y-15533022D01*
X13035048Y-15533022D02*
X13035048Y-15637784D01*
X13130286Y-15637784D02*
X13130286Y-15504450D01*
X13130286Y-15523498D02*
X13139810Y-15513974D01*
X13139810Y-15513974D02*
X13158858Y-15504450D01*
X13158858Y-15504450D02*
X13187429Y-15504450D01*
X13187429Y-15504450D02*
X13206477Y-15513974D01*
X13206477Y-15513974D02*
X13216001Y-15533022D01*
X13216001Y-15533022D02*
X13216001Y-15637784D01*
X13216001Y-15533022D02*
X13225524Y-15513974D01*
X13225524Y-15513974D02*
X13244572Y-15504450D01*
X13244572Y-15504450D02*
X13273143Y-15504450D01*
X13273143Y-15504450D02*
X13292191Y-15513974D01*
X13292191Y-15513974D02*
X13301715Y-15533022D01*
X13301715Y-15533022D02*
X13301715Y-15637784D01*
X13692191Y-15428260D02*
X13520763Y-15685403D01*
X13949334Y-15437784D02*
X13968382Y-15437784D01*
X13968382Y-15437784D02*
X13987429Y-15447308D01*
X13987429Y-15447308D02*
X13996953Y-15456831D01*
X13996953Y-15456831D02*
X14006477Y-15475879D01*
X14006477Y-15475879D02*
X14016001Y-15513974D01*
X14016001Y-15513974D02*
X14016001Y-15561593D01*
X14016001Y-15561593D02*
X14006477Y-15599688D01*
X14006477Y-15599688D02*
X13996953Y-15618736D01*
X13996953Y-15618736D02*
X13987429Y-15628260D01*
X13987429Y-15628260D02*
X13968382Y-15637784D01*
X13968382Y-15637784D02*
X13949334Y-15637784D01*
X13949334Y-15637784D02*
X13930286Y-15628260D01*
X13930286Y-15628260D02*
X13920763Y-15618736D01*
X13920763Y-15618736D02*
X13911239Y-15599688D01*
X13911239Y-15599688D02*
X13901715Y-15561593D01*
X13901715Y-15561593D02*
X13901715Y-15513974D01*
X13901715Y-15513974D02*
X13911239Y-15475879D01*
X13911239Y-15475879D02*
X13920763Y-15456831D01*
X13920763Y-15456831D02*
X13930286Y-15447308D01*
X13930286Y-15447308D02*
X13949334Y-15437784D01*
X14101715Y-15618736D02*
X14111239Y-15628260D01*
X14111239Y-15628260D02*
X14101715Y-15637784D01*
X14101715Y-15637784D02*
X14092191Y-15628260D01*
X14092191Y-15628260D02*
X14101715Y-15618736D01*
X14101715Y-15618736D02*
X14101715Y-15637784D01*
X14301715Y-15637784D02*
X14187429Y-15637784D01*
X14244572Y-15637784D02*
X14244572Y-15437784D01*
X14244572Y-15437784D02*
X14225525Y-15466355D01*
X14225525Y-15466355D02*
X14206477Y-15485403D01*
X14206477Y-15485403D02*
X14187429Y-15494927D01*
X14492191Y-15637784D02*
X14377906Y-15637784D01*
X14435048Y-15637784D02*
X14435048Y-15437784D01*
X14435048Y-15437784D02*
X14416001Y-15466355D01*
X14416001Y-15466355D02*
X14396953Y-15485403D01*
X14396953Y-15485403D02*
X14377906Y-15494927D01*
X14606477Y-15523498D02*
X14587429Y-15513974D01*
X14587429Y-15513974D02*
X14577906Y-15504450D01*
X14577906Y-15504450D02*
X14568382Y-15485403D01*
X14568382Y-15485403D02*
X14568382Y-15475879D01*
X14568382Y-15475879D02*
X14577906Y-15456831D01*
X14577906Y-15456831D02*
X14587429Y-15447308D01*
X14587429Y-15447308D02*
X14606477Y-15437784D01*
X14606477Y-15437784D02*
X14644572Y-15437784D01*
X14644572Y-15437784D02*
X14663620Y-15447308D01*
X14663620Y-15447308D02*
X14673144Y-15456831D01*
X14673144Y-15456831D02*
X14682667Y-15475879D01*
X14682667Y-15475879D02*
X14682667Y-15485403D01*
X14682667Y-15485403D02*
X14673144Y-15504450D01*
X14673144Y-15504450D02*
X14663620Y-15513974D01*
X14663620Y-15513974D02*
X14644572Y-15523498D01*
X14644572Y-15523498D02*
X14606477Y-15523498D01*
X14606477Y-15523498D02*
X14587429Y-15533022D01*
X14587429Y-15533022D02*
X14577906Y-15542546D01*
X14577906Y-15542546D02*
X14568382Y-15561593D01*
X14568382Y-15561593D02*
X14568382Y-15599688D01*
X14568382Y-15599688D02*
X14577906Y-15618736D01*
X14577906Y-15618736D02*
X14587429Y-15628260D01*
X14587429Y-15628260D02*
X14606477Y-15637784D01*
X14606477Y-15637784D02*
X14644572Y-15637784D01*
X14644572Y-15637784D02*
X14663620Y-15628260D01*
X14663620Y-15628260D02*
X14673144Y-15618736D01*
X14673144Y-15618736D02*
X14682667Y-15599688D01*
X14682667Y-15599688D02*
X14682667Y-15561593D01*
X14682667Y-15561593D02*
X14673144Y-15542546D01*
X14673144Y-15542546D02*
X14663620Y-15533022D01*
X14663620Y-15533022D02*
X14644572Y-15523498D01*
X14873144Y-15637784D02*
X14758858Y-15637784D01*
X14816001Y-15637784D02*
X14816001Y-15437784D01*
X14816001Y-15437784D02*
X14796953Y-15466355D01*
X14796953Y-15466355D02*
X14777906Y-15485403D01*
X14777906Y-15485403D02*
X14758858Y-15494927D01*
X14949334Y-15437784D02*
X14949334Y-15475879D01*
X15025525Y-15437784D02*
X15025525Y-15475879D01*
X15320763Y-15713974D02*
X15311239Y-15704450D01*
X15311239Y-15704450D02*
X15292191Y-15675879D01*
X15292191Y-15675879D02*
X15282668Y-15656831D01*
X15282668Y-15656831D02*
X15273144Y-15628260D01*
X15273144Y-15628260D02*
X15263620Y-15580641D01*
X15263620Y-15580641D02*
X15263620Y-15542546D01*
X15263620Y-15542546D02*
X15273144Y-15494927D01*
X15273144Y-15494927D02*
X15282668Y-15466355D01*
X15282668Y-15466355D02*
X15292191Y-15447308D01*
X15292191Y-15447308D02*
X15311239Y-15418736D01*
X15311239Y-15418736D02*
X15320763Y-15409212D01*
X15482668Y-15504450D02*
X15482668Y-15637784D01*
X15435048Y-15428260D02*
X15387429Y-15571117D01*
X15387429Y-15571117D02*
X15511239Y-15571117D01*
X15739810Y-15637784D02*
X15739810Y-15437784D01*
X15825525Y-15637784D02*
X15825525Y-15533022D01*
X15825525Y-15533022D02*
X15816001Y-15513974D01*
X15816001Y-15513974D02*
X15796953Y-15504450D01*
X15796953Y-15504450D02*
X15768382Y-15504450D01*
X15768382Y-15504450D02*
X15749334Y-15513974D01*
X15749334Y-15513974D02*
X15739810Y-15523498D01*
X15949334Y-15637784D02*
X15930287Y-15628260D01*
X15930287Y-15628260D02*
X15920763Y-15618736D01*
X15920763Y-15618736D02*
X15911239Y-15599688D01*
X15911239Y-15599688D02*
X15911239Y-15542546D01*
X15911239Y-15542546D02*
X15920763Y-15523498D01*
X15920763Y-15523498D02*
X15930287Y-15513974D01*
X15930287Y-15513974D02*
X15949334Y-15504450D01*
X15949334Y-15504450D02*
X15977906Y-15504450D01*
X15977906Y-15504450D02*
X15996953Y-15513974D01*
X15996953Y-15513974D02*
X16006477Y-15523498D01*
X16006477Y-15523498D02*
X16016001Y-15542546D01*
X16016001Y-15542546D02*
X16016001Y-15599688D01*
X16016001Y-15599688D02*
X16006477Y-15618736D01*
X16006477Y-15618736D02*
X15996953Y-15628260D01*
X15996953Y-15628260D02*
X15977906Y-15637784D01*
X15977906Y-15637784D02*
X15949334Y-15637784D01*
X16130287Y-15637784D02*
X16111239Y-15628260D01*
X16111239Y-15628260D02*
X16101715Y-15609212D01*
X16101715Y-15609212D02*
X16101715Y-15437784D01*
X16282668Y-15628260D02*
X16263620Y-15637784D01*
X16263620Y-15637784D02*
X16225525Y-15637784D01*
X16225525Y-15637784D02*
X16206477Y-15628260D01*
X16206477Y-15628260D02*
X16196953Y-15609212D01*
X16196953Y-15609212D02*
X16196953Y-15533022D01*
X16196953Y-15533022D02*
X16206477Y-15513974D01*
X16206477Y-15513974D02*
X16225525Y-15504450D01*
X16225525Y-15504450D02*
X16263620Y-15504450D01*
X16263620Y-15504450D02*
X16282668Y-15513974D01*
X16282668Y-15513974D02*
X16292191Y-15533022D01*
X16292191Y-15533022D02*
X16292191Y-15552069D01*
X16292191Y-15552069D02*
X16196953Y-15571117D01*
X16368382Y-15628260D02*
X16387430Y-15637784D01*
X16387430Y-15637784D02*
X16425525Y-15637784D01*
X16425525Y-15637784D02*
X16444572Y-15628260D01*
X16444572Y-15628260D02*
X16454096Y-15609212D01*
X16454096Y-15609212D02*
X16454096Y-15599688D01*
X16454096Y-15599688D02*
X16444572Y-15580641D01*
X16444572Y-15580641D02*
X16425525Y-15571117D01*
X16425525Y-15571117D02*
X16396953Y-15571117D01*
X16396953Y-15571117D02*
X16377906Y-15561593D01*
X16377906Y-15561593D02*
X16368382Y-15542546D01*
X16368382Y-15542546D02*
X16368382Y-15533022D01*
X16368382Y-15533022D02*
X16377906Y-15513974D01*
X16377906Y-15513974D02*
X16396953Y-15504450D01*
X16396953Y-15504450D02*
X16425525Y-15504450D01*
X16425525Y-15504450D02*
X16444572Y-15513974D01*
X16520763Y-15713974D02*
X16530287Y-15704450D01*
X16530287Y-15704450D02*
X16549334Y-15675879D01*
X16549334Y-15675879D02*
X16558858Y-15656831D01*
X16558858Y-15656831D02*
X16568382Y-15628260D01*
X16568382Y-15628260D02*
X16577906Y-15580641D01*
X16577906Y-15580641D02*
X16577906Y-15542546D01*
X16577906Y-15542546D02*
X16568382Y-15494927D01*
X16568382Y-15494927D02*
X16558858Y-15466355D01*
X16558858Y-15466355D02*
X16549334Y-15447308D01*
X16549334Y-15447308D02*
X16530287Y-15418736D01*
X16530287Y-15418736D02*
X16520763Y-15409212D01*
M02*
